<?xml version="1.0" encoding="UTF-8" standalone="no"?>
<svg
   xmlns:dc="http://purl.org/dc/elements/1.1/"
   xmlns:cc="http://creativecommons.org/ns#"
   xmlns:rdf="http://www.w3.org/1999/02/22-rdf-syntax-ns#"
   xmlns:svg="http://www.w3.org/2000/svg"
   xmlns="http://www.w3.org/2000/svg"
   xmlns:xlink="http://www.w3.org/1999/xlink"
   xmlns:sodipodi="http://sodipodi.sourceforge.net/DTD/sodipodi-0.dtd"
   xmlns:inkscape="http://www.inkscape.org/namespaces/inkscape"
   version="1.0"
   width="260.000000pt"
   height="260.000000pt"
   viewBox="0 0 260.000000 260.000000"
   preserveAspectRatio="xMidYMid meet"
   id="svg4041"
   inkscape:version="0.48.5 r10040"
   sodipodi:docname="teem.svg">
  <defs
     id="defs4051">
    <clipPath
       id="SVGID_2_">
      <use
         height="1052.3622"
         width="744.09448"
         y="0"
         x="0"
         xlink:href="#SVGID_1_"
         overflow="visible"
         id="use9"
         style="stroke:url(#linearGradient3806);overflow:visible" />
    </clipPath>
    <clipPath
       id="SVGID_4_">
      <use
         height="1052.3622"
         width="744.09448"
         y="0"
         x="0"
         xlink:href="#SVGID_3_"
         overflow="visible"
         id="use17"
         style="stroke:url(#linearGradient3806);overflow:visible" />
    </clipPath>
    <clipPath
       id="SVGID_6_">
      <use
         height="1052.3622"
         width="744.09448"
         y="0"
         x="0"
         xlink:href="#SVGID_5_"
         overflow="visible"
         id="use27"
         style="stroke:url(#linearGradient3806);overflow:visible" />
    </clipPath>
    <clipPath
       id="SVGID_8_">
      <use
         height="1052.3622"
         width="744.09448"
         y="0"
         x="0"
         xlink:href="#SVGID_7_"
         overflow="visible"
         id="use35"
         style="stroke:url(#linearGradient3806);overflow:visible" />
    </clipPath>
    <clipPath
       id="SVGID_10_">
      <use
         height="1052.3622"
         width="744.09448"
         y="0"
         x="0"
         xlink:href="#SVGID_9_"
         overflow="visible"
         id="use43"
         style="stroke:url(#linearGradient3806);overflow:visible" />
    </clipPath>
  </defs>
  <sodipodi:namedview
     pagecolor="#ffffff"
     bordercolor="#666666"
     borderopacity="1"
     objecttolerance="10"
     gridtolerance="10"
     guidetolerance="10"
     inkscape:pageopacity="0"
     inkscape:pageshadow="2"
     inkscape:window-width="796"
     inkscape:window-height="480"
     id="namedview4049"
     showgrid="false"
     inkscape:zoom="0.72615385"
     inkscape:cx="371.62148"
     inkscape:cy="127.29557"
     inkscape:window-x="602"
     inkscape:window-y="110"
     inkscape:window-maximized="0"
     inkscape:current-layer="svg4041" />
  <metadata
     id="metadata4043">
Created by potrace 1.11, written by Peter Selinger 2001-2013
<rdf:RDF>
  <cc:Work
     rdf:about="">
    <dc:format>image/svg+xml</dc:format>
    <dc:type
       rdf:resource="http://purl.org/dc/dcmitype/StillImage" />
  </cc:Work>
</rdf:RDF>
</metadata>
  <g
     transform="translate(0.000000,260.000000) scale(0.100000,-0.100000)"
     fill="#000000"
     stroke="none"
     id="g4045">
    <path
       d="M1126 2589 c-549 -76 -986 -487 -1103 -1039 -25 -119 -25 -382 0 -500 58 -273 179 -493 376 -683 186 -179 393 -289 651 -344 118 -25 382 -25 500 0 258 55 465 165 651 344 197 190 318 410 376 683 25 118 25 382 0 500 -58 273 -179 493 -376 683 -185 178 -395 290 -646 342 -95 20 -332 28 -429 14z m79 -363 c42 -18 69 -67 61 -110 -3 -17 -21 -82 -40 -145 l-35 -113 37 6 c176 29 347 31 482 6 95 -17 136 -91 95 -169 -24 -48 -58 -55 -192 -41 -88 9 -143 9 -217 1 -137 -16 -234 -39 -245 -59 -14 -28 -20 -200 -10 -317 17 -211 73 -362 178 -477 67 -73 110 -95 200 -104 119 -13 219 40 297 157 66 100 123 123 183 74 64 -55 62 -129 -6 -232 -115 -173 -323 -253 -549 -210 -93 18 -159 48 -226 104 -187 154 -298 443 -302 784 -1 124 -2 127 -21 116 -36 -19 -139 -90 -185 -127 -63 -52 -87 -63 -124 -56 -38 7 -81 49 -90 88 -4 16 0 42 8 62 25 60 202 192 365 272 l77 38 28 115 c15 64 42 159 59 211 27 80 37 98 66 117 40 27 59 28 106 9z"
       id="path4047" />
  </g>
  <g
     transform="matrix(0.8,0,0,0.8,138.02712,136.92582)"
     id="g3"
     style="fill:#000000;fill-opacity:1;stroke:#000000;stroke-linejoin:miter;stroke-opacity:1">
    <defs
       id="defs5">
      <rect
         id="SVGID_1_"
         x="3.0139999"
         y="3.0929999"
         width="17.972"
         height="17.813999"
         style="stroke:url(#linearGradient3806)" />
    </defs>
    <clipPath
       id="clipPath3835">
      <use
         height="1052.3622"
         width="744.09448"
         y="0"
         x="0"
         xlink:href="#SVGID_1_"
         overflow="visible"
         id="use3837"
         style="stroke:url(#linearGradient3806);overflow:visible" />
    </clipPath>
    <g
       clip-path="url(#SVGID_2_)"
       id="g11"
       style="fill:#000000;fill-opacity:1;stroke:#000000;stroke-linejoin:miter;stroke-opacity:1">
      <defs
         id="defs13">
        <rect
           id="SVGID_3_"
           x="-340.65601"
           y="-172.43201"
           width="1280"
           height="850"
           style="stroke:url(#linearGradient3806)" />
      </defs>
      <clipPath
         id="clipPath3842">
        <use
           height="1052.3622"
           width="744.09448"
           y="0"
           x="0"
           xlink:href="#SVGID_3_"
           overflow="visible"
           id="use3844"
           style="stroke:url(#linearGradient3806);overflow:visible" />
      </clipPath>
      <g
         clip-path="url(#SVGID_4_)"
         enable-background="new    "
         id="g19"
         style="fill:#000000;fill-opacity:1;stroke:#000000;stroke-linejoin:miter;stroke-opacity:1">
        <g
           id="g21"
           style="fill:#000000;fill-opacity:1;stroke:#000000;stroke-linejoin:miter;stroke-opacity:1">
          <defs
             id="defs23">
            <rect
               id="SVGID_5_"
               x="3.0139999"
               y="3.0929999"
               width="18"
               height="18"
               style="stroke:url(#linearGradient3806)" />
          </defs>
          <clipPath
             id="clipPath3850">
            <use
               height="1052.3622"
               width="744.09448"
               y="0"
               x="0"
               xlink:href="#SVGID_5_"
               overflow="visible"
               id="use3852"
               style="stroke:url(#linearGradient3806);overflow:visible" />
          </clipPath>
          <g
             clip-path="url(#SVGID_6_)"
             id="g29"
             style="fill:#000000;fill-opacity:1;stroke:#000000;stroke-linejoin:miter;stroke-opacity:1">
            <defs
               id="defs31">
              <path
                 inkscape:connector-curvature="0"
                 id="SVGID_7_"
                 d="m 7.907,10.119 -1.398,1.386 4.493,4.453 9.984,-9.896 -1.397,-1.385 -8.587,8.461 -3.095,-3.019 z m 11.082,8.809 H 5.011 V 5.072 h 9.985 V 3.093 H 5.011 c -1.099,0 -1.997,0.891 -1.997,1.979 v 13.855 c 0,1.089 0.898,1.979 1.997,1.979 h 13.978 c 1.099,0 1.997,-0.891 1.997,-1.979 V 11.01 h -1.997 v 7.918 z"
                 style="stroke:url(#linearGradient3806)" />
            </defs>
            <clipPath
               id="clipPath3857">
              <use
                 height="1052.3622"
                 width="744.09448"
                 y="0"
                 x="0"
                 xlink:href="#SVGID_7_"
                 overflow="visible"
                 id="use3859"
                 style="stroke:url(#linearGradient3806);overflow:visible" />
            </clipPath>
            <g
               clip-path="url(#SVGID_8_)"
               id="g37"
               style="fill:#000000;fill-opacity:1;stroke:#000000;stroke-linejoin:miter;stroke-opacity:1">
              <defs
                 id="defs39">
                <rect
                   id="SVGID_9_"
                   x="3.0139999"
                   y="3.0929999"
                   width="18"
                   height="18"
                   style="stroke:url(#linearGradient3806)" />
              </defs>
              <clipPath
                 id="clipPath3864">
                <use
                   height="1052.3622"
                   width="744.09448"
                   y="0"
                   x="0"
                   xlink:href="#SVGID_9_"
                   overflow="visible"
                   id="use3866"
                   style="stroke:url(#linearGradient3806);overflow:visible" />
              </clipPath>
              <rect
                 x="-1.9859999"
                 y="-1.9069999"
                 clip-path="url(#SVGID_10_)"
                 width="27.972"
                 height="27.813999"
                 id="rect45"
                 style="fill:#000000;fill-opacity:1;stroke:#000000;stroke-linejoin:miter;stroke-opacity:1" />
            </g>
          </g>
        </g>
      </g>
    </g>
  </g>
</svg>
