<?xml version="1.0" encoding="UTF-8" standalone="no"?>
<svg width="160px" height="145px" viewBox="0 0 160 145" version="1.1" xmlns="http://www.w3.org/2000/svg" xmlns:xlink="http://www.w3.org/1999/xlink">
    <!-- Generator: Sketch 3.6.1 (26313) - http://www.bohemiancoding.com/sketch -->
    <title>tag1</title>
    <desc>Created with Sketch.</desc>
    <defs>
        <path id="path-1" d="M12.7498767,0.566133151 L0.648932222,0.566133151 L0.648932222,12.6837694 L12.7498767,12.6837694 L12.7498767,0.566133151 L12.7498767,0.566133151 Z"></path>
        <path id="path-3" d="M0,72.3516675 L134,72.3516675 L134,0.566133151 L0,0.566133151 L0,72.3516675 Z"></path>
    </defs>
    <g id="Page-1" stroke="none" stroke-width="1" fill="none" fill-rule="evenodd">
        <g id="12_matchmaking" transform="translate(-17.000000, -167.000000)">
            <g id="tag1" transform="translate(17.000000, 167.000000)">
                <rect id="Rectangle-487" stroke="#A7B4BE" stroke-width="2" fill="#FFFFFF" x="0" y="0" width="160" height="145"></rect>
                <g id="Page-1" transform="translate(13.000000, 20.000000)">
                    <g id="Group-30" transform="translate(0.000000, 0.179910)">
                        <path d="M33.38007,33.5848982 L33.2006589,33.5960866 L33.56097,28.1107859 C33.5818144,27.7975107 33.3443367,27.5274972 33.0324144,27.5073581 C32.7257033,27.4864731 32.4495144,27.7236672 32.4301589,28.0369425 L32.0594256,33.6654547 L31.7430367,33.6855938 L31.2926478,28.2040226 C31.27627,28.0026314 31.1534367,27.8251087 30.9717922,27.7378392 C30.7894033,27.6513155 30.5735144,27.6677252 30.4075033,27.7833387 L24.0901478,32.1259305 L19.9681589,28.8775644 L21.8337367,23.8703815 C21.9439144,23.5764995 21.7942811,23.2497981 21.50097,23.1394059 C21.2069144,23.0305054 20.8815922,23.1789382 20.7721589,23.4728203 L19.0338811,28.1406217 L16.4454478,26.100603 C16.2786922,25.9700716 16.0553589,25.9432195 15.8632922,26.0289972 C15.6712256,26.114775 15.5416922,26.3012483 15.5290367,26.5123362 L15.0697144,33.9451647 L15.0116478,33.9391976 L12.7961811,30.0627891 C12.6398478,29.7912839 12.2944256,29.6973013 12.0219589,29.8531931 C11.7494922,30.0090848 11.6556922,30.3559253 11.8120256,30.6274305 L13.6232589,33.7974778 L12.7872478,33.7131918 C11.7092922,32.0155383 10.57327,30.1948123 9.95984778,29.1595121 C10.9693144,29.2572242 12.5259478,29.4138618 13.6292144,29.5264917 C13.9329478,29.5563275 14.2054144,29.3415102 14.2471033,29.0386774 L15.0548256,23.1655121 L17.9752811,25.8969741 C18.1122589,26.0260136 18.30507,26.0782262 18.4882033,26.0364561 C18.6705922,25.9939402 18.8217144,25.8641548 18.8902033,25.6896157 L20.8935033,20.5660734 L25.4562033,26.639884 C25.5663811,26.786825 25.7390922,26.8785699 25.9222256,26.8666356 C26.1053589,26.8621602 26.2743478,26.7696694 26.3778256,26.6182531 L28.5553256,23.4161324 L30.1112144,26.6182531 C30.2251144,26.8509718 30.4834367,26.9800114 30.7343144,26.9255612 L34.6046811,26.1334223 L33.38007,33.5848982 L33.38007,33.5848982 Z M33.4761033,38.0132677 L32.4845033,38.0132677 L33.5133256,35.6875719 C33.6406256,35.4011488 33.5110922,35.0654967 33.2244811,34.9386948 C32.9371256,34.811147 32.6036144,34.9409325 32.4770589,35.2273556 L31.2450033,38.0132677 L13.6977033,38.0132677 C13.6969589,38.0110301 13.6969589,38.0087924 13.6962144,38.0058088 L12.2780478,35.2012493 C12.1366033,34.9215393 11.7971367,34.8081635 11.5157367,34.9506291 C11.2373144,35.0923489 11.1249033,35.4339681 11.2663478,35.7136781 L12.4276811,38.0132677 L11.7472589,38.0132677 C11.4427811,37.520978 10.6923811,36.0769283 9.93751444,34.5642563 L15.5409478,35.1348648 C15.6965367,35.1505286 15.8476589,35.1027914 15.9652811,35.0028417 C16.0836478,34.9036378 16.15437,34.7596804 16.1647922,34.6052804 L16.5935922,27.6632498 L23.7171811,33.27759 C23.9114811,33.4297523 24.1824589,33.4394489 24.3871811,33.299221 L30.2422367,29.2736338 L30.6583811,34.3330293 C30.6836922,34.6410833 30.9524367,34.8782775 31.2576589,34.8529171 L33.5252367,34.7141809 C33.5929811,34.7611722 33.66817,34.7969751 33.7537811,34.811147 C33.7843033,34.8148765 33.81557,34.8178601 33.8460922,34.8178601 C33.9882811,34.8178601 34.1200478,34.762664 34.2212922,34.671665 L34.9702033,34.6261655 L33.4761033,38.0132677 L33.4761033,38.0132677 Z M34.4513256,42.4863909 L10.7400256,42.4863909 L10.0581144,39.1492635 L33.8438589,39.1492635 L33.8446033,39.1492635 L33.8468367,39.1492635 L35.1637589,39.1492635 L34.4513256,42.4863909 L34.4513256,42.4863909 Z M28.7451589,69.2296557 L16.2035033,69.2296557 L15.5692367,66.1252471 L29.4077144,66.1252471 L28.7451589,69.2296557 L28.7451589,69.2296557 Z M29.6504033,64.9892513 L15.3377144,64.9892513 L14.4384256,60.5899716 L30.5891478,60.5899716 L29.6504033,64.9892513 L29.6504033,64.9892513 Z M30.8310922,59.4547217 L14.2061589,59.4547217 L13.24657,54.7578305 L31.8338589,54.7578305 L30.8310922,59.4547217 L30.8310922,59.4547217 Z M32.0758033,53.6210888 L13.0143033,53.6210888 L12.07407,49.0181801 L33.0577256,49.0181801 L32.0758033,53.6210888 L32.0758033,53.6210888 Z M33.3011589,47.8821844 L11.8418033,47.8821844 L10.9708033,43.6223867 L34.2093811,43.6223867 L33.3011589,47.8821844 L33.3011589,47.8821844 Z M35.6908256,25.0019019 C35.5568256,24.8713705 35.3669922,24.8161744 35.1853478,24.8549609 L30.9382922,25.7246727 L29.1464144,22.039213 C29.05857,21.8564691 28.8799033,21.7348885 28.6781589,21.7207165 C28.4793922,21.7095281 28.2828589,21.7997812 28.1689589,21.9676072 L25.8864922,25.3241279 L21.1890478,19.0698111 C21.06547,18.9049686 20.8659589,18.8199367 20.6590033,18.8490266 C20.4565144,18.8766246 20.2830589,19.0131231 20.2093589,19.2048178 L18.1390589,24.4961861 L15.0295144,21.5879474 C14.8739256,21.4432441 14.6520811,21.3977446 14.4518256,21.4678586 C14.2530589,21.5394644 14.1093811,21.7154952 14.0803478,21.9258372 L13.1989256,28.341267 C11.4874478,28.1667279 9.13500333,27.9317715 8.97345889,27.9317715 C8.76650333,27.9317715 8.57071444,28.047385 8.47095889,28.229383 C8.27963667,28.579207 8.23720333,28.6605094 11.3497256,33.5669967 L9.03078111,33.3298026 C8.82382556,33.3119011 8.62580333,33.4021543 8.50818111,33.5707262 C8.39055889,33.7415358 8.37343667,33.9615744 8.46425889,34.1465559 C9.42608111,36.1037804 10.0283367,37.2882593 10.4340589,38.0132677 L9.36280333,38.0132677 C9.19232556,38.0132677 9.03152556,38.0908407 8.92358111,38.2228638 C8.81638111,38.354887 8.77320333,38.5286801 8.80744778,38.6957603 L15.1851033,69.9114024 C15.2394478,70.1761946 15.4717144,70.3656515 15.7412033,70.3656515 L29.2044811,70.3656515 C29.4717367,70.3656515 29.7025144,70.1784323 29.7583478,69.9158778 L36.4188922,38.6994897 C36.45537,38.5331555 36.4136811,38.3571246 36.3064811,38.2243556 C36.1985367,38.0908407 36.0362478,38.0132677 35.8650256,38.0132677 L34.7156033,38.0132677 L36.3839033,34.2315878 C36.4635589,34.0503357 36.4434589,33.8407396 36.3303033,33.6773889 C36.2171478,33.5147842 36.0183811,33.4215475 35.8307811,33.4357195 L34.5414033,33.5140383 L35.8568367,25.5038882 C35.8873589,25.3196525 35.82557,25.1316874 35.6908256,25.0019019 L35.6908256,25.0019019 Z" id="Fill-1" fill="#D9E1E6"></path>
                        <path d="M29.0609522,30.7557242 L25.5881189,33.5602837 C25.34543,33.7564537 25.3067189,34.1144825 25.5039967,34.3583897 C25.6156633,34.4978718 25.7801856,34.5702234 25.9447078,34.5702234 C26.06903,34.5702234 26.1948411,34.5291993 26.3005522,34.4434216 L29.7726411,31.639608 C30.0160744,31.4426921 30.0547856,31.0854091 29.8575078,30.840756 C29.6617189,30.5975948 29.3058744,30.5580624 29.0609522,30.7557242" id="Fill-3" fill="#D9E1E6"></path>
                        <path d="M120.136211,68.7933827 C120.453344,68.2600688 120.760056,67.7207878 121.054111,67.1725561" id="Stroke-5" stroke="#D9E1E6" stroke-width="2" stroke-linecap="round"></path>
                        <path d="M124.110651,59.9854249 C125.435762,55.8516833 126.151173,51.4449446 126.151173,46.869634 C126.151173,23.2061633 107.005551,4.02402073 83.38954,4.02402073 C76.0694178,4.02402073 69.17884,5.86637763 63.15554,9.11399783" id="Stroke-7" stroke="#D9E1E6" stroke-width="2" stroke-linecap="round" stroke-dasharray="5.245,10.49"></path>
                        <path d="M59.8049444,11.123584 C59.2875556,11.4674409 58.7776111,11.8217403 58.2766,12.1864823" id="Stroke-9" stroke="#D9E1E6" stroke-width="2" stroke-linecap="round"></path>
                        <path d="M102.733333,56.8080679 C102.733333,58.8682257 101.067267,60.5375353 99.0111111,60.5375353 L34.9888889,60.5375353 C32.9327333,60.5375353 31.2666667,58.8682257 31.2666667,56.8080679 L31.2666667,18.0216069 C31.2666667,15.9614492 32.9327333,14.2921395 34.9888889,14.2921395 L99.0111111,14.2921395 C101.067267,14.2921395 102.733333,15.9614492 102.733333,18.0216069 L102.733333,56.8080679 Z" id="Fill-11" fill="#D9E1E6"></path>
                        <g id="Group-15" transform="translate(111.666667, 0.000000)">
                            <mask id="mask-2" fill="white">
                                <use xlink:href="#path-1"></use>
                            </mask>
                            <g id="Clip-14"></g>
                            <path d="M4.32053222,6.6248767 C5.32106556,6.06993196 6.14739889,5.2412443 6.69977667,4.23876346 C7.25215444,5.2412443 8.07997667,6.06993196 9.07902111,6.6248767 C8.07997667,7.17982145 7.25215444,8.00850911 6.69977667,9.01173584 C6.14739889,8.00850911 5.32106556,7.17982145 4.32053222,6.6248767 M5.94863222,11.9326547 C5.94863222,12.3481174 6.28437667,12.6837694 6.69754333,12.6837694 C6.69754333,12.6837694 6.69828778,12.6830235 6.69977667,12.6830235 C6.70052111,12.6830235 6.70201,12.6837694 6.70201,12.6837694 C7.11517667,12.6837694 7.45092111,12.3481174 7.45092111,11.9326547 C7.45092111,11.923704 7.45017667,11.916245 7.45017667,11.9072943 C7.46432111,9.42943619 9.45794333,7.41925326 11.9242878,7.37822912 C11.9503433,7.37897501 11.9756544,7.38270448 12.0002211,7.38270448 C12.4141322,7.38270448 12.7498767,7.04481473 12.7498767,6.63084385 L12.7498767,6.6248767 L12.7498767,6.61890956 C12.7498767,6.20493868 12.4141322,5.86779482 12.0002211,5.86779482 C11.9756544,5.86779482 11.9503433,5.8707784 11.9242878,5.87152429 C9.45794333,5.83050015 7.46506556,3.82031722 7.45017667,1.34245908 C7.45017667,1.33276247 7.45092111,1.32604943 7.45092111,1.31709871 C7.45092111,0.902381931 7.11517667,0.565983972 6.70201,0.565983972 C6.70201,0.565983972 6.70052111,0.566729866 6.69977667,0.566729866 C6.69828778,0.566729866 6.69828778,0.565983972 6.69828778,0.565983972 C6.28437667,0.565983972 5.94863222,0.902381931 5.94863222,1.31709871 C5.94863222,1.32604943 5.94937667,1.33276247 5.94937667,1.34245908 C5.93597667,3.82031722 3.94086556,5.83050015 1.47601,5.87152429 C1.45069889,5.8707784 1.42389889,5.86779482 1.39858778,5.86779482 C0.985421111,5.86779482 0.648932222,6.20493868 0.648932222,6.61890956 C0.648932222,6.62114724 0.650421111,6.62338492 0.650421111,6.6248767 C0.650421111,6.62711439 0.648932222,6.62935207 0.648932222,6.63084385 C0.648932222,7.04481473 0.985421111,7.38270448 1.39858778,7.38270448 C1.42389889,7.38270448 1.45069889,7.37897501 1.47601,7.37822912 C3.94086556,7.41925326 5.93448778,9.42943619 5.94937667,11.9072943 C5.94937667,11.916245 5.94863222,11.923704 5.94863222,11.9326547" id="Fill-13" fill="#A5B4BD" mask="url(#mask-2)"></path>
                        </g>
                        <path d="M0.744444444,70.2341505 L52.8555556,70.2341505" id="Stroke-16" stroke="#8198AC" stroke-width="2" stroke-linecap="round"></path>
                        <path d="M83.3777778,70.2341505 L98.2666667,70.2341505" id="Stroke-18" stroke="#8198AC" stroke-width="2" stroke-linecap="round"></path>
                        <path d="M103.477778,70.2341505 L133.255556,70.2341505" id="Stroke-20" stroke="#8198AC" stroke-width="2" stroke-linecap="round"></path>
                        <path d="M25.7131111,3.76735879 C26.2044444,3.49436177 26.6109111,3.08710393 26.8826333,2.59406834 C27.1551,3.08710393 27.5615667,3.49436177 28.0536444,3.76735879 C27.5615667,4.0403558 27.1551,4.44835953 26.8826333,4.94139512 C26.6109111,4.44835953 26.2044444,4.0403558 25.7131111,3.76735879 M26.5133889,6.37873186 C26.5133889,6.58236078 26.6786556,6.74794913 26.8818889,6.74794913 C26.8826333,6.74794913 26.8826333,6.74720324 26.8826333,6.74720324 C26.8833778,6.74720324 26.8841222,6.74794913 26.8841222,6.74794913 C27.0873556,6.74794913 27.2518778,6.58236078 27.2518778,6.37873186 L27.2518778,6.36605167 C27.2593222,5.14726172 28.2405,4.15820697 29.4524556,4.13806784 C29.4658556,4.13881374 29.4785111,4.14030553 29.4904222,4.14030553 C29.6944,4.14030553 29.8589222,3.97397128 29.8589222,3.77108825 L29.8589222,3.76735879 L29.8589222,3.76437521 C29.8589222,3.56149219 29.6944,3.39515794 29.4904222,3.39515794 C29.4785111,3.39515794 29.4658556,3.39739562 29.4524556,3.39739562 C28.2405,3.3772565 27.2593222,2.38820174 27.2518778,1.1694118 L27.2518778,1.15673161 C27.2518778,0.953102688 27.0873556,0.787514335 26.8841222,0.787514335 L26.8826333,0.787514335 L26.8818889,0.787514335 C26.6786556,0.787514335 26.5133889,0.953102688 26.5133889,1.15673161 C26.5133889,1.16120697 26.5141333,1.16493644 26.5141333,1.1694118 C26.5066889,2.38820174 25.5255111,3.3772565 24.3135556,3.39739562 C24.3009,3.39739562 24.2875,3.39515794 24.2748444,3.39515794 C24.0723556,3.39515794 23.9063444,3.56149219 23.9063444,3.76437521 C23.9063444,3.765867 23.9070889,3.76661289 23.9070889,3.76661289 C23.9070889,3.76885057 23.9063444,3.76959647 23.9063444,3.77108825 C23.9063444,3.97397128 24.0723556,4.14030553 24.2748444,4.14030553 C24.2875,4.14030553 24.3009,4.13881374 24.3135556,4.13806784 C25.5255111,4.15820697 26.5059444,5.14726172 26.5141333,6.36605167 C26.5141333,6.36978113 26.5133889,6.3742565 26.5133889,6.37873186" id="Fill-22" fill="#4ACEBF"></path>
                        <path d="M19.2552044,10.5175456 C19.62966,10.3094413 19.9393489,9.99914963 20.1463044,9.62321931 C20.3540044,9.99914963 20.6644378,10.3094413 21.0388933,10.5175456 C20.6644378,10.7256499 20.3540044,11.0359416 20.1463044,11.4118719 C19.9393489,11.0359416 19.62966,10.7256499 19.2552044,10.5175456 M19.8649044,12.5075894 C19.8649044,12.6627352 19.9907156,12.7887912 20.14556,12.7887912 L20.1463044,12.7887912 L20.1477933,12.7887912 C20.3018933,12.7887912 20.4277044,12.6627352 20.4277044,12.5075894 L20.4277044,12.4978928 C20.43366,11.5685095 21.1810822,10.8151571 22.1049378,10.8002392 C22.11536,10.8002392 22.1242933,10.801731 22.1339711,10.801731 C22.2888156,10.801731 22.4146267,10.6749291 22.4146267,10.5205292 L22.4146267,10.5182915 L22.4146267,10.5160538 C22.4146267,10.3601621 22.2888156,10.2333602 22.1339711,10.2333602 C22.1242933,10.2333602 22.11536,10.234852 22.1049378,10.234852 C21.1810822,10.2199341 20.43366,9.46658168 20.4277044,8.53719841 L20.4277044,8.52750179 C20.4277044,8.37235595 20.3018933,8.24629995 20.1477933,8.24629995 L20.1463044,8.24629995 L20.14556,8.24629995 C19.9907156,8.24629995 19.8649044,8.37235595 19.8649044,8.52750179 C19.8649044,8.53123126 19.8656489,8.53421483 19.8656489,8.53719841 C19.8596933,9.46658168 19.1122711,10.2199341 18.1884156,10.234852 C18.1787378,10.234852 18.1683156,10.2333602 18.1586378,10.2333602 C18.0045378,10.2333602 17.8779822,10.3601621 17.8779822,10.5153079 C17.8779822,10.5153079 17.8787267,10.5167997 17.8787267,10.5175456 C17.8787267,10.5175456 17.8779822,10.5190374 17.8779822,10.5205292 C17.8779822,10.6749291 18.0045378,10.801731 18.1586378,10.801731 C18.1683156,10.801731 18.1787378,10.8002392 18.1884156,10.8002392 C19.1122711,10.8151571 19.8596933,11.5685095 19.8656489,12.4978928 C19.8656489,12.5008764 19.8649044,12.5038599 19.8649044,12.5075894" id="Fill-24" fill="#FF7687"></path>
                        <mask id="mask-4" fill="white">
                            <use xlink:href="#path-3"></use>
                        </mask>
                        <g id="Clip-27"></g>
                        <path d="M36.4777778,55.3162063 L99.7555556,55.3162063 L99.7555556,16.5297454 L36.4777778,16.5297454 L36.4777778,55.3162063 Z" id="Fill-26" fill="#CAF7FA" mask="url(#mask-4)"></path>
                        <path d="M62.5333333,70.2340759 L71.4666667,70.2340759 L71.4666667,59.7915672 L62.5333333,59.7915672 L62.5333333,70.2340759 Z" id="Fill-28" fill="#D9E1E6" mask="url(#mask-4)"></path>
                        <path d="M112.068667,59.7093697 C112.56,59.4363727 112.966467,59.0291149 113.238189,58.5360793 C113.510656,59.0291149 113.917122,59.4363727 114.4092,59.7093697 C113.917122,59.9823667 113.510656,60.3903705 113.238189,60.8834061 C112.966467,60.3903705 112.56,59.9823667 112.068667,59.7093697 M112.868944,62.3207428 C112.868944,62.5243717 113.034211,62.6899601 113.237444,62.6899601 C113.238189,62.6899601 113.238189,62.6892142 113.238189,62.6892142 C113.238933,62.6892142 113.239678,62.6899601 113.239678,62.6899601 C113.442911,62.6899601 113.607433,62.5243717 113.607433,62.3207428 L113.607433,62.3080626 C113.614878,61.0892727 114.596056,60.1002179 115.808011,60.0800788 C115.821411,60.0808247 115.834067,60.0823165 115.845978,60.0823165 C116.049956,60.0823165 116.214478,59.9159822 116.214478,59.7130992 L116.214478,59.7093697 L116.214478,59.7063862 C116.214478,59.5035031 116.049956,59.3371689 115.845978,59.3371689 C115.834067,59.3371689 115.821411,59.3394066 115.808011,59.3394066 C114.596056,59.3192674 113.614878,58.3302127 113.607433,57.1114227 L113.607433,57.0987426 C113.607433,56.8951136 113.442911,56.7295253 113.239678,56.7295253 L113.238189,56.7295253 L113.237444,56.7295253 C113.034211,56.7295253 112.868944,56.8951136 112.868944,57.0987426 C112.868944,57.1032179 112.869689,57.1069474 112.869689,57.1114227 C112.862244,58.3302127 111.881067,59.3192674 110.669111,59.3394066 C110.656456,59.3394066 110.643056,59.3371689 110.6304,59.3371689 C110.427911,59.3371689 110.2619,59.5035031 110.2619,59.7063862 C110.2619,59.7078779 110.262644,59.7086238 110.262644,59.7086238 C110.262644,59.7108615 110.2619,59.7116074 110.2619,59.7130992 C110.2619,59.9159822 110.427911,60.0823165 110.6304,60.0823165 C110.643056,60.0823165 110.656456,60.0808247 110.669111,60.0800788 C111.881067,60.1002179 112.8615,61.0892727 112.869689,62.3080626 C112.869689,62.3117921 112.868944,62.3162674 112.868944,62.3207428" id="Fill-29" fill="#4ACEBF" mask="url(#mask-4)"></path>
                    </g>
                    <path d="M34.4112,56.8678139 L100.062267,56.8678139 L100.062267,16.7536626 L34.4112,16.7536626 L34.4112,56.8678139 Z M36.7249333,54.5510688 L97.7485333,54.5510688 L97.7485333,19.0726454 L36.7249333,19.0726454 L36.7249333,54.5510688 Z" id="Fill-31" fill="#455763"></path>
                    <g id="Group-39" transform="translate(29.777778, 12.114205)">
                        <path d="M7.23897778,42.5211496 L67.6819111,42.5211496 L67.6819111,7.05988178 L7.23897778,7.05988178 L7.23897778,42.5211496 Z M69.9926667,44.8401324 L4.9245,44.8401324 L4.9245,4.74089895 L69.9949,4.74089895 L69.9949,44.8401324 L69.9926667,44.8401324 Z M4.95948889,2.57109482 C3.7453,2.57109482 2.75518889,3.56089547 2.75518889,4.77819363 L2.75518889,44.8006 C2.75518889,46.0171523 3.7453,47.006953 4.95948889,47.006953 L69.9584222,47.006953 C71.1726111,47.006953 72.1634667,46.0171523 72.1634667,44.8006 L72.1634667,4.77819363 C72.1634667,3.56089547 71.1726111,2.57109482 69.9584222,2.57109482 L4.95948889,2.57109482 Z M69.9584222,49.3259358 L4.95948889,49.3259358 C2.46708889,49.3259358 0.441455556,47.2948678 0.441455556,44.8006 L0.441455556,4.77819363 C0.441455556,2.28392583 2.46708889,0.253603783 4.95948889,0.253603783 L69.9584222,0.253603783 C72.4493333,0.253603783 74.4764556,2.28392583 74.4764556,4.77819363 L74.4764556,44.8006 C74.4764556,47.2948678 72.4493333,49.3259358 69.9584222,49.3259358 L69.9584222,49.3259358 Z" id="Fill-32" fill="#455763"></path>
                        <path d="M31.8547778,58.1737242 L43.0631333,58.1737242 L43.0631333,48.169055 L31.8547778,48.169055 L31.8547778,58.1737242 Z M34.1685111,55.8562332 L40.7486556,55.8562332 L40.7486556,50.4872919 L34.1685111,50.4872919 L34.1685111,55.8562332 Z" id="Fill-34" fill="#455763"></path>
                        <path d="M21.6298333,60.4173718 L53.2888222,60.4173718 L53.2888222,55.9293308 L21.6298333,55.9293308 L21.6298333,60.4173718 Z" id="Fill-35" fill="#455763"></path>
                        <path d="M31.9805889,16.8860587 L17.7609556,23.0501224 L17.7609556,26.4782489 L31.9805889,32.6699106 L31.9805889,28.6592414 L22.0623556,24.7216697 L31.9805889,20.9235801 L31.9805889,16.8860587 Z" id="Fill-36" fill="#8198AC"></path>
                        <path d="M41.4199211,13.9090487 L38.4317211,13.9090487 L33.2972878,35.3885432 L36.2251878,35.3885432 L41.4199211,13.9090487 Z" id="Fill-37" fill="#8198AC"></path>
                        <path d="M42.7364711,16.9137314 L42.7364711,20.8960566 L52.6703378,24.7620225 L42.7364711,28.6742338 L42.7364711,32.6841572 L56.9717378,26.4783234 L56.9717378,23.078541 L42.7364711,16.9137314 Z" id="Fill-38" fill="#8198AC"></path>
                    </g>
                </g>
            </g>
        </g>
    </g>
</svg>