<?xml version="1.0" encoding="utf-8"?>
<!-- Generator: Adobe Illustrator 16.0.0, SVG Export Plug-In . SVG Version: 6.00 Build 0)  -->
<!DOCTYPE svg PUBLIC "-//W3C//DTD SVG 1.1//EN" "http://www.w3.org/Graphics/SVG/1.1/DTD/svg11.dtd">
<svg version="1.1" xmlns="http://www.w3.org/2000/svg" xmlns:xlink="http://www.w3.org/1999/xlink" x="0px" y="0px"
	 width="139.344px" height="90.164px" viewBox="0 0 139.344 90.164" enable-background="new 0 0 139.344 90.164"
	 xml:space="preserve">
<g id="Capa_1">
	<g opacity="0.437" enable-background="new    ">
		<g>
			<defs>
				<rect id="SVGID_1_" x="13.032" y="14.065" width="115" height="63"/>
			</defs>
			<clipPath id="SVGID_2_">
				<use xlink:href="#SVGID_1_"  overflow="visible"/>
			</clipPath>
			<g clip-path="url(#SVGID_2_)">
				<defs>
					<path id="SVGID_3_" d="M124.185,61.463c-2.094-2.392-5.062-3.604-8.834-3.604c-0.02,0-0.035,0.015-0.055,0.016
						c-0.168,0.009-0.328,0.058-0.48,0.138c-0.051,0.027-0.094,0.055-0.139,0.088c-0.043,0.031-0.094,0.047-0.133,0.084
						c-0.07,0.067-1.762,1.644-4.615,1.644c-2.852,0-4.545-1.576-4.609-1.641c-0.041-0.04-0.094-0.057-0.139-0.091
						c-0.045-0.03-0.084-0.059-0.131-0.083c-0.168-0.089-0.348-0.15-0.533-0.151c-0.004,0-0.006-0.003-0.01-0.003h-0.004
						c-0.004,0-0.01,0.002-0.016,0.002c-3.76,0.005-6.725,1.215-8.812,3.602c-4.359,4.985-3.213,13.265-3.16,13.614
						c0.082,0.564,0.572,0.981,1.146,0.981h32.537c0.576,0,1.064-0.419,1.146-0.981C127.396,74.728,128.546,66.449,124.185,61.463z
						 M109.929,62.122c1.072,0,2.008-0.182,2.826-0.433l-2.826,5.797l-2.828-5.797C107.919,61.94,108.857,62.122,109.929,62.122z
						 M125.144,73.767H94.712c-0.148-2.184-0.17-7.51,2.713-10.803c1.502-1.717,3.641-2.654,6.363-2.794l5.098,10.45
						c0.193,0.397,0.598,0.648,1.043,0.648c0.443,0,0.848-0.251,1.043-0.648l5.096-10.45c2.723,0.138,4.857,1.075,6.359,2.788
						C125.306,66.24,125.291,71.578,125.144,73.767z M109.929,56.466c5.322,0,9.652-4.286,9.652-9.553
						c0-5.269-4.33-9.553-9.652-9.553s-9.654,4.284-9.654,9.553C100.275,52.18,104.607,56.466,109.929,56.466z M109.929,39.65
						c4.045,0,7.336,3.259,7.336,7.262c0,4.004-3.291,7.261-7.336,7.261s-7.336-3.257-7.336-7.261
						C102.593,42.909,105.884,39.65,109.929,39.65z M36.558,57.859c-0.02,0-0.035,0.015-0.055,0.016
						c-0.167,0.009-0.329,0.058-0.481,0.138c-0.049,0.027-0.093,0.055-0.138,0.088c-0.042,0.031-0.094,0.047-0.132,0.084
						c-0.071,0.067-1.764,1.644-4.617,1.644c-2.852,0-4.545-1.576-4.609-1.641c-0.042-0.04-0.096-0.057-0.141-0.09
						c-0.042-0.03-0.083-0.058-0.129-0.084c-0.167-0.089-0.346-0.149-0.53-0.15c-0.004,0-0.008-0.004-0.011-0.004h-0.004
						c-0.006,0-0.012,0.002-0.017,0.002c-3.759,0.005-6.723,1.215-8.812,3.602c-4.365,4.986-3.213,13.265-3.162,13.614
						c0.081,0.564,0.57,0.981,1.145,0.981h32.538c0.574,0,1.063-0.419,1.144-0.981c0.052-0.351,1.204-8.63-3.157-13.616
						C43.3,59.071,40.326,57.859,36.558,57.859z M31.134,62.122c1.073,0,2.009-0.182,2.828-0.433l-2.828,5.797l-2.827-5.797
						C29.125,61.94,30.063,62.122,31.134,62.122z M46.349,73.767h-30.43c-0.149-2.184-0.169-7.51,2.712-10.803
						c1.503-1.717,3.64-2.654,6.364-2.794l5.099,10.45c0.387,0.793,1.699,0.793,2.085,0l5.098-10.45
						c2.719,0.138,4.855,1.075,6.355,2.788C46.511,66.24,46.497,71.578,46.349,73.767z M31.134,56.466
						c5.323,0,9.653-4.286,9.653-9.553c0-5.269-4.331-9.553-9.653-9.553c-5.321,0-9.653,4.284-9.653,9.553
						C21.481,52.18,25.813,56.466,31.134,56.466z M31.134,39.65c4.045,0,7.337,3.259,7.337,7.262c0,4.004-3.292,7.261-7.337,7.261
						s-7.336-3.257-7.336-7.261C23.798,42.909,27.089,39.65,31.134,39.65z M96.287,45.696c0.432,0.049,0.838-0.16,1.07-0.513
						c0.234-0.352,0.254-0.803,0.053-1.175c-1.342-2.465-2.809-5.238-3.236-6.172c0.984-2.746,1.25-5.703,0.766-8.576
						c-0.762-4.551-3.273-8.535-7.062-11.221c-3.795-2.686-8.416-3.746-13.016-2.991C65.367,16.61,58.925,25.522,60.5,34.921
						c0.501,2.981,1.788,5.698,3.682,8.008c-1.104,0.288-2.188,0.667-3.235,1.174c-2.938,1.422-5.389,3.607-7.118,6.341l-6.939,1.4
						c-0.417,0.083-0.754,0.389-0.878,0.793c-0.122,0.403-0.011,0.842,0.291,1.14c2,1.981,4.204,4.225,4.884,5.001
						c-0.149,2.909,0.453,5.817,1.746,8.434c2.954,5.976,8.968,9.688,15.692,9.688h0.001c2.667,0,5.241-0.592,7.657-1.761
						c8.643-4.187,12.236-14.55,8.01-23.107c-0.59-1.193-1.33-2.268-2.146-3.27c2.619-0.681,5.043-1.913,7.084-3.688L96.287,45.696z
						 M82.218,53.038c3.666,7.422,0.549,16.413-6.949,20.042c-2.094,1.014-4.325,1.526-6.638,1.526h-0.002
						c-5.833,0-11.05-3.219-13.612-8.402c-1.167-2.359-1.684-4.992-1.491-7.683c0.043-0.564,0.056-0.743-4.065-4.855l5.138-1.038
						c0.381-0.019,0.745-0.22,0.949-0.567c1.508-2.557,3.727-4.597,6.417-5.898c2.094-1.015,4.327-1.529,6.642-1.529
						C74.438,44.635,79.656,47.854,82.218,53.038z M88.056,43.035c-2.148,1.993-4.82,3.3-7.723,3.805
						c-3.146-2.84-7.271-4.499-11.727-4.499c-0.604,0-1.202,0.041-1.796,0.103c-2.117-2.182-3.519-4.894-4.024-7.898
						c-1.367-8.149,4.221-15.881,12.455-17.235c3.994-0.651,8,0.268,11.287,2.593c3.287,2.328,5.465,5.784,6.129,9.732
						c0.434,2.593,0.166,5.262-0.795,7.779c-0.205,0.53-0.271,0.697,2.488,5.807L89.13,42.76
						C88.761,42.666,88.349,42.76,88.056,43.035z M77.705,54.717h-3.631c0.109-0.497,0.172-1.07,0.119-1.677
						c-0.115-1.346-0.826-2.644-1.805-3.307c-0.735-0.498-1.608-0.637-2.456-0.388c-1.673,0.488-1.599,2.597-1.557,3.854
						l0.015,0.488c0,1.125-1.156,2.023-2.02,2.539c-0.229-0.075-0.461-0.098-0.672-0.071h-6.182c-0.363,0-0.707,0.17-0.926,0.459
						c-0.308,0.405-0.657,0.866,0.52,9.529c0.077,0.571,0.568,0.996,1.148,0.996h5.82c0.5-0.01,0.855-0.23,1.088-0.621l0.328,0.148
						c0.152,0.069,0.317,0.105,0.484,0.105h7.275c1.504,0,2.479-0.437,2.9-1.298c0.291-0.595,0.221-1.197,0.049-1.686
						c0.48-0.501,0.65-1.01,0.699-1.401c0.045-0.365-0.002-0.696-0.094-0.983c0.305-0.345,0.465-0.7,0.545-0.989
						c0.117-0.411,0.113-0.806,0.057-1.151c0.582-0.404,1.086-1.042,1.086-1.961C80.498,56.057,79.623,54.717,77.705,54.717z
						 M64.593,64.847h-3.32c-0.316-2.463-0.598-5.065-0.664-6.4h3.984V64.847z M77.712,57.553c-0.355,0.084-0.646,0.341-0.789,0.676
						c-0.143,0.334-0.113,0.724,0.074,1.037c0.078,0.134,0.166,0.395,0.123,0.538c-0.035,0.115-0.219,0.22-0.324,0.273
						c-0.322,0.161-0.541,0.477-0.605,0.83c-0.066,0.353,0.055,0.729,0.297,0.995c0.055,0.058,0.115,0.164,0.117,0.199
						c-0.012,0.039-0.119,0.191-0.457,0.389c-0.287,0.166-0.484,0.449-0.549,0.77c-0.064,0.323,0.018,0.661,0.219,0.921
						c0.051,0.067,0.104,0.154,0.145,0.236c-0.141,0.03-0.365,0.062-0.709,0.062h-7.021l-0.883-0.403
						c-0.139-0.063-0.289-0.089-0.442-0.095v-5.433c2.442-1.245,3.794-2.964,3.794-4.86l-0.012-0.567
						c-0.014-0.385-0.043-1.232,0.061-1.602c0.13,0.01,0.218,0.03,0.33,0.108c0.404,0.272,0.75,0.965,0.805,1.608
						c0.09,1.061-0.459,2.059-0.461,2.062c-0.202,0.354-0.199,0.79,0.008,1.142c0.209,0.354,0.588,0.57,1,0.57h5.271
						c0.475,0,0.475,0.146,0.48,0.277C78.14,57.368,77.89,57.507,77.712,57.553z M71.628,30.016c-0.982,0-1.779,0.789-1.779,1.762
						c0,0.974,0.797,1.763,1.779,1.763c0.984,0,1.781-0.789,1.781-1.763C73.41,30.805,72.611,30.016,71.628,30.016z M78.056,30.016
						c-0.984,0-1.781,0.789-1.781,1.762c0,0.974,0.797,1.763,1.781,1.763c0.982,0,1.781-0.789,1.781-1.763
						C79.837,30.805,79.039,30.016,78.056,30.016z M84.205,30.016c-0.982,0-1.779,0.789-1.779,1.762
						c0,0.974,0.797,1.763,1.779,1.763c0.984,0,1.781-0.789,1.781-1.763C85.986,30.805,85.189,30.016,84.205,30.016z"/>
				</defs>
				<clipPath id="SVGID_4_">
					<use xlink:href="#SVGID_3_"  overflow="visible"/>
				</clipPath>
				<g clip-path="url(#SVGID_4_)">
					<defs>
						<rect id="SVGID_5_" x="13.032" y="14.065" width="115" height="63"/>
					</defs>
					<clipPath id="SVGID_6_">
						<use xlink:href="#SVGID_5_"  overflow="visible"/>
					</clipPath>
					<rect x="8.545" y="9.812" clip-path="url(#SVGID_6_)" fill="#8696A9" width="123.974" height="72.088"/>
				</g>
			</g>
		</g>
	</g>
</g>
<g id="Capa_2">
</g>
</svg>
