<?xml version="1.0" encoding="utf-8"?>
<!-- Generator: Adobe Illustrator 16.0.0, SVG Export Plug-In . SVG Version: 6.00 Build 0)  -->
<!DOCTYPE svg PUBLIC "-//W3C//DTD SVG 1.1//EN" "http://www.w3.org/Graphics/SVG/1.1/DTD/svg11.dtd">
<svg version="1.1" xmlns="http://www.w3.org/2000/svg" xmlns:xlink="http://www.w3.org/1999/xlink" x="0px" y="0px"
	 width="169.672px" height="153.52px" viewBox="0 0 169.672 153.52" enable-background="new 0 0 169.672 153.52"
	 xml:space="preserve">
<g id="Capa_1">
	<g opacity="0.437" enable-background="new    ">
		<g>
			<defs>
				<rect id="SVGID_1_" x="-251.722" y="-25.279" width="115" height="63"/>
			</defs>
			<clipPath id="SVGID_2_">
				<use xlink:href="#SVGID_1_"  overflow="visible"/>
			</clipPath>
			<g clip-path="url(#SVGID_2_)">
				<defs>
					<path id="SVGID_3_" d="M-140.569,22.119c-2.094-2.392-5.062-3.604-8.834-3.604c-0.02,0-0.035,0.015-0.055,0.016
						c-0.168,0.009-0.328,0.058-0.48,0.138c-0.051,0.027-0.094,0.055-0.139,0.088c-0.043,0.031-0.094,0.047-0.133,0.084
						c-0.07,0.067-1.762,1.644-4.615,1.644c-2.852,0-4.545-1.576-4.609-1.641c-0.041-0.04-0.094-0.057-0.139-0.091
						c-0.045-0.03-0.084-0.059-0.131-0.083c-0.168-0.089-0.348-0.15-0.533-0.151c-0.004,0-0.006-0.003-0.01-0.003h-0.004
						c-0.004,0-0.01,0.002-0.016,0.002c-3.76,0.005-6.725,1.215-8.812,3.602c-4.359,4.985-3.213,13.265-3.16,13.614
						c0.082,0.564,0.572,0.981,1.146,0.981h32.537c0.576,0,1.064-0.419,1.146-0.981C-137.358,35.383-136.208,27.105-140.569,22.119z
						 M-154.825,22.778c1.072,0,2.008-0.182,2.826-0.433l-2.826,5.797l-2.828-5.797C-156.835,22.596-155.897,22.778-154.825,22.778z
						 M-139.61,34.422h-30.432c-0.148-2.184-0.17-7.51,2.713-10.803c1.502-1.717,3.641-2.654,6.363-2.794l5.098,10.45
						c0.193,0.397,0.598,0.648,1.043,0.648c0.443,0,0.848-0.251,1.043-0.648l5.096-10.45c2.723,0.138,4.857,1.075,6.359,2.788
						C-139.448,26.896-139.464,32.234-139.61,34.422z M-154.825,17.122c5.322,0,9.652-4.286,9.652-9.553
						c0-5.269-4.33-9.553-9.652-9.553s-9.654,4.284-9.654,9.553C-164.479,12.835-160.147,17.122-154.825,17.122z M-154.825,0.306
						c4.045,0,7.336,3.259,7.336,7.262c0,4.004-3.291,7.261-7.336,7.261s-7.336-3.257-7.336-7.261
						C-162.161,3.565-158.87,0.306-154.825,0.306z M-228.196,18.515c-0.02,0-0.035,0.015-0.055,0.016
						c-0.167,0.009-0.329,0.058-0.481,0.138c-0.049,0.027-0.093,0.055-0.138,0.088c-0.042,0.031-0.094,0.047-0.132,0.084
						c-0.071,0.067-1.764,1.644-4.617,1.644c-2.852,0-4.545-1.576-4.609-1.641c-0.042-0.04-0.096-0.057-0.141-0.09
						c-0.042-0.03-0.083-0.058-0.129-0.084c-0.167-0.089-0.346-0.149-0.53-0.15c-0.004,0-0.008-0.004-0.011-0.004h-0.004
						c-0.006,0-0.012,0.002-0.017,0.002c-3.759,0.005-6.723,1.215-8.812,3.602c-4.365,4.986-3.213,13.265-3.162,13.614
						c0.081,0.564,0.57,0.981,1.145,0.981h32.538c0.574,0,1.063-0.419,1.144-0.981c0.052-0.351,1.204-8.63-3.157-13.616
						C-221.455,19.727-224.428,18.515-228.196,18.515z M-233.62,22.778c1.073,0,2.009-0.182,2.828-0.433l-2.828,5.797l-2.827-5.797
						C-235.629,22.596-234.691,22.778-233.62,22.778z M-218.405,34.422h-30.43c-0.149-2.184-0.169-7.51,2.712-10.803
						c1.503-1.717,3.64-2.654,6.364-2.794l5.099,10.45c0.387,0.793,1.699,0.793,2.085,0l5.098-10.45
						c2.719,0.138,4.855,1.075,6.355,2.788C-218.244,26.896-218.258,32.234-218.405,34.422z M-233.62,17.122
						c5.323,0,9.653-4.286,9.653-9.553c0-5.269-4.331-9.553-9.653-9.553c-5.321,0-9.653,4.284-9.653,9.553
						C-243.273,12.835-238.941,17.122-233.62,17.122z M-233.62,0.306c4.045,0,7.337,3.259,7.337,7.262
						c0,4.004-3.292,7.261-7.337,7.261s-7.336-3.257-7.336-7.261C-240.957,3.565-237.666,0.306-233.62,0.306z M-168.468,6.352
						c0.432,0.049,0.838-0.16,1.07-0.513c0.234-0.352,0.254-0.803,0.053-1.175c-1.342-2.465-2.809-5.238-3.236-6.172
						c0.984-2.746,1.25-5.703,0.766-8.576c-0.762-4.551-3.273-8.535-7.062-11.221c-3.795-2.686-8.416-3.746-13.016-2.991
						c-9.494,1.562-15.936,10.474-14.361,19.872c0.501,2.981,1.788,5.698,3.682,8.008c-1.104,0.288-2.188,0.667-3.235,1.174
						c-2.938,1.422-5.389,3.607-7.118,6.341l-6.939,1.4c-0.417,0.083-0.754,0.389-0.878,0.793c-0.122,0.403-0.011,0.842,0.291,1.14
						c2,1.981,4.204,4.225,4.884,5.001c-0.149,2.909,0.453,5.817,1.746,8.434c2.954,5.976,8.968,9.688,15.692,9.688h0.001
						c2.667,0,5.241-0.592,7.657-1.761c8.643-4.187,12.236-14.55,8.01-23.107c-0.59-1.193-1.33-2.268-2.146-3.27
						c2.619-0.681,5.043-1.913,7.084-3.688L-168.468,6.352z M-182.536,13.694c3.666,7.422,0.549,16.413-6.949,20.042
						c-2.094,1.014-4.325,1.526-6.638,1.526h-0.002c-5.833,0-11.05-3.219-13.612-8.402c-1.167-2.359-1.684-4.992-1.491-7.683
						c0.043-0.564,0.056-0.743-4.065-4.855l5.138-1.038c0.381-0.019,0.745-0.22,0.949-0.567c1.508-2.557,3.727-4.597,6.417-5.898
						c2.094-1.015,4.327-1.529,6.642-1.529C-190.316,5.291-185.099,8.509-182.536,13.694z M-176.698,3.691
						c-2.148,1.993-4.82,3.3-7.723,3.805c-3.146-2.84-7.271-4.499-11.727-4.499c-0.604,0-1.202,0.041-1.796,0.103
						c-2.117-2.182-3.519-4.894-4.024-7.898c-1.367-8.149,4.221-15.881,12.455-17.235c3.994-0.651,8,0.268,11.287,2.593
						c3.287,2.328,5.465,5.784,6.129,9.732c0.434,2.593,0.166,5.262-0.795,7.779c-0.205,0.53-0.271,0.697,2.488,5.807l-5.221-0.461
						C-175.993,3.322-176.405,3.416-176.698,3.691z M-187.05,15.373h-3.631c0.109-0.497,0.172-1.07,0.119-1.677
						c-0.115-1.346-0.826-2.644-1.805-3.307c-0.735-0.498-1.608-0.637-2.456-0.388c-1.673,0.488-1.599,2.597-1.557,3.854
						l0.015,0.488c0,1.125-1.156,2.023-2.02,2.539c-0.229-0.075-0.461-0.098-0.672-0.071h-6.182c-0.363,0-0.707,0.17-0.926,0.459
						c-0.308,0.405-0.657,0.866,0.52,9.529c0.077,0.571,0.568,0.996,1.148,0.996h5.82c0.5-0.01,0.855-0.23,1.088-0.621l0.328,0.148
						c0.152,0.069,0.317,0.105,0.484,0.105h7.275c1.504,0,2.479-0.437,2.9-1.298c0.291-0.595,0.221-1.197,0.049-1.686
						c0.48-0.501,0.65-1.01,0.699-1.401c0.045-0.365-0.002-0.696-0.094-0.983c0.305-0.345,0.465-0.7,0.545-0.989
						c0.117-0.411,0.113-0.806,0.057-1.151c0.582-0.404,1.086-1.042,1.086-1.961C-184.257,16.712-185.132,15.373-187.05,15.373z
						 M-200.161,25.502h-3.32c-0.316-2.463-0.598-5.065-0.664-6.4h3.984V25.502z M-187.042,18.208
						c-0.355,0.084-0.646,0.341-0.789,0.676c-0.143,0.334-0.113,0.724,0.074,1.037c0.078,0.134,0.166,0.395,0.123,0.538
						c-0.035,0.115-0.219,0.22-0.324,0.273c-0.322,0.161-0.541,0.477-0.605,0.83c-0.066,0.353,0.055,0.729,0.297,0.995
						c0.055,0.058,0.115,0.164,0.117,0.199c-0.012,0.039-0.119,0.191-0.457,0.389c-0.287,0.166-0.484,0.449-0.549,0.77
						c-0.064,0.323,0.018,0.661,0.219,0.921c0.051,0.067,0.104,0.154,0.145,0.236c-0.141,0.03-0.365,0.062-0.709,0.062h-7.021
						l-0.883-0.403c-0.139-0.063-0.289-0.089-0.442-0.095v-5.433c2.442-1.245,3.794-2.964,3.794-4.86l-0.012-0.567
						c-0.014-0.385-0.043-1.232,0.061-1.602c0.13,0.01,0.218,0.03,0.33,0.108c0.404,0.272,0.75,0.965,0.805,1.608
						c0.09,1.061-0.459,2.059-0.461,2.062c-0.202,0.354-0.199,0.79,0.008,1.142c0.209,0.354,0.588,0.57,1,0.57h5.271
						c0.475,0,0.475,0.146,0.48,0.277C-186.614,18.024-186.864,18.163-187.042,18.208z M-193.126-9.329
						c-0.982,0-1.779,0.789-1.779,1.762c0,0.974,0.797,1.763,1.779,1.763c0.984,0,1.781-0.789,1.781-1.763
						C-191.345-8.54-192.144-9.329-193.126-9.329z M-186.698-9.329c-0.984,0-1.781,0.789-1.781,1.762
						c0,0.974,0.797,1.763,1.781,1.763c0.982,0,1.781-0.789,1.781-1.763C-184.917-8.54-185.716-9.329-186.698-9.329z M-180.55-9.329
						c-0.982,0-1.779,0.789-1.779,1.762c0,0.974,0.797,1.763,1.779,1.763c0.984,0,1.781-0.789,1.781-1.763
						C-178.769-8.54-179.565-9.329-180.55-9.329z"/>
				</defs>
				<clipPath id="SVGID_4_">
					<use xlink:href="#SVGID_3_"  overflow="visible"/>
				</clipPath>
				<g clip-path="url(#SVGID_4_)">
					<defs>
						<rect id="SVGID_5_" x="-251.722" y="-25.279" width="115" height="63"/>
					</defs>
					<clipPath id="SVGID_6_">
						<use xlink:href="#SVGID_5_"  overflow="visible"/>
					</clipPath>
					<rect x="-256.209" y="-29.533" clip-path="url(#SVGID_6_)" fill="#8696A9" width="123.974" height="72.088"/>
				</g>
			</g>
		</g>
	</g>
</g>
<g id="Capa_2">
	<g>
		<defs>
			<path id="SVGID_7_" d="M-524.603,147.648l3.528-3.756c0.725,0.415,1.413,0.728,2.449,0.728c2.283,0,4.986-1.245,7.063-3.319
				c1.557-1.554,2.708-3.425,3.123-5.288c0.521-2.18,0.112-4.152-1.237-5.502c-0.935-0.93-2.256-1.452-3.709-1.452
				c-2.283,0-4.936,1.246-7.01,3.32c-1.559,1.559-2.596,3.422-3.014,5.291c-0.414,1.764-0.004,3.424,0.725,4.667l-1.987,2.271
				L-524.603,147.648z M-518.835,134.039c1.765-1.764,3.841-2.701,5.503-2.701c0.828,0,1.659,0.318,2.18,0.833
				c1.557,1.56,0.728,4.982-1.973,7.677c-1.766,1.766-3.84,2.697-5.502,2.697c-0.416,0-0.831,0-1.144-0.208l4.672-4.667
				c0.415-0.415,0.415-1.139,0-1.554c-0.413-0.415-1.14-0.415-1.557,0l-4.671,4.668
				C-522.052,139.02-521.015,136.217-518.835,134.039z"/>
		</defs>
		<clipPath id="SVGID_8_">
			<use xlink:href="#SVGID_7_"  overflow="visible"/>
		</clipPath>
		<g clip-path="url(#SVGID_8_)">
			<defs>
				<rect id="SVGID_9_" x="-674.247" y="-531.147" width="360" height="1083"/>
			</defs>
			<clipPath id="SVGID_10_">
				<use xlink:href="#SVGID_9_"  overflow="visible"/>
			</clipPath>
			<rect x="-529.671" y="124.059" clip-path="url(#SVGID_10_)" fill="#DAE0E5" width="26.45" height="28.59"/>
		</g>
	</g>
	<g>
		<defs>
			<path id="SVGID_11_" d="M-459.114,125.462l-1.985-2.271c0.729-1.243,1.139-2.903,0.723-4.667
				c-0.414-1.869-1.453-3.732-3.01-5.291c-2.076-2.073-4.728-3.318-7.014-3.318c-1.451,0-2.773,0.521-3.709,1.452
				c-1.348,1.349-1.756,3.32-1.235,5.501c0.415,1.862,1.566,3.733,3.123,5.287c2.075,2.074,4.778,3.319,7.062,3.319
				c1.038,0,1.726-0.311,2.45-0.728l3.526,3.757L-459.114,125.462z M-462.458,121.64l-4.67-4.669c-0.417-0.415-1.142-0.415-1.558,0
				c-0.414,0.415-0.414,1.139,0,1.554l4.672,4.667c-0.312,0.208-0.725,0.208-1.141,0.208c-1.663,0-3.738-0.932-5.504-2.696
				c-2.699-2.694-3.527-6.118-1.971-7.677c0.518-0.515,1.35-0.834,2.18-0.834c1.66,0,3.734,0.938,5.502,2.701
				C-462.768,117.072-461.73,119.875-462.458,121.64z"/>
		</defs>
		<clipPath id="SVGID_12_">
			<use xlink:href="#SVGID_11_"  overflow="visible"/>
		</clipPath>
		<g clip-path="url(#SVGID_12_)">
			<defs>
				<rect id="SVGID_13_" x="-674.247" y="-531.147" width="360" height="1083"/>
			</defs>
			<clipPath id="SVGID_14_">
				<use xlink:href="#SVGID_13_"  overflow="visible"/>
			</clipPath>
			<rect x="-480.562" y="104.915" clip-path="url(#SVGID_14_)" fill="#DAE0E5" width="26.448" height="28.589"/>
		</g>
	</g>
	<g>
		<defs>
			<path id="SVGID_15_" d="M-479.906,152.83l3.527-3.757c0.726,0.415,1.412,0.728,2.45,0.728c2.283,0,4.985-1.245,7.063-3.318
				c1.555-1.555,2.707-3.426,3.123-5.288c0.52-2.181,0.111-4.152-1.237-5.502c-0.935-0.931-2.257-1.453-3.71-1.453
				c-2.283,0-4.935,1.247-7.012,3.32c-1.559,1.559-2.595,3.422-3.012,5.291c-0.416,1.764-0.005,3.424,0.723,4.667l-1.984,2.271
				L-479.906,152.83z M-474.14,139.22c1.766-1.763,3.843-2.701,5.502-2.701c0.831,0,1.662,0.319,2.18,0.834
				c1.557,1.559,0.729,4.982-1.971,7.677c-1.768,1.765-3.84,2.696-5.504,2.696c-0.415,0-0.83,0-1.141-0.208l4.67-4.667
				c0.417-0.415,0.417-1.139,0-1.554c-0.414-0.415-1.139-0.415-1.555,0l-4.671,4.669
				C-477.357,144.201-476.318,141.398-474.14,139.22z"/>
		</defs>
		<clipPath id="SVGID_16_">
			<use xlink:href="#SVGID_15_"  overflow="visible"/>
		</clipPath>
		<g clip-path="url(#SVGID_16_)">
			<defs>
				<rect id="SVGID_17_" x="-674.247" y="-531.147" width="360" height="1083"/>
			</defs>
			<clipPath id="SVGID_18_">
				<use xlink:href="#SVGID_17_"  overflow="visible"/>
			</clipPath>
			<rect x="-484.974" y="129.239" clip-path="url(#SVGID_18_)" fill="#DAE0E5" width="26.45" height="28.591"/>
		</g>
	</g>
	<g>
		<defs>
			<path id="SVGID_19_" d="M-470.37,62.985c-0.556-0.574-0.547-1.49,0.019-2.055c0.084-0.084,2.1-2.078,5.441-3.532
				c0.046-0.27,0.092-0.552,0.15-0.84l0.152-0.624c0.221-1.049,1.047-3.571,1.056-3.596c0.192-0.595,0.741-0.994,1.363-0.994
				c0.151,0,0.304,0.029,0.452,0.075c0.361,0.12,0.659,0.378,0.836,0.724c0.169,0.347,0.197,0.74,0.074,1.107
				c-0.186,0.563-0.715,2.229-0.926,3.099c2.307-0.539,4.662-0.591,6.977-0.161c0.778,0.139,1.299,0.896,1.156,1.682
				c-0.124,0.688-0.721,1.188-1.412,1.188c-0.086,0-0.172-0.005-0.261-0.023c-2.321-0.428-4.702-0.26-7.029,0.497
				c-0.717,6.037,0.969,8.937,1.732,9.907c0.712,0.906,1.305,1.507,2.037,1.718c0.516,0.146,1.004,0.22,1.462,0.22
				c2.244,0,3.266-1.795,3.652-2.47c0.071-0.13,0.119-0.215,0.17-0.28c0.293-0.379,0.73-0.609,1.176-0.609
				c0.422,0,0.799,0.21,1.037,0.571c0.637,0.978,0.293,1.655-0.036,2.305c-0.179,0.354-1.825,3.373-5.843,3.373h-0.002
				c-0.655,0-1.347-0.084-2.059-0.25c-0.672-0.152-2.4-0.746-3.917-2.869c-1.046-1.472-2.712-4.728-2.405-10.304
				c-1.719,0.964-2.803,1.947-3.018,2.151l-0.007,0.003c-0.267,0.27-0.626,0.417-1.003,0.417
				C-469.73,63.415-470.093,63.265-470.37,62.985 M-477.15,63.58c0,9.353,7.518,16.934,16.795,16.934
				c9.275,0,16.797-7.581,16.797-16.934c0-9.354-7.521-16.937-16.797-16.937C-469.632,46.644-477.15,54.227-477.15,63.58"/>
		</defs>
		<clipPath id="SVGID_20_">
			<use xlink:href="#SVGID_19_"  overflow="visible"/>
		</clipPath>
		<g clip-path="url(#SVGID_20_)">
			<defs>
				<rect id="SVGID_21_" x="-674.247" y="-531.147" width="360" height="1083"/>
			</defs>
			<clipPath id="SVGID_22_">
				<use xlink:href="#SVGID_21_"  overflow="visible"/>
			</clipPath>
			<rect x="-482.15" y="41.644" clip-path="url(#SVGID_22_)" fill="#E16B59" width="43.592" height="43.87"/>
		</g>
	</g>
	<g>
		<defs>
			<path id="SVGID_23_" d="M-470.369,62.987c-0.559-0.577-0.547-1.493,0.019-2.055c0.083-0.084,2.099-2.08,5.44-3.535
				c0.047-0.269,0.092-0.551,0.15-0.839l0.152-0.625c0.219-1.048,1.047-3.568,1.057-3.596c0.191-0.593,0.74-0.991,1.361-0.991
				c0.152,0,0.305,0.026,0.451,0.074c0.363,0.118,0.66,0.375,0.838,0.723c0.17,0.348,0.197,0.739,0.074,1.106
				c-0.186,0.564-0.715,2.229-0.926,3.1c2.307-0.539,4.662-0.592,6.977-0.162c0.779,0.14,1.299,0.898,1.156,1.683
				c-0.125,0.688-0.722,1.189-1.411,1.189c-0.087,0-0.175-0.008-0.262-0.025c-2.321-0.426-4.702-0.26-7.03,0.499
				c-0.714,6.036,0.969,8.935,1.734,9.907c0.711,0.905,1.305,1.506,2.037,1.716c0.514,0.146,1.003,0.221,1.461,0.221
				c2.245,0,3.266-1.795,3.652-2.47c0.072-0.13,0.119-0.217,0.17-0.28c0.293-0.377,0.73-0.61,1.175-0.61
				c0.423,0,0.8,0.211,1.038,0.573c0.638,0.978,0.294,1.654-0.036,2.306c-0.179,0.352-1.825,3.371-5.842,3.371h-0.003
				c-0.654,0-1.346-0.084-2.059-0.251c-0.672-0.15-2.399-0.746-3.915-2.868c-1.048-1.474-2.712-4.728-2.408-10.303
				c-1.717,0.962-2.802,1.945-3.019,2.15l-0.006,0.003c-0.267,0.27-0.625,0.416-1.002,0.416
				C-469.73,63.414-470.093,63.264-470.369,62.987z M-477.15,63.579c0,9.354,7.518,16.934,16.795,16.934
				c9.275,0,16.797-7.579,16.797-16.934c0-9.353-7.521-16.937-16.797-16.937C-469.632,46.643-477.15,54.227-477.15,63.579z"/>
		</defs>
		<clipPath id="SVGID_24_">
			<use xlink:href="#SVGID_23_"  overflow="visible"/>
		</clipPath>
		<g clip-path="url(#SVGID_24_)">
			<defs>
				<rect id="SVGID_25_" x="-674.247" y="-531.147" width="360" height="1083"/>
			</defs>
			<clipPath id="SVGID_26_">
				<use xlink:href="#SVGID_25_"  overflow="visible"/>
			</clipPath>
			<g clip-path="url(#SVGID_26_)" enable-background="new    ">
				<g>
					<defs>
						<rect id="SVGID_27_" x="-477.247" y="45.853" width="34" height="35"/>
					</defs>
					<clipPath id="SVGID_28_">
						<use xlink:href="#SVGID_27_"  overflow="visible"/>
					</clipPath>
					<g clip-path="url(#SVGID_28_)">
						<defs>
							<rect id="SVGID_29_" x="-477.345" y="45.553" width="34.877" height="36.437"/>
						</defs>
						<clipPath id="SVGID_30_">
							<use xlink:href="#SVGID_29_"  overflow="visible"/>
						</clipPath>
						<g clip-path="url(#SVGID_30_)">
							<defs>
								<rect id="SVGID_31_" x="-477.247" y="45.853" width="34" height="35"/>
							</defs>
							<clipPath id="SVGID_32_">
								<use xlink:href="#SVGID_31_"  overflow="visible"/>
							</clipPath>
							<rect x="-482.345" y="40.553" clip-path="url(#SVGID_32_)" fill="#B5F0FE" width="44.877" height="46.437"/>
						</g>
					</g>
					<g clip-path="url(#SVGID_28_)">
						<defs>
							<rect id="SVGID_33_" x="-484.89" y="38.882" width="49.072" height="49.392"/>
						</defs>
						<clipPath id="SVGID_34_">
							<use xlink:href="#SVGID_33_"  overflow="visible"/>
						</clipPath>
						<g clip-path="url(#SVGID_34_)">
							<defs>
								<rect id="SVGID_35_" x="-477.247" y="45.853" width="34" height="35"/>
							</defs>
							<clipPath id="SVGID_36_">
								<use xlink:href="#SVGID_35_"  overflow="visible"/>
							</clipPath>
							<rect x="-489.89" y="33.882" clip-path="url(#SVGID_36_)" fill="#B5F0FE" width="59.072" height="59.392"/>
						</g>
					</g>
					<g clip-path="url(#SVGID_28_)">
						<defs>
							<rect id="SVGID_37_" x="-477.345" y="45.553" width="34.877" height="36.437"/>
						</defs>
						<clipPath id="SVGID_38_">
							<use xlink:href="#SVGID_37_"  overflow="visible"/>
						</clipPath>
						<g clip-path="url(#SVGID_38_)">
							<defs>
								<rect id="SVGID_39_" x="-477.247" y="45.853" width="34" height="35"/>
							</defs>
							<clipPath id="SVGID_40_">
								<use xlink:href="#SVGID_39_"  overflow="visible"/>
							</clipPath>
							<rect x="-482.345" y="40.553" clip-path="url(#SVGID_40_)" fill="#B5F0FE" width="44.877" height="46.437"/>
						</g>
					</g>
					<g clip-path="url(#SVGID_28_)">
						<defs>
							<rect id="SVGID_41_" x="-492.818" y="30.961" width="64.928" height="65.233"/>
						</defs>
						<clipPath id="SVGID_42_">
							<use xlink:href="#SVGID_41_"  overflow="visible"/>
						</clipPath>
						<g clip-path="url(#SVGID_42_)">
							<defs>
								<rect id="SVGID_43_" x="-477.247" y="45.853" width="34" height="35"/>
							</defs>
							<clipPath id="SVGID_44_">
								<use xlink:href="#SVGID_43_"  overflow="visible"/>
							</clipPath>
							<rect x="-497.817" y="25.961" clip-path="url(#SVGID_44_)" fill="#B5F0FE" width="74.927" height="75.233"/>
						</g>
					</g>
				</g>
			</g>
		</g>
	</g>
	<g>
		<defs>
			<path id="SVGID_45_" d="M-494.149,94.596c-0.557-0.575-0.547-1.491,0.019-2.055c0.084-0.085,2.1-2.079,5.441-3.533
				c0.045-0.27,0.092-0.552,0.15-0.84l0.152-0.624c0.22-1.049,1.046-3.57,1.055-3.596c0.192-0.595,0.741-0.993,1.364-0.993
				c0.15,0,0.303,0.028,0.452,0.074c0.361,0.12,0.659,0.378,0.835,0.724c0.169,0.347,0.198,0.74,0.075,1.107
				c-0.186,0.564-0.716,2.229-0.926,3.099c2.306-0.538,4.662-0.591,6.977-0.161c0.777,0.139,1.298,0.896,1.155,1.682
				c-0.124,0.688-0.72,1.188-1.411,1.188c-0.087,0-0.172-0.005-0.262-0.023c-2.32-0.428-4.701-0.26-7.029,0.497
				c-0.717,6.037,0.969,8.937,1.733,9.907c0.712,0.906,1.305,1.507,2.037,1.718c0.515,0.146,1.003,0.22,1.462,0.22
				c2.244,0,3.266-1.795,3.652-2.47c0.071-0.13,0.119-0.215,0.17-0.28c0.293-0.379,0.73-0.609,1.176-0.609
				c0.422,0,0.799,0.21,1.037,0.571c0.637,0.978,0.293,1.655-0.037,2.306c-0.179,0.353-1.824,3.372-5.842,3.372h-0.003
				c-0.655,0-1.346-0.084-2.058-0.25c-0.672-0.152-2.4-0.746-3.918-2.869c-1.046-1.472-2.712-4.728-2.404-10.304
				c-1.719,0.964-2.803,1.947-3.019,2.151l-0.007,0.003c-0.266,0.27-0.625,0.417-1.003,0.417
				C-493.51,95.024-493.874,94.874-494.149,94.596 M-500.93,95.189c0,9.353,7.519,16.934,16.796,16.934
				c9.275,0,16.796-7.581,16.796-16.934c0-9.354-7.521-16.937-16.796-16.937C-493.412,78.253-500.93,85.836-500.93,95.189"/>
		</defs>
		<clipPath id="SVGID_46_">
			<use xlink:href="#SVGID_45_"  overflow="visible"/>
		</clipPath>
		<g clip-path="url(#SVGID_46_)">
			<defs>
				<rect id="SVGID_47_" x="-674.247" y="-531.147" width="360" height="1083"/>
			</defs>
			<clipPath id="SVGID_48_">
				<use xlink:href="#SVGID_47_"  overflow="visible"/>
			</clipPath>
			<rect x="-505.93" y="73.253" clip-path="url(#SVGID_48_)" fill="#E16B59" width="43.592" height="43.87"/>
		</g>
	</g>
	<g>
		<defs>
			<path id="SVGID_49_" d="M-494.149,94.596c-0.559-0.576-0.547-1.492,0.02-2.055c0.084-0.083,2.099-2.079,5.438-3.534
				c0.048-0.269,0.094-0.551,0.152-0.839l0.152-0.625c0.221-1.048,1.047-3.568,1.056-3.596c0.192-0.593,0.739-0.992,1.363-0.992
				c0.151,0,0.303,0.027,0.45,0.075c0.363,0.118,0.661,0.377,0.838,0.724c0.17,0.347,0.197,0.738,0.072,1.107
				c-0.186,0.562-0.715,2.228-0.924,3.097c2.307-0.538,4.662-0.591,6.977-0.161c0.779,0.141,1.297,0.896,1.154,1.684
				c-0.122,0.687-0.719,1.188-1.41,1.188c-0.086,0-0.174-0.006-0.261-0.023c-2.321-0.428-4.702-0.262-7.031,0.497
				c-0.715,6.036,0.969,8.935,1.734,9.907c0.714,0.906,1.304,1.507,2.037,1.718c0.516,0.144,1.003,0.219,1.462,0.219
				c2.244,0,3.266-1.794,3.65-2.47c0.072-0.13,0.121-0.216,0.172-0.281c0.293-0.377,0.73-0.609,1.174-0.609
				c0.424,0,0.8,0.211,1.037,0.573c0.639,0.978,0.297,1.654-0.035,2.306c-0.179,0.352-1.824,3.371-5.843,3.371h-0.001
				c-0.655,0-1.347-0.083-2.059-0.251c-0.672-0.15-2.4-0.746-3.917-2.867c-1.046-1.474-2.712-4.728-2.405-10.304
				c-1.72,0.962-2.803,1.945-3.018,2.15l-0.009,0.003c-0.265,0.27-0.624,0.416-1.003,0.416
				C-493.511,95.023-493.873,94.873-494.149,94.596z M-500.93,95.188c0,9.354,7.519,16.936,16.794,16.936
				c9.277,0,16.799-7.581,16.799-16.936c0-9.353-7.521-16.937-16.799-16.937C-493.412,78.252-500.93,85.836-500.93,95.188z"/>
		</defs>
		<clipPath id="SVGID_50_">
			<use xlink:href="#SVGID_49_"  overflow="visible"/>
		</clipPath>
		<g clip-path="url(#SVGID_50_)">
			<defs>
				<rect id="SVGID_51_" x="-674.247" y="-531.147" width="360" height="1083"/>
			</defs>
			<clipPath id="SVGID_52_">
				<use xlink:href="#SVGID_51_"  overflow="visible"/>
			</clipPath>
			<g clip-path="url(#SVGID_52_)" enable-background="new    ">
				<g>
					<defs>
						<rect id="SVGID_53_" x="-501.247" y="77.853" width="34" height="35"/>
					</defs>
					<clipPath id="SVGID_54_">
						<use xlink:href="#SVGID_53_"  overflow="visible"/>
					</clipPath>
					<g clip-path="url(#SVGID_54_)">
						<defs>
							<rect id="SVGID_55_" x="-501.125" y="77.162" width="34.877" height="36.437"/>
						</defs>
						<clipPath id="SVGID_56_">
							<use xlink:href="#SVGID_55_"  overflow="visible"/>
						</clipPath>
						<g clip-path="url(#SVGID_56_)">
							<defs>
								<rect id="SVGID_57_" x="-501.247" y="77.853" width="34" height="35"/>
							</defs>
							<clipPath id="SVGID_58_">
								<use xlink:href="#SVGID_57_"  overflow="visible"/>
							</clipPath>
							<rect x="-506.125" y="72.162" clip-path="url(#SVGID_58_)" fill="#B5F0FE" width="44.877" height="46.437"/>
						</g>
					</g>
					<g clip-path="url(#SVGID_54_)">
						<defs>
							<rect id="SVGID_59_" x="-508.67" y="70.491" width="49.073" height="49.392"/>
						</defs>
						<clipPath id="SVGID_60_">
							<use xlink:href="#SVGID_59_"  overflow="visible"/>
						</clipPath>
						<g clip-path="url(#SVGID_60_)">
							<defs>
								<rect id="SVGID_61_" x="-501.247" y="77.853" width="34" height="35"/>
							</defs>
							<clipPath id="SVGID_62_">
								<use xlink:href="#SVGID_61_"  overflow="visible"/>
							</clipPath>
							<rect x="-513.67" y="65.491" clip-path="url(#SVGID_62_)" fill="#B5F0FE" width="59.073" height="59.392"/>
						</g>
					</g>
					<g clip-path="url(#SVGID_54_)">
						<defs>
							<rect id="SVGID_63_" x="-501.125" y="77.162" width="34.877" height="36.437"/>
						</defs>
						<clipPath id="SVGID_64_">
							<use xlink:href="#SVGID_63_"  overflow="visible"/>
						</clipPath>
						<g clip-path="url(#SVGID_64_)">
							<defs>
								<rect id="SVGID_65_" x="-501.247" y="77.853" width="34" height="35"/>
							</defs>
							<clipPath id="SVGID_66_">
								<use xlink:href="#SVGID_65_"  overflow="visible"/>
							</clipPath>
							<rect x="-506.125" y="72.162" clip-path="url(#SVGID_66_)" fill="#B5F0FE" width="44.877" height="46.437"/>
						</g>
					</g>
					<g clip-path="url(#SVGID_54_)">
						<defs>
							<rect id="SVGID_67_" x="-516.597" y="62.572" width="64.927" height="65.233"/>
						</defs>
						<clipPath id="SVGID_68_">
							<use xlink:href="#SVGID_67_"  overflow="visible"/>
						</clipPath>
						<g clip-path="url(#SVGID_68_)">
							<defs>
								<rect id="SVGID_69_" x="-501.247" y="77.853" width="34" height="35"/>
							</defs>
							<clipPath id="SVGID_70_">
								<use xlink:href="#SVGID_69_"  overflow="visible"/>
							</clipPath>
							<rect x="-521.597" y="57.572" clip-path="url(#SVGID_70_)" fill="#B5F0FE" width="74.927" height="75.233"/>
						</g>
					</g>
				</g>
			</g>
		</g>
	</g>
	<g>
		<defs>
			<path id="SVGID_71_" d="M-517.889,53.035c-0.557-0.575-0.549-1.491,0.018-2.055c0.084-0.084,2.101-2.079,5.443-3.533
				c0.044-0.269,0.09-0.551,0.148-0.839l0.154-0.625c0.219-1.049,1.044-3.57,1.055-3.596c0.191-0.594,0.739-0.993,1.362-0.993
				c0.15,0,0.304,0.028,0.452,0.074c0.361,0.12,0.66,0.379,0.835,0.724c0.171,0.348,0.198,0.74,0.076,1.107
				c-0.186,0.564-0.716,2.229-0.926,3.099c2.306-0.538,4.663-0.591,6.976-0.161c0.779,0.14,1.299,0.896,1.156,1.683
				c-0.125,0.688-0.719,1.188-1.41,1.188c-0.087,0-0.173-0.004-0.264-0.023c-2.32-0.428-4.701-0.26-7.029,0.497
				c-0.716,6.038,0.969,8.937,1.734,9.908c0.713,0.906,1.305,1.506,2.037,1.717c0.514,0.146,1.004,0.221,1.463,0.221
				c2.244,0,3.264-1.795,3.65-2.47c0.071-0.13,0.121-0.216,0.17-0.281c0.295-0.378,0.73-0.609,1.178-0.609
				c0.42,0,0.799,0.211,1.037,0.572c0.637,0.978,0.293,1.655-0.039,2.305c-0.179,0.354-1.822,3.373-5.842,3.373h-0.003
				c-0.654,0-1.346-0.084-2.058-0.251c-0.672-0.151-2.398-0.746-3.916-2.869c-1.047-1.472-2.712-4.727-2.404-10.303
				c-1.721,0.963-2.803,1.946-3.019,2.151l-0.007,0.003c-0.266,0.27-0.626,0.416-1.003,0.416
				C-517.251,53.464-517.614,53.313-517.889,53.035 M-524.67,53.629c0,9.354,7.52,16.934,16.795,16.934
				c9.277,0,16.798-7.58,16.798-16.934c0-9.353-7.521-16.937-16.798-16.937C-517.151,36.692-524.67,44.276-524.67,53.629"/>
		</defs>
		<clipPath id="SVGID_72_">
			<use xlink:href="#SVGID_71_"  overflow="visible"/>
		</clipPath>
		<g clip-path="url(#SVGID_72_)">
			<defs>
				<rect id="SVGID_73_" x="-674.247" y="-531.147" width="360" height="1083"/>
			</defs>
			<clipPath id="SVGID_74_">
				<use xlink:href="#SVGID_73_"  overflow="visible"/>
			</clipPath>
			<rect x="-529.67" y="31.692" clip-path="url(#SVGID_74_)" fill="#E16B59" width="43.593" height="43.87"/>
		</g>
	</g>
	<g>
		<defs>
			<path id="SVGID_75_" d="M-517.887,53.035c-0.559-0.575-0.552-1.492,0.018-2.055c0.082-0.084,2.099-2.079,5.44-3.533
				c0.044-0.271,0.092-0.551,0.15-0.839l0.152-0.625c0.219-1.049,1.046-3.57,1.056-3.596c0.191-0.594,0.738-0.993,1.361-0.993
				c0.151,0,0.305,0.028,0.453,0.074c0.362,0.12,0.66,0.377,0.835,0.724c0.171,0.348,0.198,0.74,0.075,1.107
				c-0.185,0.564-0.716,2.229-0.926,3.099c2.306-0.538,4.663-0.591,6.977-0.161c0.779,0.14,1.298,0.896,1.155,1.683
				c-0.124,0.688-0.718,1.189-1.409,1.189c-0.086,0-0.173-0.008-0.264-0.025c-2.32-0.426-4.7-0.26-7.029,0.499
				c-0.717,6.036,0.969,8.935,1.734,9.906c0.712,0.906,1.305,1.506,2.039,1.717c0.512,0.146,1.002,0.221,1.46,0.221
				c2.247,0,3.265-1.795,3.651-2.47c0.07-0.13,0.121-0.218,0.17-0.281c0.295-0.378,0.73-0.609,1.178-0.609
				c0.42,0,0.799,0.211,1.036,0.572c0.638,0.978,0.295,1.655-0.036,2.305c-0.182,0.354-1.823,3.373-5.844,3.373h-0.002
				c-0.656,0-1.346-0.084-2.057-0.251c-0.673-0.151-2.399-0.746-3.918-2.869c-1.047-1.473-2.713-4.727-2.404-10.302
				c-1.721,0.962-2.803,1.945-3.021,2.15l-0.005,0.003c-0.266,0.27-0.625,0.416-1.004,0.416
				C-517.252,53.464-517.614,53.313-517.887,53.035z M-524.67,53.629c0,9.354,7.519,16.934,16.795,16.934
				c9.278,0,16.799-7.58,16.799-16.934c0-9.353-7.521-16.937-16.799-16.937C-517.152,36.692-524.67,44.276-524.67,53.629z"/>
		</defs>
		<clipPath id="SVGID_76_">
			<use xlink:href="#SVGID_75_"  overflow="visible"/>
		</clipPath>
		<g clip-path="url(#SVGID_76_)">
			<defs>
				<rect id="SVGID_77_" x="-674.247" y="-531.147" width="360" height="1083"/>
			</defs>
			<clipPath id="SVGID_78_">
				<use xlink:href="#SVGID_77_"  overflow="visible"/>
			</clipPath>
			<g clip-path="url(#SVGID_78_)" enable-background="new    ">
				<g>
					<defs>
						<rect id="SVGID_79_" x="-525.247" y="35.853" width="35" height="35"/>
					</defs>
					<clipPath id="SVGID_80_">
						<use xlink:href="#SVGID_79_"  overflow="visible"/>
					</clipPath>
					<g clip-path="url(#SVGID_80_)">
						<defs>
							<rect id="SVGID_81_" x="-524.864" y="35.603" width="34.876" height="36.437"/>
						</defs>
						<clipPath id="SVGID_82_">
							<use xlink:href="#SVGID_81_"  overflow="visible"/>
						</clipPath>
						<g clip-path="url(#SVGID_82_)">
							<defs>
								<rect id="SVGID_83_" x="-525.247" y="35.853" width="35" height="35"/>
							</defs>
							<clipPath id="SVGID_84_">
								<use xlink:href="#SVGID_83_"  overflow="visible"/>
							</clipPath>
							<rect x="-529.864" y="30.603" clip-path="url(#SVGID_84_)" fill="#B5F0FE" width="44.876" height="46.437"/>
						</g>
					</g>
					<g clip-path="url(#SVGID_80_)">
						<defs>
							<rect id="SVGID_85_" x="-532.411" y="28.932" width="49.071" height="49.392"/>
						</defs>
						<clipPath id="SVGID_86_">
							<use xlink:href="#SVGID_85_"  overflow="visible"/>
						</clipPath>
						<g clip-path="url(#SVGID_86_)">
							<defs>
								<rect id="SVGID_87_" x="-525.247" y="35.853" width="35" height="35"/>
							</defs>
							<clipPath id="SVGID_88_">
								<use xlink:href="#SVGID_87_"  overflow="visible"/>
							</clipPath>
							<rect x="-537.411" y="23.932" clip-path="url(#SVGID_88_)" fill="#B5F0FE" width="59.071" height="59.392"/>
						</g>
					</g>
					<g clip-path="url(#SVGID_80_)">
						<defs>
							<rect id="SVGID_89_" x="-524.864" y="35.603" width="34.876" height="36.437"/>
						</defs>
						<clipPath id="SVGID_90_">
							<use xlink:href="#SVGID_89_"  overflow="visible"/>
						</clipPath>
						<g clip-path="url(#SVGID_90_)">
							<defs>
								<rect id="SVGID_91_" x="-525.247" y="35.853" width="35" height="35"/>
							</defs>
							<clipPath id="SVGID_92_">
								<use xlink:href="#SVGID_91_"  overflow="visible"/>
							</clipPath>
							<rect x="-529.864" y="30.603" clip-path="url(#SVGID_92_)" fill="#B5F0FE" width="44.876" height="46.437"/>
						</g>
					</g>
					<g clip-path="url(#SVGID_80_)">
						<defs>
							<rect id="SVGID_93_" x="-540.336" y="21.011" width="64.926" height="65.233"/>
						</defs>
						<clipPath id="SVGID_94_">
							<use xlink:href="#SVGID_93_"  overflow="visible"/>
						</clipPath>
						<g clip-path="url(#SVGID_94_)">
							<defs>
								<rect id="SVGID_95_" x="-525.247" y="35.853" width="35" height="35"/>
							</defs>
							<clipPath id="SVGID_96_">
								<use xlink:href="#SVGID_95_"  overflow="visible"/>
							</clipPath>
							<rect x="-545.336" y="16.011" clip-path="url(#SVGID_96_)" fill="#B5F0FE" width="74.926" height="75.233"/>
						</g>
					</g>
				</g>
			</g>
		</g>
	</g>
	<g>
		<defs>
			<path id="SVGID_97_" d="M-540.083,100.659c-0.557-0.574-0.547-1.49,0.019-2.055c0.084-0.084,2.099-2.078,5.44-3.532
				c0.047-0.27,0.092-0.552,0.15-0.84l0.152-0.624c0.221-1.049,1.047-3.57,1.057-3.596c0.191-0.595,0.74-0.994,1.363-0.994
				c0.15,0,0.303,0.029,0.451,0.075c0.361,0.12,0.66,0.378,0.836,0.724c0.17,0.347,0.197,0.74,0.074,1.107
				c-0.186,0.563-0.715,2.229-0.926,3.099c2.307-0.539,4.662-0.591,6.977-0.161c0.779,0.139,1.299,0.896,1.156,1.682
				c-0.124,0.688-0.72,1.188-1.411,1.188c-0.087,0-0.173-0.005-0.262-0.023c-2.321-0.428-4.702-0.26-7.029,0.497
				c-0.716,6.037,0.969,8.937,1.733,9.907c0.711,0.906,1.305,1.507,2.037,1.718c0.515,0.146,1.003,0.22,1.461,0.22
				c2.245,0,3.266-1.795,3.652-2.47c0.072-0.13,0.119-0.215,0.17-0.28c0.293-0.379,0.73-0.609,1.176-0.609
				c0.422,0,0.8,0.21,1.037,0.571c0.638,0.978,0.293,1.655-0.036,2.306c-0.179,0.353-1.825,3.372-5.842,3.372h-0.003
				c-0.654,0-1.346-0.084-2.059-0.25c-0.672-0.152-2.399-0.746-3.916-2.869c-1.047-1.472-2.713-4.728-2.406-10.304
				c-1.718,0.964-2.803,1.947-3.018,2.151l-0.006,0.003c-0.268,0.27-0.627,0.417-1.004,0.417
				C-539.444,101.089-539.807,100.938-540.083,100.659 M-546.864,101.254c0,9.353,7.518,16.934,16.795,16.934
				c9.275,0,16.797-7.581,16.797-16.934c0-9.354-7.521-16.937-16.797-16.937C-539.346,84.317-546.864,91.9-546.864,101.254"/>
		</defs>
		<clipPath id="SVGID_98_">
			<use xlink:href="#SVGID_97_"  overflow="visible"/>
		</clipPath>
		<g clip-path="url(#SVGID_98_)">
			<defs>
				<rect id="SVGID_99_" x="-674.247" y="-531.147" width="360" height="1083"/>
			</defs>
			<clipPath id="SVGID_100_">
				<use xlink:href="#SVGID_99_"  overflow="visible"/>
			</clipPath>
			<rect x="-551.864" y="79.317" clip-path="url(#SVGID_100_)" fill="#E16B59" width="43.592" height="43.87"/>
		</g>
	</g>
	<g>
		<defs>
			<path id="SVGID_101_" d="M-540.083,100.659c-0.556-0.574-0.547-1.491,0.019-2.055c0.084-0.083,2.1-2.079,5.441-3.533
				c0.047-0.27,0.092-0.55,0.15-0.838l0.154-0.626c0.219-1.049,1.045-3.57,1.056-3.595c0.19-0.594,0.739-0.993,1.361-0.993
				c0.152,0,0.304,0.028,0.452,0.073c0.361,0.122,0.659,0.379,0.836,0.726c0.17,0.346,0.197,0.739,0.074,1.107
				c-0.186,0.562-0.715,2.228-0.924,3.097c2.305-0.538,4.662-0.591,6.977-0.161c0.778,0.14,1.297,0.898,1.154,1.684
				c-0.124,0.688-0.721,1.188-1.411,1.188c-0.087,0-0.173-0.007-0.261-0.025c-2.322-0.428-4.703-0.259-7.03,0.497
				c-0.716,6.037,0.968,8.938,1.732,9.909c0.714,0.906,1.306,1.507,2.038,1.718c0.515,0.146,1.004,0.22,1.463,0.22
				c2.242,0,3.264-1.795,3.65-2.47c0.071-0.13,0.119-0.217,0.172-0.282c0.291-0.377,0.73-0.609,1.174-0.609
				c0.424,0,0.799,0.211,1.037,0.571c0.637,0.979,0.295,1.656-0.036,2.307c-0.178,0.354-1.825,3.373-5.843,3.373h-0.002
				c-0.655,0-1.347-0.084-2.059-0.25c-0.672-0.154-2.4-0.746-3.916-2.869c-1.047-1.474-2.712-4.729-2.406-10.304
				c-1.719,0.962-2.801,1.947-3.018,2.151l-0.008,0.002c-0.266,0.269-0.625,0.418-1.002,0.418
				C-539.444,101.09-539.807,100.939-540.083,100.659z M-546.864,101.255c0,9.353,7.52,16.933,16.795,16.933
				s16.797-7.58,16.797-16.933c0-9.354-7.521-16.938-16.797-16.938S-546.864,91.901-546.864,101.255z"/>
		</defs>
		<clipPath id="SVGID_102_">
			<use xlink:href="#SVGID_101_"  overflow="visible"/>
		</clipPath>
		<g clip-path="url(#SVGID_102_)">
			<defs>
				<rect id="SVGID_103_" x="-674.247" y="-531.147" width="360" height="1083"/>
			</defs>
			<clipPath id="SVGID_104_">
				<use xlink:href="#SVGID_103_"  overflow="visible"/>
			</clipPath>
			<g clip-path="url(#SVGID_104_)" enable-background="new    ">
				<g>
					<defs>
						<rect id="SVGID_105_" x="-547.247" y="83.853" width="34" height="35"/>
					</defs>
					<clipPath id="SVGID_106_">
						<use xlink:href="#SVGID_105_"  overflow="visible"/>
					</clipPath>
					<g clip-path="url(#SVGID_106_)">
						<defs>
							<rect id="SVGID_107_" x="-547.059" y="83.229" width="34.877" height="36.436"/>
						</defs>
						<clipPath id="SVGID_108_">
							<use xlink:href="#SVGID_107_"  overflow="visible"/>
						</clipPath>
						<g clip-path="url(#SVGID_108_)">
							<defs>
								<rect id="SVGID_109_" x="-547.247" y="83.853" width="34" height="35"/>
							</defs>
							<clipPath id="SVGID_110_">
								<use xlink:href="#SVGID_109_"  overflow="visible"/>
							</clipPath>
							<rect x="-552.059" y="78.229" clip-path="url(#SVGID_110_)" fill="#B5F0FE" width="44.877" height="46.436"/>
						</g>
					</g>
				</g>
			</g>
		</g>
	</g>
	<g>
		<defs>
			<rect id="SVGID_111_" x="-674.247" y="-531.147" width="360" height="1083"/>
		</defs>
		<clipPath id="SVGID_112_">
			<use xlink:href="#SVGID_111_"  overflow="visible"/>
		</clipPath>
		
			<line clip-path="url(#SVGID_112_)" fill="none" stroke="#8797AA" stroke-width="2" stroke-linecap="round" stroke-miterlimit="10" x1="-526.258" y1="157.09" x2="-526.258" y2="115.144"/>
		
			<line clip-path="url(#SVGID_112_)" fill="none" stroke="#8797AA" stroke-width="2" stroke-linecap="round" stroke-miterlimit="10" x1="-481.513" y1="157.09" x2="-481.513" y2="106.85"/>
		
			<line clip-path="url(#SVGID_112_)" fill="none" stroke="#8797AA" stroke-width="2" stroke-linecap="round" stroke-miterlimit="10" x1="-458.838" y1="156.948" x2="-458.838" y2="81.824"/>
		
			<line clip-path="url(#SVGID_112_)" fill="none" stroke="#8797AA" stroke-width="2" stroke-linecap="round" stroke-miterlimit="10" x1="-504.036" y1="157.777" x2="-504.036" y2="67.724"/>
	</g>
	<g>
		<defs>
			<path id="SVGID_113_" d="M-445.689,153.52h-87.22c-2.977,0-5.391,2.435-5.391,5.44V171.5c0,3.004,2.414,5.436,5.391,5.436h1.031
				l8.047,60.393h69.06l8.049-60.393h1.033c2.977,0,5.388-2.432,5.388-5.436V158.96C-440.301,155.954-442.712,153.52-445.689,153.52
				"/>
		</defs>
		<clipPath id="SVGID_114_">
			<use xlink:href="#SVGID_113_"  overflow="visible"/>
		</clipPath>
		<g clip-path="url(#SVGID_114_)">
			<defs>
				<rect id="SVGID_115_" x="-674.247" y="-531.147" width="360" height="1083"/>
			</defs>
			<clipPath id="SVGID_116_">
				<use xlink:href="#SVGID_115_"  overflow="visible"/>
			</clipPath>
			<rect x="-543.299" y="148.52" clip-path="url(#SVGID_116_)" fill="#F3D16A" width="107.998" height="93.809"/>
		</g>
	</g>
	<g>
		<defs>
			<path id="SVGID_117_" d="M-532.909,153.52c-2.975,0-5.391,2.436-5.391,5.439V171.5c0,3.004,2.416,5.436,5.391,5.436h1.031
				l8.047,60.395h69.061l8.048-60.395h1.035c2.974,0,5.387-2.432,5.387-5.436v-12.542c0-3.004-2.413-5.439-5.387-5.439H-532.909z"/>
		</defs>
		<clipPath id="SVGID_118_">
			<use xlink:href="#SVGID_117_"  overflow="visible"/>
		</clipPath>
		<g clip-path="url(#SVGID_118_)">
			<defs>
				<rect id="SVGID_119_" x="-674.247" y="-531.147" width="360" height="1083"/>
			</defs>
			<clipPath id="SVGID_120_">
				<use xlink:href="#SVGID_119_"  overflow="visible"/>
			</clipPath>
			<g clip-path="url(#SVGID_120_)" enable-background="new    ">
				<g>
					<defs>
						<rect id="SVGID_121_" x="-539.247" y="152.853" width="99" height="85"/>
					</defs>
					<clipPath id="SVGID_122_">
						<use xlink:href="#SVGID_121_"  overflow="visible"/>
					</clipPath>
					<g clip-path="url(#SVGID_122_)">
						<defs>
							<rect id="SVGID_123_" x="-546.225" y="145.599" width="113.851" height="99.652"/>
						</defs>
						<clipPath id="SVGID_124_">
							<use xlink:href="#SVGID_123_"  overflow="visible"/>
						</clipPath>
						<g clip-path="url(#SVGID_124_)">
							<defs>
								<rect id="SVGID_125_" x="-539.247" y="152.853" width="99" height="85"/>
							</defs>
							<clipPath id="SVGID_126_">
								<use xlink:href="#SVGID_125_"  overflow="visible"/>
							</clipPath>
							<rect x="-551.225" y="140.599" clip-path="url(#SVGID_126_)" fill="#B5F0FE" width="123.851" height="109.652"/>
						</g>
					</g>
				</g>
			</g>
		</g>
	</g>
	<g>
		<defs>
			<path id="SVGID_127_" d="M-440.187,171.436c0,3.002-2.415,5.436-5.388,5.436h-87.219c-2.979,0-5.394-2.434-5.394-5.436v-12.543
				c0-3.002,2.415-5.438,5.394-5.438h87.219c2.973,0,5.388,2.436,5.388,5.438V171.436z"/>
		</defs>
		<clipPath id="SVGID_128_">
			<use xlink:href="#SVGID_127_"  overflow="visible"/>
		</clipPath>
		<g clip-path="url(#SVGID_128_)">
			<defs>
				<rect id="SVGID_129_" x="-674.247" y="-531.147" width="360" height="1083"/>
			</defs>
			<clipPath id="SVGID_130_">
				<use xlink:href="#SVGID_129_"  overflow="visible"/>
			</clipPath>
			<rect x="-543.187" y="148.455" clip-path="url(#SVGID_130_)" fill="#99CCE4" width="108" height="33.417"/>
		</g>
	</g>
	<g>
		<defs>
			<rect id="SVGID_131_" x="-674.247" y="-531.147" width="360" height="1083"/>
		</defs>
		<clipPath id="SVGID_132_">
			<use xlink:href="#SVGID_131_"  overflow="visible"/>
		</clipPath>
		
			<polyline clip-path="url(#SVGID_132_)" fill="none" stroke="#8797AA" stroke-width="2" stroke-linecap="round" stroke-miterlimit="10" points="
			-451.327,179.739 -459.416,240.436 -528.473,240.436 -536.561,179.739 		"/>
		
			<path clip-path="url(#SVGID_132_)" fill="none" stroke="#8797AA" stroke-width="2" stroke-linecap="round" stroke-miterlimit="10" d="
			M-444.945,174.606c0,3.002-2.415,5.434-5.387,5.434h-87.22c-2.979,0-5.392-2.432-5.392-5.434v-12.543
			c0-3.004,2.413-5.438,5.392-5.438h87.22c2.972,0,5.387,2.434,5.387,5.438V174.606z"/>
		
			<line clip-path="url(#SVGID_132_)" fill="none" stroke="#8797AA" stroke-width="2" stroke-linecap="round" stroke-miterlimit="10" x1="-530.29" y1="224.292" x2="-606.917" y2="224.292"/>
		
			<line clip-path="url(#SVGID_132_)" fill="none" stroke="#8797AA" stroke-width="2" stroke-linecap="round" stroke-miterlimit="10" x1="-613.364" y1="224.292" x2="-630.247" y2="224.292"/>
		
			<line clip-path="url(#SVGID_132_)" fill="none" stroke="#8797AA" stroke-width="2" stroke-linecap="round" stroke-miterlimit="10" x1="-360.372" y1="224.292" x2="-398.392" y2="224.292"/>
		
			<line clip-path="url(#SVGID_132_)" fill="none" stroke="#8797AA" stroke-width="2" stroke-linecap="round" stroke-miterlimit="10" x1="-404.521" y1="224.292" x2="-456.533" y2="224.292"/>
	</g>
	<g>
		<defs>
			<path id="SVGID_133_" d="M-536.272,101.681c-0.557-0.575-0.547-1.49,0.02-2.055c0.084-0.084,2.099-2.078,5.441-3.533
				c0.045-0.269,0.092-0.551,0.15-0.839l0.152-0.624c0.22-1.049,1.046-3.571,1.055-3.597c0.192-0.594,0.74-0.993,1.363-0.993
				c0.151,0,0.303,0.028,0.453,0.074c0.361,0.12,0.658,0.379,0.835,0.725c0.169,0.347,0.198,0.739,0.074,1.107
				c-0.186,0.563-0.715,2.229-0.926,3.098c2.307-0.538,4.663-0.591,6.978-0.161c0.777,0.14,1.298,0.896,1.155,1.683
				c-0.124,0.688-0.72,1.188-1.411,1.188c-0.087,0-0.173-0.005-0.262-0.024c-2.32-0.428-4.701-0.26-7.029,0.498
				c-0.717,6.037,0.969,8.936,1.732,9.907c0.713,0.906,1.305,1.507,2.037,1.717c0.516,0.146,1.004,0.221,1.463,0.221
				c2.244,0,3.266-1.795,3.652-2.47c0.07-0.13,0.119-0.216,0.17-0.28c0.293-0.379,0.73-0.61,1.176-0.61
				c0.422,0,0.799,0.211,1.037,0.572c0.637,0.978,0.293,1.655-0.037,2.305c-0.18,0.354-1.824,3.373-5.842,3.373h-0.003
				c-0.655,0-1.347-0.084-2.058-0.251c-0.672-0.151-2.4-0.746-3.918-2.868c-1.046-1.472-2.712-4.728-2.404-10.304
				c-1.719,0.963-2.803,1.946-3.019,2.151l-0.007,0.003c-0.266,0.27-0.626,0.417-1.003,0.417
				C-535.633,102.11-535.996,101.959-536.272,101.681 M-543.051,102.274c0,9.354,7.518,16.934,16.794,16.934
				s16.797-7.58,16.797-16.934c0-9.353-7.521-16.937-16.797-16.937S-543.051,92.922-543.051,102.274"/>
		</defs>
		<clipPath id="SVGID_134_">
			<use xlink:href="#SVGID_133_"  overflow="visible"/>
		</clipPath>
		<g clip-path="url(#SVGID_134_)">
			<defs>
				<rect id="SVGID_135_" x="-674.247" y="-531.147" width="360" height="1083"/>
			</defs>
			<clipPath id="SVGID_136_">
				<use xlink:href="#SVGID_135_"  overflow="visible"/>
			</clipPath>
			<rect x="-548.051" y="80.338" clip-path="url(#SVGID_136_)" fill="#8797AA" width="43.591" height="43.87"/>
		</g>
	</g>
	<g>
		<defs>
			<path id="SVGID_137_" d="M-514.051,50.803c-0.557-0.575-0.547-1.491,0.02-2.055c0.084-0.084,2.099-2.079,5.441-3.533
				c0.045-0.269,0.092-0.551,0.15-0.839l0.152-0.625c0.22-1.049,1.046-3.57,1.055-3.596c0.192-0.594,0.74-0.993,1.363-0.993
				c0.151,0,0.303,0.028,0.453,0.074c0.361,0.12,0.658,0.379,0.835,0.724c0.169,0.348,0.198,0.74,0.074,1.107
				c-0.186,0.564-0.715,2.229-0.926,3.099c2.307-0.538,4.663-0.591,6.978-0.161c0.777,0.14,1.298,0.896,1.155,1.683
				c-0.124,0.688-0.72,1.188-1.411,1.188c-0.087,0-0.173-0.004-0.262-0.023c-2.32-0.428-4.701-0.26-7.029,0.497
				c-0.717,6.038,0.969,8.937,1.732,9.908c0.713,0.906,1.305,1.506,2.037,1.717c0.516,0.146,1.004,0.221,1.463,0.221
				c2.244,0,3.266-1.795,3.652-2.47c0.07-0.13,0.119-0.216,0.169-0.281c0.294-0.378,0.731-0.609,1.177-0.609
				c0.422,0,0.799,0.211,1.037,0.572c0.637,0.977,0.293,1.655-0.037,2.305c-0.18,0.354-1.824,3.373-5.842,3.373h-0.003
				c-0.655,0-1.347-0.084-2.058-0.251c-0.672-0.152-2.4-0.746-3.918-2.869c-1.046-1.472-2.712-4.727-2.404-10.303
				c-1.719,0.963-2.803,1.946-3.019,2.151l-0.007,0.003c-0.266,0.27-0.626,0.416-1.003,0.416
				C-513.413,51.231-513.775,51.081-514.051,50.803 M-520.831,51.396c0,9.354,7.518,16.934,16.794,16.934s16.797-7.58,16.797-16.934
				c0-9.353-7.521-16.937-16.797-16.937S-520.831,42.044-520.831,51.396"/>
		</defs>
		<clipPath id="SVGID_138_">
			<use xlink:href="#SVGID_137_"  overflow="visible"/>
		</clipPath>
		<g clip-path="url(#SVGID_138_)">
			<defs>
				<rect id="SVGID_139_" x="-674.247" y="-531.147" width="360" height="1083"/>
			</defs>
			<clipPath id="SVGID_140_">
				<use xlink:href="#SVGID_139_"  overflow="visible"/>
			</clipPath>
			<rect x="-525.831" y="29.46" clip-path="url(#SVGID_140_)" fill="#8797AA" width="43.591" height="43.87"/>
		</g>
	</g>
	<g>
		<defs>
			<path id="SVGID_141_" d="M-490.978,94.596c-0.557-0.575-0.547-1.491,0.019-2.055c0.084-0.085,2.099-2.079,5.44-3.533
				c0.047-0.27,0.092-0.552,0.15-0.84l0.152-0.624c0.221-1.049,1.047-3.57,1.057-3.596c0.191-0.595,0.74-0.993,1.363-0.993
				c0.15,0,0.303,0.028,0.451,0.074c0.361,0.12,0.66,0.378,0.836,0.724c0.17,0.347,0.197,0.74,0.074,1.107
				c-0.186,0.564-0.715,2.229-0.926,3.099c2.307-0.538,4.662-0.591,6.977-0.161c0.779,0.139,1.299,0.896,1.156,1.682
				c-0.124,0.688-0.72,1.188-1.411,1.188c-0.087,0-0.173-0.005-0.262-0.023c-2.321-0.428-4.702-0.26-7.029,0.497
				c-0.716,6.037,0.969,8.937,1.733,9.907c0.711,0.906,1.305,1.507,2.037,1.718c0.515,0.146,1.003,0.22,1.461,0.22
				c2.245,0,3.266-1.795,3.652-2.47c0.072-0.13,0.119-0.215,0.17-0.28c0.293-0.379,0.73-0.609,1.176-0.609
				c0.422,0,0.8,0.21,1.037,0.571c0.638,0.978,0.293,1.655-0.036,2.306c-0.179,0.353-1.825,3.372-5.842,3.372h-0.003
				c-0.654,0-1.346-0.084-2.059-0.25c-0.672-0.152-2.399-0.746-3.917-2.869c-1.046-1.472-2.712-4.728-2.405-10.304
				c-1.718,0.964-2.803,1.947-3.018,2.151l-0.007,0.003c-0.267,0.27-0.626,0.417-1.003,0.417
				C-490.339,95.024-490.703,94.874-490.978,94.596 M-497.758,95.189c0,9.353,7.517,16.934,16.794,16.934
				c9.275,0,16.797-7.581,16.797-16.934c0-9.354-7.521-16.937-16.797-16.937C-490.242,78.253-497.758,85.836-497.758,95.189"/>
		</defs>
		<clipPath id="SVGID_142_">
			<use xlink:href="#SVGID_141_"  overflow="visible"/>
		</clipPath>
		<g clip-path="url(#SVGID_142_)">
			<defs>
				<rect id="SVGID_143_" x="-674.247" y="-531.147" width="360" height="1083"/>
			</defs>
			<clipPath id="SVGID_144_">
				<use xlink:href="#SVGID_143_"  overflow="visible"/>
			</clipPath>
			<rect x="-502.758" y="73.253" clip-path="url(#SVGID_144_)" fill="#8797AA" width="43.591" height="43.87"/>
		</g>
	</g>
	<g>
		<defs>
			<path id="SVGID_145_" d="M-467.269,62.985c-0.557-0.574-0.547-1.49,0.02-2.055c0.084-0.084,2.099-2.078,5.44-3.532
				c0.046-0.27,0.093-0.552,0.151-0.84l0.152-0.624c0.22-1.049,1.045-3.571,1.055-3.596c0.192-0.595,0.74-0.994,1.363-0.994
				c0.151,0,0.303,0.029,0.452,0.075c0.362,0.12,0.659,0.378,0.835,0.724c0.17,0.347,0.199,0.74,0.075,1.107
				c-0.186,0.563-0.715,2.229-0.926,3.099c2.307-0.539,4.663-0.591,6.978-0.161c0.777,0.139,1.298,0.896,1.155,1.682
				c-0.124,0.688-0.72,1.188-1.411,1.188c-0.088,0-0.173-0.005-0.262-0.023c-2.32-0.428-4.701-0.26-7.029,0.497
				c-0.717,6.037,0.969,8.937,1.732,9.907c0.713,0.906,1.305,1.507,2.037,1.718c0.516,0.146,1.004,0.22,1.463,0.22
				c2.244,0,3.266-1.795,3.652-2.47c0.07-0.13,0.118-0.215,0.169-0.28c0.294-0.379,0.731-0.609,1.177-0.609
				c0.422,0,0.799,0.21,1.037,0.571c0.637,0.978,0.293,1.655-0.037,2.305c-0.18,0.354-1.824,3.373-5.842,3.373h-0.004
				c-0.654,0-1.346-0.084-2.057-0.25c-0.672-0.152-2.4-0.746-3.918-2.869c-1.046-1.472-2.713-4.728-2.404-10.304
				c-1.719,0.964-2.803,1.947-3.02,2.151l-0.006,0.003c-0.266,0.27-0.626,0.417-1.004,0.417
				C-466.63,63.415-466.993,63.265-467.269,62.985 M-474.049,63.58c0,9.353,7.519,16.934,16.795,16.934s16.796-7.581,16.796-16.934
				c0-9.354-7.52-16.937-16.796-16.937S-474.049,54.227-474.049,63.58"/>
		</defs>
		<clipPath id="SVGID_146_">
			<use xlink:href="#SVGID_145_"  overflow="visible"/>
		</clipPath>
		<g clip-path="url(#SVGID_146_)">
			<defs>
				<rect id="SVGID_147_" x="-674.247" y="-531.147" width="360" height="1083"/>
			</defs>
			<clipPath id="SVGID_148_">
				<use xlink:href="#SVGID_147_"  overflow="visible"/>
			</clipPath>
			<rect x="-479.049" y="41.644" clip-path="url(#SVGID_148_)" fill="#8797AA" width="43.591" height="43.87"/>
		</g>
	</g>
	<g>
		<defs>
			<rect id="SVGID_149_" x="-674.247" y="-531.147" width="360" height="1083"/>
		</defs>
		<clipPath id="SVGID_150_">
			<use xlink:href="#SVGID_149_"  overflow="visible"/>
		</clipPath>
		<path clip-path="url(#SVGID_150_)" fill="none" stroke="#8797AA" stroke-miterlimit="10" d="M-408.217,6.227h-32.745
			c-2.893,0-5.238,2.345-5.238,5.236v13.088c0,2.892,2.346,5.235,5.238,5.235h3.115l3.902,5.179l3.9-5.179h21.827
			c2.894,0,5.239-2.344,5.239-5.235V11.463C-402.978,8.571-405.324,6.227-408.217,6.227z"/>
		<g clip-path="url(#SVGID_150_)">
			<text transform="matrix(1 0 0 1 -438.1079 21.6338)" fill="#8797AA" font-family="'Lato-Regular'" font-size="10">TEEM</text>
		</g>
		<path clip-path="url(#SVGID_150_)" fill="none" stroke="#8797AA" stroke-miterlimit="10" d="M-552.247,91.124l-5.202-3.912
			c-0.242-2.652-2.446-4.736-5.163-4.736h-32.568c-2.878,0-5.211,2.332-5.211,5.207v13.019c0,2.876,2.333,5.207,5.211,5.207h32.568
			c2.879,0,5.211-2.331,5.211-5.207v-5.699L-552.247,91.124z"/>
		<g clip-path="url(#SVGID_150_)">
			<text transform="matrix(1 0 0 1 -592.2979 96.8828)" fill="#8797AA" font-family="'Lato-Regular'" font-size="10">TEEM</text>
		</g>
	</g>
	<g>
		<defs>
			<path id="SVGID_151_" d="M-458.261,210.403c0,3.467-2.814,6.279-6.285,6.279h-53.416c-3.47,0-6.284-2.812-6.284-6.279v-17.27
				c0-3.469,2.814-6.281,6.284-6.281h53.416c3.471,0,6.285,2.812,6.285,6.281V210.403z"/>
		</defs>
		<clipPath id="SVGID_152_">
			<use xlink:href="#SVGID_151_"  overflow="visible"/>
		</clipPath>
		<g clip-path="url(#SVGID_152_)">
			<defs>
				<rect id="SVGID_153_" x="-674.247" y="-531.147" width="360" height="1083"/>
			</defs>
			<clipPath id="SVGID_154_">
				<use xlink:href="#SVGID_153_"  overflow="visible"/>
			</clipPath>
			<rect x="-529.247" y="181.852" clip-path="url(#SVGID_154_)" fill="#FFFFFF" width="75.985" height="39.83"/>
		</g>
	</g>
	<g>
		<defs>
			<circle id="SVGID_155_" cx="81" cy="89.163" r="60"/>
		</defs>
		<clipPath id="SVGID_156_">
			<use xlink:href="#SVGID_155_"  overflow="visible"/>
		</clipPath>
		<g clip-path="url(#SVGID_156_)">
			<defs>
				<rect id="SVGID_157_" x="-99" y="-154.837" width="360" height="640"/>
			</defs>
			<clipPath id="SVGID_158_">
				<use xlink:href="#SVGID_157_"  overflow="visible"/>
			</clipPath>
			<rect x="16" y="24.163" clip-path="url(#SVGID_158_)" fill="#F0F6F8" width="130" height="130"/>
		</g>
	</g>
	<g>
		<defs>
			<path id="SVGID_159_" d="M113.3,83.792H52.987c-2.059,0-3.729,1.683-3.729,3.761v8.672c0,2.076,1.67,3.758,3.729,3.758H53.7
				l5.565,41.759h47.755l5.566-41.759h0.713c2.058,0,3.727-1.682,3.727-3.758v-8.672C117.026,85.474,115.357,83.792,113.3,83.792"/>
		</defs>
		<clipPath id="SVGID_160_">
			<use xlink:href="#SVGID_159_"  overflow="visible"/>
		</clipPath>
		<g clip-path="url(#SVGID_160_)">
			<defs>
				<rect id="SVGID_161_" x="-99" y="-154.837" width="360" height="640"/>
			</defs>
			<clipPath id="SVGID_162_">
				<use xlink:href="#SVGID_161_"  overflow="visible"/>
			</clipPath>
			<rect x="44.259" y="78.792" clip-path="url(#SVGID_162_)" fill="#B4EFFD" width="77.768" height="67.949"/>
		</g>
	</g>
	<g>
		<defs>
			<path id="SVGID_163_" d="M52.987,83.792c-2.059,0-3.728,1.683-3.728,3.759v8.674c0,2.075,1.669,3.757,3.728,3.757H53.7
				l5.564,41.759h47.757l5.564-41.759h0.715c2.057,0,3.726-1.682,3.726-3.757v-8.674c0-2.076-1.669-3.759-3.726-3.759H52.987z"/>
		</defs>
		<clipPath id="SVGID_164_">
			<use xlink:href="#SVGID_163_"  overflow="visible"/>
		</clipPath>
		<g clip-path="url(#SVGID_164_)">
			<defs>
				<rect id="SVGID_165_" x="-99" y="-154.837" width="360" height="640"/>
			</defs>
			<clipPath id="SVGID_166_">
				<use xlink:href="#SVGID_165_"  overflow="visible"/>
			</clipPath>
			<g clip-path="url(#SVGID_166_)" enable-background="new    ">
				<g>
					<defs>
						<rect id="SVGID_167_" x="49" y="83.526" width="69" height="59"/>
					</defs>
					<clipPath id="SVGID_168_">
						<use xlink:href="#SVGID_167_"  overflow="visible"/>
					</clipPath>
					<g clip-path="url(#SVGID_168_)">
						<defs>
							<rect id="SVGID_169_" x="49" y="83.526" width="69" height="59"/>
						</defs>
						<clipPath id="SVGID_170_">
							<use xlink:href="#SVGID_169_"  overflow="visible"/>
						</clipPath>
						
							<rect x="43.777" y="78.315" clip-path="url(#SVGID_170_)" fill="none" stroke="#98CBE3" stroke-width="2" stroke-linecap="square" stroke-miterlimit="10" stroke-dasharray="1,5" width="78.729" height="68.903"/>
					</g>
				</g>
			</g>
		</g>
	</g>
	<g>
		<defs>
			<path id="SVGID_171_" d="M117.026,95.886c0,2.075-1.67,3.758-3.726,3.758H52.987c-2.059,0-3.729-1.683-3.729-3.758v-8.674
				c0-2.075,1.67-3.759,3.729-3.759h60.313c2.056,0,3.726,1.684,3.726,3.759V95.886z"/>
		</defs>
		<clipPath id="SVGID_172_">
			<use xlink:href="#SVGID_171_"  overflow="visible"/>
		</clipPath>
		<g clip-path="url(#SVGID_172_)">
			<defs>
				<rect id="SVGID_173_" x="-99" y="-154.837" width="360" height="640"/>
			</defs>
			<clipPath id="SVGID_174_">
				<use xlink:href="#SVGID_173_"  overflow="visible"/>
			</clipPath>
			<rect x="44.259" y="78.454" clip-path="url(#SVGID_174_)" fill="#98CBE3" width="77.768" height="26.19"/>
		</g>
	</g>
	<g>
		<defs>
			<path id="SVGID_175_" d="M58.729,47.273h5.058c0.451,0,0.834-0.332,0.897-0.776c0.042-0.278,0.944-6.837-2.477-10.784
				c-1.64-1.895-3.972-2.854-6.929-2.854c-0.015,0-0.027,0.011-0.043,0.012c-0.131,0.007-0.257,0.047-0.377,0.108
				c-0.039,0.022-0.072,0.044-0.107,0.07c-0.033,0.024-0.074,0.037-0.104,0.065c-0.056,0.055-1.384,1.304-3.621,1.304
				s-3.566-1.249-3.616-1.3c-0.033-0.032-0.075-0.046-0.109-0.07c-0.035-0.025-0.065-0.047-0.103-0.067
				c-0.132-0.07-0.271-0.118-0.415-0.119c-0.004,0-0.006-0.003-0.01-0.003H46.77c-0.005,0-0.01,0.001-0.015,0.001
				c-2.947,0.004-5.272,0.962-6.912,2.854c-3.423,3.949-2.521,10.506-2.48,10.783c0.064,0.446,0.449,0.776,0.899,0.776H58.729
				 M51.024,36.234c0.841,0,1.575-0.143,2.217-0.341l-2.217,4.59l-2.218-4.59C49.448,36.091,50.184,36.234,51.024,36.234
				 M58.639,45.458H39.087c-0.116-1.73-0.133-5.95,2.128-8.558c1.18-1.359,2.856-2.102,4.993-2.212l4,8.278
				c0.303,0.627,1.332,0.627,1.637,0l3.998-8.278c2.133,0.109,3.811,0.851,4.986,2.208c2.258,2.6,2.246,6.828,2.131,8.562H58.639
				 M51.024,31.754c4.176,0,7.572-3.395,7.572-7.566c0-4.173-3.396-7.566-7.572-7.566s-7.573,3.394-7.573,7.566
				C43.451,28.36,46.849,31.754,51.024,31.754 M51.024,18.437c3.174,0,5.756,2.578,5.756,5.751c0,3.171-2.582,5.749-5.756,5.749
				s-5.756-2.578-5.756-5.749C45.269,21.015,47.851,18.437,51.024,18.437"/>
		</defs>
		<clipPath id="SVGID_176_">
			<use xlink:href="#SVGID_175_"  overflow="visible"/>
		</clipPath>
		<g clip-path="url(#SVGID_176_)">
			<defs>
				<rect id="SVGID_177_" x="-99" y="-154.837" width="360" height="640"/>
			</defs>
			<clipPath id="SVGID_178_">
				<use xlink:href="#SVGID_177_"  overflow="visible"/>
			</clipPath>
			<rect x="32.226" y="11.622" clip-path="url(#SVGID_178_)" fill="#D9DFE4" width="37.596" height="40.651"/>
		</g>
	</g>
	<g>
		<defs>
			<path id="SVGID_179_" d="M60.604,83.411V41.787c0,0,0.127-2.19,2.725-2.19c2.599,0,23.483,0.288,23.483,0.288l3.065,9.257
				c0,0-0.1,3.336,3.339,3.336s10.468,0.177,10.468,0.177s2.963,0.663,2.963,4.727v28.222H60.604V83.411z"/>
		</defs>
		<clipPath id="SVGID_180_">
			<use xlink:href="#SVGID_179_"  overflow="visible"/>
		</clipPath>
		<g clip-path="url(#SVGID_180_)">
			<defs>
				<rect id="SVGID_181_" x="-99" y="-154.837" width="360" height="640"/>
			</defs>
			<clipPath id="SVGID_182_">
				<use xlink:href="#SVGID_181_"  overflow="visible"/>
			</clipPath>
			<rect x="55.604" y="34.596" clip-path="url(#SVGID_182_)" fill="#D9DFE4" width="56.043" height="56.006"/>
		</g>
	</g>
	<g>
		<defs>
			<path id="SVGID_183_" d="M88.012,41.787v9.858c0,0,0.548,3.286,4.75,3.286h9.501L88.012,41.787z"/>
		</defs>
		<clipPath id="SVGID_184_">
			<use xlink:href="#SVGID_183_"  overflow="visible"/>
		</clipPath>
		<g clip-path="url(#SVGID_184_)">
			<defs>
				<rect id="SVGID_185_" x="-99" y="-154.837" width="360" height="640"/>
			</defs>
			<clipPath id="SVGID_186_">
				<use xlink:href="#SVGID_185_"  overflow="visible"/>
			</clipPath>
			<rect x="83.012" y="36.787" clip-path="url(#SVGID_186_)" fill="#80CBBD" width="24.251" height="23.145"/>
		</g>
	</g>
	<g>
		<defs>
			<rect id="SVGID_187_" x="-99" y="-154.837" width="360" height="640"/>
		</defs>
		<clipPath id="SVGID_188_">
			<use xlink:href="#SVGID_187_"  overflow="visible"/>
		</clipPath>
		
			<polyline clip-path="url(#SVGID_188_)" fill="none" stroke="#8696A9" stroke-width="2" stroke-linecap="round" stroke-miterlimit="10" points="
			109.324,102.722 103.731,144.69 55.976,144.69 50.384,102.722 		"/>
		
			<path clip-path="url(#SVGID_188_)" fill="none" stroke="#8696A9" stroke-width="2" stroke-linecap="round" stroke-miterlimit="10" d="
			M113.737,99.172c0,2.075-1.67,3.758-3.725,3.758H49.698c-2.059,0-3.729-1.683-3.729-3.758v-8.674c0-2.075,1.67-3.759,3.729-3.759
			h60.314c2.055,0,3.725,1.684,3.725,3.759V99.172z"/>
		
			<line clip-path="url(#SVGID_188_)" fill="none" stroke="#8696A9" stroke-width="2" stroke-linecap="round" stroke-miterlimit="10" x1="54.754" y1="134.445" x2="28.992" y2="134.445"/>
		
			<line clip-path="url(#SVGID_188_)" fill="none" stroke="#8696A9" stroke-width="2" stroke-linecap="round" stroke-miterlimit="10" x1="130.396" y1="134.445" x2="104.634" y2="134.445"/>
	</g>
	<g>
		<defs>
			<path id="SVGID_189_" d="M58.458,86.459V43.526c0-1.66,1.359-3.019,3.021-3.019h23.413c0.83,0,1.51,0.301,2.113,0.904
				c0.528,0.606,0.906,1.358,0.906,2.114l-0.238,7.826c0,2.49,2.541,4.509,5.032,4.509h9.063c0.68,0,1.359,0.228,1.889,0.681
				l0.226,0.228c0.529,0.603,0.644,1.095,0.644,1.85l-0.139,27.362c0.529,0.152,1.396-0.107,1.849,0.12l0.141-27.482
				c0-1.207-0.454-2.339-1.359-3.17c-0.075-0.074-0.226-0.228-0.303-0.303L88.062,39.641c-0.831-0.83-1.964-1.283-3.171-1.283
				H61.479c-2.493,0-4.974,2.678-4.974,5.168v42.934H58.458z M89.422,43.602l11.556,10.489h-8.535c-1.661,0-3.021-1.358-3.021-3.019
				V43.602z"/>
		</defs>
		<clipPath id="SVGID_190_">
			<use xlink:href="#SVGID_189_"  overflow="visible"/>
		</clipPath>
		<g clip-path="url(#SVGID_190_)">
			<defs>
				<rect id="SVGID_191_" x="-99" y="-154.837" width="360" height="640"/>
			</defs>
			<clipPath id="SVGID_192_">
				<use xlink:href="#SVGID_191_"  overflow="visible"/>
			</clipPath>
			<rect x="51.505" y="33.358" clip-path="url(#SVGID_192_)" fill="#8696A9" width="59.872" height="58.102"/>
		</g>
	</g>
	<g>
		<defs>
			<path id="SVGID_193_" d="M66.48,50.801h12.718c0.508,0,0.848-0.369,0.848-0.922c0-0.554-0.34-0.925-0.848-0.925H66.48
				c-0.509,0-0.848,0.371-0.848,0.925C65.633,50.432,65.972,50.801,66.48,50.801"/>
		</defs>
		<clipPath id="SVGID_194_">
			<use xlink:href="#SVGID_193_"  overflow="visible"/>
		</clipPath>
		<g clip-path="url(#SVGID_194_)">
			<defs>
				<rect id="SVGID_195_" x="-99" y="-154.837" width="360" height="640"/>
			</defs>
			<clipPath id="SVGID_196_">
				<use xlink:href="#SVGID_195_"  overflow="visible"/>
			</clipPath>
			<rect x="60.633" y="43.955" clip-path="url(#SVGID_196_)" fill="#8696A9" width="24.413" height="11.847"/>
		</g>
	</g>
	<g>
		<defs>
			<path id="SVGID_197_" d="M66.48,61.887h23.738c0.51,0,0.849-0.369,0.849-0.924c0-0.554-0.339-0.924-0.849-0.924H66.48
				c-0.509,0-0.848,0.37-0.848,0.924C65.633,61.518,65.972,61.887,66.48,61.887"/>
		</defs>
		<clipPath id="SVGID_198_">
			<use xlink:href="#SVGID_197_"  overflow="visible"/>
		</clipPath>
		<g clip-path="url(#SVGID_198_)">
			<defs>
				<rect id="SVGID_199_" x="-99" y="-154.837" width="360" height="640"/>
			</defs>
			<clipPath id="SVGID_200_">
				<use xlink:href="#SVGID_199_"  overflow="visible"/>
			</clipPath>
			<rect x="60.633" y="55.04" clip-path="url(#SVGID_200_)" fill="#8696A9" width="35.435" height="11.848"/>
		</g>
	</g>
	<g>
		<defs>
			<path id="SVGID_201_" d="M99.546,65.582c0-0.555-0.339-0.923-0.848-0.923H66.48c-0.509,0-0.849,0.368-0.849,0.923
				c0,0.556,0.34,0.923,0.849,0.923h32.218C99.207,66.504,99.546,66.137,99.546,65.582"/>
		</defs>
		<clipPath id="SVGID_202_">
			<use xlink:href="#SVGID_201_"  overflow="visible"/>
		</clipPath>
		<g clip-path="url(#SVGID_202_)">
			<defs>
				<rect id="SVGID_203_" x="-99" y="-154.837" width="360" height="640"/>
			</defs>
			<clipPath id="SVGID_204_">
				<use xlink:href="#SVGID_203_"  overflow="visible"/>
			</clipPath>
			<rect x="60.632" y="59.659" clip-path="url(#SVGID_204_)" fill="#8696A9" width="43.914" height="11.846"/>
		</g>
	</g>
	<g>
		<defs>
			<path id="SVGID_205_" d="M97.003,70.204c0-0.558-0.34-0.927-0.848-0.927H66.481c-0.51,0-0.85,0.369-0.85,0.927
				c0,0.551,0.34,0.921,0.85,0.921h29.674C96.663,71.125,97.003,70.754,97.003,70.204"/>
		</defs>
		<clipPath id="SVGID_206_">
			<use xlink:href="#SVGID_205_"  overflow="visible"/>
		</clipPath>
		<g clip-path="url(#SVGID_206_)">
			<defs>
				<rect id="SVGID_207_" x="-99" y="-154.837" width="360" height="640"/>
			</defs>
			<clipPath id="SVGID_208_">
				<use xlink:href="#SVGID_207_"  overflow="visible"/>
			</clipPath>
			<rect x="60.632" y="64.277" clip-path="url(#SVGID_208_)" fill="#8696A9" width="41.371" height="11.848"/>
		</g>
	</g>
	<g>
		<defs>
			<path id="SVGID_209_" d="M66.48,75.744h10.173c0.51,0,0.85-0.37,0.85-0.923c0-0.557-0.34-0.926-0.85-0.926H66.48
				c-0.509,0-0.848,0.369-0.848,0.926C65.633,75.374,65.972,75.744,66.48,75.744"/>
		</defs>
		<clipPath id="SVGID_210_">
			<use xlink:href="#SVGID_209_"  overflow="visible"/>
		</clipPath>
		<g clip-path="url(#SVGID_210_)">
			<defs>
				<rect id="SVGID_211_" x="-99" y="-154.837" width="360" height="640"/>
			</defs>
			<clipPath id="SVGID_212_">
				<use xlink:href="#SVGID_211_"  overflow="visible"/>
			</clipPath>
			<rect x="60.633" y="68.895" clip-path="url(#SVGID_212_)" fill="#8696A9" width="21.87" height="11.849"/>
		</g>
	</g>
	<g>
		<defs>
			<rect id="SVGID_213_" x="-99" y="-154.837" width="360" height="640"/>
		</defs>
		<clipPath id="SVGID_214_">
			<use xlink:href="#SVGID_213_"  overflow="visible"/>
		</clipPath>
		
			<line clip-path="url(#SVGID_214_)" fill="none" stroke="#8696A9" stroke-width="2" stroke-linecap="round" stroke-miterlimit="10" x1="97.878" y1="40.691" x2="97.878" y2="35.214"/>
		
			<line clip-path="url(#SVGID_214_)" fill="none" stroke="#8696A9" stroke-width="2" stroke-linecap="round" stroke-miterlimit="10" x1="104.456" y1="46.168" x2="112.13" y2="46.168"/>
		
			<line clip-path="url(#SVGID_214_)" fill="none" stroke="#8696A9" stroke-width="2" stroke-linecap="round" stroke-miterlimit="10" x1="101.295" y1="43.192" x2="110.601" y2="33.896"/>
	</g>
	<g>
		<defs>
			<path id="SVGID_215_" d="M134.651,63.51c-0.016,0-0.027,0.011-0.043,0.012c-0.131,0.007-0.258,0.047-0.377,0.108
				c-0.039,0.022-0.072,0.044-0.108,0.07c-0.032,0.024-0.073,0.037-0.104,0.065c-0.055,0.055-1.383,1.304-3.621,1.304
				c-2.236,0-3.565-1.249-3.616-1.3c-0.032-0.032-0.074-0.046-0.109-0.07c-0.034-0.025-0.065-0.047-0.103-0.067
				c-0.131-0.07-0.271-0.118-0.415-0.119c-0.003,0-0.005-0.003-0.01-0.003h-0.003c-0.004,0-0.01,0.001-0.014,0.001
				c-2.947,0.004-5.273,0.962-6.912,2.854c-3.424,3.949-2.521,10.506-2.48,10.783c0.063,0.446,0.448,0.776,0.898,0.776h25.524
				c0.452,0,0.835-0.332,0.897-0.776c0.042-0.278,0.944-6.837-2.477-10.784C139.939,64.469,137.608,63.51,134.651,63.51
				 M130.397,66.885c0.84,0,1.574-0.143,2.217-0.341l-2.217,4.59l-2.219-4.59C128.821,66.743,129.556,66.885,130.397,66.885
				 M142.333,76.11H118.46c-0.117-1.73-0.133-5.95,2.127-8.558c1.18-1.359,2.857-2.102,4.994-2.212l3.999,8.278
				c0.304,0.627,1.333,0.627,1.637,0l3.999-8.278c2.133,0.109,3.81,0.851,4.986,2.208C142.459,70.148,142.448,74.376,142.333,76.11
				 M130.397,62.406c4.175,0,7.572-3.395,7.572-7.566c0-4.173-3.397-7.566-7.572-7.566c-4.176,0-7.574,3.394-7.574,7.566
				C122.823,59.011,126.222,62.406,130.397,62.406 M130.397,49.088c3.173,0,5.755,2.578,5.755,5.751
				c0,3.171-2.582,5.749-5.755,5.749c-3.174,0-5.756-2.578-5.756-5.749C124.642,51.667,127.224,49.088,130.397,49.088"/>
		</defs>
		<clipPath id="SVGID_216_">
			<use xlink:href="#SVGID_215_"  overflow="visible"/>
		</clipPath>
		<g clip-path="url(#SVGID_216_)">
			<defs>
				<rect id="SVGID_217_" x="-99" y="-154.837" width="360" height="640"/>
			</defs>
			<clipPath id="SVGID_218_">
				<use xlink:href="#SVGID_217_"  overflow="visible"/>
			</clipPath>
			<rect x="111.599" y="42.273" clip-path="url(#SVGID_218_)" fill="#D9DFE4" width="37.596" height="40.651"/>
		</g>
	</g>
	<g>
		<defs>
			<path id="SVGID_219_" d="M30.054,100.029c-0.016,0-0.027,0.011-0.043,0.012c-0.132,0.007-0.258,0.048-0.377,0.108
				c-0.04,0.022-0.072,0.044-0.109,0.07c-0.033,0.024-0.073,0.037-0.104,0.066c-0.055,0.055-1.384,1.303-3.621,1.303
				c-2.238,0-3.566-1.248-3.617-1.3c-0.033-0.032-0.074-0.046-0.109-0.07c-0.033-0.025-0.064-0.047-0.102-0.066
				c-0.132-0.071-0.271-0.118-0.416-0.12c-0.003,0-0.006-0.003-0.01-0.003h-0.002c-0.004,0-0.01,0.001-0.014,0.001
				c-2.948,0.005-5.273,0.962-6.912,2.854c-3.424,3.949-2.521,10.506-2.481,10.783c0.063,0.446,0.448,0.776,0.899,0.776H38.56
				c0.452,0,0.834-0.332,0.898-0.776c0.041-0.278,0.943-6.836-2.477-10.784C35.341,100.989,33.01,100.029,30.054,100.029
				 M25.798,103.404c0.842,0,1.576-0.143,2.219-0.341l-2.219,4.59l-2.217-4.59C24.224,103.261,24.958,103.404,25.798,103.404
				 M37.734,112.629H13.861c-0.116-1.731-0.133-5.95,2.128-8.559c1.18-1.359,2.857-2.101,4.993-2.212l3.999,8.278
				c0.305,0.628,1.334,0.628,1.637,0l4-8.278c2.132,0.11,3.809,0.851,4.985,2.209C37.86,106.667,37.85,110.895,37.734,112.629
				 M25.798,98.924c4.176,0,7.574-3.395,7.574-7.566c0-4.173-3.398-7.565-7.574-7.565c-4.175,0-7.572,3.393-7.572,7.565
				C18.226,95.53,21.623,98.924,25.798,98.924 M25.798,85.607c3.174,0,5.756,2.579,5.756,5.751c0,3.171-2.582,5.75-5.756,5.75
				c-3.173,0-5.755-2.579-5.755-5.75C20.043,88.186,22.625,85.607,25.798,85.607"/>
		</defs>
		<clipPath id="SVGID_220_">
			<use xlink:href="#SVGID_219_"  overflow="visible"/>
		</clipPath>
		<g clip-path="url(#SVGID_220_)">
			<defs>
				<rect id="SVGID_221_" x="-99" y="-154.837" width="360" height="640"/>
			</defs>
			<clipPath id="SVGID_222_">
				<use xlink:href="#SVGID_221_"  overflow="visible"/>
			</clipPath>
			<rect x="7" y="78.792" clip-path="url(#SVGID_222_)" fill="#D9DFE4" width="37.596" height="40.65"/>
		</g>
	</g>
	<g>
		<defs>
			<rect id="SVGID_223_" x="133.312" y="93.055" width="27.596" height="30.65"/>
		</defs>
		<clipPath id="SVGID_224_">
			<use xlink:href="#SVGID_223_"  overflow="visible"/>
		</clipPath>
		<g clip-path="url(#SVGID_224_)">
			<defs>
				<rect id="SVGID_225_" x="-99" y="-154.837" width="360" height="640"/>
			</defs>
			<clipPath id="SVGID_226_">
				<use xlink:href="#SVGID_225_"  overflow="visible"/>
			</clipPath>
			<g clip-path="url(#SVGID_226_)" enable-background="new    ">
				<g>
					<defs>
						<rect id="SVGID_227_" x="133" y="92.526" width="28" height="32"/>
					</defs>
					<clipPath id="SVGID_228_">
						<use xlink:href="#SVGID_227_"  overflow="visible"/>
					</clipPath>
					<g clip-path="url(#SVGID_228_)">
						<defs>
							<path id="SVGID_229_" d="M151.364,109.292c-0.016,0-0.027,0.011-0.043,0.012c-0.131,0.007-0.258,0.048-0.377,0.108
								c-0.039,0.022-0.072,0.044-0.108,0.07c-0.032,0.024-0.073,0.037-0.104,0.065c-0.055,0.056-1.383,1.304-3.621,1.304
								c-2.236,0-3.565-1.248-3.615-1.3c-0.033-0.032-0.075-0.046-0.11-0.07c-0.034-0.025-0.064-0.047-0.103-0.066
								c-0.131-0.071-0.27-0.119-0.415-0.12c-0.003,0-0.005-0.003-0.01-0.003h-0.002c-0.005,0-0.01,0.001-0.015,0.001
								c-2.947,0.005-5.273,0.962-6.912,2.854c-3.424,3.949-2.521,10.506-2.48,10.783c0.063,0.446,0.448,0.776,0.898,0.776h25.525
								c0.451,0,0.834-0.332,0.897-0.776c0.042-0.278,0.943-6.837-2.477-10.784C156.653,110.251,154.321,109.292,151.364,109.292
								 M147.11,112.667c0.84,0,1.574-0.143,2.217-0.341l-2.217,4.59l-2.219-4.59C145.534,112.524,146.269,112.667,147.11,112.667
								 M159.046,121.892h-23.873c-0.116-1.731-0.133-5.95,2.128-8.559c1.179-1.359,2.856-2.101,4.993-2.212l3.999,8.278
								c0.304,0.627,1.333,0.627,1.637,0l3.999-8.278c2.133,0.109,3.81,0.851,4.986,2.209
								C159.172,115.929,159.161,120.158,159.046,121.892 M147.11,108.187c4.176,0,7.572-3.395,7.572-7.566
								c0-4.173-3.396-7.565-7.572-7.565s-7.573,3.393-7.573,7.565C139.537,104.792,142.935,108.187,147.11,108.187 M147.11,94.87
								c3.174,0,5.755,2.579,5.755,5.751c0,3.171-2.581,5.75-5.755,5.75s-5.756-2.579-5.756-5.75
								C141.354,97.449,143.937,94.87,147.11,94.87"/>
						</defs>
						<clipPath id="SVGID_230_">
							<use xlink:href="#SVGID_229_"  overflow="visible"/>
						</clipPath>
						<g clip-path="url(#SVGID_230_)">
							<defs>
								<rect id="SVGID_231_" x="133" y="92.526" width="28" height="32"/>
							</defs>
							<clipPath id="SVGID_232_">
								<use xlink:href="#SVGID_231_"  overflow="visible"/>
							</clipPath>
							<rect x="128.312" y="88.055" clip-path="url(#SVGID_232_)" fill="#D9DFE4" width="37.596" height="40.65"/>
						</g>
					</g>
				</g>
			</g>
		</g>
	</g>
	<g>
		<defs>
			<rect id="SVGID_233_" x="12" y="16.622" width="148.907" height="131.691"/>
		</defs>
		<clipPath id="SVGID_234_">
			<use xlink:href="#SVGID_233_"  overflow="visible"/>
		</clipPath>
		<g clip-path="url(#SVGID_234_)">
			<defs>
				<rect id="SVGID_235_" x="-99" y="-154.837" width="360" height="640"/>
			</defs>
			<clipPath id="SVGID_236_">
				<use xlink:href="#SVGID_235_"  overflow="visible"/>
			</clipPath>
			<g clip-path="url(#SVGID_236_)" enable-background="new    ">
				<g>
					<defs>
						<rect id="SVGID_237_" x="58" y="44.526" width="3" height="5"/>
					</defs>
					<clipPath id="SVGID_238_">
						<use xlink:href="#SVGID_237_"  overflow="visible"/>
					</clipPath>
					<g clip-path="url(#SVGID_238_)">
						<defs>
							<rect id="SVGID_239_" x="58.412" y="45.073" width="2.192" height="4.382"/>
						</defs>
						<clipPath id="SVGID_240_">
							<use xlink:href="#SVGID_239_"  overflow="visible"/>
						</clipPath>
						<g clip-path="url(#SVGID_240_)">
							<defs>
								<rect id="SVGID_241_" x="12" y="16.526" width="149" height="132"/>
							</defs>
							<clipPath id="SVGID_242_">
								<use xlink:href="#SVGID_241_"  overflow="visible"/>
							</clipPath>
							<rect x="53.412" y="40.073" clip-path="url(#SVGID_242_)" fill="#FFFFFF" width="12.192" height="14.382"/>
						</g>
					</g>
				</g>
			</g>
		</g>
	</g>
</g>
</svg>
