<?xml version="1.0" encoding="utf-8"?>
<!-- Generator: Adobe Illustrator 16.0.0, SVG Export Plug-In . SVG Version: 6.00 Build 0)  -->
<!DOCTYPE svg PUBLIC "-//W3C//DTD SVG 1.1//EN" "http://www.w3.org/Graphics/SVG/1.1/DTD/svg11.dtd">
<svg version="1.1" xmlns="http://www.w3.org/2000/svg" xmlns:xlink="http://www.w3.org/1999/xlink" x="0px" y="0px" width="150px"
	 height="160.842px" viewBox="0 0 150 160.842" enable-background="new 0 0 150 160.842" xml:space="preserve">
<g id="Capa_1">
	<g opacity="0.437" enable-background="new    ">
		<g>
			<defs>
				<rect id="SVGID_1_" x="-296.803" y="-159.518" width="115" height="63"/>
			</defs>
			<clipPath id="SVGID_2_">
				<use xlink:href="#SVGID_1_"  overflow="visible"/>
			</clipPath>
			<g clip-path="url(#SVGID_2_)">
				<defs>
					<path id="SVGID_3_" d="M-185.65-112.121c-2.094-2.392-5.062-3.604-8.834-3.604c-0.02,0-0.035,0.015-0.055,0.016
						c-0.168,0.009-0.328,0.058-0.48,0.138c-0.051,0.027-0.094,0.055-0.139,0.088c-0.043,0.031-0.094,0.047-0.133,0.084
						c-0.07,0.067-1.762,1.644-4.615,1.644c-2.852,0-4.545-1.576-4.609-1.641c-0.041-0.04-0.094-0.057-0.139-0.091
						c-0.045-0.03-0.084-0.059-0.131-0.083c-0.168-0.089-0.348-0.15-0.533-0.151c-0.004,0-0.006-0.003-0.01-0.003h-0.004
						c-0.004,0-0.01,0.002-0.016,0.002c-3.76,0.005-6.725,1.215-8.812,3.602c-4.359,4.985-3.213,13.265-3.16,13.614
						c0.082,0.564,0.572,0.981,1.146,0.981h32.537c0.576,0,1.064-0.419,1.146-0.981C-182.439-98.856-181.289-107.134-185.65-112.121
						z M-199.906-111.461c1.072,0,2.008-0.182,2.826-0.433l-2.826,5.797l-2.828-5.797
						C-201.916-111.643-200.979-111.461-199.906-111.461z M-184.691-99.817h-30.432c-0.148-2.184-0.17-7.51,2.713-10.803
						c1.502-1.717,3.641-2.654,6.363-2.794l5.098,10.45c0.193,0.397,0.598,0.648,1.043,0.648c0.443,0,0.848-0.251,1.043-0.648
						l5.096-10.45c2.723,0.138,4.857,1.075,6.359,2.788C-184.529-107.343-184.545-102.005-184.691-99.817z M-199.906-117.118
						c5.322,0,9.652-4.286,9.652-9.553c0-5.269-4.33-9.553-9.652-9.553s-9.654,4.284-9.654,9.553
						C-209.561-121.404-205.229-117.118-199.906-117.118z M-199.906-133.933c4.045,0,7.336,3.259,7.336,7.262
						c0,4.004-3.291,7.261-7.336,7.261s-7.336-3.257-7.336-7.261C-207.242-130.674-203.951-133.933-199.906-133.933z
						 M-273.277-115.724c-0.02,0-0.035,0.015-0.055,0.016c-0.167,0.009-0.329,0.058-0.481,0.138
						c-0.049,0.027-0.093,0.055-0.138,0.088c-0.042,0.031-0.094,0.047-0.132,0.084c-0.071,0.067-1.764,1.644-4.617,1.644
						c-2.852,0-4.545-1.576-4.609-1.641c-0.042-0.04-0.096-0.057-0.141-0.09c-0.042-0.03-0.083-0.058-0.129-0.084
						c-0.167-0.089-0.346-0.149-0.53-0.15c-0.004,0-0.008-0.004-0.011-0.004h-0.004c-0.006,0-0.012,0.002-0.017,0.002
						c-3.759,0.005-6.723,1.215-8.812,3.602c-4.365,4.986-3.213,13.265-3.162,13.614c0.081,0.564,0.57,0.981,1.145,0.981h32.538
						c0.574,0,1.063-0.419,1.144-0.981c0.052-0.351,1.204-8.63-3.157-13.616C-266.536-114.512-269.509-115.724-273.277-115.724z
						 M-278.701-111.461c1.073,0,2.009-0.182,2.828-0.433l-2.828,5.797l-2.827-5.797
						C-280.71-111.643-279.772-111.461-278.701-111.461z M-263.486-99.817h-30.43c-0.149-2.184-0.169-7.51,2.712-10.803
						c1.503-1.717,3.64-2.654,6.364-2.794l5.099,10.45c0.387,0.793,1.699,0.793,2.085,0l5.098-10.45
						c2.719,0.138,4.855,1.075,6.355,2.788C-263.325-107.343-263.339-102.005-263.486-99.817z M-278.701-117.118
						c5.323,0,9.653-4.286,9.653-9.553c0-5.269-4.331-9.553-9.653-9.553c-5.321,0-9.653,4.284-9.653,9.553
						C-288.354-121.404-284.022-117.118-278.701-117.118z M-278.701-133.933c4.045,0,7.337,3.259,7.337,7.262
						c0,4.004-3.292,7.261-7.337,7.261s-7.336-3.257-7.336-7.261C-286.038-130.674-282.747-133.933-278.701-133.933z
						 M-213.549-127.887c0.432,0.049,0.838-0.16,1.07-0.513c0.234-0.352,0.254-0.803,0.053-1.175
						c-1.342-2.465-2.809-5.238-3.236-6.172c0.984-2.746,1.25-5.703,0.766-8.576c-0.762-4.551-3.273-8.535-7.062-11.221
						c-3.795-2.686-8.416-3.746-13.016-2.991c-9.494,1.562-15.936,10.474-14.361,19.872c0.501,2.981,1.788,5.698,3.682,8.008
						c-1.104,0.288-2.188,0.667-3.235,1.174c-2.938,1.422-5.389,3.607-7.118,6.341l-6.939,1.4c-0.417,0.083-0.754,0.389-0.878,0.793
						c-0.122,0.403-0.011,0.842,0.291,1.14c2,1.981,4.204,4.225,4.884,5.001c-0.149,2.909,0.453,5.817,1.746,8.434
						c2.954,5.976,8.968,9.688,15.692,9.688h0.001c2.667,0,5.241-0.592,7.657-1.761c8.643-4.187,12.236-14.55,8.01-23.107
						c-0.59-1.193-1.33-2.268-2.146-3.27c2.619-0.681,5.043-1.913,7.084-3.688L-213.549-127.887z M-227.617-120.545
						c3.666,7.422,0.549,16.413-6.949,20.042c-2.094,1.014-4.325,1.526-6.638,1.526h-0.002c-5.833,0-11.05-3.219-13.612-8.402
						c-1.167-2.359-1.684-4.992-1.491-7.683c0.043-0.564,0.056-0.743-4.065-4.855l5.138-1.038c0.381-0.019,0.745-0.22,0.949-0.567
						c1.508-2.557,3.727-4.597,6.417-5.898c2.094-1.015,4.327-1.529,6.642-1.529C-235.397-128.949-230.18-125.73-227.617-120.545z
						 M-221.779-130.548c-2.148,1.993-4.82,3.3-7.723,3.805c-3.146-2.84-7.271-4.499-11.727-4.499c-0.604,0-1.202,0.041-1.796,0.103
						c-2.117-2.182-3.519-4.894-4.024-7.898c-1.367-8.149,4.221-15.881,12.455-17.235c3.994-0.651,8,0.268,11.287,2.593
						c3.287,2.328,5.465,5.784,6.129,9.732c0.434,2.593,0.166,5.262-0.795,7.779c-0.205,0.53-0.271,0.697,2.488,5.807l-5.221-0.461
						C-221.074-130.917-221.486-130.824-221.779-130.548z M-232.131-118.867h-3.631c0.109-0.497,0.172-1.07,0.119-1.677
						c-0.115-1.346-0.826-2.644-1.805-3.307c-0.735-0.498-1.608-0.637-2.456-0.388c-1.673,0.488-1.599,2.597-1.557,3.854
						l0.015,0.488c0,1.125-1.156,2.023-2.02,2.539c-0.229-0.075-0.461-0.098-0.672-0.071h-6.182c-0.363,0-0.707,0.17-0.926,0.459
						c-0.308,0.405-0.657,0.866,0.52,9.529c0.077,0.571,0.568,0.996,1.148,0.996h5.82c0.5-0.01,0.855-0.23,1.088-0.621l0.328,0.148
						c0.152,0.069,0.317,0.105,0.484,0.105h7.275c1.504,0,2.479-0.437,2.9-1.298c0.291-0.595,0.221-1.197,0.049-1.686
						c0.48-0.501,0.65-1.01,0.699-1.401c0.045-0.365-0.002-0.696-0.094-0.983c0.305-0.345,0.465-0.7,0.545-0.989
						c0.117-0.411,0.113-0.806,0.057-1.151c0.582-0.404,1.086-1.042,1.086-1.961C-229.338-117.527-230.213-118.867-232.131-118.867z
						 M-245.242-108.737h-3.32c-0.316-2.463-0.598-5.065-0.664-6.4h3.984V-108.737z M-232.123-116.031
						c-0.355,0.084-0.646,0.341-0.789,0.676c-0.143,0.334-0.113,0.724,0.074,1.037c0.078,0.134,0.166,0.395,0.123,0.538
						c-0.035,0.115-0.219,0.22-0.324,0.273c-0.322,0.161-0.541,0.477-0.605,0.83c-0.066,0.353,0.055,0.729,0.297,0.995
						c0.055,0.058,0.115,0.164,0.117,0.199c-0.012,0.039-0.119,0.191-0.457,0.389c-0.287,0.166-0.484,0.449-0.549,0.77
						c-0.064,0.323,0.018,0.661,0.219,0.921c0.051,0.067,0.104,0.154,0.145,0.236c-0.141,0.03-0.365,0.062-0.709,0.062h-7.021
						l-0.883-0.403c-0.139-0.063-0.289-0.089-0.442-0.095v-5.433c2.442-1.245,3.794-2.964,3.794-4.86l-0.012-0.567
						c-0.014-0.385-0.043-1.232,0.061-1.602c0.13,0.01,0.218,0.03,0.33,0.108c0.404,0.272,0.75,0.965,0.805,1.608
						c0.09,1.061-0.459,2.059-0.461,2.062c-0.202,0.354-0.199,0.79,0.008,1.142c0.209,0.354,0.588,0.57,1,0.57h5.271
						c0.475,0,0.475,0.146,0.48,0.277C-231.695-116.215-231.945-116.077-232.123-116.031z M-238.207-143.568
						c-0.982,0-1.779,0.789-1.779,1.762c0,0.974,0.797,1.763,1.779,1.763c0.984,0,1.781-0.789,1.781-1.763
						C-236.426-142.779-237.225-143.568-238.207-143.568z M-231.779-143.568c-0.984,0-1.781,0.789-1.781,1.762
						c0,0.974,0.797,1.763,1.781,1.763c0.982,0,1.781-0.789,1.781-1.763C-229.998-142.779-230.797-143.568-231.779-143.568z
						 M-225.631-143.568c-0.982,0-1.779,0.789-1.779,1.762c0,0.974,0.797,1.763,1.779,1.763c0.984,0,1.781-0.789,1.781-1.763
						C-223.85-142.779-224.646-143.568-225.631-143.568z"/>
				</defs>
				<clipPath id="SVGID_4_">
					<use xlink:href="#SVGID_3_"  overflow="visible"/>
				</clipPath>
				<g clip-path="url(#SVGID_4_)">
					<defs>
						<rect id="SVGID_5_" x="-296.803" y="-159.518" width="115" height="63"/>
					</defs>
					<clipPath id="SVGID_6_">
						<use xlink:href="#SVGID_5_"  overflow="visible"/>
					</clipPath>
					<rect x="-301.29" y="-163.772" clip-path="url(#SVGID_6_)" fill="#8696A9" width="123.974" height="72.088"/>
				</g>
			</g>
		</g>
	</g>
</g>
<g id="Capa_2">
	<g>
		<defs>
			<path id="SVGID_7_" d="M-569.684,13.409l3.528-3.756c0.725,0.415,1.413,0.728,2.449,0.728c2.283,0,4.986-1.245,7.063-3.319
				c1.557-1.554,2.708-3.425,3.123-5.288c0.521-2.18,0.112-4.152-1.237-5.502c-0.935-0.93-2.256-1.452-3.709-1.452
				c-2.283,0-4.936,1.246-7.01,3.32c-1.559,1.559-2.596,3.422-3.014,5.291c-0.414,1.764-0.004,3.424,0.725,4.667l-1.987,2.271
				L-569.684,13.409z M-563.917-0.2c1.765-1.764,3.841-2.701,5.503-2.701c0.828,0,1.659,0.318,2.18,0.833
				c1.557,1.56,0.728,4.982-1.973,7.677c-1.766,1.766-3.84,2.697-5.502,2.697c-0.416,0-0.831,0-1.144-0.208l4.672-4.667
				c0.415-0.415,0.415-1.139,0-1.554c-0.413-0.415-1.14-0.415-1.557,0l-4.671,4.668C-567.133,4.78-566.096,1.978-563.917-0.2z"/>
		</defs>
		<clipPath id="SVGID_8_">
			<use xlink:href="#SVGID_7_"  overflow="visible"/>
		</clipPath>
		<g clip-path="url(#SVGID_8_)">
			<defs>
				<rect id="SVGID_9_" x="-719.328" y="-665.387" width="360" height="1083"/>
			</defs>
			<clipPath id="SVGID_10_">
				<use xlink:href="#SVGID_9_"  overflow="visible"/>
			</clipPath>
			<rect x="-574.752" y="-10.181" clip-path="url(#SVGID_10_)" fill="#DAE0E5" width="26.45" height="28.59"/>
		</g>
	</g>
	<g>
		<defs>
			<path id="SVGID_11_" d="M-504.195-8.777l-1.985-2.271c0.729-1.243,1.139-2.903,0.723-4.667c-0.414-1.869-1.453-3.732-3.01-5.291
				c-2.076-2.073-4.728-3.318-7.014-3.318c-1.451,0-2.773,0.521-3.709,1.452c-1.348,1.349-1.756,3.32-1.235,5.501
				c0.415,1.862,1.566,3.733,3.123,5.287c2.075,2.074,4.778,3.319,7.062,3.319c1.038,0,1.726-0.311,2.45-0.728l3.526,3.757
				L-504.195-8.777z M-507.539-12.6l-4.67-4.669c-0.417-0.415-1.142-0.415-1.558,0c-0.414,0.415-0.414,1.139,0,1.554l4.672,4.667
				c-0.312,0.208-0.725,0.208-1.141,0.208c-1.663,0-3.738-0.932-5.504-2.696c-2.699-2.694-3.527-6.118-1.971-7.677
				c0.518-0.515,1.35-0.834,2.18-0.834c1.66,0,3.734,0.938,5.502,2.701C-507.849-17.167-506.811-14.364-507.539-12.6z"/>
		</defs>
		<clipPath id="SVGID_12_">
			<use xlink:href="#SVGID_11_"  overflow="visible"/>
		</clipPath>
		<g clip-path="url(#SVGID_12_)">
			<defs>
				<rect id="SVGID_13_" x="-719.328" y="-665.387" width="360" height="1083"/>
			</defs>
			<clipPath id="SVGID_14_">
				<use xlink:href="#SVGID_13_"  overflow="visible"/>
			</clipPath>
			<rect x="-525.643" y="-29.324" clip-path="url(#SVGID_14_)" fill="#DAE0E5" width="26.448" height="28.589"/>
		</g>
	</g>
	<g>
		<defs>
			<path id="SVGID_15_" d="M-524.987,18.591l3.527-3.757c0.726,0.415,1.412,0.728,2.45,0.728c2.283,0,4.985-1.245,7.063-3.318
				c1.555-1.555,2.707-3.426,3.123-5.288c0.52-2.181,0.111-4.152-1.237-5.502C-510.995,0.522-512.317,0-513.77,0
				c-2.283,0-4.935,1.247-7.012,3.32c-1.559,1.559-2.595,3.422-3.012,5.291c-0.416,1.764-0.005,3.424,0.723,4.667l-1.984,2.271
				L-524.987,18.591z M-519.221,4.98c1.766-1.763,3.843-2.701,5.502-2.701c0.831,0,1.662,0.319,2.18,0.834
				c1.557,1.559,0.729,4.982-1.971,7.677c-1.768,1.765-3.84,2.696-5.504,2.696c-0.415,0-0.83,0-1.141-0.208l4.67-4.667
				c0.417-0.415,0.417-1.139,0-1.554c-0.414-0.415-1.139-0.415-1.555,0l-4.671,4.669C-522.438,9.962-521.399,7.159-519.221,4.98z"/>
		</defs>
		<clipPath id="SVGID_16_">
			<use xlink:href="#SVGID_15_"  overflow="visible"/>
		</clipPath>
		<g clip-path="url(#SVGID_16_)">
			<defs>
				<rect id="SVGID_17_" x="-719.328" y="-665.387" width="360" height="1083"/>
			</defs>
			<clipPath id="SVGID_18_">
				<use xlink:href="#SVGID_17_"  overflow="visible"/>
			</clipPath>
			<rect x="-530.055" y="-5" clip-path="url(#SVGID_18_)" fill="#DAE0E5" width="26.45" height="28.591"/>
		</g>
	</g>
	<g>
		<defs>
			<path id="SVGID_19_" d="M-515.451-71.254c-0.556-0.574-0.547-1.49,0.019-2.055c0.084-0.084,2.1-2.078,5.441-3.532
				c0.046-0.27,0.092-0.552,0.15-0.84l0.152-0.624c0.221-1.049,1.047-3.571,1.056-3.596c0.192-0.595,0.741-0.994,1.363-0.994
				c0.151,0,0.304,0.029,0.452,0.075c0.361,0.12,0.659,0.378,0.836,0.724c0.169,0.347,0.197,0.74,0.074,1.107
				c-0.186,0.563-0.715,2.229-0.926,3.099c2.307-0.539,4.662-0.591,6.977-0.161c0.778,0.139,1.299,0.896,1.156,1.682
				c-0.124,0.688-0.721,1.188-1.412,1.188c-0.086,0-0.172-0.005-0.261-0.023c-2.321-0.428-4.702-0.26-7.029,0.497
				c-0.717,6.037,0.969,8.937,1.732,9.907c0.712,0.906,1.305,1.507,2.037,1.718c0.516,0.146,1.004,0.22,1.462,0.22
				c2.244,0,3.266-1.795,3.652-2.47c0.071-0.13,0.119-0.215,0.17-0.28c0.293-0.379,0.73-0.609,1.176-0.609
				c0.422,0,0.799,0.21,1.037,0.571c0.637,0.978,0.293,1.655-0.036,2.305c-0.179,0.354-1.825,3.373-5.843,3.373h-0.002
				c-0.655,0-1.347-0.084-2.059-0.25c-0.672-0.152-2.4-0.746-3.917-2.869c-1.046-1.472-2.712-4.728-2.405-10.304
				c-1.719,0.964-2.803,1.947-3.018,2.151l-0.007,0.003c-0.267,0.27-0.626,0.417-1.003,0.417
				C-514.811-70.824-515.174-70.975-515.451-71.254 M-522.231-70.659c0,9.353,7.518,16.934,16.795,16.934
				c9.275,0,16.797-7.581,16.797-16.934c0-9.354-7.521-16.937-16.797-16.937C-514.713-87.596-522.231-80.013-522.231-70.659"/>
		</defs>
		<clipPath id="SVGID_20_">
			<use xlink:href="#SVGID_19_"  overflow="visible"/>
		</clipPath>
		<g clip-path="url(#SVGID_20_)">
			<defs>
				<rect id="SVGID_21_" x="-719.328" y="-665.387" width="360" height="1083"/>
			</defs>
			<clipPath id="SVGID_22_">
				<use xlink:href="#SVGID_21_"  overflow="visible"/>
			</clipPath>
			<rect x="-527.231" y="-92.596" clip-path="url(#SVGID_22_)" fill="#E16B59" width="43.592" height="43.87"/>
		</g>
	</g>
	<g>
		<defs>
			<path id="SVGID_23_" d="M-515.45-71.252c-0.559-0.577-0.547-1.493,0.019-2.055c0.083-0.084,2.099-2.08,5.44-3.535
				c0.047-0.269,0.092-0.551,0.15-0.839l0.152-0.625c0.219-1.048,1.047-3.568,1.057-3.596c0.191-0.593,0.74-0.991,1.361-0.991
				c0.152,0,0.305,0.026,0.451,0.074c0.363,0.118,0.66,0.375,0.838,0.723c0.17,0.348,0.197,0.739,0.074,1.106
				c-0.186,0.564-0.715,2.229-0.926,3.1c2.307-0.539,4.662-0.592,6.977-0.162c0.779,0.14,1.299,0.898,1.156,1.683
				c-0.125,0.688-0.722,1.189-1.411,1.189c-0.087,0-0.175-0.008-0.262-0.025c-2.321-0.426-4.702-0.26-7.03,0.499
				c-0.714,6.036,0.969,8.935,1.734,9.907c0.711,0.905,1.305,1.506,2.037,1.716c0.514,0.146,1.003,0.221,1.461,0.221
				c2.245,0,3.266-1.795,3.652-2.47c0.072-0.13,0.119-0.217,0.17-0.28c0.293-0.377,0.73-0.61,1.175-0.61
				c0.423,0,0.8,0.211,1.038,0.573c0.638,0.978,0.294,1.654-0.036,2.306c-0.179,0.352-1.825,3.371-5.842,3.371h-0.003
				c-0.654,0-1.346-0.084-2.059-0.251c-0.672-0.15-2.399-0.746-3.915-2.868c-1.048-1.474-2.712-4.728-2.408-10.303
				c-1.717,0.962-2.802,1.945-3.019,2.15l-0.006,0.003c-0.267,0.27-0.625,0.416-1.002,0.416
				C-514.811-70.825-515.174-70.976-515.45-71.252z M-522.231-70.66c0,9.354,7.518,16.934,16.795,16.934
				c9.275,0,16.797-7.579,16.797-16.934c0-9.353-7.521-16.937-16.797-16.937C-514.713-87.597-522.231-80.013-522.231-70.66z"/>
		</defs>
		<clipPath id="SVGID_24_">
			<use xlink:href="#SVGID_23_"  overflow="visible"/>
		</clipPath>
		<g clip-path="url(#SVGID_24_)">
			<defs>
				<rect id="SVGID_25_" x="-719.328" y="-665.387" width="360" height="1083"/>
			</defs>
			<clipPath id="SVGID_26_">
				<use xlink:href="#SVGID_25_"  overflow="visible"/>
			</clipPath>
			<g clip-path="url(#SVGID_26_)" enable-background="new    ">
				<g>
					<defs>
						<rect id="SVGID_27_" x="-522.328" y="-88.387" width="34" height="35"/>
					</defs>
					<clipPath id="SVGID_28_">
						<use xlink:href="#SVGID_27_"  overflow="visible"/>
					</clipPath>
					<g clip-path="url(#SVGID_28_)">
						<defs>
							<rect id="SVGID_29_" x="-522.426" y="-88.687" width="34.877" height="36.437"/>
						</defs>
						<clipPath id="SVGID_30_">
							<use xlink:href="#SVGID_29_"  overflow="visible"/>
						</clipPath>
						<g clip-path="url(#SVGID_30_)">
							<defs>
								<rect id="SVGID_31_" x="-522.328" y="-88.387" width="34" height="35"/>
							</defs>
							<clipPath id="SVGID_32_">
								<use xlink:href="#SVGID_31_"  overflow="visible"/>
							</clipPath>
							<rect x="-527.426" y="-93.687" clip-path="url(#SVGID_32_)" fill="#B5F0FE" width="44.877" height="46.437"/>
						</g>
					</g>
					<g clip-path="url(#SVGID_28_)">
						<defs>
							<rect id="SVGID_33_" x="-529.971" y="-95.357" width="49.072" height="49.392"/>
						</defs>
						<clipPath id="SVGID_34_">
							<use xlink:href="#SVGID_33_"  overflow="visible"/>
						</clipPath>
						<g clip-path="url(#SVGID_34_)">
							<defs>
								<rect id="SVGID_35_" x="-522.328" y="-88.387" width="34" height="35"/>
							</defs>
							<clipPath id="SVGID_36_">
								<use xlink:href="#SVGID_35_"  overflow="visible"/>
							</clipPath>
							<rect x="-534.971" y="-100.357" clip-path="url(#SVGID_36_)" fill="#B5F0FE" width="59.072" height="59.392"/>
						</g>
					</g>
					<g clip-path="url(#SVGID_28_)">
						<defs>
							<rect id="SVGID_37_" x="-522.426" y="-88.687" width="34.877" height="36.437"/>
						</defs>
						<clipPath id="SVGID_38_">
							<use xlink:href="#SVGID_37_"  overflow="visible"/>
						</clipPath>
						<g clip-path="url(#SVGID_38_)">
							<defs>
								<rect id="SVGID_39_" x="-522.328" y="-88.387" width="34" height="35"/>
							</defs>
							<clipPath id="SVGID_40_">
								<use xlink:href="#SVGID_39_"  overflow="visible"/>
							</clipPath>
							<rect x="-527.426" y="-93.687" clip-path="url(#SVGID_40_)" fill="#B5F0FE" width="44.877" height="46.437"/>
						</g>
					</g>
					<g clip-path="url(#SVGID_28_)">
						<defs>
							<rect id="SVGID_41_" x="-537.899" y="-103.278" width="64.928" height="65.233"/>
						</defs>
						<clipPath id="SVGID_42_">
							<use xlink:href="#SVGID_41_"  overflow="visible"/>
						</clipPath>
						<g clip-path="url(#SVGID_42_)">
							<defs>
								<rect id="SVGID_43_" x="-522.328" y="-88.387" width="34" height="35"/>
							</defs>
							<clipPath id="SVGID_44_">
								<use xlink:href="#SVGID_43_"  overflow="visible"/>
							</clipPath>
							<rect x="-542.898" y="-108.278" clip-path="url(#SVGID_44_)" fill="#B5F0FE" width="74.927" height="75.233"/>
						</g>
					</g>
				</g>
			</g>
		</g>
	</g>
	<g>
		<defs>
			<path id="SVGID_45_" d="M-539.23-39.644c-0.557-0.575-0.547-1.491,0.019-2.055c0.084-0.085,2.1-2.079,5.441-3.533
				c0.045-0.27,0.092-0.552,0.15-0.84l0.152-0.624c0.22-1.049,1.046-3.57,1.055-3.596c0.192-0.595,0.741-0.993,1.364-0.993
				c0.15,0,0.303,0.028,0.452,0.074c0.361,0.12,0.659,0.378,0.835,0.724c0.169,0.347,0.198,0.74,0.075,1.107
				c-0.186,0.564-0.716,2.229-0.926,3.099c2.306-0.538,4.662-0.591,6.977-0.161c0.777,0.139,1.298,0.896,1.155,1.682
				c-0.124,0.688-0.72,1.188-1.411,1.188c-0.087,0-0.172-0.005-0.262-0.023c-2.32-0.428-4.701-0.26-7.029,0.497
				c-0.717,6.037,0.969,8.937,1.733,9.907c0.712,0.906,1.305,1.507,2.037,1.718c0.515,0.146,1.003,0.22,1.462,0.22
				c2.244,0,3.266-1.795,3.652-2.47c0.071-0.13,0.119-0.215,0.17-0.28c0.293-0.379,0.73-0.609,1.176-0.609
				c0.422,0,0.799,0.21,1.037,0.571c0.637,0.978,0.293,1.655-0.037,2.306c-0.179,0.353-1.824,3.372-5.842,3.372h-0.003
				c-0.655,0-1.346-0.084-2.058-0.25c-0.672-0.152-2.4-0.746-3.918-2.869c-1.046-1.472-2.712-4.728-2.404-10.304
				c-1.719,0.964-2.803,1.947-3.019,2.151l-0.007,0.003c-0.266,0.27-0.625,0.417-1.003,0.417
				C-538.591-39.215-538.955-39.365-539.23-39.644 M-546.011-39.05c0,9.353,7.519,16.934,16.796,16.934
				c9.275,0,16.796-7.581,16.796-16.934c0-9.354-7.521-16.937-16.796-16.937C-538.493-55.986-546.011-48.403-546.011-39.05"/>
		</defs>
		<clipPath id="SVGID_46_">
			<use xlink:href="#SVGID_45_"  overflow="visible"/>
		</clipPath>
		<g clip-path="url(#SVGID_46_)">
			<defs>
				<rect id="SVGID_47_" x="-719.328" y="-665.387" width="360" height="1083"/>
			</defs>
			<clipPath id="SVGID_48_">
				<use xlink:href="#SVGID_47_"  overflow="visible"/>
			</clipPath>
			<rect x="-551.011" y="-60.986" clip-path="url(#SVGID_48_)" fill="#E16B59" width="43.592" height="43.87"/>
		</g>
	</g>
	<g>
		<defs>
			<path id="SVGID_49_" d="M-539.23-39.644c-0.559-0.576-0.547-1.492,0.02-2.055c0.084-0.083,2.099-2.079,5.438-3.534
				c0.048-0.269,0.094-0.551,0.152-0.839l0.152-0.625c0.221-1.048,1.047-3.568,1.056-3.596c0.192-0.593,0.739-0.992,1.363-0.992
				c0.151,0,0.303,0.027,0.45,0.075c0.363,0.118,0.661,0.377,0.838,0.724c0.17,0.347,0.197,0.738,0.072,1.107
				c-0.186,0.562-0.715,2.228-0.924,3.097c2.307-0.538,4.662-0.591,6.977-0.161c0.779,0.141,1.297,0.896,1.154,1.684
				c-0.122,0.687-0.719,1.188-1.41,1.188c-0.086,0-0.174-0.006-0.261-0.023c-2.321-0.428-4.702-0.262-7.031,0.497
				c-0.715,6.036,0.969,8.935,1.734,9.907c0.714,0.906,1.304,1.507,2.037,1.718c0.516,0.144,1.003,0.219,1.462,0.219
				c2.244,0,3.266-1.794,3.65-2.47c0.072-0.13,0.121-0.216,0.172-0.281c0.293-0.377,0.73-0.609,1.174-0.609
				c0.424,0,0.8,0.211,1.037,0.573c0.639,0.978,0.297,1.654-0.035,2.306c-0.179,0.352-1.824,3.371-5.843,3.371h-0.001
				c-0.655,0-1.347-0.083-2.059-0.251c-0.672-0.15-2.4-0.746-3.917-2.867c-1.046-1.474-2.712-4.728-2.405-10.304
				c-1.72,0.962-2.803,1.945-3.018,2.15l-0.009,0.003c-0.265,0.27-0.624,0.416-1.003,0.416
				C-538.592-39.216-538.954-39.366-539.23-39.644z M-546.011-39.051c0,9.354,7.519,16.936,16.794,16.936
				c9.277,0,16.799-7.581,16.799-16.936c0-9.353-7.521-16.937-16.799-16.937C-538.493-55.987-546.011-48.403-546.011-39.051z"/>
		</defs>
		<clipPath id="SVGID_50_">
			<use xlink:href="#SVGID_49_"  overflow="visible"/>
		</clipPath>
		<g clip-path="url(#SVGID_50_)">
			<defs>
				<rect id="SVGID_51_" x="-719.328" y="-665.387" width="360" height="1083"/>
			</defs>
			<clipPath id="SVGID_52_">
				<use xlink:href="#SVGID_51_"  overflow="visible"/>
			</clipPath>
			<g clip-path="url(#SVGID_52_)" enable-background="new    ">
				<g>
					<defs>
						<rect id="SVGID_53_" x="-546.328" y="-56.387" width="34" height="35"/>
					</defs>
					<clipPath id="SVGID_54_">
						<use xlink:href="#SVGID_53_"  overflow="visible"/>
					</clipPath>
					<g clip-path="url(#SVGID_54_)">
						<defs>
							<rect id="SVGID_55_" x="-546.206" y="-57.077" width="34.877" height="36.437"/>
						</defs>
						<clipPath id="SVGID_56_">
							<use xlink:href="#SVGID_55_"  overflow="visible"/>
						</clipPath>
						<g clip-path="url(#SVGID_56_)">
							<defs>
								<rect id="SVGID_57_" x="-546.328" y="-56.387" width="34" height="35"/>
							</defs>
							<clipPath id="SVGID_58_">
								<use xlink:href="#SVGID_57_"  overflow="visible"/>
							</clipPath>
							<rect x="-551.206" y="-62.077" clip-path="url(#SVGID_58_)" fill="#B5F0FE" width="44.877" height="46.437"/>
						</g>
					</g>
					<g clip-path="url(#SVGID_54_)">
						<defs>
							<rect id="SVGID_59_" x="-553.751" y="-63.748" width="49.073" height="49.392"/>
						</defs>
						<clipPath id="SVGID_60_">
							<use xlink:href="#SVGID_59_"  overflow="visible"/>
						</clipPath>
						<g clip-path="url(#SVGID_60_)">
							<defs>
								<rect id="SVGID_61_" x="-546.328" y="-56.387" width="34" height="35"/>
							</defs>
							<clipPath id="SVGID_62_">
								<use xlink:href="#SVGID_61_"  overflow="visible"/>
							</clipPath>
							<rect x="-558.751" y="-68.748" clip-path="url(#SVGID_62_)" fill="#B5F0FE" width="59.073" height="59.392"/>
						</g>
					</g>
					<g clip-path="url(#SVGID_54_)">
						<defs>
							<rect id="SVGID_63_" x="-546.206" y="-57.077" width="34.877" height="36.437"/>
						</defs>
						<clipPath id="SVGID_64_">
							<use xlink:href="#SVGID_63_"  overflow="visible"/>
						</clipPath>
						<g clip-path="url(#SVGID_64_)">
							<defs>
								<rect id="SVGID_65_" x="-546.328" y="-56.387" width="34" height="35"/>
							</defs>
							<clipPath id="SVGID_66_">
								<use xlink:href="#SVGID_65_"  overflow="visible"/>
							</clipPath>
							<rect x="-551.206" y="-62.077" clip-path="url(#SVGID_66_)" fill="#B5F0FE" width="44.877" height="46.437"/>
						</g>
					</g>
					<g clip-path="url(#SVGID_54_)">
						<defs>
							<rect id="SVGID_67_" x="-561.678" y="-71.667" width="64.927" height="65.233"/>
						</defs>
						<clipPath id="SVGID_68_">
							<use xlink:href="#SVGID_67_"  overflow="visible"/>
						</clipPath>
						<g clip-path="url(#SVGID_68_)">
							<defs>
								<rect id="SVGID_69_" x="-546.328" y="-56.387" width="34" height="35"/>
							</defs>
							<clipPath id="SVGID_70_">
								<use xlink:href="#SVGID_69_"  overflow="visible"/>
							</clipPath>
							<rect x="-566.678" y="-76.667" clip-path="url(#SVGID_70_)" fill="#B5F0FE" width="74.927" height="75.233"/>
						</g>
					</g>
				</g>
			</g>
		</g>
	</g>
	<g>
		<defs>
			<path id="SVGID_71_" d="M-562.97-81.204c-0.557-0.575-0.549-1.491,0.018-2.055c0.084-0.084,2.101-2.079,5.443-3.533
				c0.044-0.269,0.09-0.551,0.148-0.839l0.154-0.625c0.219-1.049,1.044-3.57,1.055-3.596c0.191-0.594,0.739-0.993,1.362-0.993
				c0.15,0,0.304,0.028,0.452,0.074c0.361,0.12,0.66,0.379,0.835,0.724c0.171,0.348,0.198,0.74,0.076,1.107
				c-0.186,0.564-0.716,2.229-0.926,3.099c2.306-0.538,4.663-0.591,6.976-0.161c0.779,0.14,1.299,0.896,1.156,1.683
				c-0.125,0.688-0.719,1.188-1.41,1.188c-0.087,0-0.173-0.004-0.264-0.023c-2.32-0.428-4.701-0.26-7.029,0.497
				c-0.716,6.038,0.969,8.937,1.734,9.908c0.713,0.906,1.305,1.506,2.037,1.717c0.514,0.146,1.004,0.221,1.463,0.221
				c2.244,0,3.264-1.795,3.65-2.47c0.071-0.13,0.121-0.216,0.17-0.281c0.295-0.378,0.73-0.609,1.178-0.609
				c0.42,0,0.799,0.211,1.037,0.572c0.637,0.978,0.293,1.655-0.039,2.305c-0.179,0.354-1.822,3.373-5.842,3.373h-0.003
				c-0.654,0-1.346-0.084-2.058-0.251c-0.672-0.151-2.398-0.746-3.916-2.869c-1.047-1.472-2.712-4.727-2.404-10.303
				c-1.721,0.963-2.803,1.946-3.019,2.151l-0.007,0.003c-0.266,0.27-0.626,0.416-1.003,0.416
				C-562.333-80.775-562.695-80.926-562.97-81.204 M-569.751-80.61c0,9.354,7.52,16.934,16.795,16.934
				c9.277,0,16.798-7.58,16.798-16.934c0-9.353-7.521-16.937-16.798-16.937C-562.232-97.547-569.751-89.963-569.751-80.61"/>
		</defs>
		<clipPath id="SVGID_72_">
			<use xlink:href="#SVGID_71_"  overflow="visible"/>
		</clipPath>
		<g clip-path="url(#SVGID_72_)">
			<defs>
				<rect id="SVGID_73_" x="-719.328" y="-665.387" width="360" height="1083"/>
			</defs>
			<clipPath id="SVGID_74_">
				<use xlink:href="#SVGID_73_"  overflow="visible"/>
			</clipPath>
			<rect x="-574.751" y="-102.547" clip-path="url(#SVGID_74_)" fill="#E16B59" width="43.593" height="43.87"/>
		</g>
	</g>
	<g>
		<defs>
			<path id="SVGID_75_" d="M-562.968-81.204c-0.559-0.575-0.552-1.492,0.018-2.055c0.082-0.084,2.099-2.079,5.44-3.533
				c0.044-0.271,0.092-0.551,0.15-0.839l0.152-0.625c0.219-1.049,1.046-3.57,1.056-3.596c0.191-0.594,0.738-0.993,1.361-0.993
				c0.151,0,0.305,0.028,0.453,0.074c0.362,0.12,0.66,0.377,0.835,0.724c0.171,0.348,0.198,0.74,0.075,1.107
				c-0.185,0.564-0.716,2.229-0.926,3.099c2.306-0.538,4.663-0.591,6.977-0.161c0.779,0.14,1.298,0.896,1.155,1.683
				c-0.124,0.688-0.718,1.189-1.409,1.189c-0.086,0-0.173-0.008-0.264-0.025c-2.32-0.426-4.7-0.26-7.029,0.499
				c-0.717,6.036,0.969,8.935,1.734,9.906c0.712,0.906,1.305,1.506,2.039,1.717c0.512,0.146,1.002,0.221,1.46,0.221
				c2.247,0,3.265-1.795,3.651-2.47c0.07-0.13,0.121-0.218,0.17-0.281c0.295-0.378,0.73-0.609,1.178-0.609
				c0.42,0,0.799,0.211,1.036,0.572c0.638,0.978,0.295,1.655-0.036,2.305c-0.182,0.354-1.823,3.373-5.844,3.373h-0.002
				c-0.656,0-1.346-0.084-2.057-0.251c-0.673-0.151-2.399-0.746-3.918-2.869c-1.047-1.473-2.713-4.727-2.404-10.302
				c-1.721,0.962-2.803,1.945-3.021,2.15l-0.005,0.003c-0.266,0.27-0.625,0.416-1.004,0.416
				C-562.333-80.775-562.695-80.926-562.968-81.204z M-569.751-80.61c0,9.354,7.519,16.934,16.795,16.934
				c9.278,0,16.799-7.58,16.799-16.934c0-9.353-7.521-16.937-16.799-16.937C-562.233-97.547-569.751-89.963-569.751-80.61z"/>
		</defs>
		<clipPath id="SVGID_76_">
			<use xlink:href="#SVGID_75_"  overflow="visible"/>
		</clipPath>
		<g clip-path="url(#SVGID_76_)">
			<defs>
				<rect id="SVGID_77_" x="-719.328" y="-665.387" width="360" height="1083"/>
			</defs>
			<clipPath id="SVGID_78_">
				<use xlink:href="#SVGID_77_"  overflow="visible"/>
			</clipPath>
			<g clip-path="url(#SVGID_78_)" enable-background="new    ">
				<g>
					<defs>
						<rect id="SVGID_79_" x="-570.328" y="-98.387" width="35" height="35"/>
					</defs>
					<clipPath id="SVGID_80_">
						<use xlink:href="#SVGID_79_"  overflow="visible"/>
					</clipPath>
					<g clip-path="url(#SVGID_80_)">
						<defs>
							<rect id="SVGID_81_" x="-569.945" y="-98.637" width="34.876" height="36.437"/>
						</defs>
						<clipPath id="SVGID_82_">
							<use xlink:href="#SVGID_81_"  overflow="visible"/>
						</clipPath>
						<g clip-path="url(#SVGID_82_)">
							<defs>
								<rect id="SVGID_83_" x="-570.328" y="-98.387" width="35" height="35"/>
							</defs>
							<clipPath id="SVGID_84_">
								<use xlink:href="#SVGID_83_"  overflow="visible"/>
							</clipPath>
							<rect x="-574.945" y="-103.637" clip-path="url(#SVGID_84_)" fill="#B5F0FE" width="44.876" height="46.437"/>
						</g>
					</g>
					<g clip-path="url(#SVGID_80_)">
						<defs>
							<rect id="SVGID_85_" x="-577.492" y="-105.308" width="49.071" height="49.392"/>
						</defs>
						<clipPath id="SVGID_86_">
							<use xlink:href="#SVGID_85_"  overflow="visible"/>
						</clipPath>
						<g clip-path="url(#SVGID_86_)">
							<defs>
								<rect id="SVGID_87_" x="-570.328" y="-98.387" width="35" height="35"/>
							</defs>
							<clipPath id="SVGID_88_">
								<use xlink:href="#SVGID_87_"  overflow="visible"/>
							</clipPath>
							<rect x="-582.492" y="-110.308" clip-path="url(#SVGID_88_)" fill="#B5F0FE" width="59.071" height="59.392"/>
						</g>
					</g>
					<g clip-path="url(#SVGID_80_)">
						<defs>
							<rect id="SVGID_89_" x="-569.945" y="-98.637" width="34.876" height="36.437"/>
						</defs>
						<clipPath id="SVGID_90_">
							<use xlink:href="#SVGID_89_"  overflow="visible"/>
						</clipPath>
						<g clip-path="url(#SVGID_90_)">
							<defs>
								<rect id="SVGID_91_" x="-570.328" y="-98.387" width="35" height="35"/>
							</defs>
							<clipPath id="SVGID_92_">
								<use xlink:href="#SVGID_91_"  overflow="visible"/>
							</clipPath>
							<rect x="-574.945" y="-103.637" clip-path="url(#SVGID_92_)" fill="#B5F0FE" width="44.876" height="46.437"/>
						</g>
					</g>
					<g clip-path="url(#SVGID_80_)">
						<defs>
							<rect id="SVGID_93_" x="-585.417" y="-113.229" width="64.926" height="65.233"/>
						</defs>
						<clipPath id="SVGID_94_">
							<use xlink:href="#SVGID_93_"  overflow="visible"/>
						</clipPath>
						<g clip-path="url(#SVGID_94_)">
							<defs>
								<rect id="SVGID_95_" x="-570.328" y="-98.387" width="35" height="35"/>
							</defs>
							<clipPath id="SVGID_96_">
								<use xlink:href="#SVGID_95_"  overflow="visible"/>
							</clipPath>
							<rect x="-590.417" y="-118.229" clip-path="url(#SVGID_96_)" fill="#B5F0FE" width="74.926" height="75.233"/>
						</g>
					</g>
				</g>
			</g>
		</g>
	</g>
	<g>
		<defs>
			<path id="SVGID_97_" d="M-585.164-33.58c-0.557-0.574-0.547-1.49,0.019-2.055c0.084-0.084,2.099-2.078,5.44-3.532
				c0.047-0.27,0.092-0.552,0.15-0.84l0.152-0.624c0.221-1.049,1.047-3.57,1.057-3.596c0.191-0.595,0.74-0.994,1.363-0.994
				c0.15,0,0.303,0.029,0.451,0.075c0.361,0.12,0.66,0.378,0.836,0.724c0.17,0.347,0.197,0.74,0.074,1.107
				c-0.186,0.563-0.715,2.229-0.926,3.099c2.307-0.539,4.662-0.591,6.977-0.161c0.779,0.139,1.299,0.896,1.156,1.682
				c-0.124,0.688-0.72,1.188-1.411,1.188c-0.087,0-0.173-0.005-0.262-0.023c-2.321-0.428-4.702-0.26-7.029,0.497
				c-0.716,6.037,0.969,8.937,1.733,9.907c0.711,0.906,1.305,1.507,2.037,1.718c0.515,0.146,1.003,0.22,1.461,0.22
				c2.245,0,3.266-1.795,3.652-2.47c0.072-0.13,0.119-0.215,0.17-0.28c0.293-0.379,0.73-0.609,1.176-0.609
				c0.422,0,0.8,0.21,1.037,0.571c0.638,0.978,0.293,1.655-0.036,2.306c-0.179,0.353-1.825,3.372-5.842,3.372h-0.003
				c-0.654,0-1.346-0.084-2.059-0.25c-0.672-0.152-2.399-0.746-3.916-2.869c-1.047-1.472-2.713-4.728-2.406-10.304
				c-1.718,0.964-2.803,1.947-3.018,2.151l-0.006,0.003c-0.268,0.27-0.627,0.417-1.004,0.417
				C-584.525-33.15-584.888-33.301-585.164-33.58 M-591.945-32.985c0,9.353,7.518,16.934,16.795,16.934
				c9.275,0,16.797-7.581,16.797-16.934c0-9.354-7.521-16.937-16.797-16.937C-584.427-49.922-591.945-42.339-591.945-32.985"/>
		</defs>
		<clipPath id="SVGID_98_">
			<use xlink:href="#SVGID_97_"  overflow="visible"/>
		</clipPath>
		<g clip-path="url(#SVGID_98_)">
			<defs>
				<rect id="SVGID_99_" x="-719.328" y="-665.387" width="360" height="1083"/>
			</defs>
			<clipPath id="SVGID_100_">
				<use xlink:href="#SVGID_99_"  overflow="visible"/>
			</clipPath>
			<rect x="-596.945" y="-54.922" clip-path="url(#SVGID_100_)" fill="#E16B59" width="43.592" height="43.87"/>
		</g>
	</g>
	<g>
		<defs>
			<path id="SVGID_101_" d="M-585.165-33.58c-0.556-0.574-0.547-1.491,0.019-2.055c0.084-0.083,2.1-2.079,5.441-3.533
				c0.047-0.27,0.092-0.55,0.15-0.838l0.154-0.626c0.219-1.049,1.045-3.57,1.056-3.595c0.19-0.594,0.739-0.993,1.361-0.993
				c0.152,0,0.304,0.028,0.452,0.073c0.361,0.122,0.659,0.379,0.836,0.726c0.17,0.346,0.197,0.739,0.074,1.107
				c-0.186,0.562-0.715,2.228-0.924,3.097c2.305-0.538,4.662-0.591,6.977-0.161c0.778,0.14,1.297,0.898,1.154,1.684
				c-0.124,0.688-0.721,1.188-1.411,1.188c-0.087,0-0.173-0.007-0.261-0.025c-2.322-0.428-4.703-0.259-7.03,0.497
				c-0.716,6.037,0.968,8.938,1.732,9.909c0.714,0.906,1.306,1.507,2.038,1.718c0.515,0.146,1.004,0.22,1.463,0.22
				c2.242,0,3.264-1.795,3.65-2.47c0.071-0.13,0.119-0.217,0.172-0.282c0.291-0.377,0.73-0.609,1.174-0.609
				c0.424,0,0.799,0.211,1.037,0.571c0.637,0.979,0.295,1.656-0.036,2.307c-0.178,0.354-1.825,3.373-5.843,3.373h-0.002
				c-0.655,0-1.347-0.084-2.059-0.25c-0.672-0.154-2.4-0.746-3.916-2.869c-1.047-1.474-2.712-4.729-2.406-10.304
				c-1.719,0.962-2.801,1.947-3.018,2.151l-0.008,0.002c-0.266,0.269-0.625,0.418-1.002,0.418
				C-584.525-33.149-584.888-33.3-585.165-33.58z M-591.945-32.984c0,9.353,7.52,16.933,16.795,16.933s16.797-7.58,16.797-16.933
				c0-9.354-7.521-16.938-16.797-16.938S-591.945-42.338-591.945-32.984z"/>
		</defs>
		<clipPath id="SVGID_102_">
			<use xlink:href="#SVGID_101_"  overflow="visible"/>
		</clipPath>
		<g clip-path="url(#SVGID_102_)">
			<defs>
				<rect id="SVGID_103_" x="-719.328" y="-665.387" width="360" height="1083"/>
			</defs>
			<clipPath id="SVGID_104_">
				<use xlink:href="#SVGID_103_"  overflow="visible"/>
			</clipPath>
			<g clip-path="url(#SVGID_104_)" enable-background="new    ">
				<g>
					<defs>
						<rect id="SVGID_105_" x="-592.328" y="-50.387" width="34" height="35"/>
					</defs>
					<clipPath id="SVGID_106_">
						<use xlink:href="#SVGID_105_"  overflow="visible"/>
					</clipPath>
					<g clip-path="url(#SVGID_106_)">
						<defs>
							<rect id="SVGID_107_" x="-592.14" y="-51.011" width="34.877" height="36.436"/>
						</defs>
						<clipPath id="SVGID_108_">
							<use xlink:href="#SVGID_107_"  overflow="visible"/>
						</clipPath>
						<g clip-path="url(#SVGID_108_)">
							<defs>
								<rect id="SVGID_109_" x="-592.328" y="-50.387" width="34" height="35"/>
							</defs>
							<clipPath id="SVGID_110_">
								<use xlink:href="#SVGID_109_"  overflow="visible"/>
							</clipPath>
							<rect x="-597.14" y="-56.011" clip-path="url(#SVGID_110_)" fill="#B5F0FE" width="44.877" height="46.436"/>
						</g>
					</g>
				</g>
			</g>
		</g>
	</g>
	<g>
		<defs>
			<rect id="SVGID_111_" x="-719.328" y="-665.387" width="360" height="1083"/>
		</defs>
		<clipPath id="SVGID_112_">
			<use xlink:href="#SVGID_111_"  overflow="visible"/>
		</clipPath>
		
			<line clip-path="url(#SVGID_112_)" fill="none" stroke="#8797AA" stroke-width="2" stroke-linecap="round" stroke-miterlimit="10" x1="-571.339" y1="22.851" x2="-571.339" y2="-19.096"/>
		
			<line clip-path="url(#SVGID_112_)" fill="none" stroke="#8797AA" stroke-width="2" stroke-linecap="round" stroke-miterlimit="10" x1="-526.594" y1="22.851" x2="-526.594" y2="-27.39"/>
		
			<line clip-path="url(#SVGID_112_)" fill="none" stroke="#8797AA" stroke-width="2" stroke-linecap="round" stroke-miterlimit="10" x1="-503.919" y1="22.709" x2="-503.919" y2="-52.415"/>
		
			<line clip-path="url(#SVGID_112_)" fill="none" stroke="#8797AA" stroke-width="2" stroke-linecap="round" stroke-miterlimit="10" x1="-549.117" y1="23.538" x2="-549.117" y2="-66.516"/>
	</g>
	<g>
		<defs>
			<path id="SVGID_113_" d="M-490.77,19.28h-87.22c-2.977,0-5.391,2.435-5.391,5.44v12.541c0,3.004,2.414,5.436,5.391,5.436h1.031
				l8.047,60.393h69.06l8.049-60.393h1.033c2.977,0,5.388-2.432,5.388-5.436V24.721C-485.382,21.715-487.793,19.28-490.77,19.28"/>
		</defs>
		<clipPath id="SVGID_114_">
			<use xlink:href="#SVGID_113_"  overflow="visible"/>
		</clipPath>
		<g clip-path="url(#SVGID_114_)">
			<defs>
				<rect id="SVGID_115_" x="-719.328" y="-665.387" width="360" height="1083"/>
			</defs>
			<clipPath id="SVGID_116_">
				<use xlink:href="#SVGID_115_"  overflow="visible"/>
			</clipPath>
			<rect x="-588.38" y="14.28" clip-path="url(#SVGID_116_)" fill="#F3D16A" width="107.998" height="93.809"/>
		</g>
	</g>
	<g>
		<defs>
			<path id="SVGID_117_" d="M-577.99,19.28c-2.975,0-5.391,2.436-5.391,5.439v12.542c0,3.004,2.416,5.436,5.391,5.436h1.031
				l8.047,60.395h69.061l8.048-60.395h1.035c2.974,0,5.387-2.432,5.387-5.436V24.72c0-3.004-2.413-5.439-5.387-5.439H-577.99z"/>
		</defs>
		<clipPath id="SVGID_118_">
			<use xlink:href="#SVGID_117_"  overflow="visible"/>
		</clipPath>
		<g clip-path="url(#SVGID_118_)">
			<defs>
				<rect id="SVGID_119_" x="-719.328" y="-665.387" width="360" height="1083"/>
			</defs>
			<clipPath id="SVGID_120_">
				<use xlink:href="#SVGID_119_"  overflow="visible"/>
			</clipPath>
			<g clip-path="url(#SVGID_120_)" enable-background="new    ">
				<g>
					<defs>
						<rect id="SVGID_121_" x="-584.328" y="18.613" width="99" height="85"/>
					</defs>
					<clipPath id="SVGID_122_">
						<use xlink:href="#SVGID_121_"  overflow="visible"/>
					</clipPath>
					<g clip-path="url(#SVGID_122_)">
						<defs>
							<rect id="SVGID_123_" x="-591.306" y="11.359" width="113.851" height="99.652"/>
						</defs>
						<clipPath id="SVGID_124_">
							<use xlink:href="#SVGID_123_"  overflow="visible"/>
						</clipPath>
						<g clip-path="url(#SVGID_124_)">
							<defs>
								<rect id="SVGID_125_" x="-584.328" y="18.613" width="99" height="85"/>
							</defs>
							<clipPath id="SVGID_126_">
								<use xlink:href="#SVGID_125_"  overflow="visible"/>
							</clipPath>
							<rect x="-596.306" y="6.359" clip-path="url(#SVGID_126_)" fill="#B5F0FE" width="123.851" height="109.652"/>
						</g>
					</g>
				</g>
			</g>
		</g>
	</g>
	<g>
		<defs>
			<path id="SVGID_127_" d="M-485.268,37.197c0,3.002-2.415,5.436-5.388,5.436h-87.219c-2.979,0-5.394-2.434-5.394-5.436V24.653
				c0-3.002,2.415-5.438,5.394-5.438h87.219c2.973,0,5.388,2.436,5.388,5.438V37.197z"/>
		</defs>
		<clipPath id="SVGID_128_">
			<use xlink:href="#SVGID_127_"  overflow="visible"/>
		</clipPath>
		<g clip-path="url(#SVGID_128_)">
			<defs>
				<rect id="SVGID_129_" x="-719.328" y="-665.387" width="360" height="1083"/>
			</defs>
			<clipPath id="SVGID_130_">
				<use xlink:href="#SVGID_129_"  overflow="visible"/>
			</clipPath>
			<rect x="-588.268" y="14.216" clip-path="url(#SVGID_130_)" fill="#99CCE4" width="108" height="33.417"/>
		</g>
	</g>
	<g>
		<defs>
			<rect id="SVGID_131_" x="-719.328" y="-665.387" width="360" height="1083"/>
		</defs>
		<clipPath id="SVGID_132_">
			<use xlink:href="#SVGID_131_"  overflow="visible"/>
		</clipPath>
		
			<polyline clip-path="url(#SVGID_132_)" fill="none" stroke="#8797AA" stroke-width="2" stroke-linecap="round" stroke-miterlimit="10" points="
			-496.408,45.5 -504.497,106.197 -573.554,106.197 -581.642,45.5 		"/>
		
			<path clip-path="url(#SVGID_132_)" fill="none" stroke="#8797AA" stroke-width="2" stroke-linecap="round" stroke-miterlimit="10" d="
			M-490.026,40.367c0,3.002-2.415,5.434-5.387,5.434h-87.22c-2.979,0-5.392-2.432-5.392-5.434V27.823
			c0-3.004,2.413-5.438,5.392-5.438h87.22c2.972,0,5.387,2.434,5.387,5.438V40.367z"/>
		
			<line clip-path="url(#SVGID_132_)" fill="none" stroke="#8797AA" stroke-width="2" stroke-linecap="round" stroke-miterlimit="10" x1="-575.371" y1="90.052" x2="-651.998" y2="90.052"/>
		
			<line clip-path="url(#SVGID_132_)" fill="none" stroke="#8797AA" stroke-width="2" stroke-linecap="round" stroke-miterlimit="10" x1="-658.445" y1="90.052" x2="-675.328" y2="90.052"/>
		
			<line clip-path="url(#SVGID_132_)" fill="none" stroke="#8797AA" stroke-width="2" stroke-linecap="round" stroke-miterlimit="10" x1="-405.453" y1="90.052" x2="-443.473" y2="90.052"/>
		
			<line clip-path="url(#SVGID_132_)" fill="none" stroke="#8797AA" stroke-width="2" stroke-linecap="round" stroke-miterlimit="10" x1="-449.602" y1="90.052" x2="-501.614" y2="90.052"/>
	</g>
	<g>
		<defs>
			<path id="SVGID_133_" d="M-581.353-32.559c-0.557-0.575-0.547-1.49,0.02-2.055c0.084-0.084,2.099-2.078,5.441-3.533
				c0.045-0.269,0.092-0.551,0.15-0.839l0.152-0.624c0.22-1.049,1.046-3.571,1.055-3.597c0.192-0.594,0.74-0.993,1.363-0.993
				c0.151,0,0.303,0.028,0.453,0.074c0.361,0.12,0.658,0.379,0.835,0.725c0.169,0.347,0.198,0.739,0.074,1.107
				c-0.186,0.563-0.715,2.229-0.926,3.098c2.307-0.538,4.663-0.591,6.978-0.161c0.777,0.14,1.298,0.896,1.155,1.683
				c-0.124,0.688-0.72,1.188-1.411,1.188c-0.087,0-0.173-0.005-0.262-0.024c-2.32-0.428-4.701-0.26-7.029,0.498
				c-0.717,6.037,0.969,8.936,1.732,9.907c0.713,0.906,1.305,1.507,2.037,1.717c0.516,0.146,1.004,0.221,1.463,0.221
				c2.244,0,3.266-1.795,3.652-2.47c0.07-0.13,0.119-0.216,0.17-0.28c0.293-0.379,0.73-0.61,1.176-0.61
				c0.422,0,0.799,0.211,1.037,0.572c0.637,0.978,0.293,1.655-0.037,2.305c-0.18,0.354-1.824,3.373-5.842,3.373h-0.003
				c-0.655,0-1.347-0.084-2.058-0.251c-0.672-0.151-2.4-0.746-3.918-2.868c-1.046-1.472-2.712-4.728-2.404-10.304
				c-1.719,0.963-2.803,1.946-3.019,2.151l-0.007,0.003c-0.266,0.27-0.626,0.417-1.003,0.417
				C-580.714-32.129-581.077-32.28-581.353-32.559 M-588.132-31.965c0,9.354,7.518,16.934,16.794,16.934s16.797-7.58,16.797-16.934
				c0-9.353-7.521-16.937-16.797-16.937S-588.132-41.317-588.132-31.965"/>
		</defs>
		<clipPath id="SVGID_134_">
			<use xlink:href="#SVGID_133_"  overflow="visible"/>
		</clipPath>
		<g clip-path="url(#SVGID_134_)">
			<defs>
				<rect id="SVGID_135_" x="-719.328" y="-665.387" width="360" height="1083"/>
			</defs>
			<clipPath id="SVGID_136_">
				<use xlink:href="#SVGID_135_"  overflow="visible"/>
			</clipPath>
			<rect x="-593.132" y="-53.901" clip-path="url(#SVGID_136_)" fill="#8797AA" width="43.591" height="43.87"/>
		</g>
	</g>
	<g>
		<defs>
			<path id="SVGID_137_" d="M-559.132-83.437c-0.557-0.575-0.547-1.491,0.02-2.055c0.084-0.084,2.099-2.079,5.441-3.533
				c0.045-0.269,0.092-0.551,0.15-0.839l0.152-0.625c0.22-1.049,1.046-3.57,1.055-3.596c0.192-0.594,0.74-0.993,1.363-0.993
				c0.151,0,0.303,0.028,0.453,0.074c0.361,0.12,0.658,0.379,0.835,0.724c0.169,0.348,0.198,0.74,0.074,1.107
				c-0.186,0.564-0.715,2.229-0.926,3.099c2.307-0.538,4.663-0.591,6.978-0.161c0.777,0.14,1.298,0.896,1.155,1.683
				c-0.124,0.688-0.72,1.188-1.411,1.188c-0.087,0-0.173-0.004-0.262-0.023c-2.32-0.428-4.701-0.26-7.029,0.497
				c-0.717,6.038,0.969,8.937,1.732,9.908c0.713,0.906,1.305,1.506,2.037,1.717c0.516,0.146,1.004,0.221,1.463,0.221
				c2.244,0,3.266-1.795,3.652-2.47c0.07-0.13,0.119-0.216,0.169-0.281c0.294-0.378,0.731-0.609,1.177-0.609
				c0.422,0,0.799,0.211,1.037,0.572c0.637,0.977,0.293,1.655-0.037,2.305c-0.18,0.354-1.824,3.373-5.842,3.373h-0.003
				c-0.655,0-1.347-0.084-2.058-0.251c-0.672-0.152-2.4-0.746-3.918-2.869c-1.046-1.472-2.712-4.727-2.404-10.303
				c-1.719,0.963-2.803,1.946-3.019,2.151l-0.007,0.003c-0.266,0.27-0.626,0.416-1.003,0.416
				C-558.494-83.008-558.856-83.158-559.132-83.437 M-565.912-82.843c0,9.354,7.518,16.934,16.794,16.934s16.797-7.58,16.797-16.934
				c0-9.353-7.521-16.937-16.797-16.937S-565.912-92.195-565.912-82.843"/>
		</defs>
		<clipPath id="SVGID_138_">
			<use xlink:href="#SVGID_137_"  overflow="visible"/>
		</clipPath>
		<g clip-path="url(#SVGID_138_)">
			<defs>
				<rect id="SVGID_139_" x="-719.328" y="-665.387" width="360" height="1083"/>
			</defs>
			<clipPath id="SVGID_140_">
				<use xlink:href="#SVGID_139_"  overflow="visible"/>
			</clipPath>
			<rect x="-570.912" y="-104.779" clip-path="url(#SVGID_140_)" fill="#8797AA" width="43.591" height="43.87"/>
		</g>
	</g>
	<g>
		<defs>
			<path id="SVGID_141_" d="M-536.059-39.644c-0.557-0.575-0.547-1.491,0.019-2.055c0.084-0.085,2.099-2.079,5.44-3.533
				c0.047-0.27,0.092-0.552,0.15-0.84l0.152-0.624c0.221-1.049,1.047-3.57,1.057-3.596c0.191-0.595,0.74-0.993,1.363-0.993
				c0.15,0,0.303,0.028,0.451,0.074c0.361,0.12,0.66,0.378,0.836,0.724c0.17,0.347,0.197,0.74,0.074,1.107
				c-0.186,0.564-0.715,2.229-0.926,3.099c2.307-0.538,4.662-0.591,6.977-0.161c0.779,0.139,1.299,0.896,1.156,1.682
				c-0.124,0.688-0.72,1.188-1.411,1.188c-0.087,0-0.173-0.005-0.262-0.023c-2.321-0.428-4.702-0.26-7.029,0.497
				c-0.716,6.037,0.969,8.937,1.733,9.907c0.711,0.906,1.305,1.507,2.037,1.718c0.515,0.146,1.003,0.22,1.461,0.22
				c2.245,0,3.266-1.795,3.652-2.47c0.072-0.13,0.119-0.215,0.17-0.28c0.293-0.379,0.73-0.609,1.176-0.609
				c0.422,0,0.8,0.21,1.037,0.571c0.638,0.978,0.293,1.655-0.036,2.306c-0.179,0.353-1.825,3.372-5.842,3.372h-0.003
				c-0.654,0-1.346-0.084-2.059-0.25c-0.672-0.152-2.399-0.746-3.917-2.869c-1.046-1.472-2.712-4.728-2.405-10.304
				c-1.718,0.964-2.803,1.947-3.018,2.151l-0.007,0.003c-0.267,0.27-0.626,0.417-1.003,0.417
				C-535.42-39.215-535.784-39.365-536.059-39.644 M-542.839-39.05c0,9.353,7.517,16.934,16.794,16.934
				c9.275,0,16.797-7.581,16.797-16.934c0-9.354-7.521-16.937-16.797-16.937C-535.323-55.986-542.839-48.403-542.839-39.05"/>
		</defs>
		<clipPath id="SVGID_142_">
			<use xlink:href="#SVGID_141_"  overflow="visible"/>
		</clipPath>
		<g clip-path="url(#SVGID_142_)">
			<defs>
				<rect id="SVGID_143_" x="-719.328" y="-665.387" width="360" height="1083"/>
			</defs>
			<clipPath id="SVGID_144_">
				<use xlink:href="#SVGID_143_"  overflow="visible"/>
			</clipPath>
			<rect x="-547.839" y="-60.986" clip-path="url(#SVGID_144_)" fill="#8797AA" width="43.591" height="43.87"/>
		</g>
	</g>
	<g>
		<defs>
			<path id="SVGID_145_" d="M-512.35-71.254c-0.557-0.574-0.547-1.49,0.02-2.055c0.084-0.084,2.099-2.078,5.44-3.532
				c0.046-0.27,0.093-0.552,0.151-0.84l0.152-0.624c0.22-1.049,1.045-3.571,1.055-3.596c0.192-0.595,0.74-0.994,1.363-0.994
				c0.151,0,0.303,0.029,0.452,0.075c0.362,0.12,0.659,0.378,0.835,0.724c0.17,0.347,0.199,0.74,0.075,1.107
				c-0.186,0.563-0.715,2.229-0.926,3.099c2.307-0.539,4.663-0.591,6.978-0.161c0.777,0.139,1.298,0.896,1.155,1.682
				c-0.124,0.688-0.72,1.188-1.411,1.188c-0.088,0-0.173-0.005-0.262-0.023c-2.32-0.428-4.701-0.26-7.029,0.497
				c-0.717,6.037,0.969,8.937,1.732,9.907c0.713,0.906,1.305,1.507,2.037,1.718c0.516,0.146,1.004,0.22,1.463,0.22
				c2.244,0,3.266-1.795,3.652-2.47c0.07-0.13,0.118-0.215,0.169-0.28c0.294-0.379,0.731-0.609,1.177-0.609
				c0.422,0,0.799,0.21,1.037,0.571c0.637,0.978,0.293,1.655-0.037,2.305c-0.18,0.354-1.824,3.373-5.842,3.373h-0.004
				c-0.654,0-1.346-0.084-2.057-0.25c-0.672-0.152-2.4-0.746-3.918-2.869c-1.046-1.472-2.713-4.728-2.404-10.304
				c-1.719,0.964-2.803,1.947-3.02,2.151l-0.006,0.003c-0.266,0.27-0.626,0.417-1.004,0.417
				C-511.711-70.824-512.074-70.975-512.35-71.254 M-519.13-70.659c0,9.353,7.519,16.934,16.795,16.934s16.796-7.581,16.796-16.934
				c0-9.354-7.52-16.937-16.796-16.937S-519.13-80.013-519.13-70.659"/>
		</defs>
		<clipPath id="SVGID_146_">
			<use xlink:href="#SVGID_145_"  overflow="visible"/>
		</clipPath>
		<g clip-path="url(#SVGID_146_)">
			<defs>
				<rect id="SVGID_147_" x="-719.328" y="-665.387" width="360" height="1083"/>
			</defs>
			<clipPath id="SVGID_148_">
				<use xlink:href="#SVGID_147_"  overflow="visible"/>
			</clipPath>
			<rect x="-524.13" y="-92.596" clip-path="url(#SVGID_148_)" fill="#8797AA" width="43.591" height="43.87"/>
		</g>
	</g>
	<g>
		<defs>
			<rect id="SVGID_149_" x="-719.328" y="-665.387" width="360" height="1083"/>
		</defs>
		<clipPath id="SVGID_150_">
			<use xlink:href="#SVGID_149_"  overflow="visible"/>
		</clipPath>
		<path clip-path="url(#SVGID_150_)" fill="none" stroke="#8797AA" stroke-miterlimit="10" d="M-453.298-128.013h-32.745
			c-2.893,0-5.238,2.345-5.238,5.236v13.088c0,2.892,2.346,5.235,5.238,5.235h3.115l3.902,5.179l3.9-5.179h21.827
			c2.894,0,5.239-2.344,5.239-5.235v-13.088C-448.059-125.668-450.405-128.013-453.298-128.013z"/>
		<g clip-path="url(#SVGID_150_)">
			<text transform="matrix(1 0 0 1 -483.189 -112.6055)" fill="#8797AA" font-family="'Lato-Regular'" font-size="10">TEEM</text>
		</g>
		<path clip-path="url(#SVGID_150_)" fill="none" stroke="#8797AA" stroke-miterlimit="10" d="M-597.328-43.115l-5.202-3.912
			c-0.242-2.652-2.446-4.736-5.163-4.736h-32.568c-2.878,0-5.211,2.332-5.211,5.207v13.019c0,2.876,2.333,5.207,5.211,5.207h32.568
			c2.879,0,5.211-2.331,5.211-5.207v-5.699L-597.328-43.115z"/>
		<g clip-path="url(#SVGID_150_)">
			<text transform="matrix(1 0 0 1 -637.3789 -37.3564)" fill="#8797AA" font-family="'Lato-Regular'" font-size="10">TEEM</text>
		</g>
	</g>
	<g>
		<defs>
			<path id="SVGID_151_" d="M-503.342,76.164c0,3.467-2.814,6.279-6.285,6.279h-53.416c-3.47,0-6.284-2.812-6.284-6.279v-17.27
				c0-3.469,2.814-6.281,6.284-6.281h53.416c3.471,0,6.285,2.812,6.285,6.281V76.164z"/>
		</defs>
		<clipPath id="SVGID_152_">
			<use xlink:href="#SVGID_151_"  overflow="visible"/>
		</clipPath>
		<g clip-path="url(#SVGID_152_)">
			<defs>
				<rect id="SVGID_153_" x="-719.328" y="-665.387" width="360" height="1083"/>
			</defs>
			<clipPath id="SVGID_154_">
				<use xlink:href="#SVGID_153_"  overflow="visible"/>
			</clipPath>
			<rect x="-574.328" y="47.613" clip-path="url(#SVGID_154_)" fill="#FFFFFF" width="75.985" height="39.83"/>
		</g>
	</g>
	<g>
		<defs>
			<circle id="SVGID_155_" cx="77.211" cy="90.026" r="60"/>
		</defs>
		<clipPath id="SVGID_156_">
			<use xlink:href="#SVGID_155_"  overflow="visible"/>
		</clipPath>
		<g clip-path="url(#SVGID_156_)">
			<defs>
				<rect id="SVGID_157_" x="-102.789" y="-390.975" width="360" height="640"/>
			</defs>
			<clipPath id="SVGID_158_">
				<use xlink:href="#SVGID_157_"  overflow="visible"/>
			</clipPath>
			<rect x="12.211" y="25.026" clip-path="url(#SVGID_158_)" fill="#F0F6F8" width="130" height="130"/>
		</g>
	</g>
	<g>
		<defs>
			<path id="SVGID_159_" d="M105.363,74.354c0,17.459-14.194,31.609-31.704,31.609c-17.511,0-31.706-14.15-31.706-31.609
				s14.195-31.609,31.706-31.609C91.169,42.745,105.363,56.895,105.363,74.354"/>
		</defs>
		<clipPath id="SVGID_160_">
			<use xlink:href="#SVGID_159_"  overflow="visible"/>
		</clipPath>
		<g clip-path="url(#SVGID_160_)">
			<defs>
				<rect id="SVGID_161_" x="-102.789" y="-390.975" width="360" height="640"/>
			</defs>
			<clipPath id="SVGID_162_">
				<use xlink:href="#SVGID_161_"  overflow="visible"/>
			</clipPath>
			<rect x="36.953" y="37.745" clip-path="url(#SVGID_162_)" fill="#D9DFE4" width="73.41" height="73.219"/>
		</g>
	</g>
	<g>
		<defs>
			<path id="SVGID_163_" d="M90.413,74.354c0,8.592-6.986,15.557-15.604,15.557c-8.617,0-15.605-6.965-15.605-15.557
				s6.988-15.559,15.605-15.559C83.427,58.795,90.413,65.762,90.413,74.354"/>
		</defs>
		<clipPath id="SVGID_164_">
			<use xlink:href="#SVGID_163_"  overflow="visible"/>
		</clipPath>
		<g clip-path="url(#SVGID_164_)">
			<defs>
				<rect id="SVGID_165_" x="-102.789" y="-390.975" width="360" height="640"/>
			</defs>
			<clipPath id="SVGID_166_">
				<use xlink:href="#SVGID_165_"  overflow="visible"/>
			</clipPath>
			<rect x="54.203" y="53.795" clip-path="url(#SVGID_166_)" fill="#80CBBD" width="41.21" height="41.115"/>
		</g>
	</g>
	<g>
		<defs>
			<path id="SVGID_167_" d="M50.004,58.85c0,1.512-1.229,2.738-2.747,2.738c-1.517,0-2.747-1.227-2.747-2.738
				c0-1.514,1.23-2.74,2.747-2.74C48.774,56.11,50.004,57.336,50.004,58.85"/>
		</defs>
		<clipPath id="SVGID_168_">
			<use xlink:href="#SVGID_167_"  overflow="visible"/>
		</clipPath>
		<g clip-path="url(#SVGID_168_)">
			<defs>
				<rect id="SVGID_169_" x="-102.789" y="-390.975" width="360" height="640"/>
			</defs>
			<clipPath id="SVGID_170_">
				<use xlink:href="#SVGID_169_"  overflow="visible"/>
			</clipPath>
			<rect x="39.51" y="51.11" clip-path="url(#SVGID_170_)" fill="#B4EFFD" width="15.494" height="15.479"/>
		</g>
	</g>
	<g>
		<defs>
			<path id="SVGID_171_" d="M43.104,48.292c0,2.91-2.367,5.271-5.287,5.271s-5.287-2.361-5.287-5.271
				c0-2.912,2.367-5.273,5.287-5.273S43.104,45.379,43.104,48.292"/>
		</defs>
		<clipPath id="SVGID_172_">
			<use xlink:href="#SVGID_171_"  overflow="visible"/>
		</clipPath>
		<g clip-path="url(#SVGID_172_)">
			<defs>
				<rect id="SVGID_173_" x="-102.789" y="-390.975" width="360" height="640"/>
			</defs>
			<clipPath id="SVGID_174_">
				<use xlink:href="#SVGID_173_"  overflow="visible"/>
			</clipPath>
			<rect x="27.529" y="38.018" clip-path="url(#SVGID_174_)" fill="#B4EFFD" width="20.574" height="20.545"/>
		</g>
	</g>
	<g>
		<defs>
			<path id="SVGID_175_" d="M54.604,32.051c0,3.648-2.965,6.605-6.625,6.605c-3.658,0-6.625-2.957-6.625-6.605
				s2.967-6.605,6.625-6.605C51.639,25.446,54.604,28.403,54.604,32.051"/>
		</defs>
		<clipPath id="SVGID_176_">
			<use xlink:href="#SVGID_175_"  overflow="visible"/>
		</clipPath>
		<g clip-path="url(#SVGID_176_)">
			<defs>
				<rect id="SVGID_177_" x="-102.789" y="-390.975" width="360" height="640"/>
			</defs>
			<clipPath id="SVGID_178_">
				<use xlink:href="#SVGID_177_"  overflow="visible"/>
			</clipPath>
			<rect x="36.354" y="20.446" clip-path="url(#SVGID_178_)" fill="#B4EFFD" width="23.25" height="23.211"/>
		</g>
	</g>
	<g>
		<defs>
			<path id="SVGID_179_" d="M77.167,93.702c-9.699,0-17.586-7.869-17.586-17.535c0-9.668,7.887-17.535,17.586-17.535
				c9.695,0,17.585,7.867,17.585,17.535C94.752,85.833,86.862,93.702,77.167,93.702 M77.167,61.329
				c-8.206,0-14.881,6.658-14.881,14.838c0,8.182,6.675,14.838,14.881,14.838c8.204,0,14.879-6.656,14.879-14.838
				C92.046,67.987,85.371,61.329,77.167,61.329"/>
		</defs>
		<clipPath id="SVGID_180_">
			<use xlink:href="#SVGID_179_"  overflow="visible"/>
		</clipPath>
		<g clip-path="url(#SVGID_180_)">
			<defs>
				<rect id="SVGID_181_" x="-102.789" y="-390.975" width="360" height="640"/>
			</defs>
			<clipPath id="SVGID_182_">
				<use xlink:href="#SVGID_181_"  overflow="visible"/>
			</clipPath>
			<rect x="54.581" y="53.631" clip-path="url(#SVGID_182_)" fill="#8696A9" width="45.171" height="45.07"/>
		</g>
	</g>
	<g>
		<defs>
			<path id="SVGID_183_" d="M88.104,77.756c-0.83,0-1.504-0.67-1.504-1.498c0-5.236-4.273-9.498-9.528-9.498
				c-0.829,0-1.502-0.67-1.502-1.496c0-0.828,0.673-1.5,1.502-1.5c6.913,0,12.536,5.605,12.536,12.494
				C89.608,77.086,88.933,77.756,88.104,77.756"/>
		</defs>
		<clipPath id="SVGID_184_">
			<use xlink:href="#SVGID_183_"  overflow="visible"/>
		</clipPath>
		<g clip-path="url(#SVGID_184_)">
			<defs>
				<rect id="SVGID_185_" x="-102.789" y="-390.975" width="360" height="640"/>
			</defs>
			<clipPath id="SVGID_186_">
				<use xlink:href="#SVGID_185_"  overflow="visible"/>
			</clipPath>
			<rect x="70.57" y="58.764" clip-path="url(#SVGID_186_)" fill="#8696A9" width="24.038" height="23.992"/>
		</g>
	</g>
	<g>
		<defs>
			<path id="SVGID_187_" d="M90.589,121.292c-2.379,0-4.317-1.934-4.317-4.309c0-2.373,1.938-4.309,4.317-4.309
				c2.381,0,4.321,1.936,4.321,4.309C94.91,119.358,92.97,121.292,90.589,121.292 M90.589,115.668c-0.724,0-1.311,0.59-1.311,1.314
				c0,0.723,0.587,1.309,1.311,1.309c0.728,0,1.315-0.586,1.315-1.309C91.904,116.258,91.316,115.668,90.589,115.668"/>
		</defs>
		<clipPath id="SVGID_188_">
			<use xlink:href="#SVGID_187_"  overflow="visible"/>
		</clipPath>
		<g clip-path="url(#SVGID_188_)">
			<defs>
				<rect id="SVGID_189_" x="-102.789" y="-390.975" width="360" height="640"/>
			</defs>
			<clipPath id="SVGID_190_">
				<use xlink:href="#SVGID_189_"  overflow="visible"/>
			</clipPath>
			<rect x="81.271" y="107.674" clip-path="url(#SVGID_190_)" fill="#8696A9" width="18.639" height="18.617"/>
		</g>
	</g>
	<g>
		<defs>
			<path id="SVGID_191_" d="M63.743,121.292c-2.382,0-4.32-1.934-4.32-4.309c0-2.373,1.938-4.309,4.32-4.309
				c2.383,0,4.321,1.936,4.321,4.309C68.064,119.358,66.126,121.292,63.743,121.292 M63.743,115.668
				c-0.726,0-1.314,0.59-1.314,1.314c0,0.723,0.589,1.309,1.314,1.309s1.315-0.586,1.315-1.309
				C65.059,116.258,64.469,115.668,63.743,115.668"/>
		</defs>
		<clipPath id="SVGID_192_">
			<use xlink:href="#SVGID_191_"  overflow="visible"/>
		</clipPath>
		<g clip-path="url(#SVGID_192_)">
			<defs>
				<rect id="SVGID_193_" x="-102.789" y="-390.975" width="360" height="640"/>
			</defs>
			<clipPath id="SVGID_194_">
				<use xlink:href="#SVGID_193_"  overflow="visible"/>
			</clipPath>
			<rect x="54.423" y="107.674" clip-path="url(#SVGID_194_)" fill="#8696A9" width="18.642" height="18.617"/>
		</g>
	</g>
	<g>
		<defs>
			<path id="SVGID_195_" d="M82.684,118.481H71.654c-0.83,0-1.504-0.672-1.504-1.5c0-0.826,0.674-1.498,1.504-1.498h11.029
				c0.83,0,1.503,0.672,1.503,1.498C84.187,117.809,83.514,118.481,82.684,118.481"/>
		</defs>
		<clipPath id="SVGID_196_">
			<use xlink:href="#SVGID_195_"  overflow="visible"/>
		</clipPath>
		<g clip-path="url(#SVGID_196_)">
			<defs>
				<rect id="SVGID_197_" x="-102.789" y="-390.975" width="360" height="640"/>
			</defs>
			<clipPath id="SVGID_198_">
				<use xlink:href="#SVGID_197_"  overflow="visible"/>
			</clipPath>
			<rect x="65.15" y="110.483" clip-path="url(#SVGID_198_)" fill="#8696A9" width="24.036" height="12.998"/>
		</g>
	</g>
	<g>
		<defs>
			<path id="SVGID_199_" d="M45.951,49.698c0-3.15-2.57-5.713-5.729-5.713c-3.16,0-5.73,2.562-5.73,5.713s2.57,5.713,5.73,5.713
				C43.381,55.411,45.951,52.848,45.951,49.698 M40.223,52.417c-1.502,0-2.725-1.219-2.725-2.719c0-1.496,1.223-2.715,2.725-2.715
				s2.723,1.219,2.723,2.715C42.945,51.198,41.725,52.417,40.223,52.417"/>
		</defs>
		<clipPath id="SVGID_200_">
			<use xlink:href="#SVGID_199_"  overflow="visible"/>
		</clipPath>
		<g clip-path="url(#SVGID_200_)">
			<defs>
				<rect id="SVGID_201_" x="-102.789" y="-390.975" width="360" height="640"/>
			</defs>
			<clipPath id="SVGID_202_">
				<use xlink:href="#SVGID_201_"  overflow="visible"/>
			</clipPath>
			<rect x="29.492" y="38.985" clip-path="url(#SVGID_202_)" fill="#8696A9" width="21.459" height="21.426"/>
		</g>
	</g>
	<g>
		<defs>
			<path id="SVGID_203_" d="M50.568,41.872c4.324,0,7.845-3.508,7.845-7.82s-3.521-7.82-7.845-7.82c-4.327,0-7.846,3.508-7.846,7.82
				S46.241,41.872,50.568,41.872 M50.568,29.227c2.666,0,4.838,2.166,4.838,4.824c0,2.66-2.172,4.824-4.838,4.824
				c-2.668,0-4.839-2.164-4.839-4.824C45.729,31.393,47.9,29.227,50.568,29.227"/>
		</defs>
		<clipPath id="SVGID_204_">
			<use xlink:href="#SVGID_203_"  overflow="visible"/>
		</clipPath>
		<g clip-path="url(#SVGID_204_)">
			<defs>
				<rect id="SVGID_205_" x="-102.789" y="-390.975" width="360" height="640"/>
			</defs>
			<clipPath id="SVGID_206_">
				<use xlink:href="#SVGID_205_"  overflow="visible"/>
			</clipPath>
			<rect x="37.723" y="21.231" clip-path="url(#SVGID_206_)" fill="#8696A9" width="25.69" height="25.641"/>
		</g>
	</g>
	<g>
		<defs>
			<path id="SVGID_207_" d="M111.193,32.356H84.824c-0.464,0-4.511-0.125-4.511-4.496V15.524c0-0.826-0.672-1.498-1.504-1.498
				c-0.828,0-1.502,0.672-1.502,1.5v12.336c0,5.928,4.918,7.492,7.517,7.492h26.368c9.692,0,9.857,9.438,9.859,9.832v35.688
				c0,9.461-6.409,9.822-7.129,9.834h-6.122c2.117-4.414,3.337-9.332,3.337-14.537c0-18.678-15.239-33.869-33.972-33.869
				c-10.639,0-20.67,5.023-27.086,13.482c-0.27-0.053-0.549-0.084-0.835-0.084c-2.382,0-4.319,1.934-4.319,4.312
				c0,1.084,0.419,2.068,1.087,2.828c-1.843,4.256-2.819,8.729-2.819,13.33c0,8.08,2.861,15.504,7.617,21.33h-7.617V99
				c0,18.678,15.24,33.871,33.975,33.871c18.729,0,33.97-15.199,33.97-33.871v-1.5h-7.66c0.979-1.201,1.888-2.469,2.699-3.797h7.747
				c0.101,0,10.136-0.148,10.136-12.832V45.186C124.059,40.749,121.371,32.356,111.193,32.356 M77.168,45.295
				c3.033,0,5.96,0.457,8.735,1.271c-2.461,1.795-5.465,2.889-8.735,2.889c-3.256,0-6.239-1.082-8.689-2.859
				C71.273,45.774,74.186,45.295,77.168,45.295 M49.248,58.696c0.14,0,0.271,0.039,0.4,0.08l0.215,0.121
				c0.219,0.123,0.392,0.287,0.513,0.479c0.001,0,0.002,0,0.003,0.004c0.117,0.188,0.18,0.398,0.182,0.619
				c0,0.002,0.004,0.006,0.004,0.012c0,0.721-0.59,1.312-1.316,1.312c-0.1,0-0.19-0.037-0.285-0.061
				c-0.1-0.031-0.212-0.078-0.363-0.168l-0.291-0.178c-0.229-0.236-0.375-0.553-0.375-0.908
				C47.934,59.284,48.521,58.696,49.248,58.696 M46.201,76.167c0-2.434,0.322-4.828,0.894-7.17c1.194,2.131,1.909,4.561,1.909,7.17
				c0,2.619-0.719,5.055-1.92,7.189C46.527,81.045,46.201,78.643,46.201,76.167 M77.168,129.87
				c-16.57,0-30.145-13.043-30.932-29.373h7.336v-0.016c6.117,5.902,14.431,9.555,23.596,9.555c9.154,0,17.453-3.645,23.558-9.539
				h7.369C107.307,116.827,93.735,129.87,77.168,129.87 M104.222,91.145c-0.151,0.152-0.26,0.342-0.336,0.551
				c-5.378,9.16-15.328,15.344-26.718,15.344c-13.35,0-24.72-8.482-29.061-20.311c2.245-2.941,3.6-6.592,3.6-10.562
				c0-3.963-1.348-7.605-3.582-10.541c0.167-0.455,0.307-0.916,0.497-1.361c0.073,0.012,0.143,0,0.215,0.01
				c0.138,0.014,0.269,0.041,0.411,0.041c0.048,0,0.094-0.014,0.144-0.016c0.169-0.004,0.333-0.025,0.497-0.049
				c0.129-0.02,0.256-0.041,0.381-0.07c0.146-0.035,0.29-0.082,0.433-0.135c0.154-0.055,0.304-0.119,0.448-0.191
				c0.096-0.049,0.19-0.098,0.281-0.154c0.188-0.109,0.364-0.234,0.531-0.373c0.047-0.035,0.094-0.072,0.139-0.113
				c0.195-0.17,0.369-0.359,0.529-0.562c0.021-0.027,0.043-0.049,0.063-0.076c0.161-0.217,0.302-0.445,0.419-0.689
				c0.016-0.027,0.035-0.059,0.051-0.088c0.105-0.23,0.19-0.473,0.252-0.727c0.014-0.051,0.033-0.096,0.045-0.146
				c0.061-0.271,0.092-0.555,0.097-0.844c0-0.027,0.009-0.049,0.009-0.076c0-0.264-0.029-0.523-0.08-0.777
				c-0.026-0.146-0.072-0.285-0.113-0.426c-0.027-0.086-0.049-0.172-0.082-0.256c-0.156-0.434-0.381-0.83-0.66-1.186
				c3.369-4.363,7.827-7.662,12.82-9.709c3.109,2.789,7.209,4.5,11.713,4.5c4.521,0,8.638-1.725,11.751-4.533
				c8.01,3.289,14.319,9.842,17.306,17.982c-2.248,2.941-3.597,6.59-3.597,10.562c0,3.979,1.355,7.633,3.605,10.574
				C105.673,88.266,105.008,89.741,104.222,91.145 M105.331,76.167c0-2.619,0.711-5.064,1.919-7.201
				c0.556,2.316,0.884,4.719,0.884,7.201c0,2.488-0.312,4.9-0.875,7.219C106.048,81.243,105.331,78.792,105.331,76.167"/>
		</defs>
		<clipPath id="SVGID_208_">
			<use xlink:href="#SVGID_207_"  overflow="visible"/>
		</clipPath>
		<g clip-path="url(#SVGID_208_)">
			<defs>
				<rect id="SVGID_209_" x="-102.789" y="-390.975" width="360" height="640"/>
			</defs>
			<clipPath id="SVGID_210_">
				<use xlink:href="#SVGID_209_"  overflow="visible"/>
			</clipPath>
			<rect x="38.193" y="9.026" clip-path="url(#SVGID_210_)" fill="#8696A9" width="90.866" height="128.846"/>
		</g>
	</g>
	<g>
		<defs>
			<path id="SVGID_211_" d="M57.861,122.397c0,13.316-10.826,24.109-24.181,24.109c-13.356,0-24.183-10.793-24.183-24.109
				c0-13.314,10.826-24.107,24.183-24.107C47.035,98.29,57.861,109.083,57.861,122.397"/>
		</defs>
		<clipPath id="SVGID_212_">
			<use xlink:href="#SVGID_211_"  overflow="visible"/>
		</clipPath>
		<g clip-path="url(#SVGID_212_)">
			<defs>
				<rect id="SVGID_213_" x="-102.789" y="-390.975" width="360" height="640"/>
			</defs>
			<clipPath id="SVGID_214_">
				<use xlink:href="#SVGID_213_"  overflow="visible"/>
			</clipPath>
			<rect x="4.498" y="93.29" clip-path="url(#SVGID_214_)" fill="#FFFFFF" width="58.363" height="58.217"/>
		</g>
	</g>
	<g>
		<defs>
			<path id="SVGID_215_" d="M40.229,122.397c0,3.607-2.932,6.529-6.548,6.529s-6.549-2.922-6.549-6.529
				c0-3.605,2.933-6.527,6.549-6.527S40.229,118.792,40.229,122.397"/>
		</defs>
		<clipPath id="SVGID_216_">
			<use xlink:href="#SVGID_215_"  overflow="visible"/>
		</clipPath>
		<g clip-path="url(#SVGID_216_)">
			<defs>
				<rect id="SVGID_217_" x="-102.789" y="-390.975" width="360" height="640"/>
			</defs>
			<clipPath id="SVGID_218_">
				<use xlink:href="#SVGID_217_"  overflow="visible"/>
			</clipPath>
			<rect x="22.132" y="110.87" clip-path="url(#SVGID_218_)" fill="#B4EFFD" width="23.097" height="23.057"/>
		</g>
	</g>
	<g>
		<defs>
			<polygon id="SVGID_219_" points="22.541,131.999 31.596,120.672 43.193,112.674 35.119,124.852 23.463,132.872 			"/>
		</defs>
		<clipPath id="SVGID_220_">
			<use xlink:href="#SVGID_219_"  overflow="visible"/>
		</clipPath>
		<g clip-path="url(#SVGID_220_)">
			<defs>
				<rect id="SVGID_221_" x="-102.789" y="-390.975" width="360" height="640"/>
			</defs>
			<clipPath id="SVGID_222_">
				<use xlink:href="#SVGID_221_"  overflow="visible"/>
			</clipPath>
			<rect x="17.541" y="107.674" clip-path="url(#SVGID_222_)" fill="#98CBE3" width="30.652" height="30.197"/>
		</g>
	</g>
	<g>
		<defs>
			<path id="SVGID_223_" d="M34.59,98.393v-1.844h-1.818v1.844c-12.915,0.48-23.273,11.098-23.273,24.086
				c0,13.291,10.85,24.109,24.182,24.109c13.336,0,24.182-10.818,24.182-24.109C57.861,109.491,47.504,98.874,34.59,98.393
				 M33.68,144.774c-12.33,0-22.362-10.002-22.362-22.295c0-12.295,10.032-22.293,22.362-22.293c12.332,0,22.362,10,22.362,22.293
				S46.012,144.774,33.68,144.774"/>
		</defs>
		<clipPath id="SVGID_224_">
			<use xlink:href="#SVGID_223_"  overflow="visible"/>
		</clipPath>
		<g clip-path="url(#SVGID_224_)">
			<defs>
				<rect id="SVGID_225_" x="-102.789" y="-390.975" width="360" height="640"/>
			</defs>
			<clipPath id="SVGID_226_">
				<use xlink:href="#SVGID_225_"  overflow="visible"/>
			</clipPath>
			<rect x="4.498" y="91.549" clip-path="url(#SVGID_226_)" fill="#8696A9" width="58.363" height="60.039"/>
		</g>
	</g>
	<g>
		<defs>
			<rect id="SVGID_227_" x="-102.789" y="-390.975" width="360" height="640"/>
		</defs>
		<clipPath id="SVGID_228_">
			<use xlink:href="#SVGID_227_"  overflow="visible"/>
		</clipPath>
		
			<path clip-path="url(#SVGID_228_)" fill="none" stroke="#8696A9" stroke-width="0.5" stroke-linecap="round" stroke-miterlimit="10" d="
			M34.59,98.393v-1.844h-1.818v1.844c-12.915,0.48-23.273,11.098-23.273,24.086c0,13.291,10.85,24.109,24.182,24.109
			c13.336,0,24.182-10.818,24.182-24.109C57.861,109.491,47.504,98.874,34.59,98.393z M33.68,144.774
			c-12.33,0-22.362-10.002-22.362-22.295c0-12.295,10.032-22.293,22.362-22.293c12.332,0,22.362,10,22.362,22.293
			S46.012,144.774,33.68,144.774z"/>
	</g>
	<g>
		<defs>
			<path id="SVGID_229_" d="M54.853,122.448v-0.877H54.83c-0.467-10.92-9.288-19.715-20.24-20.18v-0.021h-0.877H33.68h-0.033h-0.876
				v0.021c-10.952,0.465-19.775,9.26-20.241,20.18h-0.024v1.814h0.024c0.466,10.918,9.289,19.717,20.241,20.182v0.021h1.819v-0.021
				c10.952-0.465,19.773-9.264,20.24-20.182h0.022v-0.875v-0.031V122.448z M53.01,123.385c-0.459,9.92-8.472,17.904-18.42,18.367
				v-6.646h-1.819v6.646c-9.948-0.463-17.958-8.449-18.42-18.367h6.665v-1.814h-6.665c0.462-9.916,8.47-17.902,18.42-18.365v6.646
				h1.819v-6.646c9.948,0.463,17.958,8.449,18.42,18.365h-6.668v1.814H53.01z"/>
		</defs>
		<clipPath id="SVGID_230_">
			<use xlink:href="#SVGID_229_"  overflow="visible"/>
		</clipPath>
		<g clip-path="url(#SVGID_230_)">
			<defs>
				<rect id="SVGID_231_" x="-102.789" y="-390.975" width="360" height="640"/>
			</defs>
			<clipPath id="SVGID_232_">
				<use xlink:href="#SVGID_231_"  overflow="visible"/>
			</clipPath>
			<rect x="7.505" y="96.37" clip-path="url(#SVGID_232_)" fill="#8696A9" width="52.348" height="52.219"/>
		</g>
	</g>
	<g>
		<defs>
			<rect id="SVGID_233_" x="-102.789" y="-390.975" width="360" height="640"/>
		</defs>
		<clipPath id="SVGID_234_">
			<use xlink:href="#SVGID_233_"  overflow="visible"/>
		</clipPath>
		
			<path clip-path="url(#SVGID_234_)" fill="none" stroke="#8696A9" stroke-width="0.5" stroke-linecap="round" stroke-miterlimit="10" d="
			M54.853,122.448v-0.877H54.83c-0.467-10.92-9.288-19.715-20.24-20.18v-0.021h-0.877H33.68h-0.033h-0.876v0.021
			c-10.952,0.465-19.775,9.26-20.241,20.18h-0.024v1.814h0.024c0.466,10.918,9.289,19.717,20.241,20.182v0.021h1.819v-0.021
			c10.952-0.465,19.773-9.264,20.24-20.182h0.022v-0.875v-0.031V122.448z M53.01,123.385c-0.459,9.92-8.472,17.904-18.42,18.367
			v-6.646h-1.819v6.646c-9.948-0.463-17.958-8.449-18.42-18.367h6.665v-1.814h-6.665c0.462-9.916,8.47-17.902,18.42-18.365v6.646
			h1.819v-6.646c9.948,0.463,17.958,8.449,18.42,18.365h-6.668v1.814H53.01z"/>
	</g>
	<g>
		<defs>
			<path id="SVGID_235_" d="M45.654,111.803l-1.27-1.264l-7.221,5.176c-1.047-0.537-2.229-0.846-3.484-0.846
				c-4.209,0-7.633,3.414-7.633,7.609c0,1.262,0.316,2.451,0.864,3.498l-5.207,7.174l1.27,1.268l7.222-5.18
				c1.045,0.539,2.23,0.85,3.484,0.85c4.209,0,7.635-3.412,7.635-7.609c0-1.264-0.316-2.451-0.865-3.5L45.654,111.803z
				 M36.564,121.303c-0.316-0.77-0.932-1.385-1.705-1.699l6.066-4.35L36.564,121.303z M34.979,122.479
				c0,0.713-0.582,1.297-1.299,1.297s-1.301-0.584-1.301-1.297c0-0.715,0.582-1.297,1.301-1.297
				C34.396,121.182,34.979,121.766,34.979,122.479z M27.868,122.479c0-3.195,2.604-5.797,5.812-5.797
				c0.609,0,1.193,0.105,1.748,0.279l-4.114,2.951l-3.153,4.346C27.975,123.696,27.868,123.102,27.868,122.479z M30.795,123.655
				c0.317,0.77,0.932,1.385,1.704,1.701l-6.066,4.348L30.795,123.655z M39.494,122.479c0,3.195-2.61,5.795-5.814,5.795
				c-0.609,0-1.194-0.104-1.746-0.277l4.111-2.949l3.155-4.35C39.385,121.26,39.494,121.858,39.494,122.479z"/>
		</defs>
		<clipPath id="SVGID_236_">
			<use xlink:href="#SVGID_235_"  overflow="visible"/>
		</clipPath>
		<g clip-path="url(#SVGID_236_)">
			<defs>
				<rect id="SVGID_237_" x="-102.789" y="-390.975" width="360" height="640"/>
			</defs>
			<clipPath id="SVGID_238_">
				<use xlink:href="#SVGID_237_"  overflow="visible"/>
			</clipPath>
			<rect x="16.704" y="105.54" clip-path="url(#SVGID_238_)" fill="#8696A9" width="33.95" height="33.879"/>
		</g>
	</g>
</g>
</svg>
