<?xml version="1.0" encoding="utf-8"?>
<!-- Generator: Adobe Illustrator 16.0.0, SVG Export Plug-In . SVG Version: 6.00 Build 0)  -->
<!DOCTYPE svg PUBLIC "-//W3C//DTD SVG 1.1//EN" "http://www.w3.org/Graphics/SVG/1.1/DTD/svg11.dtd">
<svg version="1.1" xmlns="http://www.w3.org/2000/svg" xmlns:xlink="http://www.w3.org/1999/xlink" x="0px" y="0px"
	 width="304.099px" height="259.836px" viewBox="0 0 304.099 259.836" enable-background="new 0 0 304.099 259.836"
	 xml:space="preserve">
<g id="Capa_1">
	<g opacity="0.437" enable-background="new    ">
		<g>
			<defs>
				<rect id="SVGID_1_" x="-164.836" y="-53.147" width="115" height="63"/>
			</defs>
			<clipPath id="SVGID_2_">
				<use xlink:href="#SVGID_1_"  overflow="visible"/>
			</clipPath>
			<g clip-path="url(#SVGID_2_)">
				<defs>
					<path id="SVGID_3_" d="M-53.684-5.75c-2.094-2.392-5.062-3.604-8.834-3.604c-0.02,0-0.035,0.015-0.055,0.016
						C-62.74-9.329-62.9-9.28-63.053-9.2c-0.051,0.027-0.094,0.055-0.139,0.088c-0.043,0.031-0.094,0.047-0.133,0.084
						c-0.07,0.067-1.762,1.644-4.615,1.644c-2.852,0-4.545-1.576-4.609-1.641c-0.041-0.04-0.094-0.057-0.139-0.091
						c-0.045-0.03-0.084-0.059-0.131-0.083c-0.168-0.089-0.348-0.15-0.533-0.151c-0.004,0-0.006-0.003-0.01-0.003h-0.004
						c-0.004,0-0.01,0.002-0.016,0.002c-3.76,0.005-6.725,1.215-8.812,3.602c-4.359,4.985-3.213,13.265-3.16,13.614
						c0.082,0.564,0.572,0.981,1.146,0.981h32.537c0.576,0,1.064-0.419,1.146-0.981C-50.473,7.515-49.322-0.764-53.684-5.75z
						 M-67.939-5.091c1.072,0,2.008-0.182,2.826-0.433l-2.826,5.797l-2.828-5.797C-69.949-5.272-69.012-5.091-67.939-5.091z
						 M-52.725,6.554h-30.432c-0.148-2.184-0.17-7.51,2.713-10.803c1.502-1.717,3.641-2.654,6.363-2.794l5.098,10.45
						c0.193,0.397,0.598,0.648,1.043,0.648c0.443,0,0.848-0.251,1.043-0.648l5.096-10.45c2.723,0.138,4.857,1.075,6.359,2.788
						C-52.562-0.973-52.578,4.365-52.725,6.554z M-67.939-10.747c5.322,0,9.652-4.286,9.652-9.553c0-5.269-4.33-9.553-9.652-9.553
						s-9.654,4.284-9.654,9.553C-77.594-15.033-73.262-10.747-67.939-10.747z M-67.939-27.562c4.045,0,7.336,3.259,7.336,7.262
						c0,4.004-3.291,7.261-7.336,7.261s-7.336-3.257-7.336-7.261C-75.275-24.304-71.984-27.562-67.939-27.562z M-141.311-9.354
						c-0.02,0-0.035,0.015-0.055,0.016c-0.167,0.009-0.329,0.058-0.481,0.138c-0.049,0.027-0.093,0.055-0.138,0.088
						c-0.042,0.031-0.094,0.047-0.132,0.084c-0.071,0.067-1.764,1.644-4.617,1.644c-2.852,0-4.545-1.576-4.609-1.641
						c-0.042-0.04-0.096-0.057-0.141-0.09c-0.042-0.03-0.083-0.058-0.129-0.084c-0.167-0.089-0.346-0.149-0.53-0.15
						c-0.004,0-0.008-0.004-0.011-0.004h-0.004c-0.006,0-0.012,0.002-0.017,0.002c-3.759,0.005-6.723,1.215-8.812,3.602
						c-4.365,4.986-3.213,13.265-3.162,13.614c0.081,0.564,0.57,0.981,1.145,0.981h32.538c0.574,0,1.063-0.419,1.144-0.981
						c0.052-0.351,1.204-8.63-3.157-13.616C-134.569-8.142-137.542-9.354-141.311-9.354z M-146.734-5.091
						c1.073,0,2.009-0.182,2.828-0.433l-2.828,5.797l-2.827-5.797C-148.743-5.272-147.806-5.091-146.734-5.091z M-131.52,6.554
						h-30.43c-0.149-2.184-0.169-7.51,2.712-10.803c1.503-1.717,3.64-2.654,6.364-2.794l5.099,10.45
						c0.387,0.793,1.699,0.793,2.085,0l5.098-10.45c2.719,0.138,4.855,1.075,6.355,2.788C-131.358-0.973-131.372,4.365-131.52,6.554
						z M-146.734-10.747c5.323,0,9.653-4.286,9.653-9.553c0-5.269-4.331-9.553-9.653-9.553c-5.321,0-9.653,4.284-9.653,9.553
						C-156.387-15.033-152.056-10.747-146.734-10.747z M-146.734-27.562c4.045,0,7.337,3.259,7.337,7.262
						c0,4.004-3.292,7.261-7.337,7.261s-7.336-3.257-7.336-7.261C-154.071-24.304-150.78-27.562-146.734-27.562z M-81.582-21.517
						c0.432,0.049,0.838-0.16,1.07-0.513c0.234-0.352,0.254-0.803,0.053-1.175c-1.342-2.465-2.809-5.238-3.236-6.172
						c0.984-2.746,1.25-5.703,0.766-8.576c-0.762-4.551-3.273-8.535-7.062-11.221c-3.795-2.686-8.416-3.746-13.016-2.991
						c-9.494,1.562-15.936,10.474-14.361,19.872c0.501,2.981,1.788,5.698,3.682,8.008c-1.104,0.288-2.188,0.667-3.235,1.174
						c-2.938,1.422-5.389,3.607-7.118,6.341l-6.939,1.4c-0.417,0.083-0.754,0.389-0.878,0.793c-0.122,0.403-0.011,0.842,0.291,1.14
						c2,1.981,4.204,4.225,4.884,5.001c-0.149,2.909,0.453,5.817,1.746,8.434c2.954,5.976,8.968,9.688,15.692,9.688h0.001
						c2.667,0,5.241-0.592,7.657-1.761c8.643-4.187,12.236-14.55,8.01-23.107c-0.59-1.193-1.33-2.268-2.146-3.27
						c2.619-0.681,5.043-1.913,7.084-3.688L-81.582-21.517z M-95.65-14.175c3.666,7.422,0.549,16.413-6.949,20.042
						c-2.094,1.014-4.325,1.526-6.638,1.526h-0.002c-5.833,0-11.05-3.219-13.612-8.402c-1.167-2.359-1.684-4.992-1.491-7.683
						c0.043-0.564,0.056-0.743-4.065-4.855l5.138-1.038c0.381-0.019,0.745-0.22,0.949-0.567c1.508-2.557,3.727-4.597,6.417-5.898
						c2.094-1.015,4.327-1.529,6.642-1.529C-103.431-22.578-98.213-19.359-95.65-14.175z M-89.812-24.178
						c-2.148,1.993-4.82,3.3-7.723,3.805c-3.146-2.84-7.271-4.499-11.727-4.499c-0.604,0-1.202,0.041-1.796,0.103
						c-2.117-2.182-3.519-4.894-4.024-7.898c-1.367-8.149,4.221-15.881,12.455-17.235c3.994-0.651,8,0.268,11.287,2.593
						c3.287,2.328,5.465,5.784,6.129,9.732c0.434,2.593,0.166,5.262-0.795,7.779c-0.205,0.53-0.271,0.697,2.488,5.807l-5.221-0.461
						C-89.107-24.547-89.52-24.453-89.812-24.178z M-100.164-12.496h-3.631c0.109-0.497,0.172-1.07,0.119-1.677
						c-0.115-1.346-0.826-2.644-1.805-3.307c-0.735-0.498-1.608-0.637-2.456-0.388c-1.673,0.488-1.599,2.597-1.557,3.854
						l0.015,0.488c0,1.125-1.156,2.023-2.02,2.539c-0.229-0.075-0.461-0.098-0.672-0.071h-6.182c-0.363,0-0.707,0.17-0.926,0.459
						c-0.308,0.405-0.657,0.866,0.52,9.529c0.077,0.571,0.568,0.996,1.148,0.996h5.82c0.5-0.01,0.855-0.23,1.088-0.621l0.328,0.148
						c0.152,0.069,0.317,0.105,0.484,0.105h7.275c1.504,0,2.479-0.437,2.9-1.298c0.291-0.595,0.221-1.197,0.049-1.686
						c0.48-0.501,0.65-1.01,0.699-1.401c0.045-0.365-0.002-0.696-0.094-0.983c0.305-0.345,0.465-0.7,0.545-0.989
						c0.117-0.411,0.113-0.806,0.057-1.151c0.582-0.404,1.086-1.042,1.086-1.961C-97.371-11.156-98.246-12.496-100.164-12.496z
						 M-113.275-2.366h-3.32c-0.316-2.463-0.598-5.065-0.664-6.4h3.984V-2.366z M-100.156-9.66
						c-0.355,0.084-0.646,0.341-0.789,0.676c-0.143,0.334-0.113,0.724,0.074,1.037c0.078,0.134,0.166,0.395,0.123,0.538
						c-0.035,0.115-0.219,0.22-0.324,0.273c-0.322,0.161-0.541,0.477-0.605,0.83c-0.066,0.353,0.055,0.729,0.297,0.995
						c0.055,0.058,0.115,0.164,0.117,0.199c-0.012,0.039-0.119,0.191-0.457,0.389c-0.287,0.166-0.484,0.449-0.549,0.77
						c-0.064,0.323,0.018,0.661,0.219,0.921c0.051,0.067,0.104,0.154,0.145,0.236c-0.141,0.03-0.365,0.062-0.709,0.062h-7.021
						l-0.883-0.403c-0.139-0.063-0.289-0.089-0.442-0.095v-5.433c2.442-1.245,3.794-2.964,3.794-4.86l-0.012-0.567
						c-0.014-0.385-0.043-1.232,0.061-1.602c0.13,0.01,0.218,0.03,0.33,0.108c0.404,0.272,0.75,0.965,0.805,1.608
						c0.09,1.061-0.459,2.059-0.461,2.062c-0.202,0.354-0.199,0.79,0.008,1.142c0.209,0.354,0.588,0.57,1,0.57h5.271
						c0.475,0,0.475,0.146,0.48,0.277C-99.729-9.845-99.979-9.706-100.156-9.66z M-106.24-37.197c-0.982,0-1.779,0.789-1.779,1.762
						c0,0.974,0.797,1.763,1.779,1.763c0.984,0,1.781-0.789,1.781-1.763C-104.459-36.408-105.258-37.197-106.24-37.197z
						 M-99.812-37.197c-0.984,0-1.781,0.789-1.781,1.762c0,0.974,0.797,1.763,1.781,1.763c0.982,0,1.781-0.789,1.781-1.763
						C-98.031-36.408-98.83-37.197-99.812-37.197z M-93.664-37.197c-0.982,0-1.779,0.789-1.779,1.762
						c0,0.974,0.797,1.763,1.779,1.763c0.984,0,1.781-0.789,1.781-1.763C-91.883-36.408-92.68-37.197-93.664-37.197z"/>
				</defs>
				<clipPath id="SVGID_4_">
					<use xlink:href="#SVGID_3_"  overflow="visible"/>
				</clipPath>
				<g clip-path="url(#SVGID_4_)">
					<defs>
						<rect id="SVGID_5_" x="-164.836" y="-53.147" width="115" height="63"/>
					</defs>
					<clipPath id="SVGID_6_">
						<use xlink:href="#SVGID_5_"  overflow="visible"/>
					</clipPath>
					<rect x="-169.323" y="-57.401" clip-path="url(#SVGID_6_)" fill="#8696A9" width="123.974" height="72.088"/>
				</g>
			</g>
		</g>
	</g>
</g>
<g id="Capa_2">
	<g>
		<defs>
			<path id="SVGID_7_" d="M122.938,155.026l3.528-3.756c0.725,0.415,1.413,0.728,2.449,0.728c2.283,0,4.986-1.245,7.063-3.319
				c1.557-1.554,2.708-3.425,3.123-5.288c0.521-2.18,0.112-4.152-1.237-5.502c-0.935-0.93-2.256-1.452-3.709-1.452
				c-2.283,0-4.936,1.246-7.01,3.32c-1.559,1.559-2.596,3.422-3.014,5.291c-0.414,1.764-0.004,3.424,0.725,4.667l-1.987,2.271
				L122.938,155.026z M128.706,141.417c1.765-1.764,3.841-2.701,5.503-2.701c0.828,0,1.659,0.318,2.18,0.833
				c1.557,1.56,0.728,4.982-1.973,7.677c-1.766,1.766-3.84,2.697-5.502,2.697c-0.416,0-0.831,0-1.144-0.208l4.672-4.667
				c0.415-0.415,0.415-1.139,0-1.554c-0.413-0.415-1.14-0.415-1.557,0l-4.671,4.668
				C125.489,146.397,126.526,143.594,128.706,141.417z"/>
		</defs>
		<clipPath id="SVGID_8_">
			<use xlink:href="#SVGID_7_"  overflow="visible"/>
		</clipPath>
		<g clip-path="url(#SVGID_8_)">
			<defs>
				<rect id="SVGID_9_" x="-26.705" y="-523.77" width="360" height="1083"/>
			</defs>
			<clipPath id="SVGID_10_">
				<use xlink:href="#SVGID_9_"  overflow="visible"/>
			</clipPath>
			<rect x="117.87" y="131.436" clip-path="url(#SVGID_10_)" fill="#DAE0E5" width="26.45" height="28.59"/>
		</g>
	</g>
	<g>
		<defs>
			<path id="SVGID_11_" d="M188.428,132.839l-1.985-2.271c0.729-1.243,1.139-2.903,0.723-4.667c-0.414-1.869-1.453-3.732-3.01-5.291
				c-2.076-2.073-4.728-3.318-7.014-3.318c-1.451,0-2.773,0.521-3.709,1.452c-1.348,1.349-1.756,3.32-1.235,5.501
				c0.415,1.862,1.566,3.733,3.123,5.287c2.075,2.074,4.778,3.319,7.062,3.319c1.038,0,1.726-0.311,2.45-0.728l3.526,3.757
				L188.428,132.839z M185.084,129.017l-4.67-4.669c-0.417-0.415-1.142-0.415-1.558,0c-0.414,0.415-0.414,1.139,0,1.554l4.672,4.667
				c-0.312,0.208-0.725,0.208-1.141,0.208c-1.663,0-3.738-0.932-5.504-2.696c-2.699-2.694-3.527-6.118-1.971-7.677
				c0.518-0.515,1.35-0.834,2.18-0.834c1.66,0,3.734,0.938,5.502,2.701C184.773,124.45,185.812,127.252,185.084,129.017z"/>
		</defs>
		<clipPath id="SVGID_12_">
			<use xlink:href="#SVGID_11_"  overflow="visible"/>
		</clipPath>
		<g clip-path="url(#SVGID_12_)">
			<defs>
				<rect id="SVGID_13_" x="-26.705" y="-523.77" width="360" height="1083"/>
			</defs>
			<clipPath id="SVGID_14_">
				<use xlink:href="#SVGID_13_"  overflow="visible"/>
			</clipPath>
			<rect x="166.979" y="112.292" clip-path="url(#SVGID_14_)" fill="#DAE0E5" width="26.448" height="28.589"/>
		</g>
	</g>
	<g>
		<defs>
			<path id="SVGID_15_" d="M167.636,160.208l3.527-3.757c0.726,0.415,1.412,0.728,2.45,0.728c2.283,0,4.985-1.245,7.063-3.318
				c1.555-1.555,2.707-3.426,3.123-5.288c0.52-2.181,0.111-4.152-1.237-5.502c-0.935-0.931-2.257-1.453-3.71-1.453
				c-2.283,0-4.935,1.247-7.012,3.32c-1.559,1.559-2.595,3.422-3.012,5.291c-0.416,1.764-0.005,3.424,0.723,4.667l-1.984,2.271
				L167.636,160.208z M173.401,146.597c1.766-1.763,3.843-2.701,5.502-2.701c0.831,0,1.662,0.319,2.18,0.834
				c1.557,1.559,0.729,4.982-1.971,7.677c-1.768,1.765-3.84,2.696-5.504,2.696c-0.415,0-0.83,0-1.141-0.208l4.67-4.667
				c0.417-0.415,0.417-1.139,0-1.554c-0.414-0.415-1.139-0.415-1.555,0l-4.671,4.669
				C170.185,151.579,171.224,148.776,173.401,146.597z"/>
		</defs>
		<clipPath id="SVGID_16_">
			<use xlink:href="#SVGID_15_"  overflow="visible"/>
		</clipPath>
		<g clip-path="url(#SVGID_16_)">
			<defs>
				<rect id="SVGID_17_" x="-26.705" y="-523.77" width="360" height="1083"/>
			</defs>
			<clipPath id="SVGID_18_">
				<use xlink:href="#SVGID_17_"  overflow="visible"/>
			</clipPath>
			<rect x="162.567" y="136.617" clip-path="url(#SVGID_18_)" fill="#DAE0E5" width="26.45" height="28.591"/>
		</g>
	</g>
	<g>
		<defs>
			<path id="SVGID_19_" d="M177.172,70.363c-0.556-0.574-0.547-1.49,0.019-2.055c0.084-0.084,2.1-2.078,5.441-3.532
				c0.046-0.27,0.092-0.552,0.15-0.84l0.152-0.624c0.221-1.049,1.047-3.571,1.056-3.596c0.192-0.595,0.741-0.994,1.363-0.994
				c0.151,0,0.304,0.029,0.452,0.075c0.361,0.12,0.659,0.378,0.836,0.724c0.169,0.347,0.197,0.74,0.074,1.107
				c-0.186,0.563-0.715,2.229-0.926,3.099c2.307-0.539,4.662-0.591,6.977-0.161c0.778,0.139,1.299,0.896,1.156,1.682
				c-0.124,0.688-0.721,1.188-1.412,1.188c-0.086,0-0.172-0.005-0.261-0.023c-2.321-0.428-4.702-0.26-7.029,0.497
				c-0.717,6.037,0.969,8.937,1.732,9.907c0.712,0.906,1.305,1.507,2.037,1.718c0.516,0.146,1.004,0.22,1.462,0.22
				c2.244,0,3.266-1.795,3.652-2.47c0.071-0.13,0.119-0.215,0.17-0.28c0.293-0.379,0.73-0.609,1.176-0.609
				c0.422,0,0.799,0.21,1.037,0.571c0.637,0.978,0.293,1.655-0.036,2.305c-0.179,0.354-1.825,3.373-5.843,3.373h-0.002
				c-0.655,0-1.347-0.084-2.059-0.25c-0.672-0.152-2.4-0.746-3.917-2.869c-1.046-1.472-2.712-4.728-2.405-10.304
				c-1.719,0.964-2.803,1.947-3.018,2.151l-0.007,0.003c-0.267,0.27-0.626,0.417-1.003,0.417
				C177.812,70.792,177.448,70.642,177.172,70.363 M170.392,70.958c0,9.353,7.518,16.934,16.795,16.934
				c9.275,0,16.797-7.581,16.797-16.934c0-9.354-7.521-16.937-16.797-16.937C177.909,54.021,170.392,61.604,170.392,70.958"/>
		</defs>
		<clipPath id="SVGID_20_">
			<use xlink:href="#SVGID_19_"  overflow="visible"/>
		</clipPath>
		<g clip-path="url(#SVGID_20_)">
			<defs>
				<rect id="SVGID_21_" x="-26.705" y="-523.77" width="360" height="1083"/>
			</defs>
			<clipPath id="SVGID_22_">
				<use xlink:href="#SVGID_21_"  overflow="visible"/>
			</clipPath>
			<rect x="165.392" y="49.021" clip-path="url(#SVGID_22_)" fill="#E16B59" width="43.592" height="43.87"/>
		</g>
	</g>
	<g>
		<defs>
			<path id="SVGID_23_" d="M177.173,70.365c-0.559-0.577-0.547-1.493,0.019-2.055c0.083-0.084,2.099-2.08,5.44-3.535
				c0.047-0.269,0.092-0.551,0.15-0.839l0.152-0.625c0.219-1.048,1.047-3.568,1.057-3.596c0.191-0.593,0.74-0.991,1.361-0.991
				c0.152,0,0.305,0.026,0.451,0.074c0.363,0.118,0.66,0.375,0.838,0.723c0.17,0.348,0.197,0.739,0.074,1.106
				c-0.186,0.564-0.715,2.229-0.926,3.1c2.307-0.539,4.662-0.592,6.977-0.162c0.779,0.14,1.299,0.898,1.156,1.683
				c-0.125,0.688-0.722,1.189-1.411,1.189c-0.087,0-0.175-0.008-0.262-0.025c-2.321-0.426-4.702-0.26-7.03,0.499
				c-0.714,6.036,0.969,8.935,1.734,9.907c0.711,0.905,1.305,1.506,2.037,1.716c0.514,0.146,1.003,0.221,1.461,0.221
				c2.245,0,3.266-1.795,3.652-2.47c0.072-0.13,0.119-0.217,0.17-0.28c0.293-0.377,0.73-0.61,1.175-0.61
				c0.423,0,0.8,0.211,1.038,0.573c0.638,0.978,0.294,1.654-0.036,2.306c-0.179,0.352-1.825,3.371-5.842,3.371h-0.003
				c-0.654,0-1.346-0.084-2.059-0.251c-0.672-0.15-2.399-0.746-3.915-2.868c-1.048-1.474-2.712-4.728-2.408-10.303
				c-1.717,0.962-2.802,1.945-3.019,2.15l-0.006,0.003c-0.267,0.27-0.625,0.416-1.002,0.416
				C177.812,70.792,177.448,70.641,177.173,70.365z M170.392,70.957c0,9.354,7.518,16.934,16.795,16.934
				c9.275,0,16.797-7.579,16.797-16.934c0-9.353-7.521-16.937-16.797-16.937C177.909,54.02,170.392,61.604,170.392,70.957z"/>
		</defs>
		<clipPath id="SVGID_24_">
			<use xlink:href="#SVGID_23_"  overflow="visible"/>
		</clipPath>
		<g clip-path="url(#SVGID_24_)">
			<defs>
				<rect id="SVGID_25_" x="-26.705" y="-523.77" width="360" height="1083"/>
			</defs>
			<clipPath id="SVGID_26_">
				<use xlink:href="#SVGID_25_"  overflow="visible"/>
			</clipPath>
			<g clip-path="url(#SVGID_26_)" enable-background="new    ">
				<g>
					<defs>
						<rect id="SVGID_27_" x="170.295" y="53.23" width="34" height="35"/>
					</defs>
					<clipPath id="SVGID_28_">
						<use xlink:href="#SVGID_27_"  overflow="visible"/>
					</clipPath>
					<g clip-path="url(#SVGID_28_)">
						<defs>
							<rect id="SVGID_29_" x="170.196" y="52.93" width="34.877" height="36.437"/>
						</defs>
						<clipPath id="SVGID_30_">
							<use xlink:href="#SVGID_29_"  overflow="visible"/>
						</clipPath>
						<g clip-path="url(#SVGID_30_)">
							<defs>
								<rect id="SVGID_31_" x="170.295" y="53.23" width="34" height="35"/>
							</defs>
							<clipPath id="SVGID_32_">
								<use xlink:href="#SVGID_31_"  overflow="visible"/>
							</clipPath>
							<rect x="165.196" y="47.93" clip-path="url(#SVGID_32_)" fill="#B5F0FE" width="44.877" height="46.437"/>
						</g>
					</g>
					<g clip-path="url(#SVGID_28_)">
						<defs>
							<rect id="SVGID_33_" x="162.651" y="46.259" width="49.072" height="49.392"/>
						</defs>
						<clipPath id="SVGID_34_">
							<use xlink:href="#SVGID_33_"  overflow="visible"/>
						</clipPath>
						<g clip-path="url(#SVGID_34_)">
							<defs>
								<rect id="SVGID_35_" x="170.295" y="53.23" width="34" height="35"/>
							</defs>
							<clipPath id="SVGID_36_">
								<use xlink:href="#SVGID_35_"  overflow="visible"/>
							</clipPath>
							<rect x="157.651" y="41.259" clip-path="url(#SVGID_36_)" fill="#B5F0FE" width="59.072" height="59.392"/>
						</g>
					</g>
					<g clip-path="url(#SVGID_28_)">
						<defs>
							<rect id="SVGID_37_" x="170.196" y="52.93" width="34.877" height="36.437"/>
						</defs>
						<clipPath id="SVGID_38_">
							<use xlink:href="#SVGID_37_"  overflow="visible"/>
						</clipPath>
						<g clip-path="url(#SVGID_38_)">
							<defs>
								<rect id="SVGID_39_" x="170.295" y="53.23" width="34" height="35"/>
							</defs>
							<clipPath id="SVGID_40_">
								<use xlink:href="#SVGID_39_"  overflow="visible"/>
							</clipPath>
							<rect x="165.196" y="47.93" clip-path="url(#SVGID_40_)" fill="#B5F0FE" width="44.877" height="46.437"/>
						</g>
					</g>
					<g clip-path="url(#SVGID_28_)">
						<defs>
							<rect id="SVGID_41_" x="154.724" y="38.338" width="64.928" height="65.233"/>
						</defs>
						<clipPath id="SVGID_42_">
							<use xlink:href="#SVGID_41_"  overflow="visible"/>
						</clipPath>
						<g clip-path="url(#SVGID_42_)">
							<defs>
								<rect id="SVGID_43_" x="170.295" y="53.23" width="34" height="35"/>
							</defs>
							<clipPath id="SVGID_44_">
								<use xlink:href="#SVGID_43_"  overflow="visible"/>
							</clipPath>
							<rect x="149.725" y="33.338" clip-path="url(#SVGID_44_)" fill="#B5F0FE" width="74.927" height="75.233"/>
						</g>
					</g>
				</g>
			</g>
		</g>
	</g>
	<g>
		<defs>
			<path id="SVGID_45_" d="M153.393,101.973c-0.557-0.575-0.547-1.491,0.019-2.055c0.084-0.085,2.1-2.079,5.441-3.533
				c0.045-0.27,0.092-0.552,0.15-0.84l0.152-0.624c0.22-1.049,1.046-3.57,1.055-3.596c0.192-0.595,0.741-0.993,1.364-0.993
				c0.15,0,0.303,0.028,0.452,0.074c0.361,0.12,0.659,0.378,0.835,0.724c0.169,0.347,0.198,0.74,0.075,1.107
				c-0.186,0.564-0.716,2.229-0.926,3.099c2.306-0.538,4.662-0.591,6.977-0.161c0.777,0.139,1.298,0.896,1.155,1.682
				c-0.124,0.688-0.72,1.188-1.411,1.188c-0.087,0-0.172-0.005-0.262-0.023c-2.32-0.428-4.701-0.26-7.029,0.497
				c-0.717,6.037,0.969,8.937,1.733,9.907c0.712,0.906,1.305,1.507,2.037,1.718c0.515,0.146,1.003,0.22,1.462,0.22
				c2.244,0,3.266-1.795,3.652-2.47c0.071-0.13,0.119-0.215,0.17-0.28c0.293-0.379,0.73-0.609,1.176-0.609
				c0.422,0,0.799,0.21,1.037,0.571c0.637,0.978,0.293,1.655-0.037,2.306c-0.179,0.353-1.824,3.372-5.842,3.372h-0.003
				c-0.655,0-1.346-0.084-2.058-0.25c-0.672-0.152-2.4-0.746-3.918-2.869c-1.046-1.472-2.712-4.728-2.404-10.304
				c-1.719,0.964-2.803,1.947-3.019,2.151l-0.007,0.003c-0.266,0.27-0.625,0.417-1.003,0.417
				C154.031,102.402,153.668,102.251,153.393,101.973 M146.611,102.567c0,9.353,7.519,16.934,16.796,16.934
				c9.275,0,16.796-7.581,16.796-16.934c0-9.354-7.521-16.937-16.796-16.937C154.13,85.63,146.611,93.213,146.611,102.567"/>
		</defs>
		<clipPath id="SVGID_46_">
			<use xlink:href="#SVGID_45_"  overflow="visible"/>
		</clipPath>
		<g clip-path="url(#SVGID_46_)">
			<defs>
				<rect id="SVGID_47_" x="-26.705" y="-523.77" width="360" height="1083"/>
			</defs>
			<clipPath id="SVGID_48_">
				<use xlink:href="#SVGID_47_"  overflow="visible"/>
			</clipPath>
			<rect x="141.611" y="80.63" clip-path="url(#SVGID_48_)" fill="#E16B59" width="43.592" height="43.87"/>
		</g>
	</g>
	<g>
		<defs>
			<path id="SVGID_49_" d="M153.393,101.973c-0.559-0.576-0.547-1.492,0.02-2.055c0.084-0.083,2.099-2.079,5.438-3.534
				c0.048-0.269,0.094-0.551,0.152-0.839l0.152-0.625c0.221-1.048,1.047-3.568,1.056-3.596c0.192-0.593,0.739-0.992,1.363-0.992
				c0.151,0,0.303,0.027,0.45,0.075c0.363,0.118,0.661,0.377,0.838,0.724c0.17,0.347,0.197,0.738,0.072,1.107
				c-0.186,0.562-0.715,2.228-0.924,3.097c2.307-0.538,4.662-0.591,6.977-0.161c0.779,0.141,1.297,0.896,1.154,1.684
				c-0.122,0.687-0.719,1.188-1.41,1.188c-0.086,0-0.174-0.006-0.261-0.023c-2.321-0.428-4.702-0.262-7.031,0.497
				c-0.715,6.036,0.969,8.935,1.734,9.907c0.714,0.906,1.304,1.507,2.037,1.718c0.516,0.144,1.003,0.219,1.462,0.219
				c2.244,0,3.266-1.794,3.65-2.47c0.072-0.13,0.121-0.216,0.172-0.281c0.293-0.377,0.73-0.609,1.174-0.609
				c0.424,0,0.8,0.211,1.037,0.573c0.639,0.978,0.297,1.654-0.035,2.306c-0.179,0.352-1.824,3.371-5.843,3.371h-0.001
				c-0.655,0-1.347-0.083-2.059-0.251c-0.672-0.15-2.4-0.746-3.917-2.867c-1.046-1.474-2.712-4.728-2.405-10.304
				c-1.72,0.962-2.803,1.945-3.018,2.15l-0.009,0.003c-0.265,0.27-0.624,0.416-1.003,0.416
				C154.03,102.401,153.669,102.25,153.393,101.973z M146.611,102.566c0,9.354,7.519,16.936,16.794,16.936
				c9.277,0,16.799-7.581,16.799-16.936c0-9.353-7.521-16.937-16.799-16.937C154.13,85.629,146.611,93.213,146.611,102.566z"/>
		</defs>
		<clipPath id="SVGID_50_">
			<use xlink:href="#SVGID_49_"  overflow="visible"/>
		</clipPath>
		<g clip-path="url(#SVGID_50_)">
			<defs>
				<rect id="SVGID_51_" x="-26.705" y="-523.77" width="360" height="1083"/>
			</defs>
			<clipPath id="SVGID_52_">
				<use xlink:href="#SVGID_51_"  overflow="visible"/>
			</clipPath>
			<g clip-path="url(#SVGID_52_)" enable-background="new    ">
				<g>
					<defs>
						<rect id="SVGID_53_" x="146.295" y="85.23" width="34" height="35"/>
					</defs>
					<clipPath id="SVGID_54_">
						<use xlink:href="#SVGID_53_"  overflow="visible"/>
					</clipPath>
					<g clip-path="url(#SVGID_54_)">
						<defs>
							<rect id="SVGID_55_" x="146.417" y="84.54" width="34.877" height="36.437"/>
						</defs>
						<clipPath id="SVGID_56_">
							<use xlink:href="#SVGID_55_"  overflow="visible"/>
						</clipPath>
						<g clip-path="url(#SVGID_56_)">
							<defs>
								<rect id="SVGID_57_" x="146.295" y="85.23" width="34" height="35"/>
							</defs>
							<clipPath id="SVGID_58_">
								<use xlink:href="#SVGID_57_"  overflow="visible"/>
							</clipPath>
							<rect x="141.417" y="79.54" clip-path="url(#SVGID_58_)" fill="#B5F0FE" width="44.877" height="46.437"/>
						</g>
					</g>
					<g clip-path="url(#SVGID_54_)">
						<defs>
							<rect id="SVGID_59_" x="138.871" y="77.869" width="49.073" height="49.392"/>
						</defs>
						<clipPath id="SVGID_60_">
							<use xlink:href="#SVGID_59_"  overflow="visible"/>
						</clipPath>
						<g clip-path="url(#SVGID_60_)">
							<defs>
								<rect id="SVGID_61_" x="146.295" y="85.23" width="34" height="35"/>
							</defs>
							<clipPath id="SVGID_62_">
								<use xlink:href="#SVGID_61_"  overflow="visible"/>
							</clipPath>
							<rect x="133.871" y="72.869" clip-path="url(#SVGID_62_)" fill="#B5F0FE" width="59.073" height="59.392"/>
						</g>
					</g>
					<g clip-path="url(#SVGID_54_)">
						<defs>
							<rect id="SVGID_63_" x="146.417" y="84.54" width="34.877" height="36.437"/>
						</defs>
						<clipPath id="SVGID_64_">
							<use xlink:href="#SVGID_63_"  overflow="visible"/>
						</clipPath>
						<g clip-path="url(#SVGID_64_)">
							<defs>
								<rect id="SVGID_65_" x="146.295" y="85.23" width="34" height="35"/>
							</defs>
							<clipPath id="SVGID_66_">
								<use xlink:href="#SVGID_65_"  overflow="visible"/>
							</clipPath>
							<rect x="141.417" y="79.54" clip-path="url(#SVGID_66_)" fill="#B5F0FE" width="44.877" height="46.437"/>
						</g>
					</g>
					<g clip-path="url(#SVGID_54_)">
						<defs>
							<rect id="SVGID_67_" x="130.944" y="69.95" width="64.927" height="65.233"/>
						</defs>
						<clipPath id="SVGID_68_">
							<use xlink:href="#SVGID_67_"  overflow="visible"/>
						</clipPath>
						<g clip-path="url(#SVGID_68_)">
							<defs>
								<rect id="SVGID_69_" x="146.295" y="85.23" width="34" height="35"/>
							</defs>
							<clipPath id="SVGID_70_">
								<use xlink:href="#SVGID_69_"  overflow="visible"/>
							</clipPath>
							<rect x="125.944" y="64.95" clip-path="url(#SVGID_70_)" fill="#B5F0FE" width="74.927" height="75.233"/>
						</g>
					</g>
				</g>
			</g>
		</g>
	</g>
	<g>
		<defs>
			<path id="SVGID_71_" d="M129.652,60.413c-0.557-0.575-0.549-1.491,0.018-2.055c0.084-0.084,2.101-2.079,5.443-3.533
				c0.044-0.269,0.09-0.551,0.148-0.839l0.154-0.625c0.219-1.049,1.044-3.57,1.055-3.596c0.191-0.594,0.739-0.993,1.362-0.993
				c0.15,0,0.304,0.028,0.452,0.074c0.361,0.12,0.66,0.379,0.835,0.724c0.171,0.348,0.198,0.74,0.076,1.107
				c-0.186,0.564-0.716,2.229-0.926,3.099c2.306-0.538,4.663-0.591,6.976-0.161c0.779,0.14,1.299,0.896,1.156,1.683
				c-0.125,0.688-0.719,1.188-1.41,1.188c-0.087,0-0.173-0.004-0.264-0.023c-2.32-0.428-4.701-0.26-7.029,0.497
				c-0.716,6.038,0.969,8.937,1.734,9.908c0.713,0.906,1.305,1.506,2.037,1.717c0.514,0.146,1.004,0.221,1.463,0.221
				c2.244,0,3.264-1.795,3.65-2.47c0.071-0.13,0.121-0.216,0.17-0.281c0.295-0.378,0.73-0.609,1.178-0.609
				c0.42,0,0.799,0.211,1.037,0.572c0.637,0.978,0.293,1.655-0.039,2.305c-0.179,0.354-1.822,3.373-5.842,3.373h-0.003
				c-0.654,0-1.346-0.084-2.058-0.251c-0.672-0.151-2.398-0.746-3.916-2.869c-1.047-1.472-2.712-4.727-2.404-10.303
				c-1.721,0.963-2.803,1.946-3.019,2.151l-0.007,0.003c-0.266,0.27-0.626,0.416-1.003,0.416
				C130.29,60.841,129.928,60.691,129.652,60.413 M122.871,61.006c0,9.354,7.52,16.934,16.795,16.934
				c9.277,0,16.798-7.58,16.798-16.934c0-9.353-7.521-16.937-16.798-16.937C130.391,44.07,122.871,51.654,122.871,61.006"/>
		</defs>
		<clipPath id="SVGID_72_">
			<use xlink:href="#SVGID_71_"  overflow="visible"/>
		</clipPath>
		<g clip-path="url(#SVGID_72_)">
			<defs>
				<rect id="SVGID_73_" x="-26.705" y="-523.77" width="360" height="1083"/>
			</defs>
			<clipPath id="SVGID_74_">
				<use xlink:href="#SVGID_73_"  overflow="visible"/>
			</clipPath>
			<rect x="117.871" y="39.07" clip-path="url(#SVGID_74_)" fill="#E16B59" width="43.593" height="43.87"/>
		</g>
	</g>
	<g>
		<defs>
			<path id="SVGID_75_" d="M129.654,60.413c-0.559-0.575-0.552-1.492,0.018-2.055c0.082-0.084,2.099-2.079,5.44-3.533
				c0.044-0.271,0.092-0.551,0.15-0.839l0.152-0.625c0.219-1.049,1.046-3.57,1.056-3.596c0.191-0.594,0.738-0.993,1.361-0.993
				c0.151,0,0.305,0.028,0.453,0.074c0.362,0.12,0.66,0.377,0.835,0.724c0.171,0.348,0.198,0.74,0.075,1.107
				c-0.185,0.564-0.716,2.229-0.926,3.099c2.306-0.538,4.663-0.591,6.977-0.161c0.779,0.14,1.298,0.896,1.155,1.683
				c-0.124,0.688-0.718,1.189-1.409,1.189c-0.086,0-0.173-0.008-0.264-0.025c-2.32-0.426-4.7-0.26-7.029,0.499
				c-0.717,6.036,0.969,8.935,1.734,9.906c0.712,0.906,1.305,1.506,2.039,1.717c0.512,0.146,1.002,0.221,1.46,0.221
				c2.247,0,3.265-1.795,3.651-2.47c0.07-0.13,0.121-0.218,0.17-0.281c0.295-0.378,0.73-0.609,1.178-0.609
				c0.42,0,0.799,0.211,1.036,0.572c0.638,0.978,0.295,1.655-0.036,2.305c-0.182,0.354-1.823,3.373-5.844,3.373h-0.002
				c-0.656,0-1.346-0.084-2.057-0.251c-0.673-0.151-2.399-0.746-3.918-2.869c-1.047-1.473-2.713-4.727-2.404-10.302
				c-1.721,0.962-2.803,1.945-3.021,2.15l-0.005,0.003c-0.266,0.27-0.625,0.416-1.004,0.416
				C130.289,60.841,129.928,60.691,129.654,60.413z M122.871,61.006c0,9.354,7.519,16.934,16.795,16.934
				c9.278,0,16.799-7.58,16.799-16.934c0-9.353-7.521-16.937-16.799-16.937C130.39,44.07,122.871,51.654,122.871,61.006z"/>
		</defs>
		<clipPath id="SVGID_76_">
			<use xlink:href="#SVGID_75_"  overflow="visible"/>
		</clipPath>
		<g clip-path="url(#SVGID_76_)">
			<defs>
				<rect id="SVGID_77_" x="-26.705" y="-523.77" width="360" height="1083"/>
			</defs>
			<clipPath id="SVGID_78_">
				<use xlink:href="#SVGID_77_"  overflow="visible"/>
			</clipPath>
			<g clip-path="url(#SVGID_78_)" enable-background="new    ">
				<g>
					<defs>
						<rect id="SVGID_79_" x="122.295" y="43.23" width="35" height="35"/>
					</defs>
					<clipPath id="SVGID_80_">
						<use xlink:href="#SVGID_79_"  overflow="visible"/>
					</clipPath>
					<g clip-path="url(#SVGID_80_)">
						<defs>
							<rect id="SVGID_81_" x="122.678" y="42.98" width="34.876" height="36.437"/>
						</defs>
						<clipPath id="SVGID_82_">
							<use xlink:href="#SVGID_81_"  overflow="visible"/>
						</clipPath>
						<g clip-path="url(#SVGID_82_)">
							<defs>
								<rect id="SVGID_83_" x="122.295" y="43.23" width="35" height="35"/>
							</defs>
							<clipPath id="SVGID_84_">
								<use xlink:href="#SVGID_83_"  overflow="visible"/>
							</clipPath>
							<rect x="117.678" y="37.98" clip-path="url(#SVGID_84_)" fill="#B5F0FE" width="44.876" height="46.437"/>
						</g>
					</g>
					<g clip-path="url(#SVGID_80_)">
						<defs>
							<rect id="SVGID_85_" x="115.131" y="36.309" width="49.071" height="49.392"/>
						</defs>
						<clipPath id="SVGID_86_">
							<use xlink:href="#SVGID_85_"  overflow="visible"/>
						</clipPath>
						<g clip-path="url(#SVGID_86_)">
							<defs>
								<rect id="SVGID_87_" x="122.295" y="43.23" width="35" height="35"/>
							</defs>
							<clipPath id="SVGID_88_">
								<use xlink:href="#SVGID_87_"  overflow="visible"/>
							</clipPath>
							<rect x="110.131" y="31.309" clip-path="url(#SVGID_88_)" fill="#B5F0FE" width="59.071" height="59.392"/>
						</g>
					</g>
					<g clip-path="url(#SVGID_80_)">
						<defs>
							<rect id="SVGID_89_" x="122.678" y="42.98" width="34.876" height="36.437"/>
						</defs>
						<clipPath id="SVGID_90_">
							<use xlink:href="#SVGID_89_"  overflow="visible"/>
						</clipPath>
						<g clip-path="url(#SVGID_90_)">
							<defs>
								<rect id="SVGID_91_" x="122.295" y="43.23" width="35" height="35"/>
							</defs>
							<clipPath id="SVGID_92_">
								<use xlink:href="#SVGID_91_"  overflow="visible"/>
							</clipPath>
							<rect x="117.678" y="37.98" clip-path="url(#SVGID_92_)" fill="#B5F0FE" width="44.876" height="46.437"/>
						</g>
					</g>
					<g clip-path="url(#SVGID_80_)">
						<defs>
							<rect id="SVGID_93_" x="107.205" y="28.388" width="64.926" height="65.233"/>
						</defs>
						<clipPath id="SVGID_94_">
							<use xlink:href="#SVGID_93_"  overflow="visible"/>
						</clipPath>
						<g clip-path="url(#SVGID_94_)">
							<defs>
								<rect id="SVGID_95_" x="122.295" y="43.23" width="35" height="35"/>
							</defs>
							<clipPath id="SVGID_96_">
								<use xlink:href="#SVGID_95_"  overflow="visible"/>
							</clipPath>
							<rect x="102.205" y="23.388" clip-path="url(#SVGID_96_)" fill="#B5F0FE" width="74.926" height="75.233"/>
						</g>
					</g>
				</g>
			</g>
		</g>
	</g>
	<g>
		<defs>
			<path id="SVGID_97_" d="M107.459,108.037c-0.557-0.574-0.547-1.49,0.019-2.055c0.084-0.084,2.099-2.078,5.44-3.532
				c0.047-0.27,0.092-0.552,0.15-0.84l0.152-0.624c0.221-1.049,1.047-3.57,1.057-3.596c0.191-0.595,0.74-0.994,1.363-0.994
				c0.15,0,0.303,0.029,0.451,0.075c0.361,0.12,0.66,0.378,0.836,0.724c0.17,0.347,0.197,0.74,0.074,1.107
				c-0.186,0.563-0.715,2.229-0.926,3.099c2.307-0.539,4.662-0.591,6.977-0.161c0.779,0.139,1.299,0.896,1.156,1.682
				c-0.124,0.688-0.72,1.188-1.411,1.188c-0.087,0-0.173-0.005-0.262-0.023c-2.321-0.428-4.702-0.26-7.029,0.497
				c-0.716,6.037,0.969,8.937,1.733,9.907c0.711,0.906,1.305,1.507,2.037,1.718c0.515,0.146,1.003,0.22,1.461,0.22
				c2.245,0,3.266-1.795,3.652-2.47c0.072-0.13,0.119-0.215,0.17-0.28c0.293-0.379,0.73-0.609,1.176-0.609
				c0.422,0,0.8,0.21,1.037,0.571c0.638,0.978,0.293,1.655-0.036,2.306c-0.179,0.353-1.825,3.372-5.842,3.372h-0.003
				c-0.654,0-1.346-0.084-2.059-0.25c-0.672-0.152-2.399-0.746-3.916-2.869c-1.047-1.472-2.713-4.728-2.406-10.304
				c-1.718,0.964-2.803,1.947-3.018,2.151l-0.006,0.003c-0.268,0.27-0.627,0.417-1.004,0.417
				C108.098,108.466,107.734,108.316,107.459,108.037 M100.678,108.631c0,9.353,7.518,16.934,16.795,16.934
				c9.275,0,16.797-7.581,16.797-16.934c0-9.354-7.521-16.937-16.797-16.937C108.195,91.695,100.678,99.278,100.678,108.631"/>
		</defs>
		<clipPath id="SVGID_98_">
			<use xlink:href="#SVGID_97_"  overflow="visible"/>
		</clipPath>
		<g clip-path="url(#SVGID_98_)">
			<defs>
				<rect id="SVGID_99_" x="-26.705" y="-523.77" width="360" height="1083"/>
			</defs>
			<clipPath id="SVGID_100_">
				<use xlink:href="#SVGID_99_"  overflow="visible"/>
			</clipPath>
			<rect x="95.678" y="86.695" clip-path="url(#SVGID_100_)" fill="#E16B59" width="43.592" height="43.87"/>
		</g>
	</g>
	<g>
		<defs>
			<path id="SVGID_101_" d="M107.458,108.037c-0.556-0.574-0.547-1.491,0.019-2.055c0.084-0.083,2.1-2.079,5.441-3.533
				c0.047-0.27,0.092-0.55,0.15-0.838l0.154-0.626c0.219-1.049,1.045-3.57,1.056-3.595c0.19-0.594,0.739-0.993,1.361-0.993
				c0.152,0,0.304,0.028,0.452,0.073c0.361,0.122,0.659,0.379,0.836,0.726c0.17,0.346,0.197,0.739,0.074,1.107
				c-0.186,0.562-0.715,2.228-0.924,3.097c2.305-0.538,4.662-0.591,6.977-0.161c0.778,0.14,1.297,0.898,1.154,1.684
				c-0.124,0.688-0.721,1.188-1.411,1.188c-0.087,0-0.173-0.007-0.261-0.025c-2.322-0.428-4.703-0.259-7.03,0.497
				c-0.716,6.037,0.968,8.938,1.732,9.909c0.714,0.906,1.306,1.507,2.038,1.718c0.515,0.146,1.004,0.22,1.463,0.22
				c2.242,0,3.264-1.795,3.65-2.47c0.071-0.13,0.119-0.217,0.172-0.282c0.291-0.377,0.73-0.609,1.174-0.609
				c0.424,0,0.799,0.211,1.037,0.571c0.637,0.979,0.295,1.656-0.036,2.307c-0.178,0.354-1.825,3.373-5.843,3.373h-0.002
				c-0.655,0-1.347-0.084-2.059-0.25c-0.672-0.154-2.4-0.746-3.916-2.869c-1.047-1.474-2.712-4.729-2.406-10.304
				c-1.719,0.962-2.801,1.947-3.018,2.151l-0.008,0.002c-0.266,0.269-0.625,0.418-1.002,0.418
				C108.098,108.467,107.734,108.317,107.458,108.037z M100.678,108.632c0,9.353,7.52,16.933,16.795,16.933
				s16.797-7.58,16.797-16.933c0-9.354-7.521-16.938-16.797-16.938S100.678,99.279,100.678,108.632z"/>
		</defs>
		<clipPath id="SVGID_102_">
			<use xlink:href="#SVGID_101_"  overflow="visible"/>
		</clipPath>
		<g clip-path="url(#SVGID_102_)">
			<defs>
				<rect id="SVGID_103_" x="-26.705" y="-523.77" width="360" height="1083"/>
			</defs>
			<clipPath id="SVGID_104_">
				<use xlink:href="#SVGID_103_"  overflow="visible"/>
			</clipPath>
			<g clip-path="url(#SVGID_104_)" enable-background="new    ">
				<g>
					<defs>
						<rect id="SVGID_105_" x="100.295" y="91.23" width="34" height="35"/>
					</defs>
					<clipPath id="SVGID_106_">
						<use xlink:href="#SVGID_105_"  overflow="visible"/>
					</clipPath>
					<g clip-path="url(#SVGID_106_)">
						<defs>
							<rect id="SVGID_107_" x="100.482" y="90.606" width="34.877" height="36.436"/>
						</defs>
						<clipPath id="SVGID_108_">
							<use xlink:href="#SVGID_107_"  overflow="visible"/>
						</clipPath>
						<g clip-path="url(#SVGID_108_)">
							<defs>
								<rect id="SVGID_109_" x="100.295" y="91.23" width="34" height="35"/>
							</defs>
							<clipPath id="SVGID_110_">
								<use xlink:href="#SVGID_109_"  overflow="visible"/>
							</clipPath>
							<rect x="95.482" y="85.606" clip-path="url(#SVGID_110_)" fill="#B5F0FE" width="44.877" height="46.436"/>
						</g>
					</g>
				</g>
			</g>
		</g>
	</g>
	<g>
		<defs>
			<rect id="SVGID_111_" x="-26.705" y="-523.77" width="360" height="1083"/>
		</defs>
		<clipPath id="SVGID_112_">
			<use xlink:href="#SVGID_111_"  overflow="visible"/>
		</clipPath>
		
			<line clip-path="url(#SVGID_112_)" fill="none" stroke="#8797AA" stroke-width="2" stroke-linecap="round" stroke-miterlimit="10" x1="121.283" y1="164.467" x2="121.283" y2="122.521"/>
		
			<line clip-path="url(#SVGID_112_)" fill="none" stroke="#8797AA" stroke-width="2" stroke-linecap="round" stroke-miterlimit="10" x1="166.028" y1="164.467" x2="166.028" y2="114.227"/>
		
			<line clip-path="url(#SVGID_112_)" fill="none" stroke="#8797AA" stroke-width="2" stroke-linecap="round" stroke-miterlimit="10" x1="188.703" y1="164.326" x2="188.703" y2="89.202"/>
		
			<line clip-path="url(#SVGID_112_)" fill="none" stroke="#8797AA" stroke-width="2" stroke-linecap="round" stroke-miterlimit="10" x1="143.506" y1="165.155" x2="143.506" y2="75.101"/>
	</g>
	<g>
		<defs>
			<path id="SVGID_113_" d="M201.853,160.897h-87.22c-2.977,0-5.391,2.435-5.391,5.44v12.541c0,3.004,2.414,5.436,5.391,5.436h1.031
				l8.047,60.393h69.06l8.049-60.393h1.033c2.977,0,5.388-2.432,5.388-5.436v-12.541
				C207.24,163.332,204.829,160.897,201.853,160.897"/>
		</defs>
		<clipPath id="SVGID_114_">
			<use xlink:href="#SVGID_113_"  overflow="visible"/>
		</clipPath>
		<g clip-path="url(#SVGID_114_)">
			<defs>
				<rect id="SVGID_115_" x="-26.705" y="-523.77" width="360" height="1083"/>
			</defs>
			<clipPath id="SVGID_116_">
				<use xlink:href="#SVGID_115_"  overflow="visible"/>
			</clipPath>
			<rect x="104.242" y="155.897" clip-path="url(#SVGID_116_)" fill="#F3D16A" width="107.998" height="93.809"/>
		</g>
	</g>
	<g>
		<defs>
			<path id="SVGID_117_" d="M114.633,160.897c-2.975,0-5.391,2.436-5.391,5.439v12.542c0,3.004,2.416,5.436,5.391,5.436h1.031
				l8.047,60.395h69.061l8.048-60.395h1.035c2.974,0,5.387-2.432,5.387-5.436v-12.542c0-3.004-2.413-5.439-5.387-5.439H114.633z"/>
		</defs>
		<clipPath id="SVGID_118_">
			<use xlink:href="#SVGID_117_"  overflow="visible"/>
		</clipPath>
		<g clip-path="url(#SVGID_118_)">
			<defs>
				<rect id="SVGID_119_" x="-26.705" y="-523.77" width="360" height="1083"/>
			</defs>
			<clipPath id="SVGID_120_">
				<use xlink:href="#SVGID_119_"  overflow="visible"/>
			</clipPath>
			<g clip-path="url(#SVGID_120_)" enable-background="new    ">
				<g>
					<defs>
						<rect id="SVGID_121_" x="108.295" y="160.23" width="99" height="85"/>
					</defs>
					<clipPath id="SVGID_122_">
						<use xlink:href="#SVGID_121_"  overflow="visible"/>
					</clipPath>
					<g clip-path="url(#SVGID_122_)">
						<defs>
							<rect id="SVGID_123_" x="101.316" y="152.976" width="113.851" height="99.652"/>
						</defs>
						<clipPath id="SVGID_124_">
							<use xlink:href="#SVGID_123_"  overflow="visible"/>
						</clipPath>
						<g clip-path="url(#SVGID_124_)">
							<defs>
								<rect id="SVGID_125_" x="108.295" y="160.23" width="99" height="85"/>
							</defs>
							<clipPath id="SVGID_126_">
								<use xlink:href="#SVGID_125_"  overflow="visible"/>
							</clipPath>
							<rect x="96.316" y="147.976" clip-path="url(#SVGID_126_)" fill="#B5F0FE" width="123.851" height="109.652"/>
						</g>
					</g>
				</g>
			</g>
		</g>
	</g>
	<g>
		<defs>
			<path id="SVGID_127_" d="M207.354,178.813c0,3.002-2.415,5.436-5.388,5.436h-87.219c-2.979,0-5.394-2.434-5.394-5.436V166.27
				c0-3.002,2.415-5.438,5.394-5.438h87.219c2.973,0,5.388,2.436,5.388,5.438V178.813z"/>
		</defs>
		<clipPath id="SVGID_128_">
			<use xlink:href="#SVGID_127_"  overflow="visible"/>
		</clipPath>
		<g clip-path="url(#SVGID_128_)">
			<defs>
				<rect id="SVGID_129_" x="-26.705" y="-523.77" width="360" height="1083"/>
			</defs>
			<clipPath id="SVGID_130_">
				<use xlink:href="#SVGID_129_"  overflow="visible"/>
			</clipPath>
			<rect x="104.354" y="155.833" clip-path="url(#SVGID_130_)" fill="#99CCE4" width="108" height="33.417"/>
		</g>
	</g>
	<g>
		<defs>
			<rect id="SVGID_131_" x="-26.705" y="-523.77" width="360" height="1083"/>
		</defs>
		<clipPath id="SVGID_132_">
			<use xlink:href="#SVGID_131_"  overflow="visible"/>
		</clipPath>
		
			<polyline clip-path="url(#SVGID_132_)" fill="none" stroke="#8797AA" stroke-width="2" stroke-linecap="round" stroke-miterlimit="10" points="
			196.215,187.116 188.126,247.813 119.068,247.813 110.98,187.116 		"/>
		
			<path clip-path="url(#SVGID_132_)" fill="none" stroke="#8797AA" stroke-width="2" stroke-linecap="round" stroke-miterlimit="10" d="
			M202.597,181.983c0,3.002-2.415,5.434-5.387,5.434h-87.22c-2.979,0-5.392-2.432-5.392-5.434V169.44
			c0-3.004,2.413-5.438,5.392-5.438h87.22c2.972,0,5.387,2.434,5.387,5.438V181.983z"/>
		
			<line clip-path="url(#SVGID_132_)" fill="none" stroke="#8797AA" stroke-width="2" stroke-linecap="round" stroke-miterlimit="10" x1="117.252" y1="231.669" x2="40.625" y2="231.669"/>
		
			<line clip-path="url(#SVGID_132_)" fill="none" stroke="#8797AA" stroke-width="2" stroke-linecap="round" stroke-miterlimit="10" x1="34.178" y1="231.669" x2="17.295" y2="231.669"/>
		
			<line clip-path="url(#SVGID_132_)" fill="none" stroke="#8797AA" stroke-width="2" stroke-linecap="round" stroke-miterlimit="10" x1="287.17" y1="231.669" x2="249.149" y2="231.669"/>
		
			<line clip-path="url(#SVGID_132_)" fill="none" stroke="#8797AA" stroke-width="2" stroke-linecap="round" stroke-miterlimit="10" x1="243.021" y1="231.669" x2="191.009" y2="231.669"/>
	</g>
	<g>
		<defs>
			<path id="SVGID_133_" d="M111.27,109.058c-0.557-0.575-0.547-1.49,0.02-2.055c0.084-0.084,2.099-2.078,5.441-3.533
				c0.045-0.269,0.092-0.551,0.15-0.839l0.152-0.624c0.22-1.049,1.046-3.571,1.055-3.597c0.192-0.594,0.74-0.993,1.363-0.993
				c0.151,0,0.303,0.028,0.453,0.074c0.361,0.12,0.658,0.379,0.835,0.725c0.169,0.347,0.198,0.739,0.074,1.107
				c-0.186,0.563-0.715,2.229-0.926,3.098c2.307-0.538,4.663-0.591,6.978-0.161c0.777,0.14,1.298,0.896,1.155,1.683
				c-0.124,0.688-0.72,1.188-1.411,1.188c-0.087,0-0.173-0.005-0.262-0.024c-2.32-0.428-4.701-0.26-7.029,0.498
				c-0.717,6.037,0.969,8.936,1.732,9.907c0.713,0.906,1.305,1.507,2.037,1.717c0.516,0.146,1.004,0.221,1.463,0.221
				c2.244,0,3.266-1.795,3.652-2.47c0.07-0.13,0.119-0.216,0.17-0.28c0.293-0.379,0.73-0.61,1.176-0.61
				c0.422,0,0.799,0.211,1.037,0.572c0.637,0.978,0.293,1.655-0.037,2.305c-0.18,0.354-1.824,3.373-5.842,3.373h-0.003
				c-0.655,0-1.347-0.084-2.058-0.251c-0.672-0.151-2.4-0.746-3.918-2.868c-1.046-1.472-2.712-4.728-2.404-10.304
				c-1.719,0.963-2.803,1.946-3.019,2.151l-0.007,0.003c-0.266,0.27-0.626,0.417-1.003,0.417
				C111.908,109.488,111.546,109.336,111.27,109.058 M104.49,109.652c0,9.354,7.518,16.934,16.794,16.934s16.797-7.58,16.797-16.934
				c0-9.353-7.521-16.937-16.797-16.937S104.49,100.299,104.49,109.652"/>
		</defs>
		<clipPath id="SVGID_134_">
			<use xlink:href="#SVGID_133_"  overflow="visible"/>
		</clipPath>
		<g clip-path="url(#SVGID_134_)">
			<defs>
				<rect id="SVGID_135_" x="-26.705" y="-523.77" width="360" height="1083"/>
			</defs>
			<clipPath id="SVGID_136_">
				<use xlink:href="#SVGID_135_"  overflow="visible"/>
			</clipPath>
			<rect x="99.49" y="87.715" clip-path="url(#SVGID_136_)" fill="#8797AA" width="43.591" height="43.87"/>
		</g>
	</g>
	<g>
		<defs>
			<path id="SVGID_137_" d="M133.49,58.18c-0.557-0.575-0.547-1.491,0.02-2.055c0.084-0.084,2.099-2.079,5.441-3.533
				c0.045-0.269,0.092-0.551,0.15-0.839l0.152-0.625c0.22-1.049,1.046-3.57,1.055-3.596c0.192-0.594,0.74-0.993,1.363-0.993
				c0.151,0,0.303,0.028,0.453,0.074c0.361,0.12,0.658,0.379,0.835,0.724c0.169,0.348,0.198,0.74,0.074,1.107
				c-0.186,0.564-0.715,2.229-0.926,3.099c2.307-0.538,4.663-0.591,6.978-0.161c0.777,0.14,1.298,0.896,1.155,1.683
				c-0.124,0.688-0.72,1.188-1.411,1.188c-0.087,0-0.173-0.004-0.262-0.023c-2.32-0.428-4.701-0.26-7.029,0.497
				c-0.717,6.038,0.969,8.937,1.732,9.908c0.713,0.906,1.305,1.506,2.037,1.717c0.516,0.146,1.004,0.221,1.463,0.221
				c2.244,0,3.266-1.795,3.652-2.47c0.07-0.13,0.119-0.216,0.169-0.281c0.294-0.378,0.731-0.609,1.177-0.609
				c0.422,0,0.799,0.211,1.037,0.572c0.637,0.977,0.293,1.655-0.037,2.305c-0.18,0.354-1.824,3.373-5.842,3.373h-0.003
				c-0.655,0-1.347-0.084-2.058-0.251c-0.672-0.152-2.4-0.746-3.918-2.869c-1.046-1.472-2.712-4.727-2.404-10.303
				c-1.719,0.963-2.803,1.946-3.019,2.151l-0.007,0.003c-0.266,0.27-0.626,0.416-1.003,0.416
				C134.129,58.609,133.767,58.458,133.49,58.18 M126.711,58.774c0,9.354,7.518,16.934,16.794,16.934s16.797-7.58,16.797-16.934
				c0-9.353-7.521-16.937-16.797-16.937S126.711,49.421,126.711,58.774"/>
		</defs>
		<clipPath id="SVGID_138_">
			<use xlink:href="#SVGID_137_"  overflow="visible"/>
		</clipPath>
		<g clip-path="url(#SVGID_138_)">
			<defs>
				<rect id="SVGID_139_" x="-26.705" y="-523.77" width="360" height="1083"/>
			</defs>
			<clipPath id="SVGID_140_">
				<use xlink:href="#SVGID_139_"  overflow="visible"/>
			</clipPath>
			<rect x="121.711" y="36.837" clip-path="url(#SVGID_140_)" fill="#8797AA" width="43.591" height="43.87"/>
		</g>
	</g>
	<g>
		<defs>
			<path id="SVGID_141_" d="M156.563,101.973c-0.557-0.575-0.547-1.491,0.019-2.055c0.084-0.085,2.099-2.079,5.44-3.533
				c0.047-0.27,0.092-0.552,0.15-0.84l0.152-0.624c0.221-1.049,1.047-3.57,1.057-3.596c0.191-0.595,0.74-0.993,1.363-0.993
				c0.15,0,0.303,0.028,0.451,0.074c0.361,0.12,0.66,0.378,0.836,0.724c0.17,0.347,0.197,0.74,0.074,1.107
				c-0.186,0.564-0.715,2.229-0.926,3.099c2.307-0.538,4.662-0.591,6.977-0.161c0.779,0.139,1.299,0.896,1.156,1.682
				c-0.124,0.688-0.72,1.188-1.411,1.188c-0.087,0-0.173-0.005-0.262-0.023c-2.321-0.428-4.702-0.26-7.029,0.497
				c-0.716,6.037,0.969,8.937,1.733,9.907c0.711,0.906,1.305,1.507,2.037,1.718c0.515,0.146,1.003,0.22,1.461,0.22
				c2.245,0,3.266-1.795,3.652-2.47c0.072-0.13,0.119-0.215,0.17-0.28c0.293-0.379,0.73-0.609,1.176-0.609
				c0.422,0,0.8,0.21,1.037,0.571c0.638,0.978,0.293,1.655-0.036,2.306c-0.179,0.353-1.825,3.372-5.842,3.372h-0.003
				c-0.654,0-1.346-0.084-2.059-0.25c-0.672-0.152-2.399-0.746-3.917-2.869c-1.046-1.472-2.712-4.728-2.405-10.304
				c-1.718,0.964-2.803,1.947-3.018,2.151l-0.007,0.003c-0.267,0.27-0.626,0.417-1.003,0.417
				C157.202,102.402,156.839,102.251,156.563,101.973 M149.783,102.567c0,9.353,7.517,16.934,16.794,16.934
				c9.275,0,16.797-7.581,16.797-16.934c0-9.354-7.521-16.937-16.797-16.937C157.3,85.63,149.783,93.213,149.783,102.567"/>
		</defs>
		<clipPath id="SVGID_142_">
			<use xlink:href="#SVGID_141_"  overflow="visible"/>
		</clipPath>
		<g clip-path="url(#SVGID_142_)">
			<defs>
				<rect id="SVGID_143_" x="-26.705" y="-523.77" width="360" height="1083"/>
			</defs>
			<clipPath id="SVGID_144_">
				<use xlink:href="#SVGID_143_"  overflow="visible"/>
			</clipPath>
			<rect x="144.783" y="80.63" clip-path="url(#SVGID_144_)" fill="#8797AA" width="43.591" height="43.87"/>
		</g>
	</g>
	<g>
		<defs>
			<path id="SVGID_145_" d="M180.272,70.363c-0.557-0.574-0.547-1.49,0.02-2.055c0.084-0.084,2.099-2.078,5.44-3.532
				c0.046-0.27,0.093-0.552,0.151-0.84l0.152-0.624c0.22-1.049,1.045-3.571,1.055-3.596c0.192-0.595,0.74-0.994,1.363-0.994
				c0.151,0,0.303,0.029,0.452,0.075c0.362,0.12,0.659,0.378,0.835,0.724c0.17,0.347,0.199,0.74,0.075,1.107
				c-0.186,0.563-0.715,2.229-0.926,3.099c2.307-0.539,4.663-0.591,6.978-0.161c0.777,0.139,1.298,0.896,1.155,1.682
				c-0.124,0.688-0.72,1.188-1.411,1.188c-0.088,0-0.173-0.005-0.262-0.023c-2.32-0.428-4.701-0.26-7.029,0.497
				c-0.717,6.037,0.969,8.937,1.732,9.907c0.713,0.906,1.305,1.507,2.037,1.718c0.516,0.146,1.004,0.22,1.463,0.22
				c2.244,0,3.266-1.795,3.652-2.47c0.07-0.13,0.118-0.215,0.169-0.28c0.294-0.379,0.731-0.609,1.177-0.609
				c0.422,0,0.799,0.21,1.037,0.571c0.637,0.978,0.293,1.655-0.037,2.305c-0.18,0.354-1.824,3.373-5.842,3.373h-0.004
				c-0.654,0-1.346-0.084-2.057-0.25c-0.672-0.152-2.4-0.746-3.918-2.869c-1.046-1.472-2.713-4.728-2.404-10.304
				c-1.719,0.964-2.803,1.947-3.02,2.151l-0.006,0.003c-0.266,0.27-0.626,0.417-1.004,0.417
				C180.911,70.792,180.549,70.642,180.272,70.363 M173.492,70.958c0,9.353,7.519,16.934,16.795,16.934s16.796-7.581,16.796-16.934
				c0-9.354-7.52-16.937-16.796-16.937S173.492,61.604,173.492,70.958"/>
		</defs>
		<clipPath id="SVGID_146_">
			<use xlink:href="#SVGID_145_"  overflow="visible"/>
		</clipPath>
		<g clip-path="url(#SVGID_146_)">
			<defs>
				<rect id="SVGID_147_" x="-26.705" y="-523.77" width="360" height="1083"/>
			</defs>
			<clipPath id="SVGID_148_">
				<use xlink:href="#SVGID_147_"  overflow="visible"/>
			</clipPath>
			<rect x="168.492" y="49.021" clip-path="url(#SVGID_148_)" fill="#8797AA" width="43.591" height="43.87"/>
		</g>
	</g>
	<g>
		<defs>
			<rect id="SVGID_149_" x="-26.705" y="-523.77" width="360" height="1083"/>
		</defs>
		<clipPath id="SVGID_150_">
			<use xlink:href="#SVGID_149_"  overflow="visible"/>
		</clipPath>
		<path clip-path="url(#SVGID_150_)" fill="none" stroke="#8797AA" stroke-miterlimit="10" d="M239.324,13.604h-32.745
			c-2.893,0-5.238,2.345-5.238,5.236v13.088c0,2.892,2.346,5.235,5.238,5.235h3.115l3.902,5.179l3.9-5.179h21.827
			c2.894,0,5.239-2.344,5.239-5.235V18.84C244.563,15.949,242.218,13.604,239.324,13.604z"/>
		<g clip-path="url(#SVGID_150_)">
			<text transform="matrix(1 0 0 1 209.4336 29.0112)" fill="#8797AA" font-family="'Lato-Regular'" font-size="10">TEEM</text>
		</g>
		<path clip-path="url(#SVGID_150_)" fill="none" stroke="#8797AA" stroke-miterlimit="10" d="M95.295,98.501l-5.202-3.912
			c-0.242-2.652-2.446-4.736-5.163-4.736H52.361c-2.878,0-5.211,2.332-5.211,5.207v13.019c0,2.876,2.333,5.207,5.211,5.207H84.93
			c2.879,0,5.211-2.331,5.211-5.207v-5.699L95.295,98.501z"/>
		<g clip-path="url(#SVGID_150_)">
			<text transform="matrix(1 0 0 1 55.2441 104.2603)" fill="#8797AA" font-family="'Lato-Regular'" font-size="10">TEEM</text>
		</g>
	</g>
	<g>
		<defs>
			<path id="SVGID_151_" d="M189.28,217.78c0,3.467-2.814,6.279-6.285,6.279h-53.416c-3.47,0-6.284-2.812-6.284-6.279v-17.27
				c0-3.469,2.814-6.281,6.284-6.281h53.416c3.471,0,6.285,2.812,6.285,6.281V217.78z"/>
		</defs>
		<clipPath id="SVGID_152_">
			<use xlink:href="#SVGID_151_"  overflow="visible"/>
		</clipPath>
		<g clip-path="url(#SVGID_152_)">
			<defs>
				<rect id="SVGID_153_" x="-26.705" y="-523.77" width="360" height="1083"/>
			</defs>
			<clipPath id="SVGID_154_">
				<use xlink:href="#SVGID_153_"  overflow="visible"/>
			</clipPath>
			<rect x="118.295" y="189.229" clip-path="url(#SVGID_154_)" fill="#FFFFFF" width="75.985" height="39.83"/>
		</g>
	</g>
</g>
</svg>
