<?xml version="1.0" encoding="utf-8"?>
<!-- Generator: Adobe Illustrator 16.0.0, SVG Export Plug-In . SVG Version: 6.00 Build 0)  -->
<!DOCTYPE svg PUBLIC "-//W3C//DTD SVG 1.1//EN" "http://www.w3.org/Graphics/SVG/1.1/DTD/svg11.dtd">
<svg version="1.1" id="Capa_1" xmlns="http://www.w3.org/2000/svg" xmlns:xlink="http://www.w3.org/1999/xlink" x="0px" y="0px"
	 width="41px" height="37.193px" viewBox="0 0 41 37.193" enable-background="new 0 0 41 37.193" xml:space="preserve">
<path fill="#AED18F" d="M401.631,44.462c-2.002-3.327-6.545-2.919-9.537-1.266c-3.631,2.008-5.763,6.259-4.811,10.346
	c0.018,0.074,0.053,0.125,0.096,0.167c-0.498,0.448-1.013,0.88-1.562,1.286c-1.597,1.18-3.312,2.064-5.084,2.906
	c0.278-4.624,1.206-9.235,2.256-13.936c4.153-2.864,9.692-5.804,10.228-11.243c0.398-4.046-1.447-10.319-6.432-10.382
	c-4.322-0.053-7.102,4.973-8.064,8.572c-1.193,4.461-0.493,9.629,2.529,13.208c-1.727,5.932-2.816,12.27-2.45,18.387
	c-1.057-0.037-2.54-1.243-3.283-1.947c1.426-3.218,1.81-7.042-0.568-9.937c-2.052-2.495-5.582-2.978-8.355-1.399
	c-2.909,1.655-4.053,5.318-2,8.103c2.097,2.843,6.202,4.47,9.706,3.929c0.268,0.254,0.537,0.486,0.789,0.68
	c0.867,0.662,2.522,1.753,3.773,1.476c0.335,4.01,1.318,7.913,3.196,11.526c0.366,0.707,1.567,0.192,1.287-0.565
	c-0.075-0.2-0.147-0.4-0.222-0.6c-0.016-0.04-0.04-0.068-0.061-0.102c-2.002-5.05-2.58-9.964-2.381-14.859
	c2.201-0.7,4.43-1.838,6.414-3.285c0.054,0.127,0.134,0.248,0.277,0.341c3.395,2.215,7.608,1.783,10.789-0.63
	C401.263,52.886,403.889,48.215,401.631,44.462"/>
<path fill="#7C6453" d="M397.214,84c-0.223-8.598-7.247-15.504-15.898-15.504c-6.447,0-11.989,3.843-14.49,9.355
	c-0.838-0.156-1.695-0.246-2.576-0.246c-4.938,0-9.275,2.547-11.787,6.395H397.214z"/>
<g>
	<defs>
		<path id="SVGID_1_" d="M12.092,18.1c-0.466-0.483-0.458-1.253,0.018-1.727c0.071-0.07,1.762-1.748,4.567-2.968
			c0.038-0.226,0.077-0.462,0.127-0.705l0.126-0.523c0.186-0.882,0.879-3.003,0.888-3.021c0.159-0.499,0.621-0.835,1.141-0.835
			c0.131,0,0.256,0.024,0.383,0.062c0.301,0.103,0.551,0.318,0.702,0.608c0.142,0.292,0.164,0.622,0.061,0.931
			c-0.157,0.474-0.602,1.872-0.778,2.603c1.938-0.452,3.914-0.497,5.858-0.136c0.654,0.119,1.087,0.755,0.968,1.415
			C26.05,14.38,25.549,14.8,24.97,14.8c-0.072,0-0.144-0.003-0.218-0.021c-1.949-0.358-3.948-0.218-5.903,0.419
			c-0.6,5.071,0.813,7.507,1.455,8.324c0.598,0.762,1.093,1.265,1.712,1.442c0.431,0.122,0.84,0.185,1.225,0.185
			c1.886,0,2.741-1.508,3.066-2.075c0.06-0.109,0.101-0.182,0.142-0.236c0.248-0.317,0.615-0.512,0.988-0.512
			c0.355,0,0.671,0.177,0.873,0.479c0.534,0.821,0.248,1.392-0.034,1.938c-0.149,0.295-1.531,2.832-4.904,2.832h-0.003
			c-0.547,0-1.126-0.069-1.726-0.208c-0.565-0.127-2.014-0.627-3.286-2.411c-0.881-1.238-2.276-3.973-2.021-8.655
			c-1.441,0.807-2.353,1.636-2.534,1.806l-0.006,0.002c-0.223,0.226-0.524,0.352-0.841,0.352
			C12.628,18.461,12.325,18.333,12.092,18.1z M6.398,18.598c0,7.858,6.312,14.228,14.102,14.228c7.789,0,14.101-6.369,14.101-14.228
			c0-7.857-6.312-14.229-14.101-14.229C12.711,4.368,6.398,10.74,6.398,18.598z"/>
	</defs>
	<use xlink:href="#SVGID_1_"  overflow="visible" fill-rule="evenodd" clip-rule="evenodd" fill="#FFFFFF"/>
	<clipPath id="SVGID_2_">
		<use xlink:href="#SVGID_1_"  overflow="visible"/>
	</clipPath>
</g>
</svg>
