<?xml version="1.0" encoding="utf-8"?>
<!-- Generator: Adobe Illustrator 16.0.0, SVG Export Plug-In . SVG Version: 6.00 Build 0)  -->
<!DOCTYPE svg PUBLIC "-//W3C//DTD SVG 1.1//EN" "http://www.w3.org/Graphics/SVG/1.1/DTD/svg11.dtd">
<svg version="1.1" id="Capa_1" xmlns="http://www.w3.org/2000/svg" xmlns:xlink="http://www.w3.org/1999/xlink" x="0px" y="0px"
	 width="820px" height="383px" viewBox="0 0 820 383" enable-background="new 0 0 820 383" xml:space="preserve">
<rect x="-0.876" y="-2" opacity="0.4" fill="#84AFEF" width="820.871" height="384.475"/>
<g opacity="0.4">
	<g>
		<g>
			<path fill="#84AFEF" d="M567.437,251.438l-18.59-0.011c-3.797,0-6.88-3.093-6.88-6.877v-8.874
				c-2.736-0.535-5.466-1.224-8.161-2.061l-4.661,8.061c-1.215,2.113-3.492,3.438-5.948,3.438c-1.201,0-2.394-0.318-3.437-0.925
				l-16.101-9.292c-1.6-0.916-2.739-2.399-3.221-4.174c-0.471-1.771-0.228-3.638,0.694-5.228l4.434-7.685
				c-2.083-1.821-4.1-3.787-6.022-5.874l-8.066,4.65c-1.049,0.609-2.24,0.922-3.445,0.922c-2.455,0-4.747-1.308-5.966-3.435
				l-9.301-16.108c-0.916-1.595-1.16-3.448-0.691-5.212c0.479-1.782,1.619-3.268,3.218-4.184l7.655-4.434
				c-0.902-2.643-1.654-5.354-2.279-8.104h-9.279c-3.808,0-6.9-3.093-6.9-6.89v-18.583c0-3.8,3.093-6.896,6.9-6.896h8.857
				c0.544-2.768,1.232-5.489,2.068-8.147l-8.061-4.656c-1.594-0.916-2.732-2.404-3.215-4.185c-0.477-1.773-0.232-3.633,0.688-5.227
				l9.295-16.091c1.253-2.134,3.555-3.447,6.002-3.447c1.195,0,2.38,0.313,3.421,0.911l7.679,4.44
				c1.807-2.067,3.771-4.074,5.868-6.008l-4.665-8.067c-0.923-1.607-1.162-3.469-0.684-5.253c0.482-1.77,1.62-3.25,3.21-4.158
				l16.09-9.3c1.056-0.609,2.251-0.928,3.452-0.928c2.447,0,4.741,1.317,5.979,3.446l4.413,7.664
				c2.645-0.903,5.359-1.664,8.092-2.281v-9.295c0-3.794,3.1-6.885,6.896-6.885h18.584c3.798,0,6.898,3.091,6.898,6.885v8.872
				c2.777,0.545,5.511,1.233,8.151,2.061l4.655-8.048c1.226-2.121,3.52-3.446,5.969-3.446c1.191,0,2.384,0.315,3.424,0.912
				l16.104,9.308c3.286,1.899,4.417,6.12,2.525,9.414l-4.429,7.675c2.094,1.832,4.108,3.791,6.011,5.866l8.068-4.654
				c1.043-0.608,2.228-0.926,3.433-0.926c2.455,0,4.747,1.317,5.979,3.445l9.301,16.092c1.878,3.306,0.753,7.521-2.521,9.423
				l-7.664,4.427c0.911,2.681,1.677,5.395,2.296,8.108h9.285c1.85,0,3.574,0.719,4.877,2.024c1.304,1.303,2.012,3.029,1.996,4.873
				v18.573c-0.005,3.808-3.087,6.906-6.873,6.906h-8.869c-0.549,2.767-1.239,5.486-2.061,8.124l8.054,4.661
				c3.286,1.906,4.41,6.128,2.518,9.411l-9.294,16.101c-1.24,2.124-3.525,3.446-5.978,3.446c-1.189,0-2.375-0.319-3.421-0.912
				l-7.686-4.446c-1.84,2.093-3.801,4.11-5.882,6.012l4.652,8.056c1.902,3.32,0.769,7.537-2.521,9.427l-16.093,9.296
				c-1.062,0.608-2.256,0.924-3.444,0.924c-2.452,0-4.73-1.322-5.959-3.445l-4.431-7.659c-2.615,0.891-5.327,1.65-8.092,2.278v9.297
				C574.326,248.345,571.233,251.438,567.437,251.438L567.437,251.438z M531.75,228.229l1.737,0.576
				c3.649,1.225,7.378,2.167,11.097,2.792l1.857,0.315v12.634c0,1.318,1.076,2.396,2.411,2.396l18.589,0.013
				c1.33,0,2.416-1.084,2.416-2.409v-12.938l1.79-0.361c3.811-0.772,7.521-1.818,11.016-3.101l1.767-0.646l6.311,10.892
				c0.644,1.123,2.131,1.533,3.291,0.879l16.09-9.294c1.152-0.66,1.542-2.141,0.875-3.316l-6.491-11.212l1.391-1.205
				c2.89-2.539,5.584-5.28,7.979-8.181l1.206-1.455l10.935,6.318c1.106,0.63,2.646,0.222,3.284-0.896l9.298-16.101
				c0.665-1.146,0.268-2.619-0.879-3.283l-11.215-6.488l0.59-1.745c1.203-3.546,2.147-7.265,2.807-11.06l0.324-1.866h12.606
				c1.317,0,2.394-1.084,2.403-2.428v-18.583c0-0.648-0.241-1.244-0.697-1.706c-0.455-0.448-1.062-0.703-1.706-0.703h-12.936
				l-0.359-1.795c-0.742-3.688-1.793-7.402-3.121-11.028l-0.644-1.766l10.906-6.295c1.145-0.667,1.533-2.145,0.865-3.31
				l-9.284-16.082c-0.638-1.104-2.174-1.528-3.291-0.88l-11.237,6.48l-1.206-1.385c-2.527-2.879-5.275-5.562-8.178-7.968
				l-1.449-1.206l6.295-10.923c0.664-1.149,0.268-2.629-0.887-3.298l-16.094-9.3c-1.091-0.622-2.64-0.215-3.272,0.893l-6.492,11.213
				l-1.737-0.6c-3.53-1.196-7.259-2.137-11.086-2.796l-1.865-0.318V73.085c0-1.328-1.082-2.406-2.414-2.406H546.76
				c-1.331,0-2.42,1.071-2.42,2.406v12.942l-1.801,0.357c-3.744,0.754-7.447,1.796-11.014,3.108l-1.771,0.651l-6.276-10.904
				c-0.653-1.121-2.166-1.544-3.326-0.877l-16.09,9.297c-0.553,0.315-0.947,0.832-1.115,1.444c-0.167,0.622-0.076,1.284,0.247,1.846
				l6.488,11.228l-1.383,1.213c-2.945,2.58-5.624,5.337-7.972,8.173l-1.206,1.458l-10.927-6.312
				c-1.102-0.634-2.648-0.215-3.316,0.908l-9.289,16.079c-0.318,0.549-0.402,1.2-0.239,1.821c0.17,0.623,0.567,1.145,1.124,1.468
				l11.225,6.483l-0.59,1.739c-1.213,3.572-2.156,7.298-2.803,11.075l-0.312,1.866h-12.615c-1.335,0-2.427,1.086-2.427,2.421v18.579
				c0,1.33,1.086,2.418,2.427,2.418h12.934l0.364,1.807c0.742,3.757,1.791,7.46,3.101,11.013l0.655,1.769l-10.911,6.308
				c-0.562,0.318-0.958,0.837-1.119,1.449c-0.162,0.622-0.077,1.273,0.24,1.83l9.296,16.101c0.633,1.096,2.168,1.525,3.294,0.871
				l11.222-6.473l1.214,1.372c2.573,2.922,5.328,5.605,8.19,7.983l1.449,1.208l-6.303,10.932c-0.318,0.559-0.402,1.208-0.244,1.827
				c0.17,0.62,0.566,1.134,1.119,1.452l16.115,9.299c1.106,0.637,2.633,0.224,3.257-0.87L531.75,228.229L531.75,228.229z
				 M557.104,209.281c-27.826,0-50.45-22.638-50.45-50.454c0-27.826,22.629-50.463,50.45-50.463
				c27.829,0,50.469,22.642,50.469,50.463C607.575,186.644,584.93,209.281,557.104,209.281L557.104,209.281z M557.104,112.845
				c-25.351,0-45.972,20.624-45.972,45.982c0,25.347,20.621,45.972,45.972,45.972c25.359,0,45.987-20.625,45.987-45.972
				C603.091,133.469,582.46,112.845,557.104,112.845L557.104,112.845z"/>
		</g>
	</g>
	<g>
		<path fill="#84AFEF" d="M658.548,103.941h-9.26c-2.635,0-4.769-2.14-4.769-4.767v-5.99c0-0.438-0.462-1.071-0.875-1.212
			l-2.844-1.172c-0.511-0.239-1.346-0.089-1.6,0.17l-4.253,4.248c-1.806,1.793-4.949,1.788-6.737,0l-6.56-6.56
			c-0.896-0.893-1.395-2.094-1.395-3.376c0-1.279,0.499-2.479,1.399-3.369l4.235-4.236c0.3-0.297,0.421-1.075,0.233-1.457
			l-1.179-2.868c-0.185-0.54-0.84-1.008-1.266-1.008h-5.998c-2.63,0-4.764-2.137-4.764-4.773V58.31c0-2.627,2.134-4.767,4.764-4.767
			h5.998c0.426,0,1.075-0.473,1.21-0.872l1.163-2.847c0.259-0.529,0.138-1.314-0.17-1.62l-4.235-4.237
			c-0.895-0.885-1.395-2.089-1.395-3.363c0-1.286,0.5-2.479,1.4-3.371l6.554-6.556c1.785-1.788,4.939-1.796,6.738-0.003l4.236,4.241
			c0.166,0.167,0.556,0.323,0.982,0.323c0.277,0,0.43-0.058,0.481-0.09l2.851-1.186c0.561-0.191,1.022-0.829,1.022-1.259v-5.99
			c0-2.64,2.134-4.771,4.769-4.771h9.26c2.635,0,4.783,2.132,4.783,4.771v5.99c0,0.43,0.453,1.073,0.85,1.2l2.862,1.184
			c0.824,0.394,1.373,0.061,1.607-0.173l4.235-4.236c1.811-1.801,4.962-1.795,6.745,0.008l6.554,6.558
			c0.895,0.883,1.397,2.083,1.397,3.362c0,1.276-0.503,2.479-1.406,3.373l-4.236,4.232c-0.297,0.301-0.424,1.089-0.23,1.475
			l1.187,2.85c0.188,0.552,0.833,1.012,1.26,1.012h5.996c2.63,0,4.769,2.14,4.769,4.767v9.269c0,2.633-2.139,4.77-4.769,4.77h-5.996
			c-0.427,0-1.072,0.46-1.202,0.86l-1.181,2.868c-0.254,0.526-0.13,1.306,0.173,1.612l4.235,4.237
			c0.891,0.879,1.398,2.084,1.398,3.358c0,1.281-0.503,2.482-1.406,3.378l-6.55,6.557c-1.777,1.783-4.929,1.788-6.732,0.006
			l-4.242-4.24c-0.247-0.246-1.086-0.434-1.476-0.241l-2.839,1.18c-0.553,0.19-1.008,0.829-1.008,1.268v5.991
			C663.329,101.802,661.181,103.941,658.548,103.941L658.548,103.941z M640.176,86.167c0.877,0,1.739,0.193,2.473,0.562l2.561,1.054
			c2.101,0.699,3.787,3.046,3.787,5.402v5.99c0,0.162,0.125,0.289,0.283,0.289h9.261c0.165,0,0.295-0.14,0.295-0.289v-5.99
			c0-2.356,1.681-4.695,3.914-5.454l2.557-1.07c0.604-0.3,1.457-0.498,2.337-0.498c1.583,0,3.127,0.62,4.157,1.65l4.237,4.231
			c0.063,0.066,0.147,0.082,0.2,0.082l6.759-6.636l-0.005-0.006l0.005-0.398l-4.24-4.238c-1.668-1.676-2.129-4.526-1.071-6.628
			l1.054-2.566c0.691-2.093,3.034-3.787,5.396-3.787h5.995c0.15,0,0.283-0.133,0.283-0.283v-9.269c0-0.149-0.138-0.281-0.283-0.281
			h-5.995c-2.367,0-4.711-1.691-5.458-3.93l-1.065-2.558c-0.984-1.966-0.523-4.812,1.14-6.488l4.24-4.239l-0.006-0.006l0.006-0.395
			l-6.558-6.564c-0.265-0.076-0.347-0.056-0.41,0.008l-4.237,4.234c-1.604,1.605-4.583,2.095-6.631,1.078l-2.561-1.062
			c-2.087-0.684-3.775-3.023-3.775-5.396v-5.99c0-0.153-0.146-0.293-0.295-0.293h-9.261c-0.158,0-0.285,0.137-0.285,0.293v5.99
			c0,2.373-1.701,4.716-3.938,5.452l-2.548,1.072c-0.602,0.3-1.451,0.495-2.341,0.495c-1.574,0-3.128-0.61-4.155-1.641l-4.235-4.235
			h-0.402l-6.56,6.565l0,0v0.395l4.243,4.234c1.658,1.674,2.118,4.527,1.075,6.636l-1.051,2.554
			c-0.702,2.102-3.049,3.788-5.407,3.788h-5.999c-0.151,0-0.28,0.135-0.28,0.284v9.264c0,0.155,0.132,0.285,0.28,0.285h5.999
			c2.354,0,4.7,1.689,5.462,3.922l1.06,2.579c0.987,1.962,0.526,4.808-1.139,6.483l-4.243,4.238l0,0v0.404l6.56,6.554
			c0.263,0.082,0.337,0.059,0.409-0.004l4.233-4.233C637.034,86.787,638.589,86.167,640.176,86.167L640.176,86.167z M653.92,77.396
			c-7.971,0-14.454-6.485-14.454-14.453c0-7.969,6.483-14.454,14.454-14.454c7.968,0,14.456,6.485,14.456,14.454
			C668.378,70.911,661.89,77.396,653.92,77.396L653.92,77.396z M653.92,52.966c-5.501,0-9.981,4.477-9.981,9.978
			c0,5.503,4.476,9.983,9.981,9.983c5.497,0,9.975-4.476,9.975-9.983C663.892,57.442,659.42,52.966,653.92,52.966L653.92,52.966z"/>
	</g>
	<g>
		<path fill="#84AFEF" d="M362.012,48.241h-3.857c-1.098,0-1.986-0.892-1.986-1.985V43.76c0-0.183-0.191-0.446-0.363-0.505
			l-1.186-0.488c-0.213-0.1-0.561-0.037-0.666,0.071l-1.771,1.77c-0.752,0.747-2.062,0.745-2.807,0l-2.732-2.732
			c-0.373-0.372-0.582-0.872-0.582-1.406c0-0.533,0.209-1.033,0.584-1.404l1.764-1.765c0.125-0.123,0.176-0.447,0.098-0.606
			l-0.492-1.195c-0.076-0.225-0.35-0.42-0.527-0.42h-2.498c-1.096,0-1.984-0.89-1.984-1.988v-3.858c0-1.094,0.889-1.985,1.984-1.985
			h2.498c0.178,0,0.449-0.197,0.506-0.363l0.484-1.187c0.107-0.22,0.057-0.547-0.072-0.675l-1.764-1.765
			c-0.373-0.369-0.58-0.87-0.58-1.401c0-0.536,0.207-1.032,0.582-1.404l2.73-2.731c0.744-0.744,2.059-0.748,2.807-0.001l1.766,1.767
			c0.068,0.07,0.23,0.135,0.408,0.135c0.117,0,0.18-0.023,0.201-0.037l1.188-0.494c0.234-0.08,0.426-0.346,0.426-0.524v-2.495
			c0-1.1,0.889-1.988,1.986-1.988h3.857c1.098,0,1.994,0.889,1.994,1.988v2.495c0,0.179,0.188,0.447,0.354,0.5l1.191,0.493
			c0.344,0.164,0.573,0.025,0.671-0.072l1.764-1.765c0.754-0.75,2.066-0.748,2.811,0.003l2.73,2.732
			c0.371,0.367,0.582,0.867,0.582,1.4c0,0.532-0.211,1.033-0.586,1.405l-1.766,1.764c-0.123,0.125-0.176,0.453-0.096,0.614
			l0.494,1.187c0.078,0.23,0.348,0.422,0.525,0.422h2.498c1.096,0,1.986,0.892,1.986,1.985v3.861c0,1.097-0.891,1.987-1.986,1.987
			h-2.498c-0.178,0-0.447,0.191-0.502,0.358l-0.492,1.194c-0.105,0.22-0.053,0.544,0.072,0.672l1.766,1.765
			c0.371,0.367,0.582,0.869,0.582,1.399c0,0.534-0.209,1.034-0.586,1.407l-2.729,2.731c-0.74,0.743-2.053,0.745-2.805,0.003
			l-1.768-1.767c-0.104-0.103-0.452-0.181-0.614-0.101l-1.182,0.491c-0.23,0.079-0.42,0.346-0.42,0.528v2.496
			C364.004,47.35,363.109,48.241,362.012,48.241L362.012,48.241z M354.359,40.837c0.365,0,0.725,0.08,1.029,0.233l1.066,0.439
			c0.875,0.291,1.578,1.269,1.578,2.25v2.496c0,0.067,0.053,0.12,0.117,0.12h3.859c0.068,0,0.123-0.059,0.123-0.12V43.76
			c0-0.981,0.699-1.956,1.629-2.271l1.066-0.446c0.252-0.125,0.607-0.207,0.973-0.207c0.659,0,1.304,0.258,1.731,0.688l1.766,1.763
			c0.027,0.027,0.062,0.034,0.084,0.034l2.814-2.765l-0.002-0.003l0.002-0.166l-1.766-1.766c-0.695-0.697-0.887-1.885-0.445-2.761
			l0.438-1.069c0.289-0.871,1.264-1.577,2.248-1.577h2.498c0.062,0,0.117-0.056,0.117-0.118v-3.861c0-0.062-0.057-0.117-0.117-0.117
			h-2.498c-0.986,0-1.961-0.704-2.273-1.637l-0.443-1.065c-0.41-0.819-0.219-2.005,0.475-2.703l1.766-1.766l-0.002-0.003
			l0.002-0.164l-2.73-2.734c-0.111-0.032-0.145-0.023-0.172,0.003l-1.766,1.764c-0.668,0.669-1.909,0.873-2.761,0.449l-1.066-0.442
			c-0.871-0.285-1.574-1.26-1.574-2.248v-2.496c0-0.063-0.061-0.122-0.123-0.122h-3.857c-0.066,0-0.119,0.058-0.119,0.122v2.496
			c0,0.988-0.709,1.964-1.641,2.271l-1.061,0.446c-0.25,0.125-0.605,0.206-0.975,0.206c-0.656,0-1.303-0.254-1.732-0.684
			l-1.764-1.764h-0.168l-2.732,2.734l0,0v0.165l1.768,1.764c0.691,0.697,0.883,1.886,0.447,2.765l-0.438,1.063
			c-0.291,0.876-1.27,1.578-2.252,1.578h-2.5c-0.062,0-0.115,0.056-0.115,0.118v3.859c0,0.064,0.055,0.119,0.115,0.119h2.5
			c0.98,0,1.959,0.703,2.275,1.634l0.441,1.074c0.412,0.817,0.219,2.003-0.475,2.7l-1.768,1.766l0,0v0.169l2.732,2.73
			c0.109,0.034,0.141,0.024,0.172-0.002l1.762-1.764C353.051,41.095,353.697,40.837,354.359,40.837L354.359,40.837z M360.084,37.183
			c-3.32,0-6.021-2.701-6.021-6.021c0-3.32,2.701-6.021,6.021-6.021s6.023,2.701,6.023,6.021
			C366.107,34.481,363.404,37.183,360.084,37.183L360.084,37.183z M360.084,27.005c-2.291,0-4.158,1.865-4.158,4.157
			s1.865,4.159,4.158,4.159c2.291,0,4.156-1.865,4.156-4.159C364.238,28.87,362.375,27.005,360.084,27.005L360.084,27.005z"/>
	</g>
	<path fill="#84AFEF" d="M608.577,34.454h-3.338c-0.773,0-1.611-0.596-1.849-1.328l-0.62-1.511
		c-0.352-0.696-0.188-1.699,0.355-2.251l2.361-2.355c0.557-0.538,0.557-1.438,0-1.983l-3.641-3.65c-0.557-0.547-1.449-0.547-1.988,0
		l-2.36,2.355c-0.545,0.545-1.56,0.717-2.254,0.367l-1.504-0.622c-0.732-0.241-1.335-1.072-1.335-1.852V18.29
		c0-0.768-0.63-1.406-1.414-1.406h-5.15c-0.771,0-1.409,0.633-1.409,1.406v3.334c0,0.773-0.601,1.61-1.336,1.852l-1.503,0.622
		c-0.688,0.35-1.712,0.178-2.25-0.367l-2.352-2.355c-0.549-0.547-1.438-0.547-1.988,0l-3.652,3.65c-0.545,0.545-0.545,1.445,0,1.983
		l2.359,2.355c0.548,0.552,0.713,1.555,0.363,2.251l-0.612,1.511c-0.251,0.732-1.08,1.328-1.864,1.328h-3.332
		c-0.765,0-1.406,0.634-1.406,1.412v5.15c0,0.773,0.636,1.409,1.406,1.409h3.335c0.778,0,1.612,0.598,1.864,1.335l0.612,1.509
		c0.349,0.694,0.185,1.706-0.363,2.254l-2.357,2.356c-0.545,0.545-0.545,1.44,0,1.984l3.649,3.65c0.551,0.544,1.44,0.544,1.989,0
		l2.351-2.361c0.539-0.546,1.563-0.709,2.251-0.368l1.503,0.619c0.735,0.249,1.336,1.078,1.336,1.858v3.332
		c0,0.776,0.633,1.409,1.409,1.409h5.15c0.778,0,1.414-0.628,1.414-1.409v-3.332c0-0.775,0.607-1.609,1.335-1.858l1.504-0.619
		c0.694-0.341,1.709-0.178,2.254,0.368l2.359,2.361c0.54,0.544,1.436,0.544,1.989,0l3.641-3.65c0.557-0.547,0.557-1.439,0-1.984
		l-2.361-2.356c-0.544-0.548-0.705-1.56-0.355-2.254l0.62-1.509c0.237-0.737,1.075-1.335,1.849-1.335h3.338
		c0.769,0,1.406-0.631,1.406-1.409v-5.15C609.981,35.09,609.346,34.454,608.577,34.454z M588.42,45.238
		c-3.752,0-6.797-3.046-6.797-6.796c0-3.76,3.045-6.806,6.797-6.806c3.756,0,6.791,3.046,6.791,6.806
		C595.211,42.192,592.176,45.238,588.42,45.238z"/>
	<path fill="#84AFEF" d="M189.347,155.189h-3.338c-0.773,0-1.611-0.596-1.849-1.328l-0.62-1.511
		c-0.352-0.696-0.188-1.699,0.355-2.251l2.361-2.355c0.557-0.538,0.557-1.438,0-1.983l-3.641-3.65c-0.557-0.547-1.449-0.547-1.988,0
		l-2.36,2.355c-0.545,0.545-1.56,0.717-2.254,0.367l-1.504-0.622c-0.732-0.241-1.335-1.072-1.335-1.852v-3.334
		c0-0.768-0.63-1.406-1.414-1.406h-5.15c-0.771,0-1.409,0.633-1.409,1.406v3.334c0,0.773-0.601,1.61-1.336,1.852l-1.503,0.622
		c-0.688,0.35-1.712,0.178-2.25-0.367l-2.352-2.355c-0.549-0.547-1.438-0.547-1.988,0l-3.652,3.65c-0.545,0.545-0.545,1.445,0,1.983
		l2.359,2.355c0.548,0.552,0.713,1.555,0.363,2.251l-0.612,1.511c-0.251,0.732-1.08,1.328-1.864,1.328h-3.332
		c-0.765,0-1.406,0.634-1.406,1.412v5.15c0,0.773,0.636,1.409,1.406,1.409h3.335c0.778,0,1.612,0.598,1.864,1.335l0.612,1.509
		c0.349,0.694,0.185,1.706-0.363,2.254l-2.357,2.356c-0.545,0.545-0.545,1.44,0,1.984l3.649,3.65c0.551,0.544,1.44,0.544,1.989,0
		l2.351-2.361c0.539-0.546,1.563-0.709,2.251-0.368l1.503,0.619c0.735,0.249,1.336,1.078,1.336,1.858v3.332
		c0,0.776,0.633,1.409,1.409,1.409h5.15c0.778,0,1.414-0.628,1.414-1.409v-3.332c0-0.775,0.607-1.609,1.335-1.858l1.504-0.619
		c0.694-0.341,1.709-0.178,2.254,0.368l2.359,2.361c0.54,0.544,1.436,0.544,1.989,0l3.641-3.65c0.557-0.547,0.557-1.439,0-1.984
		l-2.361-2.356c-0.544-0.548-0.705-1.56-0.355-2.254l0.62-1.509c0.237-0.737,1.075-1.335,1.849-1.335h3.338
		c0.769,0,1.406-0.631,1.406-1.409v-5.15C190.751,155.825,190.115,155.189,189.347,155.189z M169.189,165.974
		c-3.752,0-6.797-3.046-6.797-6.796c0-3.76,3.045-6.806,6.797-6.806c3.756,0,6.791,3.046,6.791,6.806
		C175.98,162.928,172.945,165.974,169.189,165.974z"/>
</g>
<rect x="0.258" y="255" opacity="0.2" fill="#545454" width="820.871" height="129"/>
<g>
	<circle fill="#D9B13C" cx="248.095" cy="67.764" r="34.762"/>
	<g>
		<circle fill="#F2CF3A" cx="248.095" cy="67.764" r="23.129"/>
	</g>
</g>
<polygon fill="#6185DC" points="93.854,125.436 99.125,137.037 110.726,142.309 99.125,147.58 93.854,159.18 88.582,147.58 
	76.98,142.309 88.582,137.037 "/>
<polygon fill="#6185DC" points="766.145,86.436 769.45,93.711 776.726,97.018 769.45,100.323 766.145,107.598 762.838,100.323 
	755.562,97.018 762.838,93.711 "/>
<polygon fill="#FFFFFF" points="129.156,105.577 132.61,113.18 140.213,116.633 132.61,120.086 129.156,127.688 125.703,120.086 
	118.1,116.633 125.703,113.18 "/>
<polygon fill="#FFFFFF" points="742.508,72.577 744.603,77.188 749.213,79.281 744.603,81.376 742.508,85.985 740.414,81.376 
	735.803,79.281 740.414,77.188 "/>
<polygon fill="#FFFFFF" points="762.156,48.577 765.61,56.18 773.213,59.633 765.61,63.086 762.156,70.688 758.703,63.086 
	751.1,59.633 758.703,56.18 "/>
<g>
	<g>
		<g>
			<path fill="#294C84" d="M571.035,266.03c0,4.676-3.798,8.468-8.472,8.468H258.711c-4.679,0-8.47-3.794-8.47-8.468V90.811
				c0-4.681,3.79-8.47,8.47-8.47h303.853c4.681,0,8.472,3.792,8.472,8.47V266.03z"/>
			<rect x="262.473" y="96.113" opacity="0.4" fill="#545454" width="295.619" height="164.611"/>
			<circle opacity="0.4" fill="#545454" cx="410.636" cy="89.338" r="3.531"/>
			<path fill="#C7CBD0" d="M597.311,308.633c0.611,0.867-5.462,1.464-10.873,1.464H234.837c-5.415,0-11.388-0.713-10.772-1.577
				l25.064-32.453c0.613-0.862,4.901-1.568,9.58-1.568h303.853c4.676,0,8.966,0.706,9.578,1.568L597.311,308.633z"/>
			<path fill="#AAAFB3" d="M597.907,318.547c0,2.076-3.837,3.763-8.572,3.763H231.938c-4.737,0-8.572-1.687-8.572-3.763v-8.54
				c0-2.077,3.837-3.765,8.572-3.765h357.397c4.735,0,8.574,1.688,8.574,3.765v8.54H597.907z"/>
			<polygon fill="#F9F9F9" points="259.488,278.71 256.542,282.712 566.056,282.712 563.043,278.71 			"/>
			<polygon fill="#F9F9F9" points="255.469,285.088 252.613,289.091 570.79,289.091 567.661,285.088 			"/>
			<polygon fill="#F9F9F9" points="252.054,291.177 249.25,295.177 574.774,295.177 572.251,291.177 			"/>
			<g>
				<polygon fill="#F9F9F9" points="414.437,303.659 463.9,303.659 461.885,297.009 414.437,297.009 				"/>
				<polygon fill="#F9F9F9" points="408.562,297.009 360.717,297.009 359.098,303.659 408.562,303.659 				"/>
			</g>
		</g>
	</g>
	<g>
		<path fill="#FFFFFF" d="M429.238,195.996c-0.563-0.855-1.465-1.347-2.469-1.347c-1.058,0-2.106,0.538-2.806,1.438
			c-0.116,0.15-0.232,0.352-0.407,0.657c-0.915,1.599-3.349,5.843-8.696,5.843c-1.091,0-2.262-0.175-3.482-0.518
			c-1.754-0.494-3.157-1.92-4.856-4.062c-1.822-2.299-5.836-9.148-4.134-23.414c5.55-1.791,11.224-2.19,16.752-1.176
			c0.207,0.039,0.417,0.059,0.624,0.059c1.653,0,3.067-1.182,3.362-2.809c0.338-1.858-0.896-3.646-2.75-3.984
			c-5.518-1.015-11.136-0.886-16.63,0.386c0.507-2.056,1.771-5.988,2.213-7.321c0.288-0.869,0.221-1.798-0.189-2.617
			c-0.412-0.817-1.117-1.425-1.986-1.711c-0.349-0.116-0.711-0.176-1.076-0.176c-1.482,0-2.789,0.945-3.248,2.345
			c-0.02,0.06-1.997,6.026-2.514,8.499l-0.358,1.476c-0.14,0.684-0.253,1.346-0.363,1.987c-7.962,3.434-12.767,8.151-12.968,8.351
			c-1.344,1.325-1.363,3.499-0.036,4.852c0.651,0.655,1.519,1.016,2.44,1.016c0.904,0,1.752-0.347,2.391-0.978l0.017-0.015
			c0.517-0.482,3.095-2.807,7.192-5.081c-0.73,13.176,3.232,20.869,5.728,24.345c3.612,5.021,7.731,6.42,9.337,6.787
			c1.688,0.387,3.338,0.584,4.9,0.584c0.003,0,0.002,0,0.002,0c9.58,0,13.505-7.135,13.929-7.963
			C429.942,199.904,430.759,198.309,429.238,195.996z"/>
		<g>
			<path fill="#FFFFFF" d="M444.866,170.205c-1.257-4.645-3.328-8.99-6.16-12.918c-2.834-3.939-6.319-7.313-10.361-10.023
				c-4.074-2.734-8.56-4.689-13.336-5.811c-4.747-1.102-9.753-1.352-14.614-0.73c-4.925,0.626-9.654,2.129-14.059,4.466
				c-4.404,2.35-8.316,5.444-11.627,9.192c-3.333,3.767-5.935,8.056-7.73,12.748c-3.617,9.419-3.763,20.221-0.396,29.641
				c0.885,2.439,1.976,4.767,3.247,6.926c1.376,2.299,2.888,4.385,4.493,6.197c1.773,1.99,3.647,3.754,5.573,5.242
				c2.019,1.553,4.184,2.933,6.449,4.105c2.278,1.154,4.658,2.103,7.083,2.818c2.508,0.726,5.014,1.214,7.445,1.45
				c1.344,0.131,2.707,0.198,4.053,0.198c3.703,0,7.357-0.497,10.855-1.476c4.688-1.298,9.253-3.565,13.216-6.565
				c3.945-3.041,7.254-6.774,9.568-10.793c0.386-0.673,0.209-1.527-0.413-1.99l-0.537-0.399c-0.632-0.469-1.514-0.382-2.044,0.198
				c-5.813,6.387-13.446,10.637-21.498,11.968c-3.96,0.668-8.082,0.664-12.013-0.017c-3.951-0.683-7.691-2.018-11.121-3.973
				c-6.895-3.893-12.34-10.055-15.338-17.358c-3.066-7.349-3.334-15.837-0.735-23.294c1.317-3.815,3.296-7.333,5.882-10.459
				c2.59-3.142,5.693-5.768,9.23-7.812c3.539-2.066,7.387-3.46,11.432-4.145c4.041-0.684,8.26-0.645,12.284,0.117
				c4.082,0.756,7.97,2.238,11.557,4.406c3.601,2.175,6.753,4.952,9.379,8.259c5.248,6.572,8.051,15.217,7.688,23.714
				c-0.035,0.831,0.599,1.535,1.425,1.592l0.666,0.045c0.841,0.054,1.548-0.556,1.628-1.38
				C446.491,179.563,446.098,174.807,444.866,170.205z"/>
			<path fill="#FFFFFF" d="M449.659,161.406c-0.874-3.312-2.198-6.512-3.933-9.515c-1.756-2.988-3.903-5.738-6.384-8.175
				c-2.601-2.549-5.388-4.695-8.29-6.385c-3.088-1.79-6.427-3.021-9.924-3.658c-3.44-0.63-7.043-0.713-10.492-0.24
				c-3.65,0.51-6.961,1.567-9.834,3.147c-0.273,0.148-0.403,0.471-0.312,0.767l0.132,0.426c0.093,0.302,0.392,0.496,0.701,0.458
				c3.566-0.407,6.631-0.521,9.51-0.353c3.095,0.166,6.139,0.644,9.046,1.419c2.924,0.777,5.792,1.817,8.522,3.096
				c2.864,1.33,5.433,2.977,7.635,4.896c2.313,2.012,4.359,4.323,6.077,6.877c1.75,2.558,3.15,5.34,4.166,8.271
				c1.04,2.935,1.687,6.021,1.921,9.167c0.12,1.547,0.135,3.143,0.048,4.743c-0.075,1.569-0.258,3.163-0.543,4.737
				c-0.062,0.344,0.154,0.675,0.494,0.756l0.431,0.102c0.052,0.012,0.102,0.018,0.152,0.018c0.285,0,0.546-0.188,0.63-0.474
				c0.467-1.62,0.83-3.272,1.077-4.919c0.239-1.658,0.371-3.355,0.392-5.047C450.922,168.103,450.513,164.701,449.659,161.406z"/>
			<path fill="#FFFFFF" d="M456.379,162.167c-0.099-2.131-0.428-4.271-0.974-6.363c-0.587-2.248-1.299-4.249-2.177-6.113
				c-0.963-2.018-2.203-3.847-3.687-5.435c-1.515-1.625-3.213-3.017-5.049-4.134c-1.967-1.194-3.976-2.021-5.97-2.455
				c-0.195-0.041-0.393,0.052-0.483,0.231l-0.158,0.315c-0.091,0.181-0.047,0.397,0.105,0.529c1.714,1.469,3.123,2.717,4.419,4.04
				c1.336,1.353,2.597,2.808,3.747,4.328c1.169,1.555,2.22,3.086,3.212,4.678c1.074,1.718,1.907,3.43,2.478,5.09
				c0.634,1.818,1.072,3.692,1.311,5.571c0.262,1.889,0.326,3.831,0.191,5.777c-0.12,1.936-0.441,3.878-0.955,5.77
				c-0.523,1.904-1.233,3.768-2.107,5.539c-0.102,0.204-0.028,0.454,0.17,0.571l0.309,0.178c0.067,0.04,0.144,0.06,0.219,0.06
				c0.14,0,0.278-0.067,0.36-0.191c2.267-3.325,3.871-7.339,4.64-11.614C456.333,166.43,456.468,164.286,456.379,162.167z"/>
		</g>
	</g>
</g>
<g>
	<ellipse opacity="0.1" fill="#545454" cx="678.345" cy="311.412" rx="32.049" ry="7.549"/>
	<g>
		<g>
			<path fill="#D9B13C" d="M660.921,299.1c10.593-5.947,12.617-16.992,17.232-20.529c10.504-7.063,26.281-2.111,31.04,10.166
				c5.507,13.809-8.885,29.772-23.391,26.095c-2.802-0.53-6.353-3.871-9.154-4.4c-3.312-0.278-6.642,1.991-9.443,1.46
				c-2.8-0.529-12.96-5.697-8.84-11.535C658.622,299.591,659.898,299.602,660.921,299.1"/>
		</g>
		<g>
			<g>
				<path fill="#A27F29" d="M667.978,303.438c1.597-2.432,5.124-4.258,7.364-6.064c3.163-2.546,6.036-5.526,9.67-7.414
					c-0.678-0.46-1.354-0.92-2.04-1.377c-0.26,1.876-0.625,3.715-1.087,5.548c-0.224,0.895,0.277,1.772,1.239,1.867
					c1.938,0.198,3.867,0.211,5.812,0.274c-0.357-0.73-0.719-1.465-1.078-2.197c-0.911,1.823-4.392,3.053-3.919,5.537
					c0.509,2.638,4.818,3.263,6.585,4.59c-0.052-0.748-0.105-1.496-0.157-2.244c-2.617,2.174-8.904,1.806-12.136,2.052
					c-2.327,0.179-4.586,0.214-6.829,0.915c-2.341,0.728-2.579-0.358-3.429-2.383c-0.711-1.687-3.249-0.427-2.544,1.25
					c2.018,4.808,3.048,4.781,8.068,3.463c5.608-1.461,13.966,0.799,18.748-3.174c0.737-0.619,0.55-1.711-0.156-2.243
					c-1.564-1.175-3.479-1.728-5.166-2.696c0.388,0.227,3.011-2.92,3.296-3.497c0.445-0.888,0.091-2.158-1.08-2.198
					c-1.946-0.06-3.874-0.075-5.812-0.272c0.413,0.623,0.823,1.247,1.238,1.871c0.521-2.076,0.938-4.133,1.231-6.257
					c0.151-1.068-1.123-1.846-2.038-1.37c-3.414,1.775-6.171,4.404-9.11,6.846c-2.818,2.343-7.007,4.513-9.043,7.61
					C664.607,303.4,666.971,304.971,667.978,303.438L667.978,303.438z"/>
			</g>
		</g>
		<g>
			<g>
				<path fill="#A27F29" d="M657.371,300.721c1.221,4.69,3.815,8.722,5.984,13.012c0.826,1.632,3.37,0.384,2.546-1.25
					c-2.039-4.039-4.585-7.865-5.748-12.287C659.691,298.433,656.903,298.956,657.371,300.721L657.371,300.721z"/>
			</g>
		</g>
		<g>
			<g>
				<path fill="#A27F29" d="M653.025,303.201c1.335,4.53,3.746,8.537,5.85,12.732c0.816,1.636,3.363,0.385,2.546-1.25
					c-1.979-3.944-4.349-7.748-5.608-12.011C655.298,300.938,652.508,301.451,653.025,303.201L653.025,303.201z"/>
			</g>
		</g>
		<g>
			<g>
				<path fill="#A27F29" d="M653.485,306.436c-0.551,0.86-1.476,1.403-2.015,2.29c-0.74,1.22-0.523,2.687,0.249,3.823
					c1.672,2.472,4.726,1.636,6.786,0.216c0.639-0.438,0.59-1.478,0.123-2.005c-0.562-0.627-1.368-0.554-2.007-0.12
					c-0.779,0.536-2.406,1.262-2.772-0.104c-0.105-0.399,0.33-0.731,0.58-0.979c0.511-0.491,1.035-0.96,1.415-1.56
					C656.836,306.464,654.476,304.891,653.485,306.436L653.485,306.436z"/>
			</g>
		</g>
	</g>
</g>
<g>
	<ellipse opacity="0.1" fill="#545454" cx="553.978" cy="334.024" rx="32.05" ry="7.549"/>
	<g>
		<g>
			<path fill="#D9B13C" d="M571.401,321.712c-10.593-5.947-12.616-16.992-17.231-20.528c-10.505-7.064-26.282-2.112-31.041,10.165
				c-5.507,13.809,8.885,29.773,23.392,26.095c2.801-0.529,6.352-3.871,9.154-4.4c3.311-0.278,6.641,1.991,9.442,1.461
				c2.8-0.53,12.96-5.697,8.841-11.536C573.7,322.203,572.424,322.215,571.401,321.712"/>
		</g>
		<g>
			<g>
				<path fill="#A27F29" d="M564.345,326.051c-1.596-2.433-5.124-4.259-7.364-6.065c-3.163-2.546-6.036-5.526-9.67-7.414
					c0.678-0.46,1.354-0.92,2.041-1.377c0.259,1.876,0.625,3.716,1.086,5.548c0.225,0.895-0.277,1.772-1.238,1.867
					c-1.939,0.198-3.868,0.211-5.813,0.274c0.357-0.73,0.719-1.464,1.078-2.197c0.911,1.823,4.392,3.053,3.919,5.537
					c-0.509,2.638-4.818,3.263-6.585,4.59c0.052-0.748,0.106-1.496,0.158-2.244c2.616,2.175,8.903,1.806,12.135,2.052
					c2.328,0.179,4.586,0.214,6.829,0.915c2.341,0.728,2.579-0.358,3.429-2.382c0.711-1.688,3.249-0.428,2.544,1.249
					c-2.018,4.808-3.048,4.781-8.068,3.463c-5.608-1.461-13.966,0.8-18.748-3.173c-0.737-0.62-0.55-1.712,0.156-2.244
					c1.564-1.175,3.479-1.728,5.166-2.696c-0.388,0.227-3.011-2.92-3.296-3.497c-0.445-0.888-0.091-2.158,1.08-2.198
					c1.946-0.06,3.874-0.075,5.813-0.272c-0.413,0.623-0.824,1.248-1.239,1.871c-0.521-2.076-0.938-4.132-1.231-6.257
					c-0.151-1.068,1.123-1.846,2.038-1.37c3.414,1.775,6.171,4.404,9.11,6.846c2.819,2.343,7.007,4.513,9.043,7.611
					C567.715,326.013,565.353,327.583,564.345,326.051L564.345,326.051z"/>
			</g>
		</g>
		<g>
			<g>
				<path fill="#A27F29" d="M574.951,323.333c-1.221,4.69-3.815,8.722-5.984,13.013c-0.826,1.631-3.369,0.383-2.546-1.25
					c2.039-4.04,4.585-7.866,5.748-12.288C572.631,321.045,575.42,321.568,574.951,323.333L574.951,323.333z"/>
			</g>
		</g>
		<g>
			<g>
				<path fill="#A27F29" d="M579.297,325.814c-1.335,4.529-3.746,8.537-5.85,12.731c-0.816,1.636-3.363,0.385-2.546-1.25
					c1.979-3.944,4.35-7.748,5.609-12.011C577.025,323.55,579.815,324.064,579.297,325.814L579.297,325.814z"/>
			</g>
		</g>
		<g>
			<g>
				<path fill="#A27F29" d="M578.837,329.048c0.551,0.86,1.476,1.403,2.015,2.29c0.74,1.221,0.523,2.687-0.249,3.824
					c-1.672,2.471-4.726,1.635-6.786,0.215c-0.639-0.438-0.59-1.478-0.123-2.005c0.562-0.626,1.368-0.554,2.007-0.119
					c0.779,0.535,2.407,1.261,2.772-0.104c0.105-0.399-0.33-0.731-0.58-0.979c-0.511-0.492-1.035-0.961-1.415-1.561
					C575.487,329.077,577.847,327.504,578.837,329.048L578.837,329.048z"/>
			</g>
		</g>
	</g>
</g>
</svg>
