<?xml version="1.0" encoding="utf-8"?>
<!-- Generator: Adobe Illustrator 16.0.0, SVG Export Plug-In . SVG Version: 6.00 Build 0)  -->
<!DOCTYPE svg PUBLIC "-//W3C//DTD SVG 1.1//EN" "http://www.w3.org/Graphics/SVG/1.1/DTD/svg11.dtd">
<svg version="1.1" id="Capa_1" xmlns="http://www.w3.org/2000/svg" xmlns:xlink="http://www.w3.org/1999/xlink" x="0px" y="0px"
	 width="820px" height="404px" viewBox="0 0 820 404" enable-background="new 0 0 820 404" xml:space="preserve">
<rect x="2.162" opacity="0.1" fill="#8797AA" width="817.838" height="402.476"/>
<rect x="2.162" y="316.879" opacity="0.4" fill="#8797AA" width="817.838" height="87.121"/>
<path fill="#DAE0E5" d="M366.716,206.81l5.102-5.432c1.047,0.603,2.04,1.053,3.539,1.053c3.298,0,7.204-1.801,10.206-4.799
	c2.251-2.248,3.911-4.953,4.509-7.647c0.752-3.152,0.167-6.005-1.784-7.955c-1.352-1.346-3.258-2.102-5.361-2.102
	c-3.298,0-7.133,1.803-10.129,4.801c-2.251,2.253-3.751,4.949-4.355,7.652c-0.598,2.55-0.003,4.951,1.048,6.75l-2.874,3.281
	L366.716,206.81z M375.053,187.13c2.55-2.551,5.549-3.906,7.952-3.906c1.198,0,2.399,0.461,3.15,1.206
	c2.249,2.253,1.051,7.204-2.852,11.102c-2.55,2.552-5.547,3.898-7.952,3.898c-0.598,0-1.198,0-1.651-0.299l6.753-6.75
	c0.598-0.6,0.598-1.647,0-2.249c-0.6-0.6-1.651-0.6-2.251,0l-6.753,6.753C370.403,194.332,371.902,190.28,375.053,187.13z"/>
<path fill="#DAE0E5" d="M461.355,174.728l-2.867-3.282c1.05-1.799,1.644-4.2,1.043-6.75c-0.6-2.704-2.1-5.4-4.351-7.653
	c-3.003-2.999-6.831-4.801-10.135-4.801c-2.098,0-4.008,0.756-5.359,2.102c-1.948,1.949-2.537,4.803-1.786,7.955
	c0.6,2.694,2.264,5.398,4.513,7.647c2.999,2.997,6.906,4.799,10.207,4.799c1.501,0,2.491-0.45,3.54-1.052l5.098,5.432
	L461.355,174.728z M456.523,169.198l-6.75-6.751c-0.602-0.6-1.648-0.6-2.249,0c-0.602,0.602-0.602,1.649,0,2.25l6.75,6.75
	c-0.448,0.299-1.049,0.299-1.649,0.299c-2.402,0-5.399-1.346-7.953-3.9c-3.898-3.896-5.099-8.847-2.848-11.1
	c0.75-0.744,1.95-1.206,3.15-1.206c2.398,0,5.397,1.356,7.951,3.906C456.072,162.595,457.574,166.646,456.523,169.198z"/>
<path fill="#DAE0E5" d="M431.311,214.305l5.097-5.433c1.046,0.602,2.039,1.051,3.538,1.051c3.302,0,7.209-1.801,10.206-4.798
	c2.251-2.249,3.915-4.954,4.516-7.647c0.751-3.152,0.16-6.005-1.786-7.957c-1.35-1.346-3.262-2.1-5.359-2.1
	c-3.302,0-7.133,1.8-10.136,4.801c-2.251,2.253-3.75,4.949-4.354,7.651c-0.598,2.549-0.003,4.949,1.048,6.749l-2.868,3.281
	L431.311,214.305z M439.641,194.623c2.551-2.552,5.553-3.907,7.952-3.907c1.198,0,2.398,0.461,3.15,1.206
	c2.251,2.253,1.05,7.205-2.852,11.102c-2.55,2.552-5.548,3.899-7.95,3.899c-0.6,0-1.2,0-1.65-0.3l6.751-6.749
	c0.601-0.601,0.601-1.648,0-2.248c-0.601-0.601-1.646-0.601-2.251,0l-6.747,6.751C434.992,201.825,436.49,197.773,439.641,194.623z"
	/>
<g>
	<defs>
		<path id="SVGID_1_" d="M445.091,84.38c-0.806-0.834-0.791-2.159,0.027-2.972c0.121-0.12,3.034-3.006,7.86-5.109
			c0.068-0.39,0.136-0.797,0.22-1.213l0.221-0.903c0.317-1.518,1.512-5.165,1.524-5.201c0.277-0.859,1.069-1.436,1.969-1.436
			c0.219,0,0.439,0.04,0.652,0.107c0.524,0.173,0.955,0.545,1.21,1.047c0.246,0.5,0.286,1.069,0.108,1.602
			c-0.271,0.813-1.035,3.221-1.34,4.478c3.335-0.779,6.738-0.854,10.08-0.231c1.13,0.2,1.876,1.297,1.669,2.433
			c-0.178,0.995-1.037,1.718-2.035,1.718c-0.124,0-0.25-0.009-0.38-0.036c-3.351-0.617-6.793-0.376-10.156,0.721
			c-1.035,8.73,1.4,12.922,2.504,14.327c1.031,1.312,1.885,2.18,2.944,2.485c0.744,0.209,1.451,0.317,2.112,0.317
			c3.245,0,4.718-2.596,5.275-3.572c0.104-0.188,0.176-0.312,0.247-0.407c0.425-0.545,1.056-0.881,1.699-0.881
			c0.61,0,1.155,0.304,1.5,0.828c0.921,1.414,0.425,2.394-0.055,3.333c-0.259,0.511-2.634,4.878-8.442,4.878H464.5
			c-0.942,0-1.94-0.121-2.97-0.363c-0.972-0.219-3.468-1.078-5.66-4.148c-1.512-2.128-3.92-6.837-3.477-14.9
			c-2.482,1.392-4.05,2.815-4.363,3.11l-0.009,0.003c-0.384,0.391-0.903,0.605-1.449,0.605
			C446.013,85.002,445.489,84.782,445.091,84.38z M435.292,85.239c0,13.526,10.865,24.487,24.269,24.487
			c13.406,0,24.274-10.961,24.274-24.487c0-13.526-10.868-24.493-24.274-24.493C446.157,60.746,435.292,71.713,435.292,85.239z"/>
	</defs>
	<use xlink:href="#SVGID_1_"  overflow="visible" fill-rule="evenodd" clip-rule="evenodd" fill="#81CCBE"/>
	<clipPath id="SVGID_2_">
		<use xlink:href="#SVGID_1_"  overflow="visible"/>
	</clipPath>
	<g clip-path="url(#SVGID_2_)" enable-background="new    ">
		<g>
			<defs>
				<rect id="SVGID_3_" x="435.011" y="59.17" width="50.4" height="52.69"/>
			</defs>
			<use xlink:href="#SVGID_3_"  overflow="visible" fill="#81CCBE"/>
			<clipPath id="SVGID_4_">
				<use xlink:href="#SVGID_3_"  overflow="visible"/>
			</clipPath>
			<g clip-path="url(#SVGID_4_)">
				<defs>
					<rect id="SVGID_5_" x="424.106" y="49.523" width="70.914" height="71.426"/>
				</defs>
				<use xlink:href="#SVGID_5_"  overflow="visible" fill-rule="evenodd" clip-rule="evenodd" fill="#81CCBE"/>
				<clipPath id="SVGID_6_">
					<use xlink:href="#SVGID_5_"  overflow="visible"/>
				</clipPath>
				<g clip-path="url(#SVGID_6_)">
					<defs>
						<rect id="SVGID_7_" x="435.011" y="59.17" width="50.4" height="52.69"/>
					</defs>
					<use xlink:href="#SVGID_7_"  overflow="visible" fill="#81CCBE"/>
					<clipPath id="SVGID_8_">
						<use xlink:href="#SVGID_7_"  overflow="visible"/>
					</clipPath>
					<rect x="412.652" y="38.068" clip-path="url(#SVGID_8_)" fill="#81CCBE" width="93.824" height="94.335"/>
				</g>
			</g>
		</g>
	</g>
</g>
<g>
	<defs>
		<path id="SVGID_9_" d="M410.729,130.09c-0.807-0.832-0.792-2.156,0.025-2.971c0.121-0.121,3.035-3.006,7.861-5.109
			c0.067-0.389,0.135-0.796,0.22-1.211l0.22-0.905c0.317-1.518,1.513-5.164,1.525-5.199c0.277-0.859,1.069-1.437,1.968-1.437
			c0.22,0,0.44,0.04,0.653,0.107c0.523,0.175,0.954,0.547,1.21,1.047c0.246,0.502,0.286,1.071,0.107,1.602
			c-0.27,0.815-1.034,3.222-1.339,4.48c3.334-0.778,6.738-0.855,10.08-0.233c1.13,0.203,1.875,1.297,1.669,2.435
			c-0.179,0.993-1.038,1.717-2.035,1.717c-0.124,0-0.25-0.01-0.38-0.035c-3.351-0.618-6.793-0.376-10.156,0.721
			c-1.035,8.729,1.4,12.922,2.504,14.327c1.031,1.312,1.885,2.179,2.944,2.483c0.744,0.209,1.45,0.317,2.112,0.317
			c3.243,0,4.717-2.594,5.275-3.57c0.103-0.188,0.175-0.314,0.246-0.407c0.426-0.547,1.057-0.882,1.7-0.882
			c0.609,0,1.155,0.305,1.5,0.828c0.921,1.414,0.425,2.396-0.056,3.335c-0.258,0.509-2.633,4.876-8.441,4.876h-0.006
			c-0.943,0-1.94-0.12-2.97-0.361c-0.972-0.22-3.468-1.078-5.66-4.148c-1.512-2.13-3.92-6.836-3.477-14.9
			c-2.483,1.392-4.05,2.815-4.364,3.11l-0.009,0.004c-0.383,0.388-0.902,0.604-1.448,0.604
			C411.649,130.712,411.126,130.493,410.729,130.09z M400.928,130.949c0,13.526,10.865,24.49,24.269,24.49
			c13.405,0,24.273-10.963,24.273-24.49c0-13.526-10.868-24.492-24.273-24.492C411.793,106.457,400.928,117.423,400.928,130.949z"/>
	</defs>
	<use xlink:href="#SVGID_9_"  overflow="visible" fill-rule="evenodd" clip-rule="evenodd" fill="#81CCBE"/>
	<clipPath id="SVGID_10_">
		<use xlink:href="#SVGID_9_"  overflow="visible"/>
	</clipPath>
	<g clip-path="url(#SVGID_10_)" enable-background="new    ">
		<g>
			<defs>
				<rect id="SVGID_11_" x="400.647" y="104.882" width="50.399" height="52.691"/>
			</defs>
			<use xlink:href="#SVGID_11_"  overflow="visible" fill="#81CCBE"/>
			<clipPath id="SVGID_12_">
				<use xlink:href="#SVGID_11_"  overflow="visible"/>
			</clipPath>
			<g clip-path="url(#SVGID_12_)">
				<defs>
					<rect id="SVGID_13_" x="389.743" y="95.234" width="70.914" height="71.425"/>
				</defs>
				<use xlink:href="#SVGID_13_"  overflow="visible" fill-rule="evenodd" clip-rule="evenodd" fill="#81CCBE"/>
				<clipPath id="SVGID_14_">
					<use xlink:href="#SVGID_13_"  overflow="visible"/>
				</clipPath>
				<g clip-path="url(#SVGID_14_)">
					<defs>
						<rect id="SVGID_15_" x="400.647" y="104.882" width="50.399" height="52.691"/>
					</defs>
					<use xlink:href="#SVGID_15_"  overflow="visible" fill="#81CCBE"/>
					<clipPath id="SVGID_16_">
						<use xlink:href="#SVGID_15_"  overflow="visible"/>
					</clipPath>
					<rect x="378.287" y="83.78" clip-path="url(#SVGID_16_)" fill="#81CCBE" width="93.826" height="94.334"/>
				</g>
			</g>
		</g>
	</g>
</g>
<g>
	<defs>
		<path id="SVGID_17_" d="M376.422,69.99c-0.806-0.832-0.797-2.157,0.022-2.972c0.12-0.12,3.037-3.006,7.866-5.109
			c0.062-0.389,0.129-0.795,0.215-1.211l0.222-0.905c0.314-1.517,1.509-5.165,1.527-5.199c0.271-0.859,1.065-1.438,1.964-1.438
			c0.219,0,0.441,0.042,0.653,0.108c0.523,0.175,0.958,0.547,1.208,1.047c0.25,0.501,0.286,1.071,0.11,1.602
			c-0.268,0.815-1.038,3.221-1.336,4.48c3.329-0.779,6.739-0.855,10.08-0.234c1.128,0.203,1.875,1.299,1.669,2.436
			c-0.179,0.993-1.038,1.716-2.036,1.716c-0.126,0-0.25-0.007-0.38-0.034c-3.356-0.619-6.797-0.376-10.162,0.721
			c-1.033,8.728,1.401,12.922,2.51,14.327c1.028,1.311,1.884,2.178,2.944,2.483c0.739,0.209,1.45,0.317,2.113,0.317
			c3.243,0,4.715-2.595,5.275-3.57c0.103-0.188,0.175-0.313,0.247-0.407c0.425-0.545,1.056-0.881,1.7-0.881
			c0.608,0,1.155,0.302,1.5,0.826c0.921,1.414,0.425,2.396-0.055,3.334c-0.259,0.509-2.636,4.876-8.442,4.876h-0.006
			c-0.949,0-1.946-0.121-2.975-0.362c-0.97-0.221-3.464-1.08-5.655-4.147c-1.518-2.131-3.92-6.837-3.477-14.9
			c-2.489,1.392-4.05,2.814-4.364,3.109l-0.009,0.005c-0.385,0.388-0.903,0.604-1.449,0.604
			C377.339,70.611,376.817,70.393,376.422,69.99z M366.618,70.849c0,13.526,10.868,24.489,24.271,24.489
			c13.409,0,24.277-10.963,24.277-24.489c0-13.526-10.869-24.493-24.277-24.493C377.486,46.355,366.618,57.322,366.618,70.849z"/>
	</defs>
	<use xlink:href="#SVGID_17_"  overflow="visible" fill-rule="evenodd" clip-rule="evenodd" fill="#81CCBE"/>
	<clipPath id="SVGID_18_">
		<use xlink:href="#SVGID_17_"  overflow="visible"/>
	</clipPath>
	<g clip-path="url(#SVGID_18_)" enable-background="new    ">
		<g>
			<defs>
				<rect id="SVGID_19_" x="366.34" y="44.781" width="50.4" height="52.691"/>
			</defs>
			<use xlink:href="#SVGID_19_"  overflow="visible" fill="#81CCBE"/>
			<clipPath id="SVGID_20_">
				<use xlink:href="#SVGID_19_"  overflow="visible"/>
			</clipPath>
			<g clip-path="url(#SVGID_20_)">
				<defs>
					<rect id="SVGID_21_" x="355.438" y="35.133" width="70.911" height="71.425"/>
				</defs>
				<use xlink:href="#SVGID_21_"  overflow="visible" fill-rule="evenodd" clip-rule="evenodd" fill="#81CCBE"/>
				<clipPath id="SVGID_22_">
					<use xlink:href="#SVGID_21_"  overflow="visible"/>
				</clipPath>
				<g clip-path="url(#SVGID_22_)">
					<defs>
						<rect id="SVGID_23_" x="366.34" y="44.781" width="50.4" height="52.691"/>
					</defs>
					<use xlink:href="#SVGID_23_"  overflow="visible" fill="#81CCBE"/>
					<clipPath id="SVGID_24_">
						<use xlink:href="#SVGID_23_"  overflow="visible"/>
					</clipPath>
					<rect x="343.982" y="23.679" clip-path="url(#SVGID_24_)" fill="#81CCBE" width="93.826" height="94.334"/>
				</g>
			</g>
		</g>
	</g>
</g>
<g>
	<defs>
		<path id="SVGID_25_" d="M344.349,138.86c-0.805-0.832-0.792-2.156,0.027-2.972c0.121-0.12,3.033-3.006,7.862-5.109
			c0.067-0.391,0.133-0.797,0.219-1.213l0.218-0.903c0.318-1.518,1.513-5.165,1.527-5.201c0.277-0.859,1.069-1.436,1.968-1.436
			c0.219,0,0.438,0.04,0.653,0.108c0.523,0.175,0.952,0.545,1.208,1.047c0.246,0.501,0.287,1.069,0.107,1.602
			c-0.268,0.813-1.033,3.221-1.337,4.478c3.333-0.777,6.739-0.854,10.08-0.232c1.128,0.201,1.876,1.297,1.669,2.434
			c-0.178,0.994-1.038,1.718-2.036,1.718c-0.126,0-0.25-0.009-0.381-0.036c-3.351-0.617-6.791-0.376-10.157,0.721
			c-1.033,8.73,1.401,12.922,2.506,14.327c1.029,1.311,1.885,2.18,2.944,2.485c0.743,0.209,1.451,0.317,2.113,0.317
			c3.244,0,4.715-2.596,5.276-3.57c0.102-0.188,0.173-0.313,0.246-0.409c0.425-0.545,1.057-0.881,1.7-0.881
			c0.607,0,1.155,0.304,1.498,0.828c0.923,1.414,0.427,2.394-0.053,3.333c-0.259,0.511-2.636,4.878-8.444,4.878h-0.004
			c-0.944,0-1.942-0.121-2.971-0.363c-0.97-0.219-3.468-1.079-5.66-4.148c-1.513-2.129-3.919-6.837-3.476-14.9
			c-2.485,1.392-4.049,2.815-4.363,3.11l-0.009,0.006c-0.385,0.389-0.903,0.604-1.45,0.604
			C345.272,139.482,344.748,139.262,344.349,138.86z M334.551,139.72c0,13.526,10.863,24.487,24.269,24.487
			s24.274-10.961,24.274-24.487c0-13.526-10.868-24.493-24.274-24.493S334.551,126.193,334.551,139.72z"/>
	</defs>
	<use xlink:href="#SVGID_25_"  overflow="visible" fill-rule="evenodd" clip-rule="evenodd" fill="#B2409E"/>
	<clipPath id="SVGID_26_">
		<use xlink:href="#SVGID_25_"  overflow="visible"/>
	</clipPath>
	<g clip-path="url(#SVGID_26_)" enable-background="new    ">
		<g>
			<defs>
				<rect id="SVGID_27_" x="334.268" y="113.65" width="50.4" height="52.691"/>
			</defs>
			<use xlink:href="#SVGID_27_"  overflow="visible" fill="#81CCBE"/>
			<clipPath id="SVGID_28_">
				<use xlink:href="#SVGID_27_"  overflow="visible"/>
			</clipPath>
			<g clip-path="url(#SVGID_28_)">
				<defs>
					<rect id="SVGID_29_" x="323.365" y="104.004" width="70.915" height="71.426"/>
				</defs>
				<use xlink:href="#SVGID_29_"  overflow="visible" fill-rule="evenodd" clip-rule="evenodd" fill="#81CCBE"/>
				<clipPath id="SVGID_30_">
					<use xlink:href="#SVGID_29_"  overflow="visible"/>
				</clipPath>
				<g clip-path="url(#SVGID_30_)">
					<defs>
						<rect id="SVGID_31_" x="334.268" y="113.65" width="50.4" height="52.691"/>
					</defs>
					<use xlink:href="#SVGID_31_"  overflow="visible" fill="#81CCBE"/>
					<clipPath id="SVGID_32_">
						<use xlink:href="#SVGID_31_"  overflow="visible"/>
					</clipPath>
					<rect x="311.91" y="92.55" clip-path="url(#SVGID_32_)" fill="#81CCBE" width="93.824" height="94.333"/>
				</g>
			</g>
		</g>
	</g>
</g>
<line fill="none" stroke="#8797AA" stroke-width="3" stroke-linecap="round" stroke-miterlimit="10" x1="364.329" y1="220.464" x2="364.329" y2="159.807"/>
<line fill="none" stroke="#8797AA" stroke-width="3" stroke-linecap="round" stroke-miterlimit="10" x1="428.988" y1="220.464" x2="428.988" y2="147.812"/>
<line fill="none" stroke="#8797AA" stroke-width="3" stroke-linecap="round" stroke-miterlimit="10" x1="461.753" y1="220.258" x2="461.753" y2="111.622"/>
<line fill="none" stroke="#8797AA" stroke-width="3" stroke-linecap="round" stroke-miterlimit="10" x1="396.44" y1="221.458" x2="396.44" y2="91.231"/>
<g>
	<defs>
		<path id="SVGID_33_" d="M480.758,215.302H354.717c-4.299,0-7.791,3.521-7.791,7.866v18.134c0,4.345,3.492,7.861,7.791,7.861h1.491
			l11.629,87.338h99.796l11.629-87.338h1.496c4.299,0,7.785-3.517,7.785-7.861v-18.134
			C488.543,218.822,485.057,215.302,480.758,215.302"/>
	</defs>
	<use xlink:href="#SVGID_33_"  overflow="visible" fill-rule="evenodd" clip-rule="evenodd" fill="#E0BDDC"/>
	<clipPath id="SVGID_34_">
		<use xlink:href="#SVGID_33_"  overflow="visible"/>
	</clipPath>
	<rect x="335.472" y="203.847" clip-path="url(#SVGID_34_)" fill="#E0BDDC" width="164.524" height="144.108"/>
</g>
<path fill="#B2409E" d="M488.703,241.211c0,4.339-3.489,7.858-7.785,7.858H354.883c-4.305,0-7.794-3.52-7.794-7.858v-18.14
	c0-4.342,3.49-7.862,7.794-7.862h126.035c4.296,0,7.785,3.521,7.785,7.862V241.211z"/>
<polyline fill="none" stroke="#8797AA" stroke-width="3" stroke-linecap="round" stroke-miterlimit="10" points="472.609,253.218 
	460.922,340.991 361.124,340.991 349.436,253.218 "/>
<path fill="none" stroke="#8797AA" stroke-width="3" stroke-linecap="round" stroke-miterlimit="10" d="M481.83,245.795
	c0,4.34-3.489,7.856-7.785,7.856H348.004c-4.304,0-7.789-3.517-7.789-7.856v-18.14c0-4.345,3.485-7.862,7.789-7.862h126.041
	c4.296,0,7.785,3.518,7.785,7.862V245.795z"/>
<line fill="none" stroke="#8797AA" stroke-width="3" stroke-linecap="round" stroke-miterlimit="10" x1="356.147" y1="317.645" x2="105.957" y2="317.645"/>
<line fill="none" stroke="#8797AA" stroke-width="3" stroke-linecap="round" stroke-miterlimit="10" x1="84.904" y1="317.645" x2="29.783" y2="317.645"/>
<line fill="none" stroke="#8797AA" stroke-width="3" stroke-linecap="round" stroke-miterlimit="10" x1="781.588" y1="317.645" x2="657.378" y2="317.645"/>
<line fill="none" stroke="#8797AA" stroke-width="3" stroke-linecap="round" stroke-miterlimit="10" x1="637.356" y1="317.645" x2="467.439" y2="317.645"/>
<g>
	<defs>
		<path id="SVGID_35_" d="M349.857,140.336c-0.806-0.832-0.792-2.157,0.028-2.972c0.12-0.12,3.033-3.006,7.86-5.109
			c0.067-0.389,0.135-0.795,0.221-1.211l0.219-0.905c0.318-1.516,1.512-5.165,1.525-5.199c0.277-0.859,1.069-1.436,1.969-1.436
			c0.221,0,0.439,0.04,0.655,0.106c0.521,0.175,0.952,0.547,1.208,1.046c0.247,0.502,0.286,1.071,0.108,1.602
			c-0.269,0.815-1.035,3.223-1.339,4.48c3.334-0.779,6.738-0.855,10.083-0.233c1.127,0.203,1.873,1.298,1.667,2.435
			c-0.178,0.993-1.038,1.716-2.035,1.716c-0.125,0-0.25-0.007-0.379-0.034c-3.351-0.619-6.793-0.376-10.157,0.72
			c-1.034,8.729,1.401,12.922,2.506,14.327c1.029,1.312,1.883,2.178,2.944,2.483c0.743,0.209,1.449,0.317,2.11,0.317
			c3.246,0,4.718-2.594,5.276-3.57c0.104-0.188,0.175-0.314,0.246-0.407c0.425-0.545,1.056-0.881,1.7-0.881
			c0.609,0,1.154,0.303,1.499,0.826c0.921,1.414,0.426,2.396-0.055,3.334c-0.259,0.509-2.634,4.876-8.442,4.876h-0.003
			c-0.945,0-1.943-0.121-2.972-0.361c-0.972-0.219-3.467-1.078-5.66-4.148c-1.513-2.131-3.92-6.837-3.478-14.9
			c-2.482,1.392-4.049,2.815-4.363,3.11l-0.007,0.003c-0.385,0.389-0.905,0.604-1.45,0.604
			C350.779,140.958,350.255,140.74,349.857,140.336z M340.058,141.195c0,13.526,10.865,24.49,24.271,24.49
			c13.404,0,24.272-10.964,24.272-24.49c0-13.526-10.868-24.493-24.272-24.493C350.923,116.703,340.058,127.669,340.058,141.195z"/>
	</defs>
	<use xlink:href="#SVGID_35_"  overflow="visible" fill-rule="evenodd" clip-rule="evenodd" fill="#8797AA"/>
	<clipPath id="SVGID_36_">
		<use xlink:href="#SVGID_35_"  overflow="visible"/>
	</clipPath>
</g>
<g>
	<defs>
		<path id="SVGID_37_" d="M381.967,66.761c-0.807-0.832-0.792-2.156,0.025-2.97c0.122-0.123,3.033-3.009,7.861-5.11
			c0.068-0.39,0.135-0.797,0.219-1.213l0.221-0.905c0.318-1.516,1.512-5.162,1.525-5.199c0.277-0.859,1.069-1.436,1.968-1.436
			c0.219,0,0.439,0.04,0.654,0.108c0.523,0.173,0.954,0.545,1.209,1.047c0.246,0.5,0.286,1.068,0.106,1.601
			c-0.269,0.814-1.033,3.222-1.337,4.479c3.333-0.779,6.738-0.854,10.086-0.233c1.124,0.202,1.875,1.298,1.669,2.435
			c-0.179,0.992-1.043,1.718-2.041,1.718c-0.125,0-0.25-0.009-0.376-0.037c-3.354-0.617-6.796-0.376-10.16,0.721
			c-1.035,8.73,1.401,12.922,2.504,14.327c1.031,1.312,1.885,2.18,2.944,2.483c0.743,0.211,1.451,0.319,2.112,0.319
			c3.244,0,4.721-2.596,5.281-3.572c0.103-0.187,0.169-0.313,0.245-0.406c0.421-0.545,1.056-0.881,1.696-0.881
			c0.613,0,1.155,0.305,1.5,0.828c0.921,1.414,0.425,2.394-0.049,3.333c-0.261,0.511-2.64,4.877-8.444,4.877h-0.004
			c-0.949,0-1.946-0.123-2.976-0.363c-0.972-0.218-3.467-1.078-5.66-4.147c-1.513-2.131-3.921-6.837-3.477-14.9
			c-2.485,1.392-4.05,2.815-4.364,3.11l-0.009,0.004c-0.385,0.391-0.903,0.604-1.448,0.604
			C382.888,67.383,382.364,67.164,381.967,66.761z M372.167,67.62c0,13.526,10.863,24.489,24.269,24.489S420.71,81.146,420.71,67.62
			c0-13.526-10.869-24.493-24.274-24.493S372.167,54.094,372.167,67.62z"/>
	</defs>
	<use xlink:href="#SVGID_37_"  overflow="visible" fill-rule="evenodd" clip-rule="evenodd" fill="#8797AA"/>
	<clipPath id="SVGID_38_">
		<use xlink:href="#SVGID_37_"  overflow="visible"/>
	</clipPath>
</g>
<g>
	<defs>
		<path id="SVGID_39_" d="M415.311,130.09c-0.807-0.832-0.794-2.156,0.025-2.971c0.12-0.121,3.033-3.006,7.862-5.109
			c0.067-0.389,0.135-0.796,0.219-1.211l0.219-0.905c0.317-1.518,1.513-5.164,1.526-5.199c0.277-0.859,1.069-1.437,1.969-1.437
			c0.219,0,0.438,0.04,0.653,0.107c0.523,0.175,0.953,0.547,1.207,1.047c0.246,0.502,0.286,1.071,0.107,1.602
			c-0.269,0.815-1.032,3.222-1.337,4.48c3.333-0.778,6.738-0.855,10.08-0.233c1.128,0.203,1.875,1.297,1.67,2.435
			c-0.18,0.993-1.038,1.717-2.036,1.717c-0.126,0-0.25-0.01-0.379-0.035c-3.354-0.618-6.794-0.376-10.157,0.721
			c-1.034,8.729,1.398,12.922,2.504,14.327c1.029,1.312,1.885,2.179,2.944,2.483c0.742,0.209,1.45,0.317,2.112,0.317
			c3.243,0,4.716-2.594,5.275-3.57c0.103-0.188,0.176-0.314,0.246-0.407c0.426-0.547,1.057-0.882,1.701-0.882
			c0.606,0,1.154,0.305,1.499,0.828c0.921,1.414,0.425,2.396-0.055,3.335c-0.259,0.509-2.636,4.876-8.442,4.876h-0.006
			c-0.942,0-1.94-0.12-2.971-0.361c-0.971-0.22-3.468-1.078-5.661-4.148c-1.512-2.13-3.918-6.836-3.475-14.9
			c-2.484,1.392-4.05,2.815-4.363,3.11l-0.01,0.004c-0.385,0.388-0.902,0.604-1.45,0.604
			C416.231,130.712,415.708,130.493,415.311,130.09z M405.511,130.949c0,13.526,10.862,24.49,24.269,24.49
			c13.405,0,24.274-10.963,24.274-24.49c0-13.526-10.869-24.492-24.274-24.492C416.373,106.457,405.511,117.423,405.511,130.949z"/>
	</defs>
	<use xlink:href="#SVGID_39_"  overflow="visible" fill-rule="evenodd" clip-rule="evenodd" fill="#8797AA"/>
	<clipPath id="SVGID_40_">
		<use xlink:href="#SVGID_39_"  overflow="visible"/>
	</clipPath>
</g>
<g>
	<defs>
		<path id="SVGID_41_" d="M449.57,84.38c-0.805-0.834-0.792-2.159,0.027-2.972c0.12-0.12,3.033-3.006,7.861-5.109
			c0.065-0.39,0.133-0.797,0.219-1.213l0.22-0.903c0.317-1.518,1.512-5.165,1.524-5.201c0.277-0.859,1.071-1.436,1.97-1.436
			c0.22,0,0.438,0.04,0.653,0.107c0.523,0.173,0.952,0.545,1.208,1.047c0.246,0.5,0.286,1.069,0.107,1.602
			c-0.269,0.813-1.034,3.221-1.337,4.478c3.332-0.779,6.738-0.854,10.084-0.231c1.123,0.2,1.875,1.297,1.669,2.433
			c-0.179,0.995-1.042,1.718-2.039,1.718c-0.127,0-0.252-0.009-0.376-0.036c-3.356-0.617-6.797-0.376-10.162,0.721
			c-1.033,8.73,1.4,12.922,2.506,14.327c1.029,1.312,1.883,2.18,2.944,2.485c0.742,0.209,1.448,0.317,2.112,0.317
			c3.243,0,4.719-2.596,5.279-3.572c0.103-0.188,0.17-0.312,0.246-0.407c0.419-0.545,1.057-0.881,1.695-0.881
			c0.612,0,1.154,0.304,1.499,0.828c0.923,1.414,0.425,2.394-0.05,3.333c-0.259,0.511-2.639,4.878-8.441,4.878h-0.006
			c-0.949,0-1.946-0.121-2.976-0.363c-0.971-0.219-3.468-1.078-5.66-4.148c-1.513-2.128-3.921-6.837-3.477-14.9
			c-2.483,1.392-4.05,2.815-4.362,3.11l-0.009,0.003c-0.385,0.391-0.904,0.605-1.45,0.605
			C450.491,85.002,449.97,84.782,449.57,84.38z M439.771,85.239c0,13.526,10.864,24.487,24.271,24.487
			c13.405,0,24.273-10.961,24.273-24.487c0-13.526-10.868-24.493-24.273-24.493C450.635,60.746,439.771,71.713,439.771,85.239z"/>
	</defs>
	<use xlink:href="#SVGID_41_"  overflow="visible" fill-rule="evenodd" clip-rule="evenodd" fill="#8797AA"/>
	<clipPath id="SVGID_42_">
		<use xlink:href="#SVGID_41_"  overflow="visible"/>
	</clipPath>
</g>
<g>
	<path opacity="0.6" fill="#8797AA" d="M509.19,376.162c0,5.933-20.416,10.74-45.605,10.74c-25.187,0-45.604-4.808-45.604-10.74
		c0-5.935,20.418-10.74,45.604-10.74C488.774,365.422,509.19,370.228,509.19,376.162z"/>
	<g>
		<g>
			<path fill="#F7D16A" d="M438.793,358.641c15.073-8.462,17.953-24.178,24.52-29.212c14.945-10.05,37.397-3.002,44.171,14.467
				c7.835,19.646-12.644,42.364-33.285,37.131c-3.986-0.755-9.041-5.508-13.026-6.263c-4.713-0.395-9.452,2.834-13.438,2.08
				c-3.983-0.755-18.441-8.107-12.579-16.416C435.521,359.34,437.337,359.355,438.793,358.641"/>
		</g>
		<g>
			<g>
				<path fill="#A27F29" d="M448.833,364.813c2.272-3.459,7.291-6.059,10.479-8.628c4.5-3.623,8.59-7.863,13.76-10.551
					c-0.963-0.653-1.927-1.309-2.902-1.96c-0.37,2.67-0.891,5.286-1.547,7.896c-0.317,1.271,0.395,2.522,1.762,2.656
					c2.76,0.283,5.504,0.298,8.271,0.39c-0.508-1.039-1.021-2.083-1.532-3.127c-1.298,2.595-6.25,4.346-5.579,7.879
					c0.725,3.755,6.857,4.645,9.373,6.532c-0.075-1.063-0.151-2.129-0.225-3.194c-3.725,3.094-12.671,2.57-17.27,2.921
					c-3.312,0.254-6.524,0.303-9.719,1.304c-3.329,1.033-3.668-0.512-4.876-3.393c-1.013-2.4-4.624-0.607-3.621,1.779
					c2.871,6.841,4.338,6.802,11.479,4.927c7.98-2.079,19.872,1.139,26.679-4.514c1.05-0.884,0.782-2.437-0.221-3.194
					c-2.228-1.67-4.951-2.458-7.352-3.837c0.553,0.322,4.283-4.154,4.689-4.975c0.634-1.264,0.128-3.072-1.538-3.131
					c-2.769-0.084-5.512-0.105-8.271-0.386c0.588,0.887,1.172,1.774,1.763,2.663c0.742-2.955,1.334-5.883,1.753-8.904
					c0.216-1.519-1.6-2.626-2.9-1.948c-4.859,2.525-8.781,6.267-12.965,9.74c-4.009,3.332-9.97,6.421-12.867,10.829
					C444.039,364.761,447.4,366.997,448.833,364.813L448.833,364.813z"/>
			</g>
		</g>
		<g>
			<g>
				<path fill="#A27F29" d="M433.741,360.948c1.737,6.676,5.429,12.41,8.516,18.515c1.175,2.323,4.795,0.546,3.622-1.779
					c-2.901-5.747-6.524-11.19-8.179-17.483C437.043,357.692,433.075,358.438,433.741,360.948L433.741,360.948z"/>
			</g>
		</g>
		<g>
			<g>
				<path fill="#A27F29" d="M427.558,364.478c1.898,6.447,5.33,12.149,8.321,18.118c1.164,2.327,4.787,0.548,3.625-1.779
					c-2.816-5.612-6.189-11.024-7.98-17.089C430.79,361.257,426.82,361.987,427.558,364.478L427.558,364.478z"/>
			</g>
		</g>
		<g>
			<g>
				<path fill="#A27F29" d="M428.211,369.08c-0.782,1.225-2.099,1.998-2.866,3.258c-1.052,1.737-0.746,3.824,0.355,5.439
					c2.379,3.519,6.725,2.331,9.655,0.309c0.908-0.622,0.839-2.102,0.176-2.853c-0.801-0.893-1.946-0.788-2.857-0.171
					c-1.107,0.762-3.424,1.796-3.945-0.146c-0.149-0.57,0.471-1.041,0.826-1.395c0.729-0.698,1.475-1.365,2.014-2.22
					C432.979,369.121,429.62,366.882,428.211,369.08L428.211,369.08z"/>
			</g>
		</g>
	</g>
</g>
<rect x="79.5" y="-97.5" fill="#E66B59" width="29" height="29"/>
<rect x="46.5" y="-97.5" fill="#B5F0FF" width="29" height="29"/>
<rect x="111.5" y="-97.5" fill="#F7D16A" width="29" height="29"/>
<rect x="143.5" y="-97.5" fill="#213644" width="29" height="29"/>
<rect x="175.5" y="-97.5" fill="#0BB89C" width="29" height="29"/>
<rect x="206.5" y="-97.5" fill="#4A87E0" width="29" height="29"/>
<rect x="238.5" y="-97.5" fill="#B2409E" width="29" height="29"/>
</svg>
