<?xml version="1.0" encoding="UTF-8" standalone="no"?>
<svg width="141px" height="120px" viewBox="0 0 141 120" version="1.1" xmlns="http://www.w3.org/2000/svg" xmlns:xlink="http://www.w3.org/1999/xlink">
    <!-- Generator: Sketch 3.6.1 (26313) - http://www.bohemiancoding.com/sketch -->
    <title>Page 1</title>
    <desc>Created with Sketch.</desc>
    <defs>
        <path id="path-1" d="M103.524773,0.262173913 L0.249599307,0.262173913 L0.249599307,103.679152 L103.524773,103.679152 L103.524773,0.262173913 L103.524773,0.262173913 Z"></path>
    </defs>
    <g id="Page-1" stroke="none" stroke-width="1" fill="none" fill-rule="evenodd">
        <g id="09_PAD_a침adir_im치genes_1" transform="translate(-521.000000, -404.000000)">
            <g id="a침adir-im치genes" transform="translate(249.000000, 205.000000)">
                <g id="Page-1" transform="translate(272.000000, 199.000000)">
                    <path d="M75.3953051,108.947217 L75.3953051,113.572435 L70.7751942,113.572435 L70.7751942,119.737761 L81.5488316,119.737761 L81.5488316,108.947217 L75.3953051,108.947217 Z" id="Fill-1" fill="#0C5464"></path>
                    <path d="M22.7752448,119.736196 L34.7765266,119.736196 L34.7765266,113.572174 L22.7752448,113.572174 L22.7752448,119.736196 Z" id="Fill-2" fill="#0C5464"></path>
                    <path d="M46.7742263,119.736196 L58.7755081,119.736196 L58.7755081,113.572174 L46.7742263,113.572174 L46.7742263,119.736196 Z" id="Fill-3" fill="#0C5464"></path>
                    <path d="M0,108.947217 L0,119.737761 L10.7755912,119.737761 L10.7755912,113.572435 L6.15678291,113.572435 L6.15678291,108.947217 L0,108.947217 Z" id="Fill-4" fill="#0C5464"></path>
                    <path d="M0,96.9309783 L6.15548037,96.9309783 L6.15548037,84.9146739 L0,84.9146739 L0,96.9309783 Z" id="Fill-5" fill="#0C5464"></path>
                    <path d="M0,72.8970652 L6.15548037,72.8970652 L6.15548037,60.8807609 L0,60.8807609 L0,72.8970652 Z" id="Fill-6" fill="#0C5464"></path>
                    <path d="M0,38.0757391 L0,48.8649783 L6.15678291,48.8649783 L6.15678291,44.2397609 L10.7755912,44.2397609 L10.7755912,38.0757391 L0,38.0757391 Z" id="Fill-7" fill="#0C5464"></path>
                    <path d="M22.7752448,44.2395652 L34.7762009,44.2395652 L34.7762009,38.0758696 L22.7752448,38.0758696 L22.7752448,44.2395652 Z" id="Fill-8" fill="#0C5464"></path>
                    <path d="M75.3952725,96.9313043 L81.5504273,96.9313043 L81.5504273,84.915 L75.3952725,84.915 L75.3952725,96.9313043 Z" id="Fill-9" fill="#0C5464"></path>
                    <g id="Group-15" transform="translate(37.448037, 0.063913)">
                        <path d="M22.1134566,28.5736957 C18.6138561,28.5736957 15.7691079,25.7233696 15.7691079,22.218913 C15.770736,18.7173913 18.6154843,15.8641304 22.1134566,15.8641304 C25.6117545,15.8641304 28.4594335,18.716087 28.4594335,22.218913 C28.4594335,25.7217391 25.6133827,28.5736957 22.1134566,28.5736957 M34.6162164,22.218913 C34.6162164,15.3179348 29.0081286,9.70043478 22.1134566,9.70043478 C15.2187845,9.70043478 9.61069677,15.3179348 9.61069677,22.218913 C9.61069677,29.126087 15.2204127,34.7406522 22.1134566,34.7406522 C29.0065005,34.7406522 34.6162164,29.126087 34.6162164,22.218913" id="Fill-10" fill="#0C5464"></path>
                        <g id="Group-14">
                            <mask id="mask-2" fill="white">
                                <use xlink:href="#path-1"></use>
                            </mask>
                            <g id="Clip-13"></g>
                            <path d="M93.2057217,89.5465435 L89.4107702,93.3487174 L79.6964238,83.6221957 L71.5604307,91.7691522 L64.2186617,64.3168696 L91.6299734,71.6733913 L83.4913753,79.8206739 L93.2057217,89.5465435 Z M55.511179,55.6002391 L60.9053245,75.7602391 L8.79165935,75.7602391 L22.2400635,52.4306739 L30.1100127,66.081 L48.9620058,33.3898043 L62.9105855,57.5864348 L55.511179,55.6002391 Z M6.4034515,6.42763043 L75.6432436,6.42763043 L75.6432436,61.0018696 L71.3197864,59.8419783 L48.9620058,21.0575217 L30.1083845,53.7503478 L22.2384353,40.0967609 L6.4034515,67.5630652 L6.4034515,6.42763043 Z M103.524773,68.4803478 L81.8016547,62.6531739 L81.8016547,0.261978261 L0.249599307,0.261978261 L0.249599307,81.9242609 L62.5559688,81.9242609 L68.3750681,103.679152 L79.698052,92.3388261 L89.4120727,102.065348 L101.913204,89.5432826 L92.2021143,79.8206739 L103.524773,68.4803478 Z" id="Fill-12" fill="#0C5464" mask="url(#mask-2)"></path>
                        </g>
                    </g>
                </g>
            </g>
        </g>
    </g>
</svg>