<?xml version="1.0" encoding="utf-8"?>
<!-- Generator: Adobe Illustrator 16.0.0, SVG Export Plug-In . SVG Version: 6.00 Build 0)  -->
<!DOCTYPE svg PUBLIC "-//W3C//DTD SVG 1.1//EN" "http://www.w3.org/Graphics/SVG/1.1/DTD/svg11.dtd">
<svg version="1.1" id="Capa_1" xmlns="http://www.w3.org/2000/svg" xmlns:xlink="http://www.w3.org/1999/xlink" x="0px" y="0px"
	 width="279.405px" height="165.584px" viewBox="0 0 279.405 165.584" enable-background="new 0 0 279.405 165.584"
	 xml:space="preserve">
<circle fill="#B5F0FF" cx="200.892" cy="98.987" r="5.162"/>
<circle fill="#B5F0FF" cx="215.775" cy="98.987" r="5.163"/>
<path fill="#DAE0E5" d="M189.626,106.282c0,0-12.201-6.48-2.922-11.744c0,0-7.764-15.109,8.033-15.635
	c0,0-2.963-13.883,10.324-6.653c0,0,15.844-8.365,13.279,6.604c0,0,14.496-1.895,11.254,11.004c0,0,7.875,8.746-4.061,10.037
	l-0.703-10.037c0,0-7.83,7.922-20.766-5.693c0,0-2.043,8.324-13.275,5.693L189.626,106.282z"/>
<path opacity="0.7" fill="#B8E986" d="M197.444,124.001l10.113,9.803l12.402-10.383l12.184,1.066c0,0,7.547,2.555,7.096,18.902
	l-61.75,0.273c0,0-3.566-20.82,8.193-20.242C197.444,124.001,197.444,124.001,197.444,124.001z"/>
<path fill="#B5F0FF" d="M70.169,98.337c0,0.467-0.625,0.455-1.091,0.455H57.767c-0.466,0-0.598,0.012-0.598-0.455v-8.312
	c0-0.465,0.131-1.232,0.598-1.232h11.312c0.466,0,1.091,0.768,1.091,1.232V98.337z"/>
<path fill="#B5F0FF" d="M92.169,98.337c0,0.467-0.625,0.455-1.09,0.455H79.766c-0.466,0-0.597,0.012-0.597-0.455v-8.312
	c0-0.465,0.131-1.232,0.597-1.232h11.312c0.466,0,1.09,0.768,1.09,1.232V98.337z"/>
<path opacity="0.7" fill="#B8E986" d="M63.306,122.792h-4.961c0,0,2.288,14.37,15.012,14.37s15.968-13.64,15.968-13.64l-4.865-0.18
	c0,0-0.305,9.146-9.828,9.146C65.111,132.489,63.306,122.792,63.306,122.792z"/>
<path fill="#8797AA" d="M173.136,86.942c0.555,0.064,1.08-0.209,1.379-0.67c0.305-0.457,0.33-1.045,0.068-1.531
	c-1.732-3.217-3.627-6.836-4.178-8.055c1.271-3.586,1.615-7.443,0.988-11.193c-0.984-5.939-4.227-11.139-9.123-14.642
	c-4.898-3.505-10.867-4.889-16.807-3.904c-12.265,2.038-20.581,13.669-18.548,25.933c0.646,3.891,2.309,7.438,4.753,10.451
	c-1.426,0.377-2.826,0.871-4.177,1.531c-3.794,1.855-6.959,4.709-9.193,8.275l-8.962,1.826c-0.537,0.109-0.975,0.508-1.134,1.035
	c-0.158,0.527-0.014,1.1,0.375,1.488c2.583,2.586,5.429,5.512,6.309,6.527c-0.193,3.795,0.585,7.59,2.256,11.004
	c3.814,7.799,11.58,12.645,20.265,12.645c0.002,0,0.002,0,0.002,0c3.443,0,6.771-0.771,9.888-2.297
	c11.162-5.463,15.805-18.99,10.346-30.156c-0.762-1.557-1.721-2.959-2.773-4.268c3.383-0.887,6.514-2.496,9.15-4.812L173.136,86.942
	z M154.964,96.524c4.734,9.684,0.709,21.418-8.975,26.154c-2.703,1.322-5.585,1.992-8.571,1.992c0,0,0,0-0.002,0
	c-7.534,0-14.271-4.201-17.581-10.965c-1.505-3.08-2.173-6.516-1.923-10.027c0.055-0.736,0.071-0.969-5.251-6.336l6.635-1.355
	c0.493-0.021,0.962-0.285,1.226-0.74c1.947-3.334,4.812-5.996,8.287-7.697c2.703-1.324,5.587-1.994,8.576-1.994
	C144.917,85.558,151.655,89.759,154.964,96.524z M162.503,83.47c-2.773,2.602-6.223,4.307-9.973,4.965
	c-4.064-3.707-9.389-5.869-15.146-5.869c-0.779,0-1.551,0.053-2.319,0.133c-2.734-2.848-4.545-6.387-5.197-10.309
	c-1.765-10.634,5.452-20.725,16.087-22.492c5.158-0.85,10.33,0.349,14.574,3.384c4.248,3.039,7.059,7.548,7.916,12.701
	c0.561,3.383,0.217,6.865-1.027,10.152c-0.264,0.693-0.35,0.91,3.215,7.578l-6.744-0.602
	C163.415,82.987,162.884,83.11,162.503,83.47z M149.136,98.714h-4.689c0.141-0.648,0.223-1.396,0.154-2.188
	c-0.15-1.754-1.066-3.449-2.33-4.316c-0.952-0.648-2.079-0.83-3.175-0.506c-2.158,0.639-2.064,3.389-2.008,5.031l0.016,0.637
	c0,1.467-1.49,2.639-2.608,3.312c-0.295-0.098-0.594-0.127-0.867-0.094h-7.981c-0.47,0-0.915,0.223-1.196,0.6
	c-0.397,0.531-0.849,1.131,0.67,12.436c0.1,0.746,0.734,1.301,1.482,1.301h7.519c0.646-0.014,1.104-0.301,1.405-0.812l0.422,0.195
	c0.197,0.09,0.41,0.137,0.627,0.137h9.397c1.941,0,3.199-0.568,3.744-1.693c0.377-0.775,0.283-1.561,0.064-2.199
	c0.619-0.654,0.838-1.318,0.902-1.828c0.059-0.477-0.002-0.908-0.121-1.283c0.395-0.451,0.6-0.914,0.703-1.293
	c0.15-0.537,0.145-1.051,0.072-1.502c0.754-0.527,1.402-1.357,1.402-2.561C152.741,100.462,151.612,98.714,149.136,98.714z
	 M132.203,111.937h-4.289c-0.41-3.217-0.771-6.613-0.857-8.355h5.146V111.937z M149.144,102.415
	c-0.457,0.109-0.834,0.445-1.018,0.881c-0.186,0.438-0.146,0.945,0.096,1.355c0.102,0.174,0.215,0.514,0.158,0.701
	c-0.045,0.15-0.281,0.287-0.416,0.357c-0.418,0.209-0.699,0.623-0.783,1.084c-0.086,0.459,0.068,0.951,0.385,1.297
	c0.07,0.076,0.146,0.215,0.15,0.262c-0.016,0.051-0.154,0.25-0.592,0.504c-0.369,0.219-0.625,0.59-0.707,1.006
	c-0.082,0.424,0.021,0.863,0.281,1.203c0.066,0.088,0.135,0.201,0.186,0.309c-0.182,0.039-0.471,0.078-0.914,0.078h-9.067
	l-1.143-0.525c-0.18-0.082-0.373-0.115-0.57-0.123v-7.09c3.154-1.627,4.9-3.867,4.9-6.342l-0.016-0.742
	c-0.02-0.502-0.057-1.607,0.078-2.09c0.168,0.014,0.281,0.041,0.428,0.143c0.52,0.354,0.965,1.258,1.038,2.098
	c0.117,1.385-0.592,2.688-0.594,2.693c-0.262,0.461-0.258,1.029,0.008,1.49c0.271,0.459,0.762,0.742,1.293,0.742h6.809
	c0.613,0,0.613,0.191,0.619,0.363C149.698,102.175,149.376,102.354,149.144,102.415z M141.288,66.478
	c-1.27,0-2.297,1.031-2.297,2.301c0,1.271,1.029,2.299,2.297,2.299c1.272,0,2.301-1.027,2.301-2.299
	C143.589,67.509,142.558,66.478,141.288,66.478z M149.589,66.478c-1.271,0-2.301,1.031-2.301,2.301c0,1.271,1.029,2.299,2.301,2.299
	c1.268,0,2.299-1.027,2.299-2.299C151.888,67.509,150.856,66.478,149.589,66.478z M157.53,66.478c-1.27,0-2.299,1.031-2.299,2.301
	c0,1.271,1.029,2.299,2.299,2.299c1.271,0,2.301-1.027,2.301-2.299C159.831,67.509,158.802,66.478,157.53,66.478z"/>
<g>
	<path fill="#8797AA" d="M66.42,103.79h-7.412c-2.952,0-5.354-2.402-5.354-5.354v-3.223c0-2.953,2.402-5.355,5.354-5.355h7.412
		c2.952,0,5.353,2.402,5.353,5.355v3.223C71.773,101.388,69.372,103.79,66.42,103.79z M59.009,92.835
		c-1.311,0-2.378,1.068-2.378,2.379v3.223c0,1.311,1.067,2.377,2.378,2.377h7.412c1.31,0,2.376-1.066,2.376-2.377v-3.223
		c0-1.311-1.066-2.379-2.376-2.379H59.009z"/>
	<path fill="#8797AA" d="M88.167,103.79h-7.411c-2.954,0-5.355-2.402-5.355-5.354v-3.223c0-2.953,2.402-5.355,5.355-5.355h7.411
		c2.952,0,5.354,2.402,5.354,5.355v3.223C93.521,101.388,91.119,103.79,88.167,103.79z M80.756,92.835
		c-1.312,0-2.379,1.068-2.379,2.379v3.223c0,1.311,1.067,2.377,2.379,2.377h7.411c1.311,0,2.377-1.066,2.377-2.377v-3.223
		c0-1.311-1.066-2.379-2.377-2.379H80.756z"/>
	<path fill="#8797AA" d="M60.297,92.835c-0.585,0-1.14-0.346-1.376-0.92c-0.313-0.762,0.049-1.631,0.809-1.943
		c3.242-1.334,5.711-7.666,6.388-9.994c0.165-0.564,0.648-0.98,1.232-1.059c0.587-0.088,1.159,0.195,1.466,0.697
		c0.253,0.41,6.402,10.094,20.17,10.242c0.822,0.01,1.48,0.684,1.472,1.506c-0.009,0.814-0.673,1.471-1.488,1.471
		c-0.005,0-0.011,0-0.017,0c-11.237-0.121-17.964-5.977-20.913-9.35c-1.223,3.066-3.611,7.771-7.177,9.238
		C60.677,92.8,60.485,92.835,60.297,92.835z"/>
	<path fill="#8797AA" d="M73.669,120.546c-5.128,0-9.275-1.562-12.325-4.641c-5.292-5.344-5.279-13.283-5.276-13.617
		c0.008-0.818,0.673-1.475,1.488-1.475c0.005,0,0.01,0,0.014,0c0.822,0.008,1.481,0.678,1.475,1.5c0,0.105,0.021,7.078,4.429,11.512
		c2.47,2.484,5.9,3.742,10.195,3.742c14.625,0,14.937-14.656,14.942-15.281c0.008-0.82,0.721-1.506,1.503-1.473
		c0.822,0.008,1.481,0.68,1.474,1.502C91.586,102.497,91.208,120.546,73.669,120.546z"/>
	<path fill="#8797AA" d="M95.496,118.327H82.467c-0.822,0-1.489-0.666-1.489-1.488s0.667-1.488,1.489-1.488h11.541V90.735
		c-0.257-1.604-3.391-18.436-20.926-18.436c-7.573,0-13.226,2.866-16.804,8.52c-2.515,3.973-3.083,7.949-3.152,8.5v25.631h11.166
		c0.822,0,1.488,0.666,1.488,1.488s-0.667,1.488-1.488,1.488H51.638c-0.821,0-1.488-0.666-1.488-1.488V89.235
		c0-0.051,0.003-0.102,0.008-0.15c0.021-0.197,2.247-19.764,22.925-19.764c20.625,0,23.857,20.877,23.887,21.09
		c0.011,0.068,0.016,0.139,0.016,0.211v26.217C96.985,117.661,96.318,118.327,95.496,118.327z"/>
	<path fill="#8797AA" d="M76.889,95.312c-0.156,0-0.315-0.023-0.471-0.076c-3.333-1.111-5.744-0.072-5.768-0.061
		c-0.747,0.344-1.63,0.02-1.976-0.727c-0.345-0.746-0.021-1.631,0.726-1.975c0.14-0.064,3.466-1.561,7.959-0.061
		c0.78,0.258,1.201,1.102,0.941,1.881C78.093,94.919,77.512,95.312,76.889,95.312z"/>
	<path fill="#8797AA" d="M73.829,113.313c-3.976,0-5.492-2.02-5.761-3.215l2.903-0.654c0,0-0.003-0.033-0.024-0.09
		c0.131,0.34,0.904,0.982,2.882,0.982c1.937,0,2.553-0.611,2.628-0.848c-0.021,0.068-0.02,0.109-0.02,0.109l2.958,0.348
		C79.378,110.083,78.941,113.313,73.829,113.313z"/>
	<path fill="#8797AA" d="M73.829,133.987c-9.499,0-10.647-6.244-10.69-6.51c-0.014-0.08-0.021-0.162-0.021-0.244v-10.395
		c0-0.822,0.667-1.488,1.488-1.488s1.488,0.666,1.488,1.488v10.234c0.159,0.586,1.345,3.938,7.734,3.938
		c6.43,0,7.731-3.738,7.912-4.406v-9.766c0-0.822,0.667-1.488,1.488-1.488c0.822,0,1.488,0.666,1.488,1.488v9.934
		c0,0.09-0.007,0.18-0.024,0.27C84.251,129.444,81.413,133.987,73.829,133.987z"/>
	<path fill="#8797AA" d="M102.838,143.663H43.876c-0.822,0-1.488-0.668-1.488-1.488v-8.557c0-6.941,6.316-10.477,9.655-11.375
		c0.126-0.033,0.256-0.051,0.387-0.051h12.177c0.822,0,1.488,0.666,1.488,1.488s-0.667,1.488-1.488,1.488H52.644
		c-1.144,0.355-7.279,2.539-7.279,8.449v7.068h55.985v-7.324c-0.084-0.791-1.042-8.193-7.13-8.193H83.229
		c-0.821,0-1.488-0.666-1.488-1.488s0.667-1.488,1.488-1.488H94.22c7.222,0,9.764,7.172,10.101,10.965
		c0.004,0.045,0.006,0.088,0.006,0.131v8.887C104.327,142.995,103.66,143.663,102.838,143.663z"/>
	<path fill="#8797AA" d="M73.918,138.724c-12.235,0-16.415-9.746-16.916-14.898c-0.079-0.818,0.52-1.547,1.337-1.627
		c0.81-0.08,1.545,0.52,1.626,1.338c0.05,0.496,1.392,12.211,13.952,12.211c3.848,0,6.872-1.088,8.987-3.236
		c3.479-3.527,3.444-8.756,3.443-8.809c-0.012-0.822,0.646-1.498,1.467-1.51c0.81-0.045,1.498,0.645,1.509,1.467
		c0.004,0.264,0.044,6.535-4.3,10.943C82.33,137.337,78.593,138.724,73.918,138.724z"/>
</g>
<g>
	<g>
		<path fill="#8797AA" d="M209.19,120.659c-6.057,0-10.824-2.008-14.164-5.965c-7.572-8.967-5.006-24.686-4.893-25.352
			c0.078-0.449,0.355-0.84,0.758-1.059s0.879-0.236,1.299-0.059c1.674,0.721,3.209,1.088,4.557,1.088
			c5.459,0,6.721-6.314,6.734-6.379c0.123-0.648,0.66-1.139,1.316-1.203c0.662-0.064,1.279,0.312,1.525,0.926
			c2.102,5.217,5.789,7.863,10.955,7.863c3.84,0,7.104-1.49,7.137-1.504c0.408-0.189,0.877-0.184,1.279,0.012
			s0.695,0.562,0.797,0.998c0.15,0.645,3.625,15.877-3.348,24.678C220.013,118.655,215.319,120.659,209.19,120.659z M192.847,91.644
			c-0.414,4.225-0.836,14.875,4.459,21.137c2.75,3.252,6.748,4.9,11.885,4.9c5.174,0,9.084-1.621,11.621-4.824
			c4.846-6.117,3.762-16.441,3.1-20.469c-1.539,0.504-3.943,1.109-6.633,1.109c-3.811,0-8.742-1.227-12.119-6.574
			c-1.434,2.674-4.092,5.367-8.412,5.367C195.524,92.29,194.218,92.073,192.847,91.644z"/>
		<path fill="#8797AA" d="M208.556,134.188c-0.357,0-0.713-0.127-0.998-0.385l-9.623-8.699c-0.312-0.283-0.49-0.684-0.49-1.104
			v-7.725c0-0.822,0.666-1.488,1.488-1.488c0.82,0,1.488,0.666,1.488,1.488v7.062l8.117,7.34l8.445-7.902v-5.906
			c0-0.82,0.666-1.488,1.488-1.488s1.488,0.668,1.488,1.488v6.551c0,0.412-0.17,0.807-0.471,1.088l-9.916,9.279
			C209.288,134.056,208.921,134.188,208.556,134.188z"/>
		<path fill="#8797AA" d="M238.382,143.663h-60.893c-0.822,0-1.488-0.668-1.488-1.488V132.7c0-0.092,0.01-0.184,0.025-0.273
			c0.68-3.631,3.963-10.494,11.516-10.494h10.631c0.822,0,1.488,0.668,1.488,1.488c0,0.822-0.666,1.488-1.488,1.488h-10.631
			c-6.525,0-8.338,6.947-8.564,7.947v7.83h57.916v-6.633c0-6.283-5.574-8.719-6.693-9.145h-11.729c-0.822,0-1.488-0.666-1.488-1.488
			c0-0.82,0.666-1.488,1.488-1.488h11.984c0.152,0,0.305,0.023,0.449,0.07c3.102,0.984,8.965,4.768,8.965,12.051v8.121
			C239.87,142.995,239.202,143.663,238.382,143.663z"/>
		<path fill="#8797AA" d="M208.556,143.663c-0.82,0-1.488-0.668-1.488-1.488V132.7c0-0.82,0.668-1.488,1.488-1.488
			c0.822,0,1.488,0.668,1.488,1.488v9.475C210.044,142.995,209.378,143.663,208.556,143.663z"/>
		<path fill="#8797AA" d="M208.7,114.95c-4.396,0-5.879-4.105-5.939-4.279c-0.271-0.777,0.139-1.625,0.914-1.896
			c0.768-0.273,1.617,0.135,1.893,0.904c0.041,0.111,0.879,2.295,3.133,2.295c2.037,0,2.33-2.393,2.342-2.496
			c0.092-0.816,0.838-1.41,1.645-1.311c0.818,0.092,1.404,0.828,1.312,1.645C213.8,111.589,212.433,114.95,208.7,114.95z"/>
		<path fill="#8797AA" d="M201.526,108.114c-3.744,0-6.789-3.045-6.789-6.787c0-3.744,3.045-6.789,6.789-6.789
			c3.742,0,6.785,3.045,6.785,6.789C208.312,105.069,205.269,108.114,201.526,108.114z M201.526,97.515
			c-2.102,0-3.812,1.711-3.812,3.812s1.711,3.811,3.812,3.811c2.1,0,3.809-1.709,3.809-3.811S203.626,97.515,201.526,97.515z"/>
		<path fill="#8797AA" d="M216.087,108.114c-3.744,0-6.789-3.045-6.789-6.787c0-3.744,3.045-6.789,6.789-6.789
			c3.742,0,6.787,3.045,6.787,6.789C222.874,105.069,219.829,108.114,216.087,108.114z M216.087,97.515
			c-2.102,0-3.812,1.711-3.812,3.812s1.711,3.811,3.812,3.811s3.811-1.709,3.811-3.811S218.188,97.515,216.087,97.515z"/>
		<path fill="#8797AA" d="M210.786,101.19c-0.258,0-0.518-0.068-0.756-0.207c-1.363-0.807-2.547-0.115-2.678-0.033
			c-0.689,0.43-1.607,0.236-2.049-0.447c-0.441-0.682-0.264-1.586,0.412-2.039c1.029-0.688,3.416-1.469,5.828-0.043
			c0.709,0.418,0.943,1.33,0.523,2.037C211.79,100.929,211.294,101.19,210.786,101.19z"/>
	</g>
	<path fill="#8797AA" d="M191.987,105.792c-0.736,0-6.135,0.159-8.773-2.474c-0.957-0.953-1.463-2.034-1.463-3.36
		c0-3.123,1.393-4.959,2.816-5.988c-1.664-2.537-2.916-6.798-0.037-11.559c2.189-3.623,5.395-4.491,7.541-4.634
		c-0.238-1.369-0.311-3.206,0.416-5.001c0.795-1.955,2.334-3.42,4.574-4.362c3.408-1.43,6.342,0.38,8.084,2.242
		c2.33-2.145,6.445-4.214,11.09-1.832c3.887,1.994,5.055,5.625,5.174,8.361c1.607-0.293,3.854-0.425,5.814,0.485
		c1.619,0.75,2.764,2.045,3.404,3.854c1.504,4.242,1.086,7.018,0.594,8.459c1.168,1.311,3.16,4.061,2.486,6.99
		c-0.602,2.611-3.076,4.557-7.355,5.783c-0.789,0.221-1.613-0.23-1.84-1.021c-0.227-0.789,0.23-1.613,1.021-1.84
		c2.172-0.623,4.85-1.75,5.271-3.59c0.436-1.891-1.6-4.23-2.348-4.902c-0.559-0.5-0.656-1.338-0.232-1.953l0,0
		c-0.002,0,1.279-2.186-0.404-6.932c-0.367-1.039-0.973-1.742-1.85-2.148c-2.279-1.057-5.611,0.152-5.645,0.166
		c-0.506,0.189-1.076,0.094-1.488-0.256c-0.412-0.348-0.604-0.895-0.498-1.426c0.037-0.201,0.91-5.135-3.465-7.381
		c-4.861-2.496-8.484,2.18-8.637,2.379c-0.297,0.391-0.768,0.609-1.26,0.588c-0.49-0.023-0.939-0.287-1.195-0.705
		c-0.098-0.154-2.465-3.871-5.57-2.572c-1.506,0.633-2.477,1.527-2.967,2.74c-0.908,2.24,0.152,4.85,0.164,4.875
		c0.217,0.51,0.133,1.098-0.219,1.527c-0.352,0.428-0.912,0.627-1.453,0.514c-0.162-0.029-4.279-0.777-6.662,3.162
		c-3.301,5.459,0.674,9.318,0.846,9.48c0.402,0.379,0.559,0.949,0.41,1.48c-0.148,0.533-0.578,0.938-1.117,1.055
		c-0.236,0.059-2.488,0.715-2.488,4.086c0,0.541,0.186,0.716,0.588,1.116c1.521,1.518,5.393,1.593,6.666,1.593
		c0.01,0,0.018,0,0.027,0c0.82,0,1.486,0.676,1.488,1.496c0.004,0.822-0.66,1.504-1.482,1.504
		C192.007,105.792,191.997,105.792,191.987,105.792z"/>
</g>
<g enable-background="new    ">
	<g>
		<defs>
			<rect id="SVGID_1_" x="16.637" y="18.891" width="246.753" height="125.566"/>
		</defs>
		<clipPath id="SVGID_2_">
			<use xlink:href="#SVGID_1_"  overflow="visible"/>
		</clipPath>
		<g clip-path="url(#SVGID_2_)">
			<defs>
				<rect id="SVGID_3_" x="16.637" y="18.891" width="246.753" height="125.566"/>
			</defs>
			<clipPath id="SVGID_4_">
				<use xlink:href="#SVGID_3_"  overflow="visible"/>
			</clipPath>
			
				<path clip-path="url(#SVGID_4_)" fill="none" stroke="#DBDFE3" stroke-width="2" stroke-linecap="round" stroke-linejoin="round" stroke-miterlimit="10" stroke-dasharray="5,10" d="
				M18.097,142.447c0-67.431,54.665-122.097,122.098-122.097c67.432,0,122.097,54.666,122.097,122.097"/>
		</g>
	</g>
</g>
</svg>
