<?xml version="1.0" encoding="UTF-8" standalone="no"?>
<svg width="347px" height="92px" viewBox="0 0 347 92" version="1.1" xmlns="http://www.w3.org/2000/svg" xmlns:xlink="http://www.w3.org/1999/xlink">
    <!-- Generator: Sketch 3.6.1 (26313) - http://www.bohemiancoding.com/sketch -->
    <title>Group</title>
    <desc>Created with Sketch.</desc>
    <defs></defs>
    <g id="Page-1" stroke="none" stroke-width="1" fill="none" fill-rule="evenodd">
        <g id="Group" transform="translate(1.000000, 0.000000)">
            <path d="M193.080892,17.3067193 C192.89475,16.3746441 193.546929,15.4425688 194.479005,15.3492703 L201.376725,14.5104936 C202.215047,14.417195 203.054279,14.9765312 203.240421,15.8153079 C203.426563,16.7473832 202.774383,17.6794584 201.842763,17.772757 L194.945042,18.7048322 C194.013422,18.7981307 193.267489,18.145496 193.080892,17.3067193 L193.080892,17.3067193 Z M194.945042,2.67295591 L190.471263,8.07926541 C189.818628,8.82474356 188.700411,8.91804211 188.047776,8.26540739 C187.395597,7.70652633 187.395597,6.68115254 187.954478,6.02851782 L192.428257,0.622663435 C193.080892,-0.122814716 194.199564,-0.216113264 194.852199,0.43606634 C195.41108,0.995402511 195.504378,2.02077631 194.945042,2.67295591 L194.945042,2.67295591 Z M191.31004,12.3669026 C190.844002,11.5276708 191.123443,10.502297 191.962674,10.1295579 L197.927865,6.86774963 C198.766642,6.40171201 199.792015,6.68115254 200.164299,7.51992924 C200.630792,8.35870594 200.351352,9.38407973 199.51212,9.75681881 L193.546929,13.0190822 C192.708608,13.4851198 191.776077,13.2056793 191.31004,12.3669026 L191.31004,12.3669026 Z M159.71278,35.5754852 L154.679665,26.5341733 L160.364959,23.3652084 L165.39853,32.4065204 L159.71278,35.5754852 Z M203.986354,77.7987669 C207.248617,77.7987669 209.95109,75.0953846 209.95109,71.8331213 L209.95109,29.7964366 C209.95109,26.5341733 207.248617,23.8312461 203.986354,23.8312461 L198.766642,23.8312461 L195.224938,23.8312461 L196.99579,27.0935094 C197.834566,28.6777643 197.927865,30.4490713 197.461827,31.9404828 L198.673343,31.9404828 L201.749464,31.9404828 L201.749464,69.5029332 L161.483632,69.5029332 L170.990526,64.2832207 C172.761833,63.5377426 175.558059,62.2324732 178.354285,60.6482183 C180.218435,59.8089865 182.082586,58.7840678 183.294102,57.6653955 C187.674582,53.8442511 184.505617,51.0480253 184.505617,51.0480253 C186.090782,47.5058663 183.200803,45.8283129 183.200803,45.8283129 C184.226632,42.0067134 180.684473,41.1679367 180.684473,41.1679367 C180.684473,41.1679367 180.87107,38.4650095 178.354285,37.8123748 C176.210694,37.2530386 173.320714,39.1171891 171.549862,40.3287049 L167.448822,35.8549257 L170.990526,33.8979318 L170.338347,32.6859609 C174.905424,31.1017061 182.828519,29.0509585 190.098524,31.0079524 C190.65786,31.8471842 191.776077,32.1266247 192.521555,31.47399 C193.267489,30.915109 193.453631,29.9830337 192.987593,29.144257 L188.141075,20.2895422 C189.72533,18.5186902 190.005225,15.9086065 188.79371,13.6717169 C187.581739,11.4348273 185.158252,10.4094535 182.828519,10.6888941 L178.074389,1.92747776 C177.608807,1.18199961 176.676276,0.715506868 175.8375,1.08870106 C174.905424,1.46144013 174.532685,2.58011248 174.905424,3.41888918 C172.575236,10.6888941 166.610046,16.188047 162.881745,19.1708698 L162.136267,17.772757 L152.535618,22.9924694 C150.671468,24.0178432 149.92599,26.4408747 150.951364,28.3054803 L151.79014,29.7964366 L150.764766,30.3557728 C150.112132,30.7285119 149.92599,31.47399 150.20543,32.1266247 L152.535618,36.4142619 C152.908357,37.0664415 153.654291,37.2530386 154.30647,36.9735981 L155.331844,36.4142619 L156.077777,37.7190762 C157.102696,39.5832267 159.526183,40.3287049 161.390333,39.3037862 L162.22911,38.8377486 L165.584672,42.472751 C162.136267,43.7775653 160.458258,48.9039792 160.458258,48.9039792 C160.178817,49.8360544 160.178817,50.7681297 160.272116,51.5140629 C160.272116,51.7002049 160.272116,51.886802 160.364959,51.9801006 C160.364959,52.1662425 160.364959,52.5394367 160.178817,52.9117207 C159.898922,53.9370945 159.153444,54.7763263 158.314667,55.2423639 L143.960799,63.1645484 L143.960799,31.9404828 L145.079016,31.9404828 L145.638353,31.9404828 C145.545054,30.8218104 145.82495,29.7964366 146.384286,28.8643614 C145.918248,27.186808 145.918248,25.4155009 146.477129,23.8312461 L145.079016,23.8312461 L141.816753,23.8312461 C138.55449,23.8312461 135.851562,26.5341733 135.851562,29.7964366 L135.851562,71.8331213 C135.851562,75.0953846 138.55449,77.7987669 141.816753,77.7987669 L166.237307,77.7987669 L166.237307,84.5094356 L161.483632,84.5094356 C160.644855,84.5094356 160.085519,85.1616153 160.085519,85.9075485 L160.085519,90.1018871 C160.085519,90.9406638 160.738154,91.5 161.483632,91.5 L184.412319,91.5 C185.251551,91.5 185.810432,90.8473653 185.810432,90.1018871 L185.810432,85.9075485 C185.810432,85.0687718 185.158252,84.5094356 184.412319,84.5094356 L179.659099,84.5094356 L179.659099,77.7987669 L203.986354,77.7987669 Z" id="Fill-1" fill="#CCD4DA"></path>
            <path d="M116.550781,85.5 L0.525672726,85.5" id="Line" stroke="#CCD4DA" stroke-width="3" stroke-linecap="square"></path>
            <path d="M343.871094,85.5 L227.845985,85.5" id="Line" stroke="#CCD4DA" stroke-width="3" stroke-linecap="square"></path>
        </g>
    </g>
</svg>