<?xml version="1.0" encoding="utf-8"?>
<!-- Generator: Adobe Illustrator 16.0.0, SVG Export Plug-In . SVG Version: 6.00 Build 0)  -->
<!DOCTYPE svg PUBLIC "-//W3C//DTD SVG 1.1//EN" "http://www.w3.org/Graphics/SVG/1.1/DTD/svg11.dtd">
<svg version="1.1" id="Capa_1" xmlns="http://www.w3.org/2000/svg" xmlns:xlink="http://www.w3.org/1999/xlink" x="0px" y="0px"
	 width="266px" height="200px" viewBox="0 0 266 200" enable-background="new 0 0 266 200" xml:space="preserve">
<g>
	<defs>
		<rect id="SVGID_1_" width="268" height="202"/>
	</defs>
	<clipPath id="SVGID_2_">
		<use xlink:href="#SVGID_1_"  overflow="visible"/>
	</clipPath>
	<g clip-path="url(#SVGID_2_)">
		<rect x="-1.515" y="-2.663" fill="#80AEE5" width="269.005" height="202.851"/>
		<path fill="#B5F0FF" d="M89.077,44.481c0,0.65,0.519,1.18,1.156,1.18c0.002,0,0.002-0.002,0.004-0.002
			c0.001,0,0.004,0.002,0.004,0.002c0.637,0,1.155-0.53,1.155-1.18c0-0.015-0.002-0.027-0.002-0.04
			c0.021-3.891,3.095-7.043,6.898-7.11c0.04,0.001,0.078,0.007,0.117,0.007c0.638,0,1.156-0.529,1.156-1.179
			c0-0.003,0-0.006,0-0.009c0-0.003,0-0.006,0-0.009c0-0.65-0.518-1.18-1.156-1.18c-0.039,0-0.078,0.005-0.117,0.007
			c-3.803-0.065-6.875-3.22-6.898-7.107c0-0.015,0.002-0.027,0.002-0.042c0-0.651-0.518-1.177-1.155-1.177
			c0,0-0.003,0.001-0.004,0.001c-0.002,0-0.002-0.001-0.004-0.001c-0.637,0-1.156,0.526-1.156,1.177
			c0,0.015,0.003,0.027,0.003,0.042c-0.022,3.888-3.098,7.042-6.899,7.107c-0.038-0.002-0.079-0.007-0.117-0.007
			c-0.638,0-1.156,0.529-1.156,1.18c0,0.003,0.002,0.006,0.002,0.009c0,0.003-0.002,0.006-0.002,0.009
			c0,0.65,0.518,1.179,1.156,1.179c0.038,0,0.079-0.006,0.117-0.007c3.802,0.066,6.876,3.219,6.899,7.11
			C89.081,44.454,89.077,44.466,89.077,44.481z M86.568,36.15c1.543-0.871,2.815-2.172,3.668-3.746
			c0.851,1.574,2.126,2.875,3.667,3.746c-1.542,0.872-2.816,2.171-3.667,3.747C89.384,38.321,88.112,37.021,86.568,36.15z"/>
		<path fill="#B5F0FF" d="M73.163,56.654c0,0.405,0.321,0.733,0.717,0.733c0.002,0,0.002,0,0.002,0c0.002,0,0.003,0,0.003,0
			c0.396,0,0.718-0.329,0.718-0.733c0-0.008-0.002-0.016-0.002-0.024c0.014-2.415,1.923-4.374,4.286-4.417
			c0.024,0.002,0.048,0.005,0.073,0.005c0.395,0,0.718-0.328,0.718-0.731c0-0.002,0-0.005,0-0.006c0-0.002,0-0.004,0-0.006
			c0-0.404-0.323-0.732-0.718-0.732c-0.025,0-0.049,0.003-0.073,0.003c-2.363-0.04-4.272-1.999-4.286-4.415
			c0-0.009,0.002-0.015,0.002-0.025c0-0.406-0.322-0.731-0.718-0.731c0,0-0.001,0-0.002,0c0,0-0.001,0-0.003,0
			c-0.396,0-0.717,0.326-0.717,0.731c0,0.01,0.002,0.016,0.002,0.025c-0.014,2.417-1.924,4.375-4.286,4.415
			c-0.024,0-0.048-0.003-0.074-0.003c-0.395,0-0.717,0.329-0.717,0.732c0,0.002,0,0.004,0,0.006c0,0.001,0,0.004,0,0.006
			c0,0.404,0.322,0.731,0.717,0.731c0.026,0,0.05-0.003,0.074-0.005c2.362,0.043,4.272,2.002,4.286,4.417
			C73.165,56.639,73.163,56.647,73.163,56.654z M71.604,51.481c0.958-0.542,1.75-1.35,2.279-2.326
			c0.528,0.976,1.322,1.784,2.278,2.326c-0.956,0.541-1.75,1.348-2.278,2.325C73.353,52.829,72.562,52.022,71.604,51.481z"/>
		<g opacity="0.4">
			<path fill="#B5F0FF" d="M197.062,58.398h-0.961c-0.223,0-0.462-0.173-0.53-0.389l-0.18-0.444
				c-0.102-0.204-0.053-0.498,0.104-0.659l0.678-0.69c0.162-0.159,0.162-0.423,0-0.584l-1.047-1.07c-0.159-0.16-0.417-0.16-0.571,0
				l-0.678,0.692c-0.158,0.16-0.448,0.21-0.647,0.108l-0.435-0.183c-0.211-0.07-0.384-0.316-0.384-0.543v-0.978
				c0-0.226-0.181-0.413-0.407-0.413h-1.481c-0.222,0-0.403,0.188-0.403,0.413v0.978c0,0.227-0.174,0.473-0.387,0.543l-0.432,0.183
				c-0.196,0.102-0.491,0.052-0.646-0.108l-0.678-0.692c-0.157-0.16-0.412-0.16-0.571,0l-1.051,1.07
				c-0.156,0.161-0.156,0.425,0,0.584l0.678,0.69c0.158,0.162,0.206,0.455,0.106,0.659l-0.177,0.444
				c-0.071,0.215-0.311,0.389-0.535,0.389h-0.959c-0.221,0-0.403,0.186-0.403,0.414v1.511c0,0.227,0.182,0.413,0.403,0.413h0.959
				c0.223,0,0.464,0.177,0.535,0.392l0.177,0.444c0.101,0.203,0.054,0.5-0.104,0.661l-0.679,0.69c-0.157,0.161-0.157,0.423,0,0.582
				l1.05,1.07c0.159,0.161,0.415,0.161,0.573,0l0.676-0.692c0.154-0.16,0.449-0.208,0.646-0.107l0.433,0.18
				c0.211,0.074,0.386,0.317,0.386,0.546v0.979c0,0.226,0.181,0.412,0.404,0.412h1.48c0.225,0,0.406-0.183,0.406-0.412v-0.979
				c0-0.227,0.176-0.472,0.385-0.546l0.434-0.18c0.199-0.101,0.491-0.053,0.647,0.107l0.679,0.692c0.155,0.161,0.413,0.161,0.57,0
				l1.05-1.07c0.159-0.16,0.159-0.421,0-0.582l-0.681-0.69c-0.156-0.161-0.202-0.458-0.102-0.661l0.179-0.444
				c0.067-0.215,0.309-0.392,0.529-0.392h0.962c0.221,0,0.403-0.184,0.403-0.413v-1.511
				C197.467,58.587,197.282,58.398,197.062,58.398z M191.267,61.562c-1.08,0-1.955-0.894-1.955-1.993
				c0-1.102,0.875-1.997,1.955-1.997c1.078,0,1.951,0.895,1.951,1.997C193.218,60.669,192.345,61.562,191.267,61.562z"/>
			<path fill="#B5F0FF" d="M76.494,93.814h-0.961c-0.221,0-0.461-0.174-0.53-0.388l-0.179-0.444
				c-0.101-0.204-0.054-0.497,0.102-0.66l0.68-0.69c0.161-0.159,0.161-0.423,0-0.583l-1.047-1.07c-0.16-0.161-0.416-0.161-0.572,0
				l-0.678,0.691c-0.157,0.16-0.448,0.209-0.647,0.108l-0.434-0.183c-0.21-0.07-0.383-0.315-0.383-0.543v-0.978
				c0-0.227-0.18-0.413-0.407-0.413h-1.481c-0.221,0-0.405,0.185-0.405,0.413v0.978c0,0.227-0.173,0.473-0.385,0.543l-0.43,0.183
				c-0.198,0.102-0.493,0.052-0.648-0.108l-0.677-0.691c-0.158-0.161-0.413-0.161-0.571,0l-1.05,1.07
				c-0.156,0.159-0.156,0.423,0,0.583l0.68,0.69c0.157,0.163,0.205,0.456,0.104,0.66l-0.176,0.444
				c-0.072,0.214-0.311,0.388-0.537,0.388H64.9c-0.221,0-0.405,0.186-0.405,0.415v1.512c0,0.227,0.183,0.412,0.405,0.412h0.958
				c0.224,0,0.464,0.174,0.536,0.392l0.176,0.442c0.102,0.204,0.054,0.501-0.104,0.662l-0.679,0.692
				c-0.155,0.159-0.155,0.421,0,0.582l1.049,1.07c0.16,0.16,0.415,0.16,0.574,0l0.675-0.692c0.155-0.161,0.449-0.208,0.647-0.108
				l0.433,0.182c0.211,0.072,0.384,0.317,0.384,0.544v0.979c0,0.227,0.183,0.412,0.404,0.412h1.481c0.224,0,0.408-0.183,0.408-0.412
				v-0.979c0-0.226,0.175-0.472,0.385-0.544l0.431-0.182c0.2-0.1,0.491-0.052,0.647,0.108l0.679,0.692
				c0.155,0.16,0.414,0.16,0.572,0l1.046-1.07c0.161-0.161,0.161-0.423,0-0.582l-0.679-0.692c-0.156-0.16-0.203-0.458-0.101-0.662
				l0.178-0.442c0.069-0.217,0.308-0.392,0.531-0.392h0.959c0.221,0,0.405-0.184,0.405-0.412v-1.512
				C76.898,94.002,76.714,93.814,76.494,93.814z M70.697,96.978c-1.079,0-1.955-0.893-1.955-1.993c0-1.104,0.875-1.998,1.955-1.998
				s1.953,0.894,1.953,1.998C72.65,96.085,71.776,96.978,70.697,96.978z"/>
			<path fill="#B5F0FF" d="M190.467,31.331h-1.894c-0.438,0-0.914-0.344-1.049-0.767l-0.351-0.874
				c-0.201-0.403-0.11-0.984,0.2-1.302l1.339-1.362c0.317-0.313,0.317-0.835,0-1.149l-2.064-2.109c-0.314-0.318-0.821-0.318-1.128,0
				l-1.339,1.361c-0.308,0.317-0.884,0.414-1.276,0.213l-0.854-0.36c-0.414-0.139-0.756-0.623-0.756-1.071v-1.928
				c0-0.447-0.356-0.815-0.802-0.815h-2.921c-0.439,0-0.802,0.367-0.802,0.815v1.928c0,0.448-0.339,0.932-0.755,1.071l-0.853,0.36
				c-0.39,0.201-0.971,0.104-1.278-0.213l-1.333-1.361c-0.312-0.318-0.814-0.318-1.126,0l-2.072,2.109
				c-0.309,0.314-0.309,0.836,0,1.149l1.338,1.362c0.311,0.318,0.404,0.899,0.207,1.302l-0.348,0.874
				c-0.141,0.422-0.612,0.767-1.057,0.767h-1.89c-0.434,0-0.799,0.366-0.799,0.816v2.979c0,0.447,0.362,0.815,0.799,0.815h1.892
				c0.442,0,0.914,0.345,1.055,0.774l0.348,0.872c0.199,0.404,0.105,0.987-0.205,1.304l-1.337,1.363
				c-0.309,0.314-0.309,0.833,0,1.147l2.069,2.111c0.312,0.316,0.817,0.316,1.13,0l1.332-1.365c0.306-0.315,0.887-0.41,1.275-0.215
				l0.854,0.36c0.416,0.144,0.756,0.623,0.756,1.074v1.93c0,0.448,0.359,0.811,0.8,0.811h2.92c0.44,0,0.803-0.36,0.803-0.811v-1.93
				c0-0.449,0.345-0.931,0.758-1.074l0.851-0.36c0.394-0.195,0.972-0.1,1.277,0.215l1.341,1.365c0.308,0.316,0.812,0.316,1.126,0
				l2.064-2.111c0.316-0.316,0.316-0.833,0-1.147l-1.339-1.363c-0.308-0.316-0.399-0.9-0.199-1.304l0.352-0.872
				c0.133-0.429,0.61-0.774,1.049-0.774h1.891c0.437,0,0.8-0.363,0.8-0.815v-2.979C191.263,31.701,190.902,31.331,190.467,31.331z
				 M179.035,37.569c-2.128,0-3.854-1.762-3.854-3.93c0-2.175,1.727-3.937,3.854-3.937c2.129,0,3.851,1.762,3.851,3.937
				C182.886,35.808,181.164,37.569,179.035,37.569z"/>
			<path fill="#B5F0FF" d="M183.836,112.472h-1.893c-0.438,0-0.913-0.345-1.047-0.769l-0.354-0.873
				c-0.198-0.402-0.105-0.983,0.202-1.303l1.34-1.361c0.316-0.312,0.316-0.834,0-1.148l-2.064-2.11
				c-0.315-0.315-0.821-0.315-1.129,0l-1.337,1.36c-0.31,0.317-0.885,0.417-1.277,0.214l-0.854-0.359
				c-0.415-0.14-0.756-0.621-0.756-1.072v-1.926c0-0.447-0.356-0.815-0.802-0.815h-2.921c-0.439,0-0.799,0.366-0.799,0.815v1.926
				c0,0.448-0.342,0.933-0.759,1.072l-0.852,0.359c-0.389,0.203-0.972,0.104-1.276-0.214l-1.336-1.36
				c-0.311-0.315-0.813-0.315-1.126,0l-2.071,2.11c-0.309,0.314-0.309,0.837,0,1.148l1.34,1.361c0.308,0.319,0.403,0.9,0.205,1.303
				l-0.348,0.873c-0.142,0.424-0.61,0.769-1.056,0.769h-1.891c-0.435,0-0.797,0.365-0.797,0.816v2.979
				c0,0.447,0.36,0.814,0.797,0.814h1.894c0.441,0,0.911,0.345,1.053,0.772l0.348,0.873c0.199,0.403,0.105,0.986-0.204,1.303
				l-1.339,1.364c-0.306,0.315-0.306,0.833,0,1.147l2.069,2.111c0.313,0.314,0.82,0.314,1.132,0l1.332-1.364
				c0.304-0.316,0.887-0.41,1.274-0.216l0.855,0.361c0.416,0.141,0.757,0.623,0.757,1.072v1.93c0,0.449,0.357,0.814,0.798,0.814
				h2.92c0.44,0,0.804-0.365,0.804-0.814v-1.93c0-0.448,0.343-0.932,0.758-1.072l0.851-0.361c0.395-0.194,0.969-0.101,1.277,0.216
				l1.338,1.364c0.31,0.314,0.815,0.314,1.131,0l2.062-2.111c0.315-0.316,0.315-0.832,0-1.147l-1.338-1.364
				c-0.309-0.316-0.4-0.899-0.202-1.303l0.353-0.873c0.134-0.428,0.609-0.772,1.049-0.772h1.89c0.438,0,0.801-0.362,0.801-0.814
				v-2.979C184.634,112.841,184.271,112.472,183.836,112.472z M172.404,118.709c-2.125,0-3.854-1.762-3.854-3.931
				c0-2.175,1.729-3.937,3.854-3.937c2.132,0,3.852,1.762,3.852,3.937C176.256,116.947,174.536,118.709,172.404,118.709z"/>
		</g>
		<path fill="#B5F0FF" d="M167.332,61.784c-3.259-5.526-10.652-4.848-15.525-2.103c-5.91,3.335-9.382,10.394-7.83,17.18
			c0.028,0.121,0.087,0.21,0.156,0.275c-0.811,0.743-1.648,1.462-2.544,2.135c-2.597,1.959-5.389,3.428-8.273,4.825
			c0.449-7.677,1.962-15.332,3.669-23.139c6.762-4.751,15.778-9.633,16.649-18.666c0.649-6.72-2.355-17.133-10.469-17.238
			c-7.037-0.089-11.561,8.259-13.128,14.23c-1.943,7.408-0.802,15.989,4.119,21.934c-2.812,9.848-4.585,20.371-3.99,30.53
			c-1.723-0.062-4.137-2.064-5.344-3.234c2.321-5.345,2.946-11.694-0.926-16.501c-3.34-4.141-9.086-4.943-13.6-2.32
			c-4.736,2.747-6.601,8.828-3.258,13.453c3.414,4.718,10.096,7.421,15.799,6.524c0.438,0.42,0.876,0.805,1.284,1.126
			c1.412,1.102,4.107,2.91,6.143,2.452c0.546,6.656,2.145,13.139,5.202,19.138c0.598,1.176,2.551,0.318,2.096-0.938
			c-0.123-0.334-0.24-0.667-0.361-0.996c-0.023-0.066-0.066-0.115-0.098-0.171c-3.26-8.384-4.2-16.544-3.875-24.668
			c3.583-1.164,7.21-3.053,10.441-5.454c0.087,0.208,0.216,0.407,0.449,0.563c5.526,3.681,12.388,2.959,17.563-1.046
			C166.733,75.771,171.009,68.015,167.332,61.784"/>
		<path fill="#7C6453" d="M188.273,140.384c-1.301-6.634-9.291-11.743-18.416-11.743c-0.331,0-0.609,0.021-0.932,0.035
			c0.055-0.563,0.133-1.126,0.133-1.702c0-12.924-13.881-23.401-31.021-23.401c-12.566,0-23.363,5.648-28.239,13.752
			c-1.637-0.229-3.296-0.361-5.019-0.361c-15.155,0-27.434,9.261-27.434,20.686c0,0.478-0.624,0.947-0.578,1.415
			c-0.059,0.134-0.768,0.264-0.768,0.405v0.872c-31,4.068-57,11.491-78,21.165V200h269v-38.494
			C246,151.867,219.365,144.464,188.273,140.384z"/>
	</g>
</g>
</svg>
