<?xml version="1.0" encoding="utf-8"?>
<!-- Generator: Adobe Illustrator 16.0.0, SVG Export Plug-In . SVG Version: 6.00 Build 0)  -->
<!DOCTYPE svg PUBLIC "-//W3C//DTD SVG 1.1//EN" "http://www.w3.org/Graphics/SVG/1.1/DTD/svg11.dtd">
<svg version="1.1" id="Capa_1" xmlns="http://www.w3.org/2000/svg" xmlns:xlink="http://www.w3.org/1999/xlink" x="0px" y="0px"
	 width="390px" height="390px" viewBox="0 0 390 390" enable-background="new 0 0 390 390" xml:space="preserve">
<rect x="1.041" opacity="0.3" fill="#A394AA" width="387.918" height="390"/>
<g>
	<path fill="#FFFFFF" d="M302.227,153.437c0.318-2.618,0.486-5.282,0.486-7.986c0-36.08-29.25-65.329-65.33-65.329
		c-0.863,0-1.721,0.021-2.576,0.055c-11.682-10.945-27.385-17.651-44.657-17.651c-17.25,0-32.936,6.689-44.612,17.61
		c-35.572,0.589-64.229,29.603-64.229,65.315c0,2.674,0.164,5.31,0.477,7.899c-13.665,11.975-22.295,29.553-22.295,49.148
		c0,36.081,29.249,65.329,65.329,65.329c5.489,0,10.818-0.68,15.911-1.955c11.979,13.843,29.677,22.601,49.419,22.601
		c20.124,0,38.118-9.101,50.102-23.408c5.967,1.795,12.289,2.763,18.84,2.763c36.082,0,65.33-29.248,65.33-65.329
		C324.422,182.949,315.832,165.409,302.227,153.437z"/>
	<path opacity="0.6" fill="#A394AA" stroke="#602353" stroke-width="2" stroke-miterlimit="10" d="M307.229,162.518
		c0.326-2.664,0.496-5.377,0.496-8.128c0-36.723-29.77-66.491-66.49-66.491c-0.879,0-1.752,0.022-2.623,0.057
		c-11.889-11.141-27.871-17.965-45.45-17.965c-17.557,0-33.521,6.808-45.405,17.923c-36.204,0.599-65.37,30.129-65.37,66.477
		c0,2.722,0.167,5.403,0.484,8.039c-13.906,12.188-22.69,30.078-22.69,50.022c0,36.722,29.769,66.49,66.491,66.49
		c5.586,0,11.009-0.692,16.193-1.99c12.191,14.089,30.203,23.002,50.297,23.002c20.481,0,38.795-9.263,50.991-23.823
		c6.074,1.826,12.51,2.812,19.178,2.812c36.721,0,66.49-29.769,66.49-66.49C329.82,192.555,321.078,174.702,307.229,162.518z"/>
	<g opacity="0.6">
		<g>
			<g>
				<path fill="#A394AA" d="M248.488,244.2l-6.875-0.004c-1.404,0-2.545-1.145-2.545-2.543v-3.283
					c-1.014-0.197-2.021-0.452-3.02-0.762l-1.725,2.981c-0.449,0.781-1.291,1.271-2.199,1.271c-0.443,0-0.885-0.117-1.271-0.343
					l-5.955-3.437c-0.592-0.338-1.014-0.887-1.191-1.544c-0.174-0.654-0.084-1.345,0.258-1.933l1.639-2.843
					c-0.77-0.674-1.516-1.401-2.227-2.173l-2.984,1.72c-0.389,0.227-0.828,0.342-1.273,0.342c-0.908,0-1.756-0.484-2.207-1.27
					l-3.439-5.959c-0.34-0.59-0.43-1.275-0.256-1.928c0.178-0.659,0.598-1.209,1.189-1.547l2.832-1.641
					c-0.334-0.978-0.613-1.979-0.844-2.996h-3.432c-1.408,0-2.553-1.146-2.553-2.549v-6.873c0-1.406,1.145-2.551,2.553-2.551h3.275
					c0.201-1.023,0.457-2.03,0.766-3.013l-2.98-1.723c-0.59-0.339-1.012-0.89-1.189-1.548c-0.178-0.656-0.086-1.344,0.254-1.934
					l3.438-5.951c0.463-0.79,1.316-1.275,2.221-1.275c0.441,0,0.881,0.116,1.266,0.337l2.84,1.643
					c0.668-0.765,1.395-1.507,2.17-2.222l-1.725-2.984c-0.342-0.594-0.43-1.282-0.254-1.942c0.18-0.654,0.6-1.202,1.188-1.538
					l5.951-3.44c0.391-0.226,0.832-0.343,1.277-0.343c0.906,0,1.754,0.487,2.211,1.274l1.633,2.835
					c0.979-0.334,1.982-0.616,2.992-0.844v-3.438c0-1.402,1.148-2.546,2.551-2.546h6.875c1.404,0,2.551,1.144,2.551,2.546v3.281
					c1.027,0.202,2.039,0.457,3.016,0.764l1.721-2.978c0.455-0.784,1.303-1.274,2.209-1.274c0.439,0,0.881,0.117,1.266,0.338
					l5.955,3.442c1.217,0.702,1.635,2.264,0.936,3.481l-1.639,2.839c0.775,0.678,1.52,1.402,2.225,2.17l2.982-1.722
					c0.387-0.225,0.824-0.342,1.27-0.342c0.908,0,1.756,0.486,2.213,1.273l3.439,5.952c0.695,1.223,0.277,2.781-0.934,3.485
					l-2.834,1.638c0.338,0.99,0.621,1.995,0.85,2.998h3.434c0.686,0,1.322,0.266,1.805,0.75c0.482,0.481,0.744,1.119,0.738,1.801
					v6.871c-0.002,1.407-1.143,2.554-2.543,2.554H273.1c-0.203,1.022-0.459,2.029-0.762,3.005l2.977,1.725
					c1.217,0.704,1.633,2.266,0.932,3.48l-3.438,5.954c-0.457,0.786-1.303,1.275-2.209,1.275c-0.441,0-0.879-0.118-1.266-0.337
					l-2.844-1.645c-0.68,0.773-1.406,1.52-2.176,2.224l1.721,2.979c0.703,1.229,0.285,2.789-0.932,3.487l-5.953,3.438
					c-0.393,0.226-0.834,0.342-1.271,0.342c-0.908,0-1.752-0.489-2.205-1.274l-1.639-2.834c-0.967,0.33-1.971,0.611-2.994,0.844
					v3.438C251.035,243.057,249.893,244.2,248.488,244.2L248.488,244.2z M235.289,235.616l0.643,0.213
					c1.35,0.454,2.729,0.802,4.104,1.033l0.688,0.116v4.673c0,0.487,0.398,0.887,0.893,0.887l6.875,0.004
					c0.492,0,0.893-0.4,0.893-0.891v-4.786l0.662-0.134c1.41-0.284,2.781-0.672,4.076-1.146l0.652-0.239l2.334,4.028
					c0.238,0.415,0.787,0.567,1.217,0.325l5.951-3.437c0.426-0.245,0.57-0.793,0.324-1.228l-2.4-4.147l0.514-0.445
					c1.068-0.939,2.064-1.953,2.951-3.026l0.447-0.538l4.043,2.338c0.41,0.232,0.979,0.082,1.215-0.331l3.439-5.955
					c0.246-0.424,0.1-0.969-0.324-1.215l-4.148-2.399l0.217-0.646c0.445-1.312,0.795-2.687,1.039-4.091l0.121-0.69h4.662
					c0.486,0,0.885-0.4,0.889-0.897v-6.874c0-0.239-0.09-0.46-0.26-0.631c-0.166-0.166-0.391-0.261-0.629-0.261h-4.785l-0.133-0.663
					c-0.275-1.364-0.664-2.737-1.154-4.079l-0.238-0.652l4.033-2.329c0.424-0.247,0.568-0.794,0.32-1.225l-3.434-5.948
					c-0.236-0.407-0.805-0.565-1.217-0.325l-4.156,2.396l-0.447-0.512c-0.934-1.064-1.951-2.058-3.023-2.946l-0.537-0.446
					l2.328-4.04c0.246-0.425,0.1-0.973-0.328-1.22l-5.951-3.44c-0.404-0.229-0.977-0.079-1.211,0.331l-2.402,4.146l-0.643-0.222
					c-1.305-0.442-2.684-0.79-4.1-1.034l-0.689-0.117v-4.669c0-0.491-0.4-0.89-0.893-0.89h-6.875c-0.492,0-0.895,0.396-0.895,0.89
					v4.787l-0.666,0.133c-1.385,0.278-2.754,0.664-4.074,1.149l-0.654,0.241l-2.322-4.033c-0.24-0.415-0.801-0.571-1.229-0.324
					l-5.953,3.438c-0.203,0.116-0.35,0.308-0.412,0.534c-0.061,0.23-0.027,0.475,0.092,0.683l2.4,4.152l-0.512,0.449
					c-1.09,0.954-2.08,1.975-2.949,3.022l-0.445,0.539l-4.043-2.334c-0.406-0.235-0.979-0.08-1.227,0.336l-3.436,5.947
					c-0.117,0.202-0.148,0.443-0.088,0.673c0.062,0.23,0.211,0.424,0.416,0.544l4.152,2.396l-0.219,0.645
					c-0.449,1.32-0.799,2.699-1.037,4.097l-0.115,0.689h-4.666c-0.492,0-0.898,0.401-0.898,0.896v6.871
					c0,0.493,0.402,0.895,0.898,0.895h4.785l0.135,0.669c0.273,1.39,0.662,2.759,1.145,4.073l0.242,0.654l-4.033,2.332
					c-0.209,0.118-0.355,0.31-0.416,0.536c-0.059,0.23-0.027,0.472,0.09,0.678l3.438,5.954c0.234,0.406,0.803,0.564,1.219,0.323
					l4.15-2.395l0.449,0.507c0.951,1.081,1.971,2.073,3.029,2.953l0.537,0.447l-2.332,4.043c-0.119,0.207-0.148,0.447-0.09,0.677
					c0.062,0.229,0.209,0.418,0.412,0.537l5.963,3.438c0.408,0.236,0.973,0.083,1.203-0.321L235.289,235.616L235.289,235.616z
					 M244.666,228.608c-10.293,0-18.66-8.373-18.66-18.662c0-10.292,8.371-18.664,18.66-18.664c10.293,0,18.666,8.373,18.666,18.664
					C263.334,220.235,254.957,228.608,244.666,228.608L244.666,228.608z M244.666,192.938c-9.377,0-17.004,7.628-17.004,17.008
					c0,9.376,7.627,17.004,17.004,17.004c9.379,0,17.01-7.628,17.01-17.004C261.676,200.566,254.045,192.938,244.666,192.938
					L244.666,192.938z"/>
			</g>
		</g>
		<g>
			<g>
				<path fill="#A394AA" d="M155.962,154.983l-5.729-0.003c-1.171,0-2.121-0.954-2.121-2.119v-2.736
					c-0.845-0.165-1.685-0.377-2.517-0.636l-1.437,2.485c-0.375,0.651-1.077,1.06-1.833,1.06c-0.37,0-0.738-0.098-1.061-0.285
					l-4.964-2.864c-0.492-0.282-0.844-0.739-0.991-1.287c-0.146-0.545-0.071-1.121,0.214-1.61l1.366-2.369
					c-0.643-0.562-1.264-1.168-1.856-1.812l-2.486,1.434c-0.324,0.188-0.691,0.284-1.062,0.284c-0.757,0-1.464-0.403-1.839-1.058
					l-2.867-4.967c-0.282-0.491-0.358-1.062-0.213-1.606c0.147-0.55,0.499-1.008,0.992-1.289l2.359-1.367
					c-0.278-0.815-0.511-1.65-0.703-2.497h-2.86c-1.174,0-2.127-0.955-2.127-2.125v-5.728c0-1.173,0.953-2.127,2.127-2.127h2.73
					c0.168-0.853,0.38-1.691,0.638-2.511l-2.484-1.436c-0.491-0.282-0.843-0.741-0.991-1.29c-0.147-0.547-0.071-1.12,0.212-1.611
					l2.865-4.96c0.386-0.659,1.097-1.063,1.851-1.063c0.368,0,0.733,0.098,1.055,0.281l2.366,1.369
					c0.558-0.638,1.163-1.256,1.809-1.852l-1.438-2.487c-0.283-0.495-0.357-1.069-0.21-1.619c0.148-0.546,0.499-1.002,0.989-1.282
					l4.959-2.867c0.327-0.188,0.694-0.286,1.064-0.286c0.756,0,1.462,0.406,1.844,1.062l1.36,2.362
					c0.815-0.277,1.653-0.513,2.495-0.703v-2.865c0-1.169,0.956-2.122,2.125-2.122h5.729c1.171,0,2.126,0.953,2.126,2.122v2.734
					c0.856,0.169,1.699,0.381,2.514,0.637l1.435-2.481c0.379-0.653,1.085-1.062,1.841-1.062c0.366,0,0.734,0.098,1.055,0.282
					l4.964,2.868c1.014,0.586,1.362,1.887,0.779,2.902l-1.365,2.366c0.646,0.564,1.266,1.168,1.854,1.808l2.486-1.435
					c0.321-0.188,0.687-0.285,1.058-0.285c0.758,0,1.464,0.405,1.844,1.062l2.867,4.961c0.579,1.02,0.231,2.318-0.777,2.905
					l-2.363,1.364c0.281,0.825,0.518,1.663,0.708,2.499h2.862c0.571,0,1.103,0.222,1.504,0.625c0.402,0.401,0.62,0.933,0.615,1.501
					v5.727c-0.001,1.173-0.951,2.129-2.119,2.129h-2.733c-0.169,0.852-0.383,1.691-0.635,2.504l2.481,1.438
					c1.014,0.587,1.36,1.889,0.776,2.901l-2.865,4.962c-0.382,0.655-1.086,1.063-1.842,1.063c-0.367,0-0.732-0.099-1.055-0.281
					l-2.369-1.371c-0.567,0.646-1.172,1.267-1.814,1.854l1.436,2.482c0.586,1.024,0.236,2.325-0.776,2.906l-4.962,2.866
					c-0.327,0.188-0.695,0.285-1.061,0.285c-0.757,0-1.46-0.408-1.838-1.062l-1.366-2.362c-0.806,0.275-1.643,0.51-2.494,0.704
					v2.865C158.086,154.03,157.133,154.983,155.962,154.983L155.962,154.983z M144.961,147.829l0.536,0.178
					c1.125,0.379,2.273,0.668,3.42,0.861l0.573,0.097v3.895c0,0.406,0.332,0.739,0.743,0.739l5.73,0.003
					c0.41,0,0.744-0.334,0.744-0.742v-3.989l0.553-0.111c1.174-0.236,2.317-0.56,3.396-0.955l0.543-0.199l1.945,3.357
					c0.199,0.346,0.657,0.473,1.016,0.271l4.959-2.864c0.355-0.204,0.476-0.661,0.271-1.023l-2.001-3.456l0.428-0.371
					c0.892-0.783,1.722-1.628,2.461-2.522l0.372-0.449l3.37,1.949c0.341,0.193,0.815,0.068,1.013-0.276l2.866-4.963
					c0.205-0.354,0.082-0.808-0.271-1.013l-3.458-2l0.182-0.538c0.371-1.093,0.662-2.239,0.865-3.409l0.101-0.575h3.886
					c0.405,0,0.737-0.334,0.741-0.748v-5.729c0-0.199-0.074-0.384-0.216-0.525c-0.14-0.139-0.326-0.218-0.525-0.218h-3.987
					l-0.111-0.553c-0.229-1.137-0.553-2.281-0.961-3.399l-0.2-0.544l3.362-1.941c0.353-0.205,0.474-0.661,0.268-1.021l-2.862-4.957
					c-0.196-0.34-0.67-0.472-1.015-0.271l-3.464,1.997l-0.372-0.426c-0.778-0.888-1.627-1.715-2.521-2.456l-0.447-0.372l1.939-3.367
					c0.205-0.354,0.084-0.811-0.272-1.017l-4.961-2.867c-0.336-0.191-0.813-0.065-1.009,0.276l-2.002,3.455l-0.535-0.185
					c-1.088-0.368-2.237-0.658-3.417-0.861l-0.575-0.098v-3.892c0-0.409-0.334-0.741-0.744-0.741h-5.729
					c-0.41,0-0.747,0.33-0.747,0.741v3.989l-0.555,0.111c-1.154,0.231-2.296,0.554-3.396,0.958l-0.546,0.201l-1.936-3.362
					c-0.2-0.346-0.667-0.476-1.023-0.27l-4.961,2.865c-0.17,0.097-0.292,0.257-0.345,0.445c-0.05,0.192-0.022,0.396,0.077,0.569
					l2,3.461l-0.426,0.374c-0.908,0.795-1.734,1.646-2.458,2.52l-0.371,0.449l-3.369-1.945c-0.339-0.196-0.816-0.067-1.022,0.279
					l-2.863,4.957c-0.098,0.169-0.124,0.37-0.074,0.561c0.052,0.192,0.176,0.354,0.347,0.454l3.461,1.997l-0.183,0.537
					c-0.374,1.101-0.665,2.25-0.864,3.414l-0.096,0.575h-3.889c-0.41,0-0.748,0.334-0.748,0.746v5.727
					c0,0.411,0.335,0.746,0.748,0.746h3.988l0.112,0.557c0.228,1.158,0.552,2.3,0.954,3.396l0.202,0.545l-3.362,1.944
					c-0.174,0.098-0.296,0.258-0.347,0.446c-0.049,0.192-0.022,0.394,0.075,0.565l2.865,4.962c0.194,0.339,0.668,0.471,1.015,0.27
					l3.46-1.996l0.375,0.423c0.793,0.9,1.642,1.728,2.523,2.461l0.448,0.373l-1.944,3.369c-0.098,0.173-0.123,0.373-0.074,0.564
					c0.052,0.191,0.174,0.349,0.344,0.447l4.97,2.866c0.34,0.197,0.811,0.069,1.003-0.268L144.961,147.829L144.961,147.829z
					 M152.777,141.988c-8.578,0-15.552-6.979-15.552-15.554c0-8.578,6.977-15.556,15.552-15.556c8.58,0,15.559,6.979,15.559,15.556
					C168.335,135.01,161.355,141.988,152.777,141.988L152.777,141.988z M152.777,112.26c-7.814,0-14.172,6.357-14.172,14.175
					c0,7.814,6.357,14.172,14.172,14.172c7.818,0,14.177-6.357,14.177-14.172C166.954,118.617,160.594,112.26,152.777,112.26
					L152.777,112.26z"/>
			</g>
		</g>
		<g>
			<path fill="#A394AA" d="M282.188,189.646h-3.426c-0.975,0-1.764-0.79-1.764-1.763v-2.216c0-0.162-0.17-0.396-0.322-0.447
				l-1.053-0.435c-0.188-0.088-0.496-0.032-0.592,0.063l-1.572,1.571c-0.668,0.663-1.832,0.661-2.492,0l-2.426-2.427
				c-0.332-0.33-0.518-0.774-0.518-1.248s0.186-0.918,0.518-1.246l1.568-1.567c0.109-0.109,0.154-0.397,0.086-0.539l-0.436-1.061
				c-0.068-0.199-0.311-0.373-0.469-0.373h-2.219c-0.973,0-1.762-0.79-1.762-1.765v-3.426c0-0.973,0.789-1.764,1.762-1.764h2.219
				c0.158,0,0.398-0.174,0.447-0.322l0.43-1.054c0.096-0.195,0.051-0.485-0.062-0.599l-1.566-1.566
				c-0.33-0.328-0.516-0.773-0.516-1.245c0-0.476,0.186-0.917,0.518-1.246l2.424-2.425c0.66-0.662,1.828-0.664,2.494-0.002
				l1.566,1.568c0.061,0.062,0.205,0.12,0.363,0.12c0.102,0,0.158-0.021,0.178-0.032l1.053-0.439
				c0.209-0.071,0.379-0.307,0.379-0.466v-2.216c0-0.977,0.789-1.765,1.764-1.765h3.426c0.975,0,1.77,0.788,1.77,1.765v2.216
				c0,0.159,0.168,0.397,0.314,0.445l1.057,0.437c0.307,0.146,0.51,0.023,0.596-0.064l1.566-1.566
				c0.67-0.665,1.836-0.663,2.496,0.004l2.422,2.425c0.332,0.326,0.518,0.771,0.518,1.244c0,0.472-0.186,0.917-0.52,1.247
				l-1.566,1.565c-0.111,0.111-0.158,0.402-0.086,0.545l0.439,1.055c0.068,0.204,0.309,0.374,0.465,0.374h2.219
				c0.973,0,1.764,0.791,1.764,1.764v3.428c0,0.974-0.791,1.764-1.764,1.764h-2.219c-0.156,0-0.396,0.171-0.443,0.318l-0.438,1.062
				c-0.094,0.194-0.049,0.482,0.064,0.596l1.566,1.567c0.328,0.324,0.518,0.771,0.518,1.242c0,0.474-0.186,0.918-0.521,1.249
				l-2.422,2.426c-0.656,0.659-1.822,0.661-2.49,0.002l-1.568-1.568c-0.092-0.092-0.402-0.16-0.547-0.09l-1.049,0.437
				c-0.205,0.07-0.373,0.307-0.373,0.47v2.216C283.955,188.855,283.16,189.646,282.188,189.646L282.188,189.646z M275.391,183.072
				c0.326,0,0.645,0.07,0.916,0.207l0.947,0.39c0.777,0.259,1.4,1.126,1.4,1.998v2.216c0,0.06,0.047,0.106,0.105,0.106h3.424
				c0.062,0,0.109-0.051,0.109-0.106v-2.216c0-0.872,0.623-1.736,1.449-2.017l0.945-0.396c0.223-0.111,0.537-0.185,0.863-0.185
				c0.586,0,1.156,0.229,1.539,0.61l1.566,1.565c0.023,0.025,0.055,0.03,0.074,0.03l2.5-2.454l-0.002-0.003l0.002-0.146
				l-1.568-1.567c-0.617-0.62-0.787-1.675-0.396-2.452l0.389-0.949c0.256-0.774,1.123-1.4,1.996-1.4h2.217
				c0.057,0,0.105-0.049,0.105-0.104v-3.428c0-0.056-0.051-0.104-0.105-0.104h-2.217c-0.875,0-1.742-0.626-2.018-1.454l-0.395-0.945
				c-0.363-0.728-0.193-1.78,0.422-2.399l1.568-1.568l-0.002-0.002l0.002-0.146l-2.426-2.428c-0.098-0.028-0.129-0.021-0.15,0.003
				l-1.568,1.565c-0.594,0.595-1.695,0.775-2.453,0.399l-0.947-0.393c-0.771-0.254-1.396-1.119-1.396-1.996v-2.216
				c0-0.057-0.055-0.109-0.109-0.109h-3.424c-0.059,0-0.105,0.052-0.105,0.109v2.216c0,0.877-0.631,1.744-1.457,2.017l-0.941,0.396
				c-0.225,0.111-0.537,0.184-0.867,0.184c-0.582,0-1.156-0.226-1.537-0.606l-1.566-1.566h-0.148l-2.426,2.428l0,0v0.146l1.57,1.565
				c0.613,0.62,0.783,1.675,0.396,2.454l-0.389,0.945c-0.26,0.777-1.129,1.401-2,1.401h-2.219c-0.057,0-0.104,0.05-0.104,0.105
				v3.426c0,0.058,0.049,0.105,0.104,0.105h2.219c0.871,0,1.738,0.625,2.02,1.45l0.393,0.955c0.365,0.725,0.195,1.777-0.42,2.397
				l-1.57,1.567l0,0v0.149l2.426,2.424c0.098,0.03,0.125,0.022,0.15-0.001l1.566-1.566
				C274.23,183.302,274.805,183.072,275.391,183.072L275.391,183.072z M280.475,179.827c-2.947,0-5.346-2.398-5.346-5.346
				s2.398-5.346,5.346-5.346s5.348,2.398,5.348,5.346C285.824,177.429,283.424,179.827,280.475,179.827L280.475,179.827z
				 M280.475,170.792c-2.033,0-3.691,1.655-3.691,3.689c0,2.035,1.656,3.692,3.691,3.692c2.033,0,3.691-1.654,3.691-3.692
				C284.164,172.447,282.51,170.792,280.475,170.792L280.475,170.792z"/>
		</g>
		<g>
			<path fill="#A394AA" d="M172.507,169.044h-1.427c-0.406,0-0.735-0.33-0.735-0.734v-0.923c0-0.067-0.07-0.166-0.135-0.188
				l-0.438-0.181c-0.078-0.037-0.208-0.013-0.246,0.027l-0.655,0.654c-0.278,0.276-0.764,0.275-1.038,0l-1.01-1.011
				c-0.139-0.138-0.216-0.323-0.216-0.52c0-0.198,0.077-0.383,0.216-0.52l0.652-0.652c0.046-0.046,0.064-0.167,0.036-0.226
				l-0.183-0.441c-0.028-0.084-0.129-0.155-0.194-0.155h-0.925c-0.405,0-0.733-0.329-0.733-0.736v-1.427
				c0-0.404,0.328-0.734,0.733-0.734h0.925c0.065,0,0.166-0.073,0.187-0.134l0.18-0.439c0.039-0.081,0.021-0.202-0.027-0.249
				l-0.652-0.653c-0.138-0.136-0.214-0.322-0.214-0.518c0-0.199,0.076-0.383,0.216-0.52l1.01-1.01
				c0.274-0.276,0.761-0.277,1.037-0.002l0.653,0.654c0.024,0.025,0.085,0.05,0.151,0.05c0.043,0,0.066-0.009,0.074-0.014
				l0.438-0.184c0.087-0.029,0.157-0.127,0.157-0.193v-0.923c0-0.407,0.329-0.735,0.735-0.735h1.427
				c0.406,0,0.737,0.328,0.737,0.735v0.923c0,0.066,0.069,0.165,0.132,0.185l0.439,0.183c0.128,0.062,0.213,0.01,0.248-0.026
				l0.652-0.652c0.279-0.277,0.765-0.276,1.039,0.001l1.011,1.01c0.138,0.136,0.215,0.322,0.215,0.519
				c0,0.197-0.077,0.382-0.216,0.52l-0.653,0.652c-0.045,0.047-0.064,0.168-0.035,0.228l0.183,0.439
				c0.029,0.085,0.129,0.155,0.194,0.155h0.925c0.404,0,0.733,0.329,0.733,0.733v1.429c0,0.406-0.329,0.735-0.733,0.735h-0.925
				c-0.065,0-0.165,0.07-0.186,0.133l-0.182,0.441c-0.039,0.081-0.02,0.201,0.026,0.249l0.653,0.652
				c0.137,0.136,0.215,0.321,0.215,0.518c0,0.197-0.077,0.383-0.217,0.521l-1.009,1.01c-0.274,0.275-0.76,0.276-1.038,0.001
				l-0.653-0.653c-0.039-0.038-0.167-0.066-0.227-0.037l-0.438,0.182c-0.086,0.029-0.155,0.129-0.155,0.196v0.923
				C173.245,168.714,172.914,169.044,172.507,169.044L172.507,169.044z M169.677,166.306c0.135,0,0.268,0.029,0.381,0.086
				l0.395,0.163c0.324,0.107,0.584,0.469,0.584,0.832v0.923c0,0.024,0.02,0.044,0.042,0.044h1.429c0.025,0,0.045-0.021,0.045-0.044
				v-0.923c0-0.363,0.258-0.724,0.604-0.84l0.393-0.165c0.094-0.047,0.226-0.077,0.36-0.077c0.243,0,0.482,0.096,0.641,0.254
				l0.653,0.652c0.01,0.01,0.022,0.013,0.03,0.013l1.042-1.022l-0.002-0.001l0.002-0.062l-0.654-0.652
				c-0.256-0.257-0.328-0.696-0.164-1.021l0.162-0.396c0.107-0.323,0.468-0.584,0.831-0.584h0.924c0.023,0,0.044-0.021,0.044-0.044
				v-1.429c0-0.022-0.021-0.042-0.044-0.042h-0.924c-0.364,0-0.726-0.261-0.841-0.605l-0.164-0.395
				c-0.152-0.303-0.08-0.742,0.176-0.999l0.652-0.654v-0.001v-0.061l-1.01-1.011c-0.04-0.013-0.053-0.009-0.062,0.001l-0.654,0.652
				c-0.246,0.248-0.705,0.322-1.021,0.166l-0.395-0.164c-0.321-0.105-0.582-0.466-0.582-0.831v-0.923
				c0-0.023-0.022-0.046-0.046-0.046h-1.427c-0.024,0-0.044,0.022-0.044,0.046v0.923c0,0.365-0.262,0.727-0.606,0.84l-0.393,0.165
				c-0.093,0.047-0.224,0.076-0.36,0.076c-0.243,0-0.482-0.094-0.641-0.252l-0.652-0.652h-0.062l-1.01,1.011l0,0v0.061l0.653,0.652
				c0.256,0.258,0.326,0.698,0.165,1.023l-0.162,0.393c-0.107,0.324-0.469,0.584-0.832,0.584h-0.925
				c-0.023,0-0.043,0.021-0.043,0.043v1.428c0,0.024,0.021,0.045,0.043,0.045h0.925c0.363,0,0.724,0.26,0.841,0.604l0.163,0.396
				c0.152,0.303,0.082,0.742-0.175,0.999l-0.653,0.652l0,0v0.063l1.01,1.01c0.041,0.013,0.053,0.009,0.064-0.001l0.651-0.652
				C169.193,166.401,169.433,166.306,169.677,166.306L169.677,166.306z M171.794,164.954c-1.228,0-2.227-0.999-2.227-2.227
				c0-1.229,0.999-2.228,2.227-2.228c1.229,0,2.229,0.999,2.229,2.228C174.023,163.955,173.023,164.954,171.794,164.954
				L171.794,164.954z M171.794,161.188c-0.848,0-1.538,0.691-1.538,1.539c0,0.847,0.689,1.538,1.538,1.538
				c0.848,0,1.537-0.69,1.537-1.538S172.642,161.188,171.794,161.188L171.794,161.188z"/>
		</g>
		<path fill="#A394AA" d="M263.705,163.944h-1.234c-0.287,0-0.596-0.22-0.684-0.49l-0.23-0.56c-0.131-0.257-0.068-0.628,0.133-0.833
			l0.873-0.87c0.205-0.199,0.205-0.533,0-0.734l-1.348-1.351c-0.205-0.202-0.535-0.202-0.734,0l-0.873,0.871
			c-0.201,0.202-0.576,0.266-0.834,0.136l-0.557-0.229c-0.271-0.089-0.494-0.396-0.494-0.685v-1.232
			c0-0.284-0.232-0.521-0.523-0.521h-1.904c-0.285,0-0.521,0.235-0.521,0.521v1.232c0,0.286-0.221,0.596-0.494,0.685l-0.557,0.229
			c-0.252,0.13-0.631,0.066-0.83-0.136l-0.871-0.871c-0.203-0.202-0.531-0.202-0.734,0l-1.352,1.351
			c-0.201,0.201-0.201,0.535,0,0.734l0.873,0.87c0.203,0.205,0.264,0.576,0.135,0.833l-0.227,0.56c-0.094,0.271-0.4,0.49-0.689,0.49
			h-1.232c-0.283,0-0.521,0.234-0.521,0.522v1.905c0,0.286,0.236,0.521,0.521,0.521h1.232c0.287,0,0.596,0.222,0.689,0.494
			l0.227,0.559c0.129,0.257,0.068,0.631-0.133,0.834l-0.873,0.87c-0.201,0.203-0.201,0.533,0,0.734l1.35,1.351
			c0.205,0.201,0.533,0.201,0.736,0l0.869-0.873c0.199-0.202,0.578-0.263,0.832-0.136l0.557,0.228
			c0.271,0.093,0.494,0.399,0.494,0.688v1.233c0,0.287,0.232,0.521,0.521,0.521h1.904c0.287,0,0.521-0.231,0.521-0.521v-1.233
			c0-0.286,0.227-0.595,0.496-0.688l0.555-0.228c0.258-0.127,0.633-0.066,0.834,0.136l0.873,0.873c0.201,0.201,0.531,0.201,0.734,0
			l1.348-1.351c0.205-0.202,0.205-0.531,0-0.734l-0.873-0.87c-0.201-0.203-0.26-0.577-0.131-0.834l0.229-0.559
			c0.088-0.272,0.398-0.494,0.684-0.494h1.234c0.285,0,0.52-0.232,0.52-0.521v-1.905
			C264.225,164.18,263.988,163.944,263.705,163.944z M256.25,167.934c-1.389,0-2.514-1.127-2.514-2.515
			c0-1.39,1.125-2.517,2.514-2.517s2.512,1.127,2.512,2.517C258.762,166.807,257.639,167.934,256.25,167.934z"/>
		<path fill="#A394AA" d="M108.644,208.601h-1.234c-0.286,0-0.596-0.22-0.684-0.49l-0.23-0.559c-0.13-0.258-0.069-0.629,0.132-0.833
			l0.873-0.871c0.207-0.199,0.207-0.533,0-0.734l-1.346-1.35c-0.206-0.202-0.536-0.202-0.736,0l-0.873,0.87
			c-0.201,0.203-0.576,0.266-0.833,0.137l-0.557-0.229c-0.271-0.09-0.493-0.397-0.493-0.686v-1.232c0-0.285-0.232-0.521-0.522-0.521
			h-1.905c-0.286,0-0.522,0.233-0.522,0.521v1.232c0,0.286-0.222,0.596-0.493,0.686l-0.556,0.229
			c-0.254,0.129-0.634,0.066-0.833-0.137l-0.87-0.87c-0.203-0.202-0.531-0.202-0.734,0l-1.352,1.35
			c-0.201,0.201-0.201,0.535,0,0.734l0.873,0.871c0.202,0.204,0.264,0.575,0.135,0.833l-0.227,0.559
			c-0.093,0.271-0.399,0.49-0.689,0.49h-1.232c-0.283,0-0.521,0.234-0.521,0.522v1.905c0,0.286,0.235,0.521,0.521,0.521h1.233
			c0.288,0,0.596,0.222,0.688,0.494l0.227,0.559c0.13,0.257,0.068,0.631-0.134,0.833l-0.872,0.872c-0.201,0.201-0.201,0.532,0,0.733
			l1.35,1.351c0.204,0.201,0.533,0.201,0.736,0l0.869-0.873c0.199-0.202,0.579-0.262,0.832-0.137l0.557,0.229
			c0.271,0.092,0.494,0.398,0.494,0.687v1.233c0,0.287,0.234,0.521,0.521,0.521h1.904c0.287,0,0.523-0.231,0.523-0.521v-1.233
			c0-0.287,0.225-0.595,0.494-0.687l0.555-0.229c0.258-0.125,0.633-0.065,0.834,0.137l0.873,0.873c0.2,0.201,0.531,0.201,0.736,0
			l1.346-1.351c0.206-0.202,0.206-0.532,0-0.733l-0.873-0.872c-0.201-0.202-0.261-0.576-0.131-0.833l0.229-0.559
			c0.088-0.272,0.397-0.494,0.684-0.494h1.233c0.285,0,0.521-0.232,0.521-0.521v-1.905
			C109.164,208.837,108.928,208.601,108.644,208.601z M101.188,212.59c-1.387,0-2.514-1.127-2.514-2.514
			c0-1.391,1.127-2.518,2.514-2.518c1.39,0,2.512,1.127,2.512,2.518C103.7,211.463,102.578,212.59,101.188,212.59z"/>
	</g>
	<g>
		<g>
			<g>
				<path fill="#D9B13C" d="M174.027,299.051c-1.721-24.402-20.092-37.585-22.565-49.03c-3.83-25.201,18.755-49.67,45.201-47.779
					c29.881,1.844,46.574,41.776,27.406,65.029c-3.377,4.646-12.512,8.238-15.885,12.886c-3.354,5.791-2.086,13.806-5.463,18.451
					c-3.371,4.644-21.518,18.699-28.604,6.179C172.943,303.661,174.063,301.345,174.027,299.051"/>
			</g>
			<g>
				<g>
					<path fill="#A27F29" d="M187.993,289.933c-3.054-4.999-3.348-12.993-4.709-18.625c-1.919-7.949-4.874-15.742-5.188-23.982
						c-1.421,0.838-2.839,1.675-4.261,2.53c3.193,2.085,6.227,4.334,9.168,6.75c1.435,1.175,3.465,1.017,4.464-0.652
						c2.029-3.36,3.71-6.859,5.498-10.346c-1.636,0.021-3.284,0.048-4.929,0.074c2.537,3.225,1.783,10.619,6.715,11.895
						c5.241,1.343,10.084-5.969,14.018-8.044c-1.406-0.547-2.814-1.094-4.221-1.644c1.709,6.636-4.367,17.767-6.699,23.861
						c-1.674,4.393-3.552,8.535-4.205,13.224c-0.688,4.887-2.87,4.388-7.288,4.194c-3.682-0.155-3.569,5.55,0.09,5.707
						c10.489,0.46,11.327-1.438,13.245-11.715c2.16-11.468,13.461-24.743,10.34-36.865c-0.492-1.877-2.643-2.473-4.221-1.646
						c-3.482,1.839-6.135,4.85-9.35,7.089c0.744-0.511-2.73-7.992-3.536-9.009c-1.232-1.575-3.852-2.021-4.933,0.076
						c-1.782,3.492-3.466,6.989-5.492,10.349c1.491-0.214,2.978-0.426,4.473-0.644c-3.332-2.735-6.72-5.263-10.335-7.624
						c-1.815-1.193-4.327,0.46-4.247,2.534c0.296,7.743,2.714,15.023,4.631,22.475c1.843,7.147,2.192,16.639,6.084,23.011
						C185.029,296.036,189.919,293.083,187.993,289.933L187.993,289.933z"/>
				</g>
			</g>
			<g>
				<g>
					<path fill="#A27F29" d="M173.926,306.909c9.592,1.81,19.161,0.552,28.839,0.292c3.68-0.102,3.598-5.807-0.088-5.711
						c-9.107,0.239-18.263,1.584-27.315-0.099C171.755,300.718,170.31,306.243,173.926,306.909L173.926,306.909z"/>
				</g>
			</g>
			<g>
				<g>
					<path fill="#A27F29" d="M174.708,316.955c9.396,1.466,18.767,0.52,28.212,0.296c3.682-0.08,3.594-5.793-0.088-5.71
						c-8.883,0.212-17.844,1.257-26.69-0.116C172.538,310.87,171.076,316.394,174.708,316.955L174.708,316.955z"/>
				</g>
			</g>
			<g>
				<g>
					<path fill="#A27F29" d="M180.993,318.898c1.091,1.743,1.286,3.894,2.438,5.639c1.583,2.396,4.441,3.263,7.175,2.833
						c5.938-0.919,7.043-7.197,6.231-12.171c-0.25-1.541-2.186-2.346-3.545-1.948c-1.629,0.484-2.188,2.016-1.946,3.551
						c0.307,1.88,0.229,5.468-2.572,4.96c-0.817-0.151-1.05-1.23-1.284-1.898c-0.456-1.352-0.859-2.71-1.623-3.918
						C183.925,312.823,179.032,315.768,180.993,318.898L180.993,318.898z"/>
				</g>
			</g>
		</g>
	</g>
	<path opacity="0.7" fill-rule="evenodd" clip-rule="evenodd" fill="#602353" d="M175.981,133.553
		c-0.162-1.188,0.105-3.209,1.911-5.087c1.182-1.229,1.886-2.944,2.705-4.494c2.048-3.877,4.144-7.734,6.021-11.694
		c1.39-2.936,2.4-6.052,3.707-9.029c0.613-1.4,1.598-2.633,2.288-4.005c1.447-2.869,2.776-5.799,4.218-8.669
		c1.094-2.175,1.998-4.542,3.525-6.373c1.438-1.721,3.754-2.195,6.01-1.328c2.002,0.769,4.043,1.35,5.918,2.576
		c3.023,1.972,4.713,5.843,3.193,9.222c-1.998,4.439-4.281,8.75-6.4,13.137c-1.082,2.243-2.439,4.232-4.623,5.529
		c-0.283,0.168-0.729,0.293-1.006,0.191c-1.873-0.692-2.34-0.501-3.285,1.35c-1.035,2.03-2.141,4.025-3.182,6.055
		c-1.59,3.102-3.201,6.193-4.698,9.34c-0.576,1.209-1.097,2.529-1.231,3.842c-0.266,2.549-2.269,3.604-3.846,5.062
		c-1.059,0.977-2.275,1.447-3.73,1.404C180.214,140.478,177.427,138.205,175.981,133.553 M201.357,108.935
		c-0.283-0.199-0.498-0.404-0.754-0.521c-0.652-0.302-1.328-0.556-1.986-0.847c-1.686-0.744-3.344-1.554-5.056-2.229
		c-1.15-0.453-1.948,0.078-2.455,1.188c-0.843,1.845-1.683,3.695-2.625,5.492c-1.406,2.688-3.116,5.187-4.201,8.079
		c-0.985,2.63-2.551,5.045-3.889,7.54c-0.778,1.447-0.609,2.044,0.924,2.671c0.491,0.202,1.046,0.245,1.555,0.418
		c1.469,0.498,2.994,0.893,4.371,1.577c1.644,0.819,2.381,0.684,3.21-1.051c1.489-3.125,2.939-6.27,4.471-9.373
		c1.18-2.399,2.473-4.742,3.69-7.123c0.867-1.691,1.693-3.402,2.527-5.11C201.24,109.436,201.279,109.197,201.357,108.935
		 M202.451,84.91c-0.492,0.493-1.611,1.243-2.209,2.292c-1.174,2.057-2.092,4.265-3.055,6.437c-0.701,1.586-1.237,3.25-1.985,4.812
		c-0.545,1.142-1.347,2.154-1.973,3.26c-0.34,0.6-0.663,1.317,0.275,1.726c2.592,1.127,5.178,2.274,7.803,3.32
		c1.486,0.595,3.186-0.205,3.963-1.632c0.486-0.897,1.078-1.74,1.578-2.631c1.555-2.762,3.273-5.453,4.557-8.336
		c0.701-1.571,1.176-3.594,0.82-5.206C211.59,86.047,205.863,83.649,202.451,84.91 M185.567,138.393
		c0.699-0.585,1.438-1.132,2.088-1.768c0.744-0.729,0.81-1.487-0.307-1.907c-2.633-0.993-5.259-2.018-7.944-2.855
		c-1.323-0.413-1.853,0.283-1.736,1.656C177.944,136.79,182.296,139.42,185.567,138.393 M214.1,93.751
		c-0.137-0.062-0.273-0.125-0.41-0.188c-3.488,5.836-6.977,11.672-10.496,17.562c0.58,0.488,1.307,0.512,1.961-0.303
		c0.572-0.713,1.23-1.391,1.66-2.187c1.822-3.393,3.609-6.805,5.332-10.247C212.895,96.89,213.453,95.299,214.1,93.751"/>
	<g opacity="0.7">
		<path fill="#602353" d="M164.668,201.248c-0.138-6.446-1.374-12.907-2.158-19.299c-0.79-6.434-1.472-12.881-2.397-19.296
			c-0.039-0.271-0.195-0.461-0.387-0.573c0.042-0.127,0.036-0.275-0.045-0.432c-2.195-4.148-4.608-8.342-7.208-12.252
			c-0.064-0.099-0.146-0.151-0.231-0.188c0.01-0.054,0.022-0.104,0.029-0.157c0.055-0.322-0.425-0.566-0.572-0.222
			c-0.02,0.045-0.036,0.092-0.056,0.137c-0.046-0.028-0.1-0.051-0.17-0.05c-7.674,0.173-15.322,0.438-22.991,0.888
			c-1.766,0.103-9.986-0.604-9.92,2.696c-0.129,0.075-0.23,0.206-0.233,0.387c-0.175,8.474,1.68,17.233,2.673,25.642
			c1.011,8.538,1.844,17.095,2.782,25.641c0.034,0.318,0.231,0.522,0.466,0.62c0.564,1.473,1.693,1.674,3.306,1.678
			c3.931,0.009,8.001-0.778,11.905-1.216c7.932-0.888,15.848-1.778,23.748-2.925c0.42-0.062,0.632-0.414,0.643-0.75
			C164.105,201.852,164.678,201.693,164.668,201.248 M157.406,160.078c-1.252-0.047-2.507-0.065-3.759-0.066
			c-0.927-0.001-1.966,0.132-2.89,0.037c-1.044-0.105-0.963,0.205-1.095-0.746c-0.175-1.247,1.045-3.619,1.394-4.845
			c0.367-1.285,0.671-2.554,0.928-3.845C153.646,153.815,155.488,156.997,157.406,160.078 M163.186,200.939
			c-6.369,0.824-12.746,1.642-19.124,2.375c-3.081,0.354-6.168,0.656-9.254,0.941c-1.946,0.177-7.866,1.645-9.583,0.142
			c0.019-0.076,0.028-0.159,0.017-0.253c-0.996-8.777-2.105-17.543-3.015-26.331c-0.841-8.11-0.999-16.705-2.906-24.654
			c1.29-2.406,6.075-1.832,8.488-1.979c2.553-0.156,5.106-0.307,7.659-0.453c5.324-0.308,10.63-0.786,15.944-1.188
			c-0.809,1.985-1.465,3.989-2.081,6.052c-0.37,1.238-1.732,3.685-1.153,4.996c0.448,1.02,1.713,0.828,2.603,0.839
			c2.436,0.029,4.904-0.032,7.334-0.22c0.209,0.331,0.416,0.669,0.628,0.995c0.001,0.001,0.001,0.001,0.001,0.003
			c-0.089,0.116-0.138,0.272-0.116,0.476c0.707,6.676,1.675,13.322,2.518,19.982c0.773,6.117,1.177,12.402,2.538,18.425
			C163.572,200.975,163.406,200.911,163.186,200.939"/>
		<path fill="#602353" d="M145.572,156.46c-3.287-0.104-6.646,0.388-9.935,0.522c-3.315,0.138-6.64,0.166-9.95,0.394
			c-0.41,0.027-0.393,0.604,0.01,0.633c6.373,0.467,13.714,0.527,19.986-0.783C146.132,157.131,145.997,156.474,145.572,156.46"/>
		<path fill="#602353" d="M146.167,161.537c-6.477-0.178-13.202,0.446-19.645,1.112c-0.404,0.041-0.397,0.604,0.012,0.631
			c6.469,0.395,13.379,0.337,19.768-0.834C146.839,162.349,146.671,161.55,146.167,161.537"/>
		<path fill="#602353" d="M154.709,166.282c-9.2,0.312-18.604,0.098-27.694,1.753c-0.476,0.087-0.326,0.789,0.117,0.803
			c9.193,0.276,18.432-1.083,27.591-1.627C155.319,167.175,155.308,166.262,154.709,166.282"/>
		<path fill="#602353" d="M155.413,171.39c-9.385,1.026-18.813,1.334-28.205,2.244c-0.513,0.052-0.509,0.782,0.015,0.805
			c9.411,0.426,18.869-0.557,28.213-1.623C156.337,172.712,156.324,171.292,155.413,171.39"/>
		<path fill="#602353" d="M155.886,177.133c-9.15-0.394-19.134,0.854-28.104,2.666c-0.641,0.13-0.488,1.203,0.168,1.142
			c4.654-0.437,9.291-1.104,13.945-1.574c4.651-0.466,9.377-0.545,14.008-1.167C156.573,178.107,156.583,177.165,155.886,177.133"/>
		<path fill="#602353" d="M156.576,181.705c-9.227,0.812-18.846,2.072-27.909,4.019c-0.56,0.121-0.428,1.037,0.146,0.997
			c9.251-0.654,18.821-2.121,27.925-3.911C157.361,182.687,157.214,181.648,156.576,181.705"/>
		<path fill="#602353" d="M157.568,188.28c-9.5,0.271-19.267,1.349-28.588,3.21c-0.627,0.126-0.481,1.19,0.164,1.118
			c9.482-1.051,18.956-2.109,28.443-3.116C158.351,189.411,158.36,188.258,157.568,188.28"/>
		<path fill="#602353" d="M158.676,194.679c-9.565,0.648-19.236,1.683-28.698,3.233c-0.562,0.093-0.42,1.017,0.145,0.982
			c9.522-0.583,19.108-1.546,28.579-2.694C159.654,196.084,159.669,194.61,158.676,194.679"/>
	</g>
	<g opacity="0.7">
		<path fill="#602353" d="M116.871,229.817c0.207,0.048,0.369-0.036,0.473-0.165c0.027-0.003,0.054,0.001,0.082-0.004
			c0.461-0.098,0.582-0.582,0.537-0.988c-0.025-0.235-0.133-0.371-0.351-0.461c-0.306-0.124-0.662-0.173-0.991-0.15
			c-0.223,0.014-0.475,0.064-0.598,0.274c-0.09,0.151-0.131,0.358-0.114,0.532C115.957,229.362,116.397,229.709,116.871,229.817"/>
		<path fill="#602353" d="M120.763,229.562c0.399-1.624-0.446-3.147-1.801-4.111c-0.012-0.18-0.108-0.357-0.316-0.44
			c-0.326-0.129-0.654-0.213-0.981-0.264c0.008-0.05,0.016-0.101,0.007-0.158c-0.162-1.032-0.549-2.041-1.099-2.935
			c0.118,0.011,0.242-0.029,0.349-0.153c0.275-0.325,0.888-0.45,1.231-0.735c0.118-0.098,0.18-0.321,0.123-0.465
			c-0.283-0.714-0.58-1.383-1.04-2.005c-0.119-0.16-0.327-0.303-0.54-0.22c-1.758,0.687-3.516,1.373-5.272,2.06
			c-0.188,0.073-0.371,0.235-0.351,0.461c0.116,1.317,0.646,1.959,1.609,2.802c0.166,0.147,0.361,0.149,0.521,0.076
			c0.138,0.871,0.3,1.741,0.658,2.543c-0.386,0.387-0.713,0.849-0.955,1.377c-0.811,1.765-0.103,3.394,1.248,4.43
			c-0.213-0.026-0.444,0.061-0.532,0.317c-1.157,3.363-1.956,6.875-2.509,10.383c-0.769,4.87-1.23,10.857,1.738,15.123
			c0.324,0.467,0.946,0.162,0.873-0.368c-0.624-4.541,0.011-9.33,0.729-13.819c0.338-2.113,0.775-4.212,1.332-6.277
			c0.167-0.623,0.873-3.975,1.754-4.014c0.113-0.005,0.198-0.049,0.27-0.104c0.093,0.163,0.27,0.261,0.501,0.166
			c0.768-0.315,2.372,1.763,2.798,2.23c1.608,1.771,3.01,3.735,4.361,5.707c2.595,3.786,5.186,7.928,6.542,12.343
			c0.129,0.42,0.835,0.492,0.921,0c0.928-5.302-2.299-10.68-5.09-14.92C125.751,235.411,123.361,232.354,120.763,229.562
			 M114.636,225.391c-0.34-0.859-0.461-1.808-0.601-2.723c0.561-0.219,1.132-0.417,1.726-0.51c0.476,0.783,0.801,1.644,0.961,2.547
			C115.976,224.753,115.261,224.99,114.636,225.391 M112.073,220.901c1.527-0.596,3.056-1.192,4.583-1.79
			c0.298,0.426,0.703,1.104,0.334,1.256c-0.289,0.118-0.539,0.215-0.744,0.457c-0.094,0.11-0.124,0.232-0.116,0.349
			c-0.038-0.011-0.079-0.015-0.12-0.011c-0.925,0.09-1.77,0.406-2.629,0.741c-0.248,0.096-0.362,0.287-0.335,0.542
			C112.548,221.996,112.203,221.599,112.073,220.901 M113.833,227.653c0.161-0.352,0.372-0.656,0.617-0.918
			c0.269,0.028,0.55-0.187,0.55-0.469c0.746-0.512,1.679-0.704,2.601-0.552c0.037,0.046,0.086,0.087,0.15,0.12
			c1.388,0.701,2.346,1.848,2.086,3.369c-0.155,0.133-0.237,0.35-0.146,0.556c-0.515,1.42-2.085,2.276-3.548,2.005
			C114.178,231.4,112.991,229.487,113.833,227.653 M113.938,240.945c-0.908,4.56-1.634,9.455-1.362,14.171
			c-1.7-4.112-1.071-9.215-0.366-13.414c0.528-3.141,1.297-6.292,2.333-9.308c0.041-0.118,0.027-0.219-0.01-0.306
			c0.275,0.175,0.568,0.329,0.877,0.455c0.337,0.138,0.68,0.213,1.02,0.241C114.789,234.506,114.206,239.601,113.938,240.945
			 M124.976,238.806c-1.3-1.808-2.685-3.585-4.271-5.15c-0.457-0.45-1.256-1.264-2.032-1.4c0.698-0.402,1.292-1.003,1.689-1.707
			c2.068,2.261,3.973,4.687,5.739,7.183c2.597,3.666,5.841,8.524,6.047,13.308C130.413,246.66,127.685,242.572,124.976,238.806"/>
	</g>
	<g opacity="0.7">
		<path fill="#602353" d="M240.371,157.123c0.465-1.332,1.031-2.607,1.656-3.872c0.436-0.886,1.227-1.999,1.232-2.993
			c0.004-0.674-0.807-0.959-1.217-0.421c-0.598,0.782-0.883,2.056-1.307,2.967c-0.596,1.278-1.088,2.578-1.482,3.933
			C239.043,157.464,240.119,157.846,240.371,157.123"/>
		<path fill="#602353" d="M242.473,149.582c-13.291,1.455-32.92-3.295-32.43-20.515c0.254-8.857,11.148-13.813,18.307-16.449
			c7.406-2.726,15.543-4.503,23.391-5.321c8.414-0.877,17.973,0.235,23.805,7.088c6,7.045,4.1,15.793-1.969,22.015
			c-9.52,9.766-24.494,10.616-34.305,19.921c-0.762,0.722,0.27,1.89,1.082,1.221c11.072-9.104,27.232-10.463,36.406-22.076
			c7.531-9.529,4.326-21.592-6.244-27.174c-12.316-6.507-29.826-1.885-42.137,2.489c-11.623,4.13-24.67,12.522-18.217,26.456
			c5.941,12.834,19.902,15.25,32.559,13.599C243.537,150.728,243.281,149.494,242.473,149.582"/>
		<path fill="#602353" d="M222.791,123.163c13.328-3.562,26.496-6.869,40.203-8.674c0.848-0.113,0.588-1.418-0.26-1.306
			c-13.582,1.792-27.34,4.411-40.283,8.984C221.889,122.367,222.217,123.318,222.791,123.163"/>
		<path fill="#602353" d="M223.484,129.125c13.576-2.623,26.992-6.189,40.551-8.941c0.84-0.172,0.584-1.463-0.26-1.306
			c-13.537,2.521-27.256,5.383-40.504,9.165C222.6,128.236,222.779,129.261,223.484,129.125"/>
		<path fill="#602353" d="M224.17,135.188c13.756-1.712,27.551-5.676,41.016-8.916c0.889-0.215,0.617-1.609-0.277-1.396
			c-13.549,3.243-27.561,5.464-40.932,9.328C223.357,134.382,223.525,135.269,224.17,135.188"/>
		<path fill="#602353" d="M226.475,141.368c13.561-2.629,27.027-6.251,40.436-9.571c0.818-0.204,0.574-1.486-0.256-1.294
			c-13.455,3.126-27.107,6.015-40.385,9.823C225.621,140.513,225.795,141.501,226.475,141.368"/>
	</g>
	<g opacity="0.7">
		<path fill="#602353" d="M277.971,198.28c-0.318,2.885-0.701,5.764-1.066,8.643c-0.139,1.089-0.986,3.619-0.354,4.601
			c0.143,0.224,0.459,0.137,0.596-0.024c0.742-0.866,0.551-3.77,0.674-4.811c0.326-2.778,0.646-5.557,0.84-8.348
			C278.691,197.896,278.02,197.836,277.971,198.28"/>
		<path fill="#602353" d="M278.49,198.684c4.602-0.094,9.904-0.237,14.381,1.013c1.051,0.045,1.938,0.491,2.654,1.336
			c-0.016,0.354-0.031,0.707-0.045,1.062c0.24,1.259-0.119,2.954-0.168,4.241c-0.098,2.477-0.193,4.951-0.291,7.427
			c-0.023,0.62,0.939,0.707,0.965,0.084c0.123-3.183,0.25-6.365,0.371-9.548c0.049-1.281,0.682-3.714-0.395-4.756
			c-0.609-0.592-2.32-0.656-3.014-0.773c-1.525-0.258-3.059-0.462-4.598-0.616c-3.262-0.324-6.521-0.391-9.793-0.246
			C278.068,197.928,277.984,198.693,278.49,198.684"/>
		<path fill="#602353" d="M276.412,211.615c3.029,0.37,6.057,0.547,9.064,1.081c3.193,0.566,6.305,1.46,9.566,1.522
			c0.625,0.013,0.717-0.956,0.084-0.977c-6.287-0.196-12.293-2.533-18.656-2.316C276.037,210.939,275.957,211.56,276.412,211.615"/>
		<path fill="#602353" d="M284.881,212.409c-0.547,2.824-0.709,5.748-0.666,8.621c0.006,0.562,0.883,0.648,0.881,0.076
			c-0.016-2.908,0.232-5.743,0.453-8.64C285.582,212.027,284.961,211.993,284.881,212.409"/>
		<path fill="#602353" d="M285.824,221.264c-0.961-0.859-2.488-0.773-3.406,0.12c-0.988,0.962-0.783,2.524,0.162,3.437
			c0.998,0.962,2.564,0.859,3.451-0.21c0.877-1.061,0.68-2.856-0.609-3.488c-0.34-0.166-0.623,0.314-0.406,0.575
			c0.609,0.731,1.016,1.679,0.227,2.468c-0.691,0.69-1.729,0.527-2.271-0.241c-1.145-1.623,1.045-3.116,2.449-2.087
			C285.793,222.11,286.152,221.556,285.824,221.264"/>
		<path fill="#602353" d="M282.424,221.955c-5.908-1.074-11.959-1.453-17.957-1.578c-0.232-0.005-0.498,0.157-0.498,0.42
			c-0.004,1.817-0.176,3.554-0.529,5.334c-0.115,0.582,0.807,0.657,0.92,0.079c0.242-1.214-0.018-4.202,1.088-4.891
			c0.393-0.242,2.717,0.093,3.184,0.113c0.883,0.041,1.766,0.086,2.648,0.14c3.709,0.23,7.393,0.675,11.088,1.047
			C282.801,222.663,282.84,222.031,282.424,221.955"/>
		<path fill="#602353" d="M283.91,224.939c-0.301,1.219-0.479,2.511-0.631,3.755c-0.068,0.555,0.795,0.629,0.863,0.075
			c0.15-1.212,0.441-2.456,0.443-3.678C284.586,224.729,284.014,224.53,283.91,224.939"/>
		<path fill="#602353" d="M286.209,223.621c3.453,0.437,6.918,0.711,10.365,1.212c1.461,0.213,3.266,0.215,4.635,0.757
			c2.182,0.864,1.576,2.824,1.555,4.792c-0.006,0.63,0.977,0.719,0.982,0.085c0.012-1.173,0.607-3.918-0.01-4.937
			c-0.48-0.795-1.602-0.766-2.443-0.917c-4.928-0.89-10.008-1.649-15.023-1.709C285.811,222.899,285.744,223.562,286.209,223.621"/>
		<path fill="#602353" d="M257.045,226.321c3.58,0.355,7.148,0.669,10.703,1.243c2.729,0.44,2.693,2.097,2.547,4.461
			c-0.123,1.956-0.244,3.912-0.355,5.868c-0.035,0.612,0.912,0.697,0.951,0.082c0.18-2.844,0.357-5.69,0.5-8.537
			c0.053-0.986,0.252-1.598-0.516-2.207c-1.102-0.877-4.221-0.76-5.59-0.934c-2.715-0.347-5.445-0.602-8.184-0.635
			C256.68,225.656,256.615,226.279,257.045,226.321"/>
		<path fill="#602353" d="M256.109,225.88c-0.32,3.431-0.41,6.877-0.754,10.309c-0.025,0.259,0.178,0.474,0.424,0.505
			c4.734,0.598,9.471,1.214,14.207,1.784c0.629,0.074,0.711-0.898,0.086-0.978c-3.898-0.497-8.225-0.483-12.025-1.468
			c-1.068-0.277-1.402-0.087-1.625-1.309c-0.141-0.772,0.141-1.773,0.193-2.577c0.137-2.062,0.279-4.138,0.211-6.205
			C256.812,225.492,256.154,225.406,256.109,225.88"/>
		<path fill="#602353" d="M275.637,228.229c5.176,0.755,10.422,1.202,15.617,1.814c0.629,0.074,0.709-0.896,0.086-0.977
			c-5.172-0.675-10.426-1.376-15.637-1.61C275.203,227.434,275.143,228.157,275.637,228.229"/>
		<path fill="#602353" d="M275.205,227.997c-0.477,3.493-0.664,7.041-0.973,10.554c-0.053,0.608,0.9,0.693,0.947,0.082
			c0.275-3.516,0.68-7.046,0.789-10.57C275.984,227.569,275.271,227.506,275.205,227.997"/>
		<path fill="#602353" d="M274.873,239.206c5.062,1.132,10.326,1.367,15.488,1.706c0.639,0.041,0.727-0.948,0.086-0.991
			c-5.162-0.337-10.273-0.926-15.42-1.41C274.639,238.474,274.467,239.116,274.873,239.206"/>
		<path fill="#602353" d="M290.883,229.539c-0.564,3.562-0.666,7.243-0.949,10.837c-0.049,0.607,0.895,0.69,0.943,0.082
			c0.285-3.594,0.764-7.246,0.766-10.853C291.643,229.116,290.961,229.052,290.883,229.539"/>
		<path fill="#602353" d="M296.104,230.025c5.051,0.699,10.555,1.473,15.654,1.366c0.527-0.011,0.592-0.716,0.07-0.816
			c-5.01-0.961-10.564-1.123-15.66-1.284C295.695,229.276,295.635,229.96,296.104,230.025"/>
		<path fill="#602353" d="M295.961,229.701c-0.531,3.691-0.518,7.5-0.787,11.221c-0.045,0.636,0.957,0.721,0.986,0.085
			c0.168-3.729,0.625-7.512,0.531-11.242C296.68,229.302,296.029,229.227,295.961,229.701"/>
		<path fill="#602353" d="M295.4,241.395c5.258,0.647,10.561,1.095,15.844,1.488c0.611,0.045,0.691-0.88,0.082-0.946
			c-5.266-0.569-10.574-0.947-15.863-1.263C294.998,240.646,294.938,241.338,295.4,241.395"/>
		<path fill="#602353" d="M311.582,231.052c-0.611,3.71-0.697,7.56-0.803,11.314c-0.018,0.65,0.994,0.741,1.012,0.087
			c0.105-3.781,0.475-7.559,0.549-11.337C312.352,230.624,311.66,230.566,311.582,231.052"/>
	</g>
	<polygon opacity="0.7" fill="#602353" points="90.345,174.202 92.945,179.923 98.666,182.522 92.945,185.122 90.345,190.843 
		87.746,185.122 82.024,182.522 87.746,179.923 	"/>
	<polygon opacity="0.7" fill="#602353" points="278.352,255.202 279.387,257.48 281.666,258.516 279.387,259.551 278.352,261.829 
		277.316,259.551 275.039,258.516 277.316,257.48 	"/>
	<polygon opacity="0.7" fill="#602353" points="269.352,251.202 270.387,253.48 272.666,254.516 270.387,255.551 269.352,257.829 
		268.316,255.551 266.039,254.516 268.316,253.48 	"/>
	<polygon fill="#FFFFFF" points="107.754,164.409 109.458,168.158 113.207,169.861 109.458,171.563 107.754,175.312 
		106.051,171.563 102.301,169.861 106.051,168.158 	"/>
	<polygon fill="#FFFFFF" points="223.754,162.409 225.457,166.158 229.207,167.861 225.457,169.563 223.754,173.312 
		222.051,169.563 218.301,167.861 222.051,166.158 	"/>
	<polygon fill="#FFFFFF" points="213.18,174.409 214.438,177.178 217.207,178.436 214.438,179.692 213.18,182.46 211.924,179.692 
		209.154,178.436 211.924,177.178 	"/>
</g>
</svg>
