<?xml version="1.0" encoding="UTF-8" standalone="no"?>
<svg width="251px" height="145px" viewBox="0 0 251 145" version="1.1" xmlns="http://www.w3.org/2000/svg" xmlns:xlink="http://www.w3.org/1999/xlink">
    <!-- Generator: Sketch 3.6.1 (26313) - http://www.bohemiancoding.com/sketch -->
    <title>Group 2</title>
    <desc>Created with Sketch.</desc>
    <defs></defs>
    <g id="Page-1" stroke="none" stroke-width="1" fill="none" fill-rule="evenodd">
        <g id="Group-2" transform="translate(0.210937, 0.851562)">
            <g id="Page-1" transform="translate(51.468750, 68.625000)" fill="#CAF7FA">
                <path d="M74.3274555,0 C33.2774846,0 0,33.4590925 0,74.7351366 L148.656948,74.7351366 C148.656948,33.4590925 115.377426,0 74.3274555,0" id="Fill-1"></path>
            </g>
            <g id="Page-1" transform="translate(81.492188, 57.187500)">
                <path d="M68.9172449,31.1168625 C66.1111328,26.4370111 59.7434168,27.0109153 55.5496668,29.3360714 C50.4602597,32.1619871 47.4719324,38.1401562 48.8063074,43.8904516 C48.8315372,43.9931354 48.8805951,44.0662801 48.9408663,44.1239518 C48.2428424,44.7541212 47.5209903,45.3617845 46.7528837,45.9328755 C44.5144416,47.5926965 42.1106043,48.8361557 39.6268727,50.0205365 C40.0165326,43.5162885 41.3172679,37.0303267 42.7876034,30.4177684 C48.6100758,26.3891857 56.3738396,22.2551059 57.1237247,14.6044561 C57.6815832,8.91183251 55.0955308,0.0894615423 48.1082835,0.000843976815 C42.0503332,-0.0737073085 38.1551356,6.99600514 36.8053424,12.0584594 C35.1331687,18.333427 36.1143267,25.6028806 40.3501264,30.6372023 C37.9308709,38.9813198 36.4030676,47.8965282 36.9160731,56.5008718 C35.4345244,56.4488266 33.3558709,54.7524332 32.3144416,53.7621671 C34.3132008,49.2342315 34.8514361,43.8552859 31.5169003,39.7845044 C28.6421071,36.2749675 23.694267,35.5955661 19.8060777,37.8166318 C15.728665,40.1446012 14.1251723,45.2970796 17.0027688,49.213132 C19.9420381,53.2121755 25.6958295,55.5007593 30.6058249,54.7397735 C30.9828699,55.0970571 31.359915,55.4233948 31.7117302,55.6962806 C32.9269646,56.6274683 35.2481043,58.1620995 37.0001723,57.7710569 C37.4697266,63.4116353 38.8475528,68.9017045 41.4798598,73.9852582 C41.9928653,74.9797442 43.6762523,74.2553307 43.2837891,73.1891067 C43.178665,72.9077811 43.0763442,72.6264555 42.9726218,72.3465365 C42.951597,72.2902714 42.9165556,72.2494792 42.8885225,72.2030605 C40.0824104,65.0995889 39.2722541,58.1874188 39.5511834,51.3019746 C42.6362247,50.317335 45.7605124,48.7165923 48.5413948,46.6812016 C48.6170841,46.8598433 48.7292165,47.0300453 48.929653,47.1608617 C53.6882698,50.2765428 59.5948415,49.6688795 64.0521025,46.2746861 C68.4014361,42.966297 72.0821806,36.3959375 68.9172449,31.1168625" id="Fill-1" fill="#00BFA0"></path>
                <path d="M62.7261374,86.732262 C62.4135685,74.6380742 52.5683479,64.9239011 40.4426356,64.9239011 C31.4047679,64.9239011 23.6382008,70.3295726 20.1312615,78.0843129 C18.9566751,77.8634723 17.7568589,77.7368758 16.5205997,77.7368758 C9.59923024,77.7368758 3.52025506,81.3195573 0.000700827206,86.732262 L62.7261374,86.732262 Z" id="Fill-3" fill="#AAB8C2"></path>
            </g>
            <g id="Page-1" transform="translate(0.000000, 82.921875)" stroke="#A3B6C0" stroke-linecap="round" stroke-linejoin="round">
                <path d="M17.256757,18.0197812 C17.256757,19.3565391 16.1730539,20.4416719 14.8348664,20.4416719 L10.1941008,20.4416719 C8.85591328,20.4416719 7.77221016,19.3565391 7.77221016,18.0197812 L7.77221016,16.0010625 C7.77221016,14.6643047 8.85591328,13.5806016 10.1941008,13.5806016 L14.8348664,13.5806016 C16.1730539,13.5806016 17.256757,14.6643047 17.256757,16.0010625 L17.256757,18.0197812 L17.256757,18.0197812 Z" id="Stroke-1"></path>
                <path d="M30.8779617,18.0197812 C30.8779617,19.3565391 29.7942586,20.4416719 28.4575008,20.4416719 L23.8153055,20.4416719 C22.477118,20.4416719 21.3934148,19.3565391 21.3934148,18.0197812 L21.3934148,16.0010625 C21.3934148,14.6643047 22.477118,13.5806016 23.8153055,13.5806016 L28.4575008,13.5806016 C29.7942586,13.5806016 30.8779617,14.6643047 30.8779617,16.0010625 L30.8779617,18.0197812 L30.8779617,18.0197812 Z" id="Stroke-3"></path>
                <path d="M11.0004445,13.5798867 C13.889843,12.3903867 15.541132,6.71881641 15.541132,6.71881641 C15.541132,6.71881641 19.6786477,13.4798086 28.9601789,13.5798867" id="Stroke-5"></path>
                <path d="M9.28524844,20.4413859 C9.28524844,20.4413859 9.18517031,30.9338625 19.3759828,30.9338625 C29.5653656,30.9338625 29.6668734,20.4413859 29.6668734,20.4413859" id="Stroke-7"></path>
                <path d="M13.5038273,29.2960125 L5.57763984,29.2960125 L5.57763984,12.2555672 C5.57763984,12.2555672 6.74998359,0.715129688 19.0095539,0.715129688 C31.2676945,0.715129688 33.0462258,13.1248172 33.0462258,13.1248172 L33.0462258,29.5462078 L24.8869992,29.5462078" id="Stroke-9"></path>
                <path d="M17.0934867,15.1310977 C17.0934867,15.1310977 18.8963227,14.2975898 21.392557,15.1310977" id="Stroke-11"></path>
                <path d="M16.776525,25.1200383 C16.776525,25.1200383 17.0681812,26.406757 19.475775,26.406757 C21.8847984,26.406757 22.0363453,25.1200383 22.0363453,25.1200383" id="Stroke-13"></path>
                <path d="M13.6992656,29.5466367 L13.6992656,36.0574336 C13.6992656,36.0574336 14.2482656,39.354293 19.4766328,39.354293 C24.705,39.354293 25.3640859,35.7686367 25.3640859,35.7686367 L25.3640859,29.5466367" id="Stroke-15"></path>
                <path d="M13.6992656,33.8314102 L6.0733125,33.8314102 C6.0733125,33.8314102 0.71484375,35.2739648 0.71484375,40.0562695 L0.71484375,45.4147383 L37.6465313,45.4147383 L37.6465313,39.8503945 C37.6465313,39.8503945 37.1132578,33.8314102 32.2480313,33.8314102 L25.3640859,33.8314102" id="Stroke-17"></path>
                <path d="M28.2496242,33.8314102 C28.2496242,33.8314102 28.374007,42.3223242 19.5313898,42.3223242 C10.6902023,42.3223242 9.86527266,33.8314102 9.86527266,33.8314102" id="Stroke-19"></path>
            </g>
            <g id="Page-1" transform="translate(211.593750, 80.062500)" stroke="#A3B6C0" stroke-linecap="round" stroke-linejoin="round">
                <path d="M33.6346852,15.8459414 C33.6346852,24.2038945 27.5013258,30.9777539 19.9339898,30.9777539 C12.3680836,30.9777539 6.23615391,24.2038945 6.23615391,15.8459414 C6.23615391,7.48798828 12.3680836,0.715558594 19.9339898,0.715558594 C27.5013258,0.715558594 33.6346852,7.48798828 33.6346852,15.8459414 L33.6346852,15.8459414 Z" id="Stroke-1"></path>
                <path d="M11.8235156,28.0331695 C11.8235156,28.0331695 8.38225781,22.6947164 9.9163125,14.2095211 C9.9163125,14.2095211 14.5156172,15.3361148 19.9341328,15.3361148 C25.3526484,15.3361148 30.0563203,13.6991227 30.0563203,13.6991227 C30.0563203,13.6991227 31.8062578,22.1171227 28.4779453,27.6714586" id="Stroke-3"></path>
                <path d="M30.3941555,21.2881898 C30.3941555,21.2881898 21.9432727,24.6851273 9.69371016,21.2881898" id="Stroke-5"></path>
                <path d="M16.9705336,25.7643984 C16.9705336,25.7643984 18.0928383,27.2970234 19.9342758,27.2970234 C21.7757133,27.2970234 22.5934945,25.7643984 22.5934945,25.7643984" id="Stroke-7"></path>
                <path d="M13.3335516,29.1040055 L13.3335516,36.9058102 C13.3335516,36.9058102 15.2307469,40.4857477 19.9344187,40.4857477 C24.6380906,40.4857477 26.2736531,36.0894586 26.2736531,36.0894586 L26.2736531,29.2641305" id="Stroke-9"></path>
                <path d="M26.2733672,34.7948766 L33.0214922,34.7948766 C33.0214922,34.7948766 38.132625,36.1931109 38.132625,40.9968609 L38.132625,46.7213297 L0.71484375,46.7213297 L0.71484375,40.4850328 C0.71484375,40.4850328 1.22667187,34.7948766 6.23629687,34.7948766 L12.8814844,34.7948766" id="Stroke-11"></path>
            </g>
            <g id="Page-1" transform="translate(157.265625, 1.429687)" stroke="#A3B6C0" stroke-linecap="round" stroke-linejoin="round">
                <path d="M15.9583538,7.07589158 C15.9583538,7.07589158 15.3044668,14.0030492 8.98082898,14.5526926 C8.98082898,14.5526926 6.03892202,31.4831234 19.7763993,31.4831234 C33.5150463,31.4831234 30.0245293,14.2236142 30.0245293,14.2236142 C30.0245293,14.2236142 19.4453616,14.0018697 15.9583538,7.07589158 L15.9583538,7.07589158 Z" id="Stroke-1"></path>
                <path d="M13.1241803,30.3840726 L13.1241803,37.9693869 L5.92908303,37.9693869 L5.92908303,12.13379 C5.92908303,12.13379 6.93389339,0.590099941 19.5694715,0.590099941 C32.2050496,0.590099941 32.9677229,12.13379 32.9677229,12.13379 L32.9677229,37.3112302 L25.6626697,37.3112302 L25.6626697,30.3427904" id="Stroke-3"></path>
                <path d="M32.967606,34.3418586 C32.967606,34.3418586 37.8746834,36.6513043 37.8746834,41.378709 L37.8746834,46.1061137 L0.584404261,46.1061137 L0.584404261,40.2239862 C0.584404261,40.2239862 1.89568764,35.2229393 5.92896605,35.0023743" id="Stroke-5"></path>
                <path d="M13.1241803,34.3418586 C13.1241803,34.3418586 18.1388742,39.0704428 19.2302457,39.0704428 C20.3204474,39.0704428 25.6626697,34.3418586 25.6626697,34.3418586" id="Stroke-7"></path>
                <path d="M13.1241803,37.3597073 C13.1241803,37.3597073 18.1388742,42.0882915 19.2302457,42.0882915 C20.3204474,42.0882915 25.6626697,37.3597073 25.6626697,37.3597073" id="Stroke-9"></path>
                <path d="M16.611773,25.7674222 C16.611773,25.7674222 17.4844023,26.9764017 19.393425,26.9764017 C21.3024477,26.9764017 22.2826935,25.7674222 22.2826935,25.7674222" id="Stroke-11"></path>
            </g>
            <g id="Page-1" transform="translate(58.617188, 0.000000)" stroke="#A3B6C0" stroke-linecap="round" stroke-linejoin="round">
                <path d="M19.6069727,8.41430664 C19.6069727,8.41430664 18.1343945,16.1798926 10.3688086,12.8332324 C10.3688086,12.8332324 6.88751953,33.3146973 22.5497461,33.3146973 C38.2119727,33.3146973 33.5273633,13.3681738 33.5273633,13.3681738 C33.5273633,13.3681738 23.490957,18.0515918 19.6069727,8.41430664 L19.6069727,8.41430664 Z" id="Stroke-1"></path>
                <path d="M11.4963555,26.087627 C11.4963555,26.087627 7.556375,24.7484863 7.556375,12.4329199 C7.556375,0.117353516 25.4953789,-2.55973633 27.3682695,4.26821289 C27.3682695,4.26821289 35.6687969,3.59745117 36.4729961,10.4254004 C37.2771953,17.2521582 35.6807109,23.0066504 33.5326055,25.1499902" id="Stroke-3"></path>
                <path d="M15.4452715,31.3128965 L15.4452715,36.6611191 L22.109998,42.6860605 L28.9760723,36.2608066 L28.9760723,31.7239316" id="Stroke-5"></path>
                <path d="M28.9765488,36.2611641 L37.2770762,36.2611641 C37.2770762,36.2611641 42.7646934,38.0006172 42.7646934,43.6240547 L42.7646934,49.2463008 L0.596060547,49.2463008 L0.596060547,42.686418 C0.596060547,42.686418 1.79938086,36.2611641 7.55625586,36.2611641 L14.9191465,36.2611641" id="Stroke-7"></path>
                <path d="M14.9193848,36.2611641 L17.0615332,46.1653242 L21.6806152,42.7531367" id="Stroke-9"></path>
                <path d="M23.0136797,42.753375 L27.6327617,46.1655625 L29.7749102,36.2614023" id="Stroke-11"></path>
                <path d="M22.1096406,42.6859414 L22.1096406,49.2470156" id="Stroke-13"></path>
                <path d="M19.0683379,26.087627 C19.0683379,26.087627 19.8618145,28.3608301 22.2100762,28.3608301 C24.5571465,28.3608301 24.854998,25.7159082 24.854998,25.7159082" id="Stroke-15"></path>
                <path d="M20.7158145,18.9520566 C20.7158145,21.2645762 18.8393496,23.1422324 16.5268301,23.1422324 C14.2131191,23.1422324 12.3366543,21.2645762 12.3366543,18.9520566 C12.3366543,16.6383457 14.2131191,14.7618809 16.5268301,14.7618809 C18.8393496,14.7618809 20.7158145,16.6383457 20.7158145,18.9520566 L20.7158145,18.9520566 Z" id="Stroke-17"></path>
                <path d="M32.2284922,18.9520566 C32.2284922,21.2645762 30.3520273,23.1422324 28.0383164,23.1422324 C25.7246055,23.1422324 23.849332,21.2645762 23.849332,18.9520566 C23.849332,16.6383457 25.7246055,14.7618809 28.0383164,14.7618809 C30.3520273,14.7618809 32.2284922,16.6383457 32.2284922,18.9520566 L32.2284922,18.9520566 Z" id="Stroke-19"></path>
                <path id="Stroke-21" d="M20.4946895,17.5278318 C20.4946895,17.5278318 22.0673457,16.7903318 23.848498,17.5278318"></path>
            </g>
        </g>
    </g>
</svg>