<?xml version="1.0" encoding="utf-8"?>
<!-- Generator: Adobe Illustrator 16.0.0, SVG Export Plug-In . SVG Version: 6.00 Build 0)  -->
<!DOCTYPE svg PUBLIC "-//W3C//DTD SVG 1.1//EN" "http://www.w3.org/Graphics/SVG/1.1/DTD/svg11.dtd">
<svg version="1.1" id="Capa_1" xmlns="http://www.w3.org/2000/svg" xmlns:xlink="http://www.w3.org/1999/xlink" x="0px" y="0px"
	 width="266px" height="200px" viewBox="0 0 266 200" enable-background="new 0 0 266 200" xml:space="preserve">
<g>
	<defs>
		<rect id="SVGID_1_" width="268" height="202"/>
	</defs>
	<clipPath id="SVGID_2_">
		<use xlink:href="#SVGID_1_"  overflow="visible"/>
	</clipPath>
	<g clip-path="url(#SVGID_2_)">
		<rect x="-1.555" y="-2.657" opacity="0.7" fill="#844A79" width="268.392" height="202.388"/>
		<path opacity="0.7" fill="#844A79" d="M88.831,44.379c0,0.648,0.518,1.177,1.153,1.177c0.002,0,0.002-0.002,0.004-0.002
			c0.001,0,0.004,0.002,0.004,0.002c0.635,0,1.152-0.528,1.152-1.177c0-0.015-0.002-0.027-0.002-0.04
			c0.021-3.882,3.088-7.027,6.882-7.094c0.04,0.001,0.078,0.007,0.118,0.007c0.636,0,1.153-0.528,1.153-1.177
			c0-0.003,0-0.006,0-0.009c0-0.003,0-0.006,0-0.009c0-0.649-0.517-1.177-1.153-1.177c-0.04,0-0.078,0.005-0.118,0.007
			c-3.794-0.065-6.859-3.212-6.882-7.092c0-0.014,0.002-0.027,0.002-0.042c0-0.649-0.517-1.175-1.152-1.175
			c0,0-0.003,0.001-0.004,0.001c-0.002,0-0.002-0.001-0.004-0.001c-0.635,0-1.153,0.525-1.153,1.175
			c0,0.015,0.003,0.027,0.003,0.042c-0.022,3.879-3.09,7.026-6.883,7.092c-0.038-0.002-0.079-0.007-0.117-0.007
			c-0.636,0-1.153,0.528-1.153,1.177c0,0.003,0.002,0.006,0.002,0.009c0,0.003-0.002,0.006-0.002,0.009
			c0,0.648,0.517,1.177,1.153,1.177c0.039,0,0.079-0.006,0.117-0.007c3.793,0.066,6.86,3.212,6.883,7.094
			C88.833,44.353,88.831,44.365,88.831,44.379z M86.328,36.067c1.54-0.869,2.809-2.167,3.66-3.737
			c0.849,1.57,2.121,2.868,3.659,3.737c-1.538,0.87-2.81,2.167-3.659,3.738C89.137,38.234,87.867,36.937,86.328,36.067z"/>
		<path opacity="0.7" fill="#844A79" d="M72.952,56.525c0,0.404,0.321,0.731,0.715,0.731c0.002,0,0.002,0,0.002,0
			c0.002,0,0.003,0,0.003,0c0.395,0,0.716-0.328,0.716-0.731c0-0.008-0.002-0.016-0.002-0.024c0.015-2.41,1.919-4.364,4.276-4.407
			c0.024,0.002,0.048,0.005,0.073,0.005c0.395,0,0.716-0.327,0.716-0.729c0-0.002,0-0.005,0-0.006c0-0.002,0-0.004,0-0.006
			c0-0.402-0.322-0.73-0.716-0.73c-0.025,0-0.049,0.003-0.073,0.003c-2.357-0.04-4.262-1.994-4.276-4.405
			c0-0.009,0.002-0.015,0.002-0.025c0-0.405-0.321-0.729-0.716-0.729c0,0-0.001,0-0.002,0c0,0-0.001,0-0.003,0
			c-0.394,0-0.715,0.325-0.715,0.729c0,0.01,0.002,0.016,0.002,0.025c-0.014,2.411-1.919,4.365-4.276,4.405
			c-0.024,0-0.048-0.003-0.074-0.003c-0.394,0-0.715,0.328-0.715,0.73c0,0.002,0,0.004,0,0.006c0,0.001,0,0.004,0,0.006
			c0,0.402,0.321,0.729,0.715,0.729c0.026,0,0.05-0.003,0.074-0.005c2.357,0.043,4.262,1.998,4.276,4.407
			C72.954,56.509,72.952,56.518,72.952,56.525z M71.396,51.363c0.956-0.541,1.746-1.347,2.274-2.32
			c0.527,0.973,1.319,1.78,2.272,2.32c-0.954,0.54-1.746,1.345-2.272,2.32C73.142,52.708,72.353,51.903,71.396,51.363z"/>
		<g opacity="0.4">
			<path fill="#844A79" d="M196.569,58.265h-0.959c-0.222,0-0.461-0.173-0.529-0.388l-0.179-0.443
				c-0.102-0.204-0.054-0.496,0.104-0.658l0.676-0.689c0.161-0.158,0.161-0.421,0-0.582l-1.045-1.068
				c-0.158-0.16-0.415-0.16-0.569,0l-0.677,0.69c-0.156,0.16-0.447,0.21-0.646,0.108l-0.433-0.183
				c-0.211-0.069-0.383-0.314-0.383-0.542v-0.976c0-0.225-0.181-0.412-0.406-0.412h-1.479c-0.221,0-0.402,0.187-0.402,0.412v0.976
				c0,0.227-0.174,0.472-0.385,0.542l-0.431,0.183c-0.196,0.102-0.49,0.052-0.645-0.108l-0.677-0.69c-0.157-0.16-0.411-0.16-0.57,0
				l-1.048,1.068c-0.155,0.161-0.155,0.424,0,0.582l0.677,0.689c0.158,0.162,0.204,0.455,0.104,0.658l-0.175,0.443
				c-0.072,0.215-0.311,0.388-0.535,0.388h-0.956c-0.221,0-0.403,0.186-0.403,0.413v1.508c0,0.226,0.182,0.412,0.403,0.412h0.956
				c0.223,0,0.463,0.176,0.535,0.391l0.175,0.443c0.101,0.203,0.056,0.499-0.103,0.659l-0.678,0.689c-0.156,0.16-0.156,0.421,0,0.58
				l1.047,1.068c0.159,0.161,0.414,0.161,0.572,0l0.675-0.69c0.154-0.16,0.448-0.208,0.646-0.107l0.432,0.18
				c0.209,0.073,0.384,0.316,0.384,0.544v0.977c0,0.225,0.181,0.411,0.403,0.411h1.478c0.224,0,0.405-0.183,0.405-0.411v-0.977
				c0-0.226,0.175-0.471,0.384-0.544l0.432-0.18c0.199-0.101,0.491-0.053,0.646,0.107l0.678,0.69c0.154,0.161,0.412,0.161,0.568,0
				l1.047-1.068c0.159-0.16,0.159-0.42,0-0.58l-0.678-0.689c-0.157-0.161-0.202-0.457-0.102-0.659l0.178-0.443
				c0.067-0.215,0.309-0.391,0.528-0.391h0.96c0.22,0,0.402-0.184,0.402-0.412v-1.508C196.973,58.453,196.788,58.265,196.569,58.265
				z M190.786,61.422c-1.077,0-1.951-0.891-1.951-1.988c0-1.1,0.874-1.992,1.951-1.992c1.076,0,1.947,0.892,1.947,1.992
				C192.733,60.531,191.862,61.422,190.786,61.422z"/>
			<path fill="#844A79" d="M76.276,93.6h-0.958c-0.221,0-0.461-0.173-0.529-0.387l-0.179-0.443
				c-0.101-0.203-0.054-0.496,0.102-0.658l0.678-0.689c0.161-0.159,0.161-0.422,0-0.582l-1.045-1.067
				c-0.159-0.161-0.415-0.161-0.571,0l-0.677,0.689c-0.156,0.16-0.447,0.209-0.645,0.108l-0.433-0.183
				c-0.21-0.071-0.383-0.314-0.383-0.542v-0.975c0-0.227-0.18-0.412-0.406-0.412h-1.478c-0.221,0-0.405,0.185-0.405,0.412v0.975
				c0,0.227-0.172,0.471-0.384,0.542l-0.43,0.183c-0.197,0.102-0.492,0.052-0.646-0.108l-0.676-0.689
				c-0.158-0.161-0.412-0.161-0.57,0l-1.048,1.067c-0.156,0.159-0.156,0.422,0,0.582l0.678,0.689
				c0.156,0.162,0.204,0.455,0.104,0.658L66.2,93.213c-0.072,0.213-0.311,0.387-0.536,0.387h-0.956c-0.22,0-0.404,0.186-0.404,0.414
				v1.509c0,0.227,0.183,0.411,0.404,0.411h0.957c0.223,0,0.463,0.174,0.535,0.391l0.175,0.441c0.102,0.203,0.054,0.5-0.104,0.66
				l-0.677,0.69c-0.155,0.159-0.155,0.42,0,0.581l1.047,1.068c0.159,0.159,0.414,0.159,0.573,0l0.674-0.691
				c0.154-0.16,0.448-0.208,0.646-0.108l0.432,0.182c0.21,0.072,0.383,0.315,0.383,0.543v0.976c0,0.227,0.183,0.412,0.404,0.412
				h1.478c0.223,0,0.407-0.183,0.407-0.412V99.69c0-0.227,0.174-0.471,0.384-0.543l0.431-0.182c0.199-0.1,0.49-0.052,0.645,0.108
				l0.678,0.691c0.155,0.159,0.413,0.159,0.571,0l1.044-1.068c0.161-0.161,0.161-0.422,0-0.581l-0.677-0.69
				c-0.155-0.16-0.202-0.457-0.101-0.66l0.178-0.441c0.068-0.217,0.307-0.391,0.53-0.391h0.957c0.221,0,0.405-0.184,0.405-0.411
				v-1.509C76.68,93.788,76.496,93.6,76.276,93.6z M70.492,96.756c-1.076,0-1.95-0.891-1.95-1.988c0-1.101,0.874-1.992,1.95-1.992
				c1.077,0,1.949,0.892,1.949,1.992C72.44,95.865,71.569,96.756,70.492,96.756z"/>
			<path fill="#844A79" d="M189.988,31.259H188.1c-0.438,0-0.911-0.343-1.046-0.765l-0.352-0.872c-0.2-0.402-0.108-0.982,0.2-1.299
				l1.337-1.358c0.315-0.312,0.315-0.833,0-1.146l-2.061-2.104c-0.313-0.318-0.819-0.318-1.125,0l-1.336,1.357
				c-0.307,0.317-0.882,0.413-1.273,0.213l-0.852-0.359c-0.414-0.139-0.755-0.621-0.755-1.069v-1.923c0-0.446-0.354-0.814-0.8-0.814
				h-2.914c-0.438,0-0.8,0.365-0.8,0.814v1.923c0,0.447-0.338,0.93-0.753,1.069l-0.851,0.359c-0.389,0.2-0.969,0.104-1.275-0.213
				l-1.33-1.357c-0.312-0.318-0.812-0.318-1.124,0l-2.067,2.104c-0.307,0.313-0.307,0.834,0,1.146l1.336,1.358
				c0.31,0.317,0.402,0.897,0.205,1.299l-0.347,0.872c-0.14,0.421-0.609,0.765-1.054,0.765h-1.886c-0.432,0-0.796,0.365-0.796,0.815
				v2.972c0,0.446,0.361,0.814,0.796,0.814h1.888c0.442,0,0.912,0.344,1.052,0.772l0.347,0.87c0.199,0.402,0.106,0.985-0.203,1.3
				l-1.334,1.36c-0.308,0.313-0.308,0.831,0,1.145l2.063,2.106c0.312,0.315,0.816,0.315,1.128,0l1.329-1.361
				c0.305-0.314,0.885-0.409,1.272-0.215l0.853,0.359c0.415,0.144,0.754,0.622,0.754,1.072v1.925c0,0.447,0.358,0.81,0.798,0.81
				h2.913c0.44,0,0.802-0.359,0.802-0.81v-1.925c0-0.448,0.343-0.929,0.756-1.072l0.849-0.359c0.393-0.194,0.969-0.1,1.274,0.215
				l1.337,1.361c0.308,0.315,0.812,0.315,1.124,0l2.061-2.106c0.314-0.315,0.314-0.831,0-1.145l-1.336-1.36
				c-0.307-0.315-0.399-0.898-0.199-1.3l0.352-0.87c0.133-0.428,0.607-0.772,1.046-0.772h1.886c0.436,0,0.798-0.362,0.798-0.814
				v-2.972C190.783,31.629,190.423,31.259,189.988,31.259z M178.582,37.484c-2.122,0-3.846-1.758-3.846-3.922
				c0-2.17,1.724-3.928,3.846-3.928c2.126,0,3.843,1.758,3.843,3.928C182.425,35.726,180.708,37.484,178.582,37.484z"/>
			<path fill="#844A79" d="M183.373,112.215h-1.889c-0.437,0-0.911-0.344-1.045-0.767l-0.353-0.871
				c-0.198-0.401-0.105-0.98,0.201-1.3l1.337-1.358c0.315-0.311,0.315-0.832,0-1.146l-2.059-2.105c-0.315-0.315-0.821-0.315-1.127,0
				l-1.335,1.357c-0.308,0.316-0.883,0.415-1.274,0.213l-0.852-0.358c-0.414-0.14-0.755-0.619-0.755-1.069v-1.922
				c0-0.446-0.355-0.813-0.8-0.813h-2.914c-0.438,0-0.798,0.365-0.798,0.813v1.922c0,0.447-0.341,0.93-0.757,1.069l-0.85,0.358
				c-0.387,0.202-0.968,0.104-1.273-0.213l-1.332-1.357c-0.311-0.315-0.812-0.315-1.123,0l-2.067,2.105
				c-0.308,0.313-0.308,0.835,0,1.146l1.337,1.358c0.307,0.319,0.402,0.898,0.205,1.3l-0.348,0.871
				c-0.141,0.423-0.609,0.767-1.053,0.767h-1.886c-0.434,0-0.796,0.364-0.796,0.814v2.973c0,0.446,0.36,0.812,0.796,0.812h1.889
				c0.439,0,0.909,0.345,1.05,0.771l0.348,0.87c0.198,0.403,0.105,0.984-0.204,1.301l-1.336,1.36c-0.305,0.315-0.305,0.831,0,1.145
				l2.065,2.106c0.312,0.314,0.817,0.314,1.128,0l1.329-1.36c0.305-0.316,0.886-0.41,1.271-0.216l0.854,0.36
				c0.415,0.141,0.754,0.621,0.754,1.07v1.926c0,0.448,0.357,0.812,0.797,0.812h2.913c0.439,0,0.802-0.363,0.802-0.812v-1.926
				c0-0.448,0.343-0.93,0.756-1.07l0.849-0.36c0.394-0.194,0.968-0.101,1.274,0.216l1.336,1.36c0.308,0.314,0.813,0.314,1.127,0
				l2.059-2.106c0.314-0.315,0.314-0.829,0-1.145l-1.336-1.36c-0.307-0.316-0.398-0.897-0.2-1.301l0.351-0.87
				c0.135-0.427,0.608-0.771,1.048-0.771h1.885c0.437,0,0.799-0.362,0.799-0.812v-2.973
				C184.168,112.583,183.808,112.215,183.373,112.215z M171.968,118.438c-2.121,0-3.845-1.758-3.845-3.921
				c0-2.17,1.724-3.927,3.845-3.927c2.126,0,3.843,1.757,3.843,3.927C175.811,116.68,174.094,118.438,171.968,118.438z"/>
		</g>
		<path opacity="0.7" fill="#DBBDD8" d="M166.907,61.643c-3.252-5.514-10.629-4.837-15.49-2.098
			c-5.896,3.328-9.36,10.37-7.812,17.141c0.028,0.12,0.086,0.209,0.156,0.274c-0.809,0.742-1.646,1.459-2.539,2.13
			c-2.591,1.955-5.376,3.42-8.254,4.814c0.449-7.658,1.958-15.297,3.661-23.086c6.746-4.74,15.742-9.611,16.612-18.623
			c0.647-6.705-2.351-17.094-10.446-17.198c-7.02-0.089-11.534,8.24-13.098,14.198c-1.938,7.391-0.8,15.952,4.109,21.884
			c-2.805,9.825-4.576,20.325-3.981,30.46c-1.718-0.062-4.127-2.06-5.332-3.228c2.316-5.333,2.938-11.667-0.924-16.463
			c-3.332-4.131-9.065-4.932-13.569-2.314c-4.726,2.741-6.585,8.808-3.25,13.422c3.406,4.707,10.073,7.404,15.763,6.508
			c0.437,0.419,0.874,0.803,1.28,1.124c1.409,1.099,4.098,2.903,6.129,2.446c0.545,6.642,2.14,13.108,5.19,19.094
			c0.597,1.173,2.545,0.318,2.091-0.936c-0.122-0.333-0.24-0.664-0.36-0.993c-0.023-0.066-0.066-0.115-0.098-0.17
			c-3.253-8.365-4.19-16.507-3.866-24.613c3.575-1.162,7.193-3.046,10.418-5.441c0.087,0.208,0.216,0.406,0.448,0.562
			c5.514,3.672,12.359,2.952,17.522-1.044C166.31,75.597,170.575,67.86,166.907,61.643"/>
		<path fill="#7C6453" d="M188.127,140.064c-1.297-6.62-9.434-11.718-18.539-11.718c-0.33,0-0.688,0.021-1.01,0.034
			c0.055-0.561,0.093-1.122,0.093-1.697c0-12.895-13.871-23.348-30.971-23.348c-12.538,0-23.32,5.636-28.185,13.721
			c-1.633-0.229-3.294-0.36-5.013-0.36c-15.121,0-27.374,9.239-27.374,20.639c0,0.476-0.015,0.944,0.03,1.411
			C77.1,138.88,77,139.01,77,139.15v0.87c-31,4.06-59,11.465-79,21.116V200h269v-38.863
			C245,151.521,219.146,144.134,188.127,140.064z"/>
	</g>
</g>
</svg>
