<?xml version="1.0" encoding="utf-8"?>
<!-- Generator: Adobe Illustrator 16.0.0, SVG Export Plug-In . SVG Version: 6.00 Build 0)  -->
<!DOCTYPE svg PUBLIC "-//W3C//DTD SVG 1.1//EN" "http://www.w3.org/Graphics/SVG/1.1/DTD/svg11.dtd">
<svg version="1.1" id="Capa_1" xmlns="http://www.w3.org/2000/svg" xmlns:xlink="http://www.w3.org/1999/xlink" x="0px" y="0px"
	 width="390px" height="390px" viewBox="0 0 390 390" enable-background="new 0 0 390 390" xml:space="preserve">
<rect opacity="0.4" fill="#9FDAE2" width="390" height="390"/>
<g>
	<path fill="#FFFFFF" d="M307.782,151.283c0.335-2.754,0.512-5.556,0.512-8.4c0-37.95-30.765-68.714-68.715-68.714
		c-0.908,0-1.811,0.022-2.71,0.058c-12.287-11.513-28.804-18.566-46.971-18.566c-18.144,0-34.642,7.036-46.924,18.523
		c-37.416,0.62-67.557,31.137-67.557,68.7c0,2.812,0.173,5.584,0.501,8.309c-14.373,12.595-23.45,31.084-23.45,51.695
		c0,37.951,30.765,68.715,68.714,68.715c5.773,0,11.379-0.715,16.735-2.057c12.601,14.561,31.215,23.771,51.979,23.771
		c21.166,0,40.093-9.572,52.698-24.621c6.275,1.889,12.927,2.906,19.817,2.906c37.95,0,68.715-30.764,68.715-68.715
		C331.129,182.325,322.094,163.876,307.782,151.283z"/>
	<path opacity="0.7" fill="#9FDAE2" stroke="#2F7A7F" stroke-width="2" stroke-miterlimit="10" d="M313.045,160.834
		c0.342-2.802,0.521-5.656,0.521-8.549c0-38.626-31.311-69.937-69.936-69.937c-0.925,0-1.843,0.024-2.758,0.06
		c-12.506-11.718-29.316-18.896-47.806-18.896c-18.466,0-35.258,7.16-47.758,18.852c-38.08,0.629-68.758,31.69-68.758,69.921
		c0,2.862,0.176,5.683,0.51,8.456c-14.627,12.819-23.866,31.636-23.866,52.614c0,38.625,31.311,69.936,69.937,69.936
		c5.875,0,11.579-0.729,17.033-2.094c12.823,14.82,31.768,24.195,52.903,24.195c21.542,0,40.806-9.744,53.634-25.059
		c6.388,1.92,13.157,2.957,20.17,2.957c38.625,0,69.936-31.311,69.936-69.936C336.806,192.428,327.611,173.65,313.045,160.834z"/>
	<g>
		<g>
			<g>
				<path fill="#9FDAE2" d="M251.26,246.75l-7.231-0.004c-1.477,0-2.677-1.205-2.677-2.676v-3.453
					c-1.065-0.207-2.126-0.475-3.176-0.801l-1.813,3.137c-0.473,0.82-1.358,1.336-2.312,1.336c-0.468,0-0.932-0.123-1.339-0.359
					l-6.264-3.615c-0.621-0.355-1.065-0.932-1.252-1.623c-0.183-0.689-0.09-1.416,0.271-2.033l1.725-2.99
					c-0.811-0.709-1.596-1.475-2.344-2.285l-3.138,1.809c-0.409,0.238-0.872,0.359-1.341,0.359c-0.955,0-1.847-0.51-2.32-1.336
					l-3.618-6.268c-0.356-0.619-0.452-1.342-0.27-2.027c0.188-0.693,0.63-1.271,1.252-1.627l2.979-1.727
					c-0.352-1.027-0.645-2.082-0.887-3.15h-3.61c-1.481,0-2.685-1.205-2.685-2.682v-7.229c0-1.479,1.203-2.684,2.685-2.684h3.446
					c0.211-1.076,0.479-2.135,0.804-3.168l-3.135-1.812c-0.62-0.355-1.064-0.936-1.251-1.627c-0.186-0.691-0.091-1.414,0.267-2.035
					l3.617-6.259c0.486-0.831,1.384-1.341,2.335-1.341c0.465,0,0.926,0.122,1.331,0.354l2.987,1.728
					c0.703-0.805,1.467-1.585,2.282-2.337l-1.814-3.14c-0.358-0.624-0.452-1.349-0.266-2.043c0.188-0.688,0.629-1.264,1.249-1.617
					l6.258-3.619c0.412-0.237,0.877-0.36,1.344-0.36c0.953,0,1.845,0.513,2.327,1.341l1.716,2.981
					c1.029-0.352,2.086-0.648,3.148-0.888v-3.616c0-1.475,1.207-2.678,2.683-2.678h7.23c1.478,0,2.684,1.203,2.684,2.678v3.451
					c1.08,0.213,2.145,0.48,3.172,0.804l1.811-3.132c0.478-0.825,1.369-1.34,2.322-1.34c0.462,0,0.927,0.123,1.331,0.355
					l6.265,3.621c1.279,0.738,1.72,2.381,0.983,3.661l-1.723,2.986c0.814,0.713,1.597,1.475,2.339,2.282l3.138-1.811
					c0.406-0.236,0.867-0.359,1.336-0.359c0.955,0,1.847,0.511,2.326,1.339l3.617,6.261c0.731,1.286,0.293,2.926-0.98,3.667
					l-2.981,1.723c0.354,1.041,0.652,2.098,0.894,3.152h3.612c0.72,0,1.391,0.279,1.897,0.789c0.507,0.506,0.782,1.178,0.776,1.895
					v7.227c-0.001,1.48-1.201,2.686-2.674,2.686h-3.45c-0.214,1.076-0.483,2.135-0.802,3.162l3.132,1.812
					c1.279,0.742,1.717,2.383,0.98,3.662l-3.616,6.262c-0.481,0.828-1.371,1.342-2.324,1.342c-0.464,0-0.924-0.125-1.331-0.354
					l-2.99-1.73c-0.716,0.812-1.479,1.598-2.289,2.338l1.811,3.133c0.739,1.293,0.299,2.934-0.979,3.668l-6.262,3.617
					c-0.413,0.238-0.878,0.359-1.339,0.359c-0.955,0-1.842-0.514-2.319-1.34l-1.724-2.98c-1.017,0.348-2.072,0.643-3.148,0.887
					v3.617C253.939,245.547,252.736,246.75,251.26,246.75L251.26,246.75z M237.376,237.721l0.677,0.225
					c1.419,0.477,2.869,0.844,4.315,1.086l0.724,0.123v4.914c0,0.514,0.419,0.934,0.938,0.934l7.231,0.004
					c0.518,0,0.939-0.422,0.939-0.938v-5.033l0.696-0.141c1.482-0.299,2.926-0.707,4.287-1.205l0.686-0.252l2.455,4.236
					c0.251,0.438,0.829,0.598,1.281,0.344l6.259-3.615c0.448-0.258,0.601-0.834,0.341-1.291l-2.525-4.363l0.541-0.469
					c1.124-0.988,2.172-2.053,3.104-3.182l0.47-0.566l4.254,2.459c0.43,0.244,1.029,0.086,1.277-0.348l3.616-6.264
					c0.259-0.447,0.105-1.02-0.341-1.279l-4.363-2.523l0.229-0.678c0.468-1.381,0.835-2.826,1.092-4.303l0.127-0.727h4.904
					c0.511,0,0.931-0.422,0.935-0.945v-7.229c0-0.252-0.094-0.484-0.272-0.664c-0.176-0.176-0.412-0.275-0.662-0.275h-5.032
					l-0.141-0.697c-0.289-1.434-0.698-2.879-1.214-4.289l-0.251-0.688l4.242-2.449c0.445-0.26,0.598-0.836,0.338-1.289l-3.612-6.255
					c-0.248-0.429-0.846-0.595-1.28-0.342l-4.372,2.521l-0.469-0.538c-0.983-1.12-2.054-2.165-3.182-3.1l-0.563-0.469l2.447-4.25
					c0.259-0.446,0.106-1.022-0.344-1.283l-6.261-3.618c-0.424-0.242-1.027-0.083-1.273,0.348l-2.526,4.361l-0.676-0.232
					c-1.373-0.466-2.823-0.831-4.312-1.088l-0.727-0.123v-4.911c0-0.517-0.421-0.936-0.938-0.936h-7.23
					c-0.518,0-0.941,0.417-0.941,0.936v5.035l-0.701,0.14c-1.456,0.293-2.896,0.698-4.284,1.209l-0.689,0.254l-2.442-4.242
					c-0.253-0.437-0.842-0.602-1.292-0.341l-6.261,3.616c-0.215,0.122-0.369,0.323-0.435,0.562c-0.063,0.243-0.028,0.5,0.097,0.719
					l2.524,4.367l-0.538,0.473c-1.146,1.003-2.188,2.077-3.101,3.179l-0.47,0.567l-4.251-2.455c-0.428-0.248-1.03-0.084-1.29,0.354
					l-3.614,6.255c-0.123,0.213-0.156,0.467-0.093,0.707c0.065,0.242,0.222,0.445,0.438,0.572l4.367,2.521l-0.23,0.678
					c-0.472,1.389-0.839,2.838-1.091,4.309l-0.121,0.725h-4.906c-0.519,0-0.945,0.422-0.945,0.943v7.227
					c0,0.518,0.423,0.941,0.945,0.941h5.032l0.142,0.703c0.287,1.461,0.696,2.902,1.204,4.283l0.255,0.689l-4.243,2.453
					c-0.22,0.123-0.373,0.324-0.438,0.562c-0.062,0.242-0.028,0.496,0.095,0.713l3.616,6.264c0.246,0.428,0.844,0.594,1.281,0.34
					l4.366-2.52l0.473,0.533c1.001,1.137,2.072,2.182,3.186,3.107l0.564,0.471l-2.452,4.252c-0.125,0.217-0.156,0.471-0.095,0.711
					c0.065,0.242,0.22,0.439,0.435,0.566l6.271,3.615c0.43,0.25,1.023,0.088,1.267-0.338L237.376,237.721L237.376,237.721z
					 M247.239,230.35c-10.825,0-19.626-8.807-19.626-19.629c0-10.824,8.804-19.631,19.626-19.631
					c10.827,0,19.635,8.807,19.635,19.631C266.875,221.543,258.064,230.35,247.239,230.35L247.239,230.35z M247.239,192.832
					c-9.861,0-17.885,8.024-17.885,17.889c0,9.861,8.023,17.885,17.885,17.885c9.866,0,17.892-8.023,17.892-17.885
					C265.131,200.855,257.104,192.832,247.239,192.832L247.239,192.832z"/>
			</g>
		</g>
		<g>
			<g>
				<path fill="#9FDAE2" d="M153.94,152.91l-6.026-0.003c-1.232,0-2.231-1.003-2.231-2.229V147.8
					c-0.888-0.174-1.771-0.396-2.647-0.669l-1.511,2.614c-0.395,0.685-1.133,1.115-1.928,1.115c-0.389,0-0.776-0.103-1.115-0.3
					l-5.221-3.013c-0.518-0.296-0.887-0.777-1.042-1.354c-0.153-0.573-0.075-1.179,0.225-1.694l1.437-2.492
					c-0.676-0.592-1.33-1.229-1.953-1.906l-2.615,1.508c-0.341,0.198-0.728,0.299-1.118,0.299c-0.796,0-1.54-0.424-1.934-1.113
					l-3.016-5.224c-0.297-0.517-0.377-1.118-0.224-1.689c0.155-0.579,0.525-1.06,1.043-1.356l2.482-1.438
					c-0.293-0.858-0.538-1.736-0.74-2.626h-3.009c-1.234,0-2.237-1.004-2.237-2.235v-6.024c0-1.234,1.002-2.237,2.237-2.237h2.872
					c0.177-0.897,0.4-1.779,0.671-2.641l-2.613-1.51c-0.517-0.297-0.886-0.78-1.042-1.357c-0.155-0.575-0.075-1.178,0.223-1.695
					l3.014-5.217c0.406-0.693,1.153-1.119,1.946-1.119c0.387,0,0.771,0.103,1.109,0.296l2.489,1.44
					c0.586-0.671,1.223-1.321,1.902-1.947l-1.512-2.616c-0.298-0.521-0.376-1.125-0.221-1.703c0.156-0.574,0.525-1.054,1.041-1.349
					l5.216-3.016c0.344-0.198,0.73-0.301,1.12-0.301c0.795,0,1.538,0.427,1.939,1.118l1.431,2.484
					c0.858-0.292,1.739-0.539,2.625-0.739v-3.014c0-1.229,1.006-2.232,2.235-2.232h6.026c1.231,0,2.236,1.002,2.236,2.232v2.876
					c0.901,0.178,1.788,0.4,2.644,0.67l1.509-2.61c0.399-0.687,1.141-1.118,1.937-1.118c0.385,0,0.772,0.103,1.109,0.297
					l5.221,3.017c1.066,0.616,1.433,1.984,0.82,3.053l-1.436,2.489c0.679,0.594,1.332,1.229,1.95,1.901l2.615-1.509
					c0.338-0.197,0.722-0.3,1.112-0.3c0.797,0,1.54,0.426,1.939,1.117l3.016,5.218c0.609,1.073,0.244,2.438-0.818,3.056
					l-2.485,1.435c0.295,0.868,0.544,1.75,0.745,2.629h3.011c0.601,0,1.16,0.233,1.582,0.657c0.423,0.422,0.652,0.981,0.647,1.579
					v6.023c-0.001,1.233-1,2.239-2.229,2.239h-2.875c-0.177,0.896-0.402,1.779-0.667,2.634l2.61,1.512
					c1.066,0.618,1.431,1.987,0.817,3.052l-3.014,5.219c-0.402,0.689-1.142,1.119-1.938,1.119c-0.386,0-0.77-0.104-1.109-0.296
					l-2.492-1.442c-0.597,0.679-1.232,1.333-1.909,1.95l1.51,2.611c0.616,1.078,0.249,2.446-0.817,3.057l-5.219,3.015
					c-0.344,0.198-0.731,0.3-1.116,0.3c-0.796,0-1.536-0.429-1.933-1.118l-1.437-2.484c-0.847,0.29-1.728,0.536-2.623,0.74v3.014
					C156.174,151.907,155.171,152.91,153.94,152.91L153.94,152.91z M142.369,145.385l0.564,0.187
					c1.183,0.398,2.391,0.703,3.597,0.906l0.603,0.102v4.096c0,0.427,0.349,0.778,0.782,0.778l6.027,0.003
					c0.431,0,0.783-0.352,0.783-0.781v-4.196l0.581-0.117c1.235-0.249,2.438-0.588,3.573-1.004l0.571-0.21l2.046,3.532
					c0.209,0.363,0.691,0.497,1.068,0.286l5.216-3.013c0.374-0.215,0.5-0.696,0.285-1.077l-2.105-3.635l0.45-0.39
					c0.938-0.824,1.811-1.712,2.588-2.653l0.391-0.473l3.545,2.05c0.358,0.204,0.858,0.072,1.065-0.291l3.015-5.22
					c0.215-0.372,0.086-0.849-0.285-1.065l-3.637-2.104l0.191-0.566c0.391-1.149,0.697-2.355,0.91-3.585l0.106-0.605h4.087
					c0.426,0,0.775-0.352,0.78-0.787v-6.026c0-0.209-0.078-0.403-0.227-0.553c-0.147-0.146-0.343-0.229-0.553-0.229h-4.194
					l-0.117-0.581c-0.24-1.196-0.581-2.399-1.011-3.576l-0.21-0.572l3.537-2.042c0.371-0.216,0.498-0.695,0.281-1.073l-3.011-5.214
					c-0.206-0.357-0.705-0.496-1.067-0.286l-3.644,2.101l-0.391-0.448c-0.819-0.934-1.711-1.804-2.651-2.583l-0.47-0.391l2.04-3.542
					c0.215-0.372,0.088-0.853-0.287-1.069l-5.218-3.016c-0.353-0.201-0.855-0.069-1.061,0.291l-2.105,3.634l-0.563-0.194
					c-1.145-0.387-2.354-0.692-3.594-0.906l-0.605-0.103v-4.093c0-0.431-0.351-0.78-0.783-0.78h-6.025
					c-0.431,0-0.786,0.347-0.786,0.78v4.196l-0.583,0.117c-1.214,0.244-2.415,0.583-3.571,1.008l-0.574,0.211l-2.036-3.537
					c-0.21-0.364-0.701-0.5-1.076-0.283l-5.218,3.014c-0.179,0.102-0.307,0.27-0.362,0.468c-0.052,0.202-0.024,0.416,0.081,0.599
					l2.104,3.641l-0.448,0.393c-0.955,0.836-1.824,1.731-2.585,2.65l-0.39,0.472l-3.544-2.046c-0.356-0.207-0.858-0.071-1.075,0.294
					l-3.012,5.214c-0.103,0.178-0.13,0.389-0.078,0.589c0.055,0.203,0.185,0.372,0.365,0.478l3.64,2.101l-0.192,0.565
					c-0.394,1.158-0.7,2.367-0.909,3.591l-0.101,0.605h-4.09c-0.431,0-0.787,0.351-0.787,0.785v6.023
					c0,0.433,0.352,0.785,0.787,0.785h4.195l0.118,0.585c0.239,1.218,0.581,2.419,1.004,3.571l0.212,0.573l-3.537,2.045
					c-0.183,0.103-0.311,0.271-0.365,0.47c-0.051,0.202-0.023,0.414,0.079,0.595l3.014,5.219c0.205,0.356,0.703,0.495,1.067,0.284
					l3.639-2.1l0.395,0.445c0.834,0.947,1.727,1.817,2.654,2.588l0.471,0.393l-2.045,3.543c-0.103,0.182-0.129,0.393-0.078,0.594
					c0.055,0.201,0.183,0.367,0.362,0.47l5.227,3.015c0.357,0.208,0.853,0.073,1.055-0.282L142.369,145.385L142.369,145.385z
					 M150.589,139.241c-9.023,0-16.358-7.34-16.358-16.359c0-9.023,7.338-16.362,16.358-16.362c9.024,0,16.365,7.34,16.365,16.362
					C166.954,131.901,159.612,139.241,150.589,139.241L150.589,139.241z M150.589,107.973c-8.22,0-14.906,6.687-14.906,14.909
					c0,8.219,6.687,14.906,14.906,14.906c8.223,0,14.911-6.687,14.911-14.906C165.5,114.659,158.812,107.973,150.589,107.973
					L150.589,107.973z"/>
			</g>
		</g>
		<g>
			<path fill="#9FDAE2" d="M286.705,189.369h-3.604c-1.023,0-1.854-0.831-1.854-1.854v-2.331c0-0.17-0.179-0.416-0.339-0.47
				l-1.107-0.457c-0.197-0.093-0.522-0.034-0.623,0.066l-1.653,1.652c-0.703,0.698-1.926,0.695-2.621,0l-2.552-2.552
				c-0.35-0.348-0.544-0.815-0.544-1.313s0.194-0.965,0.545-1.311l1.648-1.648c0.116-0.115,0.162-0.418,0.091-0.567l-0.458-1.116
				c-0.072-0.209-0.327-0.392-0.493-0.392h-2.333c-1.024,0-1.854-0.831-1.854-1.856v-3.604c0-1.023,0.829-1.855,1.854-1.855h2.333
				c0.166,0,0.419-0.183,0.472-0.339l0.45-1.108c0.101-0.206,0.055-0.511-0.065-0.63l-1.646-1.647
				c-0.349-0.345-0.543-0.813-0.543-1.31c0-0.5,0.194-0.964,0.545-1.311l2.55-2.551c0.693-0.696,1.921-0.698,2.622-0.002l1.647,1.65
				c0.063,0.065,0.216,0.126,0.382,0.126c0.107,0,0.167-0.021,0.188-0.034l1.108-0.462c0.219-0.075,0.397-0.322,0.397-0.49v-2.331
				c0-1.027,0.831-1.856,1.854-1.856h3.604c1.025,0,1.861,0.829,1.861,1.856v2.331c0,0.167,0.177,0.418,0.331,0.468l1.112,0.459
				c0.321,0.153,0.535,0.025,0.626-0.067l1.646-1.648c0.705-0.699,1.932-0.697,2.626,0.004l2.548,2.55
				c0.35,0.343,0.545,0.811,0.545,1.309c0,0.496-0.195,0.964-0.547,1.312l-1.648,1.647c-0.116,0.117-0.165,0.423-0.09,0.573
				l0.462,1.109c0.071,0.215,0.324,0.394,0.49,0.394H299c1.023,0,1.855,0.832,1.855,1.855v3.605c0,1.024-0.832,1.855-1.855,1.855
				h-2.332c-0.166,0-0.419,0.18-0.468,0.335l-0.459,1.117c-0.1,0.204-0.052,0.507,0.066,0.626l1.647,1.649
				c0.347,0.341,0.545,0.81,0.545,1.306c0,0.499-0.195,0.966-0.548,1.314l-2.548,2.551c-0.69,0.693-1.917,0.696-2.62,0.003
				l-1.649-1.65c-0.097-0.097-0.423-0.168-0.574-0.094l-1.104,0.459c-0.216,0.073-0.393,0.322-0.393,0.494v2.33
				C288.565,188.538,287.729,189.369,286.705,189.369L286.705,189.369z M279.557,182.455c0.343,0,0.678,0.073,0.963,0.218
				l0.996,0.409c0.817,0.272,1.474,1.185,1.474,2.102v2.331c0,0.062,0.049,0.112,0.11,0.112h3.603c0.064,0,0.114-0.054,0.114-0.112
				v-2.331c0-0.917,0.655-1.826,1.524-2.121l0.994-0.417c0.234-0.117,0.565-0.193,0.907-0.193c0.617,0,1.218,0.241,1.619,0.642
				l1.647,1.646c0.025,0.026,0.058,0.032,0.078,0.032l2.63-2.582l-0.002-0.003l0.002-0.154l-1.649-1.648
				c-0.649-0.652-0.828-1.761-0.417-2.579l0.409-0.998c0.27-0.815,1.182-1.473,2.1-1.473h2.332c0.06,0,0.11-0.051,0.11-0.11v-3.605
				c0-0.059-0.053-0.11-0.11-0.11h-2.332c-0.92,0-1.833-0.658-2.123-1.529l-0.415-0.995c-0.382-0.765-0.203-1.872,0.444-2.523
				l1.649-1.65l-0.002-0.002l0.002-0.154l-2.552-2.554c-0.103-0.03-0.135-0.022-0.158,0.003l-1.649,1.646
				c-0.625,0.626-1.783,0.816-2.58,0.42l-0.997-0.413c-0.811-0.267-1.468-1.177-1.468-2.1v-2.331c0-0.06-0.058-0.115-0.116-0.115
				h-3.601c-0.062,0-0.111,0.054-0.111,0.115v2.331c0,0.922-0.662,1.834-1.531,2.121l-0.991,0.416
				c-0.235,0.117-0.565,0.193-0.911,0.193c-0.613,0-1.217-0.237-1.617-0.638l-1.647-1.647h-0.156l-2.552,2.554l0,0v0.154
				l1.651,1.647c0.645,0.652,0.824,1.761,0.417,2.581l-0.408,0.994c-0.272,0.818-1.187,1.474-2.104,1.474H270.8
				c-0.06,0-0.11,0.052-0.11,0.111v3.604c0,0.061,0.052,0.111,0.11,0.111h2.332c0.916,0,1.828,0.657,2.125,1.525l0.413,1.004
				c0.384,0.762,0.205,1.869-0.442,2.521l-1.651,1.648l0,0v0.157l2.552,2.55c0.103,0.032,0.131,0.023,0.158-0.001l1.648-1.647
				C278.336,182.696,278.94,182.455,279.557,182.455L279.557,182.455z M284.904,179.042c-3.1,0-5.622-2.523-5.622-5.623
				c0-3.1,2.522-5.623,5.622-5.623c3.101,0,5.624,2.523,5.624,5.623C290.53,176.518,288.006,179.042,284.904,179.042
				L284.904,179.042z M284.904,169.538c-2.14,0-3.883,1.741-3.883,3.881c0,2.141,1.741,3.884,3.883,3.884
				c2.139,0,3.882-1.74,3.882-3.884C288.784,171.279,287.044,169.538,284.904,169.538L284.904,169.538z"/>
		</g>
		<g>
			<path fill="#9FDAE2" d="M171.342,167.699h-1.5c-0.427,0-0.773-0.347-0.773-0.772v-0.971c0-0.071-0.074-0.175-0.142-0.197
				l-0.46-0.19c-0.082-0.039-0.219-0.014-0.259,0.029l-0.689,0.688c-0.293,0.291-0.803,0.29-1.092,0l-1.062-1.063
				c-0.146-0.145-0.227-0.34-0.227-0.546c0-0.208,0.082-0.403,0.227-0.546l0.686-0.687c0.048-0.048,0.068-0.175,0.038-0.237
				l-0.192-0.464c-0.03-0.088-0.136-0.164-0.205-0.164h-0.973c-0.426,0-0.771-0.346-0.771-0.774v-1.501
				c0-0.425,0.345-0.772,0.771-0.772h0.973c0.069,0,0.175-0.077,0.196-0.141l0.189-0.462c0.041-0.085,0.021-0.213-0.029-0.262
				l-0.686-0.687c-0.145-0.143-0.225-0.339-0.225-0.544c0-0.209,0.08-0.403,0.227-0.546l1.062-1.062
				c0.289-0.291,0.8-0.292,1.091-0.002l0.688,0.688c0.025,0.027,0.089,0.052,0.159,0.052c0.045,0,0.07-0.009,0.078-0.014
				l0.461-0.193c0.092-0.031,0.166-0.133,0.166-0.203v-0.971c0-0.428,0.346-0.773,0.773-0.773h1.5c0.428,0,0.776,0.345,0.776,0.773
				v0.971c0,0.07,0.073,0.173,0.139,0.194l0.462,0.192c0.135,0.064,0.224,0.01,0.261-0.028l0.686-0.686
				c0.293-0.292,0.804-0.291,1.093,0.001l1.063,1.062c0.145,0.143,0.226,0.339,0.226,0.545c0,0.208-0.081,0.402-0.227,0.546
				l-0.687,0.686c-0.047,0.049-0.068,0.177-0.037,0.24l0.192,0.462c0.031,0.089,0.135,0.164,0.204,0.164h0.973
				c0.425,0,0.771,0.346,0.771,0.771v1.503c0,0.427-0.346,0.773-0.771,0.773h-0.973c-0.069,0-0.173,0.074-0.195,0.14l-0.191,0.464
				c-0.041,0.085-0.021,0.211,0.028,0.262l0.687,0.686c0.144,0.143,0.226,0.338,0.226,0.544c0,0.208-0.081,0.402-0.228,0.547
				l-1.061,1.062c-0.289,0.29-0.799,0.291-1.092,0.001l-0.687-0.687c-0.042-0.04-0.176-0.07-0.238-0.039l-0.46,0.191
				c-0.09,0.031-0.163,0.136-0.163,0.207v0.971C172.118,167.352,171.77,167.699,171.342,167.699L171.342,167.699z M168.365,164.819
				c0.142,0,0.281,0.031,0.4,0.09l0.415,0.171c0.341,0.113,0.614,0.493,0.614,0.875v0.971c0,0.025,0.021,0.046,0.044,0.046h1.502
				c0.027,0,0.047-0.022,0.047-0.046v-0.971c0-0.382,0.271-0.761,0.635-0.883l0.413-0.174c0.099-0.049,0.237-0.081,0.379-0.081
				c0.256,0,0.507,0.101,0.674,0.267l0.687,0.686c0.01,0.01,0.024,0.014,0.032,0.014l1.096-1.076l-0.002-0.001l0.002-0.066
				l-0.688-0.686c-0.269-0.27-0.345-0.732-0.173-1.073l0.171-0.416c0.113-0.34,0.492-0.614,0.874-0.614h0.972
				c0.024,0,0.046-0.021,0.046-0.046v-1.503c0-0.023-0.022-0.044-0.046-0.044h-0.972c-0.383,0-0.763-0.274-0.884-0.637l-0.173-0.415
				c-0.16-0.318-0.084-0.781,0.185-1.051l0.686-0.688v-0.001v-0.063l-1.062-1.063c-0.042-0.014-0.056-0.009-0.066,0.001
				l-0.688,0.686c-0.259,0.261-0.742,0.339-1.074,0.175l-0.415-0.173c-0.338-0.111-0.612-0.49-0.612-0.874v-0.971
				c0-0.024-0.024-0.048-0.048-0.048h-1.5c-0.026,0-0.046,0.024-0.046,0.048v0.971c0,0.384-0.275,0.764-0.638,0.883l-0.413,0.174
				c-0.098,0.049-0.235,0.08-0.379,0.08c-0.256,0-0.508-0.099-0.674-0.265l-0.687-0.686h-0.065l-1.062,1.063l0,0v0.063l0.687,0.687
				c0.269,0.271,0.343,0.734,0.174,1.076l-0.171,0.413c-0.113,0.341-0.493,0.614-0.875,0.614h-0.973
				c-0.025,0-0.045,0.021-0.045,0.045v1.502c0,0.026,0.021,0.047,0.045,0.047h0.973c0.382,0,0.761,0.273,0.884,0.636l0.172,0.417
				c0.16,0.318,0.086,0.781-0.184,1.051l-0.687,0.686l0,0v0.067l1.062,1.062c0.043,0.014,0.055,0.009,0.068-0.001l0.685-0.686
				C167.856,164.919,168.108,164.819,168.365,164.819L168.365,164.819z M170.592,163.397c-1.292,0-2.342-1.051-2.342-2.342
				c0-1.292,1.051-2.343,2.342-2.343c1.292,0,2.344,1.051,2.344,2.343C172.936,162.347,171.884,163.397,170.592,163.397
				L170.592,163.397z M170.592,159.437c-0.892,0-1.618,0.727-1.618,1.619c0,0.891,0.725,1.618,1.618,1.618
				c0.892,0,1.617-0.727,1.617-1.618S171.484,159.437,170.592,159.437L170.592,159.437z"/>
		</g>
		<path fill="#9FDAE2" d="M267.265,162.335h-1.298c-0.302,0-0.627-0.231-0.72-0.516l-0.241-0.588
			c-0.138-0.27-0.072-0.661,0.139-0.876l0.919-0.916c0.217-0.209,0.217-0.561,0-0.772l-1.417-1.42c-0.217-0.212-0.563-0.212-0.773,0
			l-0.918,0.917c-0.212,0.212-0.606,0.279-0.876,0.143l-0.586-0.241c-0.286-0.094-0.52-0.417-0.52-0.72v-1.296
			c0-0.299-0.246-0.548-0.551-0.548h-2.004c-0.3,0-0.548,0.248-0.548,0.548v1.296c0,0.301-0.232,0.626-0.521,0.72l-0.584,0.241
			c-0.267,0.137-0.665,0.07-0.874-0.143l-0.916-0.917c-0.213-0.212-0.56-0.212-0.773,0l-1.421,1.42
			c-0.212,0.212-0.212,0.563,0,0.772l0.918,0.916c0.214,0.215,0.277,0.606,0.142,0.876l-0.238,0.588
			c-0.098,0.285-0.42,0.516-0.726,0.516h-1.296c-0.298,0-0.548,0.246-0.548,0.549v2.004c0,0.301,0.248,0.547,0.548,0.547h1.298
			c0.302,0,0.626,0.233,0.725,0.52l0.237,0.587c0.137,0.27,0.073,0.664-0.14,0.877l-0.917,0.915c-0.213,0.213-0.213,0.561,0,0.772
			l1.418,1.42c0.216,0.212,0.562,0.212,0.774,0l0.915-0.918c0.209-0.213,0.607-0.276,0.875-0.143l0.585,0.239
			c0.287,0.098,0.52,0.42,0.52,0.723v1.297c0,0.302,0.246,0.547,0.549,0.547h2.004c0.303,0,0.549-0.243,0.549-0.547v-1.297
			c0-0.301,0.237-0.625,0.521-0.723l0.585-0.239c0.27-0.133,0.665-0.07,0.877,0.143l0.918,0.918c0.211,0.212,0.558,0.212,0.772,0
			l1.418-1.42c0.216-0.213,0.216-0.559,0-0.772l-0.919-0.915c-0.212-0.214-0.273-0.607-0.139-0.877l0.242-0.587
			c0.091-0.287,0.418-0.52,0.718-0.52h1.299c0.299,0,0.547-0.244,0.547-0.547v-2.004
			C267.812,162.583,267.562,162.335,267.265,162.335z M259.424,166.531c-1.46,0-2.645-1.186-2.645-2.645
			c0-1.462,1.185-2.647,2.645-2.647s2.642,1.185,2.642,2.647C262.065,165.346,260.884,166.531,259.424,166.531z"/>
		<path fill="#9FDAE2" d="M104.169,209.305h-1.298c-0.301,0-0.626-0.23-0.719-0.516l-0.242-0.586
			c-0.137-0.271-0.073-0.662,0.139-0.877l0.918-0.916c0.218-0.209,0.218-0.561,0-0.773l-1.416-1.418
			c-0.217-0.213-0.564-0.213-0.774,0l-0.918,0.914c-0.211,0.215-0.606,0.279-0.876,0.145l-0.585-0.242
			c-0.285-0.094-0.519-0.418-0.519-0.721v-1.297c0-0.299-0.244-0.547-0.549-0.547h-2.004c-0.301,0-0.55,0.246-0.55,0.547v1.297
			c0,0.301-0.233,0.627-0.519,0.721l-0.584,0.242c-0.267,0.135-0.667,0.07-0.876-0.145l-0.915-0.914
			c-0.213-0.213-0.559-0.213-0.772,0l-1.421,1.418c-0.212,0.213-0.212,0.564,0,0.773l0.918,0.916
			c0.213,0.215,0.277,0.605,0.142,0.877l-0.238,0.586c-0.098,0.285-0.42,0.516-0.726,0.516h-1.296c-0.298,0-0.548,0.248-0.548,0.551
			v2.004c0,0.301,0.248,0.547,0.548,0.547h1.297c0.303,0,0.626,0.232,0.724,0.52l0.238,0.588c0.136,0.27,0.072,0.664-0.141,0.877
			l-0.917,0.916c-0.211,0.213-0.211,0.561,0,0.771l1.419,1.422c0.215,0.211,0.561,0.211,0.774,0l0.915-0.92
			c0.209-0.211,0.609-0.275,0.875-0.143l0.585,0.24c0.286,0.098,0.52,0.42,0.52,0.723v1.297c0,0.303,0.247,0.549,0.549,0.549h2.003
			c0.302,0,0.55-0.244,0.55-0.549V217.4c0-0.303,0.236-0.625,0.52-0.723l0.583-0.24c0.271-0.133,0.666-0.068,0.877,0.143l0.918,0.92
			c0.21,0.211,0.559,0.211,0.774,0l1.416-1.422c0.217-0.213,0.217-0.559,0-0.771l-0.918-0.916c-0.211-0.213-0.274-0.607-0.138-0.877
			l0.242-0.588c0.092-0.287,0.418-0.52,0.719-0.52h1.297c0.3,0,0.548-0.244,0.548-0.547v-2.004
			C104.716,209.555,104.468,209.305,104.169,209.305z M96.327,213.502c-1.458,0-2.644-1.186-2.644-2.645
			c0-1.463,1.186-2.648,2.644-2.648c1.461,0,2.642,1.186,2.642,2.648C98.969,212.316,97.789,213.502,96.327,213.502z"/>
	</g>
	<g>
		<g>
			<g>
				<path fill="#D9B13C" d="M172.94,304.443c-1.81-25.668-21.133-39.533-23.735-51.572c-4.029-26.506,19.727-52.242,47.542-50.254
					c31.43,1.939,48.987,43.941,28.826,68.398c-3.551,4.887-13.16,8.666-16.708,13.553c-3.527,6.092-2.193,14.521-5.745,19.408
					c-3.547,4.885-22.633,19.668-30.086,6.498C171.8,309.291,172.979,306.855,172.94,304.443"/>
			</g>
			<g>
				<g>
					<path fill="#A27F29" d="M187.63,294.852c-3.212-5.258-3.521-13.666-4.953-19.59c-2.019-8.361-5.126-16.559-5.456-25.225
						c-1.495,0.881-2.986,1.762-4.482,2.66c3.359,2.193,6.549,4.559,9.643,7.102c1.509,1.234,3.645,1.068,4.695-0.688
						c2.134-3.533,3.902-7.215,5.783-10.881c-1.721,0.021-3.455,0.051-5.185,0.078c2.669,3.391,1.876,11.168,7.063,12.51
						c5.512,1.412,10.606-6.277,14.743-8.461c-1.479-0.574-2.959-1.15-4.439-1.729c1.798,6.98-4.592,18.688-7.046,25.098
						c-1.76,4.621-3.736,8.979-4.422,13.91c-0.725,5.139-3.019,4.615-7.666,4.41c-3.873-0.162-3.754,5.838,0.095,6.004
						c11.032,0.484,11.913-1.512,13.931-12.322c2.271-12.062,14.158-26.025,10.876-38.775c-0.519-1.975-2.78-2.602-4.439-1.73
						c-3.663,1.934-6.453,5.1-9.835,7.455c0.784-0.537-2.871-8.406-3.718-9.475c-1.297-1.656-4.052-2.125-5.188,0.08
						c-1.875,3.674-3.646,7.352-5.777,10.885c1.568-0.225,3.132-0.447,4.705-0.678c-3.505-2.877-7.068-5.535-10.871-8.018
						c-1.91-1.256-4.551,0.482-4.467,2.664c0.311,8.145,2.854,15.803,4.871,23.641c1.938,7.518,2.306,17.5,6.399,24.203
						C184.512,301.271,189.656,298.166,187.63,294.852L187.63,294.852z"/>
				</g>
			</g>
			<g>
				<g>
					<path fill="#A27F29" d="M172.834,312.709c10.089,1.902,20.154,0.58,30.333,0.307c3.87-0.107,3.784-6.107-0.092-6.008
						c-9.579,0.252-19.21,1.666-28.731-0.104C170.551,306.195,169.031,312.008,172.834,312.709L172.834,312.709z"/>
				</g>
			</g>
			<g>
				<g>
					<path fill="#A27F29" d="M173.656,323.275c9.882,1.541,19.739,0.545,29.674,0.311c3.872-0.084,3.781-6.094-0.092-6.006
						c-9.344,0.223-18.769,1.322-28.073-0.123C171.374,316.875,169.836,322.684,173.656,323.275L173.656,323.275z"/>
				</g>
			</g>
			<g>
				<g>
					<path fill="#A27F29" d="M180.267,325.318c1.147,1.834,1.353,4.096,2.564,5.932c1.665,2.52,4.671,3.432,7.547,2.979
						c6.246-0.965,7.407-7.568,6.553-12.801c-0.263-1.621-2.299-2.467-3.729-2.049c-1.713,0.51-2.301,2.119-2.047,3.734
						c0.322,1.977,0.241,5.752-2.706,5.217c-0.859-0.158-1.104-1.293-1.351-1.996c-0.479-1.422-0.904-2.852-1.707-4.121
						C183.352,318.93,178.205,322.025,180.267,325.318L180.267,325.318z"/>
				</g>
			</g>
		</g>
	</g>
	<path opacity="0.7" fill-rule="evenodd" clip-rule="evenodd" fill="#2F7A7F" d="M174.996,130.369
		c-0.17-1.25,0.111-3.375,2.01-5.351c1.243-1.293,1.983-3.097,2.845-4.727c2.154-4.078,4.358-8.135,6.333-12.3
		c1.461-3.087,2.525-6.365,3.899-9.497c0.645-1.473,1.68-2.769,2.406-4.212c1.522-3.018,2.92-6.099,4.438-9.118
		c1.149-2.288,2.102-4.777,3.708-6.703c1.511-1.81,3.948-2.309,6.321-1.397c2.105,0.808,4.252,1.419,6.225,2.709
		c3.179,2.074,4.957,6.146,3.357,9.7c-2.102,4.669-4.502,9.204-6.73,13.817c-1.139,2.359-2.567,4.452-4.864,5.816
		c-0.297,0.177-0.765,0.308-1.057,0.201c-1.971-0.728-2.462-0.527-3.455,1.419c-1.09,2.136-2.253,4.234-3.348,6.369
		c-1.672,3.262-3.366,6.514-4.94,9.824c-0.606,1.271-1.154,2.661-1.296,4.041c-0.279,2.681-2.386,3.791-4.045,5.324
		c-1.113,1.027-2.393,1.522-3.923,1.477C179.448,137.652,176.517,135.262,174.996,130.369 M201.687,104.475
		c-0.298-0.209-0.523-0.425-0.792-0.549c-0.687-0.317-1.396-0.584-2.09-0.891c-1.772-0.782-3.518-1.634-5.318-2.345
		c-1.21-0.477-2.049,0.082-2.582,1.249c-0.887,1.94-1.77,3.887-2.761,5.777c-1.479,2.827-3.278,5.455-4.419,8.498
		c-1.037,2.766-2.683,5.307-4.09,7.931c-0.819,1.522-0.641,2.15,0.972,2.81c0.517,0.212,1.1,0.258,1.635,0.439
		c1.545,0.524,3.149,0.939,4.598,1.659c1.729,0.862,2.504,0.719,3.376-1.105c1.566-3.287,3.092-6.594,4.703-9.859
		c1.241-2.523,2.602-4.988,3.881-7.492c0.911-1.779,1.78-3.579,2.657-5.375C201.564,105.002,201.604,104.751,201.687,104.475
		 M202.838,79.206c-0.519,0.519-1.695,1.308-2.324,2.411c-1.234,2.164-2.199,4.486-3.212,6.77c-0.738,1.668-1.302,3.418-2.089,5.061
		c-0.572,1.201-1.416,2.266-2.074,3.429c-0.357,0.631-0.697,1.386,0.289,1.815c2.727,1.186,5.446,2.392,8.207,3.492
		c1.564,0.626,3.353-0.215,4.169-1.716c0.513-0.944,1.134-1.83,1.66-2.767c1.636-2.905,3.442-5.736,4.793-8.768
		c0.736-1.652,1.236-3.78,0.863-5.476C212.449,80.401,206.427,77.879,202.838,79.206 M185.078,135.459
		c0.736-0.615,1.512-1.19,2.196-1.859c0.783-0.766,0.852-1.564-0.323-2.006c-2.769-1.045-5.531-2.122-8.356-3.003
		c-1.392-0.435-1.948,0.298-1.826,1.742C177.06,133.774,181.638,136.54,185.078,135.459 M215.089,88.504
		c-0.143-0.065-0.287-0.131-0.432-0.197c-3.669,6.139-7.337,12.277-11.04,18.472c0.61,0.514,1.376,0.538,2.062-0.318
		c0.604-0.75,1.296-1.463,1.748-2.3c1.916-3.568,3.796-7.157,5.606-10.778C213.821,91.806,214.41,90.133,215.089,88.504"/>
	<g opacity="0.7">
		<path fill="#2F7A7F" d="M163.097,201.572c-0.145-6.781-1.445-13.577-2.271-20.299c-0.831-6.767-1.548-13.548-2.521-20.296
			c-0.041-0.284-0.206-0.484-0.407-0.603c0.044-0.134,0.038-0.29-0.047-0.454c-2.309-4.363-4.847-8.774-7.582-12.887
			c-0.068-0.104-0.153-0.159-0.243-0.198c0.01-0.057,0.023-0.11,0.031-0.166c0.058-0.339-0.447-0.596-0.602-0.233
			c-0.021,0.047-0.038,0.097-0.059,0.144c-0.048-0.03-0.104-0.053-0.179-0.052c-8.071,0.182-16.116,0.46-24.183,0.934
			c-1.857,0.108-10.504-0.636-10.434,2.836c-0.136,0.079-0.243,0.217-0.246,0.407c-0.184,8.913,1.767,18.126,2.811,26.97
			c1.063,8.981,1.939,17.981,2.927,26.97c0.036,0.334,0.243,0.549,0.49,0.652c0.594,1.549,1.781,1.76,3.477,1.764
			c4.134,0.01,8.416-0.818,12.522-1.277c8.343-0.936,16.669-1.871,24.979-3.078c0.441-0.064,0.665-0.436,0.676-0.787
			C162.504,202.207,163.107,202.041,163.097,201.572 M155.458,158.269c-1.317-0.049-2.637-0.069-3.954-0.07
			c-0.975-0.001-2.068,0.139-3.04,0.039c-1.098-0.111-1.013,0.216-1.151-0.785c-0.184-1.312,1.099-3.807,1.466-5.096
			c0.386-1.352,0.706-2.686,0.976-4.044C151.503,151.682,153.44,155.028,155.458,158.269 M161.538,201.248
			c-6.699,0.867-13.406,1.727-20.115,2.498c-3.241,0.373-6.488,0.689-9.733,0.99c-2.047,0.186-8.274,1.729-10.08,0.148
			c0.02-0.08,0.03-0.168,0.017-0.266c-1.047-9.233-2.214-18.453-3.171-27.696c-0.884-8.53-1.051-17.57-3.057-25.932
			c1.357-2.531,6.39-1.927,8.928-2.081c2.685-0.165,5.371-0.323,8.056-0.477c5.6-0.324,11.181-0.827,16.771-1.25
			c-0.851,2.088-1.541,4.196-2.189,6.365c-0.389,1.302-1.822,3.875-1.213,5.255c0.471,1.072,1.801,0.871,2.737,0.882
			c2.562,0.031,5.158-0.034,7.714-0.231c0.22,0.348,0.438,0.704,0.661,1.046c0.001,0.001,0.001,0.001,0.001,0.003
			c-0.094,0.122-0.145,0.287-0.123,0.5c0.744,7.022,1.762,14.013,2.648,21.018c0.813,6.435,1.237,13.045,2.669,19.379
			C161.943,201.285,161.769,201.217,161.538,201.248"/>
		<path fill="#2F7A7F" d="M143.011,154.463c-3.458-0.109-6.99,0.408-10.449,0.55c-3.487,0.145-6.984,0.174-10.466,0.414
			c-0.432,0.029-0.413,0.635,0.01,0.666c6.703,0.491,14.424,0.555,21.022-0.824C143.6,155.168,143.458,154.478,143.011,154.463"/>
		<path fill="#2F7A7F" d="M143.637,159.803c-6.812-0.187-13.886,0.469-20.663,1.17c-0.425,0.043-0.418,0.636,0.013,0.664
			c6.804,0.415,14.072,0.354,20.792-0.877C144.344,160.657,144.167,159.816,143.637,159.803"/>
		<path fill="#2F7A7F" d="M152.622,164.794c-9.677,0.328-19.568,0.103-29.129,1.844c-0.5,0.091-0.343,0.83,0.123,0.844
			c9.67,0.291,19.387-1.139,29.021-1.711C153.263,165.733,153.251,164.772,152.622,164.794"/>
		<path fill="#2F7A7F" d="M153.361,170.167c-9.871,1.08-19.788,1.403-29.667,2.36c-0.539,0.054-0.535,0.823,0.016,0.846
			c9.898,0.448,19.847-0.585,29.675-1.707C154.334,171.557,154.32,170.063,153.361,170.167"/>
		<path fill="#2F7A7F" d="M153.86,176.207c-9.625-0.414-20.125,0.898-29.56,2.804c-0.674,0.137-0.514,1.266,0.177,1.201
			c4.896-0.46,9.772-1.161,14.668-1.656c4.892-0.49,9.863-0.573,14.733-1.228C154.582,177.232,154.593,176.241,153.86,176.207"/>
		<path fill="#2F7A7F" d="M154.585,181.016c-9.705,0.854-19.822,2.18-29.355,4.227c-0.589,0.128-0.45,1.091,0.154,1.049
			c9.73-0.688,19.797-2.23,29.372-4.113C155.411,182.048,155.256,180.957,154.585,181.016"/>
		<path fill="#2F7A7F" d="M155.628,187.932c-9.992,0.284-20.265,1.419-30.069,3.376c-0.659,0.133-0.506,1.253,0.173,1.177
			c9.974-1.105,19.938-2.219,29.917-3.278C156.452,189.122,156.461,187.909,155.628,187.932"/>
		<path fill="#2F7A7F" d="M156.794,194.663c-10.061,0.682-20.233,1.769-30.186,3.4c-0.592,0.098-0.442,1.07,0.152,1.033
			c10.016-0.613,20.099-1.625,30.06-2.834C157.822,196.141,157.839,194.59,156.794,194.663"/>
	</g>
	<g opacity="0.7">
		<path fill="#2F7A7F" d="M112.822,231.621c0.218,0.051,0.388-0.037,0.497-0.174c0.029-0.002,0.057,0.002,0.086-0.004
			c0.485-0.102,0.612-0.611,0.565-1.039c-0.027-0.248-0.14-0.391-0.369-0.484c-0.322-0.131-0.697-0.182-1.042-0.158
			c-0.234,0.014-0.5,0.068-0.629,0.289c-0.094,0.158-0.138,0.377-0.12,0.559C111.861,231.143,112.324,231.508,112.822,231.621"/>
		<path fill="#2F7A7F" d="M116.917,231.354c0.42-1.709-0.469-3.311-1.894-4.326c-0.012-0.188-0.114-0.375-0.333-0.463
			c-0.343-0.135-0.688-0.223-1.032-0.277c0.008-0.053,0.017-0.105,0.007-0.166c-0.17-1.086-0.577-2.146-1.156-3.086
			c0.125,0.01,0.255-0.031,0.367-0.162c0.29-0.342,0.934-0.473,1.295-0.773c0.125-0.102,0.189-0.338,0.129-0.488
			c-0.298-0.752-0.61-1.455-1.094-2.109c-0.125-0.168-0.344-0.318-0.568-0.23c-1.849,0.721-3.698,1.443-5.546,2.166
			c-0.197,0.076-0.39,0.248-0.369,0.484c0.122,1.387,0.68,2.061,1.693,2.947c0.174,0.154,0.38,0.156,0.548,0.08
			c0.145,0.916,0.315,1.832,0.692,2.674c-0.406,0.408-0.75,0.893-1.005,1.449c-0.853,1.855-0.108,3.57,1.313,4.66
			c-0.224-0.029-0.467,0.062-0.56,0.332c-1.217,3.539-2.057,7.232-2.639,10.922c-0.808,5.123-1.294,11.42,1.829,15.906
			c0.341,0.492,0.995,0.17,0.918-0.387c-0.656-4.777,0.011-9.814,0.768-14.535c0.355-2.223,0.815-4.432,1.401-6.604
			c0.176-0.654,0.918-4.18,1.845-4.221c0.119-0.006,0.208-0.053,0.284-0.111c0.098,0.172,0.283,0.275,0.527,0.176
			c0.807-0.332,2.495,1.854,2.943,2.346c1.691,1.863,3.166,3.93,4.587,6.002c2.729,3.982,5.454,8.34,6.881,12.982
			c0.136,0.443,0.878,0.518,0.969,0c0.976-5.576-2.418-11.232-5.354-15.691C122.163,237.506,119.649,234.289,116.917,231.354
			 M110.472,226.965c-0.357-0.902-0.485-1.9-0.632-2.863c0.59-0.23,1.19-0.438,1.815-0.535c0.5,0.822,0.842,1.729,1.011,2.678
			C111.881,226.295,111.129,226.545,110.472,226.965 M107.776,222.244c1.606-0.627,3.214-1.254,4.82-1.883
			c0.313,0.447,0.74,1.162,0.352,1.32c-0.304,0.125-0.567,0.227-0.783,0.48c-0.099,0.117-0.13,0.244-0.123,0.367
			c-0.04-0.012-0.083-0.016-0.126-0.012c-0.973,0.096-1.861,0.428-2.765,0.779c-0.261,0.102-0.381,0.303-0.353,0.57
			C108.276,223.395,107.913,222.977,107.776,222.244 M109.628,229.346c0.169-0.369,0.391-0.691,0.649-0.965
			c0.283,0.029,0.579-0.197,0.579-0.494c0.785-0.537,1.766-0.74,2.735-0.58c0.039,0.049,0.09,0.092,0.158,0.127
			c1.459,0.736,2.467,1.943,2.194,3.543c-0.164,0.141-0.25,0.367-0.154,0.584c-0.541,1.494-2.193,2.395-3.731,2.109
			C109.99,233.287,108.741,231.275,109.628,229.346 M109.738,243.326c-0.956,4.797-1.719,9.945-1.433,14.906
			c-1.788-4.326-1.126-9.693-0.385-14.109c0.556-3.305,1.364-6.619,2.454-9.791c0.043-0.123,0.029-0.23-0.01-0.32
			c0.29,0.184,0.598,0.346,0.922,0.479c0.354,0.145,0.715,0.223,1.072,0.254C110.632,236.553,110.019,241.912,109.738,243.326
			 M121.348,241.076c-1.367-1.902-2.824-3.771-4.493-5.418c-0.481-0.473-1.321-1.328-2.138-1.473
			c0.734-0.424,1.359-1.055,1.777-1.795c2.175,2.377,4.178,4.93,6.037,7.555c2.731,3.855,6.143,8.965,6.36,13.996
			C127.066,249.338,124.197,245.037,121.348,241.076"/>
	</g>
	<g opacity="0.7">
		<path fill="#2F7A7F" d="M242.723,155.161c0.489-1.401,1.084-2.743,1.742-4.073c0.458-0.932,1.289-2.103,1.295-3.148
			c0.005-0.708-0.848-1.009-1.279-0.443c-0.628,0.823-0.929,2.162-1.374,3.121c-0.626,1.345-1.145,2.712-1.56,4.137
			C241.326,155.519,242.457,155.92,242.723,155.161"/>
		<path fill="#2F7A7F" d="M244.933,147.229c-13.98,1.531-34.625-3.465-34.11-21.578c0.267-9.316,11.726-14.529,19.255-17.301
			c7.79-2.867,16.349-4.736,24.603-5.597c8.851-0.922,18.904,0.248,25.04,7.455c6.31,7.41,4.311,16.611-2.071,23.155
			c-10.014,10.272-25.765,11.167-36.083,20.953c-0.802,0.759,0.283,1.988,1.138,1.284c11.646-9.575,28.644-11.005,38.294-23.22
			c7.921-10.023,4.551-22.71-6.568-28.582c-12.955-6.844-31.372-1.982-44.32,2.619c-12.226,4.344-25.948,13.171-19.161,27.827
			c6.249,13.499,20.935,16.041,34.246,14.303C246.053,148.434,245.783,147.136,244.933,147.229"/>
		<path fill="#2F7A7F" d="M224.23,119.441c14.02-3.747,27.87-7.225,42.287-9.124c0.892-0.119,0.618-1.491-0.272-1.373
			c-14.287,1.885-28.757,4.64-42.372,9.45C223.281,118.604,223.627,119.604,224.23,119.441"/>
		<path fill="#2F7A7F" d="M224.961,125.711c14.278-2.759,28.39-6.51,42.651-9.405c0.883-0.181,0.614-1.539-0.272-1.373
			c-14.239,2.651-28.669,5.662-42.604,9.64C224.029,124.777,224.219,125.854,224.961,125.711"/>
		<path fill="#2F7A7F" d="M225.683,132.089c14.467-1.801,28.977-5.97,43.14-9.378c0.936-0.226,0.65-1.693-0.291-1.469
			c-14.252,3.412-28.988,5.747-43.054,9.812C224.826,131.241,225.004,132.173,225.683,132.089"/>
		<path fill="#2F7A7F" d="M228.106,138.589c14.262-2.765,28.428-6.575,42.529-10.067c0.862-0.215,0.604-1.563-0.269-1.361
			c-14.152,3.288-28.512,6.326-42.478,10.332C227.209,137.689,227.391,138.729,228.106,138.589"/>
	</g>
	<g opacity="0.7">
		<path fill="#2F7A7F" d="M282.27,198.451c-0.334,3.033-0.737,6.062-1.121,9.09c-0.146,1.145-1.038,3.807-0.372,4.838
			c0.15,0.236,0.482,0.145,0.628-0.025c0.779-0.91,0.578-3.965,0.708-5.059c0.343-2.924,0.68-5.846,0.884-8.781
			C283.029,198.045,282.321,197.982,282.27,198.451"/>
		<path fill="#2F7A7F" d="M282.816,198.875c4.84-0.1,10.417-0.25,15.126,1.064c1.105,0.047,2.038,0.518,2.792,1.406
			c-0.016,0.373-0.032,0.742-0.047,1.115c0.253,1.324-0.125,3.107-0.178,4.461c-0.102,2.605-0.203,5.209-0.305,7.812
			c-0.025,0.652,0.988,0.744,1.014,0.088c0.131-3.348,0.263-6.695,0.392-10.043c0.051-1.348,0.717-3.906-0.416-5.002
			c-0.641-0.623-2.44-0.689-3.169-0.812c-1.604-0.271-3.218-0.486-4.837-0.648c-3.43-0.342-6.859-0.412-10.301-0.26
			C282.372,198.08,282.284,198.885,282.816,198.875"/>
		<path fill="#2F7A7F" d="M280.632,212.477c3.185,0.389,6.369,0.574,9.533,1.137c3.358,0.596,6.631,1.535,10.062,1.602
			c0.657,0.014,0.754-1.006,0.088-1.027c-6.613-0.207-12.931-2.664-19.622-2.436C280.236,211.766,280.152,212.418,280.632,212.477"
			/>
		<path fill="#2F7A7F" d="M289.538,213.311c-0.575,2.971-0.746,6.047-0.7,9.068c0.007,0.592,0.928,0.682,0.926,0.08
			c-0.017-3.059,0.245-6.041,0.477-9.088C290.275,212.91,289.622,212.873,289.538,213.311"/>
		<path fill="#2F7A7F" d="M290.531,222.625c-1.012-0.904-2.617-0.814-3.583,0.127c-1.04,1.012-0.824,2.654,0.17,3.613
			c1.05,1.012,2.697,0.904,3.63-0.221c0.923-1.115,0.715-3.004-0.641-3.668c-0.357-0.176-0.655,0.33-0.428,0.604
			c0.642,0.77,1.068,1.766,0.238,2.596c-0.728,0.727-1.817,0.555-2.388-0.254c-1.205-1.707,1.098-3.277,2.574-2.193
			C290.497,223.516,290.875,222.932,290.531,222.625"/>
		<path fill="#2F7A7F" d="M286.955,223.352c-6.215-1.129-12.58-1.527-18.888-1.66c-0.246-0.004-0.525,0.166-0.525,0.441
			c-0.004,1.912-0.185,3.738-0.557,5.611c-0.12,0.611,0.849,0.691,0.968,0.084c0.255-1.277-0.019-4.42,1.146-5.145
			c0.412-0.256,2.857,0.098,3.348,0.119c0.928,0.043,1.857,0.09,2.786,0.146c3.9,0.242,7.774,0.709,11.662,1.102
			C287.352,224.096,287.392,223.432,286.955,223.352"/>
		<path fill="#2F7A7F" d="M288.518,226.49c-0.317,1.283-0.504,2.641-0.664,3.949c-0.071,0.584,0.837,0.662,0.909,0.08
			c0.157-1.275,0.464-2.584,0.465-3.869C289.228,226.27,288.626,226.061,288.518,226.49"/>
		<path fill="#2F7A7F" d="M290.935,225.104c3.633,0.459,7.277,0.748,10.902,1.275c1.537,0.225,3.436,0.227,4.875,0.797
			c2.296,0.908,1.659,2.971,1.637,5.039c-0.008,0.662,1.026,0.756,1.032,0.09c0.014-1.234,0.639-4.121-0.009-5.191
			c-0.506-0.838-1.686-0.807-2.571-0.965c-5.184-0.936-10.525-1.736-15.802-1.799C290.517,224.346,290.446,225.043,290.935,225.104"
			/>
		<path fill="#2F7A7F" d="M260.26,227.945c3.766,0.373,7.519,0.703,11.258,1.307c2.871,0.463,2.833,2.205,2.679,4.691
			c-0.129,2.059-0.257,4.115-0.373,6.174c-0.038,0.643,0.96,0.732,1.001,0.086c0.188-2.992,0.376-5.986,0.525-8.98
			c0.055-1.037,0.265-1.68-0.542-2.32c-1.16-0.924-4.439-0.799-5.88-0.982c-2.856-0.365-5.728-0.633-8.608-0.668
			C259.877,227.244,259.808,227.9,260.26,227.945"/>
		<path fill="#2F7A7F" d="M259.276,227.48c-0.338,3.607-0.432,7.232-0.794,10.842c-0.025,0.273,0.188,0.498,0.447,0.531
			c4.979,0.629,9.96,1.277,14.943,1.877c0.66,0.078,0.746-0.945,0.089-1.027c-4.101-0.523-8.65-0.51-12.647-1.545
			c-1.125-0.291-1.476-0.092-1.71-1.377c-0.147-0.812,0.148-1.865,0.204-2.709c0.143-2.17,0.294-4.354,0.221-6.527
			C260.016,227.072,259.323,226.982,259.276,227.48"/>
		<path fill="#2F7A7F" d="M279.814,229.951c5.444,0.793,10.962,1.264,16.428,1.908c0.66,0.078,0.746-0.941,0.09-1.027
			c-5.44-0.711-10.967-1.447-16.447-1.693C279.358,229.115,279.295,229.875,279.814,229.951"/>
		<path fill="#2F7A7F" d="M279.36,229.707c-0.5,3.674-0.697,7.406-1.022,11.102c-0.056,0.639,0.947,0.729,0.996,0.086
			c0.291-3.699,0.715-7.412,0.83-11.119C280.181,229.258,279.431,229.189,279.36,229.707"/>
		<path fill="#2F7A7F" d="M279.012,241.496c5.325,1.191,10.862,1.439,16.292,1.795c0.671,0.043,0.763-0.996,0.089-1.043
			c-5.429-0.354-10.805-0.973-16.218-1.482C278.765,240.727,278.585,241.402,279.012,241.496"/>
		<path fill="#2F7A7F" d="M295.851,231.328c-0.594,3.746-0.7,7.619-0.998,11.398c-0.051,0.641,0.941,0.727,0.992,0.088
			c0.3-3.781,0.805-7.623,0.806-11.416C296.65,230.885,295.934,230.816,295.851,231.328"/>
		<path fill="#2F7A7F" d="M301.342,231.84c5.313,0.736,11.102,1.549,16.466,1.438c0.556-0.012,0.622-0.752,0.074-0.859
			c-5.27-1.01-11.111-1.18-16.472-1.35C300.913,231.053,300.85,231.771,301.342,231.84"/>
		<path fill="#2F7A7F" d="M301.193,231.5c-0.559,3.883-0.546,7.889-0.829,11.801c-0.047,0.67,1.008,0.76,1.037,0.09
			c0.177-3.922,0.658-7.9,0.56-11.824C301.948,231.08,301.265,231,301.193,231.5"/>
		<path fill="#2F7A7F" d="M300.603,243.799c5.53,0.682,11.109,1.152,16.666,1.564c0.642,0.049,0.727-0.924,0.086-0.994
			c-5.539-0.6-11.123-0.996-16.687-1.328C300.18,243.012,300.116,243.738,300.603,243.799"/>
		<path fill="#2F7A7F" d="M317.623,232.92c-0.643,3.902-0.733,7.951-0.845,11.9c-0.019,0.684,1.046,0.779,1.064,0.092
			c0.11-3.977,0.499-7.951,0.578-11.924C318.433,232.471,317.706,232.41,317.623,232.92"/>
	</g>
	<polygon opacity="0.7" fill="#2F7A7F" points="84.922,173.125 87.657,179.142 93.674,181.876 87.657,184.61 84.922,190.627 
		82.188,184.61 76.17,181.876 82.188,179.142 	"/>
	<polygon opacity="0.7" fill="#2F7A7F" points="282.671,258.322 283.76,260.719 286.156,261.807 283.76,262.896 282.671,265.293 
		281.583,262.896 279.187,261.807 281.583,260.719 	"/>
	<polygon opacity="0.7" fill="#2F7A7F" points="273.205,254.115 274.294,256.512 276.69,257.6 274.294,258.689 273.205,261.084 
		272.116,258.689 269.72,257.6 272.116,256.512 	"/>
	<polygon fill="#FFFFFF" points="103.234,162.824 105.025,166.768 108.968,168.559 105.025,170.349 103.234,174.292 
		101.442,170.349 97.498,168.559 101.442,166.768 	"/>
	<polygon fill="#FFFFFF" points="225.244,160.721 227.036,164.664 230.979,166.455 227.036,168.246 225.244,172.189 
		223.453,168.246 219.509,166.455 223.453,164.664 	"/>
	<polygon fill="#FFFFFF" points="214.122,173.342 215.445,176.254 218.357,177.577 215.445,178.899 214.122,181.81 212.801,178.899 
		209.888,177.577 212.801,176.254 	"/>
</g>
</svg>
