<?xml version="1.0" encoding="utf-8"?>
<!-- Generator: Adobe Illustrator 16.0.0, SVG Export Plug-In . SVG Version: 6.00 Build 0)  -->
<!DOCTYPE svg PUBLIC "-//W3C//DTD SVG 1.1//EN" "http://www.w3.org/Graphics/SVG/1.1/DTD/svg11.dtd">
<svg version="1.1" id="Capa_1" xmlns="http://www.w3.org/2000/svg" xmlns:xlink="http://www.w3.org/1999/xlink" x="0px" y="0px"
	 width="390px" height="390px" viewBox="0 0 390 390" enable-background="new 0 0 390 390" xml:space="preserve">
<g>
	<rect x="0.621" y="0.1" fill="#0BB89C" width="390.191" height="390.193"/>
	<path fill="#325562" d="M120.448,90.783c0,1.251,1.018,2.267,2.267,2.267c0.004,0,0.004-0.001,0.007-0.001
		c0.001,0,0.007,0.001,0.007,0.001c1.249,0,2.265-1.016,2.265-2.267c0-0.029-0.003-0.052-0.003-0.077
		c0.042-7.482,6.074-13.548,13.536-13.675c0.077,0.003,0.152,0.013,0.229,0.013c1.251,0,2.267-1.017,2.267-2.268
		c0-0.005,0-0.014,0-0.019c0-0.004,0-0.012,0-0.018c0-1.25-1.016-2.269-2.267-2.269c-0.077,0-0.152,0.011-0.229,0.013
		c-7.462-0.126-13.49-6.194-13.536-13.672c0-0.029,0.003-0.051,0.003-0.079c0-1.251-1.016-2.266-2.265-2.266
		c0,0-0.005,0.001-0.007,0.001c-0.003,0-0.003-0.001-0.007-0.001c-1.249,0-2.267,1.015-2.267,2.266c0,0.028,0.005,0.05,0.005,0.079
		c-0.044,7.478-6.076,13.546-13.536,13.672c-0.075-0.002-0.154-0.013-0.231-0.013c-1.251,0-2.267,1.019-2.267,2.269
		c0,0.005,0.004,0.013,0.004,0.018c0,0.005-0.004,0.013-0.004,0.019c0,1.251,1.016,2.268,2.267,2.268
		c0.077,0,0.156-0.01,0.231-0.013c7.46,0.127,13.49,6.193,13.536,13.675C120.454,90.731,120.448,90.755,120.448,90.783z
		 M115.525,74.757c3.026-1.674,5.524-4.178,7.197-7.204c1.67,3.026,4.172,5.53,7.195,7.204c-3.023,1.677-5.525,4.179-7.195,7.206
		C121.05,78.936,118.552,76.434,115.525,74.757z"/>
	<path fill="#325562" d="M89.223,114.2c0,0.777,0.631,1.409,1.407,1.409c0.003,0,0.003,0,0.005,0c0.002,0,0.005,0,0.005,0
		c0.775,0,1.407-0.631,1.407-1.409c0-0.018-0.002-0.031-0.002-0.048c0.026-4.646,3.772-8.414,8.407-8.493
		c0.047,0.001,0.095,0.008,0.142,0.008c0.777,0,1.409-0.631,1.409-1.409c0-0.003,0-0.009,0-0.011c0-0.004,0-0.008,0-0.012
		c0-0.776-0.632-1.409-1.409-1.409c-0.047,0-0.095,0.006-0.142,0.008c-4.635-0.079-8.379-3.848-8.407-8.492
		c0-0.02,0.002-0.032,0.002-0.05c0-0.777-0.632-1.407-1.407-1.407c0,0-0.003,0.001-0.005,0.001c-0.001,0-0.001-0.001-0.005-0.001
		c-0.776,0-1.407,0.63-1.407,1.407c0,0.019,0.003,0.031,0.003,0.05c-0.026,4.645-3.774,8.413-8.407,8.492
		c-0.047-0.002-0.095-0.008-0.144-0.008c-0.777,0-1.409,0.632-1.409,1.409c0,0.003,0.001,0.008,0.001,0.012
		c0,0.002-0.001,0.008-0.001,0.011c0,0.777,0.631,1.409,1.409,1.409c0.049,0,0.097-0.007,0.144-0.008
		c4.633,0.079,8.379,3.848,8.407,8.493C89.226,114.169,89.223,114.185,89.223,114.2z M86.165,104.247
		c1.879-1.041,3.432-2.595,4.47-4.475c1.039,1.88,2.593,3.435,4.471,4.475c-1.877,1.041-3.432,2.595-4.471,4.476
		C89.596,106.841,88.043,105.288,86.165,104.247z"/>
	<g opacity="0.4">
		<path fill="#B4EFE4" d="M332.309,117.555h-1.884c-0.438,0-0.907-0.335-1.043-0.748l-0.351-0.854
			c-0.2-0.392-0.105-0.957,0.202-1.271l1.331-1.327c0.316-0.303,0.316-0.813,0-1.12l-2.055-2.061c-0.313-0.308-0.817-0.308-1.121,0
			l-1.331,1.329c-0.308,0.309-0.879,0.405-1.271,0.207l-0.851-0.349c-0.414-0.136-0.753-0.606-0.753-1.046v-1.88
			c0-0.433-0.356-0.794-0.798-0.794h-2.907c-0.436,0-0.793,0.359-0.793,0.794v1.88c0,0.437-0.339,0.91-0.757,1.046l-0.847,0.349
			c-0.387,0.198-0.964,0.102-1.269-0.207l-1.328-1.329c-0.309-0.308-0.811-0.308-1.121,0l-2.062,2.061
			c-0.308,0.307-0.308,0.817,0,1.12l1.331,1.327c0.31,0.314,0.402,0.879,0.206,1.271l-0.346,0.854
			c-0.141,0.413-0.609,0.748-1.051,0.748h-1.881c-0.432,0-0.793,0.357-0.793,0.796v2.906c0,0.437,0.357,0.795,0.793,0.795h1.882
			c0.438,0,0.909,0.339,1.052,0.753l0.344,0.853c0.198,0.391,0.106,0.962-0.202,1.272l-1.332,1.328c-0.309,0.31-0.309,0.812,0,1.12
			l2.059,2.06c0.312,0.306,0.813,0.306,1.124,0l1.325-1.333c0.305-0.309,0.882-0.4,1.271-0.207l0.849,0.348
			c0.414,0.142,0.755,0.609,0.755,1.049v1.882c0,0.437,0.354,0.794,0.794,0.794h2.905c0.439,0,0.797-0.353,0.797-0.794v-1.882
			c0-0.438,0.344-0.907,0.755-1.049l0.849-0.348c0.392-0.193,0.965-0.102,1.272,0.207l1.331,1.333c0.306,0.306,0.809,0.306,1.119,0
			l2.059-2.06c0.312-0.309,0.312-0.811,0-1.12l-1.334-1.328c-0.309-0.31-0.396-0.881-0.199-1.272l0.349-0.853
			c0.134-0.415,0.607-0.753,1.041-0.753h1.886c0.434,0,0.791-0.355,0.791-0.795v-2.906
			C333.102,117.914,332.74,117.555,332.309,117.555z M320.937,123.64c-2.118,0-3.835-1.719-3.835-3.835
			c0-2.12,1.717-3.839,3.835-3.839c2.117,0,3.83,1.719,3.83,3.839C324.767,121.921,323.054,123.64,320.937,123.64z"/>
		<path fill="#B4EFE4" d="M95.76,185.679h-1.884c-0.435,0-0.909-0.336-1.042-0.749l-0.351-0.853c-0.198-0.392-0.107-0.958,0.2-1.27
			l1.333-1.328c0.314-0.305,0.314-0.814,0-1.12l-2.054-2.06c-0.314-0.308-0.818-0.308-1.123,0l-1.332,1.328
			c-0.307,0.31-0.879,0.404-1.271,0.208l-0.849-0.351c-0.414-0.137-0.752-0.605-0.752-1.045v-1.88c0-0.436-0.354-0.796-0.798-0.796
			h-2.905c-0.437,0-0.796,0.357-0.796,0.796v1.88c0,0.437-0.34,0.908-0.754,1.045l-0.846,0.351
			c-0.388,0.196-0.967,0.102-1.272-0.208l-1.328-1.328c-0.309-0.308-0.811-0.308-1.12,0l-2.062,2.06
			c-0.307,0.306-0.307,0.815,0,1.12l1.332,1.328c0.309,0.312,0.401,0.878,0.205,1.27l-0.346,0.853
			c-0.14,0.413-0.609,0.749-1.053,0.749h-1.879c-0.432,0-0.795,0.356-0.795,0.795v2.908c0,0.435,0.362,0.794,0.795,0.794h1.882
			c0.439,0,0.909,0.338,1.049,0.754l0.346,0.851c0.198,0.392,0.105,0.962-0.204,1.271l-1.332,1.33c-0.305,0.308-0.305,0.813,0,1.12
			l2.06,2.06c0.311,0.308,0.814,0.308,1.125,0l1.325-1.331c0.305-0.309,0.884-0.4,1.271-0.209l0.849,0.351
			c0.414,0.139,0.752,0.607,0.752,1.046v1.883c0,0.437,0.358,0.793,0.795,0.793h2.905c0.438,0,0.8-0.353,0.8-0.793v-1.883
			c0-0.437,0.342-0.907,0.754-1.046l0.845-0.351c0.393-0.191,0.965-0.1,1.271,0.209l1.333,1.331c0.305,0.308,0.811,0.308,1.123,0
			l2.053-2.06c0.314-0.309,0.314-0.812,0-1.12l-1.332-1.33c-0.305-0.309-0.398-0.879-0.198-1.271l0.349-0.851
			c0.133-0.417,0.605-0.754,1.044-0.754h1.881c0.435,0,0.795-0.354,0.795-0.794v-2.908C96.553,186.04,96.193,185.679,95.76,185.679z
			 M84.386,191.765c-2.116,0-3.835-1.72-3.835-3.835c0-2.121,1.719-3.839,3.835-3.839c2.119,0,3.832,1.718,3.832,3.839
			C88.217,190.045,86.505,191.765,84.386,191.765z"/>
		<path fill="#B4EFE4" d="M319.368,65.489h-3.715c-0.859,0-1.791-0.662-2.056-1.476l-0.691-1.68
			c-0.392-0.774-0.212-1.891,0.395-2.505l2.628-2.619c0.621-0.603,0.621-1.605,0-2.21l-4.051-4.059
			c-0.619-0.609-1.612-0.609-2.214,0l-2.627,2.617c-0.604,0.611-1.733,0.799-2.505,0.411l-1.674-0.691
			c-0.814-0.271-1.482-1.196-1.482-2.062v-3.707c0-0.86-0.7-1.568-1.574-1.568h-5.729c-0.863,0-1.572,0.704-1.572,1.568v3.707
			c0,0.861-0.666,1.791-1.484,2.062l-1.67,0.691c-0.765,0.389-1.907,0.2-2.507-0.411l-2.618-2.617c-0.612-0.609-1.598-0.609-2.209,0
			l-4.064,4.059c-0.605,0.605-0.605,1.608,0,2.21l2.626,2.619c0.607,0.614,0.791,1.731,0.403,2.505l-0.681,1.68
			c-0.277,0.814-1.2,1.476-2.073,1.476h-3.707c-0.852,0-1.565,0.704-1.565,1.569v5.733c0,0.859,0.709,1.565,1.565,1.565h3.712
			c0.867,0,1.791,0.666,2.068,1.488l0.681,1.677c0.392,0.776,0.207,1.899-0.399,2.508l-2.625,2.623
			c-0.604,0.605-0.604,1.603,0,2.207l4.06,4.062c0.614,0.606,1.605,0.606,2.216,0l2.616-2.624c0.599-0.609,1.74-0.789,2.502-0.414
			l1.676,0.692c0.815,0.274,1.484,1.199,1.484,2.065v3.711c0,0.863,0.703,1.564,1.568,1.564h5.728c0.865,0,1.576-0.696,1.576-1.564
			V88.64c0-0.863,0.675-1.791,1.487-2.065l1.667-0.692c0.773-0.375,1.905-0.195,2.509,0.414l2.627,2.624
			c0.604,0.606,1.596,0.606,2.212,0l4.051-4.062c0.619-0.609,0.619-1.601,0-2.207l-2.628-2.623
			c-0.602-0.609-0.782-1.732-0.392-2.508l0.691-1.677c0.262-0.822,1.195-1.488,2.057-1.488h3.709c0.855,0,1.568-0.698,1.568-1.565
			v-5.733C320.931,66.2,320.223,65.489,319.368,65.489z M296.938,77.487c-4.172,0-7.562-3.389-7.562-7.561
			c0-4.183,3.39-7.571,7.562-7.571c4.18,0,7.557,3.389,7.557,7.571C304.495,74.099,301.118,77.487,296.938,77.487z"/>
		<path fill="#B4EFE4" d="M306.36,221.565h-3.714c-0.858,0-1.792-0.661-2.057-1.476l-0.691-1.681
			c-0.391-0.773-0.21-1.892,0.395-2.505l2.629-2.618c0.621-0.604,0.621-1.606,0-2.21l-4.05-4.061c-0.619-0.606-1.612-0.606-2.214,0
			l-2.626,2.618c-0.604,0.61-1.735,0.8-2.506,0.41l-1.676-0.691c-0.813-0.27-1.482-1.194-1.482-2.062v-3.707
			c0-0.859-0.7-1.568-1.573-1.568h-5.73c-0.861,0-1.57,0.705-1.57,1.568v3.707c0,0.861-0.668,1.792-1.485,2.062l-1.671,0.691
			c-0.763,0.39-1.905,0.2-2.505-0.41l-2.619-2.618c-0.611-0.606-1.597-0.606-2.209,0l-4.063,4.061c-0.607,0.604-0.607,1.606,0,2.21
			l2.626,2.618c0.605,0.613,0.792,1.731,0.403,2.505l-0.682,1.681c-0.277,0.814-1.198,1.476-2.072,1.476h-3.707
			c-0.853,0-1.565,0.704-1.565,1.57v5.731c0,0.861,0.709,1.567,1.565,1.567h3.712c0.867,0,1.79,0.665,2.067,1.487l0.682,1.678
			c0.39,0.775,0.207,1.898-0.401,2.507l-2.625,2.623c-0.602,0.606-0.602,1.604,0,2.207l4.061,4.062c0.614,0.605,1.606,0.605,2.218,0
			l2.613-2.625c0.599-0.608,1.741-0.787,2.502-0.414l1.678,0.693c0.815,0.273,1.484,1.198,1.484,2.064v3.711
			c0,0.863,0.703,1.565,1.568,1.565h5.727c0.864,0,1.577-0.698,1.577-1.565v-3.711c0-0.864,0.676-1.791,1.486-2.064l1.668-0.693
			c0.773-0.373,1.903-0.194,2.507,0.414l2.627,2.625c0.605,0.605,1.598,0.605,2.214,0l4.051-4.062c0.618-0.608,0.618-1.601,0-2.207
			l-2.628-2.623c-0.604-0.608-0.784-1.731-0.393-2.507l0.691-1.678c0.263-0.822,1.194-1.487,2.056-1.487h3.709
			c0.858,0,1.568-0.698,1.568-1.567v-5.731C307.924,222.276,307.215,221.565,306.36,221.565z M283.932,233.564
			c-4.172,0-7.561-3.388-7.561-7.562c0-4.183,3.389-7.571,7.561-7.571c4.181,0,7.557,3.389,7.557,7.571
			C291.488,230.177,288.112,233.564,283.932,233.564z"/>
	</g>
	<path fill="#B4EFE4" d="M255.174,124.067c-6.395-10.631-20.902-9.324-30.46-4.046c-11.596,6.417-18.408,19.993-15.364,33.046
		c0.057,0.235,0.17,0.403,0.308,0.53c-1.59,1.429-3.235,2.812-4.99,4.106c-5.097,3.771-10.574,6.593-16.234,9.281
		c0.884-14.764,3.851-29.492,7.201-44.507c13.267-9.142,30.957-18.533,32.666-35.906c1.273-12.924-4.621-32.956-20.54-33.157
		c-13.804-0.172-22.681,15.885-25.757,27.373c-3.812,14.248-1.574,30.755,8.08,42.188c-5.514,18.944-8.997,39.188-7.827,58.726
		c-3.379-0.118-8.114-3.97-10.485-6.219c4.555-10.281,5.779-22.495-1.817-31.741c-6.553-7.966-17.825-9.508-26.682-4.463
		c-9.293,5.284-12.95,16.982-6.392,25.877c6.697,9.078,19.808,14.275,30.998,12.548c0.858,0.811,1.718,1.551,2.518,2.168
		c2.771,2.117,8.059,5.598,12.052,4.714c1.072,12.805,4.208,25.273,10.206,36.812c1.172,2.26,5.005,0.614,4.112-1.805
		c-0.241-0.641-0.472-1.279-0.708-1.914c-0.048-0.127-0.13-0.222-0.193-0.326c-6.395-16.127-8.239-31.826-7.602-47.456
		c7.03-2.239,14.146-5.871,20.485-10.489c0.172,0.402,0.425,0.784,0.883,1.082c10.842,7.08,24.305,5.696,34.459-2.01
		C253.997,150.97,262.387,136.052,255.174,124.067"/>
	<path fill="#7C6453" d="M275.607,275.257c-1.887-12.762-13.327-22.59-26.566-22.59c-0.478,0-0.805,0.042-1.273,0.066
		c0.081-1.081,0.234-2.163,0.234-3.272c0-24.858-20.118-45.014-44.978-45.014c-18.229,0-33.881,10.865-40.951,26.454
		c-2.374-0.442-4.78-0.697-7.275-0.697c-21.983,0-39.793,17.815-39.793,39.793c0,0.916-0.179,1.817-0.114,2.72
		c-0.084,0.258-0.391,0.509-0.391,0.78v1.676c-47,7.828-84.458,22.104-115,40.714V390.5h390v-74.613
		C358.5,297.346,320.703,283.104,275.607,275.257z"/>
</g>
</svg>
