<?xml version="1.0" encoding="utf-8"?>
<!-- Generator: Adobe Illustrator 16.0.0, SVG Export Plug-In . SVG Version: 6.00 Build 0)  -->
<!DOCTYPE svg PUBLIC "-//W3C//DTD SVG 1.1//EN" "http://www.w3.org/Graphics/SVG/1.1/DTD/svg11.dtd">
<svg version="1.1" id="Capa_1" xmlns="http://www.w3.org/2000/svg" xmlns:xlink="http://www.w3.org/1999/xlink" x="0px" y="0px"
	 width="266px" height="200px" viewBox="0 0 266 200" enable-background="new 0 0 266 200" xml:space="preserve">
<g>
	<defs>
		<rect id="SVGID_1_" width="268" height="202"/>
	</defs>
	<clipPath id="SVGID_2_">
		<use xlink:href="#SVGID_1_"  overflow="visible"/>
	</clipPath>
	<g clip-path="url(#SVGID_2_)">
		<rect x="-1.511" y="-2.656" fill="#0BB89C" width="268.348" height="202.355"/>
		<path fill="#325562" d="M88.859,44.372c0,0.648,0.518,1.177,1.153,1.177c0.002,0,0.002-0.002,0.004-0.002
			c0.001,0,0.004,0.002,0.004,0.002c0.635,0,1.151-0.528,1.151-1.177c0-0.015-0.002-0.027-0.002-0.039
			c0.021-3.882,3.088-7.026,6.881-7.093c0.04,0.001,0.078,0.007,0.117,0.007c0.636,0,1.152-0.528,1.152-1.176
			c0-0.003,0-0.006,0-0.009c0-0.003,0-0.006,0-0.009c0-0.649-0.517-1.177-1.152-1.177c-0.04,0-0.078,0.005-0.117,0.007
			c-3.793-0.065-6.858-3.212-6.881-7.09c0-0.015,0.002-0.027,0.002-0.042c0-0.649-0.517-1.174-1.151-1.174
			c0,0-0.003,0.001-0.004,0.001c-0.002,0-0.002-0.001-0.004-0.001c-0.635,0-1.153,0.525-1.153,1.174
			c0,0.015,0.003,0.027,0.003,0.042c-0.022,3.878-3.09,7.025-6.882,7.09c-0.038-0.002-0.079-0.007-0.117-0.007
			c-0.636,0-1.153,0.528-1.153,1.177c0,0.003,0.002,0.006,0.002,0.009c0,0.003-0.002,0.006-0.002,0.009
			c0,0.648,0.517,1.176,1.153,1.176c0.038,0,0.079-0.006,0.117-0.007c3.792,0.066,6.859,3.211,6.882,7.093
			C88.863,44.345,88.859,44.357,88.859,44.372z M86.356,36.062c1.54-0.869,2.809-2.167,3.66-3.736
			c0.849,1.57,2.121,2.868,3.659,3.736c-1.538,0.869-2.81,2.167-3.659,3.737C89.166,38.228,87.896,36.931,86.356,36.062z"/>
		<path fill="#325562" d="M72.983,56.516c0,0.404,0.321,0.732,0.715,0.732c0.002,0,0.002,0,0.002,0c0.002,0,0.003,0,0.003,0
			c0.395,0,0.716-0.328,0.716-0.732c0-0.008-0.002-0.016-0.002-0.023c0.014-2.41,1.918-4.363,4.275-4.407
			c0.024,0.002,0.048,0.005,0.073,0.005c0.394,0,0.716-0.327,0.716-0.73c0-0.002,0-0.005,0-0.006c0-0.002,0-0.004,0-0.006
			c0-0.403-0.322-0.731-0.716-0.731c-0.025,0-0.049,0.003-0.073,0.003c-2.357-0.04-4.261-1.994-4.275-4.404
			c0-0.009,0.002-0.015,0.002-0.024c0-0.405-0.322-0.73-0.716-0.73c0,0-0.001,0-0.002,0c0,0-0.001,0-0.003,0
			c-0.394,0-0.715,0.325-0.715,0.73c0,0.01,0.002,0.016,0.002,0.024c-0.014,2.411-1.919,4.364-4.276,4.404
			c-0.023,0-0.048-0.003-0.073-0.003c-0.395,0-0.715,0.328-0.715,0.731c0,0.002,0,0.004,0,0.006c0,0.001,0,0.004,0,0.006
			c0,0.403,0.321,0.73,0.715,0.73c0.025,0,0.05-0.003,0.073-0.005c2.356,0.043,4.262,1.997,4.276,4.407
			C72.986,56.5,72.983,56.509,72.983,56.516z M71.429,51.355c0.956-0.541,1.745-1.347,2.273-2.32
			c0.527,0.973,1.319,1.779,2.272,2.32c-0.953,0.54-1.745,1.345-2.272,2.32C73.174,52.7,72.384,51.895,71.429,51.355z"/>
		<g opacity="0.4">
			<path fill="#B4EFE4" d="M196.581,58.256h-0.959c-0.222,0-0.46-0.173-0.528-0.388l-0.18-0.443
				c-0.102-0.204-0.053-0.496,0.103-0.658l0.677-0.689c0.161-0.158,0.161-0.421,0-0.583l-1.045-1.067
				c-0.158-0.16-0.415-0.16-0.569,0l-0.677,0.69c-0.156,0.16-0.446,0.209-0.646,0.108l-0.434-0.182
				c-0.21-0.07-0.382-0.315-0.382-0.542v-0.976c0-0.225-0.182-0.412-0.406-0.412h-1.479c-0.221,0-0.402,0.187-0.402,0.412v0.976
				c0,0.227-0.174,0.472-0.386,0.542l-0.431,0.182c-0.195,0.102-0.489,0.052-0.644-0.108l-0.677-0.69c-0.157-0.16-0.41-0.16-0.569,0
				l-1.048,1.067c-0.156,0.161-0.156,0.425,0,0.583l0.676,0.689c0.158,0.162,0.205,0.454,0.105,0.658l-0.176,0.443
				c-0.071,0.214-0.31,0.388-0.534,0.388h-0.956c-0.221,0-0.402,0.186-0.402,0.413v1.508c0,0.227,0.181,0.412,0.402,0.412h0.956
				c0.223,0,0.463,0.176,0.534,0.391l0.176,0.443c0.101,0.202,0.055,0.498-0.104,0.659l-0.677,0.689c-0.157,0.16-0.157,0.422,0,0.58
				l1.047,1.068c0.159,0.161,0.413,0.161,0.571,0l0.675-0.69c0.154-0.159,0.448-0.207,0.645-0.106l0.432,0.18
				c0.21,0.073,0.385,0.316,0.385,0.544v0.976c0,0.226,0.181,0.411,0.403,0.411h1.478c0.223,0,0.405-0.183,0.405-0.411v-0.976
				c0-0.226,0.175-0.471,0.383-0.544l0.433-0.18c0.199-0.101,0.49-0.053,0.646,0.106l0.678,0.69c0.155,0.161,0.412,0.161,0.568,0
				l1.047-1.068c0.159-0.16,0.159-0.42,0-0.58l-0.679-0.689c-0.155-0.161-0.201-0.457-0.101-0.659l0.179-0.443
				c0.067-0.215,0.308-0.391,0.527-0.391h0.96c0.22,0,0.402-0.184,0.402-0.412v-1.508C196.984,58.444,196.8,58.256,196.581,58.256z
				 M190.799,61.412c-1.077,0-1.95-0.891-1.95-1.988c0-1.1,0.873-1.992,1.95-1.992c1.076,0,1.947,0.892,1.947,1.992
				C192.746,60.521,191.875,61.412,190.799,61.412z"/>
			<path fill="#B4EFE4" d="M76.307,93.585h-0.959c-0.221,0-0.46-0.174-0.529-0.387l-0.179-0.443
				c-0.101-0.203-0.054-0.496,0.102-0.658l0.678-0.689c0.161-0.159,0.161-0.422,0-0.581l-1.045-1.068
				c-0.159-0.161-0.415-0.161-0.571,0l-0.676,0.689c-0.156,0.159-0.447,0.209-0.645,0.107l-0.433-0.182
				c-0.21-0.071-0.383-0.314-0.383-0.542v-0.975c0-0.226-0.18-0.412-0.406-0.412h-1.478c-0.221,0-0.404,0.185-0.404,0.412v0.975
				c0,0.227-0.172,0.471-0.384,0.542l-0.43,0.182c-0.197,0.102-0.492,0.052-0.646-0.107l-0.675-0.689
				c-0.158-0.161-0.412-0.161-0.57,0l-1.048,1.068c-0.155,0.158-0.155,0.422,0,0.581l0.678,0.689
				c0.156,0.162,0.204,0.455,0.104,0.658l-0.175,0.443c-0.072,0.213-0.311,0.387-0.535,0.387h-0.956
				c-0.22,0-0.404,0.186-0.404,0.414v1.509c0,0.226,0.183,0.411,0.404,0.411h0.957c0.223,0,0.462,0.174,0.534,0.391l0.175,0.441
				c0.102,0.204,0.054,0.5-0.104,0.66l-0.677,0.69c-0.154,0.159-0.154,0.42,0,0.581l1.047,1.068c0.159,0.159,0.414,0.159,0.573,0
				l0.673-0.691c0.154-0.16,0.448-0.208,0.645-0.108l0.432,0.182c0.21,0.072,0.383,0.316,0.383,0.542v0.977
				c0,0.227,0.183,0.411,0.403,0.411h1.478c0.223,0,0.407-0.183,0.407-0.411v-0.977c0-0.226,0.174-0.471,0.384-0.542l0.431-0.182
				c0.199-0.1,0.49-0.052,0.645,0.108l0.677,0.691c0.155,0.159,0.413,0.159,0.571,0l1.044-1.068c0.161-0.161,0.161-0.422,0-0.581
				l-0.677-0.69c-0.155-0.16-0.202-0.457-0.101-0.66l0.178-0.441c0.068-0.217,0.307-0.391,0.53-0.391h0.957
				c0.221,0,0.404-0.184,0.404-0.411v-1.509C76.71,93.772,76.527,93.585,76.307,93.585z M70.524,96.741
				c-1.076,0-1.95-0.891-1.95-1.988c0-1.101,0.874-1.992,1.95-1.992c1.077,0,1.948,0.892,1.948,1.992
				C72.472,95.85,71.601,96.741,70.524,96.741z"/>
			<path fill="#B4EFE4" d="M190.001,31.254h-1.889c-0.437,0-0.911-0.343-1.046-0.765l-0.351-0.872c-0.2-0.402-0.109-0.981,0.2-1.299
				l1.336-1.358c0.315-0.312,0.315-0.833,0-1.146l-2.06-2.104c-0.314-0.317-0.819-0.317-1.126,0l-1.335,1.357
				c-0.308,0.316-0.882,0.413-1.273,0.213l-0.852-0.359c-0.413-0.139-0.754-0.62-0.754-1.068V21.93c0-0.446-0.355-0.813-0.8-0.813
				h-2.914c-0.438,0-0.8,0.366-0.8,0.813v1.923c0,0.447-0.338,0.93-0.753,1.068l-0.85,0.359c-0.39,0.2-0.969,0.104-1.275-0.213
				l-1.33-1.357c-0.312-0.317-0.812-0.317-1.123,0l-2.067,2.104c-0.308,0.313-0.308,0.834,0,1.146l1.335,1.358
				c0.31,0.317,0.403,0.897,0.206,1.299l-0.347,0.872c-0.14,0.421-0.61,0.765-1.055,0.765h-1.885c-0.433,0-0.797,0.365-0.797,0.814
				v2.972c0,0.446,0.361,0.813,0.797,0.813h1.887c0.442,0,0.913,0.345,1.053,0.772l0.347,0.87c0.199,0.403,0.105,0.985-0.204,1.3
				l-1.334,1.36c-0.308,0.313-0.308,0.832,0,1.145l2.064,2.106c0.312,0.315,0.815,0.315,1.127,0l1.329-1.361
				c0.305-0.314,0.884-0.409,1.272-0.215l0.852,0.359c0.415,0.144,0.754,0.622,0.754,1.072v1.925c0,0.447,0.358,0.809,0.798,0.809
				h2.913c0.439,0,0.801-0.359,0.801-0.809v-1.925c0-0.448,0.344-0.928,0.756-1.072l0.849-0.359c0.393-0.194,0.969-0.1,1.274,0.215
				l1.337,1.361c0.307,0.315,0.811,0.315,1.124,0l2.06-2.106c0.314-0.315,0.314-0.831,0-1.145l-1.336-1.36
				c-0.307-0.315-0.398-0.897-0.199-1.3l0.352-0.87c0.133-0.427,0.608-0.772,1.046-0.772h1.886c0.436,0,0.798-0.362,0.798-0.813
				v-2.972C190.796,31.624,190.436,31.254,190.001,31.254z M178.598,37.478c-2.123,0-3.846-1.758-3.846-3.921
				c0-2.169,1.723-3.927,3.846-3.927c2.124,0,3.841,1.757,3.841,3.927C182.438,35.72,180.722,37.478,178.598,37.478z"/>
			<path fill="#B4EFE4" d="M183.387,112.196h-1.888c-0.437,0-0.911-0.344-1.045-0.767l-0.354-0.87
				c-0.198-0.401-0.105-0.981,0.201-1.3l1.337-1.358c0.315-0.311,0.315-0.831,0-1.146l-2.059-2.104c-0.315-0.315-0.82-0.315-1.127,0
				l-1.333,1.356c-0.31,0.317-0.884,0.415-1.274,0.213l-0.853-0.357c-0.414-0.14-0.754-0.62-0.754-1.07v-1.921
				c0-0.446-0.356-0.813-0.8-0.813h-2.914c-0.438,0-0.797,0.365-0.797,0.813v1.921c0,0.447-0.342,0.931-0.757,1.07l-0.85,0.357
				c-0.388,0.202-0.969,0.104-1.273-0.213l-1.333-1.356c-0.31-0.315-0.811-0.315-1.122,0l-2.067,2.104
				c-0.308,0.314-0.308,0.835,0,1.146l1.337,1.358c0.307,0.318,0.402,0.898,0.205,1.3l-0.347,0.87
				c-0.142,0.423-0.609,0.767-1.053,0.767h-1.887c-0.434,0-0.795,0.364-0.795,0.815v2.972c0,0.446,0.359,0.812,0.795,0.812h1.89
				c0.439,0,0.908,0.344,1.05,0.771l0.347,0.871c0.198,0.402,0.104,0.983-0.204,1.3l-1.336,1.36c-0.305,0.315-0.305,0.831,0,1.145
				l2.065,2.106c0.312,0.313,0.817,0.313,1.128,0l1.329-1.361c0.304-0.315,0.885-0.409,1.271-0.215l0.854,0.36
				c0.415,0.141,0.755,0.621,0.755,1.07v1.925c0,0.447,0.356,0.812,0.796,0.812h2.913c0.439,0,0.802-0.364,0.802-0.812v-1.925
				c0-0.448,0.342-0.93,0.755-1.07l0.85-0.36c0.393-0.194,0.966-0.101,1.274,0.215l1.334,1.361c0.31,0.313,0.814,0.313,1.128,0
				l2.058-2.106c0.314-0.315,0.314-0.829,0-1.145l-1.335-1.36c-0.308-0.316-0.398-0.897-0.201-1.3l0.352-0.871
				c0.134-0.427,0.608-0.771,1.047-0.771h1.885c0.437,0,0.799-0.362,0.799-0.812v-2.972
				C184.183,112.564,183.821,112.196,183.387,112.196z M171.983,118.418c-2.12,0-3.845-1.757-3.845-3.92
				c0-2.17,1.725-3.927,3.845-3.927c2.126,0,3.842,1.757,3.842,3.927C175.825,116.661,174.109,118.418,171.983,118.418z"/>
		</g>
		<path fill="#B4EFE4" d="M166.923,61.633c-3.251-5.513-10.626-4.836-15.487-2.098c-5.896,3.328-9.358,10.368-7.811,17.138
			c0.028,0.121,0.086,0.21,0.155,0.274c-0.809,0.742-1.645,1.459-2.537,2.13c-2.591,1.955-5.376,3.42-8.253,4.813
			c0.448-7.658,1.958-15.295,3.661-23.083c6.745-4.74,15.74-9.61,16.608-18.621c0.648-6.704-2.349-17.091-10.442-17.195
			c-7.02-0.089-11.533,8.238-13.097,14.196c-1.938,7.39-0.8,15.949,4.108,21.88c-2.805,9.824-4.574,20.322-3.98,30.456
			c-1.718-0.062-4.126-2.06-5.331-3.227c2.316-5.332,2.938-11.665-0.923-16.461c-3.332-4.131-9.064-4.93-13.567-2.314
			c-4.725,2.74-6.584,8.806-3.25,13.42c3.406,4.706,10.071,7.403,15.761,6.508c0.437,0.419,0.874,0.803,1.28,1.123
			c1.409,1.099,4.097,2.903,6.128,2.446c0.545,6.64,2.139,13.107,5.188,19.091c0.598,1.173,2.546,0.317,2.092-0.936
			c-0.123-0.333-0.24-0.665-0.36-0.994c-0.024-0.066-0.066-0.114-0.098-0.17c-3.252-8.363-4.189-16.504-3.866-24.608
			c3.574-1.161,7.193-3.046,10.417-5.44c0.086,0.208,0.215,0.406,0.447,0.562c5.513,3.672,12.358,2.952,17.521-1.044
			C166.325,75.585,170.591,67.849,166.923,61.633"/>
		<path fill="#7C6453" d="M188.141,140.041c-1.299-6.618-9.433-11.715-18.536-11.715c-0.33,0-0.688,0.021-1.01,0.034
			c0.055-0.561,0.092-1.122,0.092-1.697c0-12.893-13.867-23.344-30.965-23.344c-12.536,0-23.316,5.635-28.181,13.718
			c-1.633-0.228-3.293-0.359-5.012-0.359c-15.118,0-27.37,9.237-27.37,20.635c0,0.476-0.531,0.944-0.486,1.411
			c-0.059,0.134-0.674,0.264-0.674,0.404v0.87c-31,4.059-57,11.463-78,21.113V200h269v-38.889
			C245,151.496,219.154,144.11,188.141,140.041z"/>
	</g>
</g>
</svg>
