<?xml version="1.0" encoding="utf-8"?>
<!-- Generator: Adobe Illustrator 16.0.0, SVG Export Plug-In . SVG Version: 6.00 Build 0)  -->
<!DOCTYPE svg PUBLIC "-//W3C//DTD SVG 1.1//EN" "http://www.w3.org/Graphics/SVG/1.1/DTD/svg11.dtd">
<svg version="1.1" id="Capa_1" xmlns="http://www.w3.org/2000/svg" xmlns:xlink="http://www.w3.org/1999/xlink" x="0px" y="0px"
	 width="266px" height="200px" viewBox="0 0 266 200" enable-background="new 0 0 266 200" xml:space="preserve">
<g>
	<defs>
		<rect id="SVGID_1_" width="269" height="203"/>
	</defs>
	<clipPath id="SVGID_2_">
		<use xlink:href="#SVGID_1_"  overflow="visible"/>
	</clipPath>
	<g clip-path="url(#SVGID_2_)">
		<rect x="-1.521" y="-2.673" fill="#B8E986" width="270.106" height="203.681"/>
		<path fill="#FFFFFF" d="M89.442,44.663c0,0.652,0.521,1.185,1.16,1.185c0.002,0,0.002-0.002,0.004-0.002
			c0.001,0,0.004,0.002,0.004,0.002c0.64,0,1.16-0.532,1.16-1.185c0-0.015-0.002-0.027-0.002-0.04
			c0.021-3.907,3.108-7.072,6.926-7.139c0.04,0.001,0.078,0.007,0.118,0.007c0.64,0,1.16-0.532,1.16-1.184c0-0.003,0-0.006,0-0.009
			c0-0.003,0-0.006,0-0.009c0-0.653-0.52-1.185-1.16-1.185c-0.04,0-0.078,0.005-0.118,0.007c-3.818-0.066-6.903-3.233-6.926-7.137
			c0-0.015,0.002-0.027,0.002-0.042c0-0.653-0.52-1.182-1.16-1.182c0,0-0.003,0.001-0.004,0.001c-0.002,0-0.002-0.001-0.004-0.001
			c-0.639,0-1.16,0.529-1.16,1.182c0,0.015,0.003,0.027,0.003,0.042c-0.022,3.904-3.11,7.071-6.928,7.137
			c-0.039-0.002-0.08-0.007-0.118-0.007c-0.641,0-1.161,0.531-1.161,1.185c0,0.003,0.002,0.006,0.002,0.009
			c0,0.003-0.002,0.006-0.002,0.009c0,0.652,0.52,1.184,1.161,1.184c0.038,0,0.079-0.006,0.118-0.007
			c3.817,0.066,6.904,3.232,6.928,7.139C89.445,44.636,89.442,44.648,89.442,44.663z M86.923,36.298
			c1.549-0.874,2.827-2.181,3.683-3.761c0.854,1.58,2.135,2.887,3.683,3.761c-1.548,0.875-2.828,2.18-3.683,3.762
			C89.75,38.478,88.472,37.173,86.923,36.298z"/>
		<path fill="#FFFFFF" d="M73.462,56.886c0,0.406,0.323,0.736,0.72,0.736c0.002,0,0.002,0,0.002,0c0.002,0,0.003,0,0.003,0
			c0.397,0,0.721-0.33,0.721-0.736c0-0.008-0.002-0.016-0.002-0.024c0.014-2.425,1.931-4.392,4.304-4.435
			c0.024,0.002,0.048,0.005,0.073,0.005c0.396,0,0.721-0.329,0.721-0.735c0-0.002,0-0.005,0-0.006c0-0.002,0-0.004,0-0.006
			c0-0.405-0.324-0.735-0.721-0.735c-0.025,0-0.049,0.003-0.073,0.003c-2.373-0.04-4.29-2.006-4.304-4.433
			c0-0.009,0.002-0.015,0.002-0.025c0-0.407-0.323-0.734-0.721-0.734c0,0-0.001,0-0.002,0c0,0-0.001,0-0.003,0
			c-0.397,0-0.72,0.327-0.72,0.734c0,0.01,0.002,0.016,0.002,0.025c-0.014,2.427-1.932,4.393-4.304,4.433
			c-0.024,0-0.048-0.003-0.074-0.003c-0.397,0-0.72,0.33-0.72,0.735c0,0.002,0,0.004,0,0.006c0,0.001,0,0.004,0,0.006
			c0,0.406,0.323,0.735,0.72,0.735c0.026,0,0.05-0.003,0.074-0.005c2.372,0.043,4.29,2.01,4.304,4.435
			C73.464,56.871,73.462,56.879,73.462,56.886z M71.896,51.691c0.962-0.544,1.757-1.355,2.288-2.335
			c0.531,0.979,1.327,1.791,2.287,2.335c-0.96,0.543-1.756,1.354-2.287,2.335C73.653,53.045,72.858,52.235,71.896,51.691z"/>
		<g opacity="0.4">
			<path fill="#FFFFFF" d="M197.869,58.637h-0.965c-0.224,0-0.464-0.174-0.533-0.39l-0.18-0.446c-0.103-0.205-0.053-0.5,0.104-0.662
				l0.681-0.693c0.163-0.159,0.163-0.424,0-0.586l-1.051-1.075c-0.16-0.161-0.419-0.161-0.574,0l-0.681,0.695
				c-0.158,0.161-0.449,0.211-0.649,0.109l-0.437-0.184c-0.212-0.07-0.386-0.317-0.386-0.545v-0.982
				c0-0.227-0.181-0.415-0.408-0.415h-1.488c-0.223,0-0.404,0.188-0.404,0.415v0.982c0,0.228-0.175,0.475-0.389,0.545l-0.434,0.184
				c-0.197,0.102-0.493,0.052-0.647-0.109l-0.681-0.695c-0.158-0.161-0.414-0.161-0.574,0l-1.055,1.075
				c-0.157,0.162-0.157,0.427,0,0.586l0.681,0.693c0.158,0.162,0.207,0.457,0.106,0.662l-0.178,0.446
				c-0.071,0.216-0.312,0.39-0.537,0.39h-0.963c-0.222,0-0.405,0.187-0.405,0.416v1.518c0,0.228,0.183,0.415,0.405,0.415h0.963
				c0.224,0,0.466,0.177,0.537,0.394l0.178,0.446c0.102,0.204,0.054,0.501-0.104,0.664l-0.682,0.693
				c-0.158,0.162-0.158,0.425,0,0.584l1.054,1.075c0.16,0.162,0.417,0.162,0.576,0l0.679-0.695c0.154-0.16,0.45-0.208,0.648-0.107
				l0.435,0.181c0.212,0.074,0.388,0.318,0.388,0.548v0.982c0,0.227,0.181,0.414,0.405,0.414h1.487c0.225,0,0.407-0.184,0.407-0.414
				v-0.982c0-0.228,0.177-0.474,0.387-0.548l0.436-0.181c0.2-0.101,0.493-0.053,0.649,0.107l0.682,0.695
				c0.156,0.162,0.415,0.162,0.573,0l1.054-1.075c0.16-0.16,0.16-0.422,0-0.584l-0.684-0.693c-0.156-0.162-0.203-0.459-0.102-0.664
				l0.18-0.446c0.067-0.216,0.31-0.394,0.531-0.394h0.966c0.222,0,0.404-0.185,0.404-0.415v-1.518
				C198.274,58.827,198.09,58.637,197.869,58.637z M192.049,61.814c-1.084,0-1.963-0.897-1.963-2.001
				c0-1.106,0.879-2.005,1.963-2.005c1.083,0,1.96,0.898,1.96,2.005C194.009,60.917,193.132,61.814,192.049,61.814z"/>
			<path fill="#FFFFFF" d="M76.807,94.198h-0.965c-0.222,0-0.463-0.174-0.532-0.39l-0.18-0.446
				c-0.102-0.204-0.054-0.499,0.102-0.662l0.683-0.693c0.161-0.16,0.161-0.425,0-0.585l-1.052-1.075
				c-0.161-0.162-0.418-0.162-0.575,0l-0.681,0.694c-0.157,0.16-0.45,0.21-0.649,0.108l-0.436-0.184
				c-0.211-0.07-0.385-0.316-0.385-0.545v-0.982c0-0.227-0.181-0.414-0.408-0.414h-1.488c-0.222,0-0.407,0.186-0.407,0.414v0.982
				c0,0.228-0.174,0.475-0.387,0.545l-0.432,0.184c-0.199,0.102-0.495,0.052-0.65-0.108l-0.68-0.694
				c-0.159-0.162-0.415-0.162-0.574,0l-1.055,1.075c-0.156,0.16-0.156,0.425,0,0.585l0.683,0.693
				c0.157,0.163,0.206,0.458,0.104,0.662l-0.177,0.446c-0.072,0.215-0.312,0.39-0.539,0.39h-0.961c-0.222,0-0.406,0.187-0.406,0.417
				v1.518c0,0.228,0.183,0.414,0.406,0.414h0.962c0.225,0,0.466,0.175,0.538,0.393l0.177,0.444c0.103,0.205,0.054,0.503-0.104,0.664
				l-0.682,0.695c-0.155,0.159-0.155,0.423,0,0.584l1.054,1.075c0.16,0.16,0.417,0.16,0.577,0l0.678-0.695
				c0.155-0.161,0.451-0.209,0.649-0.109l0.435,0.183c0.211,0.072,0.385,0.318,0.385,0.546v0.983c0,0.229,0.184,0.414,0.406,0.414
				h1.488c0.225,0,0.409-0.184,0.409-0.414v-0.983c0-0.227,0.176-0.474,0.387-0.546l0.433-0.183
				c0.201-0.101,0.493-0.052,0.649,0.109l0.682,0.695c0.156,0.16,0.416,0.16,0.575,0l1.051-1.075c0.161-0.162,0.161-0.425,0-0.584
				l-0.682-0.695c-0.156-0.161-0.204-0.459-0.101-0.664l0.179-0.444c0.069-0.218,0.309-0.393,0.533-0.393h0.963
				c0.222,0,0.407-0.185,0.407-0.414v-1.518C77.213,94.387,77.028,94.198,76.807,94.198z M70.986,97.375
				c-1.083,0-1.962-0.897-1.962-2.001c0-1.108,0.879-2.006,1.962-2.006c1.084,0,1.961,0.898,1.961,2.006
				C72.947,96.478,72.07,97.375,70.986,97.375z"/>
			<path fill="#FFFFFF" d="M191.246,31.459h-1.901c-0.439,0-0.918-0.346-1.053-0.77l-0.353-0.877
				c-0.202-0.405-0.11-0.988,0.201-1.308l1.345-1.367c0.318-0.314,0.318-0.839,0-1.154l-2.073-2.118
				c-0.315-0.319-0.824-0.319-1.133,0l-1.344,1.367c-0.31,0.318-0.888,0.416-1.282,0.214l-0.856-0.361
				c-0.416-0.14-0.759-0.625-0.759-1.076v-1.936c0-0.449-0.358-0.819-0.806-0.819H178.3c-0.441,0-0.805,0.368-0.805,0.819v1.936
				c0,0.45-0.341,0.936-0.758,1.076l-0.856,0.361c-0.392,0.202-0.975,0.104-1.283-0.214l-1.339-1.367
				c-0.313-0.319-0.817-0.319-1.131,0l-2.08,2.118c-0.311,0.315-0.311,0.84,0,1.154l1.343,1.367
				c0.312,0.319,0.406,0.903,0.208,1.308l-0.349,0.877c-0.142,0.424-0.615,0.77-1.062,0.77h-1.897c-0.436,0-0.802,0.368-0.802,0.819
				v2.991c0,0.449,0.363,0.818,0.802,0.818h1.899c0.444,0,0.918,0.347,1.06,0.777l0.349,0.875c0.2,0.405,0.106,0.991-0.206,1.309
				l-1.342,1.369c-0.311,0.315-0.311,0.836,0,1.152l2.077,2.12c0.314,0.317,0.821,0.317,1.135,0l1.338-1.371
				c0.307-0.316,0.89-0.412,1.28-0.216l0.858,0.361c0.417,0.145,0.759,0.626,0.759,1.079v1.938c0,0.449,0.36,0.814,0.803,0.814
				h2.932c0.442,0,0.807-0.361,0.807-0.814v-1.938c0-0.451,0.346-0.934,0.761-1.079l0.854-0.361c0.396-0.195,0.976-0.1,1.283,0.216
				l1.346,1.371c0.31,0.317,0.816,0.317,1.131,0l2.073-2.12c0.317-0.318,0.317-0.837,0-1.152l-1.345-1.369
				c-0.309-0.318-0.401-0.904-0.2-1.309l0.354-0.875c0.133-0.431,0.612-0.777,1.053-0.777h1.898c0.438,0,0.803-0.364,0.803-0.818
				v-2.991C192.045,31.831,191.684,31.459,191.246,31.459z M179.768,37.723c-2.137,0-3.87-1.769-3.87-3.946
				c0-2.184,1.733-3.953,3.87-3.953c2.138,0,3.866,1.77,3.866,3.953C183.634,35.954,181.905,37.723,179.768,37.723z"/>
			<path fill="#FFFFFF" d="M184.588,112.932h-1.9c-0.438,0-0.916-0.346-1.051-0.771l-0.355-0.877
				c-0.199-0.403-0.106-0.987,0.202-1.308l1.346-1.367c0.317-0.312,0.317-0.837,0-1.153l-2.073-2.118
				c-0.316-0.317-0.824-0.317-1.133,0l-1.343,1.365c-0.311,0.319-0.889,0.419-1.282,0.215l-0.858-0.36
				c-0.417-0.141-0.759-0.624-0.759-1.077v-1.934c0-0.449-0.358-0.818-0.805-0.818h-2.934c-0.441,0-0.802,0.367-0.802,0.818v1.934
				c0,0.45-0.343,0.937-0.762,1.077l-0.855,0.36c-0.39,0.204-0.976,0.104-1.281-0.215l-1.342-1.365c-0.312-0.317-0.816-0.317-1.13,0
				l-2.08,2.118c-0.31,0.316-0.31,0.841,0,1.153l1.345,1.367c0.31,0.32,0.405,0.904,0.206,1.308l-0.349,0.877
				c-0.143,0.426-0.613,0.771-1.061,0.771h-1.897c-0.437,0-0.801,0.367-0.801,0.82v2.991c0,0.449,0.362,0.818,0.801,0.818h1.9
				c0.443,0,0.915,0.346,1.058,0.775l0.349,0.877c0.2,0.404,0.106,0.99-0.205,1.308l-1.344,1.37c-0.307,0.316-0.307,0.836,0,1.151
				l2.078,2.12c0.314,0.316,0.823,0.316,1.136,0l1.338-1.369c0.305-0.318,0.891-0.412,1.279-0.217l0.859,0.362
				c0.418,0.142,0.76,0.626,0.76,1.077v1.938c0,0.451,0.358,0.817,0.801,0.817h2.933c0.441,0,0.807-0.366,0.807-0.817v-1.938
				c0-0.45,0.344-0.936,0.761-1.077l0.854-0.362c0.396-0.195,0.973-0.102,1.282,0.217l1.344,1.369c0.311,0.316,0.818,0.316,1.135,0
				l2.071-2.12c0.316-0.317,0.316-0.835,0-1.151l-1.344-1.37c-0.31-0.317-0.401-0.903-0.202-1.308l0.354-0.877
				c0.135-0.43,0.612-0.775,1.053-0.775h1.897c0.439,0,0.805-0.364,0.805-0.818v-2.991
				C185.39,113.303,185.025,112.932,184.588,112.932z M173.109,119.194c-2.133,0-3.869-1.769-3.869-3.946
				c0-2.184,1.736-3.953,3.869-3.953c2.141,0,3.868,1.77,3.868,3.953C176.978,117.426,175.25,119.194,173.109,119.194z"/>
		</g>
		<path fill="#88B753" d="M168.017,62.037c-3.271-5.549-10.695-4.868-15.589-2.112c-5.935,3.349-9.42,10.436-7.862,17.25
			c0.028,0.122,0.088,0.211,0.157,0.276c-0.813,0.747-1.655,1.469-2.555,2.144c-2.607,1.968-5.41,3.442-8.307,4.845
			c0.451-7.708,1.971-15.395,3.685-23.234c6.789-4.771,15.843-9.673,16.718-18.743c0.652-6.748-2.365-17.203-10.512-17.308
			c-7.066-0.09-11.608,8.292-13.182,14.289c-1.951,7.438-0.806,16.054,4.135,22.024c-2.823,9.888-4.604,20.455-4.006,30.655
			c-1.73-0.063-4.154-2.073-5.366-3.248c2.331-5.367,2.958-11.742-0.93-16.568c-3.354-4.158-9.124-4.963-13.656-2.33
			c-4.755,2.758-6.627,8.864-3.271,13.508c3.428,4.737,10.138,7.451,15.864,6.55c0.439,0.422,0.88,0.808,1.289,1.131
			c1.418,1.106,4.124,2.922,6.168,2.461c0.548,6.684,2.153,13.193,5.223,19.216c0.6,1.181,2.561,0.319,2.104-0.941
			c-0.123-0.335-0.241-0.67-0.362-1c-0.023-0.066-0.066-0.116-0.098-0.172c-3.274-8.418-4.217-16.612-3.891-24.77
			c3.597-1.168,7.239-3.065,10.484-5.476c0.087,0.209,0.217,0.408,0.451,0.565c5.549,3.695,12.438,2.971,17.636-1.051
			C167.416,76.081,171.709,68.293,168.017,62.037"/>
		<path fill="#7C6453" d="M188.998,140.958c-1.307-6.661-9.307-11.791-18.469-11.791c-0.333,0-0.601,0.021-0.924,0.035
			c0.055-0.565,0.139-1.131,0.139-1.709c0-12.977-13.935-23.497-31.145-23.497c-12.617,0-23.457,5.672-28.353,13.809
			c-1.644-0.229-3.308-0.363-5.039-0.363c-15.217,0-27.546,9.299-27.546,20.771c0,0.479-0.781,0.951-0.736,1.421
			c-0.059,0.134-0.926,0.265-0.926,0.406v0.876C45,145,19,152.453-2,162.167V201h270v-38.833
			C247,152.488,220.217,145.055,188.998,140.958z"/>
	</g>
</g>
</svg>
