<?xml version="1.0" encoding="utf-8"?>
<!-- Generator: Adobe Illustrator 16.0.0, SVG Export Plug-In . SVG Version: 6.00 Build 0)  -->
<!DOCTYPE svg PUBLIC "-//W3C//DTD SVG 1.1//EN" "http://www.w3.org/Graphics/SVG/1.1/DTD/svg11.dtd">
<svg version="1.1" id="Capa_1" xmlns="http://www.w3.org/2000/svg" xmlns:xlink="http://www.w3.org/1999/xlink" x="0px" y="0px"
	 width="390px" height="390px" viewBox="0 0 390 390" enable-background="new 0 0 390 390" xml:space="preserve">
<rect x="-3.616" y="-4.9" fill="#80AEE5" width="398.787" height="398.787"/>
<path fill="#B5F0FF" d="M256.545,121.798c-6.537-10.865-21.364-9.53-31.131-4.135c-11.853,6.558-18.813,20.433-15.704,33.774
	c0.058,0.24,0.174,0.412,0.315,0.542c-1.626,1.46-3.307,2.874-5.102,4.197c-5.209,3.854-10.805,6.738-16.591,9.485
	c0.906-15.09,3.936-30.142,7.361-45.488c13.558-9.343,31.639-18.941,33.384-36.697c1.302-13.209-4.722-33.681-20.992-33.887
	c-14.106-0.176-23.181,16.235-26.322,27.976c-3.896,14.562-1.61,31.433,8.257,43.117c-5.638,19.362-9.197,40.051-7.999,60.02
	c-3.456-0.121-8.293-4.058-10.717-6.356c4.655-10.508,5.906-22.99-1.858-32.44c-6.695-8.142-18.216-9.718-27.268-4.562
	c-9.5,5.401-13.235,17.356-6.534,26.447c6.844,9.277,20.246,14.589,31.682,12.824c0.876,0.828,1.755,1.585,2.571,2.216
	c2.831,2.163,8.235,5.721,12.316,4.818c1.096,13.087,4.302,25.83,10.43,37.623c1.198,2.31,5.118,0.628,4.203-1.845
	c-0.245-0.654-0.48-1.307-0.725-1.956c-0.048-0.129-0.131-0.226-0.197-0.334c-6.534-16.481-8.418-32.526-7.769-48.5
	c7.187-2.288,14.458-6,20.936-10.72c0.176,0.412,0.435,0.802,0.904,1.106c11.081,7.236,24.838,5.821,35.218-2.054
	C255.34,149.293,263.915,134.046,256.545,121.798"/>
<path fill="#7C6453" d="M277.264,276.317c-1.928-13.043-13.537-23.088-27.072-23.088c-0.486,0-0.778,0.043-1.257,0.068
	c0.081-1.104,0.259-2.211,0.259-3.345c0-25.406-20.552-46.005-45.96-46.005c-18.626,0-34.619,11.104-41.847,27.036
	c-2.424-0.452-4.883-0.712-7.433-0.712c-22.464,0-40.666,18.207-40.666,40.669c0,0.937,0.179,1.857,0.245,2.779
	c-0.086,0.264-0.033,0.521-0.033,0.798v1.713c-48,8-88.622,22.591-118,41.61V394.5h398v-76.658
	C362.5,298.893,323.354,284.338,277.264,276.317z"/>
<path fill="#B5F0FF" d="M118.852,87.78c0,1.279,1.038,2.317,2.315,2.317c0.003,0,0.003-0.002,0.009-0.002l0.005,0.002
	c1.279,0,2.317-1.038,2.317-2.317c0-0.029-0.004-0.053-0.004-0.079c0.043-7.646,6.208-13.846,13.832-13.977
	c0.079,0.003,0.158,0.014,0.235,0.014c1.279,0,2.319-1.039,2.319-2.318c0-0.005,0-0.014,0-0.019c0-0.004,0-0.012,0-0.018
	c0-1.277-1.04-2.318-2.319-2.318c-0.077,0-0.156,0.012-0.235,0.014c-7.624-0.129-13.785-6.331-13.832-13.974
	c0-0.03,0.004-0.052,0.004-0.081c0-1.279-1.038-2.316-2.317-2.316l-0.005,0.002c-0.005,0-0.005-0.002-0.009-0.002
	c-1.277,0-2.315,1.037-2.315,2.316c0,0.029,0.005,0.051,0.005,0.081c-0.045,7.643-6.211,13.845-13.833,13.974
	c-0.077-0.002-0.158-0.014-0.239-0.014c-1.276,0-2.316,1.041-2.316,2.318c0,0.006,0.003,0.014,0.003,0.018
	c0,0.005-0.003,0.014-0.003,0.019c0,1.279,1.04,2.318,2.316,2.318c0.081,0,0.162-0.011,0.239-0.014
	c7.622,0.13,13.787,6.33,13.833,13.977C118.857,87.727,118.852,87.752,118.852,87.78z M113.819,71.401
	c3.093-1.71,5.646-4.269,7.357-7.362c1.707,3.093,4.264,5.652,7.354,7.362c-3.089,1.714-5.646,4.271-7.354,7.364
	C119.465,75.672,116.912,73.115,113.819,71.401z"/>
<path fill="#B5F0FF" d="M86.938,111.713c0,0.794,0.646,1.44,1.438,1.44c0.001,0,0.001-0.001,0.005-0.001l0.004,0.001
	c0.792,0,1.44-0.646,1.44-1.44c0-0.018-0.004-0.032-0.004-0.049c0.027-4.748,3.857-8.6,8.593-8.681
	c0.05,0.001,0.099,0.008,0.145,0.008c0.796,0,1.44-0.646,1.44-1.44c0-0.003,0-0.009,0-0.012c0-0.003,0-0.008,0-0.012
	c0-0.793-0.644-1.439-1.44-1.439c-0.046,0-0.095,0.006-0.145,0.008c-4.736-0.081-8.564-3.932-8.593-8.679
	c0-0.02,0.004-0.033,0.004-0.051c0-0.794-0.647-1.438-1.44-1.438l-0.004,0.001c-0.003,0-0.003-0.001-0.005-0.001
	c-0.793,0-1.438,0.644-1.438,1.438c0,0.019,0.004,0.031,0.004,0.051c-0.027,4.747-3.859,8.599-8.593,8.679
	c-0.048-0.002-0.099-0.008-0.148-0.008c-0.794,0-1.438,0.646-1.438,1.439c0,0.004,0.002,0.008,0.002,0.012
	c0,0.003-0.002,0.008-0.002,0.012c0,0.794,0.644,1.44,1.438,1.44c0.05,0,0.1-0.007,0.148-0.008c4.734,0.081,8.562,3.933,8.593,8.681
	C86.942,111.681,86.938,111.697,86.938,111.713z M83.813,101.54c1.92-1.063,3.507-2.652,4.568-4.573
	c1.06,1.921,2.648,3.51,4.569,4.573c-1.92,1.064-3.509,2.652-4.569,4.574C87.32,104.192,85.734,102.604,83.813,101.54z"/>
<g opacity="0.4">
	<path fill="#B5F0FF" d="M335.377,115.142h-1.924c-0.448,0-0.93-0.342-1.067-0.765l-0.356-0.873c-0.205-0.4-0.107-0.978,0.206-1.299
		l1.359-1.356c0.322-0.31,0.322-0.831,0-1.145l-2.099-2.106c-0.322-0.315-0.835-0.315-1.146,0l-1.362,1.358
		c-0.312,0.315-0.898,0.414-1.299,0.211l-0.867-0.357c-0.426-0.139-0.77-0.62-0.77-1.068v-1.921c0-0.443-0.366-0.812-0.817-0.812
		h-2.97c-0.446,0-0.812,0.368-0.812,0.812v1.921c0,0.446-0.346,0.93-0.772,1.068l-0.864,0.357c-0.395,0.203-0.986,0.104-1.299-0.211
		l-1.355-1.358c-0.317-0.315-0.83-0.315-1.146,0l-2.106,2.106c-0.316,0.314-0.316,0.835,0,1.145l1.358,1.356
		c0.317,0.321,0.413,0.898,0.212,1.299l-0.354,0.873c-0.145,0.422-0.624,0.765-1.075,0.765h-1.921c-0.44,0-0.812,0.365-0.812,0.814
		v2.97c0,0.447,0.368,0.812,0.812,0.812h1.923c0.448,0,0.929,0.346,1.073,0.77l0.354,0.872c0.201,0.4,0.107,0.983-0.208,1.3
		l-1.359,1.357c-0.315,0.316-0.315,0.83,0,1.145l2.104,2.105c0.319,0.313,0.832,0.313,1.147,0l1.354-1.362
		c0.312-0.315,0.904-0.409,1.299-0.211l0.868,0.355c0.425,0.145,0.771,0.623,0.771,1.072v1.923c0,0.447,0.364,0.812,0.812,0.812
		h2.971c0.447,0,0.814-0.36,0.814-0.812v-1.923c0-0.447,0.352-0.927,0.771-1.072l0.866-0.355c0.4-0.197,0.986-0.104,1.301,0.211
		l1.36,1.362c0.312,0.313,0.827,0.313,1.146,0l2.102-2.105c0.319-0.316,0.319-0.829,0-1.145l-1.362-1.357
		c-0.313-0.316-0.405-0.9-0.204-1.3l0.356-0.872c0.136-0.424,0.62-0.77,1.065-0.77h1.926c0.442,0,0.811-0.363,0.811-0.812v-2.97
		C336.188,115.508,335.819,115.142,335.377,115.142z M323.754,121.361c-2.164,0-3.92-1.757-3.92-3.919
		c0-2.167,1.756-3.924,3.92-3.924c2.166,0,3.916,1.757,3.916,3.924C327.67,119.604,325.92,121.361,323.754,121.361z"/>
	<path fill="#B5F0FF" d="M93.618,184.767h-1.924c-0.446,0-0.929-0.344-1.067-0.765l-0.358-0.872
		c-0.201-0.401-0.108-0.98,0.206-1.298l1.361-1.357c0.323-0.312,0.323-0.832,0-1.145l-2.098-2.105c-0.321-0.314-0.837-0.314-1.148,0
		l-1.362,1.357c-0.312,0.316-0.898,0.414-1.298,0.212l-0.868-0.358c-0.422-0.14-0.77-0.619-0.77-1.068v-1.921
		c0-0.445-0.362-0.813-0.814-0.813h-2.971c-0.446,0-0.814,0.365-0.814,0.813v1.921c0,0.446-0.346,0.928-0.77,1.068l-0.866,0.358
		c-0.396,0.201-0.988,0.104-1.298-0.212l-1.357-1.357c-0.317-0.314-0.829-0.314-1.146,0l-2.106,2.105
		c-0.314,0.312-0.314,0.833,0,1.145l1.362,1.357c0.314,0.318,0.411,0.897,0.208,1.298l-0.353,0.872
		c-0.144,0.421-0.621,0.765-1.074,0.765h-1.92c-0.443,0-0.812,0.364-0.812,0.813v2.972c0,0.444,0.368,0.812,0.812,0.812h1.922
		c0.45,0,0.929,0.345,1.072,0.771l0.353,0.87c0.203,0.4,0.109,0.983-0.206,1.299l-1.361,1.359c-0.314,0.314-0.314,0.831,0,1.145
		l2.103,2.105c0.319,0.313,0.832,0.313,1.149,0l1.356-1.361c0.31-0.315,0.902-0.409,1.296-0.213l0.868,0.358
		c0.423,0.142,0.771,0.62,0.771,1.068v1.924c0,0.447,0.364,0.811,0.812,0.811h2.969c0.446,0,0.816-0.36,0.816-0.811v-1.924
		c0-0.446,0.352-0.927,0.771-1.068l0.864-0.358c0.402-0.196,0.986-0.103,1.3,0.213l1.361,1.361c0.314,0.313,0.829,0.313,1.148,0
		l2.1-2.105c0.321-0.315,0.321-0.83,0-1.145l-1.361-1.359c-0.314-0.315-0.407-0.898-0.205-1.299l0.359-0.87
		c0.136-0.426,0.618-0.771,1.065-0.771h1.922c0.444,0,0.814-0.362,0.814-0.812v-2.972C94.428,185.135,94.061,184.767,93.618,184.767
		z M81.993,190.986c-2.162,0-3.918-1.757-3.918-3.92c0-2.167,1.756-3.924,3.918-3.924c2.168,0,3.916,1.756,3.916,3.924
		C85.909,189.229,84.161,190.986,81.993,190.986z"/>
	<path fill="#B5F0FF" d="M322.15,61.929h-3.796c-0.876,0-1.83-0.677-2.101-1.509l-0.707-1.717c-0.399-0.791-0.215-1.933,0.403-2.561
		l2.687-2.676c0.635-0.616,0.635-1.641,0-2.259l-4.139-4.148c-0.633-0.623-1.648-0.623-2.263,0l-2.687,2.675
		c-0.615,0.624-1.771,0.816-2.559,0.419l-1.712-0.707c-0.832-0.276-1.516-1.222-1.516-2.107v-3.788c0-0.879-0.716-1.604-1.608-1.604
		h-5.856c-0.88,0-1.604,0.719-1.604,1.604v3.788c0,0.88-0.684,1.831-1.519,2.107l-1.707,0.707c-0.78,0.397-1.947,0.205-2.562-0.419
		l-2.676-2.675c-0.624-0.623-1.633-0.623-2.257,0l-4.153,4.148c-0.62,0.619-0.62,1.644,0,2.259l2.685,2.676
		c0.618,0.628,0.809,1.77,0.412,2.561l-0.697,1.717c-0.283,0.832-1.225,1.509-2.117,1.509h-3.791c-0.87,0-1.598,0.719-1.598,1.604
		v5.859c0,0.879,0.725,1.601,1.598,1.601h3.796c0.884,0,1.829,0.681,2.112,1.521l0.697,1.714c0.398,0.792,0.212,1.941-0.41,2.563
		l-2.683,2.681c-0.615,0.619-0.615,1.638,0,2.255l4.149,4.151c0.627,0.62,1.641,0.62,2.267,0l2.671-2.681
		c0.612-0.623,1.779-0.806,2.558-0.423l1.712,0.708c0.836,0.28,1.519,1.226,1.519,2.11v3.792c0,0.882,0.72,1.598,1.604,1.598h5.853
		c0.884,0,1.61-0.711,1.61-1.598V85.59c0-0.882,0.692-1.83,1.521-2.11l1.705-0.708c0.791-0.383,1.945-0.199,2.562,0.423l2.685,2.681
		c0.618,0.62,1.633,0.62,2.263,0l4.14-4.151c0.632-0.622,0.632-1.636,0-2.255l-2.686-2.681c-0.617-0.622-0.802-1.771-0.401-2.563
		l0.706-1.714c0.269-0.84,1.221-1.521,2.102-1.521h3.79c0.877,0,1.604-0.714,1.604-1.601v-5.859
		C323.748,62.656,323.024,61.929,322.15,61.929z M299.229,74.192c-4.265,0-7.729-3.463-7.729-7.727c0-4.275,3.464-7.738,7.729-7.738
		c4.272,0,7.723,3.463,7.723,7.738C306.951,70.729,303.501,74.192,299.229,74.192z"/>
	<path fill="#B5F0FF" d="M308.858,221.443h-3.796c-0.879,0-1.83-0.676-2.102-1.508l-0.706-1.718c-0.4-0.791-0.216-1.934,0.403-2.561
		l2.686-2.676c0.635-0.616,0.635-1.643,0-2.259l-4.14-4.149c-0.631-0.62-1.646-0.62-2.263,0l-2.685,2.675
		c-0.617,0.624-1.771,0.818-2.559,0.42l-1.714-0.706c-0.832-0.276-1.514-1.222-1.514-2.107v-3.789c0-0.878-0.716-1.603-1.608-1.603
		h-5.856c-0.882,0-1.606,0.721-1.606,1.603v3.789c0,0.881-0.684,1.831-1.517,2.107l-1.707,0.706
		c-0.782,0.398-1.949,0.204-2.562-0.42l-2.676-2.675c-0.624-0.62-1.633-0.62-2.257,0l-4.155,4.149c-0.618,0.616-0.618,1.643,0,2.259
		l2.685,2.676c0.62,0.627,0.809,1.77,0.414,2.561l-0.697,1.718c-0.283,0.832-1.227,1.508-2.12,1.508h-3.788
		c-0.87,0-1.6,0.719-1.6,1.604v5.858c0,0.88,0.725,1.602,1.6,1.602h3.794c0.886,0,1.831,0.679,2.114,1.52l0.697,1.715
		c0.398,0.792,0.212,1.94-0.41,2.562l-2.683,2.681c-0.617,0.62-0.617,1.639,0,2.255l4.149,4.151c0.625,0.619,1.641,0.619,2.265,0
		l2.673-2.683c0.611-0.622,1.779-0.805,2.558-0.423l1.712,0.708c0.836,0.28,1.517,1.225,1.517,2.11v3.793
		c0,0.882,0.72,1.6,1.604,1.6h5.854c0.884,0,1.61-0.714,1.61-1.6v-3.793c0-0.884,0.69-1.83,1.521-2.11l1.705-0.708
		c0.789-0.382,1.945-0.199,2.562,0.423l2.684,2.683c0.617,0.619,1.632,0.619,2.264,0l4.138-4.151c0.633-0.622,0.633-1.635,0-2.255
		l-2.686-2.681c-0.617-0.622-0.8-1.771-0.4-2.562l0.707-1.715c0.267-0.841,1.221-1.52,2.102-1.52h3.79
		c0.875,0,1.604-0.714,1.604-1.602v-5.858C310.456,222.17,309.732,221.443,308.858,221.443z M285.936,233.706
		c-4.264,0-7.728-3.462-7.728-7.729c0-4.274,3.464-7.736,7.728-7.736c4.273,0,7.723,3.462,7.723,7.736
		C293.658,230.244,290.209,233.706,285.936,233.706z"/>
</g>
</svg>
