<?xml version="1.0" encoding="utf-8"?>
<!-- Generator: Adobe Illustrator 16.0.0, SVG Export Plug-In . SVG Version: 6.00 Build 0)  -->
<!DOCTYPE svg PUBLIC "-//W3C//DTD SVG 1.1//EN" "http://www.w3.org/Graphics/SVG/1.1/DTD/svg11.dtd">
<svg version="1.1" id="Capa_1" xmlns="http://www.w3.org/2000/svg" xmlns:xlink="http://www.w3.org/1999/xlink" x="0px" y="0px"
	 width="390px" height="390px" viewBox="0 0 390 390" enable-background="new 0 0 390 390" xml:space="preserve">
<rect x="-0.023" opacity="0.7" fill="#844A79" width="390.266" height="390.266"/>
<path opacity="0.7" fill="#EACCE8" d="M254.577,123.991c-6.396-10.633-20.907-9.326-30.466-4.046
	c-11.598,6.418-18.41,19.997-15.368,33.052c0.057,0.235,0.171,0.403,0.308,0.53c-1.59,1.429-3.235,2.812-4.99,4.107
	c-5.098,3.772-10.575,6.595-16.237,9.283c0.886-14.767,3.852-29.498,7.203-44.516c13.268-9.144,30.961-18.537,32.67-35.913
	c1.274-12.926-4.623-32.961-20.543-33.162c-13.805-0.172-22.686,15.888-25.762,27.378c-3.811,14.251-1.574,30.761,8.081,42.196
	c-5.515,18.949-8.998,39.195-7.828,58.737c-3.38-0.119-8.114-3.971-10.487-6.221c4.555-10.283,5.781-22.498-1.818-31.746
	c-6.552-7.967-17.827-9.51-26.687-4.464c-9.295,5.286-12.95,16.985-6.393,25.882c6.698,9.079,19.813,14.278,31.005,12.55
	c0.856,0.811,1.716,1.551,2.516,2.169c2.77,2.118,8.06,5.599,12.053,4.716c1.073,12.807,4.21,25.278,10.207,36.819
	c1.173,2.261,5.009,0.614,4.114-1.806c-0.24-0.641-0.471-1.28-0.709-1.915c-0.047-0.127-0.129-0.221-0.193-0.326
	c-6.395-16.13-8.24-31.832-7.604-47.464c7.032-2.239,14.148-5.872,20.488-10.491c0.172,0.403,0.425,0.785,0.884,1.083
	c10.844,7.081,24.308,5.697,34.467-2.01C253.399,150.898,261.791,135.978,254.577,123.991"/>
<path fill="#7C6453" d="M275.301,275.209c-1.887-12.765-13.47-22.595-26.717-22.595c-0.476,0-0.874,0.042-1.345,0.066
	c0.081-1.081,0.201-2.163,0.201-3.271c0-24.864-20.144-45.022-45.006-45.022c-18.23,0-33.896,10.866-40.967,26.457
	c-2.373-0.441-4.786-0.695-7.281-0.695c-21.984,0-39.799,17.817-39.799,39.799c0,0.916-0.874,1.818-0.809,2.722
	c-0.084,0.258-1.078,0.509-1.078,0.78v1.676c-44,7.829-83,22.108-115,40.722V390.5h392v-74.653
	C359.5,297.301,320.406,283.058,275.301,275.209z"/>
<path opacity="0.7" fill="#844A79" d="M119.827,90.701c0,1.25,1.016,2.266,2.266,2.266c0.004,0,0.004-0.002,0.007-0.002
	c0.001,0,0.007,0.002,0.007,0.002c1.249,0,2.265-1.016,2.265-2.266c0-0.03-0.003-0.053-0.003-0.078
	c0.042-7.483,6.076-13.551,13.538-13.678c0.078,0.002,0.153,0.013,0.23,0.013c1.251,0,2.268-1.017,2.268-2.269
	c0-0.005,0-0.013,0-0.019c0-0.005,0-0.012,0-0.017c0-1.251-1.016-2.27-2.268-2.27c-0.077,0-0.152,0.012-0.23,0.014
	c-7.462-0.126-13.492-6.196-13.538-13.675c0-0.029,0.003-0.051,0.003-0.079c0-1.251-1.016-2.266-2.265-2.266
	c0,0-0.005,0.001-0.007,0.001c-0.003,0-0.003-0.001-0.007-0.001c-1.25,0-2.266,1.015-2.266,2.266c0,0.028,0.004,0.05,0.004,0.079
	c-0.042,7.479-6.077,13.549-13.536,13.675c-0.077-0.002-0.155-0.014-0.234-0.014c-1.251,0-2.267,1.019-2.267,2.27
	c0,0.005,0.004,0.012,0.004,0.017c0,0.005-0.004,0.013-0.004,0.019c0,1.252,1.016,2.269,2.267,2.269
	c0.079,0,0.157-0.011,0.234-0.013c7.459,0.127,13.49,6.194,13.536,13.678C119.831,90.648,119.827,90.673,119.827,90.701z
	 M114.902,74.671c3.027-1.674,5.526-4.178,7.198-7.205c1.67,3.027,4.174,5.531,7.198,7.205c-3.023,1.678-5.527,4.18-7.198,7.207
	C120.428,78.851,117.929,76.349,114.902,74.671z"/>
<path opacity="0.7" fill="#844A79" d="M88.596,114.122c0,0.778,0.63,1.409,1.407,1.409c0.002,0,0.002,0,0.006,0l0.003,0
	c0.776,0,1.41-0.631,1.41-1.409c0-0.017-0.003-0.031-0.003-0.048c0.026-4.646,3.773-8.415,8.409-8.494
	c0.049,0.001,0.094,0.008,0.142,0.008c0.777,0,1.409-0.631,1.409-1.409c0-0.004,0-0.009,0-0.012c0-0.004,0-0.008,0-0.011
	c0-0.776-0.632-1.409-1.409-1.409c-0.048,0-0.093,0.005-0.142,0.007c-4.636-0.079-8.381-3.848-8.409-8.494
	c0-0.02,0.003-0.032,0.003-0.05c0-0.777-0.633-1.407-1.41-1.407l-0.003,0.002c-0.004,0-0.004-0.002-0.006-0.002
	c-0.777,0-1.407,0.63-1.407,1.407c0,0.019,0.003,0.031,0.003,0.05c-0.028,4.646-3.776,8.415-8.408,8.494
	c-0.049-0.002-0.097-0.007-0.146-0.007c-0.777,0-1.409,0.632-1.409,1.409c0,0.003,0.003,0.007,0.003,0.011
	c0,0.002-0.003,0.008-0.003,0.012c0,0.778,0.631,1.409,1.409,1.409c0.049,0,0.097-0.007,0.146-0.008
	c4.632,0.079,8.378,3.848,8.408,8.494C88.599,114.09,88.596,114.106,88.596,114.122z M85.536,104.166
	c1.88-1.041,3.432-2.595,4.473-4.475c1.037,1.88,2.591,3.435,4.469,4.475c-1.878,1.042-3.432,2.596-4.469,4.477
	C88.968,106.762,87.417,105.208,85.536,104.166z"/>
<g opacity="0.4">
	<path fill="#844A79" d="M331.727,117.477h-1.885c-0.438,0-0.907-0.334-1.044-0.748l-0.348-0.854
		c-0.202-0.393-0.108-0.957,0.199-1.271l1.332-1.328c0.316-0.304,0.316-0.813,0-1.12l-2.053-2.061c-0.316-0.308-0.82-0.308-1.123,0
		l-1.332,1.33c-0.306,0.309-0.88,0.405-1.271,0.207l-0.85-0.349c-0.416-0.136-0.754-0.606-0.754-1.046v-1.88
		c0-0.434-0.356-0.795-0.8-0.795h-2.906c-0.437,0-0.793,0.36-0.793,0.795v1.88c0,0.437-0.339,0.91-0.757,1.046l-0.847,0.349
		c-0.388,0.198-0.965,0.102-1.27-0.207l-1.326-1.33c-0.312-0.308-0.812-0.308-1.124,0l-2.062,2.061c-0.307,0.307-0.307,0.816,0,1.12
		l1.331,1.328c0.312,0.314,0.404,0.878,0.206,1.271l-0.346,0.854c-0.14,0.413-0.609,0.748-1.052,0.748h-1.881
		c-0.431,0-0.793,0.358-0.793,0.797v2.907c0,0.437,0.358,0.795,0.793,0.795h1.883c0.437,0,0.91,0.339,1.052,0.753l0.344,0.854
		c0.198,0.391,0.107,0.962-0.202,1.271l-1.331,1.329c-0.308,0.31-0.308,0.812,0,1.12l2.058,2.06c0.314,0.307,0.814,0.307,1.125,0
		l1.325-1.333c0.305-0.309,0.882-0.4,1.271-0.207l0.85,0.348c0.416,0.142,0.754,0.609,0.754,1.049v1.882
		c0,0.437,0.355,0.794,0.795,0.794h2.906c0.438,0,0.797-0.353,0.797-0.794v-1.882c0-0.438,0.343-0.908,0.754-1.049l0.85-0.348
		c0.391-0.193,0.965-0.102,1.272,0.207l1.331,1.333c0.306,0.307,0.809,0.307,1.122,0l2.056-2.06c0.313-0.309,0.313-0.811,0-1.12
		l-1.334-1.329c-0.309-0.31-0.395-0.881-0.199-1.271l0.35-0.854c0.134-0.414,0.606-0.753,1.041-0.753h1.885
		c0.435,0,0.794-0.355,0.794-0.795v-2.907C332.52,117.835,332.157,117.477,331.727,117.477z M320.351,123.563
		c-2.117,0-3.835-1.719-3.835-3.835c0-2.121,1.718-3.84,3.835-3.84c2.118,0,3.831,1.719,3.831,3.84
		C324.182,121.844,322.469,123.563,320.351,123.563z"/>
	<path fill="#844A79" d="M95.132,185.614h-1.884c-0.436,0-0.908-0.336-1.042-0.749l-0.351-0.853
		c-0.198-0.392-0.107-0.959,0.202-1.271l1.332-1.329c0.316-0.305,0.316-0.813,0-1.12l-2.055-2.06c-0.312-0.308-0.818-0.308-1.123,0
		l-1.332,1.329c-0.307,0.31-0.879,0.404-1.27,0.208l-0.85-0.352c-0.414-0.136-0.753-0.605-0.753-1.044v-1.881
		c0-0.435-0.354-0.795-0.797-0.795h-2.908c-0.437,0-0.796,0.356-0.796,0.795v1.881c0,0.437-0.339,0.908-0.753,1.044l-0.847,0.352
		c-0.388,0.196-0.967,0.102-1.272-0.208l-1.327-1.329c-0.311-0.308-0.811-0.308-1.121,0l-2.062,2.06
		c-0.307,0.307-0.307,0.815,0,1.12l1.334,1.329c0.307,0.312,0.399,0.879,0.204,1.271l-0.347,0.853
		c-0.14,0.412-0.608,0.749-1.05,0.749h-1.882c-0.431,0-0.792,0.356-0.792,0.795v2.909c0,0.436,0.36,0.794,0.792,0.794h1.884
		c0.44,0,0.909,0.337,1.048,0.755l0.347,0.851c0.198,0.392,0.105,0.962-0.204,1.271l-1.331,1.33c-0.307,0.308-0.307,0.814,0,1.12
		l2.059,2.062c0.311,0.306,0.814,0.306,1.125,0l1.327-1.333c0.303-0.309,0.882-0.4,1.269-0.209l0.849,0.352
		c0.414,0.139,0.753,0.607,0.753,1.046v1.883c0,0.437,0.358,0.793,0.796,0.793h2.906c0.437,0,0.799-0.353,0.799-0.793v-1.883
		c0-0.437,0.342-0.907,0.755-1.046l0.846-0.352c0.393-0.191,0.965-0.1,1.272,0.209l1.332,1.333c0.307,0.306,0.811,0.306,1.123,0
		l2.055-2.062c0.314-0.308,0.314-0.812,0-1.12l-1.334-1.33c-0.305-0.309-0.396-0.879-0.198-1.271l0.35-0.851
		c0.133-0.417,0.607-0.755,1.044-0.755h1.881c0.435,0,0.795-0.355,0.795-0.794v-2.909C95.926,185.975,95.566,185.614,95.132,185.614
		z M83.756,191.701c-2.116,0-3.836-1.719-3.836-3.836c0-2.121,1.72-3.84,3.836-3.84c2.12,0,3.833,1.72,3.833,3.84
		C87.589,189.981,85.876,191.701,83.756,191.701z"/>
	<path fill="#844A79" d="M318.783,65.401h-3.716c-0.859,0-1.792-0.663-2.056-1.476l-0.693-1.681
		c-0.39-0.774-0.209-1.892,0.396-2.506l2.628-2.619c0.62-0.603,0.62-1.605,0-2.21l-4.052-4.06c-0.617-0.609-1.61-0.609-2.215,0
		l-2.627,2.618c-0.603,0.611-1.732,0.8-2.503,0.411l-1.677-0.691c-0.814-0.27-1.483-1.196-1.483-2.062v-3.707
		c0-0.86-0.699-1.569-1.572-1.569h-5.731c-0.862,0-1.57,0.704-1.57,1.569v3.707c0,0.861-0.669,1.792-1.486,2.062l-1.672,0.691
		c-0.766,0.389-1.906,0.2-2.507-0.411l-2.618-2.618c-0.61-0.609-1.599-0.609-2.209,0l-4.065,4.06c-0.606,0.605-0.606,1.608,0,2.21
		l2.629,2.619c0.604,0.614,0.789,1.732,0.403,2.506l-0.684,1.681c-0.277,0.813-1.198,1.476-2.074,1.476h-3.708
		c-0.851,0-1.565,0.704-1.565,1.569v5.734c0,0.859,0.71,1.566,1.565,1.566h3.713c0.867,0,1.792,0.667,2.069,1.488l0.684,1.678
		c0.389,0.776,0.206,1.899-0.402,2.508l-2.625,2.624c-0.604,0.605-0.604,1.603,0,2.207l4.061,4.062c0.614,0.606,1.606,0.606,2.217,0
		l2.615-2.625c0.599-0.609,1.74-0.789,2.502-0.414l1.677,0.692c0.817,0.275,1.484,1.199,1.484,2.065v3.712
		c0,0.862,0.705,1.563,1.568,1.563h5.73c0.864,0,1.575-0.695,1.575-1.563v-3.712c0-0.863,0.675-1.791,1.488-2.065l1.669-0.692
		c0.771-0.375,1.902-0.195,2.507,0.414l2.627,2.625c0.604,0.606,1.599,0.606,2.214,0l4.05-4.062c0.619-0.609,0.619-1.602,0-2.207
		l-2.625-2.624c-0.604-0.609-0.785-1.732-0.394-2.508l0.691-1.678c0.263-0.821,1.195-1.488,2.056-1.488h3.711
		c0.856,0,1.567-0.698,1.567-1.566v-5.734C320.346,66.112,319.638,65.401,318.783,65.401z M296.349,77.402
		c-4.172,0-7.562-3.39-7.562-7.562c0-4.183,3.391-7.572,7.562-7.572c4.183,0,7.559,3.39,7.559,7.572
		C303.907,74.013,300.531,77.402,296.349,77.402z"/>
	<path fill="#844A79" d="M305.772,221.508h-3.716c-0.856,0-1.789-0.662-2.056-1.477l-0.689-1.681
		c-0.392-0.774-0.212-1.892,0.395-2.506l2.629-2.618c0.621-0.604,0.621-1.607,0-2.211l-4.052-4.061
		c-0.619-0.607-1.612-0.607-2.214,0l-2.627,2.618c-0.604,0.61-1.734,0.8-2.507,0.411l-1.677-0.691
		c-0.812-0.271-1.482-1.195-1.482-2.062v-3.707c0-0.861-0.697-1.569-1.571-1.569h-5.731c-0.864,0-1.571,0.705-1.571,1.569v3.707
		c0,0.862-0.67,1.791-1.485,2.062l-1.67,0.691c-0.766,0.389-1.908,0.199-2.508-0.411l-2.618-2.618c-0.613-0.607-1.598-0.607-2.21,0
		l-4.065,4.061c-0.605,0.604-0.605,1.607,0,2.211l2.627,2.618c0.605,0.614,0.791,1.731,0.403,2.506l-0.681,1.681
		c-0.276,0.814-1.2,1.477-2.073,1.477h-3.708c-0.852,0-1.566,0.703-1.566,1.569v5.733c0,0.861,0.709,1.566,1.566,1.566h3.713
		c0.866,0,1.792,0.665,2.068,1.489l0.681,1.677c0.392,0.776,0.208,1.898-0.399,2.508l-2.626,2.623c-0.603,0.608-0.603,1.604,0,2.208
		l4.061,4.062c0.613,0.606,1.605,0.606,2.216,0l2.617-2.625c0.598-0.608,1.739-0.787,2.503-0.413l1.675,0.693
		c0.816,0.273,1.485,1.198,1.485,2.064v3.712c0,0.863,0.702,1.565,1.568,1.565h5.729c0.863,0,1.575-0.698,1.575-1.565v-3.712
		c0-0.864,0.676-1.791,1.487-2.064l1.668-0.693c0.774-0.374,1.906-0.195,2.508,0.413l2.627,2.625c0.605,0.606,1.599,0.606,2.215,0
		l4.052-4.062c0.619-0.609,0.619-1.6,0-2.208l-2.628-2.623c-0.604-0.609-0.785-1.731-0.393-2.508l0.689-1.677
		c0.263-0.824,1.196-1.489,2.056-1.489h3.711c0.857,0,1.571-0.698,1.571-1.566v-5.733
		C307.339,222.218,306.628,221.508,305.772,221.508z M283.342,233.508c-4.176,0-7.564-3.389-7.564-7.562
		c0-4.184,3.389-7.572,7.564-7.572c4.18,0,7.556,3.389,7.556,7.572C290.897,230.119,287.521,233.508,283.342,233.508z"/>
</g>
</svg>
