<?xml version="1.0" encoding="utf-8"?>
<!-- Generator: Adobe Illustrator 16.0.0, SVG Export Plug-In . SVG Version: 6.00 Build 0)  -->
<!DOCTYPE svg PUBLIC "-//W3C//DTD SVG 1.1//EN" "http://www.w3.org/Graphics/SVG/1.1/DTD/svg11.dtd">
<svg version="1.1" id="Capa_1" xmlns="http://www.w3.org/2000/svg" xmlns:xlink="http://www.w3.org/1999/xlink" x="0px" y="0px"
	 width="390px" height="390px" viewBox="0 0 390 390" enable-background="new 0 0 390 390" xml:space="preserve">
<rect x="-0.9" fill="#F7D16A" width="391.571" height="391.57"/>
<path opacity="0.7" fill="#FFFFFF" d="M254.554,124.405c-6.42-10.668-20.978-9.357-30.568-4.06
	c-11.638,6.44-18.473,20.063-15.42,33.163c0.057,0.236,0.171,0.404,0.311,0.532c-1.597,1.434-3.247,2.821-5.009,4.12
	c-5.115,3.785-10.61,6.617-16.292,9.314c0.889-14.816,3.864-29.597,7.227-44.665c13.312-9.174,31.066-18.599,32.779-36.032
	c1.278-12.97-4.636-33.072-20.611-33.273c-13.851-0.173-22.761,15.941-25.846,27.469c-3.826,14.299-1.581,30.864,8.108,42.338
	c-5.536,19.011-9.03,39.325-7.854,58.933c-3.393-0.119-8.143-3.984-10.523-6.241c4.571-10.318,5.799-22.574-1.824-31.853
	c-6.574-7.994-17.887-9.542-26.775-4.479c-9.328,5.303-12.995,17.042-6.415,25.968c6.72,9.11,19.879,14.326,31.108,12.592
	c0.861,0.814,1.724,1.557,2.525,2.177c2.78,2.124,8.086,5.617,12.094,4.731c1.075,12.85,4.224,25.363,10.242,36.943
	c1.176,2.268,5.025,0.615,4.126-1.812c-0.241-0.643-0.472-1.283-0.711-1.921c-0.047-0.127-0.128-0.222-0.193-0.327
	c-6.416-16.184-8.266-31.938-7.629-47.623c7.057-2.246,14.196-5.891,20.557-10.526c0.173,0.404,0.427,0.787,0.888,1.086
	c10.881,7.105,24.389,5.716,34.581-2.017C253.371,151.403,261.791,136.432,254.554,124.405"/>
<path fill="#7C6453" d="M275.131,276.129c-1.891-12.807-13.409-22.67-26.698-22.67c-0.479,0-0.823,0.042-1.293,0.067
	c0.079-1.085,0.224-2.171,0.224-3.284c0-24.946-20.193-45.173-45.142-45.173c-18.29,0-34,10.903-41.098,26.547
	c-2.38-0.444-4.798-0.699-7.302-0.699c-22.057,0-39.932,17.878-39.932,39.934c0,0.919-0.124,1.823-0.059,2.729
	c-0.084,0.259-0.332,0.511-0.332,0.783v1.682c-47,7.856-86.682,22.183-115,40.857V391.5h391v-74.599
	C358.5,298.295,320.387,284.004,275.131,276.129z"/>
<path opacity="0.7" fill="#FFFFFF" d="M119.353,91.003c0,1.256,1.02,2.275,2.272,2.275c0.004,0,0.004-0.002,0.009-0.002l0.006,0.002
	c1.255,0,2.274-1.02,2.274-2.275c0-0.029-0.004-0.051-0.004-0.077c0.042-7.508,6.096-13.596,13.582-13.723
	c0.078,0.002,0.155,0.013,0.231,0.013c1.255,0,2.276-1.02,2.276-2.276c0-0.005,0-0.013,0-0.018s0-0.013,0-0.018
	c0-1.255-1.021-2.277-2.276-2.277c-0.076,0-0.153,0.011-0.231,0.013c-7.486-0.127-13.536-6.216-13.582-13.72
	c0-0.03,0.004-0.052,0.004-0.079c0-1.256-1.02-2.274-2.274-2.274l-0.006,0.001c-0.005,0-0.005-0.001-0.009-0.001
	c-1.253,0-2.272,1.018-2.272,2.274c0,0.027,0.005,0.049,0.005,0.079c-0.044,7.504-6.099,13.593-13.583,13.72
	c-0.075-0.002-0.154-0.013-0.234-0.013c-1.254,0-2.275,1.022-2.275,2.277c0,0.005,0.003,0.013,0.003,0.018s-0.003,0.013-0.003,0.018
	c0,1.256,1.021,2.276,2.275,2.276c0.08,0,0.159-0.01,0.234-0.013c7.484,0.127,13.538,6.215,13.583,13.723
	C119.357,90.952,119.353,90.976,119.353,91.003z M114.41,74.921c3.037-1.68,5.544-4.192,7.224-7.229
	c1.676,3.037,4.188,5.55,7.221,7.229c-3.033,1.683-5.544,4.194-7.221,7.231C119.955,79.115,117.447,76.604,114.41,74.921z"/>
<path opacity="0.7" fill="#FFFFFF" d="M88.016,114.503c0,0.78,0.634,1.415,1.412,1.415c0.002,0,0.002-0.001,0.005-0.001l0.004,0.001
	c0.778,0,1.414-0.634,1.414-1.415c0-0.018-0.003-0.031-0.003-0.048c0.026-4.662,3.787-8.443,8.437-8.523
	c0.049,0.001,0.097,0.008,0.142,0.008c0.782,0,1.414-0.633,1.414-1.414c0-0.003,0-0.009,0-0.011c0-0.003,0-0.007,0-0.011
	c0-0.779-0.632-1.414-1.414-1.414c-0.045,0-0.093,0.006-0.142,0.007c-4.65-0.079-8.409-3.861-8.437-8.522
	c0-0.019,0.003-0.032,0.003-0.05c0-0.78-0.636-1.412-1.414-1.412l-0.004,0.002c-0.003,0-0.003-0.002-0.005-0.002
	c-0.778,0-1.412,0.632-1.412,1.412c0,0.019,0.003,0.031,0.003,0.05c-0.026,4.661-3.789,8.443-8.437,8.522
	c-0.047-0.001-0.097-0.007-0.146-0.007c-0.78,0-1.412,0.635-1.412,1.414c0,0.004,0.002,0.008,0.002,0.011
	c0,0.002-0.002,0.008-0.002,0.011c0,0.781,0.632,1.414,1.412,1.414c0.049,0,0.099-0.007,0.146-0.008
	c4.648,0.08,8.407,3.861,8.437,8.523C88.02,114.472,88.016,114.487,88.016,114.503z M84.948,104.514
	c1.885-1.044,3.443-2.604,4.485-4.49c1.041,1.886,2.601,3.446,4.486,4.49c-1.885,1.045-3.445,2.604-4.486,4.491
	C88.391,107.119,86.833,105.56,84.948,104.514z"/>
<g opacity="0.4">
	<path fill="#FFFFFF" d="M331.959,117.87h-1.89c-0.439,0-0.912-0.337-1.047-0.751l-0.351-0.857c-0.201-0.393-0.105-0.96,0.202-1.276
		l1.335-1.332c0.316-0.304,0.316-0.816,0-1.124l-2.061-2.068c-0.316-0.309-0.82-0.309-1.125,0l-1.338,1.334
		c-0.306,0.31-0.882,0.407-1.275,0.208l-0.852-0.35c-0.418-0.137-0.756-0.608-0.756-1.05v-1.887c0-0.435-0.358-0.798-0.802-0.798
		h-2.917c-0.438,0-0.797,0.362-0.797,0.798v1.887c0,0.438-0.339,0.913-0.759,1.05l-0.849,0.35c-0.387,0.199-0.968,0.102-1.274-0.208
		l-1.331-1.334c-0.312-0.309-0.814-0.309-1.125,0l-2.069,2.068c-0.31,0.308-0.31,0.82,0,1.124l1.335,1.332
		c0.312,0.315,0.404,0.883,0.207,1.276l-0.347,0.857c-0.142,0.414-0.612,0.751-1.056,0.751h-1.886c-0.434,0-0.798,0.358-0.798,0.799
		v2.917c0,0.438,0.36,0.797,0.798,0.797h1.887c0.441,0,0.913,0.339,1.055,0.756l0.347,0.855c0.197,0.393,0.105,0.966-0.203,1.276
		l-1.335,1.333c-0.31,0.311-0.31,0.815,0,1.124l2.065,2.067c0.312,0.308,0.816,0.308,1.126,0l1.33-1.337
		c0.307-0.31,0.888-0.401,1.274-0.208l0.853,0.348c0.417,0.143,0.757,0.612,0.757,1.054v1.888c0,0.439,0.357,0.797,0.798,0.797
		h2.918c0.438,0,0.798-0.354,0.798-0.797v-1.888c0-0.439,0.346-0.911,0.758-1.054l0.85-0.348c0.394-0.193,0.97-0.102,1.277,0.208
		l1.336,1.337c0.307,0.308,0.812,0.308,1.125,0l2.063-2.067c0.313-0.31,0.313-0.813,0-1.124l-1.338-1.333
		c-0.308-0.311-0.398-0.884-0.201-1.276l0.351-0.855c0.134-0.417,0.61-0.756,1.046-0.756h1.891c0.436,0,0.796-0.357,0.796-0.797
		v-2.917C332.755,118.229,332.394,117.87,331.959,117.87z M320.547,123.977c-2.126,0-3.85-1.726-3.85-3.849
		c0-2.128,1.724-3.853,3.85-3.853c2.127,0,3.845,1.725,3.845,3.853C324.392,122.251,322.674,123.977,320.547,123.977z"/>
	<path fill="#FFFFFF" d="M94.575,186.235h-1.89c-0.438,0-0.912-0.337-1.047-0.751l-0.353-0.855
		c-0.197-0.394-0.106-0.962,0.203-1.275l1.336-1.333c0.317-0.306,0.317-0.817,0-1.125l-2.06-2.066c-0.315-0.309-0.822-0.309-1.127,0
		l-1.338,1.333c-0.306,0.311-0.882,0.406-1.274,0.208l-0.853-0.352c-0.414-0.137-0.754-0.607-0.754-1.048v-1.887
		c0-0.438-0.356-0.798-0.8-0.798h-2.917c-0.438,0-0.799,0.358-0.799,0.798v1.887c0,0.438-0.339,0.912-0.755,1.048l-0.851,0.352
		c-0.389,0.198-0.97,0.103-1.275-0.208l-1.332-1.333c-0.312-0.309-0.813-0.309-1.125,0l-2.069,2.066
		c-0.308,0.308-0.308,0.818,0,1.125l1.338,1.333c0.309,0.312,0.403,0.881,0.204,1.275l-0.347,0.855
		c-0.141,0.414-0.609,0.751-1.055,0.751H71.75c-0.435,0-0.798,0.357-0.798,0.798v2.918c0,0.437,0.362,0.797,0.798,0.797h1.887
		c0.442,0,0.912,0.339,1.053,0.757l0.347,0.854c0.199,0.394,0.107,0.966-0.203,1.276l-1.336,1.334c-0.308,0.309-0.308,0.816,0,1.125
		l2.065,2.066c0.313,0.309,0.817,0.309,1.128,0l1.331-1.336c0.305-0.311,0.886-0.401,1.273-0.21l0.852,0.353
		c0.416,0.139,0.757,0.609,0.757,1.05v1.889c0,0.438,0.358,0.796,0.798,0.796h2.916c0.438,0,0.801-0.354,0.801-0.796v-1.889
		c0-0.439,0.345-0.911,0.757-1.05l0.849-0.353c0.395-0.191,0.968-0.101,1.276,0.21l1.336,1.336c0.309,0.309,0.814,0.309,1.127,0
		l2.062-2.066c0.315-0.31,0.315-0.815,0-1.125l-1.336-1.334c-0.308-0.31-0.4-0.882-0.201-1.276l0.352-0.854
		c0.134-0.418,0.608-0.757,1.046-0.757h1.888c0.437,0,0.799-0.355,0.799-0.797v-2.918C95.37,186.597,95.009,186.235,94.575,186.235z
		 M83.161,192.341c-2.124,0-3.847-1.725-3.847-3.849c0-2.128,1.724-3.853,3.847-3.853c2.128,0,3.845,1.725,3.845,3.853
		C87.006,190.616,85.289,192.341,83.161,192.341z"/>
	<path fill="#FFFFFF" d="M318.973,65.62h-3.728c-0.86,0-1.799-0.665-2.063-1.481l-0.694-1.686c-0.392-0.777-0.211-1.898,0.396-2.514
		l2.637-2.628c0.624-0.605,0.624-1.611,0-2.218l-4.062-4.073c-0.622-0.611-1.618-0.611-2.223,0l-2.637,2.627
		c-0.604,0.612-1.74,0.802-2.513,0.412l-1.681-0.693c-0.817-0.272-1.488-1.201-1.488-2.069v-3.719c0-0.862-0.703-1.574-1.579-1.574
		h-5.751c-0.864,0-1.575,0.706-1.575,1.574v3.719c0,0.864-0.671,1.797-1.492,2.069l-1.676,0.693
		c-0.766,0.391-1.911,0.201-2.516-0.412l-2.627-2.627c-0.613-0.611-1.604-0.611-2.217,0l-4.078,4.073
		c-0.608,0.607-0.608,1.613,0,2.218l2.637,2.628c0.606,0.616,0.794,1.737,0.404,2.514l-0.686,1.686
		c-0.277,0.817-1.201,1.481-2.078,1.481h-3.723c-0.854,0-1.568,0.706-1.568,1.575v5.753c0,0.863,0.711,1.571,1.568,1.571h3.728
		c0.868,0,1.796,0.668,2.073,1.493l0.686,1.683c0.391,0.778,0.207,1.906-0.403,2.517l-2.634,2.632c-0.604,0.608-0.604,1.608,0,2.214
		l4.074,4.076c0.616,0.608,1.611,0.608,2.227,0l2.623-2.634c0.6-0.611,1.746-0.791,2.51-0.416l1.681,0.695
		c0.821,0.276,1.492,1.204,1.492,2.073v3.723c0,0.866,0.706,1.57,1.574,1.57h5.747c0.867,0,1.58-0.698,1.58-1.57v-3.723
		c0-0.867,0.68-1.797,1.493-2.073l1.675-0.695c0.776-0.375,1.91-0.195,2.517,0.416l2.635,2.634c0.608,0.608,1.604,0.608,2.222,0
		l4.065-4.076c0.62-0.611,0.62-1.606,0-2.214l-2.637-2.632c-0.606-0.611-0.787-1.738-0.396-2.517l0.694-1.683
		c0.264-0.825,1.199-1.493,2.063-1.493h3.723c0.861,0,1.574-0.701,1.574-1.571v-5.753C320.541,66.334,319.83,65.62,318.973,65.62z
		 M296.464,77.661c-4.187,0-7.588-3.401-7.588-7.587c0-4.197,3.401-7.598,7.588-7.598c4.196,0,7.583,3.401,7.583,7.598
		C304.047,74.26,300.66,77.661,296.464,77.661z"/>
	<path fill="#FFFFFF" d="M305.921,222.248h-3.728c-0.863,0-1.799-0.664-2.063-1.48l-0.694-1.688
		c-0.392-0.776-0.211-1.897,0.396-2.514l2.637-2.627c0.624-0.605,0.624-1.612,0-2.219l-4.064-4.074c-0.62-0.609-1.615-0.609-2.222,0
		l-2.636,2.627c-0.606,0.613-1.74,0.804-2.513,0.412l-1.684-0.693c-0.817-0.271-1.485-1.199-1.485-2.068v-3.721
		c0-0.862-0.703-1.574-1.579-1.574h-5.751c-0.866,0-1.577,0.708-1.577,1.574v3.721c0,0.864-0.67,1.797-1.49,2.068l-1.675,0.693
		c-0.769,0.392-1.915,0.201-2.518-0.412l-2.625-2.627c-0.614-0.609-1.604-0.609-2.218,0l-4.079,4.074
		c-0.607,0.606-0.607,1.613,0,2.219l2.636,2.627c0.608,0.616,0.794,1.737,0.406,2.514l-0.685,1.688
		c-0.278,0.816-1.205,1.48-2.081,1.48h-3.721c-0.854,0-1.57,0.706-1.57,1.575v5.753c0,0.864,0.712,1.571,1.57,1.571h3.726
		c0.87,0,1.798,0.668,2.076,1.493l0.685,1.684c0.391,0.778,0.209,1.905-0.402,2.516l-2.635,2.633c-0.605,0.608-0.605,1.608,0,2.215
		l4.074,4.075c0.614,0.607,1.611,0.607,2.224,0l2.626-2.634c0.6-0.61,1.746-0.791,2.511-0.415l1.682,0.695
		c0.819,0.274,1.488,1.202,1.488,2.071v3.725c0,0.866,0.706,1.57,1.575,1.57h5.748c0.867,0,1.581-0.7,1.581-1.57v-3.725
		c0-0.867,0.678-1.797,1.492-2.071l1.675-0.695c0.775-0.376,1.91-0.195,2.517,0.415l2.636,2.634c0.604,0.607,1.602,0.607,2.221,0
		l4.064-4.075c0.621-0.611,0.621-1.606,0-2.215l-2.638-2.633c-0.605-0.61-0.785-1.737-0.393-2.516l0.693-1.684
		c0.263-0.825,1.199-1.493,2.064-1.493h3.722c0.858,0,1.574-0.7,1.574-1.571v-5.753
		C307.489,222.961,306.778,222.248,305.921,222.248z M283.412,234.289c-4.187,0-7.588-3.4-7.588-7.589
		c0-4.197,3.401-7.597,7.588-7.597c4.196,0,7.583,3.399,7.583,7.597C290.995,230.889,287.608,234.289,283.412,234.289z"/>
</g>
</svg>
