<?xml version="1.0" encoding="utf-8"?>
<!-- Generator: Adobe Illustrator 16.0.0, SVG Export Plug-In . SVG Version: 6.00 Build 0)  -->
<!DOCTYPE svg PUBLIC "-//W3C//DTD SVG 1.1//EN" "http://www.w3.org/Graphics/SVG/1.1/DTD/svg11.dtd">
<svg version="1.1" id="Capa_1" xmlns="http://www.w3.org/2000/svg" xmlns:xlink="http://www.w3.org/1999/xlink" x="0px" y="0px"
	 width="189px" height="112px" viewBox="45.202 23.292 189 112" enable-background="new 45.202 23.292 189 112"
	 xml:space="preserve">
<g>
	<g>
		<path fill="#8797AA" d="M138.558,121.257"/>
		<g>
			<path fill="#8797AA" d="M138.558,69.86c-0.728,0-1.32-0.59-1.32-1.318v-9.343c0-0.729,0.592-1.319,1.32-1.319
				c0.729,0,1.32,0.59,1.32,1.319v9.342C139.878,69.27,139.287,69.86,138.558,69.86z"/>
			<path fill="#8797AA" d="M144.09,71.171c-0.312,0-0.623-0.108-0.875-0.331c-0.544-0.481-0.598-1.314-0.114-1.861l6.189-7.003
				c0.482-0.547,1.317-0.599,1.863-0.116c0.547,0.482,0.599,1.315,0.116,1.861l-6.189,7.004
				C144.819,71.02,144.455,71.171,144.09,71.171z"/>
			<path fill="#8797AA" d="M133.027,71.171c-0.366,0-0.729-0.151-0.991-0.446l-6.189-7.004c-0.483-0.546-0.431-1.379,0.115-1.861
				c0.546-0.482,1.38-0.431,1.863,0.116l6.191,7.003c0.481,0.546,0.43,1.379-0.117,1.861
				C133.649,71.063,133.337,71.171,133.027,71.171z"/>
		</g>
		<g>
			<path fill="#8797AA" d="M138.558,124.773c-0.728,0-1.32-0.591-1.32-1.319v-9.343c0-0.728,0.592-1.317,1.32-1.317
				c0.729,0,1.32,0.59,1.32,1.317v9.343C139.878,124.183,139.287,124.773,138.558,124.773z"/>
			<path fill="#8797AA" d="M126.836,121.123c-0.311,0-0.623-0.109-0.873-0.33c-0.546-0.481-0.599-1.316-0.115-1.861l6.189-7.005
				c0.483-0.545,1.318-0.598,1.863-0.115c0.547,0.482,0.599,1.316,0.117,1.863l-6.191,7.003
				C127.565,120.974,127.202,121.123,126.836,121.123z"/>
			<path fill="#8797AA" d="M150.28,121.123c-0.364,0-0.728-0.149-0.989-0.446l-6.189-7.003c-0.482-0.546-0.43-1.38,0.114-1.862
				c0.548-0.482,1.382-0.431,1.865,0.115l6.189,7.004c0.481,0.545,0.431,1.379-0.116,1.861
				C150.904,121.014,150.592,121.123,150.28,121.123z"/>
		</g>
		<g>
			<g>
				<path fill="#8797AA" d="M142.991,94.541c-3.444,0-3.713-3.512-3.713-4.588c0-1.077,0.269-4.589,3.713-4.589h5.307
					c0.729,0,1.32,0.59,1.32,1.318s-0.592,1.318-1.32,1.318h-5.307c-0.375,0-1.072,0-1.072,1.951c0,1.95,0.698,1.95,1.072,1.95
					c0.729,0,1.32,0.59,1.32,1.319C144.312,93.95,143.72,94.541,142.991,94.541z"/>
				<path fill="#8797AA" d="M147.844,101.079h-4.398c-3.445,0-3.713-3.512-3.713-4.588s0.268-4.588,3.713-4.588h4.398
					c0.729,0,1.32,0.589,1.32,1.318c0,0.729-0.592,1.319-1.32,1.319h-4.398c-0.375,0-1.072,0-1.072,1.95s0.698,1.95,1.072,1.95
					h4.398c0.729,0,1.32,0.591,1.32,1.318C149.165,100.489,148.573,101.079,147.844,101.079z"/>
				<path fill="#8797AA" d="M156.012,107.123l-11.583-0.015c-2.386,0-4.052-1.845-4.052-4.488c0-2.754,1.184-4.15,3.519-4.15
					c0.728,0,1.318,0.59,1.318,1.318s-0.591,1.319-1.318,1.319c-0.604,0-0.879,0-0.879,1.512c0,0.435,0.103,1.852,1.412,1.852
					l11.585,0.014c7.391,0,12.757-4.8,12.757-11.412c0-6.291-5.125-11.409-11.424-11.409H143.55c-0.365,0-0.974,0-0.974,1.85
					c0,1.852,0.608,1.852,0.974,1.852c0.728,0,1.319,0.59,1.319,1.318c0,0.728-0.592,1.318-1.319,1.318
					c-1.087,0-3.613-0.438-3.613-4.488c0-4.052,2.527-4.489,3.613-4.489h13.799c7.753,0,14.062,6.301,14.062,14.046
					C171.411,101.082,164.791,107.123,156.012,107.123z"/>
				<path fill="#8797AA" d="M159.897,81.843c-0.293-0.222-0.468-0.542-0.513-0.881c-0.378-0.703-2.556-4.196-8.079-4.196
					c-3.031,0-3.51,3.587-3.528,3.74c-0.089,0.723-2.71,0.4-2.62-0.323c0.259-2.094,1.876-6.055,6.15-6.055
					c7.55,0,10.361,5.232,10.654,6.149c0.24,0.756-0.092,1.319-0.481,1.596L159.897,81.843z"/>
			</g>
			<g>
				<path fill="#8797AA" d="M134.124,94.541c-0.728,0-1.319-0.591-1.319-1.319s0.591-1.318,1.319-1.318c0.375,0,1.072,0,1.072-1.95
					s-0.698-1.95-1.072-1.95h-5.307c-0.728,0-1.32-0.592-1.32-1.318c0-0.729,0.592-1.32,1.32-1.32h5.307
					c3.445,0,3.712,3.513,3.712,4.589C137.836,91.03,137.57,94.541,134.124,94.541z"/>
				<path fill="#8797AA" d="M133.671,101.079h-4.398c-0.729,0-1.319-0.59-1.319-1.319c0-0.727,0.591-1.317,1.319-1.317h4.398
					c0.375,0,1.073,0,1.073-1.95s-0.698-1.95-1.073-1.95h-4.398c-0.729,0-1.319-0.591-1.319-1.319s0.591-1.319,1.319-1.319h4.398
					c3.445,0,3.713,3.512,3.713,4.589C137.384,97.568,137.116,101.079,133.671,101.079z"/>
				<path fill="#8797AA" d="M121.106,107.123c-8.781,0-15.4-6.041-15.4-14.05c0-7.746,6.308-14.048,14.062-14.048h13.799
					c1.086,0,3.613,0.438,3.613,4.488c0,4.052-2.527,4.489-3.613,4.489c-0.729,0-1.32-0.59-1.32-1.318s0.591-1.318,1.32-1.318
					c0.364,0,0.973,0,0.973-1.852c0-1.85-0.609-1.85-0.973-1.85h-13.799c-6.298,0-11.423,5.118-11.423,11.41
					c0,6.613,5.367,11.412,12.758,11.412l11.581-0.014c1.312,0,1.415-1.417,1.415-1.851c0-1.513-0.276-1.513-0.878-1.513
					c-0.729,0-1.321-0.59-1.321-1.319c0-0.727,0.591-1.318,1.321-1.318c2.334,0,3.518,1.396,3.518,4.15
					c0,2.644-1.667,4.489-4.053,4.489L121.106,107.123z"/>
				<path fill="#8797AA" d="M115.637,81.873c-0.39-0.277-0.721-0.84-0.479-1.596c0.413-1.299,3.434-6.149,10.653-6.149
					c4.274,0,5.892,3.96,6.151,6.055c0.089,0.723-2.531,1.046-2.621,0.323c0-0.006-0.143-1.042-0.708-2.028
					c-0.662-1.152-1.583-1.712-2.821-1.712c-5.522,0-7.7,3.493-8.079,4.196C117.687,81.3,115.865,82.033,115.637,81.873z"/>
			</g>
		</g>
	</g>
	<path fill="#B5F0FF" d="M180.832,66.281c0,0.192,0.156,0.349,0.349,0.349c0.001,0,0.001,0,0.001,0l0.001,0
		c0.192,0,0.348-0.156,0.348-0.349c0-0.004,0-0.008,0-0.011c0.008-1.151,0.936-2.084,2.084-2.104
		c0.013,0.001,0.023,0.002,0.036,0.002c0.191,0,0.349-0.157,0.349-0.349c0-0.001,0-0.002,0-0.003c0,0,0-0.001,0-0.003
		c0-0.192-0.157-0.348-0.349-0.348c-0.013,0-0.023,0.002-0.036,0.002c-1.148-0.02-2.076-0.953-2.084-2.103c0-0.004,0-0.008,0-0.012
		c0-0.193-0.155-0.349-0.348-0.349h-0.001c0,0,0,0-0.001,0c-0.192,0-0.349,0.156-0.349,0.349c0,0.004,0.001,0.007,0.001,0.012
		c-0.007,1.15-0.937,2.083-2.084,2.103c-0.012,0-0.024-0.002-0.036-0.002c-0.191,0-0.349,0.156-0.349,0.348
		c0,0.001,0.001,0.002,0.001,0.002c0,0.002-0.001,0.003-0.001,0.004c0,0.192,0.157,0.349,0.349,0.349
		c0.012,0,0.024-0.001,0.036-0.002c1.147,0.02,2.076,0.953,2.084,2.104C180.833,66.273,180.832,66.277,180.832,66.281z
		 M180.074,63.817c0.465-0.258,0.85-0.642,1.107-1.107c0.257,0.465,0.643,0.85,1.108,1.107c-0.466,0.258-0.852,0.643-1.108,1.108
		C180.924,64.459,180.539,64.075,180.074,63.817z"/>
	<path opacity="0.7" fill="#B6E281" d="M174.575,75.834c0,0.28,0.229,0.508,0.51,0.508h0.002h0.001c0.28,0,0.509-0.228,0.509-0.508
		c0-0.006,0-0.012,0-0.018c0.01-1.682,1.367-3.044,3.043-3.071c0.019,0,0.035,0.002,0.053,0.002c0.28,0,0.509-0.229,0.509-0.509
		c0-0.002,0-0.003,0-0.003c0-0.003,0-0.004,0-0.004c0-0.282-0.229-0.512-0.509-0.512c-0.018,0-0.034,0.003-0.053,0.003
		c-1.676-0.027-3.033-1.39-3.043-3.071c0-0.005,0-0.011,0-0.018c0-0.28-0.229-0.508-0.509-0.508h-0.001h-0.002
		c-0.281,0-0.51,0.228-0.51,0.508c0,0.007,0.002,0.013,0.002,0.018c-0.011,1.682-1.368,3.044-3.043,3.071
		c-0.019,0-0.037-0.003-0.055-0.003c-0.279,0-0.509,0.23-0.509,0.51c0,0,0.001,0.003,0.001,0.004c0,0-0.001,0.003-0.001,0.005
		c0,0.28,0.229,0.509,0.509,0.509c0.018,0,0.036-0.002,0.055-0.002c1.675,0.027,3.031,1.39,3.043,3.071
		C174.577,75.822,174.575,75.828,174.575,75.834z M173.469,72.234c0.679-0.377,1.241-0.938,1.618-1.618
		c0.375,0.68,0.938,1.241,1.618,1.618c-0.68,0.377-1.243,0.938-1.618,1.618C174.71,73.172,174.148,72.611,173.469,72.234z"/>
	<path fill="#B5F0FF" d="M103.955,113.271c0,0.25,0.202,0.452,0.452,0.452c0.001,0,0.001-0.001,0.001-0.001l0.002,0.001
		c0.249,0,0.451-0.202,0.451-0.452c0-0.005,0-0.011,0-0.015c0.009-1.491,1.211-2.7,2.699-2.725c0.016,0.001,0.031,0.002,0.046,0.002
		c0.25,0,0.452-0.203,0.452-0.451c0-0.002,0-0.003,0-0.005c0,0,0-0.001,0-0.003c0-0.249-0.203-0.452-0.452-0.452
		c-0.015,0-0.03,0.003-0.046,0.003c-1.487-0.025-2.69-1.233-2.699-2.725c0-0.006,0-0.01,0-0.016c0-0.249-0.203-0.451-0.451-0.451
		h-0.002c0,0,0,0-0.001,0c-0.25,0-0.452,0.202-0.452,0.451c0,0.006,0,0.01,0,0.016c-0.009,1.491-1.212,2.699-2.699,2.725
		c-0.016,0-0.032-0.003-0.047-0.003c-0.249,0-0.452,0.203-0.452,0.452c0,0.002,0.001,0.002,0.001,0.002
		c0,0.003-0.001,0.004-0.001,0.006c0,0.248,0.204,0.451,0.452,0.451c0.015,0,0.031-0.001,0.047-0.002
		c1.486,0.024,2.689,1.233,2.699,2.725C103.955,113.261,103.955,113.267,103.955,113.271z M102.973,110.078
		c0.603-0.334,1.101-0.832,1.435-1.435c0.333,0.603,0.833,1.101,1.436,1.435c-0.603,0.334-1.102,0.833-1.436,1.437
		C104.074,110.911,103.575,110.412,102.973,110.078z"/>
	<path opacity="0.7" fill="#B6E281" d="M94.887,88.843c0,0.189,0.154,0.344,0.344,0.344h0.001c0.001,0,0.002,0,0.002,0
		c0.189,0,0.343-0.154,0.343-0.344c0-0.005,0-0.008,0-0.012c0.007-1.137,0.924-2.059,2.057-2.076c0.013,0,0.024,0.002,0.036,0.002
		c0.189,0,0.344-0.156,0.344-0.344c0-0.002,0-0.004,0-0.004c0-0.002,0-0.002,0-0.002c0-0.191-0.154-0.346-0.344-0.346
		c-0.012,0-0.023,0.002-0.036,0.002c-1.133-0.02-2.05-0.939-2.057-2.076c0-0.004,0-0.008,0-0.012c0-0.189-0.154-0.344-0.343-0.344
		c0,0-0.001,0-0.002,0h-0.001c-0.19,0-0.344,0.154-0.344,0.344c0,0.004,0.001,0.008,0.001,0.012
		c-0.007,1.137-0.924,2.057-2.057,2.076c-0.013,0-0.025-0.002-0.037-0.002c-0.189,0-0.344,0.154-0.344,0.345
		c0,0,0.001,0.001,0.001,0.003c0,0-0.001,0.002-0.001,0.004c0,0.188,0.155,0.344,0.344,0.344c0.011,0,0.024-0.002,0.037-0.002
		c1.132,0.018,2.049,0.939,2.057,2.076C94.888,88.835,94.887,88.838,94.887,88.843z M94.139,86.409
		c0.459-0.255,0.839-0.635,1.093-1.094c0.254,0.459,0.635,0.839,1.094,1.094c-0.459,0.254-0.84,0.634-1.094,1.094
		C94.979,87.043,94.599,86.663,94.139,86.409z"/>
	
		<path fill="none" stroke="#DBDFE3" stroke-width="2" stroke-linecap="round" stroke-linejoin="round" stroke-miterlimit="10" stroke-dasharray="5,10" d="
		M56.007,119.949c0-45.794,37.161-82.919,83-82.919c45.839,0,83,37.125,83,82.919"/>
</g>
</svg>
