<?xml version="1.0" encoding="utf-8"?>
<!-- Generator: Adobe Illustrator 16.0.0, SVG Export Plug-In . SVG Version: 6.00 Build 0)  -->
<!DOCTYPE svg PUBLIC "-//W3C//DTD SVG 1.1//EN" "http://www.w3.org/Graphics/SVG/1.1/DTD/svg11.dtd">
<svg version="1.1" id="Capa_1" xmlns="http://www.w3.org/2000/svg" xmlns:xlink="http://www.w3.org/1999/xlink" x="0px" y="0px"
	 width="279.405px" height="165.584px" viewBox="0 0 279.405 165.584" enable-background="new 0 0 279.405 165.584"
	 xml:space="preserve">
<g enable-background="new    ">
	<g>
		<defs>
			<rect id="SVGID_1_" x="53.476" y="35.033" width="170" height="86"/>
		</defs>
		<clipPath id="SVGID_2_">
			<use xlink:href="#SVGID_1_"  overflow="visible"/>
		</clipPath>
		<g clip-path="url(#SVGID_2_)">
			<defs>
				<rect id="SVGID_3_" x="53.476" y="35.033" width="170" height="86"/>
			</defs>
			<clipPath id="SVGID_4_">
				<use xlink:href="#SVGID_3_"  overflow="visible"/>
			</clipPath>
			
				<path clip-path="url(#SVGID_4_)" fill="none" stroke="#DBDFE3" stroke-width="2" stroke-linecap="round" stroke-linejoin="round" stroke-miterlimit="10" stroke-dasharray="5,10" d="
				M54.476,119.657c0-46.184,37.44-83.625,83.625-83.625c46.184,0,83.624,37.441,83.624,83.625"/>
		</g>
		<g clip-path="url(#SVGID_2_)">
			<defs>
				<rect id="SVGID_5_" x="137.052" y="57.819" width="2.274" height="10.333"/>
			</defs>
			<clipPath id="SVGID_6_">
				<use xlink:href="#SVGID_5_"  overflow="visible"/>
			</clipPath>
			<g clip-path="url(#SVGID_6_)">
				<defs>
					<rect id="SVGID_7_" x="53.476" y="35.033" width="170" height="86"/>
				</defs>
				<clipPath id="SVGID_8_">
					<use xlink:href="#SVGID_7_"  overflow="visible"/>
				</clipPath>
				<g clip-path="url(#SVGID_8_)" enable-background="new    ">
					<g>
						<defs>
							<rect id="SVGID_9_" x="136.476" y="57.033" width="3" height="12"/>
						</defs>
						<clipPath id="SVGID_10_">
							<use xlink:href="#SVGID_9_"  overflow="visible"/>
						</clipPath>
						<g clip-path="url(#SVGID_10_)">
							<defs>
								<path id="SVGID_11_" d="M138.188,68.152c-0.627,0-1.137-0.508-1.137-1.137v-8.058c0-0.629,0.51-1.139,1.137-1.139
									c0.628,0,1.138,0.51,1.138,1.139v8.057C139.326,67.644,138.816,68.152,138.188,68.152"/>
							</defs>
							<clipPath id="SVGID_12_">
								<use xlink:href="#SVGID_11_"  overflow="visible"/>
							</clipPath>
							<g clip-path="url(#SVGID_12_)">
								<defs>
									<rect id="SVGID_13_" x="136.476" y="57.033" width="3" height="12"/>
								</defs>
								<clipPath id="SVGID_14_">
									<use xlink:href="#SVGID_13_"  overflow="visible"/>
								</clipPath>
								<rect x="132.052" y="52.819" clip-path="url(#SVGID_14_)" fill="#8696A9" width="12.274" height="20.333"/>
							</g>
						</g>
					</g>
				</g>
			</g>
		</g>
		<g clip-path="url(#SVGID_2_)">
			<defs>
				<path id="SVGID_15_" d="M142.953,69.282c-0.268,0-0.537-0.092-0.753-0.283c-0.47-0.417-0.515-1.135-0.099-1.606l5.33-6.04
					c0.416-0.472,1.137-0.516,1.605-0.1c0.471,0.415,0.516,1.135,0.1,1.604l-5.33,6.042
					C143.581,69.151,143.268,69.282,142.953,69.282"/>
			</defs>
			<clipPath id="SVGID_16_">
				<use xlink:href="#SVGID_15_"  overflow="visible"/>
			</clipPath>
			<g clip-path="url(#SVGID_16_)">
				<defs>
					<rect id="SVGID_17_" x="53.476" y="35.033" width="170" height="86"/>
				</defs>
				<clipPath id="SVGID_18_">
					<use xlink:href="#SVGID_17_"  overflow="visible"/>
				</clipPath>
				<rect x="136.816" y="55.968" clip-path="url(#SVGID_18_)" fill="#8696A9" width="17.605" height="18.314"/>
			</g>
		</g>
		<g clip-path="url(#SVGID_2_)">
			<defs>
				<path id="SVGID_19_" d="M133.425,69.282c-0.315,0-0.628-0.131-0.854-0.385l-5.33-6.04c-0.417-0.472-0.371-1.189,0.099-1.605
					c0.47-0.415,1.188-0.372,1.605,0.1l5.332,6.04c0.414,0.471,0.37,1.189-0.101,1.607C133.961,69.19,133.692,69.282,133.425,69.282
					"/>
			</defs>
			<clipPath id="SVGID_20_">
				<use xlink:href="#SVGID_19_"  overflow="visible"/>
			</clipPath>
			<g clip-path="url(#SVGID_20_)">
				<defs>
					<rect id="SVGID_21_" x="53.476" y="35.033" width="170" height="86"/>
				</defs>
				<clipPath id="SVGID_22_">
					<use xlink:href="#SVGID_21_"  overflow="visible"/>
				</clipPath>
				<rect x="121.956" y="55.967" clip-path="url(#SVGID_22_)" fill="#8696A9" width="17.605" height="18.315"/>
			</g>
		</g>
		<g clip-path="url(#SVGID_2_)">
			<defs>
				<path id="SVGID_23_" d="M138.188,115.513c-0.627,0-1.137-0.51-1.137-1.137v-8.059c0-0.627,0.51-1.137,1.137-1.137
					c0.628,0,1.138,0.51,1.138,1.137v8.059C139.326,115.003,138.816,115.513,138.188,115.513"/>
			</defs>
			<clipPath id="SVGID_24_">
				<use xlink:href="#SVGID_23_"  overflow="visible"/>
			</clipPath>
			<g clip-path="url(#SVGID_24_)">
				<defs>
					<rect id="SVGID_25_" x="53.476" y="35.033" width="170" height="86"/>
				</defs>
				<clipPath id="SVGID_26_">
					<use xlink:href="#SVGID_25_"  overflow="visible"/>
				</clipPath>
				<rect x="132.052" y="100.181" clip-path="url(#SVGID_26_)" fill="#8696A9" width="12.274" height="20.332"/>
			</g>
		</g>
		<g clip-path="url(#SVGID_2_)">
			<defs>
				<path id="SVGID_27_" d="M128.092,112.364c-0.267,0-0.536-0.094-0.752-0.283c-0.47-0.416-0.516-1.137-0.099-1.605l5.33-6.043
					c0.417-0.471,1.136-0.516,1.605-0.098c0.471,0.414,0.517,1.135,0.101,1.605l-5.332,6.041
					C128.72,112.235,128.407,112.364,128.092,112.364"/>
			</defs>
			<clipPath id="SVGID_28_">
				<use xlink:href="#SVGID_27_"  overflow="visible"/>
			</clipPath>
			<g clip-path="url(#SVGID_28_)">
				<defs>
					<rect id="SVGID_29_" x="53.476" y="35.033" width="170" height="86"/>
				</defs>
				<clipPath id="SVGID_30_">
					<use xlink:href="#SVGID_29_"  overflow="visible"/>
				</clipPath>
				<rect x="121.956" y="99.05" clip-path="url(#SVGID_30_)" fill="#8696A9" width="17.606" height="18.314"/>
			</g>
		</g>
		<g clip-path="url(#SVGID_2_)">
			<defs>
				<path id="SVGID_31_" d="M148.285,112.364c-0.314,0-0.627-0.129-0.853-0.385l-5.331-6.039c-0.416-0.473-0.371-1.191,0.1-1.605
					c0.471-0.418,1.188-0.373,1.605,0.098l5.331,6.041c0.414,0.471,0.371,1.189-0.101,1.605
					C148.822,112.271,148.554,112.364,148.285,112.364"/>
			</defs>
			<clipPath id="SVGID_32_">
				<use xlink:href="#SVGID_31_"  overflow="visible"/>
			</clipPath>
			<g clip-path="url(#SVGID_32_)">
				<defs>
					<rect id="SVGID_33_" x="53.476" y="35.033" width="170" height="86"/>
				</defs>
				<clipPath id="SVGID_34_">
					<use xlink:href="#SVGID_33_"  overflow="visible"/>
				</clipPath>
				<rect x="136.817" y="99.048" clip-path="url(#SVGID_34_)" fill="#8696A9" width="17.604" height="18.316"/>
			</g>
		</g>
		<g clip-path="url(#SVGID_2_)">
			<defs>
				<path id="SVGID_35_" d="M142.008,89.438c-2.967,0-3.197-3.029-3.197-3.957s0.23-3.957,3.197-3.957h4.57
					c0.627,0,1.137,0.51,1.137,1.137c0,0.629-0.51,1.137-1.137,1.137h-4.57c-0.323,0-0.924,0-0.924,1.684
					c0,1.682,0.602,1.682,0.924,1.682c0.627,0,1.137,0.51,1.137,1.137C143.145,88.929,142.635,89.438,142.008,89.438"/>
			</defs>
			<clipPath id="SVGID_36_">
				<use xlink:href="#SVGID_35_"  overflow="visible"/>
			</clipPath>
			<g clip-path="url(#SVGID_36_)">
				<defs>
					<rect id="SVGID_37_" x="53.476" y="35.033" width="170" height="86"/>
				</defs>
				<clipPath id="SVGID_38_">
					<use xlink:href="#SVGID_37_"  overflow="visible"/>
				</clipPath>
				<rect x="133.81" y="76.524" clip-path="url(#SVGID_38_)" fill="#8696A9" width="18.905" height="17.914"/>
			</g>
		</g>
		<g clip-path="url(#SVGID_2_)">
			<defs>
				<path id="SVGID_39_" d="M146.188,95.077h-3.789c-2.968,0-3.198-3.029-3.198-3.957s0.23-3.957,3.198-3.957h3.789
					c0.627,0,1.137,0.51,1.137,1.139c0,0.627-0.51,1.137-1.137,1.137h-3.789c-0.324,0-0.924,0-0.924,1.682s0.602,1.682,0.924,1.682
					h3.789c0.627,0,1.137,0.51,1.137,1.139S146.815,95.077,146.188,95.077"/>
			</defs>
			<clipPath id="SVGID_40_">
				<use xlink:href="#SVGID_39_"  overflow="visible"/>
			</clipPath>
			<g clip-path="url(#SVGID_40_)">
				<defs>
					<rect id="SVGID_41_" x="53.476" y="35.033" width="170" height="86"/>
				</defs>
				<clipPath id="SVGID_42_">
					<use xlink:href="#SVGID_41_"  overflow="visible"/>
				</clipPath>
				<rect x="134.2" y="82.163" clip-path="url(#SVGID_42_)" fill="#8696A9" width="18.124" height="17.914"/>
			</g>
		</g>
		<g clip-path="url(#SVGID_2_)">
			<defs>
				<path id="SVGID_43_" d="M153.223,100.29l-9.978-0.012c-2.055,0-3.489-1.592-3.489-3.871c0-2.375,1.02-3.58,3.03-3.58
					c0.626,0,1.136,0.51,1.136,1.137c0,0.629-0.51,1.137-1.136,1.137c-0.521,0-0.757,0-0.757,1.307c0,0.373,0.088,1.596,1.216,1.596
					l9.979,0.012c6.366,0,10.987-4.141,10.987-9.842c0-5.428-4.414-9.842-9.839-9.842h-11.884c-0.314,0-0.839,0-0.839,1.596
					c0,1.598,0.524,1.598,0.839,1.598c0.627,0,1.137,0.508,1.137,1.137c0,0.627-0.51,1.137-1.137,1.137
					c-0.936,0-3.111-0.377-3.111-3.871s2.176-3.871,3.111-3.871h11.885c6.679,0,12.113,5.436,12.113,12.115
					C166.486,95.081,160.783,100.29,153.223,100.29"/>
			</defs>
			<clipPath id="SVGID_44_">
				<use xlink:href="#SVGID_43_"  overflow="visible"/>
			</clipPath>
			<g clip-path="url(#SVGID_44_)">
				<defs>
					<rect id="SVGID_45_" x="53.476" y="35.033" width="170" height="86"/>
				</defs>
				<clipPath id="SVGID_46_">
					<use xlink:href="#SVGID_45_"  overflow="visible"/>
				</clipPath>
				<rect x="134.377" y="71.056" clip-path="url(#SVGID_46_)" fill="#8696A9" width="37.109" height="34.234"/>
			</g>
		</g>
		<g clip-path="url(#SVGID_2_)">
			<defs>
				<path id="SVGID_47_" d="M156.568,78.487c-0.252-0.191-0.403-0.469-0.441-0.76c-0.326-0.605-2.201-3.619-6.959-3.619
					c-2.61,0-3.023,3.094-3.039,3.225c-0.076,0.623-2.334,0.346-2.257-0.277c0.224-1.807,1.616-5.223,5.298-5.223
					c6.502,0,8.924,4.514,9.177,5.303c0.206,0.652-0.079,1.139-0.415,1.377L156.568,78.487z"/>
			</defs>
			<clipPath id="SVGID_48_">
				<use xlink:href="#SVGID_47_"  overflow="visible"/>
			</clipPath>
			<g clip-path="url(#SVGID_48_)">
				<defs>
					<rect id="SVGID_49_" x="53.476" y="35.033" width="170" height="86"/>
				</defs>
				<clipPath id="SVGID_50_">
					<use xlink:href="#SVGID_49_"  overflow="visible"/>
				</clipPath>
				<rect x="138.87" y="66.833" clip-path="url(#SVGID_50_)" fill="#8696A9" width="24.546" height="16.679"/>
			</g>
		</g>
		<g clip-path="url(#SVGID_2_)">
			<defs>
				<path id="SVGID_51_" d="M134.37,89.438c-0.627,0-1.136-0.51-1.136-1.137c0-0.629,0.509-1.139,1.136-1.139
					c0.322,0,0.923,0,0.923-1.682s-0.602-1.682-0.923-1.682h-4.571c-0.626,0-1.137-0.51-1.137-1.137
					c0-0.629,0.511-1.139,1.137-1.139h4.571c2.967,0,3.197,3.029,3.197,3.957C137.567,86.411,137.337,89.438,134.37,89.438"/>
			</defs>
			<clipPath id="SVGID_52_">
				<use xlink:href="#SVGID_51_"  overflow="visible"/>
			</clipPath>
			<g clip-path="url(#SVGID_52_)">
				<defs>
					<rect id="SVGID_53_" x="53.476" y="35.033" width="170" height="86"/>
				</defs>
				<clipPath id="SVGID_54_">
					<use xlink:href="#SVGID_53_"  overflow="visible"/>
				</clipPath>
				<rect x="123.662" y="76.524" clip-path="url(#SVGID_54_)" fill="#8696A9" width="18.904" height="17.914"/>
			</g>
		</g>
		<g clip-path="url(#SVGID_2_)">
			<defs>
				<path id="SVGID_55_" d="M133.979,95.077h-3.788c-0.627,0-1.137-0.508-1.137-1.137c0-0.627,0.51-1.137,1.137-1.137h3.788
					c0.323,0,0.924,0,0.924-1.682s-0.602-1.682-0.924-1.682h-3.788c-0.627,0-1.137-0.51-1.137-1.139s0.51-1.139,1.137-1.139h3.788
					c2.967,0,3.198,3.029,3.198,3.959C137.177,92.05,136.946,95.077,133.979,95.077"/>
			</defs>
			<clipPath id="SVGID_56_">
				<use xlink:href="#SVGID_55_"  overflow="visible"/>
			</clipPath>
			<g clip-path="url(#SVGID_56_)">
				<defs>
					<rect id="SVGID_57_" x="53.476" y="35.033" width="170" height="86"/>
				</defs>
				<clipPath id="SVGID_58_">
					<use xlink:href="#SVGID_57_"  overflow="visible"/>
				</clipPath>
				<rect x="124.054" y="82.163" clip-path="url(#SVGID_58_)" fill="#8696A9" width="18.123" height="17.914"/>
			</g>
		</g>
		<g clip-path="url(#SVGID_2_)">
			<defs>
				<path id="SVGID_59_" d="M123.157,100.29c-7.563,0-13.264-5.209-13.264-12.117c0-6.682,5.433-12.115,12.112-12.115h11.885
					c0.936,0,3.111,0.377,3.111,3.871s-2.175,3.871-3.111,3.871c-0.627,0-1.137-0.508-1.137-1.137s0.51-1.139,1.137-1.139
					c0.314,0,0.838,0,0.838-1.596s-0.524-1.596-0.838-1.596h-11.885c-5.425,0-9.84,4.414-9.84,9.842
					c0,5.703,4.623,9.842,10.989,9.842l9.976-0.012c1.13,0,1.218-1.223,1.218-1.598c0-1.303-0.237-1.303-0.756-1.303
					c-0.628,0-1.138-0.51-1.138-1.139c0-0.627,0.51-1.137,1.138-1.137c2.01,0,3.03,1.203,3.03,3.578
					c0,2.281-1.437,3.873-3.491,3.873L123.157,100.29z"/>
			</defs>
			<clipPath id="SVGID_60_">
				<use xlink:href="#SVGID_59_"  overflow="visible"/>
			</clipPath>
			<g clip-path="url(#SVGID_60_)">
				<defs>
					<rect id="SVGID_61_" x="53.476" y="35.033" width="170" height="86"/>
				</defs>
				<clipPath id="SVGID_62_">
					<use xlink:href="#SVGID_61_"  overflow="visible"/>
				</clipPath>
				<rect x="104.893" y="71.058" clip-path="url(#SVGID_62_)" fill="#8696A9" width="37.109" height="34.232"/>
			</g>
		</g>
		<g clip-path="url(#SVGID_2_)">
			<defs>
				<path id="SVGID_63_" d="M118.447,78.513c-0.336-0.238-0.621-0.725-0.413-1.377c0.355-1.119,2.957-5.303,9.176-5.303
					c3.68,0,5.075,3.416,5.298,5.223c0.077,0.623-2.181,0.9-2.258,0.277c0-0.004-0.123-0.898-0.61-1.748
					c-0.569-0.994-1.364-1.477-2.429-1.477c-4.757,0-6.632,3.012-6.959,3.619C120.212,78.019,118.643,78.651,118.447,78.513"/>
			</defs>
			<clipPath id="SVGID_64_">
				<use xlink:href="#SVGID_63_"  overflow="visible"/>
			</clipPath>
			<g clip-path="url(#SVGID_64_)">
				<defs>
					<rect id="SVGID_65_" x="53.476" y="35.033" width="170" height="86"/>
				</defs>
				<clipPath id="SVGID_66_">
					<use xlink:href="#SVGID_65_"  overflow="visible"/>
				</clipPath>
				<rect x="112.963" y="66.833" clip-path="url(#SVGID_66_)" fill="#8696A9" width="24.547" height="16.699"/>
			</g>
		</g>
		<g clip-path="url(#SVGID_2_)">
			<defs>
				<path id="SVGID_67_" d="M177.229,67.687c0,0.214,0.175,0.389,0.389,0.389c0.002,0,0.002,0,0.002,0h0.001
					c0.215,0,0.389-0.175,0.389-0.389v-0.014c0.008-1.285,1.044-2.329,2.325-2.35c0.014,0.001,0.027,0.002,0.039,0.002
					c0.216,0,0.39-0.176,0.39-0.39v-0.004v-0.003c0-0.214-0.174-0.39-0.39-0.39c-0.012,0-0.025,0.003-0.039,0.003
					c-1.281-0.021-2.317-1.064-2.325-2.35v-0.014c0-0.215-0.174-0.39-0.389-0.39h-0.001h-0.002c-0.214,0-0.389,0.175-0.389,0.39
					c0,0.005,0.001,0.009,0.001,0.014c-0.009,1.285-1.044,2.328-2.325,2.35c-0.014,0-0.027-0.003-0.041-0.003
					c-0.213,0-0.389,0.176-0.389,0.39c0,0.002,0,0.003,0,0.003c0,0.002,0,0.003,0,0.004c0,0.214,0.176,0.39,0.389,0.39
					c0.014,0,0.027-0.001,0.041-0.002c1.281,0.021,2.316,1.064,2.325,2.35C177.229,67.677,177.229,67.682,177.229,67.687
					 M176.383,64.932c0.52-0.287,0.949-0.717,1.236-1.237c0.287,0.521,0.717,0.95,1.236,1.237c-0.52,0.288-0.949,0.719-1.236,1.238
					C177.332,65.651,176.902,65.22,176.383,64.932"/>
			</defs>
			<clipPath id="SVGID_68_">
				<use xlink:href="#SVGID_67_"  overflow="visible"/>
			</clipPath>
			<g clip-path="url(#SVGID_68_)">
				<defs>
					<rect id="SVGID_69_" x="53.476" y="35.033" width="170" height="86"/>
				</defs>
				<clipPath id="SVGID_70_">
					<use xlink:href="#SVGID_69_"  overflow="visible"/>
				</clipPath>
				<rect x="169.475" y="56.79" clip-path="url(#SVGID_70_)" fill="#B0E3D7" width="16.288" height="16.286"/>
			</g>
		</g>
		<g clip-path="url(#SVGID_2_)">
			<defs>
				<path id="SVGID_71_" d="M170.609,77.159c0,0.273,0.223,0.494,0.496,0.494h0.001h0.003c0.271,0,0.493-0.221,0.493-0.494v-0.018
					c0.011-1.637,1.329-2.963,2.958-2.988c0.018,0,0.033,0.002,0.051,0.002c0.273,0,0.495-0.223,0.495-0.494v-0.004v-0.004
					c0-0.275-0.222-0.498-0.495-0.498c-0.018,0-0.033,0.002-0.051,0.002c-1.629-0.025-2.947-1.352-2.958-2.988v-0.018
					c0-0.273-0.222-0.494-0.493-0.494h-0.003h-0.001c-0.273,0-0.496,0.221-0.496,0.494c0,0.006,0.002,0.012,0.002,0.018
					c-0.01,1.637-1.328,2.963-2.957,2.988c-0.018,0-0.036-0.002-0.053-0.002c-0.271,0-0.495,0.223-0.495,0.496
					c0,0,0.001,0.002,0.001,0.004c0,0-0.001,0.002-0.001,0.006c0,0.271,0.224,0.494,0.495,0.494c0.017,0,0.035-0.002,0.053-0.002
					c1.629,0.025,2.947,1.352,2.957,2.988C170.611,77.147,170.609,77.151,170.609,77.159 M169.535,73.655
					c0.66-0.367,1.206-0.912,1.571-1.574c0.366,0.662,0.913,1.207,1.573,1.574c-0.66,0.365-1.207,0.912-1.573,1.574
					C170.741,74.567,170.195,74.021,169.535,73.655"/>
			</defs>
			<clipPath id="SVGID_72_">
				<use xlink:href="#SVGID_71_"  overflow="visible"/>
			</clipPath>
			<g clip-path="url(#SVGID_72_)">
				<defs>
					<rect id="SVGID_73_" x="53.476" y="35.033" width="170" height="86"/>
				</defs>
				<clipPath id="SVGID_74_">
					<use xlink:href="#SVGID_73_"  overflow="visible"/>
				</clipPath>
				<rect x="162.106" y="64.657" clip-path="url(#SVGID_74_)" fill="#C5E78A" width="18" height="17.997"/>
			</g>
		</g>
		<g clip-path="url(#SVGID_2_)">
			<defs>
				<path id="SVGID_75_" d="M107.077,109.442c0,0.355,0.289,0.645,0.643,0.645c0.001,0,0.001-0.002,0.001-0.002l0.002,0.002
					c0.355,0,0.642-0.289,0.642-0.645v-0.021c0.013-2.125,1.726-3.85,3.842-3.885c0.023,0.002,0.045,0.004,0.066,0.004
					c0.356,0,0.644-0.289,0.644-0.643v-0.008v-0.004c0-0.354-0.287-0.645-0.644-0.645c-0.021,0-0.042,0.004-0.066,0.004
					c-2.116-0.035-3.829-1.758-3.842-3.883v-0.021c0-0.355-0.287-0.645-0.642-0.645h-0.002h-0.001c-0.354,0-0.643,0.289-0.643,0.645
					c0,0.008,0.001,0.014,0.001,0.021c-0.013,2.125-1.726,3.848-3.842,3.883c-0.022,0-0.045-0.004-0.068-0.004
					c-0.354,0-0.643,0.291-0.643,0.645c0,0.002,0.001,0.004,0.001,0.004c0,0.004-0.001,0.004-0.001,0.008
					c0,0.354,0.29,0.643,0.643,0.643c0.022,0,0.046-0.002,0.068-0.004c2.116,0.035,3.828,1.76,3.842,3.885
					C107.078,109.427,107.077,109.435,107.077,109.442 M105.68,104.89c0.858-0.475,1.567-1.186,2.042-2.045
					c0.476,0.859,1.186,1.57,2.044,2.045c-0.859,0.477-1.569,1.188-2.044,2.047C107.247,106.077,106.538,105.366,105.68,104.89"/>
			</defs>
			<clipPath id="SVGID_76_">
				<use xlink:href="#SVGID_75_"  overflow="visible"/>
			</clipPath>
			<g clip-path="url(#SVGID_76_)">
				<defs>
					<rect id="SVGID_77_" x="53.476" y="35.033" width="170" height="86"/>
				</defs>
				<clipPath id="SVGID_78_">
					<use xlink:href="#SVGID_77_"  overflow="visible"/>
				</clipPath>
				<rect x="97.525" y="94.696" clip-path="url(#SVGID_78_)" fill="#B0E3D7" width="20.393" height="20.391"/>
			</g>
		</g>
		<g clip-path="url(#SVGID_2_)">
			<defs>
				<path id="SVGID_79_" d="M92.979,88.532c0,0.273,0.222,0.494,0.495,0.494h0.001h0.003c0.271,0,0.494-0.221,0.494-0.494v-0.018
					c0.01-1.637,1.328-2.963,2.958-2.988c0.019,0,0.034,0.002,0.051,0.002c0.273,0,0.495-0.223,0.495-0.494V85.03v-0.004
					c0-0.275-0.222-0.498-0.495-0.498c-0.017,0-0.033,0.002-0.051,0.002c-1.629-0.025-2.947-1.352-2.958-2.988v-0.018
					c0-0.273-0.222-0.494-0.494-0.494h-0.003h-0.001c-0.273,0-0.495,0.221-0.495,0.494c0,0.008,0.001,0.012,0.001,0.018
					c-0.011,1.637-1.329,2.963-2.958,2.988c-0.017,0-0.035-0.002-0.052-0.002c-0.272,0-0.495,0.223-0.495,0.496
					c0,0,0.001,0.002,0.001,0.004c0,0-0.001,0.002-0.001,0.006c0,0.271,0.223,0.494,0.495,0.494c0.017,0,0.036-0.002,0.052-0.002
					c1.629,0.025,2.947,1.352,2.958,2.988C92.98,88.521,92.979,88.526,92.979,88.532 M91.904,85.028
					c0.661-0.367,1.207-0.912,1.571-1.574c0.366,0.662,0.914,1.207,1.574,1.574c-0.66,0.367-1.208,0.912-1.574,1.574
					C93.11,85.94,92.564,85.396,91.904,85.028"/>
			</defs>
			<clipPath id="SVGID_80_">
				<use xlink:href="#SVGID_79_"  overflow="visible"/>
			</clipPath>
			<g clip-path="url(#SVGID_80_)">
				<defs>
					<rect id="SVGID_81_" x="53.476" y="35.033" width="170" height="86"/>
				</defs>
				<clipPath id="SVGID_82_">
					<use xlink:href="#SVGID_81_"  overflow="visible"/>
				</clipPath>
				<rect x="84.475" y="76.03" clip-path="url(#SVGID_82_)" fill="#C5E78A" width="18" height="17.996"/>
			</g>
		</g>
	</g>
</g>
</svg>
