<?xml version="1.0" encoding="utf-8"?>
<!-- Generator: Adobe Illustrator 16.0.0, SVG Export Plug-In . SVG Version: 6.00 Build 0)  -->
<!DOCTYPE svg PUBLIC "-//W3C//DTD SVG 1.1//EN" "http://www.w3.org/Graphics/SVG/1.1/DTD/svg11.dtd">
<svg version="1.1" id="Capa_1" xmlns="http://www.w3.org/2000/svg" xmlns:xlink="http://www.w3.org/1999/xlink" x="0px" y="0px"
	 width="841.89px" height="595.28px" viewBox="0 0 841.89 595.28" enable-background="new 0 0 841.89 595.28" xml:space="preserve">
<g>
	<circle fill="#FFFFFF" cx="412.416" cy="280.141" r="142.724"/>
	<g>
		<path fill="none" stroke="#A4CAD0" stroke-width="4" stroke-linecap="round" stroke-miterlimit="10" d="M290.346,355.405
			c25.117,41.245,70.509,68.788,122.331,68.788c79.048,0,143.125-64.079,143.125-143.125c0-79.046-64.077-143.126-143.125-143.126
			c-31.628,0-60.862,10.26-84.554,27.634"/>
		<path fill="none" stroke="#A4CAD0" stroke-width="4" stroke-linecap="round" stroke-miterlimit="10" d="M273.375,314.07
			c1.861,7.893,4.379,15.533,7.486,22.859"/>
		<path fill="none" stroke="#A4CAD0" stroke-width="4" stroke-linecap="round" stroke-miterlimit="10" d="M286.565,213.327
			c-10.856,20.167-17.015,43.234-17.015,67.742"/>
	</g>
</g>
<g>
	<g>
		<g>
			<g>
				
					<line fill="none" stroke="#9FC3C8" stroke-width="3" stroke-linecap="round" stroke-miterlimit="10" x1="236.909" y1="277.889" x2="237.97" y2="276.829"/>
				
					<line fill="none" stroke="#9FC3C8" stroke-width="3" stroke-linecap="round" stroke-miterlimit="10" stroke-dasharray="2.8409,7.5758" x1="243.327" y1="271.471" x2="284.843" y2="229.957"/>
				
					<line fill="none" stroke="#9FC3C8" stroke-width="3" stroke-linecap="round" stroke-miterlimit="10" x1="287.521" y1="227.278" x2="288.582" y2="226.217"/>
			</g>
		</g>
		
			<line fill="none" stroke="#9FC3C8" stroke-width="3" stroke-linecap="round" stroke-miterlimit="10" stroke-dasharray="3,8" x1="288.582" y1="226.217" x2="315.637" y2="253.272"/>
		
			<line fill="none" stroke="#9FC3C8" stroke-width="3" stroke-linecap="round" stroke-miterlimit="10" stroke-dasharray="3,8" x1="315.637" y1="253.272" x2="415.396" y2="153.512"/>
		
			<line fill="none" stroke="#9FC3C8" stroke-width="3" stroke-linecap="round" stroke-miterlimit="10" stroke-dasharray="3,8" x1="415.396" y1="153.512" x2="426.713" y2="164.828"/>
		
			<line fill="none" stroke="#9FC3C8" stroke-width="3" stroke-linecap="round" stroke-miterlimit="10" stroke-dasharray="3,8" x1="426.713" y1="164.828" x2="464.526" y2="127.014"/>
		
			<line fill="none" stroke="#9FC3C8" stroke-width="3" stroke-linecap="round" stroke-miterlimit="10" stroke-dasharray="3,8" x1="464.526" y1="127.014" x2="474.029" y2="136.518"/>
		
			<line fill="none" stroke="#9FC3C8" stroke-width="3" stroke-linecap="round" stroke-miterlimit="10" stroke-dasharray="3,8" x1="475.779" y1="136.518" x2="510.447" y2="101.849"/>
	</g>
	<path fill="#FFFFFF" d="M292.11,158.479c0-6.519-5.292-11.812-11.818-11.812c-1.4,0-2.744,0.258-3.985,0.712
		c-1.436-6.093-6.894-10.64-13.424-10.64c-7.519,0-13.635,6.03-13.784,13.519c-0.667-0.138-1.356-0.212-2.06-0.212
		c-5.594,0-10.129,4.53-10.129,10.125c0,4.579,3.043,8.441,7.208,9.696c0.838,0.276,1.729,0.433,2.666,0.433h34.101
		c1.037,0,2.041-0.202,2.961-0.549C288.633,168.248,292.11,163.77,292.11,158.479z"/>
	<path fill="#FFFFFF" d="M538.018,121.68c0-5.59,4.537-10.129,10.134-10.129c1.2,0,2.353,0.22,3.417,0.609
		c1.231-5.225,5.911-9.123,11.511-9.123c6.446,0,11.691,5.171,11.819,11.592c0.572-0.118,1.163-0.182,1.766-0.182
		c4.797,0,8.686,3.885,8.686,8.682c0,3.926-2.609,7.238-6.181,8.314c-0.719,0.236-1.482,0.371-2.286,0.371h-29.24
		c-0.889,0-1.75-0.174-2.539-0.471C540.999,130.055,538.018,126.215,538.018,121.68z"/>
	<circle fill="#9FC3C8" cx="415.397" cy="153.512" r="4.375"/>
	<circle fill="#9FC3C8" cx="426.713" cy="164.827" r="4.375"/>
	<circle fill="#9FC3C8" cx="463.417" cy="127.014" r="4.375"/>
	<circle fill="#9FC3C8" cx="474.67" cy="136.517" r="4.375"/>
	<polygon fill="#9FC3C8" stroke="#9FC3C8" stroke-linejoin="round" stroke-miterlimit="10" points="504.441,98.938 519.045,92.997 
		513.529,107.767 	"/>
</g>
<g>
	<path fill="none" stroke="#A4CAD0" stroke-width="2" stroke-linecap="round" stroke-miterlimit="10" d="M545.427,312.428"/>
</g>
<g>
	<ellipse fill="#C7CBD0" cx="408.919" cy="364.74" rx="81.293" ry="4.697"/>
	<g>
		<polygon fill="#319B8A" points="400.484,328.684 409.715,341.555 410.127,341.26 410.537,341.555 419.768,328.684 
			418.919,328.074 410.127,340.334 401.333,328.074 		"/>
		<polygon fill="#319B8A" points="373.246,362.504 408.554,313.27 411.804,315.604 376.496,364.838 		"/>
		
			<rect x="361.588" y="337.999" transform="matrix(-0.5828 0.8126 -0.8126 -0.5828 895.4103 217.4553)" fill="#6FAFAC" width="60.586" height="1.185"/>
		<path fill="#464445" d="M370.625,365.865l2.779-3.867l3.521,2.529l-2.776,3.867c-0.378,0.527-1.11,0.646-1.638,0.27l-1.616-1.162
			C370.368,367.125,370.247,366.393,370.625,365.865z"/>
		<polygon fill="#319B8A" points="447.006,362.504 411.698,313.27 408.448,315.604 443.758,364.838 		"/>
		
			<rect x="398.078" y="337.999" transform="matrix(0.5828 0.8126 -0.8126 0.5828 453.8817 -206.8392)" fill="#6FAFAC" width="60.586" height="1.185"/>
		<path fill="#464445" d="M449.627,365.865l-2.777-3.867l-3.522,2.529l2.776,3.867c0.378,0.527,1.112,0.646,1.638,0.27l1.617-1.162
			C449.884,367.125,450.005,366.393,449.627,365.865z"/>
		<rect x="408.015" y="169.033" fill="#319B8A" width="3.999" height="173.332"/>
		<rect x="408.628" y="169.033" fill="#6FAFAC" width="1.186" height="173.332"/>
		<path fill="#6FAFAC" d="M407.845,169.512v-1.088c0-0.219,0.179-0.396,0.396-0.396h3.544c0.219,0,0.396,0.177,0.396,0.396v1.088
			H407.845z"/>
		<rect x="407.845" y="341.861" fill="#464445" width="4.337" height="1.486"/>
		
			<radialGradient id="SVGID_1_" cx="-89.6533" cy="-311.9463" r="50.2703" gradientTransform="matrix(1.4453 0 0 1.4453 539.6016 693.752)" gradientUnits="userSpaceOnUse">
			<stop  offset="0" style="stop-color:#FFFFFF"/>
			<stop  offset="0.5594" style="stop-color:#FCFCFC"/>
			<stop  offset="1" style="stop-color:#F2F2F2"/>
		</radialGradient>
		<rect x="324.838" y="185.443" fill="url(#SVGID_1_)" width="170.374" height="114.905"/>
		<rect x="323.359" y="180.059" fill="#319B8A" width="173.333" height="8.266"/>
		<rect x="323.359" y="184.606" fill="#6FAFAC" width="173.333" height="2.447"/>
		<rect x="323.359" y="297.869" fill="#319B8A" width="173.333" height="3.038"/>
		<rect x="323.359" y="299.539" fill="#6FAFAC" width="173.333" height="0.9"/>
		<path fill="#6FAFAC" d="M496.845,188.672h-0.656v-8.961h0.656c0.458,0,0.829,0.371,0.829,0.829v7.304
			C497.674,188.302,497.303,188.672,496.845,188.672z"/>
		<path fill="#6FAFAC" d="M323.838,188.672h-0.765c-0.398,0-0.721-0.321-0.721-0.72v-7.521c0-0.397,0.322-0.721,0.721-0.721h0.765
			V188.672z"/>
	</g>
	<rect x="333.078" y="240.265" fill-rule="evenodd" clip-rule="evenodd" fill="#C7CBD0" width="151.628" height="49.6"/>
	<path fill-rule="evenodd" clip-rule="evenodd" fill="#C7CBD0" d="M352.216,241.973c0.939,0,1.707-0.768,1.707-1.708
		c0-0.941-0.768-1.708-1.707-1.708c-0.94,0-1.708,0.767-1.708,1.708C350.508,241.206,351.275,241.973,352.216,241.973z"/>
	<path fill-rule="evenodd" clip-rule="evenodd" fill="#C7CBD0" d="M366.956,242.385c0.939,0,1.707-0.768,1.707-1.708
		c0-0.941-0.768-1.708-1.707-1.708c-0.94,0-1.708,0.767-1.708,1.708C365.248,241.618,366.016,242.385,366.956,242.385z"/>
	<path fill-rule="evenodd" clip-rule="evenodd" fill="#C7CBD0" d="M369.098,243.069c0.94,0,1.708-0.767,1.708-1.708
		c0-0.939-0.768-1.706-1.708-1.706s-1.708,0.767-1.708,1.706C367.39,242.302,368.157,243.069,369.098,243.069z"/>
	<path fill-rule="evenodd" clip-rule="evenodd" fill="#C7CBD0" d="M350.301,242.686c0.941,0,1.708-0.767,1.708-1.706
		c0-0.941-0.767-1.708-1.708-1.708c-0.94,0-1.706,0.767-1.706,1.708C348.595,241.919,349.36,242.686,350.301,242.686z"/>
	<g>
		<g>
			<path fill-rule="evenodd" clip-rule="evenodd" fill="#AAAFB3" d="M457.729,242.893c-8.217-16.556,6.187-18.554,0.832-36.079
				l0.001-0.002c8.141,14.387-7.144,19.636,1.05,34.942c0.313,0.521,0.147,1.196-0.372,1.512
				C458.718,243.58,458.043,243.413,457.729,242.893z"/>
			<path fill-rule="evenodd" clip-rule="evenodd" fill="#AAAFB3" d="M457.256,229.465c1.384-7.031-6.146-13.21-13.221-11.39
				c6.26,0.266,13.301,4.278,11.708,10.905c-0.134,0.419,0.098,0.865,0.514,0.999C456.675,230.113,457.122,229.883,457.256,229.465z
				"/>
			<path fill-rule="evenodd" clip-rule="evenodd" fill="#AAAFB3" d="M457.347,225.367c3.064-5.401,8.706-6.39,14.004-3.391
				c-5.317-1.53-10.104-1.511-12.896,3.904c-0.142,0.306-0.505,0.439-0.812,0.297C457.338,226.036,457.205,225.672,457.347,225.367z
				"/>
			<path fill-rule="evenodd" clip-rule="evenodd" fill="#AAAFB3" d="M452.976,221.096c-1.826-2.138-1.816-5.176,0.388-6.925
				c-0.969,2.308-1.607,4.152,0.374,6.133c0.219,0.21,0.226,0.559,0.015,0.777S453.192,221.305,452.976,221.096z"/>
			<path fill-rule="evenodd" clip-rule="evenodd" fill="#AAAFB3" d="M459.833,215.83c0.303-2.816,2.576-4.973,5.369-4.515
				c-2.294,0.945-4.094,1.716-4.147,4.521c-0.003,0.338-0.277,0.61-0.615,0.607C460.103,216.441,459.83,216.167,459.833,215.83z"/>
			<path fill-rule="evenodd" clip-rule="evenodd" fill="#AAAFB3" d="M463.049,220.662c2.839-0.408,5.188,1.584,5.287,4.397
				c-1.28-2.153-2.461-3.912-5.234-3.5C462.439,221.671,462.199,220.803,463.049,220.662z"/>
		</g>
		<g>
			<path fill-rule="evenodd" clip-rule="evenodd" fill="#638033" d="M448.361,204.222c1.304-0.198,2.917,1.288,3.362,2.319
				c0.949,2.188,4.928,3.369,7.182,0.832l0.03-0.064C457.761,204.07,454.491,200.645,448.361,204.222z"/>
			<path fill-rule="evenodd" clip-rule="evenodd" fill="#6FAFAC" d="M448.361,204.222c1.304-0.198,2.917,1.288,3.362,2.319
				c1.213,2.799,5.325,3.147,7.182,0.832c-1.18-1.163-4.507-2.994-7.289-3.328c2.705-0.171,6.045,1.271,7.319,3.264
				C457.022,202.032,453.039,201.492,448.361,204.222z"/>
		</g>
		<g>
			<path fill-rule="evenodd" clip-rule="evenodd" fill="#638033" d="M473.463,212.521c-0.883-0.567-2.539-0.013-3.198,0.592
				c-1.4,1.283-4.677,0.846-5.489-1.729l-0.002-0.058C466.681,209.353,470.171,207.929,473.463,212.521z"/>
			<path fill-rule="evenodd" clip-rule="evenodd" fill="#6FAFAC" d="M473.463,212.521c-0.883-0.567-2.539-0.013-3.198,0.592
				c-1.791,1.641-4.893,0.555-5.489-1.729c1.235-0.464,4.249-0.711,6.38-0.048c-1.911-1.005-4.808-1.043-6.382-0.01
				C467.88,208.113,470.951,209.015,473.463,212.521z"/>
		</g>
		<g>
			<path fill-rule="evenodd" clip-rule="evenodd" fill="#638033" d="M436.878,221.567c0.683-0.798,2.428-0.742,3.234-0.354
				c1.711,0.825,4.722-0.536,4.758-3.237l-0.015-0.055C442.461,216.58,438.708,216.221,436.878,221.567z"/>
			<path fill-rule="evenodd" clip-rule="evenodd" fill="#6FAFAC" d="M436.878,221.567c0.683-0.798,2.428-0.743,3.234-0.354
				c2.188,1.055,4.846-0.876,4.758-3.237c-1.315-0.088-4.273,0.542-6.123,1.791c1.541-1.512,4.303-2.382,6.108-1.846
				C440.955,215.738,438.274,217.486,436.878,221.567z"/>
		</g>
		<g>
			<path fill-rule="evenodd" clip-rule="evenodd" fill="#638033" d="M458.386,212.398c-0.66-0.04-1.4,0.774-1.578,1.31
				c-0.377,1.137-2.312,1.904-3.554,0.737l-0.017-0.032C453.679,212.741,455.162,210.882,458.386,212.398z"/>
			<path fill-rule="evenodd" clip-rule="evenodd" fill="#6FAFAC" d="M458.386,212.398c-0.66-0.04-1.4,0.774-1.578,1.31
				c-0.48,1.453-2.522,1.811-3.554,0.737c0.538-0.636,2.121-1.698,3.497-1.989c-1.36,0.034-2.967,0.903-3.514,1.957
				C453.958,211.689,455.925,211.242,458.386,212.398z"/>
		</g>
		<g>
			<path fill-rule="evenodd" clip-rule="evenodd" fill="#638033" d="M475.989,226.358c-0.308-0.718-1.559-1.069-2.219-0.973
				c-1.398,0.202-3.233-1.436-2.658-3.362l0.024-0.036C473.136,221.569,475.884,222.151,475.989,226.358z"/>
			<path fill-rule="evenodd" clip-rule="evenodd" fill="#6FAFAC" d="M475.989,226.358c-0.308-0.718-1.559-1.069-2.219-0.973
				c-1.789,0.26-3.247-1.705-2.658-3.362c0.955,0.23,2.915,1.339,3.951,2.64c-0.757-1.418-2.525-2.654-3.927-2.676
				C474.394,221.307,475.907,223.147,475.989,226.358z"/>
		</g>
		<g>
			<path fill-rule="evenodd" clip-rule="evenodd" fill="#638033" d="M468.72,230.853c0.272-0.679-0.324-1.74-0.825-2.112
				c-1.062-0.791-1.192-3.09,0.465-3.986l0.038-0.008C469.999,225.793,471.433,227.997,468.72,230.853z"/>
			<path fill-rule="evenodd" clip-rule="evenodd" fill="#6FAFAC" d="M468.72,230.853c0.272-0.679-0.324-1.74-0.825-2.112
				c-1.358-1.011-1.021-3.277,0.465-3.986c0.479,0.787,1.044,2.817,0.869,4.362c0.438-1.439,0.084-3.428-0.831-4.37
				C471.006,226.454,470.79,228.673,468.72,230.853z"/>
		</g>
		<g>
			<path fill-rule="evenodd" clip-rule="evenodd" fill="#638033" d="M450.094,213.928c-0.671,0.179-1.135,1.235-1.134,1.825
				c0.004,1.255-1.665,2.66-3.285,1.912l-0.027-0.025C445.531,215.833,446.387,213.495,450.094,213.928z"/>
			<path fill-rule="evenodd" clip-rule="evenodd" fill="#6FAFAC" d="M450.094,213.928c-0.671,0.179-1.135,1.235-1.134,1.825
				c0.005,1.605-1.904,2.638-3.285,1.912c0.323-0.809,1.543-2.392,2.813-3.137c-1.341,0.486-2.647,1.883-2.841,3.111
				C445.459,214.696,447.264,213.597,450.094,213.928z"/>
		</g>
		<g>
			<path fill-rule="evenodd" clip-rule="evenodd" fill="#638033" d="M455.906,218.701c0.249-0.502,1.16-0.702,1.629-0.606
				c0.993,0.204,2.376-0.895,2.042-2.298l-0.017-0.027C458.146,215.387,456.154,215.692,455.906,218.701z"/>
			<path fill-rule="evenodd" clip-rule="evenodd" fill="#6FAFAC" d="M455.906,218.701c0.249-0.502,1.16-0.702,1.629-0.606
				c1.27,0.261,2.396-1.088,2.042-2.298c-0.694,0.125-2.144,0.84-2.938,1.728c0.599-0.985,1.917-1.797,2.921-1.755
				C457.256,215.149,456.096,216.404,455.906,218.701z"/>
		</g>
		<g>
			<path fill-rule="evenodd" clip-rule="evenodd" fill="#638033" d="M463.754,208.436c-0.453-0.359-1.392-0.146-1.786,0.149
				c-0.838,0.627-2.608,0.207-2.914-1.248l0.002-0.032C460.21,206.329,462.2,205.739,463.754,208.436z"/>
			<path fill-rule="evenodd" clip-rule="evenodd" fill="#6FAFAC" d="M463.754,208.436c-0.453-0.359-1.392-0.146-1.786,0.149
				c-1.071,0.802-2.713,0.036-2.914-1.248c0.702-0.188,2.368-0.158,3.499,0.323c-0.991-0.656-2.577-0.836-3.497-0.355
				C460.935,205.714,462.569,206.377,463.754,208.436z"/>
		</g>
		<g>
			<path fill-rule="evenodd" clip-rule="evenodd" fill="#953E82" d="M447.063,220.693c1.122-0.957,2.235-0.302,2.235,0.972
				c0,1.275-1.026,2.309-2.292,2.309c-1.268,0-2.295-1.033-2.295-2.309C444.712,220.391,445.798,219.879,447.063,220.693z"/>
			<g>
				<path fill-rule="evenodd" clip-rule="evenodd" fill="#638033" d="M449.296,219.124c-0.329,0.082-0.567,0.593-0.572,0.882
					c-0.011,0.614-0.842,1.284-1.627,0.902l-0.013-0.014C447.046,220.009,447.488,218.875,449.296,219.124z"/>
				<path fill-rule="evenodd" clip-rule="evenodd" fill="#8DAF44" d="M449.296,219.124c-0.329,0.082-0.567,0.593-0.572,0.882
					c-0.014,0.785-0.957,1.271-1.627,0.902c0.167-0.393,0.78-1.153,1.409-1.506c-0.661,0.224-1.313,0.895-1.422,1.492
					C447.022,219.453,447.917,218.934,449.296,219.124z"/>
			</g>
		</g>
		<g>
			<path fill-rule="evenodd" clip-rule="evenodd" fill="#953E82" d="M464.337,214.485c1.122-0.957,2.235-0.302,2.235,0.972
				c0,1.275-1.026,2.31-2.293,2.31s-2.294-1.034-2.294-2.31C461.985,214.183,463.071,213.673,464.337,214.485z"/>
			<g>
				<path fill-rule="evenodd" clip-rule="evenodd" fill="#638033" d="M466.569,212.917c-0.329,0.08-0.567,0.592-0.572,0.88
					c-0.011,0.614-0.842,1.284-1.625,0.902l-0.015-0.013C464.319,213.801,464.762,212.667,466.569,212.917z"/>
				<path fill-rule="evenodd" clip-rule="evenodd" fill="#8DAF44" d="M466.569,212.917c-0.329,0.08-0.567,0.592-0.572,0.88
					c-0.014,0.785-0.958,1.271-1.625,0.902c0.165-0.393,0.778-1.153,1.407-1.506c-0.661,0.225-1.313,0.895-1.422,1.493
					C464.296,213.245,465.19,212.726,466.569,212.917z"/>
			</g>
		</g>
		<g>
			<path fill-rule="evenodd" clip-rule="evenodd" fill="#953E82" d="M463.798,223.931c1.121-0.958,2.235-0.302,2.235,0.973
				s-1.027,2.308-2.293,2.308c-1.268,0-2.294-1.033-2.294-2.308S462.53,223.119,463.798,223.931z"/>
			<g>
				<path fill-rule="evenodd" clip-rule="evenodd" fill="#638033" d="M466.03,222.363c-0.33,0.08-0.567,0.592-0.573,0.882
					c-0.011,0.612-0.841,1.283-1.626,0.901l-0.014-0.012C463.78,223.249,464.223,222.114,466.03,222.363z"/>
				<path fill-rule="evenodd" clip-rule="evenodd" fill="#8DAF44" d="M466.03,222.363c-0.33,0.08-0.567,0.592-0.573,0.882
					c-0.013,0.783-0.957,1.27-1.626,0.901c0.167-0.393,0.778-1.154,1.407-1.507c-0.659,0.225-1.312,0.896-1.421,1.495
					C463.756,222.692,464.649,222.172,466.03,222.363z"/>
			</g>
		</g>
	</g>
	<g>
		<circle fill-rule="evenodd" clip-rule="evenodd" fill="#C7CBD0" cx="390.2" cy="241.044" r="1.708"/>
		<path fill-rule="evenodd" clip-rule="evenodd" fill="#C7CBD0" d="M397.771,242.751c0.939,0,1.706-0.767,1.706-1.708
			c0-0.94-0.767-1.707-1.706-1.707c-0.941,0-1.708,0.767-1.708,1.707C396.062,241.985,396.829,242.751,397.771,242.751z"/>
		<path fill-rule="evenodd" clip-rule="evenodd" fill="#C7CBD0" d="M393.957,245.093c1.792,0,3.254-1.462,3.254-3.254
			s-1.462-3.254-3.254-3.254s-3.255,1.462-3.255,3.254S392.165,245.093,393.957,245.093z"/>
		<path fill-rule="evenodd" clip-rule="evenodd" fill="#C7CBD0" d="M396,241.702c0.939,0,1.708-0.767,1.708-1.706
			c0-0.941-0.769-1.708-1.708-1.708c-0.941,0-1.708,0.767-1.708,1.708C394.292,240.935,395.059,241.702,396,241.702z"/>
		<path fill-rule="evenodd" clip-rule="evenodd" fill="#C7CBD0" d="M392.036,241.702c0.941,0,1.708-0.767,1.708-1.706
			c0-0.941-0.767-1.708-1.708-1.708c-0.939,0-1.706,0.767-1.706,1.708C390.33,240.935,391.097,241.702,392.036,241.702z"/>
		<path fill-rule="evenodd" clip-rule="evenodd" fill="#C7CBD0" d="M393.957,241.112c0.939,0,1.707-0.767,1.707-1.708
			c0-0.94-0.768-1.708-1.707-1.708c-0.94,0-1.708,0.768-1.708,1.708C392.249,240.345,393.017,241.112,393.957,241.112z"/>
	</g>
	<path fill-rule="evenodd" clip-rule="evenodd" fill="#6FAFAC" d="M425.753,239.195c-0.431-2.147-0.789-6.255,0.433-12.058
		c0.157-0.747-0.162-0.788-0.352-0.232C423.791,232.878,424.801,237.026,425.753,239.195z"/>
	<g>
		<path fill-rule="evenodd" clip-rule="evenodd" fill="#638033" d="M431.69,225.125c-0.709-0.108-1.588,0.701-1.83,1.262
			c-0.518,1.191-2.682,1.834-3.907,0.453l-0.018-0.035C426.575,225.042,428.355,223.177,431.69,225.125z"/>
		<path fill-rule="evenodd" clip-rule="evenodd" fill="#6FAFAC" d="M431.69,225.125c-0.709-0.108-1.588,0.701-1.83,1.262
			c-0.66,1.523-2.898,1.713-3.907,0.453c0.641-0.633,2.452-1.629,3.967-1.811c-1.473-0.094-3.29,0.691-3.984,1.775
			C426.978,223.933,429.145,223.638,431.69,225.125z"/>
	</g>
	<g>
		
			<rect x="342.886" y="208.17" transform="matrix(0.9427 -0.3335 0.3335 0.9427 -49.7932 127.0469)" fill-rule="evenodd" clip-rule="evenodd" fill="#969796" width="4.495" height="0.757"/>
		<path fill-rule="evenodd" clip-rule="evenodd" fill="#656565" d="M342.703,209.005l0.479-0.17
			c1.527,3.788,4.916,2.727,3.643-1.287l0.479-0.17C348.98,212.115,344.328,213.597,342.703,209.005z"/>
		<path fill-rule="evenodd" clip-rule="evenodd" fill="#684C2D" d="M345.821,210.494L345.821,210.494
			c0.401-0.142,0.846,0.071,0.989,0.473l9.215,26.055c0.143,0.401-0.069,0.847-0.473,0.989l0,0
			c-0.402,0.142-0.847-0.071-0.988-0.473l-9.216-26.055C345.206,211.082,345.419,210.636,345.821,210.494z"/>
		<path fill-rule="evenodd" clip-rule="evenodd" fill="#656565" d="M348.768,233.649l9.319-3.297
			C362.588,243.081,353.185,246.139,348.768,233.649z"/>
		<path fill-rule="evenodd" clip-rule="evenodd" fill="#969796" d="M354.158,231.743l1.867,5.278
			c0.143,0.401-0.069,0.847-0.473,0.989l0,0c-0.402,0.142-0.847-0.071-0.988-0.473l-1.867-5.278L354.158,231.743z"/>
	</g>
	<g>
		<path fill-rule="evenodd" clip-rule="evenodd" fill="#6FAFAC" d="M359.516,242.112c0.448,0.167,0.821,0.526,0.988,1.015
			c0.165,0.489,0.089,1.001-0.163,1.406c-0.449-0.165-0.822-0.525-0.988-1.014C359.186,243.031,359.262,242.518,359.516,242.112z"/>
		<path fill-rule="evenodd" clip-rule="evenodd" fill="#6FAFAC" d="M361.039,237.225c0.196,0.436,0.202,0.953-0.029,1.415
			c-0.231,0.461-0.65,0.767-1.118,0.871c-0.194-0.438-0.2-0.955,0.031-1.417C360.153,237.633,360.573,237.328,361.039,237.225z"/>
		<path fill-rule="evenodd" clip-rule="evenodd" fill="#6FAFAC" d="M363.357,241.076c-0.22,0.426-0.621,0.753-1.126,0.86
			c-0.505,0.108-1.004-0.028-1.377-0.329c0.22-0.426,0.62-0.753,1.125-0.859C362.483,240.64,362.983,240.777,363.357,241.076z"/>
		<path fill-rule="evenodd" clip-rule="evenodd" fill="#6FAFAC" d="M362.26,230.094c0.447,0.167,0.821,0.526,0.986,1.015
			c0.167,0.489,0.091,1.001-0.163,1.406c-0.448-0.165-0.82-0.524-0.986-1.014C361.93,231.013,362.006,230.5,362.26,230.094z"/>
	</g>
	<g>
		<path fill-rule="evenodd" clip-rule="evenodd" fill="#C7CBD0" d="M421.843,242.751c0.941,0,1.708-0.767,1.708-1.708
			c0-0.94-0.767-1.707-1.708-1.707c-0.939,0-1.708,0.767-1.708,1.707C420.135,241.985,420.903,242.751,421.843,242.751z"/>
		<path fill-rule="evenodd" clip-rule="evenodd" fill="#C7CBD0" d="M429.413,242.751c0.939,0,1.707-0.767,1.707-1.708
			c0-0.94-0.768-1.707-1.707-1.707c-0.94,0-1.708,0.767-1.708,1.707C427.705,241.985,428.473,242.751,429.413,242.751z"/>
		<path fill-rule="evenodd" clip-rule="evenodd" fill="#C7CBD0" d="M425.601,245.093c1.79,0,3.253-1.462,3.253-3.254
			s-1.463-3.254-3.253-3.254c-1.794,0-3.254,1.462-3.254,3.254S423.807,245.093,425.601,245.093z"/>
		<path fill-rule="evenodd" clip-rule="evenodd" fill="#C7CBD0" d="M427.642,241.702c0.941,0,1.708-0.767,1.708-1.706
			c0-0.941-0.767-1.708-1.708-1.708c-0.939,0-1.706,0.767-1.706,1.708C425.936,240.935,426.702,241.702,427.642,241.702z"/>
		<path fill-rule="evenodd" clip-rule="evenodd" fill="#C7CBD0" d="M423.681,241.702c0.939,0,1.707-0.767,1.707-1.706
			c0-0.941-0.768-1.708-1.707-1.708c-0.941,0-1.708,0.767-1.708,1.708C421.973,240.935,422.739,241.702,423.681,241.702z"/>
		<path fill-rule="evenodd" clip-rule="evenodd" fill="#C7CBD0" d="M425.601,241.112c0.939,0,1.706-0.767,1.706-1.708
			c0-0.94-0.767-1.708-1.706-1.708c-0.941,0-1.708,0.768-1.708,1.708C423.893,240.345,424.659,241.112,425.601,241.112z"/>
	</g>
	<g>
		<path fill-rule="evenodd" clip-rule="evenodd" fill="#C7CBD0" d="M454.101,242.339c0.94,0,1.708-0.767,1.708-1.708
			c0-0.94-0.768-1.707-1.708-1.707c-0.939,0-1.708,0.767-1.708,1.707C452.393,241.573,453.161,242.339,454.101,242.339z"/>
		<path fill-rule="evenodd" clip-rule="evenodd" fill="#C7CBD0" d="M461.671,242.339c0.939,0,1.707-0.767,1.707-1.708
			c0-0.94-0.768-1.707-1.707-1.707c-0.94,0-1.708,0.767-1.708,1.707C459.963,241.573,460.73,242.339,461.671,242.339z"/>
		<path fill-rule="evenodd" clip-rule="evenodd" fill="#C7CBD0" d="M457.856,244.681c1.793,0,3.255-1.462,3.255-3.254
			s-1.462-3.254-3.255-3.254c-1.791,0-3.252,1.462-3.252,3.254S456.065,244.681,457.856,244.681z"/>
		<path fill-rule="evenodd" clip-rule="evenodd" fill="#C7CBD0" d="M459.899,241.29c0.941,0,1.708-0.767,1.708-1.706
			c0-0.941-0.767-1.708-1.708-1.708c-0.939,0-1.706,0.767-1.706,1.708C458.193,240.523,458.96,241.29,459.899,241.29z"/>
		<path fill-rule="evenodd" clip-rule="evenodd" fill="#C7CBD0" d="M455.938,241.29c0.939,0,1.707-0.767,1.707-1.706
			c0-0.941-0.768-1.708-1.707-1.708c-0.941,0-1.708,0.767-1.708,1.708C454.23,240.523,454.997,241.29,455.938,241.29z"/>
		<path fill-rule="evenodd" clip-rule="evenodd" fill="#C7CBD0" d="M457.856,240.7c0.941,0,1.708-0.767,1.708-1.708
			c0-0.94-0.767-1.708-1.708-1.708c-0.939,0-1.706,0.768-1.706,1.708C456.15,239.933,456.917,240.7,457.856,240.7z"/>
	</g>
	<g>
		<g>
			
				<rect x="377.082" y="217.308" transform="matrix(0.9938 0.111 -0.111 0.9938 26.5874 -40.9798)" fill-rule="evenodd" clip-rule="evenodd" fill="#D19E33" width="8.543" height="1.993"/>
			
				<rect x="385.593" y="216.688" transform="matrix(-0.9938 -0.1108 0.1108 -0.9938 745.8469 479.1333)" fill-rule="evenodd" clip-rule="evenodd" fill="#D19E33" width="1.278" height="4.323"/>
			<polygon fill-rule="evenodd" clip-rule="evenodd" fill="#D19E33" points="385.838,216.63 384.62,217.672 384.401,219.64 
				385.358,220.926 			"/>
			<path fill-rule="evenodd" clip-rule="evenodd" fill="#D19E33" d="M376.096,220.279l-4.302-4.904l0.815-7.37l3.773-2.258
				c-1.008-1.117-2.177-1.904-3.271-2.282l0.09-0.806c1.316,0.424,2.705,1.346,3.871,2.674l5.707,6.507L376.096,220.279z
				 M371.794,215.375l-3.96-4.512l2.057-1.231c-1.613-2.489-1.811-5.227-0.324-6.531c0.896-0.785,2.226-0.897,3.636-0.441
				l-0.09,0.806c-1.173-0.407-2.263-0.344-2.978,0.283c-1.197,1.05-0.962,3.341,0.435,5.479l2.04-1.222L371.794,215.375z"/>
		</g>
		<path fill-rule="evenodd" clip-rule="evenodd" fill="#E4F0F6" d="M388.072,219.337c0.83,1.204,1.877,2.061,2.33,1.024
			C390.854,219.326,389.52,219.126,388.072,219.337z"/>
		<path fill-rule="evenodd" clip-rule="evenodd" fill="#E4F0F6" d="M392.547,220.013c1.142,0.914,2.392,1.433,2.526,0.31
			C395.208,219.202,393.872,219.395,392.547,220.013z"/>
		<path fill-rule="evenodd" clip-rule="evenodd" fill="#E4F0F6" d="M389.192,223.143c-0.744,1.259-1.082,2.57,0.049,2.545
			C390.371,225.663,389.991,224.369,389.192,223.143z"/>
		<path fill-rule="evenodd" clip-rule="evenodd" fill="#E4F0F6" d="M392.635,222.496c0.426,1.399,1.164,2.533,1.911,1.684
			C395.291,223.329,394.078,222.734,392.635,222.496z"/>
		<path fill-rule="evenodd" clip-rule="evenodd" fill="#E4F0F6" d="M392.013,225.805c-0.505,1.373-0.6,2.723,0.507,2.495
			C393.627,228.07,393.02,226.866,392.013,225.805z"/>
		<path fill-rule="evenodd" clip-rule="evenodd" fill="#E4F0F6" d="M397.898,224.623c0.393,1.41,1.104,2.561,1.871,1.728
			C400.533,225.518,399.337,224.896,397.898,224.623z"/>
		<path fill-rule="evenodd" clip-rule="evenodd" fill="#E4F0F6" d="M396.11,227.914c-0.205,1.449-0.014,2.788,1.021,2.332
			C398.165,229.789,397.317,228.739,396.11,227.914z"/>
		<path fill-rule="evenodd" clip-rule="evenodd" fill="#E4F0F6" d="M390.103,228.285c-0.884,1.166-1.367,2.431-0.241,2.535
			C390.987,230.923,390.756,229.593,390.103,228.285z"/>
		<path fill-rule="evenodd" clip-rule="evenodd" fill="#E4F0F6" d="M393.579,230.671c-0.461,1.389-0.513,2.741,0.586,2.477
			C395.266,232.885,394.619,231.7,393.579,230.671z"/>
		<path fill-rule="evenodd" clip-rule="evenodd" fill="#E4F0F6" d="M397.933,233.198c-0.435,1.396-0.462,2.749,0.632,2.465
			C399.659,235.379,398.992,234.206,397.933,233.198z"/>
		<path fill-rule="evenodd" clip-rule="evenodd" fill="#E4F0F6" d="M389.136,232.292c-1.107,0.955-1.846,2.09-0.768,2.428
			C389.447,235.058,389.501,233.709,389.136,232.292z"/>
	</g>
	<g>
		<path fill-rule="evenodd" clip-rule="evenodd" fill="#638033" d="M417.189,229.286c1.001-0.152,2.24,0.989,2.584,1.782
			c0.729,1.682,3.785,2.588,5.517,0.64l0.023-0.051C424.412,229.167,421.899,226.536,417.189,229.286z"/>
		<path fill-rule="evenodd" clip-rule="evenodd" fill="#6FAFAC" d="M417.189,229.286c1.001-0.152,2.24,0.989,2.584,1.782
			c0.931,2.15,4.091,2.418,5.517,0.64c-0.906-0.895-3.463-2.301-5.602-2.557c2.08-0.133,4.646,0.976,5.625,2.506
			C423.845,227.603,420.784,227.188,417.189,229.286z"/>
	</g>
</g>
<g>
	<path fill="#953E82" d="M557.822,255.799c1.702-0.23,21.333-4.334,31,16.666c9.666,21,9.449,67.282-36.668,62.666
		c-39.555-3.959-16.212-44.18-16.212-44.18s1.88-25.152,11.88-30.152l3.332-2C551.154,258.799,556.12,256.029,557.822,255.799z"/>
	<g>
		<ellipse fill="#010002" cx="561.113" cy="277.756" rx="2.125" ry="3.625"/>
		<ellipse fill="#FFFFFF" cx="560.497" cy="276.637" rx="0.617" ry="1.119"/>
	</g>
	<g>
		<ellipse fill="#010002" cx="553.113" cy="276.756" rx="2.125" ry="3.625"/>
		<ellipse fill="#FFFFFF" cx="552.497" cy="275.637" rx="0.617" ry="1.119"/>
	</g>
	<path opacity="0.5" fill="#622556" d="M529.214,315.412c43.706,36.785,61.856-16.473,64.366-24.127
		c2.051,22.043-6.595,48.137-41.426,43.846C531.854,332.631,530.126,324.03,529.214,315.412z"/>
	<ellipse fill="#010002" cx="555.544" cy="292.752" rx="2.444" ry="4.581"/>
	<g>
		<circle fill="none" stroke="#A4CAD0" stroke-linecap="round" stroke-miterlimit="10" cx="550.746" cy="277.094" r="4.956"/>
		<circle fill="none" stroke="#A4CAD0" stroke-linecap="round" stroke-miterlimit="10" cx="563.246" cy="277.094" r="4.956"/>
		<circle opacity="0.3" fill="#A4CAD0" cx="550.538" cy="277.093" r="4.805"/>
		<circle opacity="0.3" fill="#A4CAD0" cx="563.538" cy="277.093" r="4.805"/>
		
			<line fill="none" stroke="#A4CAD0" stroke-linecap="round" stroke-miterlimit="10" x1="555.701" y1="277.094" x2="558.29" y2="277.094"/>
		<g>
			<g>
				<path fill="#A4CAD0" d="M568.89,276.889c1.664-2.173,10.965-8.054,11.664-2.772c0.083,0.63,1.084,0.638,1,0
					c-0.913-6.898-11.284-0.662-13.527,2.267C567.634,276.896,568.504,277.394,568.89,276.889L568.89,276.889z"/>
			</g>
		</g>
	</g>
	<path fill="none" stroke="#9FC3C8" stroke-linecap="round" stroke-miterlimit="10" d="M581.691,256.256
		c0,0,3.511,1.084,5.962,5.443"/>
	<path fill="none" stroke="#9FC3C8" stroke-linecap="round" stroke-miterlimit="10" d="M587.653,256.256
		c0,0,2.777,1.633,4.248,6.208"/>
	<path fill="none" stroke="#9FC3C8" stroke-linecap="round" stroke-miterlimit="10" d="M526.654,279.457
		c0,0,1.524,4.811,5.119,5.918"/>
	<path fill="none" stroke="#9FC3C8" stroke-linecap="round" stroke-miterlimit="10" d="M526.654,285.375
		c0,0,2.625,3.465,6.895,4.049"/>
	<g>
		<path fill="#C6CACE" d="M544.136,349.12c7.657-0.359,14.676-0.9,22.545-0.359c4.254,0.179,14.25-0.361,14.038,4.86
			c-0.213,3.06-3.829,4.501-7.02,5.04c-6.38,1.081-13.824,0.721-20.205,0.541c-4.467,0-9.996,0.54-14.037-1.261
			c-6.594-3.06,0.212-7.382,4.679-8.461"/>
	</g>
	<path fill="#602353" d="M556.392,332.146c0,0-0.883,13.979,1.811,21.751c1.187,3.424-6.442,2-7.713,2c0,0-0.826-2.592,0.225-2.476
		s4.815,1.301,4.789-0.116s-1.781-19.54-1.249-21.159S556.448,330.979,556.392,332.146z"/>
	<path fill="#602353" d="M566.392,332.146c0,0-0.883,13.979,1.811,21.751c1.187,3.424-6.442,2-7.713,2c0,0-0.826-2.592,0.225-2.476
		s4.815,1.301,4.789-0.116s-1.781-19.54-1.249-21.159S566.448,330.979,566.392,332.146z"/>
	<g>
		<g>
			<path fill="#8B3D7A" d="M555.21,257.438c-2.683-1.341-6.132-10.156-9.006-3.258c-1.149,2.683-1.149,8.05,1.34,8.241
				c2.3,0.19,8.241-3.065,7.283-5.559"/>
		</g>
		<g>
			<path fill="#F6EBCE" d="M552.891,257c-1.512-0.756-3.264-5.479-4.883-1.59c-0.648,1.512-0.648,4.537,0.755,4.645
				c1.296,0.108,4.644-1.728,4.104-3.133"/>
		</g>
	</g>
	<g>
		<g>
			<path fill="#8B3D7A" d="M569.462,257.438c2.683-1.341,6.132-10.156,9.006-3.258c1.149,2.683,1.149,8.05-1.34,8.241
				c-2.3,0.19-8.241-3.065-7.283-5.559"/>
		</g>
		<g>
			<path fill="#F6EBCE" d="M571.781,257c1.512-0.756,3.264-5.479,4.883-1.59c0.648,1.512,0.648,4.537-0.755,4.645
				c-1.296,0.108-4.644-1.728-4.104-3.133"/>
		</g>
	</g>
	<path fill="#602353" d="M583.901,294.561c0,0-5.935,17.48-13.847,20.823c0,0,0.567,3.28-0.387,3.372
		c-0.955,0.091-1.337-3.372-1.337-3.372s-1.622,2.547-2.385,1.722c-0.765-0.825,1.526-2.567,1.526-2.567s-3.625,0.734-2.959-0.275
		c0.668-1.009,5.535-0.551,6.395-1.192c0.858-0.642,7.634-5.478,11.547-18.51C582.455,294.561,583.439,293.473,583.901,294.561z"/>
	<path fill="#602353" d="M536.997,285.064c0,0-10.083-4.543-13.416-16.46c0,0-2.417-1.001-2.5-1.834s1.833-0.084,2.333,0
		s-1.666-2.584-0.666-2.75s1.5,2.334,2.083,2.584s-0.499-3.017,0.417-2.592s0.442,3.342,0.388,4.592s1.033,7.385,11.489,14.942
		L536.997,285.064z"/>
	<g>
		<g>
			<path fill="#602353" d="M551.821,270.68c-0.15-1.453-0.212-2.912-0.291-4.37c-0.018-0.321-0.518-0.322-0.5,0
				c0.079,1.458,0.141,2.917,0.291,4.37C551.354,270.997,551.854,271,551.821,270.68L551.821,270.68z"/>
		</g>
	</g>
	<g>
		<g>
			<path fill="#602353" d="M553.268,270.107c-0.045-0.929,0.199-1.842,0.081-2.771c-0.04-0.315-0.541-0.319-0.5,0
				c0.118,0.928-0.126,1.842-0.081,2.771C552.783,270.428,553.283,270.43,553.268,270.107L553.268,270.107z"/>
		</g>
	</g>
	<g>
		<g>
			<path fill="#602353" d="M554.392,270.158c0.526-0.787,0.657-1.769,0.927-2.659c0.094-0.31-0.39-0.44-0.482-0.133
				c-0.256,0.848-0.375,1.791-0.876,2.54C553.78,270.175,554.214,270.425,554.392,270.158L554.392,270.158z"/>
		</g>
	</g>
	<g>
		<g>
			<g>
				<path fill="#602353" d="M566.676,270.913c0.339-1.421,0.59-2.859,0.859-4.295c0.059-0.315-0.423-0.45-0.482-0.133
					c-0.27,1.436-0.52,2.874-0.859,4.295C566.119,271.094,566.601,271.227,566.676,270.913L566.676,270.913z"/>
			</g>
		</g>
		<g>
			<g>
				<path fill="#602353" d="M565.316,270.156c0.165-0.914,0.043-1.855,0.281-2.758c0.082-0.312-0.4-0.444-0.482-0.133
					c-0.239,0.907-0.115,1.842-0.281,2.758C564.777,270.338,565.259,270.473,565.316,270.156L565.316,270.156z"/>
			</g>
		</g>
		<g>
			<g>
				<path fill="#602353" d="M564.152,269.738c-0.398-0.805-0.386-1.765-0.528-2.636c-0.052-0.318-0.534-0.183-0.482,0.133
					c0.151,0.923,0.157,1.902,0.579,2.755C563.863,270.279,564.295,270.026,564.152,269.738L564.152,269.738z"/>
			</g>
		</g>
	</g>
</g>
<g>
	<path fill="#294C84" d="M410.256,362.588c-0.183-0.958-3.62-4.433-4.986-5.229c1.111-1.735-0.899-3.323-2.311-2.108
		c-1.446,1.245-0.868,2.889,0.672,3.397c0.969,0.32,1.136-0.192,2.147,0.498c0.596,0.406,1.064,1.048,1.482,1.602
		c0.873,1.158,1.343,3.324,2.995,2.02"/>
	<path fill="#294C84" d="M412.127,362.588c0.183-0.958,3.62-4.433,4.986-5.229c-1.111-1.735,0.899-3.323,2.311-2.108
		c1.446,1.245,0.868,2.889-0.672,3.397c-0.969,0.32-1.136-0.192-2.147,0.498c-0.596,0.406-1.064,1.048-1.482,1.602
		c-0.873,1.158-1.343,3.324-2.995,2.02"/>
	<path fill="#205B50" d="M533.514,380.553c0,0,8.943,10.448,7.216,20.726c0,0,2.702,0.753,2.049,1.982s-2.061-0.967-2.061-0.967
		s1.815,1.926,0.656,2.624c-1.16,0.697-1.967-1.509-1.967-1.509s0.35,2.767-0.687,2.741c-1.038-0.024,0.536-5.766,0.536-5.766
		s2.046-4.545-5.614-18.174L533.514,380.553z"/>
	<path fill="#294C84" d="M391.396,412.847c-2.16,0.566-3.993-1.504-4.983-2.559c-2.04-2.173-3.198-5.582-3.688-8.445
		c-0.429-2.513-0.967-4.947,0.214-7.298c0.345-0.687,1.523-2.61,0.591-3.38c-1.29-1.065-1.971,1.643-1.962,2.449
		c-0.438-0.864-0.601-1.755-1.039-2.579c-2.428-0.666-0.999,2.359-0.661,3.288c-0.636-0.683-2.715-1.167-3.276-0.111
		c-0.813,1.528,1.929,1.83,2.624,2.46c2.61,2.366,3.646,12.672,5.391,14.795c1.286,1.566,4.344,4.147,6.622,3.547
		C392.496,414.681,392.849,413.356,391.396,412.847"/>
	<path fill="#294C84" d="M435.387,412.847c2.16,0.566,3.993-1.504,4.983-2.559c2.04-2.173,3.198-5.582,3.688-8.445
		c0.429-2.513,0.967-4.947-0.214-7.298c-0.345-0.687-1.523-2.61-0.591-3.38c1.29-1.065,1.971,1.643,1.962,2.449
		c0.438-0.864,0.601-1.755,1.039-2.579c2.428-0.666,0.999,2.359,0.661,3.288c0.636-0.683,2.715-1.167,3.276-0.111
		c0.813,1.528-1.929,1.83-2.624,2.46c-2.61,2.366-3.646,12.672-5.391,14.795c-1.286,1.566-4.344,4.147-6.622,3.547
		C434.287,414.681,433.935,413.356,435.387,412.847"/>
	<path fill="#C7CBD0" d="M431.198,474.489c-2.919-0.659-6.218-0.07-9.232-0.138c-4.235-0.093-8.449-0.274-12.682-0.271
		c-5.467,0.005-11.339-0.288-16.166,2.576c-3.389,2.01-3.352,6.068,0.884,6.943c1.694,0.35,3.398,0.325,5.145,0.407
		c2.338,0.11,4.599,0.616,6.928,0.82c3.917,0.343,8.019-0.063,11.927-0.417c3.464-0.312,6.85-0.69,10.224-1.347
		c2.351-0.457,5.43-0.742,5.82-3.544c0.251-1.806-0.896-4.408-2.847-4.896"/>
	<path fill="#C7CBD0" d="M349.943,443.953c-5.235-1.001-10.708-0.573-16.002-0.593c-2.975-0.013-6.023,0.055-8.988,0.269
		c-1.37,0.099-2.713,0.377-4.076,0.545c-1.697,0.209-2.901,0.106-4.118,1.257c-0.782,0.74-1.939,2.07-1.857,3.177
		c0.086,1.158,1.887,2.027,2.837,2.551c2.685,1.479,5.541,1.159,8.541,1.382c7.487,0.554,15.22-0.077,22.685-0.725
		c1.995-0.173,3.916-0.39,4.321-2.438c0.186-0.936-0.052-1.839-0.479-2.729c-0.504-1.046-1.575-2.362-2.866-2.597"/>
	<path fill="#C7CBD0" d="M514.943,442.953c-5.235-1.001-10.708-0.573-16.002-0.593c-2.975-0.013-6.023,0.055-8.988,0.269
		c-1.37,0.099-2.713,0.377-4.076,0.545c-1.697,0.209-2.901,0.106-4.118,1.257c-0.782,0.74-1.939,2.07-1.857,3.177
		c0.086,1.158,1.887,2.027,2.837,2.551c2.685,1.479,5.541,1.159,8.541,1.382c7.487,0.554,15.22-0.077,22.685-0.725
		c1.995-0.173,3.916-0.39,4.321-2.438c0.186-0.936-0.052-1.839-0.479-2.729c-0.504-1.046-1.575-2.362-2.866-2.597"/>
	<path fill="#933A2A" d="M332.024,434.038c0,0,0.95,14,0,14.346s-4.491-3.066-4.06-3.757s1.943-0.042,2.548,0.087
		s-0.325-11.401-0.325-11.401L332.024,434.038z"/>
	<path fill="#205B50" d="M497.024,414.038c0,0,0.95,34,0,34.346s-4.491-3.066-4.06-3.757s1.943-0.042,2.548,0.087
		s-0.325-31.401-0.325-31.401L497.024,414.038z"/>
	<path fill="#205B50" d="M503.353,414.038c0,0-0.95,34,0,34.346s4.491-3.066,4.06-3.757s-1.943-0.042-2.548,0.087
		s0.325-31.401,0.325-31.401L503.353,414.038z"/>
	<path fill="#933A2A" d="M336.353,434.038c0,0-0.95,14,0,14.346s4.491-3.066,4.06-3.757s-1.943-0.042-2.548,0.087
		s0.325-11.401,0.325-11.401L336.353,434.038z"/>
	<path fill-rule="evenodd" clip-rule="evenodd" fill="#C99934" d="M334.8,363.038c1.396,0,28.5,4.332,29.139,33.666
		s-10.346,38.334-28.139,38.334c-27.363,0-30.805-34.001-30.805-38.334S306.556,363.038,334.8,363.038z"/>
	<path opacity="0.5" fill="#836424" d="M362.351,414.913c0,0-2.117,21.892-28.014,19.838c-18.449-1.463-23.266-15.4-23.266-15.4
		S340.836,442.387,362.351,414.913z"/>
	<g opacity="0.5">
		<path fill="none" stroke="#933A2A" stroke-linecap="round" stroke-miterlimit="10" d="M355.033,385.249
			c0.147,1.35,0.395,2.753,0.758,4.043"/>
		<path fill="none" stroke="#933A2A" stroke-miterlimit="10" d="M355.791,397.882c0.72,1.303,0.378,3.222,1.011,4.295"/>
		<path fill="none" stroke="#933A2A" stroke-linecap="round" stroke-miterlimit="10" d="M348.84,377.777
			c0.295,0.665,0.199,1.389,0.363,2.06"/>
		<path fill="none" stroke="#933A2A" stroke-linecap="round" stroke-miterlimit="10" d="M347.508,388.194
			c0.415,1.244-0.173,2.599,0.242,3.876"/>
		<path fill="none" stroke="#933A2A" stroke-linecap="round" stroke-miterlimit="10" d="M348.355,399.943
			c0.465,1.132,0.36,2.548,0.605,3.755"/>
		<path fill="none" stroke="#933A2A" stroke-miterlimit="10" d="M355.744,412.299c0,1.05,0,2.1,0,3.149"/>
		<path fill="none" stroke="#933A2A" stroke-linecap="round" stroke-miterlimit="10" d="M346.296,420.172
			c-0.274,0.777-0.119,1.725-0.121,2.544"/>
		<path fill="none" stroke="#933A2A" stroke-linecap="round" stroke-miterlimit="10" d="M352.474,422.716
			c0.396,0.993,0.121,2.534,0.121,3.634"/>
		<path fill="none" stroke="#933A2A" stroke-linecap="round" stroke-miterlimit="10" d="M339.634,428.65
			c-0.21,0.866-0.119,1.782-0.121,2.665"/>
		<path fill="none" stroke="#933A2A" stroke-linecap="round" stroke-miterlimit="10" d="M338.907,417.749
			c0.241,1.227,0.066,3.243-0.242,4.482"/>
		<path fill="none" stroke="#933A2A" stroke-linecap="round" stroke-miterlimit="10" d="M346.901,408.907
			c-0.027,1.169,0.123,2.34,0.121,3.513"/>
		<path fill="none" stroke="#933A2A" stroke-linecap="round" stroke-miterlimit="10" d="M338.665,401.034
			c0.147,1.681,0.104,3.428,0.363,5.087"/>
		<path fill="none" stroke="#933A2A" stroke-linecap="round" stroke-miterlimit="10" d="M340.967,389.163
			c0.021,0.816,0.518,2.303,0.121,2.907"/>
		<path fill="none" stroke="#933A2A" stroke-linecap="round" stroke-miterlimit="10" d="M329.944,379.11
			c0.454,1.209,0.339,2.55,0.727,3.755"/>
		<path fill="none" stroke="#933A2A" stroke-linecap="round" stroke-miterlimit="10" d="M336.97,379.716
			c0.43,0.931,0.389,2.117,0.363,3.149"/>
		<path fill="none" stroke="#933A2A" stroke-linecap="round" stroke-miterlimit="10" d="M325.341,393.282
			c0.46,1.321,0.335,3.407,0.364,4.845"/>
		<path fill="none" stroke="#933A2A" stroke-linecap="round" stroke-miterlimit="10" d="M329.944,402.487
			c0.242,0.777-0.025,1.705,0,2.544"/>
		<path fill="none" stroke="#933A2A" stroke-linecap="round" stroke-miterlimit="10" d="M329.217,417.386
			c-0.389,0.992-0.121,2.411-0.121,3.513"/>
		<path fill="none" stroke="#933A2A" stroke-linecap="round" stroke-miterlimit="10" d="M319.648,406.969
			c0.375,1.102-0.148,2.34,0.121,3.513"/>
		<path fill="none" stroke="#933A2A" stroke-linecap="round" stroke-miterlimit="10" d="M319.406,422.595
			c0.335,1.14,0.038,2.386-0.242,3.513"/>
		<path fill="none" stroke="#933A2A" stroke-linecap="round" stroke-miterlimit="10" d="M330.065,427.318
			c0.026,0.969,0.001,1.966-0.242,2.907"/>
		<path fill="none" stroke="#933A2A" stroke-linecap="round" stroke-miterlimit="10" d="M312.986,400.064
			c-0.044,2.027,0.464,4.042,0.363,6.051c0-0.119,0-0.238,0-0.357"/>
		<path fill="none" stroke="#933A2A" stroke-linecap="round" stroke-miterlimit="10" d="M317.831,390.375
			c0.272,1.046-0.118,3.347-0.121,4.239"/>
		<path fill="none" stroke="#933A2A" stroke-linecap="round" stroke-miterlimit="10" d="M324.735,384.076
			c-0.034,1.068,0.153,2.576,0.121,3.392"/>
		<path fill="none" stroke="#933A2A" stroke-linecap="round" stroke-miterlimit="10" d="M333.578,389.042
			c0.47,0.854,0.383,1.843,0.363,2.786"/>
		<path fill="none" stroke="#933A2A" stroke-linecap="round" stroke-miterlimit="10" d="M311.29,382.865
			c0.54,0.777,0.498,1.959,0.606,2.906"/>
		<path fill="none" stroke="#933A2A" stroke-linecap="round" stroke-miterlimit="10" d="M343.389,368.934
			c0.227,0.54-0.171,1.976-0.363,2.664"/>
		<path fill="none" stroke="#933A2A" stroke-linecap="round" stroke-miterlimit="10" d="M334.91,371.113
			c0.345,1.036-0.242,2.521,0.242,3.392"/>
		<path fill="none" stroke="#933A2A" stroke-linecap="round" stroke-miterlimit="10" d="M321.828,372.688
			c0.089,0.895,0.374,1.768,0.497,2.666c0.007,0.048,0.243,1.698,0.109,1.089"/>
		<path fill="none" stroke="#933A2A" stroke-linecap="round" stroke-miterlimit="10" d="M328.127,365.179
			c0.329,1.046,0.003,2.513,0,3.634"/>
	</g>
	<path fill="#933A2A" d="M308.384,397.035c1.67,3.825,6.058,6.162,9.336,8.36c2.771,1.857,5.819,3.283,8.96,4.266
		c0.974,0.305,2.17,0.908,3.144,0.939c0.96,0.029,1.808-0.438,2.785-0.484c2.159-0.103,4.789,1.35,3.853,3.782
		c-0.944,2.453-3.917,3.975-5.914,1.907c-1.54-1.593-0.654-3.239-3.146-4.02c-2.098-0.657-4.229-0.978-6.299-1.821
		c-2.229-0.909-4.333-2.164-6.296-3.634c-1.847-1.383-3.202-3.106-4.82-4.727c-0.717-0.717-3.957-5.066-1.117-4.569"/>
	<path fill="#933A2A" d="M358.386,397.232c-0.068,2.245-2.391,4.894-3.634,6.668c-1.555,2.22-3.977,3.544-6.062,5.108
		c-1.739,1.303-3.563,2.845-5.688,3.391c-1.538,0.396-1.875,0.196-3.273-0.604c-0.799-0.458-1.771-0.88-2.694-0.545
		c-2.333,0.848-1.758,3.72-0.094,4.908c0.863,0.616,2.01,0.837,3.033,0.581c1.187-0.296,1.161-1.052,1.812-1.705
		c1.318-1.323,4.062-1.933,5.817-2.815c1.957-0.984,3.61-1.829,5.057-3.504c1.751-2.025,3.346-3.877,4.754-6.15
		c0.616-0.996,1.491-1.825,1.914-2.938c0.214-0.561,0.537-2.842-0.699-2.273"/>
	<path fill="#294C84" d="M418.012,460.509c1.63,2.357,1.879,5.822,2.375,8.542c0.285,1.566,0.52,3.116,0.589,4.719
		c0.038,0.889-0.372,3.07,0.148,3.752c0.659,0.862,2.986,0.019,3.417,1.082c0.619,1.526-2.222,1.178-2.945,1.282
		c-0.874,0.126-2.673,1.137-3.28-0.18c-0.256-0.556,0.477-3.082,0.477-3.907c0-3.333-0.104-6.521-1.059-9.556
		c-0.404-1.286-1.263-3.017-1.316-4.33c-0.08-1.968,1.272-2.135,2.375-0.625"/>
	<path fill="#294C84" d="M407.031,460.509c-1.63,2.357-1.879,5.822-2.375,8.542c-0.285,1.566-0.52,3.116-0.589,4.719
		c-0.038,0.889,0.372,3.07-0.148,3.752c-0.659,0.862-2.986,0.019-3.417,1.082c-0.619,1.526,2.222,1.178,2.945,1.282
		c0.874,0.126,2.673,1.137,3.28-0.18c0.256-0.556-0.477-3.082-0.477-3.907c0-3.333,0.104-6.521,1.059-9.556
		c0.404-1.286,1.263-3.017,1.316-4.33c0.08-1.968-1.272-2.135-2.375-0.625"/>
	<path fill="#6185DC" d="M406.212,364.019c-0.281,4.64,3.526,4.769,5.739,4.769c1.478,0.001,6.256,0.798,6.093-2.661
		c-0.26-5.513-12.049-4.368-11.84-1.937"/>
	<g>
		<path fill="#6185DC" d="M411.129,461.729c7.936-0.248,17.253-0.048,23.2-5.512c8.234-7.852,9.191-18.384,6.318-28.916
			c-2.297-8.809-4.596-16.66-4.404-26.044c0.191-8.234-0.766-18-4.404-25.277c-3.447-6.895-11.438-10.086-20.665-9.958
			c-10.095-0.128-15.319,3.063-18.767,9.958c-3.639,7.277-4.596,17.043-4.404,25.277c0.191,9.384-2.107,17.235-4.404,26.044
			c-2.873,10.532-1.916,21.064,6.318,28.916c5.947,5.464,15.265,5.264,23.2,5.512"/>
	</g>
	<g>
		<path fill="#33897B" d="M494.888,355.788c-4.5,1-9.25,0.25-13.25,2c-5.5,2.5-9.5,8.5-11.75,14c-4.5,10.75-2.5,27.25,5.75,35.5
			c9,9.25,23.25,8.75,35,7.25c14.75-1.75,24-10.25,24.5-25.5c0.25-11.25-2.25-20.75-12-27.25c-7-4.5-19.5-8-27.5-6"/>
	</g>
	<path fill="#205B50" d="M467.913,379.177c0.243,0.517-7.723-1.921-7.322-15.577c0,0,2.38-1.562,2.214-3.229s0.166-5.485-1-5.159
		s-1,4.326-1,4.326s-2.5-0.5-3,1s1.167,3,1.167,3s1.011,13.917,8.681,18.039L467.913,379.177z"/>
	<g opacity="0.5">
		<path fill="#205B50" d="M519.857,386.716c-4.129,1.771-7.079,7.374-2.064,10.028c7.964,4.13,11.091-12.388,2.537-10.028"/>
	</g>
	<g opacity="0.5">
		<path fill="#205B50" d="M511.37,397.535c-2.269,0.973-3.889,4.051-1.134,5.509c4.375,2.27,6.093-6.805,1.394-5.509"/>
	</g>
	<g opacity="0.5">
		<path fill="#205B50" d="M482.419,363.113c-1.732,0.743-2.971,3.095-0.865,4.209c3.342,1.733,4.654-5.199,1.064-4.209"/>
	</g>
	<g opacity="0.5">
		<path fill="#5E3C58" d="M413.117,461.729c-0.328-0.011-0.661-0.02-0.994-0.028c-0.333,0.009-0.666,0.018-0.994,0.028H413.117z"/>
		<path fill="#294C84" d="M441.906,441.063c-30.056,25.933-52.317,7.877-59.521,0.311c0.716,5.456,3.03,10.551,7.531,14.843
			c5.701,5.238,14.497,5.271,22.206,5.483c7.709-0.212,16.505-0.245,22.206-5.483C438.916,451.843,441.239,446.637,441.906,441.063z
			"/>
	</g>
	<path opacity="0.5" fill="#205B50" d="M533.466,398.347c-6.186,4.609-28.958,18.687-61.1,4.703
		c0.955,1.561,2.034,3.001,3.271,4.238c9,9.25,23.25,8.75,35,7.25C522.046,413.185,530.142,407.775,533.466,398.347z"/>
</g>
</svg>
