<?xml version="1.0" encoding="utf-8"?>
<!-- Generator: Adobe Illustrator 16.0.0, SVG Export Plug-In . SVG Version: 6.00 Build 0)  -->
<!DOCTYPE svg PUBLIC "-//W3C//DTD SVG 1.1//EN" "http://www.w3.org/Graphics/SVG/1.1/DTD/svg11.dtd">
<svg version="1.1" id="Capa_1" xmlns="http://www.w3.org/2000/svg" xmlns:xlink="http://www.w3.org/1999/xlink" x="0px" y="0px"
	 width="438px" height="380px" viewBox="0 0 438 380" enable-background="new 0 0 438 380" xml:space="preserve">
<g>
	<circle fill="#FFFFFF" cx="213.277" cy="182.164" r="142.724"/>
	<g>
		<path fill="none" stroke="#A4CAD0" stroke-width="4" stroke-linecap="round" stroke-miterlimit="10" d="M91.208,257.428
			c25.116,41.245,70.509,68.788,122.33,68.788c79.049,0,143.125-64.079,143.125-143.126c0-79.046-64.076-143.126-143.125-143.126
			c-31.628,0-60.861,10.262-84.555,27.636"/>
		<path fill="none" stroke="#A4CAD0" stroke-width="4" stroke-linecap="round" stroke-miterlimit="10" d="M74.236,216.094
			c1.861,7.894,4.38,15.532,7.486,22.858"/>
		<path fill="none" stroke="#A4CAD0" stroke-width="4" stroke-linecap="round" stroke-miterlimit="10" d="M87.426,115.351
			c-10.856,20.167-17.016,43.232-17.016,67.74"/>
	</g>
</g>
<g>
	<path fill="#FFFFFF" d="M92.971,70.502c0-6.519-5.292-11.812-11.818-11.812c-1.398,0-2.743,0.258-3.983,0.712
		c-1.438-6.093-6.896-10.642-13.425-10.642c-7.52,0-13.636,6.03-13.783,13.521c-0.667-0.138-1.356-0.212-2.062-0.212
		c-5.594,0-10.129,4.53-10.129,10.125c0,4.579,3.043,8.439,7.208,9.695c0.838,0.275,1.729,0.434,2.666,0.434h34.103
		c1.036,0,2.04-0.202,2.961-0.549C89.494,80.272,92.971,75.793,92.971,70.502z"/>
	<path fill="#FFFFFF" d="M338.88,33.704c0-5.59,4.536-10.129,10.134-10.129c1.2,0,2.354,0.22,3.417,0.609
		c1.23-5.227,5.911-9.123,11.511-9.123c6.446,0,11.691,5.171,11.819,11.592c0.571-0.118,1.163-0.184,1.766-0.184
		c4.797,0,8.688,3.887,8.688,8.684c0,3.926-2.609,7.238-6.183,8.312c-0.719,0.236-1.48,0.371-2.285,0.371h-29.239
		c-0.891,0-1.75-0.174-2.539-0.471C341.86,42.079,338.88,38.239,338.88,33.704z"/>
</g>
<g>
	<path fill="none" stroke="#A4CAD0" stroke-width="2" stroke-linecap="round" stroke-miterlimit="10" d="M346.288,214.452"/>
</g>
<path fill="#9FA3A6" d="M134.417,223.283c0,0-8.873,81.522-6.356,82.706c2.516,1.183,9.125-81.107,9.125-81.107L134.417,223.283z"/>
<path fill="#9FA3A6" d="M314.196,223.283c0,0,8.872,81.522,6.355,82.706c-2.516,1.183-9.125-81.107-9.125-81.107L314.196,223.283z"
	/>
<path opacity="0.4" fill="#C7CBD0" d="M397.565,293.522c-10.175-1.728-20.795-1.065-31.073-1.152
	c-5.775-0.051-11.693,0.031-17.448,0.359c-2.658,0.151-5.262,0.604-7.908,0.871c-3.291,0.332-5.631,0.149-7.981,2.061
	c-1.513,1.229-3.745,3.441-3.574,5.293c0.178,1.938,3.684,3.408,5.532,4.294c5.227,2.499,10.771,1.993,16.597,2.396
	c14.541,1.002,29.546,0.022,44.031-0.984c3.873-0.271,7.599-0.613,8.366-4.033c0.351-1.563-0.12-3.076-0.957-4.568
	c-0.989-1.753-3.081-3.967-5.59-4.369"/>
<path opacity="0.4" fill="#C7CBD0" d="M102.404,292.224c-10.166-1.959-20.793-1.116-31.073-1.151
	c-5.777-0.022-11.696,0.111-17.455,0.532c-2.66,0.195-5.267,0.742-7.915,1.072c-3.295,0.411-5.633,0.212-7.998,2.468
	c-1.519,1.451-3.768,4.059-3.608,6.229c0.166,2.271,3.662,3.974,5.505,5.001c5.213,2.896,10.761,2.267,16.585,2.702
	c14.539,1.081,29.554-0.162,44.048-1.435c3.875-0.344,7.604-0.769,8.395-4.784c0.36-1.835-0.101-3.605-0.929-5.35
	c-0.978-2.05-3.056-4.631-5.563-5.087"/>
<path opacity="0.4" fill="#C7CBD0" d="M239.904,290.777c-10.166-1.959-20.793-1.116-31.073-1.151
	c-5.777-0.022-11.696,0.111-17.455,0.532c-2.66,0.195-5.267,0.742-7.915,1.071c-3.295,0.412-5.633,0.213-7.998,2.468
	c-1.52,1.452-3.768,4.06-3.608,6.229c0.166,2.271,3.662,3.974,5.505,5.001c5.213,2.896,10.761,2.267,16.585,2.702
	c14.539,1.081,29.554-0.162,44.049-1.435c3.875-0.344,7.604-0.769,8.394-4.784c0.36-1.835-0.1-3.605-0.929-5.351
	c-0.978-2.049-3.056-4.63-5.562-5.087"/>
<path opacity="0.4" fill="#C7CBD0" d="M309.859,301.844c-28.438-0.831-57.877-0.473-86.441-0.486
	c-16.051-0.009-32.485,0.051-48.438,0.23c-7.371,0.083-14.557,0.314-21.884,0.456c-9.112,0.176-15.624,0.089-21.967,1.049
	c-4.077,0.618-10.061,1.726-9.398,2.647c0.687,0.964,10.576,1.687,15.795,2.123c14.776,1.229,30.122,0.963,46.347,1.145
	c40.503,0.457,82.092-0.073,122.232-0.616c10.734-0.146,21.047-0.329,22.844-2.032c0.81-0.781-0.646-1.532-3.124-2.274
	c-2.92-0.869-8.954-1.966-15.965-2.158"/>
<g>
	<path fill="#9FA3A6" d="M182.306,237.088c0,0-8.872,68.214-6.356,69.204c2.516,0.989,9.125-67.867,9.125-67.867L182.306,237.088z"
		/>
	<path fill="#9FA3A6" d="M190.99,224.062c0,0-8.872,68.213-6.356,69.203c2.516,0.989,9.125-67.867,9.125-67.867L190.99,224.062z"/>
	<path fill="#9FA3A6" d="M234.716,235.64c0,0,8.872,68.214,6.356,69.203c-2.516,0.99-9.125-67.866-9.125-67.866L234.716,235.64z"/>
	<path fill="#9FA3A6" d="M226.031,224.062c0,0,8.873,66.766,6.356,67.756c-2.516,0.989-9.125-67.867-9.125-67.867L226.031,224.062z"
		/>
	<path fill="#C7CBD0" d="M237.075,231.338c0,3.197-2.591,5.79-5.79,5.79l-45.613,1.343c-3.197,0-6.328-3.936-6.328-7.133v-3.439
		c0-3.197,2.592-5.79,5.79-5.79l45.886,1.248c3.199,0,6.056,1.345,6.056,4.542V231.338z"/>
	<path fill="#9FA3A6" d="M231.285,234.232l-45.613,1.344c-3.197,0-6.328-3.936-6.328-7.133v2.895c0,3.197,3.131,7.133,6.328,7.133
		l45.613-1.343c3.199,0,5.79-2.593,5.79-5.79v-2.895C237.075,231.64,234.485,234.232,231.285,234.232z"/>
</g>
<path fill="#8C3829" d="M338.569,191.377c0,0-7.732,7.568-10.628,7.998c-2.895,0.43-2.696-2.332-2.696-2.332
	s4.008,0.197,11.614-8.833L338.569,191.377z"/>
<path fill="#205B50" d="M102.807,191.631c0,0,12.733,4.971,15.749,4.039c3.015-0.932,3.943-1.654,3.765-0.84
	c-0.178,0.814-1.785,2.097-3.016,2.449c-1.231,0.354,1.111,1.113,0,1.518s-2.92-1.518-2.92-1.518s-9.757-0.912-14.045-4.26
	C98.051,189.673,102.807,191.631,102.807,191.631z"/>
<path fill="#205B50" d="M92.725,212.236c0,0,13.605,1.913,15.337,3.955c1.731,2.044,4.014,42.255,4.348,47.581
	c0.333,5.326,5.362,0.86,6.639,1.791c1.278,0.932,4.066,2.882-7.376,3.855c-2.792,0.237-5.285-50.438-5.992-51.449
	c-0.707-1.011-12.838-2.632-12.838-2.632S89.923,212.935,92.725,212.236z"/>
<g>
	<path fill="#622556" d="M219.351,229.431c0,0-12.32,8.029-12.004,10.458c0.315,2.43,10.961,20.938,10.12,22.648
		c-0.842,1.711-5.062,5.49-4.054,6.611c1.008,1.12,9.299-3.478,9.056-6.498c-0.243-3.019-9.811-23.288-9.811-23.288
		s12.19-11.25,12.497-13.956C225.462,222.702,219.351,229.431,219.351,229.431z"/>
	<path fill="#622556" d="M204.877,229.431c0,0-12.32,8.029-12.004,10.458c0.315,2.43,10.961,20.938,10.12,22.648
		c-0.842,1.711-5.062,5.49-4.054,6.611c1.008,1.12,9.299-3.478,9.056-6.498c-0.243-3.019-9.811-23.288-9.811-23.288
		s12.189-11.25,12.496-13.956C210.989,222.702,204.877,229.431,204.877,229.431z"/>
	<path fill="#953E82" d="M206.339,138.656c0,0,25.487-5.178,37.037,19.913c11.548,25.088,11.172,81.452-43.807,74.866
		c-42.105-5.045-21.532-51.523-21.532-51.523c0.004-1.931,0.544-29.375,16.356-37.281l3.98-2.39l3.984-1.992L206.339,138.656z"/>
	<ellipse fill="#622556" cx="234.856" cy="169.021" rx="1.792" ry="2.938"/>
	<ellipse fill="#622556" cx="229.767" cy="172.204" rx="1.091" ry="1.788"/>
	<path opacity="0.5" fill="#622556" d="M172.963,209.58c52.215,43.947,73.098-19.383,76.095-28.528
		c2.45,26.335-7.878,57.508-49.49,52.382C175.315,230.447,174.052,219.877,172.963,209.58z"/>
	<path fill="none" stroke="#010002" stroke-linecap="round" stroke-miterlimit="10" d="M201.971,164.68
		c0,1.549-1.256,2.804-2.804,2.804c-1.549,0-2.804-1.255-2.804-2.804"/>
	<path fill="none" stroke="#010002" stroke-linecap="round" stroke-miterlimit="10" d="M214.997,164.68
		c0,1.549-1.257,2.804-2.804,2.804c-1.549,0-2.804-1.255-2.804-2.804"/>
	<g>
		<circle fill="none" stroke="#A4CAD0" stroke-linecap="round" stroke-miterlimit="10" cx="197.885" cy="165.545" r="5.921"/>
		<circle fill="none" stroke="#A4CAD0" stroke-linecap="round" stroke-miterlimit="10" cx="212.818" cy="165.545" r="5.921"/>
		<path opacity="0.3" fill="#A4CAD0" d="M203.376,165.542c0,3.172-2.569,5.742-5.741,5.742c-3.169,0-5.74-2.57-5.74-5.742
			c0-3.167,2.571-5.738,5.74-5.738C200.806,159.804,203.376,162.375,203.376,165.542z"/>
		<path opacity="0.3" fill="#A4CAD0" d="M218.906,165.542c0,3.172-2.569,5.742-5.741,5.742c-3.169,0-5.74-2.57-5.74-5.742
			c0-3.167,2.571-5.738,5.74-5.738C216.337,159.804,218.906,162.375,218.906,165.542z"/>
		
			<line fill="none" stroke="#A4CAD0" stroke-linecap="round" stroke-miterlimit="10" x1="203.805" y1="165.545" x2="206.897" y2="165.545"/>
		
			<line fill="none" stroke="#A4CAD0" stroke-linecap="round" stroke-miterlimit="10" x1="218.739" y1="165.545" x2="234.018" y2="158.534"/>
	</g>
	<path fill="#63767F" d="M229.019,204.51c0,3.57-2.894,6.463-6.463,6.463h-21.092c-3.569,0-6.464-2.893-6.464-6.463v-11.426
		c0-3.571,2.895-6.464,6.464-6.464h21.092c3.569,0,6.463,2.894,6.463,6.464V204.51z"/>
	<path fill="#622556" d="M248.384,178.416c0,0-5.934,19.748-19.229,20.83c0,0-5.062,4.181-6.509,2.913
		c-1.448-1.269,1.085-3.362,1.085-3.362s-3.135,0.18-3.015-1.518c0.12-1.695,3.611-1.232,3.611-1.232s-3.13-1.79-1.802-3.357
		c1.327-1.568,6.493,2.185,6.493,2.185s8.086,3.592,19.19-20.223L248.384,178.416z"/>
	<path fill="#622556" d="M178.439,175.189c0,0,2.897,20.423,15.927,23.512c0,0,4.389,4.902,6.017,3.869
		c1.628-1.033-0.568-3.49-0.568-3.49s3.084,0.654,3.221-1.039c0.137-1.695-3.396-1.768-3.396-1.768s3.376-1.295,2.295-3.046
		c-1.079-1.751-6.773,1.173-6.773,1.173s-8.567,2.321-15.979-22.907L178.439,175.189z"/>
</g>
<path fill="#C7CBD0" d="M287.581,208.149c0,1.185,0.962,2.14,2.141,2.14h31.317c1.176,0,2.145-0.955,2.145-2.14
	s-0.969-2.14-2.145-2.14h-31.317C288.543,206.01,287.581,206.965,287.581,208.149"/>
<path fill="#C7CBD0" d="M290.402,210.099c1.122-0.363,1.757-1.574,1.384-2.697l-9.558-29.821c-0.358-1.131-1.56-1.739-2.688-1.38
	c-1.123,0.359-1.757,1.565-1.39,2.684l9.557,29.828C288.073,209.832,289.28,210.459,290.402,210.099"/>
<rect x="202.313" y="218.681" fill="#262324" width="12.383" height="4.675"/>
<rect x="110.595" y="210.102" fill="#B7D8EA" width="225.345" height="15.716"/>
<rect x="110.595" y="210.097" fill="#D1E6F1" width="225.345" height="7.316"/>
<path fill="#DCB13B" d="M236.698,208.726c-0.561,0.596-0.61,0.124-0.709,0.469h-0.015v0.008v0.014h0.015
	c0.099,0.346,0.148-0.126,0.709,0.463c0.575,0.612,2.066,0.347,2.066,0.347l0.019-0.81v-0.014v-0.008l-0.019-0.814
	C238.764,208.381,237.273,208.121,236.698,208.726"/>
<rect x="237.336" y="209.154" fill="#4F4018" width="1.743" height="0.119"/>
<rect x="238.756" y="208.381" fill="#595A5C" width="11.461" height="1.651"/>
<path fill="#595A5C" d="M253.004,208.345h-4.213v1.736h4.213c0.415,0,0.752-0.239,0.752-0.488v-0.775
	C253.756,208.564,253.419,208.345,253.004,208.345"/>
<path fill="#424243" d="M248.685,209.187c0-0.447,0.03-0.828,0.072-0.828c0.041,0,0.084,0.381,0.084,0.828
	c0,0.463-0.043,0.839-0.084,0.839C248.715,210.026,248.685,209.65,248.685,209.187"/>
<rect x="249.963" y="208.247" fill="#DCB13B" width="0.369" height="2.032"/>
<path fill="#DCB13B" d="M252.24,210.261c0,0-5.422,0.023-6.294-0.041c-0.869-0.07-1.122-0.378-1.444-0.056
	c-0.31,0.329,0.337,0.226,0.385,0.065c0.042-0.156,0.29,0.242,2.565,0.264C250.332,210.503,252.921,210.522,252.24,210.261"/>
<path fill="#ECE9D7" d="M258.21,203.633c-0.254,0.045-0.516,0.027-0.755-0.046c-0.24-0.073-0.465-0.205-0.65-0.386
	c0.271-0.881,5.284-17.195,5.284-17.195l1.212-1.438l0.191,1.87C263.492,186.439,258.482,202.75,258.21,203.633z"/>
<path fill="#67A785" d="M263.492,186.439c-0.009,0.034-0.019,0.063-0.025,0.084c-0.252,0.042-0.514,0.026-0.754-0.048
	c-0.238-0.073-0.463-0.205-0.651-0.384c-0.379,1.238-4.996,16.264-5.257,17.11c0.186,0.181,0.41,0.312,0.65,0.386
	c0.239,0.073,0.501,0.091,0.755,0.046C258.482,202.75,263.492,186.439,263.492,186.439L263.492,186.439z"/>
<path fill="none" d="M263.398,186.499c-0.458,0.079-0.928-0.065-1.261-0.387L263.398,186.499z"/>
<path fill="#ECE9D7" d="M263.423,185.624c-0.297,0.052-0.601-0.042-0.817-0.25L263.423,185.624z"/>
<path fill="#67A785" d="M262.601,185.398c0.204,0.157,0.455,0.253,0.721,0.252c0.031,0,0.06-0.009,0.09-0.012l-0.11-1.07
	L262.601,185.398z"/>
<path fill="#516364" d="M260.479,205.082l-0.574-16.896c-0.213,0.04-0.374,0.215-0.396,0.425l0.562,16.486L260.479,205.082z"/>
<path fill="#667F7F" d="M259.1,205.131l0.971-0.033l-0.562-16.486v0.001c-0.001-0.001-0.001-0.004-0.001-0.004v0.004
	c-0.037-0.235-0.249-0.412-0.498-0.403c-0.25,0.01-0.449,0.198-0.469,0.435v-0.005l-0.002,0.004v0.001L259.1,205.131z"/>
<path fill="#516364" d="M258.539,188.645c-0.033-0.212-0.207-0.373-0.424-0.4l0.575,16.899l0.409-0.014L258.539,188.645z"/>
<path fill="#ECE9D7" d="M258.115,188.245c0.217,0.027,0.391,0.188,0.424,0.4l0,0l0.002-0.005v0.004
	c0.02-0.236,0.219-0.424,0.469-0.434c0.249-0.009,0.461,0.168,0.498,0.403v-0.004c0,0,0,0.003,0.001,0.004v-0.001
	c0.021-0.212,0.183-0.387,0.396-0.425l-0.933-1.083L258.115,188.245z"/>
<path fill="#516364" d="M259.43,187.635l-0.458-0.532l-0.42,0.56c0.142,0.031,0.29,0.043,0.442,0.037
	C259.143,187.697,259.29,187.674,259.43,187.635z"/>
<g>
	
		<rect x="260.08" y="205.096" transform="matrix(0.9992 -0.0406 0.0406 0.9992 -8.13 10.7466)" fill="#B35A48" width="0.409" height="0.527"/>
	
		<rect x="259.108" y="205.12" transform="matrix(0.9995 -0.0322 0.0322 0.9995 -6.4741 8.4592)" fill="#C76854" width="0.971" height="0.527"/>
	
		<rect x="258.701" y="205.144" transform="matrix(0.9992 -0.0405 0.0405 0.9992 -8.1143 10.6647)" fill="#B35A48" width="0.41" height="0.527"/>
</g>
<path fill="#5593AF" d="M253.47,190.687l5.337,16.041c0.192-0.099,0.298-0.311,0.257-0.52l-5.205-15.651L253.47,190.687z"/>
<path fill="#77A8B7" d="M254.781,190.251l-0.923,0.307l5.205,15.651v-0.002c0.002,0.003,0.003,0.003,0.003,0.003l-0.001-0.003
	c0.102,0.215,0.354,0.324,0.591,0.244c0.237-0.077,0.373-0.316,0.328-0.549l0.002,0.007v-0.006v-0.001L254.781,190.251z"/>
<path fill="#5593AF" d="M259.987,205.902c0.091,0.193,0.305,0.299,0.518,0.263l-5.334-16.044l-0.389,0.13L259.987,205.902z"/>
<path fill="#ECE9D7" d="M260.506,206.165c-0.214,0.036-0.429-0.069-0.52-0.263l0,0v0.007l-0.002-0.006
	c0.045,0.231-0.091,0.471-0.328,0.548c-0.236,0.08-0.489-0.029-0.591-0.244l0.001,0.003c0,0-0.001,0-0.003-0.003v0.002
	c0.041,0.209-0.064,0.422-0.26,0.521l1.203,0.773L260.506,206.165z"/>
<path fill="#516364" d="M259.417,207.126l0.59,0.378l0.243-0.658c-0.145,0.014-0.29,0.043-0.432,0.09
	C259.673,206.983,259.54,207.045,259.417,207.126z"/>
<g>
	
		<rect x="253.374" y="190.103" transform="matrix(-0.9484 0.3169 -0.3169 -0.9484 554.4194 290.5476)" fill="#999999" width="0.41" height="0.526"/>
	
		<rect x="253.748" y="189.883" transform="matrix(-0.9488 0.3158 -0.3158 -0.9488 555.5039 290.2839)" fill="#B3B3B3" width="0.973" height="0.527"/>
	
		<rect x="254.686" y="189.666" transform="matrix(-0.9501 0.3119 -0.3119 -0.9501 556.3043 290.8828)" fill="#999999" width="0.407" height="0.527"/>
</g>
<path fill="#EDE4D4" d="M254.99,186.229c-0.107-0.716,0.484-0.879,0.752-0.203c0.449,1.2,0.747,1.947,1.224,3.13
	c-0.454,0.24-0.942,0.372-1.456,0.395C255.322,188.289,255.205,187.493,254.99,186.229z"/>
<path fill="#D4BF9A" d="M259.593,203.612c0.555,1.858,1.375,1.638,0.92-0.247c-0.767-3.171-2.808-11.006-3.555-14.18
	c-0.477,0.13-0.953,0.257-1.431,0.386C256.481,192.689,258.656,200.486,259.593,203.612z"/>
<rect x="255.395" y="188.919" transform="matrix(-0.9658 0.2593 -0.2593 -0.9658 552.6473 305.4164)" fill="#B2A284" width="1.574" height="0.472"/>
<path fill="#FFFFFF" d="M255.454,186.289l0.711,2.627l0.635-0.172c-0.341-0.854-0.932-2.382-0.932-2.382L255.454,186.289z"/>
<path fill="#DFD1B5" d="M256.286,189.37l4.186,15.506c0.187-0.112,0.251-0.63,0.041-1.511c-0.767-3.171-2.808-11.004-3.555-14.177
	L256.286,189.37z"/>
<polygon fill="#C2AE8C" points="256.286,189.37 256.958,189.188 257.004,189.178 256.88,188.723 256.8,188.744 256.165,188.916 "/>
<path fill="#D4BF9A" d="M255.075,186.601l0.78-0.211c0.149-0.349,0.151-0.91-0.027-1.481c-0.085-0.266-0.194-0.499-0.319-0.69
	c-0.262-0.395-0.85-0.724-0.781-1.467c0,0-0.618,0.711-0.479,1.948c0.032,0.286,0.072,0.527,0.167,0.835
	C254.568,186.026,254.817,186.41,255.075,186.601z"/>
<path fill="#DDCCAD" d="M255.607,186.46l0.247-0.069c0.003-0.01,0.012-0.017,0.015-0.028c0.137-0.349,0.131-0.9-0.04-1.453
	c-0.085-0.266-0.194-0.499-0.319-0.69c-0.262-0.395-0.85-0.724-0.781-1.467c0,0-0.394,0.448,0.356,1.739
	C255.6,185.382,255.634,186.099,255.607,186.46z"/>
<g>
	<path fill="#E6E6E6" d="M261.846,204.283c-0.451,0.062-0.891,0.635-1.074,1.412l-0.101-0.017v-0.011l0.281-1.693
		c0.069-0.011,0.126-0.062,0.14-0.139c0.016-0.09-0.045-0.174-0.136-0.188c-0.09-0.016-0.177,0.046-0.19,0.136
		c-0.012,0.072,0.028,0.141,0.091,0.174l-0.281,1.695l-0.002,0.01l-0.104-0.018c0.075-0.794-0.156-1.477-0.562-1.684
		c0.113-0.252,0.217-0.535,0.3-0.845c0.081-0.304,0.136-0.6,0.164-0.872c0.234,0.079,0.5,0.146,0.786,0.193
		c0.282,0.047,0.554,0.069,0.804,0.069c-0.061,0.269-0.104,0.567-0.125,0.88C261.816,203.705,261.821,204.008,261.846,204.283z"/>
	<path fill="#B3B3B3" d="M260.821,205.769l-0.22-0.035v-0.008h-0.037l-0.163-0.027l0.005-0.061c0.073-0.76-0.145-1.428-0.526-1.618
		l-0.055-0.028l0.024-0.057c0.117-0.263,0.218-0.544,0.294-0.835c0.08-0.291,0.134-0.583,0.164-0.864l0.01-0.077l0.076,0.024
		c0.243,0.08,0.502,0.146,0.773,0.189c0.273,0.045,0.539,0.068,0.795,0.07l0.079,0.002l-0.017,0.077
		c-0.061,0.274-0.104,0.567-0.123,0.869s-0.017,0.6,0.012,0.885l0.004,0.063l-0.061,0.006c-0.426,0.06-0.846,0.621-1.021,1.363
		L260.821,205.769z M261.009,204.026l-0.237,1.425c0.207-0.656,0.592-1.127,1.006-1.22c-0.022-0.277-0.026-0.56-0.007-0.85
		c0.02-0.28,0.057-0.553,0.108-0.809c-0.235-0.007-0.483-0.03-0.733-0.072c-0.251-0.04-0.491-0.099-0.719-0.169
		c-0.031,0.26-0.084,0.531-0.156,0.804c-0.076,0.276-0.169,0.546-0.279,0.8c0.361,0.221,0.573,0.787,0.558,1.473l0.235-1.42
		c-0.063-0.05-0.097-0.133-0.082-0.215c0.02-0.125,0.139-0.213,0.266-0.189c0.124,0.02,0.209,0.139,0.189,0.263
		C261.142,203.931,261.086,203.998,261.009,204.026z M260.928,203.709c-0.048,0-0.092,0.036-0.099,0.084
		c-0.007,0.043,0.015,0.086,0.056,0.105l0.029,0.016l0.028-0.006c0.045-0.005,0.079-0.04,0.086-0.081
		c0.01-0.056-0.028-0.106-0.083-0.116C260.94,203.711,260.934,203.709,260.928,203.709z"/>
</g>
<path fill="#C76854" d="M261.744,194.665c0.248-1.507,1.608-1.282,1.357,0.225c-0.384,2.538-0.77,5.079-1.153,7.616
	c-0.522-0.086-1.043-0.173-1.562-0.26C260.844,199.691,261.294,197.172,261.744,194.665z"/>
<rect x="260.328" y="202.372" transform="matrix(-0.9866 -0.1631 0.1631 -0.9866 485.7612 444.8775)" fill="#B35A48" width="1.64" height="0.241"/>
<path fill="#B35A48" d="M261.139,196.491l0.926-5.589c0.072-0.432,0.448-0.732,0.84-0.667l0.489,0.081
	c0.394,0.066,0.654,0.469,0.583,0.903l-0.926,5.592L261.139,196.491z"/>
<path fill="#C76854" d="M261.951,190.984l1.822,0.277c0.351,0.057,0.59,0.391,0.531,0.742l-0.48,2.984l-0.061,0.332l-0.12,0.727
	c-0.217-0.109-0.275-0.322-0.242-0.522c0.016-0.099,0.074-0.168,0.154-0.196l0.544-3.333c0.031-0.19-0.099-0.368-0.287-0.401
	l-1.912-0.315c-0.082-0.013-0.136-0.089-0.121-0.171C261.792,191.025,261.868,190.971,261.951,190.984z"/>
<path fill="#516364" d="M255.698,198.086v11.511c0,0.321,0.26,0.579,0.582,0.579h5.812c0.322,0,0.581-0.258,0.581-0.579v-11.511
	H255.698z"/>
<g>
	<g>
		<path fill="#33897B" d="M65.994,165.952c-4.294,0.954-8.829,0.239-12.645,1.909c-5.248,2.385-9.065,8.11-11.212,13.358
			c-4.294,10.258-2.386,26.004,5.487,33.877c8.589,8.827,22.187,8.35,33.399,6.918c14.075-1.67,22.902-9.781,23.38-24.334
			c0.237-10.735-2.147-19.801-11.452-26.003c-6.68-4.294-18.608-7.634-26.242-5.726"/>
	</g>
	<g opacity="0.5">
		<path fill="#205B50" d="M50.743,195.677c-3.941,1.689-6.756,7.037-1.971,9.57c7.599,3.939,10.584-11.821,2.421-9.57"/>
	</g>
	<g opacity="0.5">
		<path fill="#205B50" d="M57.117,206.002c-2.166,0.929-3.712,3.866-1.083,5.257c4.176,2.165,5.815-6.493,1.33-5.257"/>
	</g>
	<g opacity="0.5">
		<path fill="#205B50" d="M54.095,172.942c-1.654,0.709-2.835,2.954-0.827,4.017c3.19,1.654,4.442-4.961,1.016-4.017"/>
	</g>
	<path opacity="0.5" fill="#205B50" d="M102.807,206.564c-5.903,4.398-27.634,17.832-58.306,4.488
		c0.912,1.49,1.942,2.863,3.122,4.045c8.589,8.827,22.187,8.35,33.399,6.918C91.909,220.722,99.635,215.562,102.807,206.564z"/>
</g>
<g>
	<path fill="#9FA3A6" d="M46.254,237.088c0,0-8.872,68.214-6.356,69.204c2.516,0.989,9.125-67.867,9.125-67.867L46.254,237.088z"/>
	<path fill="#9FA3A6" d="M54.938,224.062c0,0-8.872,68.213-6.356,69.203c2.516,0.989,9.125-67.867,9.125-67.867L54.938,224.062z"/>
	<path fill="#9FA3A6" d="M98.664,235.64c0,0,8.873,68.214,6.356,69.203c-2.516,0.99-9.125-67.866-9.125-67.866L98.664,235.64z"/>
	<path fill="#9FA3A6" d="M89.98,224.062c0,0,8.872,66.766,6.356,67.756c-2.516,0.989-9.125-67.867-9.125-67.867L89.98,224.062z"/>
	<path fill="#C7CBD0" d="M101.023,231.338c0,3.197-2.591,5.79-5.79,5.79L49.62,238.47c-3.197,0-6.328-3.936-6.328-7.133v-3.439
		c0-3.197,2.592-5.79,5.79-5.79l45.886,1.248c3.198,0,6.055,1.345,6.055,4.542V231.338z"/>
	<path fill="#9FA3A6" d="M95.234,234.232l-45.613,1.344c-3.197,0-6.328-3.936-6.328-7.133v2.895c0,3.197,3.131,7.133,6.328,7.133
		l45.613-1.343c3.199,0,5.79-2.593,5.79-5.79v-2.895C101.023,231.64,98.432,234.232,95.234,234.232z"/>
</g>
<g>
	<path fill="#9FA3A6" d="M342.963,237.088c0,0-8.872,68.214-6.356,69.204c2.516,0.989,9.125-67.867,9.125-67.867L342.963,237.088z"
		/>
	<path fill="#9FA3A6" d="M351.647,224.062c0,0-8.872,68.213-6.355,69.203c2.516,0.989,9.125-67.867,9.125-67.867L351.647,224.062z"
		/>
	<path fill="#9FA3A6" d="M395.373,235.64c0,0,8.872,68.214,6.356,69.203c-2.516,0.99-9.125-67.866-9.125-67.866L395.373,235.64z"/>
	<path fill="#9FA3A6" d="M386.69,224.062c0,0,8.872,66.766,6.355,67.756c-2.516,0.989-9.125-67.867-9.125-67.867L386.69,224.062z"/>
	<path fill="#C7CBD0" d="M397.733,231.338c0,3.197-2.591,5.79-5.79,5.79l-45.612,1.343c-3.197,0-6.328-3.936-6.328-7.133v-3.439
		c0-3.197,2.592-5.79,5.789-5.79l45.886,1.248c3.199,0,6.056,1.345,6.056,4.542V231.338z"/>
	<path fill="#9FA3A6" d="M391.943,234.232l-45.612,1.344c-3.197,0-6.328-3.936-6.328-7.133v2.895c0,3.197,3.131,7.133,6.328,7.133
		l45.612-1.343c3.199,0,5.79-2.593,5.79-5.79v-2.895C397.733,231.64,395.142,234.232,391.943,234.232z"/>
</g>
<path fill="#205B50" d="M86.397,216.768c0,0,13.616,2.031,15.354,4.159c1.738,2.129,4.155,43.912,4.506,49.445
	c0.352,5.534,5.368,0.912,6.647,1.883c1.28,0.971,4.078,3.008-7.367,3.981c-2.792,0.237-5.453-52.419-6.163-53.47
	c-0.711-1.053-12.851-2.776-12.851-2.776S83.597,217.484,86.397,216.768z"/>
<path fill="#8C3829" d="M353.209,216.768c0,0-13.616,2.031-15.354,4.159c-1.738,2.129,0.187,17.859-0.164,23.393
	c-0.352,5.534-5.368,0.912-6.647,1.883c-1.28,0.972-4.077,3.008,7.367,3.981c2.791,0.238,1.111-26.366,1.82-27.417
	c0.711-1.053,12.852-2.776,12.852-2.776S356.009,217.484,353.209,216.768z"/>
<path fill="none" stroke="#00211A" stroke-linecap="round" stroke-miterlimit="10" d="M99.24,180.807
	c0.245,0.944,0.027,2.369-0.698,2.673c-0.872,0.366-2.431-0.075-3.003-1.062"/>
<g>
	<g>
		<g>
			<path fill="#064F5E" d="M94.504,180.358c-0.711-0.767-1.521-1.434-2.21-2.222c-0.212-0.243-0.565,0.112-0.354,0.354
				c0.689,0.788,1.5,1.455,2.21,2.222C94.37,180.948,94.723,180.594,94.504,180.358L94.504,180.358z"/>
		</g>
	</g>
	<g>
		<g>
			<path fill="#064F5E" d="M96.177,179.007c-0.726-0.895-1.405-1.825-2.024-2.796c-0.173-0.271-0.605-0.021-0.432,0.252
				c0.643,1.007,1.35,1.97,2.103,2.897C96.026,179.611,96.378,179.255,96.177,179.007L96.177,179.007z"/>
		</g>
	</g>
	<g>
		<g>
			<path fill="#064F5E" d="M97.655,178.29c-0.377-0.818-0.998-1.507-1.316-2.353c-0.112-0.299-0.596-0.169-0.482,0.133
				c0.334,0.891,0.97,1.613,1.367,2.472C97.358,178.835,97.789,178.58,97.655,178.29L97.655,178.29z"/>
		</g>
	</g>
</g>
<path fill="#63767F" d="M121.689,209.11c-0.141,0.65-0.783,1.063-1.435,0.922l0,0c-0.651-0.142-1.064-0.783-0.923-1.434
	l4.171-19.214c0.142-0.651,0.783-1.064,1.435-0.923l0,0c0.652,0.142,1.064,0.783,0.923,1.435L121.689,209.11z"/>
<path fill="#205B50" d="M82.914,192.634c0,0,19.031,21.464,34.03,13.503c0,0,3.652-3.409,4.803-2.609c1.151,0.8,0,1.408,0,1.408
	s1.151-1.066,1.512,0.52c0.362,1.586-1.512,1.371-1.512,1.371s1.787,1.179,1.559,2.145c-0.228,0.965-5.293-0.699-5.293-0.699
	s-18.092,7.669-36.546-13.878C81.467,194.393,80.743,192.7,82.914,192.634z"/>
<path fill="none" stroke="#00211A" stroke-linecap="round" stroke-miterlimit="10" d="M103.63,199.246
	c0.017,0-11.513,0.008-11.513-10.813"/>
<path fill="#C99934" d="M68.081,183.422c-7.836,1.138-7.738,14.287,2.844,12.923c6.75-0.869,5.664-6.187,5.39-8.706
	C76.039,185.123,74.119,182.546,68.081,183.422z"/>
<g>
	<path fill="#205B50" d="M70.925,196.345c-5.314,0.686-7.983-2.291-8.332-5.567c-0.372,3.773,2.239,7.801,8.332,7.015
		c5.257-0.677,5.757-4.048,5.595-6.698C76.356,193.4,75.255,195.787,70.925,196.345z"/>
</g>
<path fill="#D8B46C" d="M68.615,185.752c-4.998,0.725-4.936,9.107,1.813,8.237c4.303-0.554,3.61-3.945,3.435-5.549
	C73.687,186.834,72.463,185.192,68.615,185.752z"/>
<g>
	<path fill="#947229" d="M70.427,193.989c-3.25,0.419-4.936-1.313-5.266-3.298c-0.397,2.48,1.235,4.787,5.269,4.266
		c3.551-0.457,3.696-2.365,3.541-4.088C73.81,192.265,73.045,193.652,70.427,193.989z"/>
</g>
<path fill="#C99934" d="M72.158,183.841c0,0-5.716-13.267-3.36-18.838l-5.592,0.8c0,0-1.364,11.201,2.885,18.466
	C66.091,184.269,70.416,183.445,72.158,183.841z"/>
<g>
	<path fill="#D8B46C" d="M63.206,165.802c0,0-1.364,11.201,2.885,18.466c0,0,0.55-0.104,1.332-0.22
		c-4.098-7.254-2.742-18.457-2.742-18.457"/>
	<path fill="#D8B46C" d="M71.55,183.759c0.223,0.017,0.431,0.042,0.608,0.082c0,0-0.024-0.054-0.047-0.103
		C71.929,183.742,71.742,183.747,71.55,183.759z"/>
</g>
<g>
	<path fill="#205B50" d="M62.154,166.469c0,0-1.093,10.65,3.156,17.916c0,0,0,0,0.781-0.116c-4.097-7.253-2.858-17.953-2.858-17.953
		"/>
</g>
<path fill="none" stroke="#C99934" stroke-linecap="round" stroke-miterlimit="10" d="M126.244,184.969
	c1.685,1.025,2.404,2.235,2.352,4.342"/>
<path fill="none" stroke="#C99934" stroke-linecap="round" stroke-miterlimit="10" d="M128.599,181.55
	c2.016,1.254,3.689,3.545,3.799,5.97"/>
<path fill="none" stroke="#C99934" stroke-linecap="round" stroke-miterlimit="10" d="M194.635,184.969
	c-1.685,1.025-2.404,2.235-2.352,4.342"/>
<path fill="none" stroke="#C99934" stroke-linecap="round" stroke-miterlimit="10" d="M192.281,181.55
	c-2.016,1.254-3.689,3.545-3.799,5.97"/>
<g>
	<path fill-rule="evenodd" clip-rule="evenodd" fill="#C99934" d="M367.232,148.943c1.441,0,29.425,4.473,30.085,34.759
		c0.659,30.288-10.682,39.579-29.052,39.579c-28.252,0-31.805-35.104-31.805-39.579C336.46,179.229,338.072,148.943,367.232,148.943
		z"/>
	<path opacity="0.5" fill="#836424" d="M395.677,202.502c0,0-2.187,22.604-28.923,20.482c-19.049-1.51-24.021-15.899-24.021-15.899
		S373.463,230.869,395.677,202.502z"/>
	<g opacity="0.5">
		<path fill="none" stroke="#933A2A" stroke-linecap="round" stroke-miterlimit="10" d="M388.122,171.876
			c0.151,1.394,0.407,2.843,0.782,4.174"/>
		<path fill="none" stroke="#933A2A" stroke-miterlimit="10" d="M388.905,184.919c0.743,1.344,0.39,3.326,1.044,4.434"/>
		<path fill="none" stroke="#933A2A" stroke-linecap="round" stroke-miterlimit="10" d="M381.728,164.161
			c0.304,0.687,0.205,1.433,0.375,2.127"/>
		<path fill="none" stroke="#933A2A" stroke-linecap="round" stroke-miterlimit="10" d="M380.353,174.916
			c0.429,1.285-0.178,2.683,0.25,4.003"/>
		<path fill="none" stroke="#933A2A" stroke-linecap="round" stroke-miterlimit="10" d="M381.228,187.047
			c0.479,1.168,0.372,2.632,0.625,3.877"/>
		<path fill="none" stroke="#933A2A" stroke-miterlimit="10" d="M388.856,199.804c0,1.084,0,2.168,0,3.25"/>
		<path fill="none" stroke="#933A2A" stroke-linecap="round" stroke-miterlimit="10" d="M379.101,207.933
			c-0.283,0.803-0.122,1.779-0.125,2.625"/>
		<path fill="none" stroke="#933A2A" stroke-linecap="round" stroke-miterlimit="10" d="M385.48,210.558
			c0.409,1.025,0.125,2.617,0.125,3.752"/>
		<path fill="none" stroke="#933A2A" stroke-linecap="round" stroke-miterlimit="10" d="M372.223,216.686
			c-0.217,0.895-0.123,1.841-0.125,2.752"/>
		<path fill="none" stroke="#933A2A" stroke-linecap="round" stroke-miterlimit="10" d="M371.472,205.431
			c0.25,1.266,0.069,3.348-0.25,4.627"/>
		<path fill="none" stroke="#933A2A" stroke-linecap="round" stroke-miterlimit="10" d="M379.727,196.302
			c-0.028,1.207,0.127,2.417,0.124,3.627"/>
		<path fill="none" stroke="#933A2A" stroke-linecap="round" stroke-miterlimit="10" d="M371.222,188.173
			c0.152,1.735,0.107,3.54,0.376,5.252"/>
		<path fill="none" stroke="#933A2A" stroke-linecap="round" stroke-miterlimit="10" d="M373.599,175.917
			c0.023,0.843,0.535,2.377,0.125,3.002"/>
		<path fill="none" stroke="#933A2A" stroke-linecap="round" stroke-miterlimit="10" d="M369.472,166.163
			c0.444,0.961,0.401,2.187,0.375,3.252"/>
		<path fill="none" stroke="#933A2A" stroke-linecap="round" stroke-miterlimit="10" d="M362.218,189.674
			c0.251,0.803-0.025,1.759,0,2.626"/>
		<path fill="none" stroke="#933A2A" stroke-linecap="round" stroke-miterlimit="10" d="M361.468,205.056
			c-0.401,1.023-0.126,2.489-0.126,3.627"/>
		<path fill="none" stroke="#933A2A" stroke-linecap="round" stroke-miterlimit="10" d="M351.589,194.301
			c0.386,1.138-0.154,2.416,0.124,3.627"/>
		<path fill="none" stroke="#933A2A" stroke-linecap="round" stroke-miterlimit="10" d="M351.338,210.435
			c0.346,1.176,0.039,2.461-0.249,3.625"/>
		<path fill="none" stroke="#933A2A" stroke-linecap="round" stroke-miterlimit="10" d="M362.344,215.31
			c0.027,1.002,0,2.03-0.25,3.003"/>
		<path fill="none" stroke="#933A2A" stroke-linecap="round" stroke-miterlimit="10" d="M344.71,187.172
			c-0.046,2.093,0.479,4.173,0.374,6.248c0-0.123,0-0.246,0-0.369"/>
		<path fill="none" stroke="#933A2A" stroke-linecap="round" stroke-miterlimit="10" d="M365.971,175.793
			c0.484,0.882,0.395,1.902,0.375,2.876"/>
		<path fill="none" stroke="#933A2A" stroke-linecap="round" stroke-miterlimit="10" d="M376.1,155.031
			c0.233,0.558-0.177,2.04-0.375,2.75"/>
		<path fill="none" stroke="#933A2A" stroke-linecap="round" stroke-miterlimit="10" d="M367.346,157.281
			c0.355,1.07-0.25,2.602,0.249,3.502"/>
		<path fill="none" stroke="#933A2A" stroke-linecap="round" stroke-miterlimit="10" d="M360.343,151.154
			c0.339,1.08,0.003,2.595,0,3.751"/>
	</g>
	<path opacity="0.6" fill="#DFBA6F" d="M363.702,167.79c-0.538-9.675-16.944-10.964-17.232-10.985
		c-9.272,9.297-10.01,23.898-10.01,26.898c0,0.501,0.048,1.406,0.168,2.586C358.583,186.161,364.245,177.551,363.702,167.79z"/>
</g>
<g>
	<path fill="#8B3D7A" d="M224.327,143.553c3.883-1.942,8.875-14.701,13.034-4.717c1.664,3.883,1.664,11.651-1.938,11.928
		c-3.329,0.275-11.929-4.437-10.542-8.045"/>
</g>
<g>
	<path fill="#F6EBCE" d="M227.684,142.92c2.188-1.095,4.725-7.931,7.067-2.302c0.938,2.188,0.938,6.566-1.093,6.722
		c-1.875,0.157-6.722-2.5-5.94-4.534"/>
</g>
<g>
	<path fill="#8B3D7A" d="M199.878,143.634c-3.883-1.941-8.875-14.7-13.035-4.715c-1.664,3.883-1.664,11.651,1.939,11.928
		c3.329,0.275,11.928-4.437,10.542-8.045"/>
</g>
<g>
	<path fill="#F6EBCE" d="M196.521,143.001c-2.188-1.094-4.724-7.929-7.067-2.301c-0.938,2.188-0.938,6.566,1.093,6.722
		c1.875,0.157,6.721-2.5,5.94-4.535"/>
</g>
<g>
	<g>
		<g>
			<path fill="#602353" d="M213.383,156.743c0.363-2.083,0.854-4.139,1.32-6.201c0.071-0.314-0.411-0.447-0.482-0.133
				c-0.466,2.062-0.958,4.117-1.32,6.201C212.845,156.926,213.327,157.061,213.383,156.743L213.383,156.743z"/>
		</g>
	</g>
	<g>
		<g>
			<path fill="#602353" d="M215.623,156.517c0.299-1.312,1.011-2.486,1.207-3.826c0.046-0.315-0.436-0.451-0.482-0.133
				c-0.196,1.34-0.908,2.514-1.207,3.826C215.069,156.698,215.551,156.832,215.623,156.517L215.623,156.517z"/>
		</g>
	</g>
	<g>
		<g>
			<path fill="#602353" d="M217.201,156.98c1.04-0.874,1.599-2.193,2.32-3.314c0.175-0.272-0.258-0.522-0.432-0.252
				c-0.698,1.085-1.236,2.368-2.242,3.213C216.6,156.834,216.956,157.186,217.201,156.98L217.201,156.98z"/>
		</g>
	</g>
</g>
<g>
	<g>
		<g>
			<path fill="#602353" d="M200.732,156.611c-0.363-2.083-0.854-4.139-1.32-6.201c-0.071-0.314-0.553-0.181-0.482,0.133
				c0.466,2.062,0.957,4.117,1.32,6.201C200.305,157.061,200.787,156.926,200.732,156.611L200.732,156.611z"/>
		</g>
	</g>
	<g>
		<g>
			<path fill="#602353" d="M198.492,156.385c-0.299-1.312-1.011-2.486-1.207-3.826c-0.047-0.318-0.528-0.183-0.482,0.133
				c0.196,1.34,0.908,2.514,1.207,3.826C198.081,156.832,198.563,156.698,198.492,156.385L198.492,156.385z"/>
		</g>
	</g>
	<g>
		<g>
			<path fill="#602353" d="M196.785,156.626c-1.006-0.845-1.544-2.128-2.242-3.213c-0.174-0.271-0.607-0.02-0.432,0.252
				c0.721,1.122,1.28,2.44,2.32,3.314C196.677,157.186,197.032,156.834,196.785,156.626L196.785,156.626z"/>
		</g>
	</g>
</g>
<path fill="none" stroke="#00211A" stroke-linecap="round" stroke-miterlimit="10" d="M344.667,168.738
	c-0.244,0.944-0.026,2.369,0.698,2.673c0.872,0.366,2.432-0.075,3.004-1.062"/>
<g>
	<g>
		<g>
			<path fill="#8C3829" d="M349.757,168.642c0.712-0.767,1.522-1.433,2.211-2.222c0.211-0.242-0.141-0.597-0.354-0.354
				c-0.688,0.789-1.499,1.455-2.211,2.222C349.185,168.524,349.537,168.879,349.757,168.642L349.757,168.642z"/>
		</g>
	</g>
	<g>
		<g>
			<path fill="#8C3829" d="M348.085,167.291c0.753-0.928,1.46-1.89,2.103-2.897c0.174-0.272-0.259-0.523-0.432-0.252
				c-0.62,0.971-1.299,1.901-2.024,2.796C347.531,167.185,347.882,167.541,348.085,167.291L348.085,167.291z"/>
		</g>
	</g>
	<g>
		<g>
			<path fill="#8C3829" d="M346.686,166.472c0.396-0.859,1.031-1.582,1.366-2.472c0.113-0.302-0.37-0.432-0.482-0.133
				c-0.318,0.846-0.938,1.534-1.315,2.353C346.12,166.511,346.551,166.765,346.686,166.472L346.686,166.472z"/>
		</g>
	</g>
</g>
<path fill="#DFBA6F" d="M337.229,176.05c0,0-3.378,0.438-3.197,2.869s2.484,3.039,2.484,3.039L337.229,176.05z"/>
<path fill="#8C3829" d="M364.426,182.752c0,0-18.272,24.357-40.164,17.176c0,0-3.257,4.634-5.066,4.634c-1.809,0,0-2.403,0-2.403
	s-1.989,2.403-3.438,2.403c-1.447,0,1.267-4.328,2.172-4.634c0.904-0.306-2.644,0.266-2.588-1.286
	c0.055-1.553,3.673-3.972,8.92-1.947c5.246,2.023,21.561,5.41,38.009-14.737C362.271,181.958,364.245,180.536,364.426,182.752z"/>
<path fill="#8C3829" d="M369.13,218.216c0,0-13.616,2.031-15.354,4.159c-1.738,2.129,0.187,17.859-0.164,23.393
	c-0.352,5.534-5.368,0.912-6.647,1.883c-1.28,0.972-4.077,3.008,7.367,3.982c2.792,0.237,1.111-26.367,1.82-27.418
	c0.711-1.052,12.852-2.776,12.852-2.776S371.93,218.932,369.13,218.216z"/>
<path fill="#319B8A" d="M284.249,85.154v3.85c0,0.961-0.341,1.782-1.023,2.464c-0.681,0.682-1.503,1.024-2.465,1.024h-10.073
	c-0.96,0-1.78-0.342-2.464-1.024c-0.683-0.682-1.022-1.503-1.022-2.464V78.93c0-0.961,0.34-1.782,1.022-2.464
	c0.684-0.682,1.504-1.022,2.464-1.022h10.073c0.51,0,0.981,0.101,1.418,0.302c0.121,0.057,0.193,0.148,0.218,0.278
	c0.022,0.139-0.013,0.254-0.109,0.353l-0.594,0.592c-0.081,0.08-0.174,0.123-0.278,0.123c-0.024,0-0.062-0.01-0.109-0.026
	c-0.187-0.048-0.367-0.072-0.546-0.072h-10.073c-0.532,0-0.99,0.189-1.368,0.569c-0.379,0.38-0.569,0.836-0.569,1.368v10.074
	c0,0.534,0.19,0.988,0.569,1.37c0.378,0.378,0.836,0.567,1.368,0.567h10.073c0.533,0,0.99-0.189,1.368-0.567
	c0.38-0.381,0.569-0.836,0.569-1.37v-3.075c0-0.106,0.036-0.193,0.108-0.266l0.776-0.776c0.08-0.082,0.174-0.121,0.277-0.121
	c0.049,0,0.099,0.012,0.146,0.036c0.162,0.065,0.241,0.182,0.241,0.353H284.249z M287.045,79.232l-9.855,9.857
	c-0.193,0.193-0.424,0.29-0.69,0.29c-0.266,0-0.495-0.097-0.69-0.29l-5.205-5.207c-0.195-0.196-0.292-0.425-0.292-0.691
	c0-0.266,0.097-0.496,0.292-0.69l1.331-1.332c0.194-0.194,0.423-0.291,0.69-0.291c0.265,0,0.495,0.097,0.689,0.291l3.185,3.184
	l7.834-7.834c0.193-0.193,0.424-0.29,0.69-0.29c0.266,0,0.497,0.097,0.69,0.29l1.331,1.331c0.193,0.195,0.29,0.425,0.29,0.69
	C287.335,78.807,287.239,79.037,287.045,79.232L287.045,79.232z"/>
<path fill="#319B8A" d="M154.249,125.154v3.85c0,0.961-0.341,1.782-1.023,2.464c-0.681,0.682-1.503,1.024-2.465,1.024h-10.073
	c-0.96,0-1.78-0.342-2.464-1.024c-0.683-0.682-1.022-1.503-1.022-2.464V118.93c0-0.961,0.34-1.782,1.022-2.464
	c0.684-0.682,1.504-1.022,2.464-1.022h10.073c0.51,0,0.981,0.101,1.418,0.302c0.121,0.057,0.193,0.148,0.218,0.278
	c0.022,0.139-0.013,0.254-0.109,0.353l-0.594,0.592c-0.081,0.08-0.174,0.123-0.278,0.123c-0.024,0-0.062-0.01-0.109-0.026
	c-0.187-0.048-0.367-0.072-0.546-0.072h-10.073c-0.532,0-0.99,0.189-1.368,0.569c-0.379,0.38-0.569,0.836-0.569,1.368v10.074
	c0,0.534,0.19,0.988,0.569,1.37c0.378,0.378,0.836,0.567,1.368,0.567h10.073c0.533,0,0.99-0.189,1.368-0.567
	c0.38-0.381,0.569-0.836,0.569-1.37v-3.075c0-0.106,0.036-0.193,0.108-0.266l0.776-0.776c0.08-0.082,0.174-0.121,0.277-0.121
	c0.049,0,0.099,0.012,0.146,0.036c0.162,0.065,0.241,0.182,0.241,0.353H154.249z M157.045,119.232l-9.855,9.857
	c-0.193,0.193-0.424,0.29-0.69,0.29c-0.266,0-0.495-0.097-0.69-0.29l-5.205-5.207c-0.195-0.196-0.292-0.425-0.292-0.691
	c0-0.266,0.097-0.496,0.292-0.69l1.331-1.332c0.194-0.194,0.423-0.291,0.69-0.291c0.265,0,0.495,0.097,0.689,0.291l3.185,3.184
	l7.834-7.834c0.193-0.193,0.424-0.29,0.69-0.29c0.266,0,0.497,0.097,0.69,0.29l1.331,1.331c0.193,0.195,0.29,0.425,0.29,0.69
	C157.335,118.807,157.239,119.037,157.045,119.232L157.045,119.232z"/>
<path fill="#319B8A" d="M101.308,39.947v3.85c0,0.961-0.341,1.782-1.023,2.464c-0.681,0.682-1.503,1.024-2.465,1.024H87.747
	c-0.96,0-1.78-0.342-2.464-1.024c-0.683-0.682-1.022-1.503-1.022-2.464V33.723c0-0.961,0.34-1.782,1.022-2.464
	c0.684-0.682,1.504-1.022,2.464-1.022H97.82c0.51,0,0.981,0.101,1.418,0.302c0.121,0.057,0.193,0.148,0.218,0.278
	c0.022,0.139-0.013,0.254-0.109,0.353l-0.594,0.592c-0.081,0.08-0.174,0.123-0.278,0.123c-0.024,0-0.062-0.01-0.109-0.026
	c-0.187-0.048-0.367-0.072-0.546-0.072H87.746c-0.532,0-0.99,0.189-1.368,0.569c-0.379,0.38-0.569,0.836-0.569,1.368v10.074
	c0,0.534,0.19,0.988,0.569,1.37c0.378,0.378,0.836,0.567,1.368,0.567h10.073c0.533,0,0.99-0.189,1.368-0.567
	c0.38-0.381,0.569-0.836,0.569-1.37v-3.075c0-0.106,0.036-0.193,0.108-0.266l0.776-0.776c0.08-0.082,0.174-0.121,0.277-0.121
	c0.049,0,0.099,0.012,0.146,0.036c0.162,0.065,0.241,0.182,0.241,0.353H101.308z M104.104,34.025l-9.855,9.857
	c-0.193,0.193-0.424,0.29-0.69,0.29c-0.266,0-0.495-0.097-0.69-0.29l-5.205-5.207c-0.195-0.196-0.292-0.425-0.292-0.691
	c0-0.266,0.097-0.496,0.292-0.69l1.331-1.332c0.194-0.194,0.423-0.291,0.69-0.291c0.265,0,0.495,0.097,0.689,0.291l3.185,3.184
	l7.834-7.834c0.193-0.193,0.424-0.29,0.69-0.29c0.266,0,0.497,0.097,0.69,0.29l1.331,1.331c0.193,0.195,0.29,0.425,0.29,0.69
	C104.394,33.6,104.298,33.83,104.104,34.025L104.104,34.025z"/>
<path fill="#319B8A" d="M344.249,65.154v3.85c0,0.961-0.341,1.782-1.023,2.464c-0.681,0.682-1.503,1.024-2.465,1.024h-10.073
	c-0.96,0-1.78-0.342-2.464-1.024c-0.683-0.682-1.022-1.503-1.022-2.464V58.93c0-0.961,0.34-1.782,1.022-2.464
	c0.684-0.682,1.504-1.022,2.464-1.022h10.073c0.51,0,0.981,0.101,1.418,0.302c0.121,0.057,0.193,0.148,0.218,0.278
	c0.022,0.139-0.013,0.254-0.109,0.353l-0.594,0.592c-0.081,0.08-0.174,0.123-0.278,0.123c-0.024,0-0.062-0.01-0.109-0.026
	c-0.187-0.048-0.367-0.072-0.546-0.072h-10.073c-0.532,0-0.99,0.189-1.368,0.569c-0.379,0.38-0.569,0.836-0.569,1.368v10.074
	c0,0.534,0.19,0.988,0.569,1.37c0.378,0.378,0.836,0.567,1.368,0.567h10.073c0.533,0,0.99-0.189,1.368-0.567
	c0.38-0.381,0.569-0.836,0.569-1.37v-3.075c0-0.106,0.036-0.193,0.108-0.266l0.776-0.776c0.08-0.082,0.174-0.121,0.277-0.121
	c0.049,0,0.099,0.012,0.146,0.036c0.162,0.065,0.241,0.182,0.241,0.353H344.249z M347.045,59.232l-9.855,9.857
	c-0.193,0.193-0.424,0.29-0.69,0.29c-0.266,0-0.495-0.097-0.69-0.29l-5.205-5.207c-0.195-0.196-0.292-0.425-0.292-0.691
	c0-0.266,0.097-0.496,0.292-0.69l1.331-1.332c0.194-0.194,0.423-0.291,0.69-0.291c0.265,0,0.495,0.097,0.689,0.291l3.185,3.184
	l7.834-7.834c0.193-0.193,0.424-0.29,0.69-0.29c0.266,0,0.497,0.097,0.69,0.29l1.331,1.331c0.193,0.195,0.29,0.425,0.29,0.69
	C347.335,58.807,347.239,59.037,347.045,59.232L347.045,59.232z"/>
<g>
	<g>
		<path fill="#D9B13C" d="M364.41,127.779c-0.295-5.348-4.273-8.295-4.776-10.809c-0.754-5.529,4.273-10.808,10.055-10.305
			c6.534,0.502,10.055,9.3,5.78,14.327c-0.754,1.005-2.765,1.759-3.519,2.765c-0.754,1.256-0.503,3.016-1.257,4.021
			s-4.775,4.021-6.283,1.257C364.158,128.785,364.41,128.282,364.41,127.779"/>
	</g>
	<g>
		<g>
			<path fill="#A27F29" d="M367.498,125.831c-0.654-1.106-0.691-2.858-0.969-4.092c-0.393-1.748-1.014-3.463-1.056-5.268
				c-0.313,0.18-0.627,0.36-0.94,0.54c0.691,0.467,1.346,0.969,1.982,1.508c0.312,0.263,0.756,0.235,0.982-0.126
				c0.455-0.729,0.834-1.489,1.238-2.247c-0.36,0-0.72,0-1.08,0c0.545,0.715,0.354,2.33,1.429,2.626
				c1.143,0.314,2.229-1.273,3.096-1.713c-0.306-0.125-0.612-0.249-0.918-0.374c0.353,1.458-1.015,3.874-1.547,5.202
				c-0.382,0.955-0.805,1.857-0.965,2.879c-0.167,1.07-0.642,0.951-1.609,0.894c-0.806-0.047-0.801,1.203,0,1.25
				c2.295,0.135,2.484-0.279,2.94-2.521c0.51-2.503,3.03-5.37,2.386-8.035c-0.1-0.412-0.57-0.55-0.918-0.374
				c-0.769,0.39-1.36,1.041-2.071,1.521c0.165-0.111-0.569-1.758-0.742-1.985c-0.266-0.348-0.836-0.457-1.08,0
				c-0.403,0.758-0.783,1.519-1.238,2.247c0.328-0.042,0.654-0.084,0.982-0.126c-0.722-0.61-1.453-1.174-2.236-1.703
				c-0.395-0.267-0.951,0.086-0.94,0.54c0.039,1.697,0.544,3.297,0.94,4.936c0.379,1.571,0.422,3.649,1.254,5.056
				C366.828,127.155,367.909,126.526,367.498,125.831L367.498,125.831z"/>
		</g>
	</g>
	<g>
		<g>
			<path fill="#A27F29" d="M364.362,129.5c2.094,0.426,4.193,0.183,6.311,0.16c0.806-0.008,0.807-1.258,0-1.25
				c-1.995,0.021-4.004,0.286-5.979-0.115C363.906,128.135,363.573,129.339,364.362,129.5L364.362,129.5z"/>
		</g>
	</g>
	<g>
		<g>
			<path fill="#A27F29" d="M364.499,131.701c2.05,0.351,4.106,0.176,6.173,0.16c0.806-0.006,0.807-1.256,0-1.25
				c-1.945,0.015-3.911,0.215-5.841-0.115C364.043,130.361,363.705,131.565,364.499,131.701L364.499,131.701z"/>
		</g>
	</g>
	<g>
		<g>
			<path fill="#A27F29" d="M365.867,132.147c0.233,0.385,0.267,0.856,0.514,1.242c0.339,0.529,0.961,0.729,1.563,0.645
				c1.303-0.182,1.565-1.553,1.404-2.644c-0.05-0.338-0.471-0.519-0.769-0.437c-0.358,0.099-0.486,0.432-0.437,0.769
				c0.062,0.413,0.03,1.197-0.58,1.077c-0.179-0.036-0.226-0.272-0.274-0.42c-0.096-0.296-0.18-0.595-0.342-0.863
				C366.531,130.828,365.449,131.456,365.867,132.147L365.867,132.147z"/>
		</g>
	</g>
</g>
<g>
	<g>
		<path fill="#D9B13C" d="M212.49,114.779c0.295-5.348,4.273-8.295,4.776-10.809c0.754-5.529-4.273-10.808-10.055-10.305
			c-6.534,0.502-10.055,9.3-5.78,14.327c0.754,1.005,2.765,1.759,3.519,2.765c0.754,1.256,0.503,3.016,1.257,4.021
			s4.775,4.021,6.283,1.257C212.741,115.785,212.49,115.282,212.49,114.779"/>
	</g>
	<g>
		<g>
			<path fill="#A27F29" d="M210.482,113.462c0.729-1.231,0.786-3.016,1.095-4.391c0.418-1.862,1.056-3.677,1.1-5.601
				c0.011-0.454-0.547-0.806-0.94-0.54c-0.783,0.529-1.515,1.093-2.236,1.703c0.327,0.042,0.655,0.084,0.982,0.126
				c-0.455-0.729-0.835-1.489-1.239-2.247c-0.243-0.457-0.814-0.348-1.079,0c-0.165,0.216-0.871,1.929-0.743,1.985
				c-0.768-0.34-1.31-1.135-2.071-1.521c-0.348-0.177-0.818-0.038-0.918,0.374c-0.539,2.227,1.339,5.311,2.136,7.302
				c0.339,0.847,0.227,2.209,0.854,2.902c0.643,0.708,1.484,0.403,2.336,0.353c0.801-0.047,0.806-1.297,0-1.25
				c-0.633,0.037-1.345,0.308-1.535-0.463c-0.223-0.904-0.385-1.711-0.738-2.594c-0.586-1.464-2.243-4.284-1.848-5.917
				c-0.306,0.125-0.612,0.249-0.918,0.374c0.969,0.492,1.75,1.756,2.93,1.736c1.177-0.02,1.098-1.998,1.594-2.648
				c-0.36,0-0.719,0-1.079,0c0.403,0.758,0.783,1.519,1.238,2.247c0.226,0.362,0.67,0.39,0.982,0.126
				c0.637-0.539,1.291-1.041,1.982-1.508c-0.313-0.18-0.627-0.36-0.94-0.54c-0.036,1.581-0.527,3.078-0.896,4.604
				c-0.346,1.432-0.371,3.476-1.128,4.757C208.99,113.526,210.072,114.155,210.482,113.462L210.482,113.462z"/>
		</g>
	</g>
	<g>
		<g>
			<path fill="#A27F29" d="M212.206,115.295c-1.975,0.401-3.983,0.136-5.979,0.115c-0.807-0.008-0.806,1.242,0,1.25
				c2.117,0.022,4.216,0.266,6.311-0.16C213.328,116.339,212.993,115.135,212.206,115.295L212.206,115.295z"/>
		</g>
	</g>
	<g>
		<g>
			<path fill="#A27F29" d="M212.069,117.496c-1.93,0.33-3.896,0.13-5.841,0.115c-0.806-0.006-0.806,1.244,0,1.25
				c2.067,0.016,4.123,0.19,6.173-0.16C213.195,118.565,212.857,117.361,212.069,117.496L212.069,117.496z"/>
		</g>
	</g>
	<g>
		<g>
			<path fill="#A27F29" d="M209.952,118.516c-0.144,0.238-0.231,0.503-0.313,0.769c-0.056,0.184-0.098,0.449-0.303,0.514
				c-0.607,0.194-0.632-0.723-0.58-1.077c0.05-0.336-0.078-0.67-0.437-0.769c-0.298-0.082-0.719,0.099-0.769,0.437
				c-0.161,1.091,0.102,2.461,1.404,2.644c0.602,0.084,1.225-0.115,1.563-0.645c0.247-0.385,0.28-0.857,0.514-1.242
				C211.45,118.456,210.369,117.828,209.952,118.516L209.952,118.516z"/>
		</g>
	</g>
</g>
</svg>
