<?xml version="1.0" encoding="utf-8"?>
<!-- Generator: Adobe Illustrator 16.0.0, SVG Export Plug-In . SVG Version: 6.00 Build 0)  -->
<!DOCTYPE svg PUBLIC "-//W3C//DTD SVG 1.1//EN" "http://www.w3.org/Graphics/SVG/1.1/DTD/svg11.dtd">
<svg version="1.1" id="Capa_1" xmlns="http://www.w3.org/2000/svg" xmlns:xlink="http://www.w3.org/1999/xlink" x="0px" y="0px"
	 width="438px" height="380px" viewBox="180.445 94.14 438 380" enable-background="new 180.445 94.14 438 380"
	 xml:space="preserve">
<g>
	<circle fill="#FFFFFF" cx="411.861" cy="279.283" r="142.724"/>
	<g>
		<path fill="none" stroke="#A4CAD0" stroke-width="4" stroke-linecap="round" stroke-miterlimit="10" d="M289.792,354.547
			c25.116,41.245,70.509,68.788,122.331,68.788c79.048,0,143.125-64.079,143.125-143.125s-64.077-143.126-143.125-143.126
			c-31.629,0-60.862,10.261-84.555,27.635"/>
		<path fill="none" stroke="#A4CAD0" stroke-width="4" stroke-linecap="round" stroke-miterlimit="10" d="M272.82,313.212
			c1.861,7.894,4.379,15.533,7.486,22.859"/>
		<path fill="none" stroke="#A4CAD0" stroke-width="4" stroke-linecap="round" stroke-miterlimit="10" d="M286.01,212.47
			c-10.856,20.167-17.016,43.233-17.016,67.741"/>
	</g>
</g>
<g>
	<g>
		<g>
			<g>
				
					<line fill="none" stroke="#9FC3C8" stroke-width="3" stroke-linecap="round" stroke-miterlimit="10" x1="236.354" y1="287.031" x2="237.416" y2="285.972"/>
				
					<line fill="none" stroke="#9FC3C8" stroke-width="3" stroke-linecap="round" stroke-miterlimit="10" stroke-dasharray="2.8409,7.5758" x1="242.772" y1="280.614" x2="284.288" y2="239.1"/>
				
					<line fill="none" stroke="#9FC3C8" stroke-width="3" stroke-linecap="round" stroke-miterlimit="10" x1="286.967" y1="236.42" x2="288.027" y2="235.36"/>
			</g>
		</g>
		
			<line fill="none" stroke="#9FC3C8" stroke-width="3" stroke-linecap="round" stroke-miterlimit="10" stroke-dasharray="3,8" x1="288.027" y1="235.36" x2="315.083" y2="262.414"/>
		
			<line fill="none" stroke="#9FC3C8" stroke-width="3" stroke-linecap="round" stroke-miterlimit="10" stroke-dasharray="3,8" x1="315.083" y1="262.414" x2="414.842" y2="162.655"/>
		
			<line fill="none" stroke="#9FC3C8" stroke-width="3" stroke-linecap="round" stroke-miterlimit="10" stroke-dasharray="3,8" x1="414.842" y1="162.655" x2="426.159" y2="173.971"/>
		
			<line fill="none" stroke="#9FC3C8" stroke-width="3" stroke-linecap="round" stroke-miterlimit="10" stroke-dasharray="3,8" x1="426.159" y1="173.971" x2="463.971" y2="136.156"/>
		
			<line fill="none" stroke="#9FC3C8" stroke-width="3" stroke-linecap="round" stroke-miterlimit="10" stroke-dasharray="3,8" x1="463.971" y1="136.156" x2="473.474" y2="145.66"/>
		
			<line fill="none" stroke="#9FC3C8" stroke-width="3" stroke-linecap="round" stroke-miterlimit="10" stroke-dasharray="3,8" x1="475.224" y1="145.66" x2="509.892" y2="110.991"/>
	</g>
	<path fill="#FFFFFF" d="M291.555,167.621c0-6.519-5.292-11.812-11.818-11.812c-1.399,0-2.744,0.258-3.984,0.712
		c-1.437-6.093-6.895-10.641-13.425-10.641c-7.519,0-13.635,6.03-13.783,13.52c-0.667-0.138-1.356-0.212-2.061-0.212
		c-5.594,0-10.129,4.53-10.129,10.125c0,4.579,3.043,8.44,7.208,9.696c0.838,0.275,1.729,0.433,2.666,0.433h34.102
		c1.036,0,2.04-0.202,2.961-0.549C288.078,177.391,291.555,172.912,291.555,167.621z"/>
	<path fill="#FFFFFF" d="M537.464,130.823c0-5.59,4.537-10.129,10.134-10.129c1.2,0,2.354,0.22,3.417,0.609
		c1.231-5.226,5.911-9.123,11.511-9.123c6.446,0,11.691,5.171,11.819,11.592c0.572-0.118,1.163-0.183,1.766-0.183
		c4.797,0,8.687,3.886,8.687,8.683c0,3.926-2.609,7.238-6.182,8.313c-0.719,0.236-1.481,0.371-2.285,0.371h-29.24
		c-0.89,0-1.75-0.174-2.539-0.471C540.444,139.198,537.464,135.358,537.464,130.823z"/>
	<circle fill="#9FC3C8" cx="414.843" cy="162.655" r="4.375"/>
	<circle fill="#9FC3C8" cx="426.159" cy="173.97" r="4.375"/>
	<circle fill="#9FC3C8" cx="462.862" cy="136.156" r="4.375"/>
	<circle fill="#9FC3C8" cx="474.116" cy="145.659" r="4.375"/>
	<polygon fill="#9FC3C8" stroke="#9FC3C8" stroke-linejoin="round" stroke-miterlimit="10" points="503.886,108.08 518.491,102.14 
		512.974,116.909 	"/>
</g>
<g>
	<path fill="none" stroke="#A4CAD0" stroke-width="2" stroke-linecap="round" stroke-miterlimit="10" d="M544.873,311.571"/>
</g>
<g>
	<ellipse fill="#C7CBD0" cx="425.365" cy="353.883" rx="81.293" ry="4.697"/>
	<g>
		<polygon fill="#319B8A" points="416.929,317.826 426.161,330.698 426.573,330.403 426.982,330.698 436.214,317.826 
			435.365,317.216 426.573,329.477 417.778,317.216 		"/>
		<polygon fill="#319B8A" points="389.691,351.647 425,302.412 428.25,304.746 392.941,353.981 		"/>
		
			<rect x="378.036" y="327.117" transform="matrix(0.5828 -0.8126 0.8126 0.5828 -95.9494 468.5258)" fill="#6FAFAC" width="60.585" height="1.185"/>
		<path fill="#464445" d="M387.07,355.007l2.779-3.867l3.521,2.529l-2.775,3.867c-0.378,0.527-1.11,0.646-1.638,0.27l-1.616-1.161
			C386.813,356.267,386.692,355.535,387.07,355.007z"/>
		<polygon fill="#319B8A" points="463.452,351.647 428.143,302.412 424.893,304.746 460.204,353.981 		"/>
		
			<rect x="414.549" y="327.136" transform="matrix(-0.5828 -0.8126 0.8126 -0.5828 437.783 880.214)" fill="#6FAFAC" width="60.585" height="1.185"/>
		<path fill="#464445" d="M466.073,355.007l-2.777-3.867l-3.522,2.529l2.776,3.867c0.378,0.527,1.112,0.646,1.638,0.27l1.617-1.161
			C466.33,356.267,466.451,355.535,466.073,355.007z"/>
		<rect x="424.461" y="158.176" fill="#319B8A" width="3.999" height="173.331"/>
		<rect x="425.074" y="158.176" fill="#6FAFAC" width="1.186" height="173.331"/>
		<path fill="#6FAFAC" d="M424.291,158.655v-1.088c0-0.219,0.179-0.396,0.396-0.396h3.544c0.22,0,0.396,0.178,0.396,0.396v1.088
			H424.291z"/>
		<rect x="424.291" y="331.003" fill="#464445" width="4.337" height="1.486"/>
		
			<radialGradient id="SVGID_1_" cx="-95.3972" cy="908.718" r="50.2705" gradientTransform="matrix(1.4453 0 0 -1.4453 564.3487 1545.408)" gradientUnits="userSpaceOnUse">
			<stop  offset="0" style="stop-color:#FFFFFF"/>
			<stop  offset="0.5594" style="stop-color:#FCFCFC"/>
			<stop  offset="1" style="stop-color:#F2F2F2"/>
		</radialGradient>
		<rect x="341.283" y="174.585" fill="url(#SVGID_1_)" width="170.375" height="114.905"/>
		<rect x="339.804" y="169.201" fill="#319B8A" width="173.333" height="8.267"/>
		<rect x="339.804" y="173.748" fill="#6FAFAC" width="173.333" height="2.447"/>
		<rect x="339.804" y="287.012" fill="#319B8A" width="173.333" height="3.037"/>
		<rect x="339.804" y="288.682" fill="#6FAFAC" width="173.333" height="0.899"/>
		<path fill="#6FAFAC" d="M513.291,177.815h-0.656v-8.961h0.656c0.458,0,0.829,0.371,0.829,0.829v7.304
			C514.12,177.445,513.749,177.815,513.291,177.815z"/>
		<path fill="#6FAFAC" d="M340.283,177.815h-0.765c-0.398,0-0.721-0.321-0.721-0.72v-7.521c0-0.396,0.321-0.721,0.721-0.721h0.765
			V177.815z"/>
	</g>
	<rect x="349.523" y="229.407" fill="#C7CBD0" width="151.628" height="49.6"/>
	<path fill="#C7CBD0" d="M368.661,231.115c0.939,0,1.707-0.768,1.707-1.708s-0.768-1.708-1.707-1.708s-1.708,0.768-1.708,1.708
		C366.953,230.349,367.72,231.115,368.661,231.115z"/>
	<path fill="#C7CBD0" d="M383.401,231.528c0.939,0,1.707-0.768,1.707-1.708c0-0.941-0.768-1.708-1.707-1.708
		s-1.708,0.767-1.708,1.708S382.462,231.528,383.401,231.528z"/>
	<path fill="#C7CBD0" d="M385.544,232.211c0.939,0,1.708-0.767,1.708-1.708c0-0.938-0.769-1.706-1.708-1.706
		c-0.94,0-1.708,0.768-1.708,1.706C383.836,231.445,384.602,232.211,385.544,232.211z"/>
	<path fill="#C7CBD0" d="M366.746,231.828c0.941,0,1.708-0.767,1.708-1.706c0-0.94-0.767-1.708-1.708-1.708
		c-0.939,0-1.705,0.768-1.705,1.708C365.041,231.062,365.805,231.828,366.746,231.828z"/>
	<g>
		<g>
			<path fill="#AAAFB3" d="M474.175,232.035c-8.217-16.556,6.188-18.554,0.832-36.079l0.001-0.002
				c8.141,14.388-7.144,19.636,1.05,34.942c0.313,0.521,0.147,1.196-0.372,1.512C475.164,232.723,474.489,232.556,474.175,232.035z"
				/>
			<path fill="#AAAFB3" d="M473.702,218.608c1.384-7.031-6.146-13.21-13.222-11.39c6.261,0.266,13.302,4.277,11.708,10.904
				c-0.134,0.419,0.099,0.865,0.515,0.999C473.121,219.255,473.567,219.026,473.702,218.608z"/>
			<path fill="#AAAFB3" d="M473.793,214.51c3.063-5.401,8.706-6.391,14.004-3.392c-5.317-1.53-10.104-1.511-12.896,3.904
				c-0.142,0.306-0.505,0.438-0.812,0.297C473.784,215.179,473.65,214.815,473.793,214.51z"/>
			<path fill="#AAAFB3" d="M469.422,210.239c-1.826-2.138-1.816-5.176,0.388-6.925c-0.969,2.308-1.606,4.151,0.374,6.133
				c0.219,0.21,0.227,0.559,0.016,0.777C469.988,210.442,469.637,210.448,469.422,210.239z"/>
			<path fill="#AAAFB3" d="M476.278,204.973c0.304-2.816,2.576-4.974,5.369-4.516c-2.294,0.945-4.094,1.716-4.146,4.521
				c-0.003,0.338-0.277,0.609-0.615,0.606C476.549,205.583,476.275,205.31,476.278,204.973z"/>
			<path fill="#AAAFB3" d="M479.495,209.805c2.839-0.408,5.188,1.584,5.287,4.396c-1.28-2.153-2.461-3.912-5.234-3.5
				C478.885,210.814,478.644,209.946,479.495,209.805z"/>
		</g>
		<g>
			<path fill="#638033" d="M464.806,193.365c1.304-0.198,2.917,1.288,3.362,2.319c0.949,2.188,4.928,3.369,7.182,0.832l0.03-0.064
				C474.207,193.212,470.936,189.787,464.806,193.365z"/>
			<path fill="#6FAFAC" d="M464.806,193.365c1.304-0.198,2.917,1.288,3.362,2.319c1.213,2.799,5.325,3.146,7.182,0.832
				c-1.18-1.163-4.507-2.994-7.289-3.328c2.705-0.171,6.045,1.271,7.319,3.264C473.468,191.174,469.484,190.635,464.806,193.365z"/>
		</g>
		<g>
			<path fill="#638033" d="M489.909,201.663c-0.884-0.566-2.539-0.013-3.198,0.592c-1.4,1.283-4.677,0.847-5.489-1.729l-0.002-0.058
				C483.127,198.495,486.617,197.072,489.909,201.663z"/>
			<path fill="#6FAFAC" d="M489.909,201.663c-0.884-0.566-2.539-0.013-3.198,0.592c-1.791,1.642-4.894,0.556-5.489-1.729
				c1.235-0.464,4.249-0.711,6.38-0.048c-1.911-1.005-4.808-1.043-6.382-0.01C484.326,197.255,487.396,198.157,489.909,201.663z"/>
		</g>
		<g>
			<path fill="#638033" d="M453.324,210.709c0.683-0.798,2.428-0.741,3.233-0.354c1.711,0.825,4.723-0.536,4.758-3.237l-0.015-0.055
				C458.907,205.723,455.153,205.364,453.324,210.709z"/>
			<path fill="#6FAFAC" d="M453.324,210.709c0.683-0.798,2.428-0.742,3.233-0.354c2.188,1.055,4.846-0.876,4.758-3.237
				c-1.314-0.088-4.272,0.542-6.123,1.791c1.541-1.512,4.304-2.382,6.108-1.846C457.4,204.88,454.719,206.628,453.324,210.709z"/>
		</g>
		<g>
			<path fill="#638033" d="M474.832,201.54c-0.66-0.04-1.4,0.774-1.578,1.311c-0.377,1.137-2.312,1.903-3.554,0.736l-0.018-0.031
				C470.125,201.884,471.607,200.025,474.832,201.54z"/>
			<path fill="#6FAFAC" d="M474.832,201.54c-0.66-0.04-1.4,0.774-1.578,1.311c-0.48,1.453-2.522,1.811-3.554,0.736
				c0.537-0.636,2.121-1.697,3.497-1.988c-1.36,0.033-2.968,0.902-3.515,1.957C470.403,200.831,472.371,200.385,474.832,201.54z"/>
		</g>
		<g>
			<path fill="#638033" d="M492.434,215.5c-0.308-0.718-1.559-1.068-2.219-0.973c-1.398,0.202-3.233-1.437-2.658-3.362l0.024-0.036
				C489.582,210.711,492.33,211.293,492.434,215.5z"/>
			<path fill="#6FAFAC" d="M492.434,215.5c-0.308-0.718-1.559-1.068-2.219-0.973c-1.789,0.26-3.247-1.705-2.658-3.362
				c0.955,0.23,2.915,1.339,3.951,2.641c-0.757-1.418-2.525-2.654-3.927-2.677C490.84,210.449,492.352,212.289,492.434,215.5z"/>
		</g>
		<g>
			<path fill="#638033" d="M485.166,219.995c0.271-0.679-0.324-1.74-0.825-2.111c-1.062-0.791-1.192-3.091,0.465-3.986l0.038-0.008
				C486.444,214.936,487.879,217.14,485.166,219.995z"/>
			<path fill="#6FAFAC" d="M485.166,219.995c0.271-0.679-0.324-1.74-0.825-2.111c-1.358-1.012-1.021-3.277,0.465-3.986
				c0.479,0.787,1.044,2.816,0.869,4.362c0.438-1.439,0.084-3.429-0.831-4.37C487.452,215.597,487.235,217.816,485.166,219.995z"/>
		</g>
		<g>
			<path fill="#638033" d="M466.54,203.071c-0.671,0.179-1.135,1.235-1.134,1.825c0.004,1.255-1.665,2.66-3.285,1.912l-0.027-0.025
				C461.976,204.976,462.833,202.638,466.54,203.071z"/>
			<path fill="#6FAFAC" d="M466.54,203.071c-0.671,0.179-1.135,1.235-1.134,1.825c0.005,1.604-1.904,2.638-3.285,1.912
				c0.322-0.81,1.543-2.393,2.812-3.138c-1.341,0.486-2.646,1.884-2.841,3.111C461.905,203.838,463.71,202.74,466.54,203.071z"/>
		</g>
		<g>
			<path fill="#638033" d="M472.351,207.844c0.249-0.502,1.16-0.702,1.629-0.606c0.993,0.204,2.376-0.895,2.042-2.298l-0.017-0.027
				C474.592,204.53,472.599,204.834,472.351,207.844z"/>
			<path fill="#6FAFAC" d="M472.351,207.844c0.249-0.502,1.16-0.702,1.629-0.606c1.271,0.261,2.396-1.088,2.042-2.298
				c-0.693,0.125-2.144,0.84-2.938,1.728c0.599-0.984,1.917-1.797,2.921-1.755C473.702,204.291,472.542,205.546,472.351,207.844z"/>
		</g>
		<g>
			<path fill="#638033" d="M480.2,197.578c-0.453-0.358-1.393-0.146-1.786,0.149c-0.838,0.627-2.608,0.207-2.914-1.248l0.002-0.032
				C476.656,195.472,478.645,194.881,480.2,197.578z"/>
			<path fill="#6FAFAC" d="M480.2,197.578c-0.453-0.358-1.393-0.146-1.786,0.149c-1.071,0.802-2.713,0.036-2.914-1.248
				c0.702-0.188,2.368-0.158,3.499,0.323c-0.991-0.656-2.577-0.836-3.497-0.355C477.381,194.857,479.014,195.52,480.2,197.578z"/>
		</g>
		<g>
			<path fill="#953E82" d="M463.509,209.835c1.122-0.957,2.235-0.302,2.235,0.973s-1.026,2.309-2.292,2.309
				c-1.269,0-2.295-1.033-2.295-2.309C461.158,209.533,462.244,209.022,463.509,209.835z"/>
			<g>
				<path fill="#638033" d="M465.742,208.267c-0.329,0.082-0.567,0.593-0.572,0.882c-0.011,0.614-0.842,1.284-1.627,0.902
					l-0.013-0.015C463.492,209.152,463.933,208.018,465.742,208.267z"/>
				<path fill="#8DAF44" d="M465.742,208.267c-0.329,0.082-0.567,0.593-0.572,0.882c-0.014,0.785-0.957,1.271-1.627,0.902
					c0.167-0.394,0.78-1.153,1.409-1.507c-0.661,0.225-1.313,0.896-1.422,1.492C463.468,208.596,464.362,208.076,465.742,208.267z"
					/>
			</g>
		</g>
		<g>
			<path fill="#953E82" d="M480.783,203.627c1.122-0.957,2.234-0.302,2.234,0.973s-1.025,2.31-2.293,2.31
				c-1.267,0-2.294-1.034-2.294-2.31C478.43,203.325,479.516,202.816,480.783,203.627z"/>
			<g>
				<path fill="#638033" d="M483.014,202.06c-0.329,0.08-0.566,0.592-0.572,0.88c-0.011,0.614-0.842,1.284-1.625,0.902l-0.015-0.014
					C480.764,202.944,481.208,201.81,483.014,202.06z"/>
				<path fill="#8DAF44" d="M483.014,202.06c-0.329,0.08-0.566,0.592-0.572,0.88c-0.014,0.785-0.958,1.271-1.625,0.902
					c0.165-0.394,0.778-1.153,1.407-1.507c-0.661,0.226-1.312,0.896-1.422,1.493C480.742,202.388,481.635,201.868,483.014,202.06z"
					/>
			</g>
		</g>
		<g>
			<path fill="#953E82" d="M480.244,213.073c1.121-0.958,2.234-0.302,2.234,0.973c0,1.275-1.026,2.309-2.293,2.309
				c-1.268,0-2.294-1.033-2.294-2.309C477.891,212.772,478.975,212.262,480.244,213.073z"/>
			<g>
				<path fill="#638033" d="M482.475,211.505c-0.33,0.08-0.566,0.593-0.573,0.883c-0.011,0.611-0.841,1.282-1.626,0.9l-0.014-0.012
					C480.225,212.392,480.669,211.256,482.475,211.505z"/>
				<path fill="#8DAF44" d="M482.475,211.505c-0.33,0.08-0.566,0.593-0.573,0.883c-0.013,0.782-0.956,1.27-1.626,0.9
					c0.167-0.393,0.778-1.153,1.407-1.507c-0.659,0.225-1.312,0.896-1.421,1.495C480.202,211.834,481.094,211.315,482.475,211.505z"
					/>
			</g>
		</g>
	</g>
	<g>
		<circle fill="#C7CBD0" cx="406.645" cy="230.187" r="1.708"/>
		<path fill="#C7CBD0" d="M414.217,231.894c0.939,0,1.706-0.768,1.706-1.708s-0.767-1.707-1.706-1.707
			c-0.941,0-1.708,0.767-1.708,1.707C412.508,231.127,413.274,231.894,414.217,231.894z"/>
		<path fill="#C7CBD0" d="M410.402,234.236c1.792,0,3.255-1.462,3.255-3.254s-1.463-3.254-3.255-3.254s-3.255,1.462-3.255,3.254
			S408.61,234.236,410.402,234.236z"/>
		<path fill="#C7CBD0" d="M412.445,230.845c0.939,0,1.708-0.768,1.708-1.706c0-0.941-0.769-1.708-1.708-1.708
			c-0.94,0-1.708,0.767-1.708,1.708C410.737,230.077,411.505,230.845,412.445,230.845z"/>
		<path fill="#C7CBD0" d="M408.481,230.845c0.941,0,1.708-0.768,1.708-1.706c0-0.941-0.767-1.708-1.708-1.708
			c-0.938,0-1.706,0.767-1.706,1.708C406.775,230.077,407.543,230.845,408.481,230.845z"/>
		<path fill="#C7CBD0" d="M410.402,230.254c0.939,0,1.707-0.767,1.707-1.708c0-0.939-0.768-1.708-1.707-1.708
			s-1.708,0.769-1.708,1.708C408.694,229.488,409.463,230.254,410.402,230.254z"/>
	</g>
	<path fill="#6FAFAC" d="M442.199,228.337c-0.432-2.146-0.789-6.255,0.433-12.058c0.157-0.747-0.162-0.788-0.352-0.232
		C440.236,222.021,441.247,226.168,442.199,228.337z"/>
	<g>
		<path fill="#638033" d="M448.135,214.268c-0.709-0.108-1.588,0.701-1.83,1.262c-0.518,1.191-2.682,1.834-3.907,0.453l-0.018-0.035
			C443.02,214.185,444.801,212.32,448.135,214.268z"/>
		<path fill="#6FAFAC" d="M448.135,214.268c-0.709-0.108-1.588,0.701-1.83,1.262c-0.66,1.523-2.897,1.713-3.907,0.453
			c0.642-0.633,2.452-1.629,3.968-1.812c-1.474-0.094-3.29,0.691-3.984,1.775C443.424,213.075,445.591,212.781,448.135,214.268z"/>
	</g>
	<g>
		
			<rect x="359.313" y="197.307" transform="matrix(-0.9427 0.3335 -0.3335 -0.9427 768.3505 263.468)" fill="#969796" width="4.495" height="0.757"/>
		<path fill="#656565" d="M359.148,198.148l0.479-0.17c1.526,3.788,4.916,2.727,3.643-1.287l0.479-0.17
			C365.426,201.257,360.773,202.74,359.148,198.148z"/>
		<path fill="#684C2D" d="M362.266,199.637L362.266,199.637c0.401-0.143,0.846,0.07,0.989,0.473l9.215,26.055
			c0.143,0.401-0.069,0.848-0.473,0.989l0,0c-0.402,0.142-0.848-0.071-0.988-0.473l-9.216-26.056
			C361.651,200.225,361.864,199.779,362.266,199.637z"/>
		<path fill="#656565" d="M365.214,222.791l9.318-3.297C379.033,232.224,369.631,235.281,365.214,222.791z"/>
		<path fill="#969796" d="M370.603,220.886l1.867,5.277c0.143,0.401-0.069,0.848-0.473,0.989l0,0
			c-0.402,0.142-0.848-0.071-0.988-0.473l-1.867-5.278L370.603,220.886z"/>
	</g>
	<g>
		<path fill="#6FAFAC" d="M375.962,231.254c0.447,0.167,0.82,0.526,0.987,1.016c0.165,0.489,0.089,1.001-0.163,1.406
			c-0.448-0.165-0.821-0.525-0.987-1.015C375.632,232.173,375.708,231.66,375.962,231.254z"/>
		<path fill="#6FAFAC" d="M377.484,226.367c0.196,0.437,0.202,0.953-0.028,1.415c-0.231,0.461-0.65,0.767-1.118,0.871
			c-0.194-0.438-0.2-0.955,0.03-1.417C376.598,226.776,377.018,226.471,377.484,226.367z"/>
		<path fill="#6FAFAC" d="M379.802,230.219c-0.22,0.426-0.621,0.753-1.126,0.859c-0.505,0.108-1.004-0.027-1.377-0.329
			c0.22-0.426,0.62-0.753,1.125-0.858C378.928,229.782,379.428,229.919,379.802,230.219z"/>
		<path fill="#6FAFAC" d="M378.706,219.237c0.446,0.167,0.82,0.526,0.985,1.015c0.167,0.489,0.091,1.001-0.163,1.406
			c-0.447-0.165-0.819-0.523-0.985-1.014C378.376,220.156,378.451,219.643,378.706,219.237z"/>
	</g>
	<g>
		<path fill="#C7CBD0" d="M438.289,231.894c0.94,0,1.708-0.768,1.708-1.708s-0.768-1.707-1.708-1.707
			c-0.939,0-1.708,0.767-1.708,1.707C436.581,231.127,437.348,231.894,438.289,231.894z"/>
		<path fill="#C7CBD0" d="M445.858,231.894c0.939,0,1.707-0.768,1.707-1.708s-0.768-1.707-1.707-1.707s-1.708,0.767-1.708,1.707
			C444.15,231.127,444.919,231.894,445.858,231.894z"/>
		<path fill="#C7CBD0" d="M442.047,234.236c1.79,0,3.253-1.462,3.253-3.254s-1.463-3.254-3.253-3.254
			c-1.794,0-3.254,1.462-3.254,3.254S440.253,234.236,442.047,234.236z"/>
		<path fill="#C7CBD0" d="M444.088,230.845c0.94,0,1.708-0.768,1.708-1.706c0-0.941-0.768-1.708-1.708-1.708
			c-0.939,0-1.706,0.767-1.706,1.708C442.382,230.077,443.147,230.845,444.088,230.845z"/>
		<path fill="#C7CBD0" d="M440.127,230.845c0.938,0,1.707-0.768,1.707-1.706c0-0.941-0.769-1.708-1.707-1.708
			c-0.941,0-1.708,0.767-1.708,1.708C438.419,230.077,439.184,230.845,440.127,230.845z"/>
		<path fill="#C7CBD0" d="M442.047,230.254c0.938,0,1.706-0.767,1.706-1.708c0-0.939-0.768-1.708-1.706-1.708
			c-0.941,0-1.708,0.769-1.708,1.708C440.339,229.488,441.104,230.254,442.047,230.254z"/>
	</g>
	<g>
		<path fill="#C7CBD0" d="M470.547,231.482c0.94,0,1.708-0.768,1.708-1.708s-0.768-1.707-1.708-1.707
			c-0.939,0-1.708,0.767-1.708,1.707C468.839,230.715,469.606,231.482,470.547,231.482z"/>
		<path fill="#C7CBD0" d="M478.117,231.482c0.938,0,1.707-0.768,1.707-1.708s-0.769-1.707-1.707-1.707
			c-0.94,0-1.708,0.767-1.708,1.707C476.409,230.715,477.176,231.482,478.117,231.482z"/>
		<path fill="#C7CBD0" d="M474.302,233.823c1.793,0,3.255-1.462,3.255-3.254s-1.462-3.254-3.255-3.254
			c-1.791,0-3.252,1.462-3.252,3.254S472.51,233.823,474.302,233.823z"/>
		<path fill="#C7CBD0" d="M476.344,230.433c0.941,0,1.708-0.768,1.708-1.706c0-0.941-0.767-1.708-1.708-1.708
			c-0.938,0-1.706,0.767-1.706,1.708C474.638,229.665,475.406,230.433,476.344,230.433z"/>
		<path fill="#C7CBD0" d="M472.384,230.433c0.939,0,1.707-0.768,1.707-1.706c0-0.941-0.768-1.708-1.707-1.708
			c-0.941,0-1.708,0.767-1.708,1.708C470.676,229.665,471.442,230.433,472.384,230.433z"/>
		<path fill="#C7CBD0" d="M474.302,229.843c0.941,0,1.708-0.768,1.708-1.708s-0.767-1.708-1.708-1.708
			c-0.939,0-1.706,0.768-1.706,1.708S473.362,229.843,474.302,229.843z"/>
	</g>
	<g>
		<g>
			
				<rect x="393.519" y="206.448" transform="matrix(-0.9938 -0.111 0.111 -0.9938 770.0939 457.7642)" fill="#D19E33" width="8.542" height="1.993"/>
			
				<rect x="402.065" y="205.827" transform="matrix(0.9938 0.1108 -0.1108 0.9938 25.5163 -43.3264)" fill="#D19E33" width="1.278" height="4.323"/>
			<polygon fill="#D19E33" points="402.283,205.773 401.065,206.815 400.846,208.782 401.803,210.069 			"/>
			<path fill="#D19E33" d="M392.542,209.421l-4.303-4.903l0.815-7.37l3.772-2.258c-1.008-1.117-2.177-1.904-3.271-2.282l0.09-0.806
				c1.316,0.424,2.705,1.346,3.871,2.674l5.707,6.507L392.542,209.421z M388.239,204.518l-3.96-4.513l2.058-1.23
				c-1.613-2.489-1.812-5.228-0.324-6.531c0.896-0.785,2.226-0.896,3.636-0.44l-0.09,0.806c-1.173-0.407-2.263-0.344-2.978,0.283
				c-1.197,1.05-0.963,3.341,0.435,5.479l2.04-1.222L388.239,204.518z"/>
		</g>
		<path fill="#E4F0F6" d="M404.517,208.48c0.83,1.204,1.877,2.061,2.33,1.023C407.3,208.469,405.966,208.269,404.517,208.48z"/>
		<path fill="#E4F0F6" d="M408.992,209.156c1.143,0.914,2.393,1.433,2.526,0.31C411.653,208.345,410.317,208.537,408.992,209.156z"
			/>
		<path fill="#E4F0F6" d="M405.637,212.285c-0.744,1.259-1.082,2.57,0.049,2.545C406.816,214.806,406.436,213.512,405.637,212.285z"
			/>
		<path fill="#E4F0F6" d="M409.081,211.639c0.426,1.398,1.163,2.532,1.91,1.684C411.736,212.472,410.523,211.876,409.081,211.639z"
			/>
		<path fill="#E4F0F6" d="M408.459,214.948c-0.506,1.373-0.601,2.723,0.507,2.495C410.072,217.212,409.466,216.009,408.459,214.948z
			"/>
		<path fill="#E4F0F6" d="M414.344,213.766c0.394,1.41,1.104,2.561,1.871,1.728C416.978,214.66,415.783,214.038,414.344,213.766z"/>
		<path fill="#E4F0F6" d="M412.555,217.057c-0.205,1.448-0.014,2.788,1.021,2.332C414.61,218.932,413.762,217.881,412.555,217.057z"
			/>
		<path fill="#E4F0F6" d="M406.549,217.428c-0.884,1.166-1.367,2.431-0.241,2.534C407.432,220.066,407.201,218.736,406.549,217.428z
			"/>
		<path fill="#E4F0F6" d="M410.024,219.814c-0.461,1.389-0.513,2.741,0.586,2.477C411.712,222.028,411.064,220.843,410.024,219.814z
			"/>
		<path fill="#E4F0F6" d="M414.379,222.34c-0.436,1.396-0.462,2.749,0.632,2.466C416.104,224.522,415.437,223.349,414.379,222.34z"
			/>
		<path fill="#E4F0F6" d="M405.582,221.435c-1.107,0.955-1.847,2.09-0.769,2.428C405.892,224.2,405.946,222.852,405.582,221.435z"/>
	</g>
	<g>
		<path fill="#638033" d="M433.635,218.429c1.001-0.152,2.24,0.988,2.584,1.781c0.729,1.683,3.785,2.588,5.517,0.641l0.023-0.052
			C440.857,218.31,438.344,215.679,433.635,218.429z"/>
		<path fill="#6FAFAC" d="M433.635,218.429c1.001-0.152,2.24,0.988,2.584,1.781c0.931,2.15,4.091,2.418,5.517,0.641
			c-0.905-0.896-3.463-2.302-5.602-2.558c2.08-0.133,4.646,0.977,5.625,2.506C440.291,216.745,437.229,216.33,433.635,218.429z"/>
	</g>
</g>
<g>
	<path fill="#953E82" d="M554.267,244.942c1.702-0.23,21.333-4.334,31,16.666c9.666,21,9.449,67.281-36.668,62.666
		c-39.555-3.959-16.212-44.18-16.212-44.18s1.88-25.152,11.88-30.152l3.332-2C547.599,247.942,552.565,245.171,554.267,244.942z"/>
	<g>
		<ellipse fill="#010002" cx="557.558" cy="266.899" rx="2.125" ry="3.625"/>
		<ellipse fill="#FFFFFF" cx="556.942" cy="265.78" rx="0.617" ry="1.119"/>
	</g>
	<g>
		<ellipse fill="#010002" cx="549.558" cy="265.899" rx="2.125" ry="3.625"/>
		<ellipse fill="#FFFFFF" cx="548.942" cy="264.78" rx="0.617" ry="1.119"/>
	</g>
	<path opacity="0.5" fill="#622556" enable-background="new    " d="M525.66,304.554c43.706,36.785,61.855-16.473,64.365-24.126
		c2.052,22.042-6.595,48.137-41.426,43.846C528.3,321.774,526.571,313.172,525.66,304.554z"/>
	<ellipse fill="#010002" cx="551.99" cy="281.895" rx="2.443" ry="4.581"/>
	<g>
		<circle fill="none" stroke="#A4CAD0" stroke-linecap="round" stroke-miterlimit="10" cx="547.191" cy="266.237" r="4.956"/>
		<circle fill="none" stroke="#A4CAD0" stroke-linecap="round" stroke-miterlimit="10" cx="559.691" cy="266.237" r="4.956"/>
		<circle opacity="0.3" fill="#A4CAD0" enable-background="new    " cx="546.983" cy="266.236" r="4.805"/>
		<circle opacity="0.3" fill="#A4CAD0" enable-background="new    " cx="559.983" cy="266.236" r="4.805"/>
		
			<line fill="none" stroke="#A4CAD0" stroke-linecap="round" stroke-miterlimit="10" x1="552.146" y1="266.237" x2="554.735" y2="266.237"/>
		<g>
			<g>
				<path fill="#A4CAD0" d="M565.336,266.031c1.664-2.173,10.965-8.054,11.664-2.771c0.083,0.63,1.084,0.638,1,0
					c-0.913-6.898-11.284-0.662-13.527,2.267C564.08,266.038,564.95,266.536,565.336,266.031L565.336,266.031z"/>
			</g>
		</g>
	</g>
	<path fill="none" stroke="#9FC3C8" stroke-linecap="round" stroke-miterlimit="10" d="M578.136,245.399
		c0,0,3.511,1.084,5.962,5.443"/>
	<path fill="none" stroke="#9FC3C8" stroke-linecap="round" stroke-miterlimit="10" d="M584.098,245.399
		c0,0,2.777,1.633,4.248,6.208"/>
	<path fill="none" stroke="#9FC3C8" stroke-linecap="round" stroke-miterlimit="10" d="M523.099,268.6c0,0,1.524,4.811,5.119,5.918"
		/>
	<path fill="none" stroke="#9FC3C8" stroke-linecap="round" stroke-miterlimit="10" d="M523.099,274.518
		c0,0,2.625,3.465,6.896,4.049"/>
	<g>
		<path fill="#C6CACE" d="M540.582,338.262c7.657-0.358,14.676-0.899,22.545-0.358c4.254,0.179,14.25-0.361,14.038,4.859
			c-0.213,3.061-3.829,4.501-7.021,5.04c-6.38,1.081-13.823,0.722-20.205,0.541c-4.467,0-9.996,0.54-14.037-1.261
			c-6.594-3.06,0.212-7.382,4.68-8.461"/>
	</g>
	<path fill="#602353" d="M552.838,321.288c0,0-0.883,13.979,1.811,21.751c1.188,3.424-6.441,2-7.713,2c0,0-0.826-2.592,0.226-2.476
		c1.051,0.115,4.814,1.301,4.789-0.116c-0.026-1.417-1.781-19.54-1.249-21.159C551.232,319.669,552.893,320.121,552.838,321.288z"/>
	<path fill="#602353" d="M562.838,321.288c0,0-0.883,13.979,1.811,21.751c1.188,3.424-6.441,2-7.713,2c0,0-0.826-2.592,0.226-2.476
		c1.051,0.115,4.814,1.301,4.789-0.116c-0.026-1.417-1.781-19.54-1.249-21.159C561.232,319.669,562.893,320.121,562.838,321.288z"/>
	<g>
		<g>
			<path fill="#8B3D7A" d="M551.656,246.58c-2.684-1.341-6.133-10.156-9.007-3.258c-1.148,2.683-1.148,8.05,1.341,8.241
				c2.3,0.189,8.24-3.065,7.282-5.56"/>
		</g>
		<g>
			<path fill="#F6EBCE" d="M549.337,246.143c-1.512-0.756-3.264-5.479-4.883-1.59c-0.648,1.512-0.648,4.536,0.755,4.645
				c1.296,0.108,4.644-1.728,4.104-3.133"/>
		</g>
	</g>
	<g>
		<g>
			<path fill="#8B3D7A" d="M565.908,246.58c2.683-1.341,6.132-10.156,9.006-3.258c1.148,2.683,1.148,8.05-1.341,8.241
				c-2.3,0.189-8.24-3.065-7.282-5.56"/>
		</g>
		<g>
			<path fill="#F6EBCE" d="M568.226,246.143c1.513-0.756,3.265-5.479,4.883-1.59c0.648,1.512,0.648,4.536-0.755,4.645
				c-1.296,0.108-4.644-1.728-4.104-3.133"/>
		</g>
	</g>
	<path fill="#602353" d="M580.346,283.703c0,0-5.935,17.479-13.847,20.823c0,0,0.566,3.279-0.388,3.372
		c-0.954,0.091-1.337-3.372-1.337-3.372s-1.622,2.547-2.385,1.722c-0.765-0.825,1.526-2.567,1.526-2.567s-3.625,0.734-2.959-0.274
		c0.668-1.009,5.535-0.551,6.395-1.192c0.858-0.642,7.635-5.478,11.547-18.51C578.9,283.703,579.885,282.615,580.346,283.703z"/>
	<path fill="#602353" d="M533.442,274.206c0,0-10.083-4.543-13.416-16.46c0,0-2.417-1.001-2.5-1.834s1.833-0.084,2.333,0
		s-1.666-2.584-0.666-2.75s1.5,2.334,2.083,2.584s-0.499-3.017,0.417-2.592s0.442,3.342,0.389,4.592
		c-0.055,1.25,1.033,7.385,11.489,14.942L533.442,274.206z"/>
	<g>
		<g>
			<path fill="#602353" d="M548.266,259.823c-0.149-1.453-0.212-2.912-0.291-4.37c-0.018-0.321-0.518-0.322-0.5,0
				c0.079,1.458,0.142,2.917,0.291,4.37C547.8,260.14,548.3,260.143,548.266,259.823L548.266,259.823z"/>
		</g>
	</g>
	<g>
		<g>
			<path fill="#602353" d="M549.714,259.249c-0.045-0.929,0.199-1.842,0.081-2.771c-0.04-0.315-0.541-0.319-0.5,0
				c0.118,0.928-0.126,1.842-0.081,2.771C549.228,259.571,549.728,259.573,549.714,259.249L549.714,259.249z"/>
		</g>
	</g>
	<g>
		<g>
			<path fill="#602353" d="M550.838,259.301c0.526-0.787,0.657-1.77,0.927-2.659c0.094-0.311-0.39-0.44-0.481-0.133
				c-0.257,0.848-0.375,1.79-0.876,2.539C550.225,259.318,550.66,259.568,550.838,259.301L550.838,259.301z"/>
		</g>
	</g>
	<g>
		<g>
			<g>
				<path fill="#602353" d="M563.122,260.056c0.339-1.421,0.59-2.859,0.858-4.295c0.06-0.315-0.423-0.45-0.481-0.134
					c-0.271,1.437-0.521,2.874-0.859,4.295C562.564,260.237,563.047,260.369,563.122,260.056L563.122,260.056z"/>
			</g>
		</g>
		<g>
			<g>
				<path fill="#602353" d="M561.761,259.298c0.165-0.913,0.043-1.854,0.281-2.758c0.082-0.312-0.4-0.443-0.482-0.133
					c-0.239,0.907-0.114,1.842-0.28,2.758C561.222,259.481,561.705,259.615,561.761,259.298L561.761,259.298z"/>
			</g>
		</g>
		<g>
			<g>
				<path fill="#602353" d="M560.597,258.88c-0.397-0.805-0.386-1.765-0.528-2.636c-0.052-0.317-0.533-0.183-0.481,0.133
					c0.151,0.924,0.157,1.902,0.579,2.756C560.308,259.421,560.741,259.168,560.597,258.88L560.597,258.88z"/>
			</g>
		</g>
	</g>
</g>
<g>
	<path fill="#294C84" d="M409.702,349.731c-0.184-0.958-3.62-4.434-4.986-5.229c1.111-1.734-0.899-3.323-2.311-2.107
		c-1.446,1.244-0.868,2.889,0.672,3.396c0.969,0.32,1.136-0.192,2.146,0.498c0.596,0.406,1.064,1.048,1.482,1.602
		c0.873,1.158,1.343,3.324,2.995,2.021"/>
	<path fill="#294C84" d="M411.573,349.731c0.183-0.958,3.619-4.434,4.985-5.229c-1.11-1.734,0.899-3.323,2.312-2.107
		c1.445,1.244,0.868,2.889-0.672,3.396c-0.97,0.32-1.137-0.192-2.147,0.498c-0.596,0.406-1.063,1.048-1.482,1.602
		c-0.872,1.158-1.343,3.324-2.994,2.021"/>
	<path fill="#205B50" d="M532.96,367.696c0,0,8.942,10.448,7.216,20.726c0,0,2.702,0.753,2.049,1.982
		c-0.653,1.229-2.061-0.967-2.061-0.967s1.814,1.926,0.655,2.624c-1.159,0.696-1.967-1.51-1.967-1.51s0.351,2.768-0.687,2.741
		c-1.038-0.023,0.536-5.766,0.536-5.766s2.046-4.545-5.614-18.174L532.96,367.696z"/>
	<path fill="#294C84" d="M390.842,399.99c-2.16,0.565-3.993-1.504-4.983-2.56c-2.04-2.173-3.198-5.582-3.688-8.444
		c-0.43-2.514-0.968-4.947,0.214-7.298c0.345-0.688,1.522-2.61,0.591-3.381c-1.29-1.064-1.971,1.644-1.962,2.449
		c-0.438-0.864-0.602-1.755-1.039-2.579c-2.428-0.666-0.999,2.359-0.661,3.288c-0.636-0.683-2.715-1.167-3.276-0.11
		c-0.812,1.527,1.93,1.829,2.624,2.46c2.61,2.365,3.646,12.672,5.392,14.795c1.286,1.565,4.344,4.146,6.622,3.547
		C391.941,401.823,392.295,400.498,390.842,399.99"/>
	<path fill="#294C84" d="M434.833,399.99c2.16,0.565,3.993-1.504,4.982-2.56c2.04-2.173,3.198-5.582,3.688-8.444
		c0.429-2.514,0.967-4.947-0.214-7.298c-0.346-0.688-1.523-2.61-0.591-3.381c1.29-1.064,1.971,1.644,1.962,2.449
		c0.438-0.864,0.601-1.755,1.039-2.579c2.428-0.666,0.999,2.359,0.66,3.288c0.637-0.683,2.716-1.167,3.276-0.11
		c0.813,1.527-1.929,1.829-2.624,2.46c-2.609,2.365-3.646,12.672-5.391,14.795c-1.286,1.565-4.344,4.146-6.622,3.547
		C433.732,401.823,433.381,400.498,434.833,399.99"/>
	<path fill="#C7CBD0" d="M430.643,461.631c-2.919-0.659-6.218-0.069-9.231-0.138c-4.235-0.093-8.449-0.274-12.683-0.271
		c-5.467,0.006-11.339-0.287-16.166,2.576c-3.389,2.01-3.352,6.068,0.884,6.943c1.694,0.35,3.398,0.325,5.146,0.407
		c2.338,0.109,4.599,0.615,6.928,0.819c3.917,0.344,8.02-0.062,11.928-0.417c3.464-0.312,6.85-0.689,10.224-1.347
		c2.351-0.457,5.43-0.742,5.82-3.544c0.251-1.806-0.896-4.408-2.848-4.896"/>
	<path fill="#C7CBD0" d="M349.388,431.095c-5.235-1.001-10.708-0.572-16.002-0.593c-2.976-0.013-6.023,0.055-8.988,0.27
		c-1.37,0.099-2.713,0.377-4.076,0.545c-1.696,0.209-2.9,0.105-4.118,1.257c-0.781,0.74-1.938,2.07-1.856,3.177
		c0.086,1.158,1.887,2.027,2.837,2.551c2.685,1.479,5.541,1.159,8.541,1.382c7.487,0.555,15.22-0.076,22.685-0.725
		c1.995-0.173,3.916-0.39,4.321-2.438c0.187-0.937-0.052-1.84-0.479-2.729c-0.504-1.046-1.575-2.362-2.866-2.597"/>
	<path fill="#C7CBD0" d="M514.388,430.095c-5.235-1.001-10.708-0.572-16.002-0.593c-2.975-0.013-6.022,0.055-8.988,0.27
		c-1.37,0.099-2.713,0.377-4.075,0.545c-1.697,0.209-2.901,0.105-4.118,1.257c-0.782,0.74-1.939,2.07-1.857,3.177
		c0.086,1.158,1.887,2.027,2.837,2.551c2.686,1.479,5.541,1.159,8.541,1.382c7.487,0.555,15.221-0.076,22.686-0.725
		c1.994-0.173,3.916-0.39,4.32-2.438c0.187-0.937-0.052-1.84-0.479-2.729c-0.504-1.046-1.575-2.362-2.866-2.597"/>
	<path fill="#933A2A" d="M331.469,421.18c0,0,0.95,14,0,14.347c-0.95,0.346-4.491-3.066-4.061-3.757
		c0.432-0.691,1.943-0.042,2.549,0.087c0.604,0.129-0.325-11.401-0.325-11.401L331.469,421.18z"/>
	<path fill="#205B50" d="M496.469,401.18c0,0,0.95,34,0,34.347c-0.95,0.346-4.491-3.066-4.06-3.757
		c0.431-0.691,1.942-0.042,2.548,0.087c0.604,0.129-0.325-31.401-0.325-31.401L496.469,401.18z"/>
	<path fill="#205B50" d="M502.799,401.18c0,0-0.95,34,0,34.347c0.95,0.346,4.491-3.066,4.06-3.757
		c-0.431-0.691-1.942-0.042-2.548,0.087c-0.604,0.129,0.325-31.401,0.325-31.401L502.799,401.18z"/>
	<path fill="#933A2A" d="M335.799,421.18c0,0-0.95,14,0,14.347c0.95,0.346,4.491-3.066,4.06-3.757
		c-0.431-0.691-1.942-0.042-2.548,0.087s0.325-11.401,0.325-11.401L335.799,421.18z"/>
	<path fill="#C99934" d="M334.245,350.18c1.396,0,28.5,4.332,29.14,33.666c0.639,29.334-10.347,38.334-28.14,38.334
		c-27.362,0-30.805-34.001-30.805-38.334S306.002,350.18,334.245,350.18z"/>
	<path opacity="0.5" fill="#836424" enable-background="new    " d="M361.797,402.055c0,0-2.117,21.893-28.015,19.839
		c-18.448-1.464-23.266-15.4-23.266-15.4S340.281,429.53,361.797,402.055z"/>
	<g opacity="0.5">
		<path fill="none" stroke="#933A2A" stroke-linecap="round" stroke-miterlimit="10" d="M354.478,372.391
			c0.147,1.351,0.396,2.754,0.758,4.044"/>
		<path fill="none" stroke="#933A2A" stroke-miterlimit="10" d="M355.236,385.025c0.721,1.303,0.378,3.222,1.011,4.295"/>
		<path fill="none" stroke="#933A2A" stroke-linecap="round" stroke-miterlimit="10" d="M348.285,364.919
			c0.296,0.665,0.199,1.389,0.363,2.061"/>
		<path fill="none" stroke="#933A2A" stroke-linecap="round" stroke-miterlimit="10" d="M346.953,375.336
			c0.415,1.244-0.173,2.6,0.242,3.876"/>
		<path fill="none" stroke="#933A2A" stroke-linecap="round" stroke-miterlimit="10" d="M347.801,387.085
			c0.465,1.132,0.359,2.548,0.604,3.755"/>
		<path fill="none" stroke="#933A2A" stroke-miterlimit="10" d="M355.189,399.442c0,1.05,0,2.1,0,3.148"/>
		<path fill="none" stroke="#933A2A" stroke-linecap="round" stroke-miterlimit="10" d="M345.741,407.315
			c-0.273,0.776-0.118,1.725-0.121,2.544"/>
		<path fill="none" stroke="#933A2A" stroke-linecap="round" stroke-miterlimit="10" d="M351.92,409.859
			c0.396,0.993,0.121,2.533,0.121,3.634"/>
		<path fill="none" stroke="#933A2A" stroke-linecap="round" stroke-miterlimit="10" d="M339.079,415.792
			c-0.21,0.866-0.118,1.782-0.12,2.665"/>
		<path fill="none" stroke="#933A2A" stroke-linecap="round" stroke-miterlimit="10" d="M338.352,404.891
			c0.241,1.228,0.066,3.243-0.242,4.482"/>
		<path fill="none" stroke="#933A2A" stroke-linecap="round" stroke-miterlimit="10" d="M346.346,396.049
			c-0.027,1.169,0.123,2.34,0.121,3.514"/>
		<path fill="none" stroke="#933A2A" stroke-linecap="round" stroke-miterlimit="10" d="M338.11,388.176
			c0.147,1.682,0.104,3.429,0.363,5.087"/>
		<path fill="none" stroke="#933A2A" stroke-linecap="round" stroke-miterlimit="10" d="M340.412,376.305
			c0.021,0.816,0.519,2.304,0.121,2.907"/>
		<path fill="none" stroke="#933A2A" stroke-linecap="round" stroke-miterlimit="10" d="M329.389,366.252
			c0.454,1.209,0.339,2.55,0.727,3.755"/>
		<path fill="none" stroke="#933A2A" stroke-linecap="round" stroke-miterlimit="10" d="M336.416,366.859
			c0.43,0.931,0.389,2.117,0.362,3.148"/>
		<path fill="none" stroke="#933A2A" stroke-linecap="round" stroke-miterlimit="10" d="M324.786,380.424
			c0.46,1.321,0.335,3.407,0.364,4.846"/>
		<path fill="none" stroke="#933A2A" stroke-linecap="round" stroke-miterlimit="10" d="M329.389,389.629
			c0.242,0.777-0.025,1.705,0,2.544"/>
		<path fill="none" stroke="#933A2A" stroke-linecap="round" stroke-miterlimit="10" d="M328.662,404.529
			c-0.389,0.992-0.12,2.411-0.12,3.513"/>
		<path fill="none" stroke="#933A2A" stroke-linecap="round" stroke-miterlimit="10" d="M319.094,394.112
			c0.375,1.102-0.148,2.34,0.121,3.513"/>
		<path fill="none" stroke="#933A2A" stroke-linecap="round" stroke-miterlimit="10" d="M318.851,409.738
			c0.335,1.14,0.038,2.386-0.242,3.513"/>
		<path fill="none" stroke="#933A2A" stroke-linecap="round" stroke-miterlimit="10" d="M329.51,414.46
			c0.025,0.969,0.001,1.966-0.242,2.907"/>
		<path fill="none" stroke="#933A2A" stroke-linecap="round" stroke-miterlimit="10" d="M312.431,387.206
			c-0.044,2.027,0.464,4.042,0.363,6.051c0-0.119,0-0.237,0-0.356"/>
		<path fill="none" stroke="#933A2A" stroke-linecap="round" stroke-miterlimit="10" d="M317.276,377.517
			c0.272,1.047-0.118,3.348-0.121,4.239"/>
		<path fill="none" stroke="#933A2A" stroke-linecap="round" stroke-miterlimit="10" d="M324.18,371.218
			c-0.034,1.068,0.153,2.576,0.121,3.393"/>
		<path fill="none" stroke="#933A2A" stroke-linecap="round" stroke-miterlimit="10" d="M333.023,376.185
			c0.47,0.854,0.383,1.843,0.363,2.785"/>
		<path fill="none" stroke="#933A2A" stroke-linecap="round" stroke-miterlimit="10" d="M310.735,370.007
			c0.54,0.777,0.498,1.959,0.606,2.906"/>
		<path fill="none" stroke="#933A2A" stroke-linecap="round" stroke-miterlimit="10" d="M342.835,356.076
			c0.227,0.54-0.171,1.976-0.363,2.664"/>
		<path fill="none" stroke="#933A2A" stroke-linecap="round" stroke-miterlimit="10" d="M334.355,358.255
			c0.345,1.036-0.242,2.521,0.242,3.393"/>
		<path fill="none" stroke="#933A2A" stroke-linecap="round" stroke-miterlimit="10" d="M321.273,359.83
			c0.089,0.895,0.374,1.768,0.497,2.666c0.007,0.048,0.243,1.698,0.109,1.089"/>
		<path fill="none" stroke="#933A2A" stroke-linecap="round" stroke-miterlimit="10" d="M327.572,352.322
			c0.329,1.046,0.003,2.513,0,3.634"/>
	</g>
	<path fill="#933A2A" d="M307.829,384.177c1.671,3.825,6.059,6.162,9.337,8.36c2.771,1.857,5.818,3.283,8.96,4.266
		c0.974,0.306,2.17,0.908,3.144,0.939c0.96,0.029,1.808-0.438,2.785-0.484c2.159-0.103,4.789,1.351,3.853,3.782
		c-0.943,2.453-3.917,3.975-5.914,1.907c-1.54-1.593-0.653-3.239-3.146-4.021c-2.098-0.656-4.229-0.978-6.299-1.82
		c-2.229-0.909-4.333-2.164-6.296-3.635c-1.848-1.383-3.202-3.105-4.82-4.727c-0.717-0.717-3.957-5.066-1.117-4.569"/>
	<path fill="#933A2A" d="M357.832,384.374c-0.068,2.245-2.392,4.895-3.635,6.668c-1.555,2.22-3.977,3.544-6.062,5.108
		c-1.739,1.303-3.563,2.845-5.688,3.391c-1.538,0.396-1.875,0.196-3.272-0.604c-0.799-0.458-1.771-0.881-2.694-0.546
		c-2.333,0.849-1.758,3.721-0.094,4.908c0.863,0.616,2.01,0.837,3.033,0.581c1.187-0.296,1.16-1.052,1.812-1.705
		c1.318-1.322,4.062-1.933,5.817-2.814c1.957-0.984,3.609-1.829,5.057-3.504c1.751-2.025,3.346-3.877,4.754-6.15
		c0.616-0.996,1.491-1.825,1.914-2.938c0.214-0.562,0.537-2.843-0.699-2.273"/>
	<path fill="#294C84" d="M417.458,447.652c1.63,2.356,1.879,5.821,2.375,8.542c0.285,1.565,0.52,3.116,0.589,4.719
		c0.038,0.889-0.372,3.07,0.147,3.752c0.659,0.862,2.986,0.019,3.417,1.082c0.619,1.526-2.222,1.178-2.944,1.282
		c-0.874,0.126-2.673,1.137-3.28-0.181c-0.256-0.556,0.478-3.081,0.478-3.906c0-3.333-0.104-6.521-1.06-9.557
		c-0.404-1.286-1.263-3.017-1.315-4.33c-0.08-1.968,1.271-2.135,2.375-0.625"/>
	<path fill="#294C84" d="M406.476,447.652c-1.63,2.356-1.879,5.821-2.375,8.542c-0.285,1.565-0.52,3.116-0.589,4.719
		c-0.038,0.889,0.372,3.07-0.147,3.752c-0.659,0.862-2.986,0.019-3.417,1.082c-0.619,1.526,2.222,1.178,2.944,1.282
		c0.874,0.126,2.673,1.137,3.28-0.181c0.256-0.556-0.477-3.081-0.477-3.906c0-3.333,0.104-6.521,1.059-9.557
		c0.404-1.286,1.263-3.017,1.316-4.33c0.079-1.968-1.272-2.135-2.375-0.625"/>
	<path fill="#6185DC" d="M405.658,351.161c-0.281,4.64,3.525,4.769,5.738,4.769c1.479,0.001,6.257,0.799,6.094-2.66
		c-0.261-5.514-12.05-4.368-11.841-1.938"/>
	<g>
		<path fill="#6185DC" d="M410.575,448.871c7.936-0.248,17.253-0.048,23.199-5.512c8.234-7.853,9.191-18.384,6.318-28.916
			c-2.297-8.81-4.596-16.66-4.404-26.044c0.191-8.234-0.766-18-4.403-25.277c-3.447-6.895-11.438-10.086-20.665-9.958
			c-10.096-0.128-15.319,3.063-18.768,9.958c-3.639,7.277-4.596,17.043-4.404,25.277c0.191,9.384-2.106,17.234-4.403,26.044
			c-2.873,10.532-1.916,21.063,6.317,28.916c5.947,5.464,15.266,5.264,23.2,5.512"/>
	</g>
	<g>
		<path fill="#33897B" d="M494.334,342.93c-4.5,1-9.25,0.25-13.25,2c-5.5,2.5-9.5,8.5-11.75,14c-4.5,10.75-2.5,27.25,5.75,35.5
			c9,9.25,23.25,8.75,35,7.25c14.75-1.75,24-10.25,24.5-25.5c0.25-11.25-2.25-20.75-12-27.25c-7-4.5-19.5-8-27.5-6"/>
	</g>
	<path fill="#205B50" d="M467.358,366.32c0.243,0.517-7.723-1.921-7.321-15.577c0,0,2.38-1.562,2.214-3.229s0.166-5.484-1-5.158
		c-1.166,0.325-1,4.325-1,4.325s-2.5-0.5-3,1s1.167,3,1.167,3s1.011,13.917,8.681,18.039L467.358,366.32z"/>
	<g opacity="0.5">
		<path fill="#205B50" d="M519.302,373.859c-4.129,1.771-7.079,7.374-2.063,10.027c7.964,4.131,11.091-12.388,2.536-10.027"/>
	</g>
	<g opacity="0.5">
		<path fill="#205B50" d="M510.815,384.677c-2.269,0.974-3.889,4.052-1.134,5.51c4.375,2.27,6.093-6.806,1.395-5.51"/>
	</g>
	<g opacity="0.5">
		<path fill="#205B50" d="M481.865,350.255c-1.732,0.743-2.972,3.096-0.865,4.209c3.342,1.733,4.653-5.199,1.063-4.209"/>
	</g>
	<g opacity="0.5">
		<path fill="#5E3C58" d="M412.562,448.871c-0.328-0.011-0.661-0.02-0.994-0.028c-0.333,0.01-0.665,0.019-0.993,0.028H412.562z"/>
		<path fill="#294C84" d="M441.351,428.205c-30.056,25.933-52.317,7.877-59.521,0.311c0.716,5.456,3.029,10.552,7.53,14.844
			c5.701,5.237,14.497,5.271,22.206,5.482c7.709-0.212,16.506-0.245,22.206-5.482C438.361,438.986,440.684,433.78,441.351,428.205z"
			/>
	</g>
	<path opacity="0.5" fill="#205B50" enable-background="new    " d="M532.912,385.49c-6.187,4.608-28.958,18.687-61.101,4.703
		c0.955,1.561,2.034,3.001,3.271,4.237c9,9.25,23.25,8.75,35,7.25C521.492,400.327,529.588,394.917,532.912,385.49z"/>
</g>
</svg>
