<?xml version="1.0" standalone="no"?>
<!DOCTYPE svg PUBLIC "-//W3C//DTD SVG 20010904//EN"
 "http://www.w3.org/TR/2001/REC-SVG-20010904/DTD/svg10.dtd">
<svg version="1.0" xmlns="http://www.w3.org/2000/svg"
 width="260.000000pt" height="260.000000pt" viewBox="0 0 260.000000 260.000000"
 preserveAspectRatio="xMidYMid meet">
<metadata>
Created by potrace 1.11, written by Peter Selinger 2001-2013
</metadata>
<g transform="translate(0.000000,260.000000) scale(0.100000,-0.100000)"
fill="#000000" stroke="none">
<path d="M1126 2589 c-549 -76 -986 -487 -1103 -1039 -25 -119 -25 -382 0
-500 58 -273 179 -493 376 -683 186 -179 393 -289 651 -344 118 -25 382 -25
500 0 258 55 465 165 651 344 197 190 318 410 376 683 25 118 25 382 0 500
-58 273 -179 493 -376 683 -185 178 -395 290 -646 342 -95 20 -332 28 -429 14z
m79 -363 c42 -18 69 -67 61 -110 -3 -17 -21 -82 -40 -145 l-35 -113 37 6 c176
29 347 31 482 6 95 -17 136 -91 95 -169 -24 -48 -58 -55 -192 -41 -88 9 -143
9 -217 1 -137 -16 -234 -39 -245 -59 -14 -28 -20 -200 -10 -317 17 -211 73
-362 178 -477 67 -73 110 -95 200 -104 119 -13 219 40 297 157 66 100 123 123
183 74 64 -55 62 -129 -6 -232 -115 -173 -323 -253 -549 -210 -93 18 -159 48
-226 104 -187 154 -298 443 -302 784 -1 124 -2 127 -21 116 -36 -19 -139 -90
-185 -127 -63 -52 -87 -63 -124 -56 -38 7 -81 49 -90 88 -4 16 0 42 8 62 25
60 202 192 365 272 l77 38 28 115 c15 64 42 159 59 211 27 80 37 98 66 117 40
27 59 28 106 9z"/>
</g>
</svg>
