<?xml version="1.0" encoding="UTF-8" standalone="no"?>
<!-- Created with Inkscape (http://www.inkscape.org/) -->

<svg
   xmlns:dc="http://purl.org/dc/elements/1.1/"
   xmlns:cc="http://creativecommons.org/ns#"
   xmlns:rdf="http://www.w3.org/1999/02/22-rdf-syntax-ns#"
   xmlns:svg="http://www.w3.org/2000/svg"
   xmlns="http://www.w3.org/2000/svg"
   version="1.1"
   width="32"
   height="32"
   id="svg3783">
  <defs
     id="defs3785" />
  <metadata
     id="metadata3788">
    <rdf:RDF>
      <cc:Work
         rdf:about="">
        <dc:format>image/svg+xml</dc:format>
        <dc:type
           rdf:resource="http://purl.org/dc/dcmitype/StillImage" />
        <dc:title></dc:title>
      </cc:Work>
    </rdf:RDF>
  </metadata>
  <g
     id="layer1">
    <path
       d="m 9.9288114,27.988862 c 0,0 -6.6085721,3.61087 -6.5204739,1.902041 C 3.5883563,26.399093 3.7808284,16.847042 3.9972183,14.175565 4.1735846,11.9982 4.9019385,9.5429066 6.0285844,7.5126763 6.848271,6.0355887 7.9716707,4.6560634 9.3600285,3.693704 10.31098,3.0345397 11.459056,2.5916471 12.610218,2.4748841 c 1.036658,-0.1051487 2.186725,-0.035923 3.087677,0.4875282 0.599825,0.3484935 0.939566,1.0324156 1.300078,1.6250944 0.277258,0.4558091 0.511208,0.9474534 0.650037,1.4625842 0.326116,1.2100703 0.338462,2.4863096 0.406274,3.7377182 0.02784,0.5138579 -0.02676,0.9569539 0,1.5438379 0.01589,0.348453 1.827211,-0.551326 2.762659,-0.731292 1.098564,-0.211344 2.217904,-0.513653 3.331444,-0.406273 1.048665,0.101127 2.247512,0.244319 3.006424,0.975056 0.623428,0.60028 0.742505,1.585522 0.893802,2.437642 0.156253,0.880037 0.166728,1.803293 0,2.681404 -0.179197,0.943794 -0.587857,1.842711 -1.056314,2.681406 -0.594346,1.064082 -1.330431,2.064942 -2.193875,2.925168 -1.028463,1.024633 -2.221219,1.901754 -3.493952,2.600151 -1.067199,0.585611 -2.234561,0.993722 -3.412699,1.300072 -1.271542,0.330641 -2.592754,0.697862 -3.900225,0.568784 C 12.704235,26.236681 11.383604,25.821271 10.335087,25.063688 9.333828,24.340257 8.5904772,23.254054 8.0599525,22.138524 7.5943617,21.159525 7.4513312,20.046699 7.3286597,18.96959 c -0.1072687,-0.941883 -0.076117,-1.899006 0,-2.843915 0.081515,-1.011954 0.2307101,-2.865649 0.4875306,-3.847861 0.2991232,-1.144006 0.8716005,-2.048857 1.4992977,-3.0509641 0.5999149,-0.9577512 1.11125,-1.2879408 2.075909,-1.8766836 1.038566,-0.6338495 2.290325,-0.8783445 3.493951,-1.0563108 0.723429,-0.1069644 1.46544,-0.06453 2.193879,0 0.76737,0.067976 1.553752,0.1359259 2.275131,0.4062737 0.739433,0.2771133 1.436785,0.6991821 2.031369,1.2188206 0.652929,0.5706286 1.214804,1.2674359 1.625097,2.0313681 0.37691,0.7017781 0.567881,1.4954811 0.731291,2.2751321 0.217824,1.039271 0.325018,2.107081 0.325018,3.168934 0,1.061853 0.05027,2.175609 -0.325018,3.168933 -0.329381,0.871825 -0.862156,1.739878 -1.625097,2.275133 -0.575629,0.403846 -1.328559,0.59116 -2.031366,0.568781 -0.573629,-0.01825 -1.205669,-0.177034 -1.625095,-0.568781 -0.301491,-0.281598 -0.507761,-0.725519 -0.487527,-1.137568 0.120485,-2.453545 0.514908,-4.632574 0.325017,-7.475432 -0.04125,-0.617442 -1.088232,-0.701851 -1.706349,-0.731293 -0.710142,-0.03382 -1.43794,0.258518 -2.031368,0.650038 -0.448753,0.296068 -0.742232,0.502005 -1.056311,0.938343 -0.404341,0.561731 -0.574868,0.844817 -0.775832,1.507124 -0.476526,0.944625 -0.963039,4.692566 -0.03672,6.086276 0.380392,0.517284 1.070322,0.805789 1.706352,0.893803 0.520929,0.07208 1.083908,-0.07002 1.543837,-0.325021 0.854399,-0.473713 2.03137,-2.112621 2.03137,-2.112621 l 0,0"
       id="path2987"
       style="fill:none;stroke:#000000;stroke-width:2.03347445;stroke-linecap:butt;stroke-linejoin:miter;stroke-miterlimit:4;stroke-opacity:1;stroke-dasharray:none" />
  </g>
</svg>
